G04 #@! TF.FileFunction,Legend,Top*
%FSLAX46Y46*%
G04 Gerber Fmt 4.6, Leading zero omitted, Abs format (unit mm)*
G04 Created by KiCad (PCBNEW 4.0.7) date 02/04/18 23:22:38*
%MOMM*%
%LPD*%
G01*
G04 APERTURE LIST*
%ADD10C,0.100000*%
%ADD11C,0.120000*%
%ADD12C,0.150000*%
G04 APERTURE END LIST*
D10*
D11*
X145250000Y-101900000D02*
X145950000Y-101900000D01*
X145950000Y-103100000D02*
X145250000Y-103100000D01*
X120750000Y-107100000D02*
X120050000Y-107100000D01*
X120050000Y-105900000D02*
X120750000Y-105900000D01*
X145320000Y-95000000D02*
X145320000Y-94000000D01*
X146680000Y-94000000D02*
X146680000Y-95000000D01*
X187320000Y-95000000D02*
X187320000Y-94000000D01*
X188680000Y-94000000D02*
X188680000Y-95000000D01*
X187320000Y-104000000D02*
X187320000Y-103000000D01*
X188680000Y-103000000D02*
X188680000Y-104000000D01*
X194680000Y-109000000D02*
X194680000Y-110000000D01*
X193320000Y-110000000D02*
X193320000Y-109000000D01*
X190680000Y-109000000D02*
X190680000Y-110000000D01*
X189320000Y-110000000D02*
X189320000Y-109000000D01*
X183320000Y-104000000D02*
X183320000Y-103000000D01*
X184680000Y-103000000D02*
X184680000Y-104000000D01*
X186680000Y-109000000D02*
X186680000Y-110000000D01*
X185320000Y-110000000D02*
X185320000Y-109000000D01*
X182680000Y-109000000D02*
X182680000Y-110000000D01*
X181320000Y-110000000D02*
X181320000Y-109000000D01*
X186680000Y-98000000D02*
X186680000Y-99000000D01*
X185320000Y-99000000D02*
X185320000Y-98000000D01*
X179320000Y-95000000D02*
X179320000Y-94000000D01*
X180680000Y-94000000D02*
X180680000Y-95000000D01*
X183320000Y-95000000D02*
X183320000Y-94000000D01*
X184680000Y-94000000D02*
X184680000Y-95000000D01*
X165320000Y-95000000D02*
X165320000Y-94000000D01*
X166680000Y-94000000D02*
X166680000Y-95000000D01*
X165320000Y-104000000D02*
X165320000Y-103000000D01*
X166680000Y-103000000D02*
X166680000Y-104000000D01*
X172680000Y-109000000D02*
X172680000Y-110000000D01*
X171320000Y-110000000D02*
X171320000Y-109000000D01*
X168680000Y-109000000D02*
X168680000Y-110000000D01*
X167320000Y-110000000D02*
X167320000Y-109000000D01*
X161320000Y-104000000D02*
X161320000Y-103000000D01*
X162680000Y-103000000D02*
X162680000Y-104000000D01*
X164680000Y-109000000D02*
X164680000Y-110000000D01*
X163320000Y-110000000D02*
X163320000Y-109000000D01*
X160680000Y-109000000D02*
X160680000Y-110000000D01*
X159320000Y-110000000D02*
X159320000Y-109000000D01*
X164680000Y-98000000D02*
X164680000Y-99000000D01*
X163320000Y-99000000D02*
X163320000Y-98000000D01*
X157320000Y-95000000D02*
X157320000Y-94000000D01*
X158680000Y-94000000D02*
X158680000Y-95000000D01*
X161320000Y-95000000D02*
X161320000Y-94000000D01*
X162680000Y-94000000D02*
X162680000Y-95000000D01*
X131320000Y-95000000D02*
X131320000Y-94000000D01*
X132680000Y-94000000D02*
X132680000Y-95000000D01*
X131320000Y-104000000D02*
X131320000Y-103000000D01*
X132680000Y-103000000D02*
X132680000Y-104000000D01*
X134680000Y-109000000D02*
X134680000Y-110000000D01*
X133320000Y-110000000D02*
X133320000Y-109000000D01*
X127320000Y-104000000D02*
X127320000Y-103000000D01*
X128680000Y-103000000D02*
X128680000Y-104000000D01*
X130680000Y-109000000D02*
X130680000Y-110000000D01*
X129320000Y-110000000D02*
X129320000Y-109000000D01*
X126680000Y-109000000D02*
X126680000Y-110000000D01*
X125320000Y-110000000D02*
X125320000Y-109000000D01*
X130680000Y-98000000D02*
X130680000Y-99000000D01*
X129320000Y-99000000D02*
X129320000Y-98000000D01*
X123320000Y-95000000D02*
X123320000Y-94000000D01*
X124680000Y-94000000D02*
X124680000Y-95000000D01*
X127320000Y-95000000D02*
X127320000Y-94000000D01*
X128680000Y-94000000D02*
X128680000Y-95000000D01*
X109320000Y-95000000D02*
X109320000Y-94000000D01*
X110680000Y-94000000D02*
X110680000Y-95000000D01*
X109320000Y-104000000D02*
X109320000Y-103000000D01*
X110680000Y-103000000D02*
X110680000Y-104000000D01*
X116680000Y-109000000D02*
X116680000Y-110000000D01*
X115320000Y-110000000D02*
X115320000Y-109000000D01*
X112680000Y-109000000D02*
X112680000Y-110000000D01*
X111320000Y-110000000D02*
X111320000Y-109000000D01*
X105320000Y-104000000D02*
X105320000Y-103000000D01*
X106680000Y-103000000D02*
X106680000Y-104000000D01*
X108680000Y-109000000D02*
X108680000Y-110000000D01*
X107320000Y-110000000D02*
X107320000Y-109000000D01*
X104680000Y-109000000D02*
X104680000Y-110000000D01*
X103320000Y-110000000D02*
X103320000Y-109000000D01*
X105320000Y-95000000D02*
X105320000Y-94000000D01*
X106680000Y-94000000D02*
X106680000Y-95000000D01*
D12*
X171850000Y-105150000D02*
X171850000Y-104360000D01*
X178150000Y-98850000D02*
X178150000Y-99640000D01*
X171850000Y-98850000D02*
X171850000Y-99640000D01*
X178150000Y-105150000D02*
X177360000Y-105150000D01*
X178150000Y-98850000D02*
X177360000Y-98850000D01*
X171850000Y-98850000D02*
X172640000Y-98850000D01*
X171850000Y-105150000D02*
X172640000Y-105150000D01*
X150150000Y-103850000D02*
X150150000Y-104640000D01*
X143850000Y-110150000D02*
X143850000Y-109360000D01*
X150150000Y-110150000D02*
X150150000Y-109360000D01*
X143850000Y-103850000D02*
X144640000Y-103850000D01*
X143850000Y-110150000D02*
X144640000Y-110150000D01*
X150150000Y-110150000D02*
X149360000Y-110150000D01*
X150150000Y-103850000D02*
X149360000Y-103850000D01*
D11*
X147500000Y-95230000D02*
X146840000Y-95230000D01*
X149160000Y-95230000D02*
X148500000Y-95230000D01*
X149160000Y-95230000D02*
X149160000Y-93200000D01*
X146840000Y-93820000D02*
X146840000Y-95230000D01*
X189500000Y-95230000D02*
X188840000Y-95230000D01*
X191160000Y-95230000D02*
X190500000Y-95230000D01*
X191160000Y-95230000D02*
X191160000Y-93200000D01*
X188840000Y-93820000D02*
X188840000Y-95230000D01*
X188430000Y-101500000D02*
X188430000Y-102160000D01*
X188430000Y-99840000D02*
X188430000Y-100500000D01*
X188430000Y-99840000D02*
X186400000Y-99840000D01*
X187020000Y-102160000D02*
X188430000Y-102160000D01*
X192500000Y-108770000D02*
X193160000Y-108770000D01*
X190840000Y-108770000D02*
X191500000Y-108770000D01*
X190840000Y-108770000D02*
X190840000Y-110800000D01*
X193160000Y-110180000D02*
X193160000Y-108770000D01*
X188500000Y-108770000D02*
X189160000Y-108770000D01*
X186840000Y-108770000D02*
X187500000Y-108770000D01*
X186840000Y-108770000D02*
X186840000Y-110800000D01*
X189160000Y-110180000D02*
X189160000Y-108770000D01*
X185500000Y-104730000D02*
X184840000Y-104730000D01*
X187160000Y-104730000D02*
X186500000Y-104730000D01*
X187160000Y-104730000D02*
X187160000Y-102700000D01*
X184840000Y-103320000D02*
X184840000Y-104730000D01*
X184500000Y-108770000D02*
X185160000Y-108770000D01*
X182840000Y-108770000D02*
X183500000Y-108770000D01*
X182840000Y-108770000D02*
X182840000Y-110800000D01*
X185160000Y-110180000D02*
X185160000Y-108770000D01*
X180500000Y-108770000D02*
X181160000Y-108770000D01*
X178840000Y-108770000D02*
X179500000Y-108770000D01*
X178840000Y-108770000D02*
X178840000Y-110800000D01*
X181160000Y-110180000D02*
X181160000Y-108770000D01*
X181500000Y-95230000D02*
X180840000Y-95230000D01*
X183160000Y-95230000D02*
X182500000Y-95230000D01*
X183160000Y-95230000D02*
X183160000Y-93200000D01*
X180840000Y-93820000D02*
X180840000Y-95230000D01*
X185500000Y-95230000D02*
X184840000Y-95230000D01*
X187160000Y-95230000D02*
X186500000Y-95230000D01*
X187160000Y-95230000D02*
X187160000Y-93200000D01*
X184840000Y-93820000D02*
X184840000Y-95230000D01*
X167500000Y-95230000D02*
X166840000Y-95230000D01*
X169160000Y-95230000D02*
X168500000Y-95230000D01*
X169160000Y-95230000D02*
X169160000Y-93200000D01*
X166840000Y-93820000D02*
X166840000Y-95230000D01*
X166430000Y-101500000D02*
X166430000Y-102160000D01*
X166430000Y-99840000D02*
X166430000Y-100500000D01*
X166430000Y-99840000D02*
X164400000Y-99840000D01*
X165020000Y-102160000D02*
X166430000Y-102160000D01*
X170500000Y-108770000D02*
X171160000Y-108770000D01*
X168840000Y-108770000D02*
X169500000Y-108770000D01*
X168840000Y-108770000D02*
X168840000Y-110800000D01*
X171160000Y-110180000D02*
X171160000Y-108770000D01*
X166500000Y-108770000D02*
X167160000Y-108770000D01*
X164840000Y-108770000D02*
X165500000Y-108770000D01*
X164840000Y-108770000D02*
X164840000Y-110800000D01*
X167160000Y-110180000D02*
X167160000Y-108770000D01*
X163500000Y-104730000D02*
X162840000Y-104730000D01*
X165160000Y-104730000D02*
X164500000Y-104730000D01*
X165160000Y-104730000D02*
X165160000Y-102700000D01*
X162840000Y-103320000D02*
X162840000Y-104730000D01*
X162500000Y-108770000D02*
X163160000Y-108770000D01*
X160840000Y-108770000D02*
X161500000Y-108770000D01*
X160840000Y-108770000D02*
X160840000Y-110800000D01*
X163160000Y-110180000D02*
X163160000Y-108770000D01*
X158500000Y-108770000D02*
X159160000Y-108770000D01*
X156840000Y-108770000D02*
X157500000Y-108770000D01*
X156840000Y-108770000D02*
X156840000Y-110800000D01*
X159160000Y-110180000D02*
X159160000Y-108770000D01*
X161570000Y-100500000D02*
X161570000Y-99840000D01*
X161570000Y-102160000D02*
X161570000Y-101500000D01*
X161570000Y-102160000D02*
X163600000Y-102160000D01*
X162980000Y-99840000D02*
X161570000Y-99840000D01*
X159500000Y-95230000D02*
X158840000Y-95230000D01*
X161160000Y-95230000D02*
X160500000Y-95230000D01*
X161160000Y-95230000D02*
X161160000Y-93200000D01*
X158840000Y-93820000D02*
X158840000Y-95230000D01*
X163500000Y-95230000D02*
X162840000Y-95230000D01*
X165160000Y-95230000D02*
X164500000Y-95230000D01*
X165160000Y-95230000D02*
X165160000Y-93200000D01*
X162840000Y-93820000D02*
X162840000Y-95230000D01*
X133500000Y-95230000D02*
X132840000Y-95230000D01*
X135160000Y-95230000D02*
X134500000Y-95230000D01*
X135160000Y-95230000D02*
X135160000Y-93200000D01*
X132840000Y-93820000D02*
X132840000Y-95230000D01*
X132430000Y-101500000D02*
X132430000Y-102160000D01*
X132430000Y-99840000D02*
X132430000Y-100500000D01*
X132430000Y-99840000D02*
X130400000Y-99840000D01*
X131020000Y-102160000D02*
X132430000Y-102160000D01*
X132500000Y-108770000D02*
X133160000Y-108770000D01*
X130840000Y-108770000D02*
X131500000Y-108770000D01*
X130840000Y-108770000D02*
X130840000Y-110800000D01*
X133160000Y-110180000D02*
X133160000Y-108770000D01*
X129500000Y-104730000D02*
X128840000Y-104730000D01*
X131160000Y-104730000D02*
X130500000Y-104730000D01*
X131160000Y-104730000D02*
X131160000Y-102700000D01*
X128840000Y-103320000D02*
X128840000Y-104730000D01*
X128500000Y-108770000D02*
X129160000Y-108770000D01*
X126840000Y-108770000D02*
X127500000Y-108770000D01*
X126840000Y-108770000D02*
X126840000Y-110800000D01*
X129160000Y-110180000D02*
X129160000Y-108770000D01*
X125500000Y-95230000D02*
X124840000Y-95230000D01*
X127160000Y-95230000D02*
X126500000Y-95230000D01*
X127160000Y-95230000D02*
X127160000Y-93200000D01*
X124840000Y-93820000D02*
X124840000Y-95230000D01*
X129500000Y-95230000D02*
X128840000Y-95230000D01*
X131160000Y-95230000D02*
X130500000Y-95230000D01*
X131160000Y-95230000D02*
X131160000Y-93200000D01*
X128840000Y-93820000D02*
X128840000Y-95230000D01*
X111500000Y-95230000D02*
X110840000Y-95230000D01*
X113160000Y-95230000D02*
X112500000Y-95230000D01*
X113160000Y-95230000D02*
X113160000Y-93200000D01*
X110840000Y-93820000D02*
X110840000Y-95230000D01*
X114500000Y-108770000D02*
X115160000Y-108770000D01*
X112840000Y-108770000D02*
X113500000Y-108770000D01*
X112840000Y-108770000D02*
X112840000Y-110800000D01*
X115160000Y-110180000D02*
X115160000Y-108770000D01*
X110500000Y-108770000D02*
X111160000Y-108770000D01*
X108840000Y-108770000D02*
X109500000Y-108770000D01*
X108840000Y-108770000D02*
X108840000Y-110800000D01*
X111160000Y-110180000D02*
X111160000Y-108770000D01*
X107500000Y-104730000D02*
X106840000Y-104730000D01*
X109160000Y-104730000D02*
X108500000Y-104730000D01*
X109160000Y-104730000D02*
X109160000Y-102700000D01*
X106840000Y-103320000D02*
X106840000Y-104730000D01*
X106500000Y-108770000D02*
X107160000Y-108770000D01*
X104840000Y-108770000D02*
X105500000Y-108770000D01*
X104840000Y-108770000D02*
X104840000Y-110800000D01*
X107160000Y-110180000D02*
X107160000Y-108770000D01*
X102500000Y-108770000D02*
X103160000Y-108770000D01*
X100840000Y-108770000D02*
X101500000Y-108770000D01*
X100840000Y-108770000D02*
X100840000Y-110800000D01*
X103160000Y-110180000D02*
X103160000Y-108770000D01*
X105570000Y-100500000D02*
X105570000Y-99840000D01*
X105570000Y-102160000D02*
X105570000Y-101500000D01*
X105570000Y-102160000D02*
X107600000Y-102160000D01*
X106980000Y-99840000D02*
X105570000Y-99840000D01*
X107500000Y-95230000D02*
X106840000Y-95230000D01*
X109160000Y-95230000D02*
X108500000Y-95230000D01*
X109160000Y-95230000D02*
X109160000Y-93200000D01*
X106840000Y-93820000D02*
X106840000Y-95230000D01*
X124500000Y-108770000D02*
X125160000Y-108770000D01*
X122840000Y-108770000D02*
X123500000Y-108770000D01*
X122840000Y-108770000D02*
X122840000Y-110800000D01*
X125160000Y-110180000D02*
X125160000Y-108770000D01*
X101320000Y-95000000D02*
X101320000Y-94000000D01*
X102680000Y-94000000D02*
X102680000Y-95000000D01*
X103500000Y-95230000D02*
X102840000Y-95230000D01*
X105160000Y-95230000D02*
X104500000Y-95230000D01*
X105160000Y-95230000D02*
X105160000Y-93200000D01*
X102840000Y-93820000D02*
X102840000Y-95230000D01*
X110430000Y-101500000D02*
X110430000Y-102160000D01*
X110430000Y-99840000D02*
X110430000Y-100500000D01*
X110430000Y-99840000D02*
X108400000Y-99840000D01*
X109020000Y-102160000D02*
X110430000Y-102160000D01*
D12*
X115850000Y-105150000D02*
X115850000Y-104360000D01*
X122150000Y-98850000D02*
X122150000Y-99640000D01*
X115850000Y-98850000D02*
X115850000Y-99640000D01*
X122150000Y-105150000D02*
X121360000Y-105150000D01*
X122150000Y-98850000D02*
X121360000Y-98850000D01*
X115850000Y-98850000D02*
X116640000Y-98850000D01*
X115850000Y-105150000D02*
X116640000Y-105150000D01*
D11*
X127570000Y-100500000D02*
X127570000Y-99840000D01*
X127570000Y-102160000D02*
X127570000Y-101500000D01*
X127570000Y-102160000D02*
X129600000Y-102160000D01*
X128980000Y-99840000D02*
X127570000Y-99840000D01*
X108680000Y-98000000D02*
X108680000Y-99000000D01*
X107320000Y-99000000D02*
X107320000Y-98000000D01*
X183570000Y-100500000D02*
X183570000Y-99840000D01*
X183570000Y-102160000D02*
X183570000Y-101500000D01*
X183570000Y-102160000D02*
X185600000Y-102160000D01*
X184980000Y-99840000D02*
X183570000Y-99840000D01*
D12*
X146769804Y-100200000D02*
G75*
G03X146769804Y-100200000I-1019804J0D01*
G01*
X149250000Y-100200000D02*
G75*
G03X149250000Y-100200000I-1000000J0D01*
G01*
X149750000Y-100100000D02*
X149750000Y-98300000D01*
X149750000Y-101650000D02*
X149750000Y-101400000D01*
X149750000Y-96650000D02*
X149750000Y-97000000D01*
X144500000Y-96900000D02*
X145250000Y-96900000D01*
X149750000Y-101650000D02*
X144250000Y-101650000D01*
X144250000Y-101650000D02*
X144250000Y-96650000D01*
X144250000Y-96650000D02*
X149750000Y-96650000D01*
D11*
X138680000Y-109000000D02*
X138680000Y-110000000D01*
X137320000Y-110000000D02*
X137320000Y-109000000D01*
X136500000Y-108770000D02*
X137160000Y-108770000D01*
X134840000Y-108770000D02*
X135500000Y-108770000D01*
X134840000Y-108770000D02*
X134840000Y-110800000D01*
X137160000Y-110180000D02*
X137160000Y-108770000D01*
X176750000Y-107100000D02*
X176050000Y-107100000D01*
X176050000Y-105900000D02*
X176750000Y-105900000D01*
M02*
