M48
; DRILL file {KiCad (5.1.4)-1} date 25-Jan-20 7:49:43 PM
; FORMAT={-:-/ absolute / inch / decimal}
; #@! TF.CreationDate,2020-01-25T19:49:43-07:00
; #@! TF.GenerationSoftware,Kicad,Pcbnew,(5.1.4)-1
; #@! TF.FileFunction,Plated,1,4,PTH
FMAT,2
INCH
T1C0.0079
T2C0.0118
T3C0.0157
T4C0.0177
T5C0.0236
T6C0.0394
T7C0.0400
%
G90
G05
T1
X5.0029Y-2.5669
X5.0294Y-2.5405
X5.0294Y-2.5934
X5.0558Y-2.514
X5.0558Y-2.5669
X5.0558Y-2.6198
X5.0823Y-2.4876
X5.0823Y-2.5405
X5.0823Y-2.5934
X5.0823Y-2.6463
X5.1087Y-2.514
X5.1087Y-2.5669
X5.1087Y-2.6198
X5.1352Y-2.5405
X5.1352Y-2.5934
X5.1616Y-2.5669
X3.877Y-2.5212
X3.877Y-2.5586
X3.877Y-2.596
X3.877Y-2.6334
X3.9144Y-2.5212
X3.9144Y-2.5586
X3.9144Y-2.596
X3.9144Y-2.6334
X3.9518Y-2.5212
X3.9518Y-2.5586
X3.9518Y-2.596
X3.9518Y-2.6334
X3.9892Y-2.5212
X3.9892Y-2.5586
X3.9892Y-2.596
X3.9892Y-2.6334
X2.6923Y-2.8031
X2.7188Y-2.7767
X2.7188Y-2.8296
X2.7452Y-2.7503
X2.7452Y-2.8031
X2.7452Y-2.856
X2.7717Y-2.7238
X2.7717Y-2.7767
X2.7717Y-2.8296
X2.7717Y-2.8825
X2.7981Y-2.7503
X2.7981Y-2.8031
X2.7981Y-2.856
X2.8245Y-2.7767
X2.8245Y-2.8296
X2.851Y-2.8031
X3.5325Y-2.2254
X3.5325Y-2.2648
X3.5325Y-2.3041
X3.5719Y-2.2254
X3.5719Y-2.2648
X3.5719Y-2.3041
T2
X2.0098Y-2.5512
X2.063Y-2.6772
X2.0748Y-2.3957
X2.1378Y-2.872
X2.1634Y-2.2756
X2.2677Y-2.6969
X2.3366Y-2.9331
X2.4429Y-2.876
X2.6713Y-2.4508
X2.6988Y-2.5591
X2.9331Y-3.0039
X2.9419Y-2.936
X2.9439Y-2.8947
X2.9695Y-2.7215
X3.1614Y-2.6949
X3.1969Y-2.6378
X3.9626Y-2.7657
X3.9892Y-2.7333
X4.0689Y-2.9124
X4.2677Y-2.2382
X4.2795Y-2.5984
X4.2874Y-2.4606
X4.3425Y-2.6969
X4.3484Y-2.3307
X4.3898Y-3.0315
X4.4409Y-2.7835
X4.5768Y-2.6949
X4.6102Y-2.626
X4.7874Y-2.8386
X4.9055Y-2.8465
X4.94Y-3.0935
X5.0423Y-3.0551
X5.0778Y-2.7598
X5.1614Y-3.0177
X5.1644Y-3.0581
X5.2195Y-2.8278
X5.248Y-2.4429
X5.252Y-2.3307
X5.2598Y-2.5965
X5.2776Y-2.6752
X5.3386Y-2.7736
X5.3543Y-3.0827
X5.3819Y-2.5827
X5.5236Y-3.0935
X5.5689Y-2.8563
X5.6201Y-2.687
X5.6496Y-2.2008
X5.7047Y-2.8642
X5.7697Y-2.2579
X5.7982Y-2.3927
X5.8012Y-2.5876
X5.8346Y-2.5039
X5.8524Y-2.7638
X5.8593Y-2.249
X5.8789Y-2.8829
T3
X2.0079Y-2.9252
X2.0482Y-2.1988
X2.062Y-2.3248
X2.2589Y-2.0197
X2.2844Y-2.4203
X2.2923Y-3.0256
X2.313Y-2.498
X2.3228Y-2.2185
X2.4026Y-2.4262
X2.4124Y-2.563
X2.5236Y-2.0217
X2.5433Y-2.7992
X2.5689Y-3.0344
X2.6014Y-2.6309
X2.7707Y-3.0039
X2.8401Y-2.626
X2.8465Y-2.5177
X2.8858Y-2.4154
X2.9783Y-2.0118
X3.0079Y-2.876
X3.0413Y-2.2638
X3.0787Y-2.0118
X3.0965Y-2.2008
X3.1043Y-2.8081
X3.1516Y-2.9429
X3.2165Y-2.5413
X3.2559Y-2.0492
X3.2638Y-2.939
X3.2795Y-2.7047
X3.3228Y-2.2165
X3.3484Y-2.1693
X3.3937Y-2.8602
X3.3996Y-2.3317
X3.4646Y-2.1634
X3.4921Y-2.0394
X3.5059Y-2.8071
X3.563Y-2.0866
X3.5787Y-2.4626
X3.5906Y-2.6909
X3.6181Y-2.5689
X3.6348Y-2.8583
X3.6378Y-2.3622
X3.6713Y-2.0059
X3.7244Y-2.9675
X3.7953Y-2.812
X3.7992Y-2.1161
X3.8366Y-2.372
X3.8671Y-2.1978
X4.0669Y-2.251
X4.1555Y-2.0315
X4.2067Y-2.1978
X4.2146Y-2.2874
X4.4616Y-2.1506
X4.6378Y-2.7067
X4.6388Y-2.5433
X4.6506Y-2.4144
X4.872Y-2.6949
X4.8878Y-2.5866
X4.9596Y-2.0197
X5.0196Y-2.3876
X5.0311Y-2.0425
X5.05Y-2.1051
X5.1309Y-2.3691
X5.375Y-2.0167
X5.4567Y-2.5295
X5.5758Y-2.6358
X5.6161Y-3.0994
T5
X3.0134Y-2.5327
X3.0258Y-2.6356
X3.0503Y-2.4358
X3.0846Y-2.721
X3.128Y-2.3672
X3.1763Y-2.7692
X3.2283Y-2.3425
X3.28Y-2.7693
X3.329Y-2.3673
X3.3718Y-2.7212
X3.4066Y-2.4361
X3.4308Y-2.6359
X3.4433Y-2.533
X4.4307Y-2.5327
X4.4431Y-2.6356
X4.4676Y-2.4358
X4.5019Y-2.721
X4.5453Y-2.3672
X4.5937Y-2.7692
X4.6457Y-2.3425
X4.6973Y-2.7693
X4.7463Y-2.3673
X4.7892Y-2.7212
X4.8239Y-2.4361
X4.8481Y-2.6359
X4.8606Y-2.533
X2.1079Y-2.5327
X2.1203Y-2.6356
X2.1448Y-2.4358
X2.1791Y-2.721
X2.2225Y-2.3672
X2.2708Y-2.7692
X2.3228Y-2.3425
X2.3745Y-2.7693
X2.4235Y-2.3673
X2.4663Y-2.7212
X2.5011Y-2.4361
X2.5253Y-2.6359
X2.5378Y-2.533
X5.3363Y-2.5327
X5.3486Y-2.6356
X5.3732Y-2.4358
X5.4074Y-2.721
X5.4509Y-2.3672
X5.4992Y-2.7692
X5.5512Y-2.3425
X5.6028Y-2.7693
X5.6518Y-2.3673
X5.6947Y-2.7212
X5.7294Y-2.4361
X5.7536Y-2.6359
X5.7661Y-2.533
T6
X3.5476Y-2.9852
X3.6476Y-2.9852
T7
X4.3886Y-2.2173
X4.3886Y-2.9173
X4.4886Y-2.2173
X4.4886Y-2.9173
X4.5886Y-2.2173
X4.5886Y-2.9173
X4.6886Y-2.2173
X4.6886Y-2.9173
X4.7886Y-2.2173
X4.7886Y-2.9173
X4.8886Y-2.2173
X4.8886Y-2.9173
X4.9886Y-2.2173
X4.9886Y-2.9173
X5.0886Y-2.2173
X5.0886Y-2.9173
X5.1886Y-2.2173
X5.1886Y-2.9173
X5.2886Y-2.2173
X5.2886Y-2.9173
X5.3886Y-2.2173
X5.3886Y-2.9173
X5.4886Y-2.2173
X5.4886Y-2.9173
T4
G00X3.7963Y-2.0413
M15
G01X3.7963Y-2.0098
M16
G05
G00X4.0778Y-2.0098
M15
G01X4.0778Y-2.0413
M16
G05
T0
M30
