G04 #@! TF.GenerationSoftware,KiCad,Pcbnew,(5.1.4)-1*
G04 #@! TF.CreationDate,2020-01-25T19:49:42-07:00*
G04 #@! TF.ProjectId,PCBV1,50434256-312e-46b6-9963-61645f706362,rev?*
G04 #@! TF.SameCoordinates,Original*
G04 #@! TF.FileFunction,Profile,NP*
%FSLAX46Y46*%
G04 Gerber Fmt 4.6, Leading zero omitted, Abs format (unit mm)*
G04 Created by KiCad (PCBNEW (5.1.4)-1) date 2020-01-25 19:49:42*
%MOMM*%
%LPD*%
G04 APERTURE LIST*
%ADD10C,0.050000*%
G04 APERTURE END LIST*
D10*
X104600000Y-80000000D02*
X147000000Y-80000000D01*
X95400000Y-80000000D02*
X53000000Y-80000000D01*
X95400000Y-75800000D02*
X95400000Y-80000000D01*
X104600000Y-75800000D02*
X95400000Y-75800000D01*
X104600000Y-80000000D02*
X104600000Y-75800000D01*
X74700000Y-50000000D02*
X147000000Y-50000000D01*
X64700000Y-50000000D02*
X53000000Y-50000000D01*
X64700000Y-60100000D02*
X64700000Y-50000000D01*
X74700000Y-60100000D02*
X64700000Y-60100000D01*
X74700000Y-50000000D02*
X74700000Y-60100000D01*
X54550000Y-53000000D02*
G75*
G03X54550000Y-53000000I-1550000J0D01*
G01*
X50000000Y-53000000D02*
G75*
G02X53000000Y-50000000I3000000J0D01*
G01*
X53000000Y-80000000D02*
G75*
G02X50000000Y-77000000I0J3000000D01*
G01*
X150000000Y-77000000D02*
G75*
G02X147000000Y-80000000I-3000000J0D01*
G01*
X54550000Y-77000000D02*
G75*
G03X54550000Y-77000000I-1550000J0D01*
G01*
X148550000Y-77000000D02*
G75*
G03X148550000Y-77000000I-1550000J0D01*
G01*
X148550000Y-53000000D02*
G75*
G03X148550000Y-53000000I-1550000J0D01*
G01*
X147000000Y-50000000D02*
G75*
G02X150000000Y-53000000I0J-3000000D01*
G01*
X50000000Y-53000000D02*
X50000000Y-77000000D01*
X150000000Y-53000000D02*
X150000000Y-77000000D01*
M02*
