G04 #@! TF.GenerationSoftware,KiCad,Pcbnew,(5.1.4)-1*
G04 #@! TF.CreationDate,2020-01-25T19:49:42-07:00*
G04 #@! TF.ProjectId,PCBV1,50434256-312e-46b6-9963-61645f706362,rev?*
G04 #@! TF.SameCoordinates,Original*
G04 #@! TF.FileFunction,Soldermask,Top*
G04 #@! TF.FilePolarity,Negative*
%FSLAX46Y46*%
G04 Gerber Fmt 4.6, Leading zero omitted, Abs format (unit mm)*
G04 Created by KiCad (PCBNEW (5.1.4)-1) date 2020-01-25 19:49:42*
%MOMM*%
%LPD*%
G04 APERTURE LIST*
%ADD10C,0.100000*%
G04 APERTURE END LIST*
D10*
G36*
X143279591Y-76365585D02*
G01*
X143313569Y-76375893D01*
X143344890Y-76392634D01*
X143372339Y-76415161D01*
X143394866Y-76442610D01*
X143411607Y-76473931D01*
X143421915Y-76507909D01*
X143426000Y-76549390D01*
X143426000Y-77150610D01*
X143421915Y-77192091D01*
X143411607Y-77226069D01*
X143394866Y-77257390D01*
X143372339Y-77284839D01*
X143344890Y-77307366D01*
X143313569Y-77324107D01*
X143279591Y-77334415D01*
X143238110Y-77338500D01*
X142561890Y-77338500D01*
X142520409Y-77334415D01*
X142486431Y-77324107D01*
X142455110Y-77307366D01*
X142427661Y-77284839D01*
X142405134Y-77257390D01*
X142388393Y-77226069D01*
X142378085Y-77192091D01*
X142374000Y-77150610D01*
X142374000Y-76549390D01*
X142378085Y-76507909D01*
X142388393Y-76473931D01*
X142405134Y-76442610D01*
X142427661Y-76415161D01*
X142455110Y-76392634D01*
X142486431Y-76375893D01*
X142520409Y-76365585D01*
X142561890Y-76361500D01*
X143238110Y-76361500D01*
X143279591Y-76365585D01*
X143279591Y-76365585D01*
G37*
G36*
X84879591Y-76215585D02*
G01*
X84913569Y-76225893D01*
X84944890Y-76242634D01*
X84972339Y-76265161D01*
X84994866Y-76292610D01*
X85011607Y-76323931D01*
X85021915Y-76357909D01*
X85026000Y-76399390D01*
X85026000Y-77000610D01*
X85021915Y-77042091D01*
X85011607Y-77076069D01*
X84994866Y-77107390D01*
X84972339Y-77134839D01*
X84944890Y-77157366D01*
X84913569Y-77174107D01*
X84879591Y-77184415D01*
X84838110Y-77188500D01*
X84161890Y-77188500D01*
X84120409Y-77184415D01*
X84086431Y-77174107D01*
X84055110Y-77157366D01*
X84027661Y-77134839D01*
X84005134Y-77107390D01*
X83988393Y-77076069D01*
X83978085Y-77042091D01*
X83974000Y-77000610D01*
X83974000Y-76399390D01*
X83978085Y-76357909D01*
X83988393Y-76323931D01*
X84005134Y-76292610D01*
X84027661Y-76265161D01*
X84055110Y-76242634D01*
X84086431Y-76225893D01*
X84120409Y-76215585D01*
X84161890Y-76211500D01*
X84838110Y-76211500D01*
X84879591Y-76215585D01*
X84879591Y-76215585D01*
G37*
G36*
X81679591Y-76203085D02*
G01*
X81713569Y-76213393D01*
X81744890Y-76230134D01*
X81772339Y-76252661D01*
X81794866Y-76280110D01*
X81811607Y-76311431D01*
X81821915Y-76345409D01*
X81826000Y-76386890D01*
X81826000Y-76988110D01*
X81821915Y-77029591D01*
X81811607Y-77063569D01*
X81794866Y-77094890D01*
X81772339Y-77122339D01*
X81744890Y-77144866D01*
X81713569Y-77161607D01*
X81679591Y-77171915D01*
X81638110Y-77176000D01*
X80961890Y-77176000D01*
X80920409Y-77171915D01*
X80886431Y-77161607D01*
X80855110Y-77144866D01*
X80827661Y-77122339D01*
X80805134Y-77094890D01*
X80788393Y-77063569D01*
X80778085Y-77029591D01*
X80774000Y-76988110D01*
X80774000Y-76386890D01*
X80778085Y-76345409D01*
X80788393Y-76311431D01*
X80805134Y-76280110D01*
X80827661Y-76252661D01*
X80855110Y-76230134D01*
X80886431Y-76213393D01*
X80920409Y-76203085D01*
X80961890Y-76199000D01*
X81638110Y-76199000D01*
X81679591Y-76203085D01*
X81679591Y-76203085D01*
G37*
G36*
X61054591Y-76065585D02*
G01*
X61088569Y-76075893D01*
X61119890Y-76092634D01*
X61147339Y-76115161D01*
X61169866Y-76142610D01*
X61186607Y-76173931D01*
X61196915Y-76207909D01*
X61201000Y-76249390D01*
X61201000Y-76850610D01*
X61196915Y-76892091D01*
X61186607Y-76926069D01*
X61169866Y-76957390D01*
X61147339Y-76984839D01*
X61119890Y-77007366D01*
X61088569Y-77024107D01*
X61054591Y-77034415D01*
X61013110Y-77038500D01*
X60336890Y-77038500D01*
X60295409Y-77034415D01*
X60261431Y-77024107D01*
X60230110Y-77007366D01*
X60202661Y-76984839D01*
X60180134Y-76957390D01*
X60163393Y-76926069D01*
X60153085Y-76892091D01*
X60149000Y-76850610D01*
X60149000Y-76249390D01*
X60153085Y-76207909D01*
X60163393Y-76173931D01*
X60180134Y-76142610D01*
X60202661Y-76115161D01*
X60230110Y-76092634D01*
X60261431Y-76075893D01*
X60295409Y-76065585D01*
X60336890Y-76061500D01*
X61013110Y-76061500D01*
X61054591Y-76065585D01*
X61054591Y-76065585D01*
G37*
G36*
X93551000Y-76726000D02*
G01*
X91749000Y-76726000D01*
X91749000Y-74924000D01*
X93551000Y-74924000D01*
X93551000Y-76726000D01*
X93551000Y-76726000D01*
G37*
G36*
X90216539Y-74930134D02*
G01*
X90286627Y-74937037D01*
X90456466Y-74988557D01*
X90612991Y-75072222D01*
X90635366Y-75090585D01*
X90750186Y-75184814D01*
X90817552Y-75266901D01*
X90862778Y-75322009D01*
X90867121Y-75330134D01*
X90921766Y-75432366D01*
X90946443Y-75478534D01*
X90997963Y-75648373D01*
X91015359Y-75825000D01*
X90997963Y-76001627D01*
X90946443Y-76171466D01*
X90862778Y-76327991D01*
X90848483Y-76345409D01*
X90750186Y-76465186D01*
X90648729Y-76548448D01*
X90612991Y-76577778D01*
X90456466Y-76661443D01*
X90286627Y-76712963D01*
X90220442Y-76719482D01*
X90154260Y-76726000D01*
X90065740Y-76726000D01*
X89999558Y-76719482D01*
X89933373Y-76712963D01*
X89763534Y-76661443D01*
X89607009Y-76577778D01*
X89571271Y-76548448D01*
X89469814Y-76465186D01*
X89371517Y-76345409D01*
X89357222Y-76327991D01*
X89273557Y-76171466D01*
X89222037Y-76001627D01*
X89204641Y-75825000D01*
X89222037Y-75648373D01*
X89273557Y-75478534D01*
X89298235Y-75432366D01*
X89352879Y-75330134D01*
X89357222Y-75322009D01*
X89402448Y-75266901D01*
X89469814Y-75184814D01*
X89584634Y-75090585D01*
X89607009Y-75072222D01*
X89763534Y-74988557D01*
X89933373Y-74937037D01*
X90003461Y-74930134D01*
X90065740Y-74924000D01*
X90154260Y-74924000D01*
X90216539Y-74930134D01*
X90216539Y-74930134D01*
G37*
G36*
X86729591Y-75303085D02*
G01*
X86763569Y-75313393D01*
X86794890Y-75330134D01*
X86822339Y-75352661D01*
X86844866Y-75380110D01*
X86861607Y-75411431D01*
X86871915Y-75445409D01*
X86876000Y-75486890D01*
X86876000Y-76163110D01*
X86871915Y-76204591D01*
X86861607Y-76238569D01*
X86844866Y-76269890D01*
X86822339Y-76297339D01*
X86794890Y-76319866D01*
X86763569Y-76336607D01*
X86729591Y-76346915D01*
X86688110Y-76351000D01*
X86086890Y-76351000D01*
X86045409Y-76346915D01*
X86011431Y-76336607D01*
X85980110Y-76319866D01*
X85952661Y-76297339D01*
X85930134Y-76269890D01*
X85913393Y-76238569D01*
X85903085Y-76204591D01*
X85899000Y-76163110D01*
X85899000Y-75486890D01*
X85903085Y-75445409D01*
X85913393Y-75411431D01*
X85930134Y-75380110D01*
X85952661Y-75352661D01*
X85980110Y-75330134D01*
X86011431Y-75313393D01*
X86045409Y-75303085D01*
X86086890Y-75299000D01*
X86688110Y-75299000D01*
X86729591Y-75303085D01*
X86729591Y-75303085D01*
G37*
G36*
X88304591Y-75303085D02*
G01*
X88338569Y-75313393D01*
X88369890Y-75330134D01*
X88397339Y-75352661D01*
X88419866Y-75380110D01*
X88436607Y-75411431D01*
X88446915Y-75445409D01*
X88451000Y-75486890D01*
X88451000Y-76163110D01*
X88446915Y-76204591D01*
X88436607Y-76238569D01*
X88419866Y-76269890D01*
X88397339Y-76297339D01*
X88369890Y-76319866D01*
X88338569Y-76336607D01*
X88304591Y-76346915D01*
X88263110Y-76351000D01*
X87661890Y-76351000D01*
X87620409Y-76346915D01*
X87586431Y-76336607D01*
X87555110Y-76319866D01*
X87527661Y-76297339D01*
X87505134Y-76269890D01*
X87488393Y-76238569D01*
X87478085Y-76204591D01*
X87474000Y-76163110D01*
X87474000Y-75486890D01*
X87478085Y-75445409D01*
X87488393Y-75411431D01*
X87505134Y-75380110D01*
X87527661Y-75352661D01*
X87555110Y-75330134D01*
X87586431Y-75313393D01*
X87620409Y-75303085D01*
X87661890Y-75299000D01*
X88263110Y-75299000D01*
X88304591Y-75303085D01*
X88304591Y-75303085D01*
G37*
G36*
X58279591Y-75090585D02*
G01*
X58313569Y-75100893D01*
X58344890Y-75117634D01*
X58372339Y-75140161D01*
X58394866Y-75167610D01*
X58411607Y-75198931D01*
X58421915Y-75232909D01*
X58426000Y-75274390D01*
X58426000Y-75875610D01*
X58421915Y-75917091D01*
X58411607Y-75951069D01*
X58394866Y-75982390D01*
X58372339Y-76009839D01*
X58344890Y-76032366D01*
X58313569Y-76049107D01*
X58279591Y-76059415D01*
X58238110Y-76063500D01*
X57561890Y-76063500D01*
X57520409Y-76059415D01*
X57486431Y-76049107D01*
X57455110Y-76032366D01*
X57427661Y-76009839D01*
X57405134Y-75982390D01*
X57388393Y-75951069D01*
X57378085Y-75917091D01*
X57374000Y-75875610D01*
X57374000Y-75274390D01*
X57378085Y-75232909D01*
X57388393Y-75198931D01*
X57405134Y-75167610D01*
X57427661Y-75140161D01*
X57455110Y-75117634D01*
X57486431Y-75100893D01*
X57520409Y-75090585D01*
X57561890Y-75086500D01*
X58238110Y-75086500D01*
X58279591Y-75090585D01*
X58279591Y-75090585D01*
G37*
G36*
X63829591Y-74903085D02*
G01*
X63863569Y-74913393D01*
X63894890Y-74930134D01*
X63922339Y-74952661D01*
X63944866Y-74980110D01*
X63961607Y-75011431D01*
X63971915Y-75045409D01*
X63976000Y-75086890D01*
X63976000Y-75688110D01*
X63971915Y-75729591D01*
X63961607Y-75763569D01*
X63944866Y-75794890D01*
X63922339Y-75822339D01*
X63894890Y-75844866D01*
X63863569Y-75861607D01*
X63829591Y-75871915D01*
X63788110Y-75876000D01*
X63111890Y-75876000D01*
X63070409Y-75871915D01*
X63036431Y-75861607D01*
X63005110Y-75844866D01*
X62977661Y-75822339D01*
X62955134Y-75794890D01*
X62938393Y-75763569D01*
X62928085Y-75729591D01*
X62924000Y-75688110D01*
X62924000Y-75086890D01*
X62928085Y-75045409D01*
X62938393Y-75011431D01*
X62955134Y-74980110D01*
X62977661Y-74952661D01*
X63005110Y-74930134D01*
X63036431Y-74913393D01*
X63070409Y-74903085D01*
X63111890Y-74899000D01*
X63788110Y-74899000D01*
X63829591Y-74903085D01*
X63829591Y-74903085D01*
G37*
G36*
X143279591Y-74790585D02*
G01*
X143313569Y-74800893D01*
X143344890Y-74817634D01*
X143372339Y-74840161D01*
X143394866Y-74867610D01*
X143411607Y-74898931D01*
X143421915Y-74932909D01*
X143426000Y-74974390D01*
X143426000Y-75575610D01*
X143421915Y-75617091D01*
X143411607Y-75651069D01*
X143394866Y-75682390D01*
X143372339Y-75709839D01*
X143344890Y-75732366D01*
X143313569Y-75749107D01*
X143279591Y-75759415D01*
X143238110Y-75763500D01*
X142561890Y-75763500D01*
X142520409Y-75759415D01*
X142486431Y-75749107D01*
X142455110Y-75732366D01*
X142427661Y-75709839D01*
X142405134Y-75682390D01*
X142388393Y-75651069D01*
X142378085Y-75617091D01*
X142374000Y-75575610D01*
X142374000Y-74974390D01*
X142378085Y-74932909D01*
X142388393Y-74898931D01*
X142405134Y-74867610D01*
X142427661Y-74840161D01*
X142455110Y-74817634D01*
X142486431Y-74800893D01*
X142520409Y-74790585D01*
X142561890Y-74786500D01*
X143238110Y-74786500D01*
X143279591Y-74790585D01*
X143279591Y-74790585D01*
G37*
G36*
X84879591Y-74640585D02*
G01*
X84913569Y-74650893D01*
X84944890Y-74667634D01*
X84972339Y-74690161D01*
X84994866Y-74717610D01*
X85011607Y-74748931D01*
X85021915Y-74782909D01*
X85026000Y-74824390D01*
X85026000Y-75425610D01*
X85021915Y-75467091D01*
X85011607Y-75501069D01*
X84994866Y-75532390D01*
X84972339Y-75559839D01*
X84944890Y-75582366D01*
X84913569Y-75599107D01*
X84879591Y-75609415D01*
X84838110Y-75613500D01*
X84161890Y-75613500D01*
X84120409Y-75609415D01*
X84086431Y-75599107D01*
X84055110Y-75582366D01*
X84027661Y-75559839D01*
X84005134Y-75532390D01*
X83988393Y-75501069D01*
X83978085Y-75467091D01*
X83974000Y-75425610D01*
X83974000Y-74824390D01*
X83978085Y-74782909D01*
X83988393Y-74748931D01*
X84005134Y-74717610D01*
X84027661Y-74690161D01*
X84055110Y-74667634D01*
X84086431Y-74650893D01*
X84120409Y-74640585D01*
X84161890Y-74636500D01*
X84838110Y-74636500D01*
X84879591Y-74640585D01*
X84879591Y-74640585D01*
G37*
G36*
X81679591Y-74628085D02*
G01*
X81713569Y-74638393D01*
X81744890Y-74655134D01*
X81772339Y-74677661D01*
X81794866Y-74705110D01*
X81811607Y-74736431D01*
X81821915Y-74770409D01*
X81826000Y-74811890D01*
X81826000Y-75413110D01*
X81821915Y-75454591D01*
X81811607Y-75488569D01*
X81794866Y-75519890D01*
X81772339Y-75547339D01*
X81744890Y-75569866D01*
X81713569Y-75586607D01*
X81679591Y-75596915D01*
X81638110Y-75601000D01*
X80961890Y-75601000D01*
X80920409Y-75596915D01*
X80886431Y-75586607D01*
X80855110Y-75569866D01*
X80827661Y-75547339D01*
X80805134Y-75519890D01*
X80788393Y-75488569D01*
X80778085Y-75454591D01*
X80774000Y-75413110D01*
X80774000Y-74811890D01*
X80778085Y-74770409D01*
X80788393Y-74736431D01*
X80805134Y-74705110D01*
X80827661Y-74677661D01*
X80855110Y-74655134D01*
X80886431Y-74638393D01*
X80920409Y-74628085D01*
X80961890Y-74624000D01*
X81638110Y-74624000D01*
X81679591Y-74628085D01*
X81679591Y-74628085D01*
G37*
G36*
X102751000Y-75551000D02*
G01*
X101649000Y-75551000D01*
X101649000Y-72449000D01*
X102751000Y-72449000D01*
X102751000Y-75551000D01*
X102751000Y-75551000D01*
G37*
G36*
X100551000Y-75551000D02*
G01*
X99449000Y-75551000D01*
X99449000Y-72449000D01*
X100551000Y-72449000D01*
X100551000Y-75551000D01*
X100551000Y-75551000D01*
G37*
G36*
X98351000Y-75551000D02*
G01*
X97249000Y-75551000D01*
X97249000Y-72449000D01*
X98351000Y-72449000D01*
X98351000Y-75551000D01*
X98351000Y-75551000D01*
G37*
G36*
X61054591Y-74490585D02*
G01*
X61088569Y-74500893D01*
X61119890Y-74517634D01*
X61147339Y-74540161D01*
X61169866Y-74567610D01*
X61186607Y-74598931D01*
X61196915Y-74632909D01*
X61201000Y-74674390D01*
X61201000Y-75275610D01*
X61196915Y-75317091D01*
X61186607Y-75351069D01*
X61169866Y-75382390D01*
X61147339Y-75409839D01*
X61119890Y-75432366D01*
X61088569Y-75449107D01*
X61054591Y-75459415D01*
X61013110Y-75463500D01*
X60336890Y-75463500D01*
X60295409Y-75459415D01*
X60261431Y-75449107D01*
X60230110Y-75432366D01*
X60202661Y-75409839D01*
X60180134Y-75382390D01*
X60163393Y-75351069D01*
X60153085Y-75317091D01*
X60149000Y-75275610D01*
X60149000Y-74674390D01*
X60153085Y-74632909D01*
X60163393Y-74598931D01*
X60180134Y-74567610D01*
X60202661Y-74540161D01*
X60230110Y-74517634D01*
X60261431Y-74500893D01*
X60295409Y-74490585D01*
X60336890Y-74486500D01*
X61013110Y-74486500D01*
X61054591Y-74490585D01*
X61054591Y-74490585D01*
G37*
G36*
X78129591Y-74465585D02*
G01*
X78163569Y-74475893D01*
X78194890Y-74492634D01*
X78222339Y-74515161D01*
X78244866Y-74542610D01*
X78261607Y-74573931D01*
X78271915Y-74607909D01*
X78276000Y-74649390D01*
X78276000Y-75250610D01*
X78271915Y-75292091D01*
X78261607Y-75326069D01*
X78244866Y-75357390D01*
X78222339Y-75384839D01*
X78194890Y-75407366D01*
X78163569Y-75424107D01*
X78129591Y-75434415D01*
X78088110Y-75438500D01*
X77411890Y-75438500D01*
X77370409Y-75434415D01*
X77336431Y-75424107D01*
X77305110Y-75407366D01*
X77277661Y-75384839D01*
X77255134Y-75357390D01*
X77238393Y-75326069D01*
X77228085Y-75292091D01*
X77224000Y-75250610D01*
X77224000Y-74649390D01*
X77228085Y-74607909D01*
X77238393Y-74573931D01*
X77255134Y-74542610D01*
X77277661Y-74515161D01*
X77305110Y-74492634D01*
X77336431Y-74475893D01*
X77370409Y-74465585D01*
X77411890Y-74461500D01*
X78088110Y-74461500D01*
X78129591Y-74465585D01*
X78129591Y-74465585D01*
G37*
G36*
X114299003Y-73147275D02*
G01*
X114299005Y-73147276D01*
X114299006Y-73147276D01*
X114479320Y-73221964D01*
X114641598Y-73330395D01*
X114779605Y-73468402D01*
X114888036Y-73630680D01*
X114962724Y-73810994D01*
X114962725Y-73810997D01*
X115000800Y-74002413D01*
X115000800Y-74197587D01*
X114965298Y-74376069D01*
X114962724Y-74389006D01*
X114888036Y-74569320D01*
X114779605Y-74731598D01*
X114641598Y-74869605D01*
X114479320Y-74978036D01*
X114299006Y-75052724D01*
X114299005Y-75052724D01*
X114299003Y-75052725D01*
X114107587Y-75090800D01*
X113912413Y-75090800D01*
X113720997Y-75052725D01*
X113720995Y-75052724D01*
X113720994Y-75052724D01*
X113540680Y-74978036D01*
X113378402Y-74869605D01*
X113240395Y-74731598D01*
X113131964Y-74569320D01*
X113057276Y-74389006D01*
X113054703Y-74376069D01*
X113019200Y-74197587D01*
X113019200Y-74002413D01*
X113057275Y-73810997D01*
X113057276Y-73810994D01*
X113131964Y-73630680D01*
X113240395Y-73468402D01*
X113378402Y-73330395D01*
X113540680Y-73221964D01*
X113720994Y-73147276D01*
X113720995Y-73147276D01*
X113720997Y-73147275D01*
X113912413Y-73109200D01*
X114107587Y-73109200D01*
X114299003Y-73147275D01*
X114299003Y-73147275D01*
G37*
G36*
X116839003Y-73147275D02*
G01*
X116839005Y-73147276D01*
X116839006Y-73147276D01*
X117019320Y-73221964D01*
X117181598Y-73330395D01*
X117319605Y-73468402D01*
X117428036Y-73630680D01*
X117502724Y-73810994D01*
X117502725Y-73810997D01*
X117540800Y-74002413D01*
X117540800Y-74197587D01*
X117505298Y-74376069D01*
X117502724Y-74389006D01*
X117428036Y-74569320D01*
X117319605Y-74731598D01*
X117181598Y-74869605D01*
X117019320Y-74978036D01*
X116839006Y-75052724D01*
X116839005Y-75052724D01*
X116839003Y-75052725D01*
X116647587Y-75090800D01*
X116452413Y-75090800D01*
X116260997Y-75052725D01*
X116260995Y-75052724D01*
X116260994Y-75052724D01*
X116080680Y-74978036D01*
X115918402Y-74869605D01*
X115780395Y-74731598D01*
X115671964Y-74569320D01*
X115597276Y-74389006D01*
X115594703Y-74376069D01*
X115559200Y-74197587D01*
X115559200Y-74002413D01*
X115597275Y-73810997D01*
X115597276Y-73810994D01*
X115671964Y-73630680D01*
X115780395Y-73468402D01*
X115918402Y-73330395D01*
X116080680Y-73221964D01*
X116260994Y-73147276D01*
X116260995Y-73147276D01*
X116260997Y-73147275D01*
X116452413Y-73109200D01*
X116647587Y-73109200D01*
X116839003Y-73147275D01*
X116839003Y-73147275D01*
G37*
G36*
X119379003Y-73147275D02*
G01*
X119379005Y-73147276D01*
X119379006Y-73147276D01*
X119559320Y-73221964D01*
X119721598Y-73330395D01*
X119859605Y-73468402D01*
X119968036Y-73630680D01*
X120042724Y-73810994D01*
X120042725Y-73810997D01*
X120080800Y-74002413D01*
X120080800Y-74197587D01*
X120045298Y-74376069D01*
X120042724Y-74389006D01*
X119968036Y-74569320D01*
X119859605Y-74731598D01*
X119721598Y-74869605D01*
X119559320Y-74978036D01*
X119379006Y-75052724D01*
X119379005Y-75052724D01*
X119379003Y-75052725D01*
X119187587Y-75090800D01*
X118992413Y-75090800D01*
X118800997Y-75052725D01*
X118800995Y-75052724D01*
X118800994Y-75052724D01*
X118620680Y-74978036D01*
X118458402Y-74869605D01*
X118320395Y-74731598D01*
X118211964Y-74569320D01*
X118137276Y-74389006D01*
X118134703Y-74376069D01*
X118099200Y-74197587D01*
X118099200Y-74002413D01*
X118137275Y-73810997D01*
X118137276Y-73810994D01*
X118211964Y-73630680D01*
X118320395Y-73468402D01*
X118458402Y-73330395D01*
X118620680Y-73221964D01*
X118800994Y-73147276D01*
X118800995Y-73147276D01*
X118800997Y-73147275D01*
X118992413Y-73109200D01*
X119187587Y-73109200D01*
X119379003Y-73147275D01*
X119379003Y-73147275D01*
G37*
G36*
X121919003Y-73147275D02*
G01*
X121919005Y-73147276D01*
X121919006Y-73147276D01*
X122099320Y-73221964D01*
X122261598Y-73330395D01*
X122399605Y-73468402D01*
X122508036Y-73630680D01*
X122582724Y-73810994D01*
X122582725Y-73810997D01*
X122620800Y-74002413D01*
X122620800Y-74197587D01*
X122585298Y-74376069D01*
X122582724Y-74389006D01*
X122508036Y-74569320D01*
X122399605Y-74731598D01*
X122261598Y-74869605D01*
X122099320Y-74978036D01*
X121919006Y-75052724D01*
X121919005Y-75052724D01*
X121919003Y-75052725D01*
X121727587Y-75090800D01*
X121532413Y-75090800D01*
X121340997Y-75052725D01*
X121340995Y-75052724D01*
X121340994Y-75052724D01*
X121160680Y-74978036D01*
X120998402Y-74869605D01*
X120860395Y-74731598D01*
X120751964Y-74569320D01*
X120677276Y-74389006D01*
X120674703Y-74376069D01*
X120639200Y-74197587D01*
X120639200Y-74002413D01*
X120677275Y-73810997D01*
X120677276Y-73810994D01*
X120751964Y-73630680D01*
X120860395Y-73468402D01*
X120998402Y-73330395D01*
X121160680Y-73221964D01*
X121340994Y-73147276D01*
X121340995Y-73147276D01*
X121340997Y-73147275D01*
X121532413Y-73109200D01*
X121727587Y-73109200D01*
X121919003Y-73147275D01*
X121919003Y-73147275D01*
G37*
G36*
X124459003Y-73147275D02*
G01*
X124459005Y-73147276D01*
X124459006Y-73147276D01*
X124639320Y-73221964D01*
X124801598Y-73330395D01*
X124939605Y-73468402D01*
X125048036Y-73630680D01*
X125122724Y-73810994D01*
X125122725Y-73810997D01*
X125160800Y-74002413D01*
X125160800Y-74197587D01*
X125125298Y-74376069D01*
X125122724Y-74389006D01*
X125048036Y-74569320D01*
X124939605Y-74731598D01*
X124801598Y-74869605D01*
X124639320Y-74978036D01*
X124459006Y-75052724D01*
X124459005Y-75052724D01*
X124459003Y-75052725D01*
X124267587Y-75090800D01*
X124072413Y-75090800D01*
X123880997Y-75052725D01*
X123880995Y-75052724D01*
X123880994Y-75052724D01*
X123700680Y-74978036D01*
X123538402Y-74869605D01*
X123400395Y-74731598D01*
X123291964Y-74569320D01*
X123217276Y-74389006D01*
X123214703Y-74376069D01*
X123179200Y-74197587D01*
X123179200Y-74002413D01*
X123217275Y-73810997D01*
X123217276Y-73810994D01*
X123291964Y-73630680D01*
X123400395Y-73468402D01*
X123538402Y-73330395D01*
X123700680Y-73221964D01*
X123880994Y-73147276D01*
X123880995Y-73147276D01*
X123880997Y-73147275D01*
X124072413Y-73109200D01*
X124267587Y-73109200D01*
X124459003Y-73147275D01*
X124459003Y-73147275D01*
G37*
G36*
X111759003Y-73147275D02*
G01*
X111759005Y-73147276D01*
X111759006Y-73147276D01*
X111939320Y-73221964D01*
X112101598Y-73330395D01*
X112239605Y-73468402D01*
X112348036Y-73630680D01*
X112422724Y-73810994D01*
X112422725Y-73810997D01*
X112460800Y-74002413D01*
X112460800Y-74197587D01*
X112425298Y-74376069D01*
X112422724Y-74389006D01*
X112348036Y-74569320D01*
X112239605Y-74731598D01*
X112101598Y-74869605D01*
X111939320Y-74978036D01*
X111759006Y-75052724D01*
X111759005Y-75052724D01*
X111759003Y-75052725D01*
X111567587Y-75090800D01*
X111372413Y-75090800D01*
X111180997Y-75052725D01*
X111180995Y-75052724D01*
X111180994Y-75052724D01*
X111000680Y-74978036D01*
X110838402Y-74869605D01*
X110700395Y-74731598D01*
X110591964Y-74569320D01*
X110517276Y-74389006D01*
X110514703Y-74376069D01*
X110479200Y-74197587D01*
X110479200Y-74002413D01*
X110517275Y-73810997D01*
X110517276Y-73810994D01*
X110591964Y-73630680D01*
X110700395Y-73468402D01*
X110838402Y-73330395D01*
X111000680Y-73221964D01*
X111180994Y-73147276D01*
X111180995Y-73147276D01*
X111180997Y-73147275D01*
X111372413Y-73109200D01*
X111567587Y-73109200D01*
X111759003Y-73147275D01*
X111759003Y-73147275D01*
G37*
G36*
X132079003Y-73147275D02*
G01*
X132079005Y-73147276D01*
X132079006Y-73147276D01*
X132259320Y-73221964D01*
X132421598Y-73330395D01*
X132559605Y-73468402D01*
X132668036Y-73630680D01*
X132742724Y-73810994D01*
X132742725Y-73810997D01*
X132780800Y-74002413D01*
X132780800Y-74197587D01*
X132745298Y-74376069D01*
X132742724Y-74389006D01*
X132668036Y-74569320D01*
X132559605Y-74731598D01*
X132421598Y-74869605D01*
X132259320Y-74978036D01*
X132079006Y-75052724D01*
X132079005Y-75052724D01*
X132079003Y-75052725D01*
X131887587Y-75090800D01*
X131692413Y-75090800D01*
X131500997Y-75052725D01*
X131500995Y-75052724D01*
X131500994Y-75052724D01*
X131320680Y-74978036D01*
X131158402Y-74869605D01*
X131020395Y-74731598D01*
X130911964Y-74569320D01*
X130837276Y-74389006D01*
X130834703Y-74376069D01*
X130799200Y-74197587D01*
X130799200Y-74002413D01*
X130837275Y-73810997D01*
X130837276Y-73810994D01*
X130911964Y-73630680D01*
X131020395Y-73468402D01*
X131158402Y-73330395D01*
X131320680Y-73221964D01*
X131500994Y-73147276D01*
X131500995Y-73147276D01*
X131500997Y-73147275D01*
X131692413Y-73109200D01*
X131887587Y-73109200D01*
X132079003Y-73147275D01*
X132079003Y-73147275D01*
G37*
G36*
X134619003Y-73147275D02*
G01*
X134619005Y-73147276D01*
X134619006Y-73147276D01*
X134799320Y-73221964D01*
X134961598Y-73330395D01*
X135099605Y-73468402D01*
X135208036Y-73630680D01*
X135282724Y-73810994D01*
X135282725Y-73810997D01*
X135320800Y-74002413D01*
X135320800Y-74197587D01*
X135285298Y-74376069D01*
X135282724Y-74389006D01*
X135208036Y-74569320D01*
X135099605Y-74731598D01*
X134961598Y-74869605D01*
X134799320Y-74978036D01*
X134619006Y-75052724D01*
X134619005Y-75052724D01*
X134619003Y-75052725D01*
X134427587Y-75090800D01*
X134232413Y-75090800D01*
X134040997Y-75052725D01*
X134040995Y-75052724D01*
X134040994Y-75052724D01*
X133860680Y-74978036D01*
X133698402Y-74869605D01*
X133560395Y-74731598D01*
X133451964Y-74569320D01*
X133377276Y-74389006D01*
X133374703Y-74376069D01*
X133339200Y-74197587D01*
X133339200Y-74002413D01*
X133377275Y-73810997D01*
X133377276Y-73810994D01*
X133451964Y-73630680D01*
X133560395Y-73468402D01*
X133698402Y-73330395D01*
X133860680Y-73221964D01*
X134040994Y-73147276D01*
X134040995Y-73147276D01*
X134040997Y-73147275D01*
X134232413Y-73109200D01*
X134427587Y-73109200D01*
X134619003Y-73147275D01*
X134619003Y-73147275D01*
G37*
G36*
X137159003Y-73147275D02*
G01*
X137159005Y-73147276D01*
X137159006Y-73147276D01*
X137339320Y-73221964D01*
X137501598Y-73330395D01*
X137639605Y-73468402D01*
X137748036Y-73630680D01*
X137822724Y-73810994D01*
X137822725Y-73810997D01*
X137860800Y-74002413D01*
X137860800Y-74197587D01*
X137825298Y-74376069D01*
X137822724Y-74389006D01*
X137748036Y-74569320D01*
X137639605Y-74731598D01*
X137501598Y-74869605D01*
X137339320Y-74978036D01*
X137159006Y-75052724D01*
X137159005Y-75052724D01*
X137159003Y-75052725D01*
X136967587Y-75090800D01*
X136772413Y-75090800D01*
X136580997Y-75052725D01*
X136580995Y-75052724D01*
X136580994Y-75052724D01*
X136400680Y-74978036D01*
X136238402Y-74869605D01*
X136100395Y-74731598D01*
X135991964Y-74569320D01*
X135917276Y-74389006D01*
X135914703Y-74376069D01*
X135879200Y-74197587D01*
X135879200Y-74002413D01*
X135917275Y-73810997D01*
X135917276Y-73810994D01*
X135991964Y-73630680D01*
X136100395Y-73468402D01*
X136238402Y-73330395D01*
X136400680Y-73221964D01*
X136580994Y-73147276D01*
X136580995Y-73147276D01*
X136580997Y-73147275D01*
X136772413Y-73109200D01*
X136967587Y-73109200D01*
X137159003Y-73147275D01*
X137159003Y-73147275D01*
G37*
G36*
X139699003Y-73147275D02*
G01*
X139699005Y-73147276D01*
X139699006Y-73147276D01*
X139879320Y-73221964D01*
X140041598Y-73330395D01*
X140179605Y-73468402D01*
X140288036Y-73630680D01*
X140362724Y-73810994D01*
X140362725Y-73810997D01*
X140400800Y-74002413D01*
X140400800Y-74197587D01*
X140365298Y-74376069D01*
X140362724Y-74389006D01*
X140288036Y-74569320D01*
X140179605Y-74731598D01*
X140041598Y-74869605D01*
X139879320Y-74978036D01*
X139699006Y-75052724D01*
X139699005Y-75052724D01*
X139699003Y-75052725D01*
X139507587Y-75090800D01*
X139312413Y-75090800D01*
X139120997Y-75052725D01*
X139120995Y-75052724D01*
X139120994Y-75052724D01*
X138940680Y-74978036D01*
X138778402Y-74869605D01*
X138640395Y-74731598D01*
X138531964Y-74569320D01*
X138457276Y-74389006D01*
X138454703Y-74376069D01*
X138419200Y-74197587D01*
X138419200Y-74002413D01*
X138457275Y-73810997D01*
X138457276Y-73810994D01*
X138531964Y-73630680D01*
X138640395Y-73468402D01*
X138778402Y-73330395D01*
X138940680Y-73221964D01*
X139120994Y-73147276D01*
X139120995Y-73147276D01*
X139120997Y-73147275D01*
X139312413Y-73109200D01*
X139507587Y-73109200D01*
X139699003Y-73147275D01*
X139699003Y-73147275D01*
G37*
G36*
X126999003Y-73147275D02*
G01*
X126999005Y-73147276D01*
X126999006Y-73147276D01*
X127179320Y-73221964D01*
X127341598Y-73330395D01*
X127479605Y-73468402D01*
X127588036Y-73630680D01*
X127662724Y-73810994D01*
X127662725Y-73810997D01*
X127700800Y-74002413D01*
X127700800Y-74197587D01*
X127665298Y-74376069D01*
X127662724Y-74389006D01*
X127588036Y-74569320D01*
X127479605Y-74731598D01*
X127341598Y-74869605D01*
X127179320Y-74978036D01*
X126999006Y-75052724D01*
X126999005Y-75052724D01*
X126999003Y-75052725D01*
X126807587Y-75090800D01*
X126612413Y-75090800D01*
X126420997Y-75052725D01*
X126420995Y-75052724D01*
X126420994Y-75052724D01*
X126240680Y-74978036D01*
X126078402Y-74869605D01*
X125940395Y-74731598D01*
X125831964Y-74569320D01*
X125757276Y-74389006D01*
X125754703Y-74376069D01*
X125719200Y-74197587D01*
X125719200Y-74002413D01*
X125757275Y-73810997D01*
X125757276Y-73810994D01*
X125831964Y-73630680D01*
X125940395Y-73468402D01*
X126078402Y-73330395D01*
X126240680Y-73221964D01*
X126420994Y-73147276D01*
X126420995Y-73147276D01*
X126420997Y-73147275D01*
X126612413Y-73109200D01*
X126807587Y-73109200D01*
X126999003Y-73147275D01*
X126999003Y-73147275D01*
G37*
G36*
X129539003Y-73147275D02*
G01*
X129539005Y-73147276D01*
X129539006Y-73147276D01*
X129719320Y-73221964D01*
X129881598Y-73330395D01*
X130019605Y-73468402D01*
X130128036Y-73630680D01*
X130202724Y-73810994D01*
X130202725Y-73810997D01*
X130240800Y-74002413D01*
X130240800Y-74197587D01*
X130205298Y-74376069D01*
X130202724Y-74389006D01*
X130128036Y-74569320D01*
X130019605Y-74731598D01*
X129881598Y-74869605D01*
X129719320Y-74978036D01*
X129539006Y-75052724D01*
X129539005Y-75052724D01*
X129539003Y-75052725D01*
X129347587Y-75090800D01*
X129152413Y-75090800D01*
X128960997Y-75052725D01*
X128960995Y-75052724D01*
X128960994Y-75052724D01*
X128780680Y-74978036D01*
X128618402Y-74869605D01*
X128480395Y-74731598D01*
X128371964Y-74569320D01*
X128297276Y-74389006D01*
X128294703Y-74376069D01*
X128259200Y-74197587D01*
X128259200Y-74002413D01*
X128297275Y-73810997D01*
X128297276Y-73810994D01*
X128371964Y-73630680D01*
X128480395Y-73468402D01*
X128618402Y-73330395D01*
X128780680Y-73221964D01*
X128960994Y-73147276D01*
X128960995Y-73147276D01*
X128960997Y-73147275D01*
X129152413Y-73109200D01*
X129347587Y-73109200D01*
X129539003Y-73147275D01*
X129539003Y-73147275D01*
G37*
G36*
X58279591Y-73515585D02*
G01*
X58313569Y-73525893D01*
X58344890Y-73542634D01*
X58372339Y-73565161D01*
X58394866Y-73592610D01*
X58411607Y-73623931D01*
X58421915Y-73657909D01*
X58426000Y-73699390D01*
X58426000Y-74300610D01*
X58421915Y-74342091D01*
X58411607Y-74376069D01*
X58394866Y-74407390D01*
X58372339Y-74434839D01*
X58344890Y-74457366D01*
X58313569Y-74474107D01*
X58279591Y-74484415D01*
X58238110Y-74488500D01*
X57561890Y-74488500D01*
X57520409Y-74484415D01*
X57486431Y-74474107D01*
X57455110Y-74457366D01*
X57427661Y-74434839D01*
X57405134Y-74407390D01*
X57388393Y-74376069D01*
X57378085Y-74342091D01*
X57374000Y-74300610D01*
X57374000Y-73699390D01*
X57378085Y-73657909D01*
X57388393Y-73623931D01*
X57405134Y-73592610D01*
X57427661Y-73565161D01*
X57455110Y-73542634D01*
X57486431Y-73525893D01*
X57520409Y-73515585D01*
X57561890Y-73511500D01*
X58238110Y-73511500D01*
X58279591Y-73515585D01*
X58279591Y-73515585D01*
G37*
G36*
X96679591Y-73328085D02*
G01*
X96713569Y-73338393D01*
X96744890Y-73355134D01*
X96772339Y-73377661D01*
X96794866Y-73405110D01*
X96811607Y-73436431D01*
X96821915Y-73470409D01*
X96826000Y-73511890D01*
X96826000Y-74188110D01*
X96821915Y-74229591D01*
X96811607Y-74263569D01*
X96794866Y-74294890D01*
X96772339Y-74322339D01*
X96744890Y-74344866D01*
X96713569Y-74361607D01*
X96679591Y-74371915D01*
X96638110Y-74376000D01*
X96036890Y-74376000D01*
X95995409Y-74371915D01*
X95961431Y-74361607D01*
X95930110Y-74344866D01*
X95902661Y-74322339D01*
X95880134Y-74294890D01*
X95863393Y-74263569D01*
X95853085Y-74229591D01*
X95849000Y-74188110D01*
X95849000Y-73511890D01*
X95853085Y-73470409D01*
X95863393Y-73436431D01*
X95880134Y-73405110D01*
X95902661Y-73377661D01*
X95930110Y-73355134D01*
X95961431Y-73338393D01*
X95995409Y-73328085D01*
X96036890Y-73324000D01*
X96638110Y-73324000D01*
X96679591Y-73328085D01*
X96679591Y-73328085D01*
G37*
G36*
X95104591Y-73328085D02*
G01*
X95138569Y-73338393D01*
X95169890Y-73355134D01*
X95197339Y-73377661D01*
X95219866Y-73405110D01*
X95236607Y-73436431D01*
X95246915Y-73470409D01*
X95251000Y-73511890D01*
X95251000Y-74188110D01*
X95246915Y-74229591D01*
X95236607Y-74263569D01*
X95219866Y-74294890D01*
X95197339Y-74322339D01*
X95169890Y-74344866D01*
X95138569Y-74361607D01*
X95104591Y-74371915D01*
X95063110Y-74376000D01*
X94461890Y-74376000D01*
X94420409Y-74371915D01*
X94386431Y-74361607D01*
X94355110Y-74344866D01*
X94327661Y-74322339D01*
X94305134Y-74294890D01*
X94288393Y-74263569D01*
X94278085Y-74229591D01*
X94274000Y-74188110D01*
X94274000Y-73511890D01*
X94278085Y-73470409D01*
X94288393Y-73436431D01*
X94305134Y-73405110D01*
X94327661Y-73377661D01*
X94355110Y-73355134D01*
X94386431Y-73338393D01*
X94420409Y-73328085D01*
X94461890Y-73324000D01*
X95063110Y-73324000D01*
X95104591Y-73328085D01*
X95104591Y-73328085D01*
G37*
G36*
X63829591Y-73328085D02*
G01*
X63863569Y-73338393D01*
X63894890Y-73355134D01*
X63922339Y-73377661D01*
X63944866Y-73405110D01*
X63961607Y-73436431D01*
X63971915Y-73470409D01*
X63976000Y-73511890D01*
X63976000Y-74113110D01*
X63971915Y-74154591D01*
X63961607Y-74188569D01*
X63944866Y-74219890D01*
X63922339Y-74247339D01*
X63894890Y-74269866D01*
X63863569Y-74286607D01*
X63829591Y-74296915D01*
X63788110Y-74301000D01*
X63111890Y-74301000D01*
X63070409Y-74296915D01*
X63036431Y-74286607D01*
X63005110Y-74269866D01*
X62977661Y-74247339D01*
X62955134Y-74219890D01*
X62938393Y-74188569D01*
X62928085Y-74154591D01*
X62924000Y-74113110D01*
X62924000Y-73511890D01*
X62928085Y-73470409D01*
X62938393Y-73436431D01*
X62955134Y-73405110D01*
X62977661Y-73377661D01*
X63005110Y-73355134D01*
X63036431Y-73338393D01*
X63070409Y-73328085D01*
X63111890Y-73324000D01*
X63788110Y-73324000D01*
X63829591Y-73328085D01*
X63829591Y-73328085D01*
G37*
G36*
X81651000Y-74051000D02*
G01*
X80949000Y-74051000D01*
X80949000Y-73399000D01*
X81651000Y-73399000D01*
X81651000Y-74051000D01*
X81651000Y-74051000D01*
G37*
G36*
X80351000Y-74051000D02*
G01*
X79649000Y-74051000D01*
X79649000Y-73399000D01*
X80351000Y-73399000D01*
X80351000Y-74051000D01*
X80351000Y-74051000D01*
G37*
G36*
X84801000Y-74051000D02*
G01*
X84099000Y-74051000D01*
X84099000Y-73399000D01*
X84801000Y-73399000D01*
X84801000Y-74051000D01*
X84801000Y-74051000D01*
G37*
G36*
X83501000Y-74051000D02*
G01*
X82799000Y-74051000D01*
X82799000Y-73399000D01*
X83501000Y-73399000D01*
X83501000Y-74051000D01*
X83501000Y-74051000D01*
G37*
G36*
X60976000Y-73951000D02*
G01*
X60274000Y-73951000D01*
X60274000Y-73299000D01*
X60976000Y-73299000D01*
X60976000Y-73951000D01*
X60976000Y-73951000D01*
G37*
G36*
X59676000Y-73951000D02*
G01*
X58974000Y-73951000D01*
X58974000Y-73299000D01*
X59676000Y-73299000D01*
X59676000Y-73951000D01*
X59676000Y-73951000D01*
G37*
G36*
X78129591Y-72890585D02*
G01*
X78163569Y-72900893D01*
X78194890Y-72917634D01*
X78222339Y-72940161D01*
X78244866Y-72967610D01*
X78261607Y-72998931D01*
X78271915Y-73032909D01*
X78276000Y-73074390D01*
X78276000Y-73675610D01*
X78271915Y-73717091D01*
X78261607Y-73751069D01*
X78244866Y-73782390D01*
X78222339Y-73809839D01*
X78194890Y-73832366D01*
X78163569Y-73849107D01*
X78129591Y-73859415D01*
X78088110Y-73863500D01*
X77411890Y-73863500D01*
X77370409Y-73859415D01*
X77336431Y-73849107D01*
X77305110Y-73832366D01*
X77277661Y-73809839D01*
X77255134Y-73782390D01*
X77238393Y-73751069D01*
X77228085Y-73717091D01*
X77224000Y-73675610D01*
X77224000Y-73074390D01*
X77228085Y-73032909D01*
X77238393Y-72998931D01*
X77255134Y-72967610D01*
X77277661Y-72940161D01*
X77305110Y-72917634D01*
X77336431Y-72900893D01*
X77370409Y-72890585D01*
X77411890Y-72886500D01*
X78088110Y-72886500D01*
X78129591Y-72890585D01*
X78129591Y-72890585D01*
G37*
G36*
X142801000Y-73551000D02*
G01*
X142099000Y-73551000D01*
X142099000Y-72899000D01*
X142801000Y-72899000D01*
X142801000Y-73551000D01*
X142801000Y-73551000D01*
G37*
G36*
X144101000Y-73551000D02*
G01*
X143399000Y-73551000D01*
X143399000Y-72899000D01*
X144101000Y-72899000D01*
X144101000Y-73551000D01*
X144101000Y-73551000D01*
G37*
G36*
X66379591Y-72453085D02*
G01*
X66413569Y-72463393D01*
X66444890Y-72480134D01*
X66472339Y-72502661D01*
X66494866Y-72530110D01*
X66511607Y-72561431D01*
X66521915Y-72595409D01*
X66526000Y-72636890D01*
X66526000Y-73238110D01*
X66521915Y-73279591D01*
X66511607Y-73313569D01*
X66494866Y-73344890D01*
X66472339Y-73372339D01*
X66444890Y-73394866D01*
X66413569Y-73411607D01*
X66379591Y-73421915D01*
X66338110Y-73426000D01*
X65661890Y-73426000D01*
X65620409Y-73421915D01*
X65586431Y-73411607D01*
X65555110Y-73394866D01*
X65527661Y-73372339D01*
X65505134Y-73344890D01*
X65488393Y-73313569D01*
X65478085Y-73279591D01*
X65474000Y-73238110D01*
X65474000Y-72636890D01*
X65478085Y-72595409D01*
X65488393Y-72561431D01*
X65505134Y-72530110D01*
X65527661Y-72502661D01*
X65555110Y-72480134D01*
X65586431Y-72463393D01*
X65620409Y-72453085D01*
X65661890Y-72449000D01*
X66338110Y-72449000D01*
X66379591Y-72453085D01*
X66379591Y-72453085D01*
G37*
G36*
X57101000Y-73326000D02*
G01*
X56399000Y-73326000D01*
X56399000Y-72674000D01*
X57101000Y-72674000D01*
X57101000Y-73326000D01*
X57101000Y-73326000D01*
G37*
G36*
X55801000Y-73326000D02*
G01*
X55099000Y-73326000D01*
X55099000Y-72674000D01*
X55801000Y-72674000D01*
X55801000Y-73326000D01*
X55801000Y-73326000D01*
G37*
G36*
X63726000Y-72751000D02*
G01*
X63024000Y-72751000D01*
X63024000Y-72099000D01*
X63726000Y-72099000D01*
X63726000Y-72751000D01*
X63726000Y-72751000D01*
G37*
G36*
X62426000Y-72751000D02*
G01*
X61724000Y-72751000D01*
X61724000Y-72099000D01*
X62426000Y-72099000D01*
X62426000Y-72751000D01*
X62426000Y-72751000D01*
G37*
G36*
X112629591Y-71528085D02*
G01*
X112663569Y-71538393D01*
X112694890Y-71555134D01*
X112722339Y-71577661D01*
X112744866Y-71605110D01*
X112761607Y-71636431D01*
X112771915Y-71670409D01*
X112776000Y-71711890D01*
X112776000Y-72388110D01*
X112771915Y-72429591D01*
X112761607Y-72463569D01*
X112744866Y-72494890D01*
X112722339Y-72522339D01*
X112694890Y-72544866D01*
X112663569Y-72561607D01*
X112629591Y-72571915D01*
X112588110Y-72576000D01*
X111986890Y-72576000D01*
X111945409Y-72571915D01*
X111911431Y-72561607D01*
X111880110Y-72544866D01*
X111852661Y-72522339D01*
X111830134Y-72494890D01*
X111813393Y-72463569D01*
X111803085Y-72429591D01*
X111799000Y-72388110D01*
X111799000Y-71711890D01*
X111803085Y-71670409D01*
X111813393Y-71636431D01*
X111830134Y-71605110D01*
X111852661Y-71577661D01*
X111880110Y-71555134D01*
X111911431Y-71538393D01*
X111945409Y-71528085D01*
X111986890Y-71524000D01*
X112588110Y-71524000D01*
X112629591Y-71528085D01*
X112629591Y-71528085D01*
G37*
G36*
X111054591Y-71528085D02*
G01*
X111088569Y-71538393D01*
X111119890Y-71555134D01*
X111147339Y-71577661D01*
X111169866Y-71605110D01*
X111186607Y-71636431D01*
X111196915Y-71670409D01*
X111201000Y-71711890D01*
X111201000Y-72388110D01*
X111196915Y-72429591D01*
X111186607Y-72463569D01*
X111169866Y-72494890D01*
X111147339Y-72522339D01*
X111119890Y-72544866D01*
X111088569Y-72561607D01*
X111054591Y-72571915D01*
X111013110Y-72576000D01*
X110411890Y-72576000D01*
X110370409Y-72571915D01*
X110336431Y-72561607D01*
X110305110Y-72544866D01*
X110277661Y-72522339D01*
X110255134Y-72494890D01*
X110238393Y-72463569D01*
X110228085Y-72429591D01*
X110224000Y-72388110D01*
X110224000Y-71711890D01*
X110228085Y-71670409D01*
X110238393Y-71636431D01*
X110255134Y-71605110D01*
X110277661Y-71577661D01*
X110305110Y-71555134D01*
X110336431Y-71538393D01*
X110370409Y-71528085D01*
X110411890Y-71524000D01*
X111013110Y-71524000D01*
X111054591Y-71528085D01*
X111054591Y-71528085D01*
G37*
G36*
X147942091Y-71478085D02*
G01*
X147976069Y-71488393D01*
X148007390Y-71505134D01*
X148034839Y-71527661D01*
X148057366Y-71555110D01*
X148074107Y-71586431D01*
X148084415Y-71620409D01*
X148088500Y-71661890D01*
X148088500Y-72338110D01*
X148084415Y-72379591D01*
X148074107Y-72413569D01*
X148057366Y-72444890D01*
X148034839Y-72472339D01*
X148007390Y-72494866D01*
X147976069Y-72511607D01*
X147942091Y-72521915D01*
X147900610Y-72526000D01*
X147299390Y-72526000D01*
X147257909Y-72521915D01*
X147223931Y-72511607D01*
X147192610Y-72494866D01*
X147165161Y-72472339D01*
X147142634Y-72444890D01*
X147125893Y-72413569D01*
X147115585Y-72379591D01*
X147111500Y-72338110D01*
X147111500Y-71661890D01*
X147115585Y-71620409D01*
X147125893Y-71586431D01*
X147142634Y-71555110D01*
X147165161Y-71527661D01*
X147192610Y-71505134D01*
X147223931Y-71488393D01*
X147257909Y-71478085D01*
X147299390Y-71474000D01*
X147900610Y-71474000D01*
X147942091Y-71478085D01*
X147942091Y-71478085D01*
G37*
G36*
X149517091Y-71478085D02*
G01*
X149551069Y-71488393D01*
X149582390Y-71505134D01*
X149609839Y-71527661D01*
X149632366Y-71555110D01*
X149649107Y-71586431D01*
X149659415Y-71620409D01*
X149663500Y-71661890D01*
X149663500Y-72338110D01*
X149659415Y-72379591D01*
X149649107Y-72413569D01*
X149632366Y-72444890D01*
X149609839Y-72472339D01*
X149582390Y-72494866D01*
X149551069Y-72511607D01*
X149517091Y-72521915D01*
X149475610Y-72526000D01*
X148874390Y-72526000D01*
X148832909Y-72521915D01*
X148798931Y-72511607D01*
X148767610Y-72494866D01*
X148740161Y-72472339D01*
X148717634Y-72444890D01*
X148700893Y-72413569D01*
X148690585Y-72379591D01*
X148686500Y-72338110D01*
X148686500Y-71661890D01*
X148690585Y-71620409D01*
X148700893Y-71586431D01*
X148717634Y-71555110D01*
X148740161Y-71527661D01*
X148767610Y-71505134D01*
X148798931Y-71488393D01*
X148832909Y-71478085D01*
X148874390Y-71474000D01*
X149475610Y-71474000D01*
X149517091Y-71478085D01*
X149517091Y-71478085D01*
G37*
G36*
X113976000Y-72401000D02*
G01*
X113324000Y-72401000D01*
X113324000Y-71699000D01*
X113976000Y-71699000D01*
X113976000Y-72401000D01*
X113976000Y-72401000D01*
G37*
G36*
X122676000Y-72401000D02*
G01*
X122024000Y-72401000D01*
X122024000Y-71699000D01*
X122676000Y-71699000D01*
X122676000Y-72401000D01*
X122676000Y-72401000D01*
G37*
G36*
X145351000Y-72326000D02*
G01*
X144649000Y-72326000D01*
X144649000Y-71674000D01*
X145351000Y-71674000D01*
X145351000Y-72326000D01*
X145351000Y-72326000D01*
G37*
G36*
X146651000Y-72326000D02*
G01*
X145949000Y-72326000D01*
X145949000Y-71674000D01*
X146651000Y-71674000D01*
X146651000Y-72326000D01*
X146651000Y-72326000D01*
G37*
G36*
X78026000Y-72301000D02*
G01*
X77324000Y-72301000D01*
X77324000Y-71649000D01*
X78026000Y-71649000D01*
X78026000Y-72301000D01*
X78026000Y-72301000D01*
G37*
G36*
X76726000Y-72301000D02*
G01*
X76024000Y-72301000D01*
X76024000Y-71649000D01*
X76726000Y-71649000D01*
X76726000Y-72301000D01*
X76726000Y-72301000D01*
G37*
G36*
X51192091Y-71178085D02*
G01*
X51226069Y-71188393D01*
X51257390Y-71205134D01*
X51284839Y-71227661D01*
X51307366Y-71255110D01*
X51324107Y-71286431D01*
X51334415Y-71320409D01*
X51338500Y-71361890D01*
X51338500Y-72038110D01*
X51334415Y-72079591D01*
X51324107Y-72113569D01*
X51307366Y-72144890D01*
X51284839Y-72172339D01*
X51257390Y-72194866D01*
X51226069Y-72211607D01*
X51192091Y-72221915D01*
X51150610Y-72226000D01*
X50549390Y-72226000D01*
X50507909Y-72221915D01*
X50473931Y-72211607D01*
X50442610Y-72194866D01*
X50415161Y-72172339D01*
X50392634Y-72144890D01*
X50375893Y-72113569D01*
X50365585Y-72079591D01*
X50361500Y-72038110D01*
X50361500Y-71361890D01*
X50365585Y-71320409D01*
X50375893Y-71286431D01*
X50392634Y-71255110D01*
X50415161Y-71227661D01*
X50442610Y-71205134D01*
X50473931Y-71188393D01*
X50507909Y-71178085D01*
X50549390Y-71174000D01*
X51150610Y-71174000D01*
X51192091Y-71178085D01*
X51192091Y-71178085D01*
G37*
G36*
X52767091Y-71178085D02*
G01*
X52801069Y-71188393D01*
X52832390Y-71205134D01*
X52859839Y-71227661D01*
X52882366Y-71255110D01*
X52899107Y-71286431D01*
X52909415Y-71320409D01*
X52913500Y-71361890D01*
X52913500Y-72038110D01*
X52909415Y-72079591D01*
X52899107Y-72113569D01*
X52882366Y-72144890D01*
X52859839Y-72172339D01*
X52832390Y-72194866D01*
X52801069Y-72211607D01*
X52767091Y-72221915D01*
X52725610Y-72226000D01*
X52124390Y-72226000D01*
X52082909Y-72221915D01*
X52048931Y-72211607D01*
X52017610Y-72194866D01*
X51990161Y-72172339D01*
X51967634Y-72144890D01*
X51950893Y-72113569D01*
X51940585Y-72079591D01*
X51936500Y-72038110D01*
X51936500Y-71361890D01*
X51940585Y-71320409D01*
X51950893Y-71286431D01*
X51967634Y-71255110D01*
X51990161Y-71227661D01*
X52017610Y-71205134D01*
X52048931Y-71188393D01*
X52082909Y-71178085D01*
X52124390Y-71174000D01*
X52725610Y-71174000D01*
X52767091Y-71178085D01*
X52767091Y-71178085D01*
G37*
G36*
X135542091Y-71178085D02*
G01*
X135576069Y-71188393D01*
X135607390Y-71205134D01*
X135634839Y-71227661D01*
X135657366Y-71255110D01*
X135674107Y-71286431D01*
X135684415Y-71320409D01*
X135688500Y-71361890D01*
X135688500Y-72038110D01*
X135684415Y-72079591D01*
X135674107Y-72113569D01*
X135657366Y-72144890D01*
X135634839Y-72172339D01*
X135607390Y-72194866D01*
X135576069Y-72211607D01*
X135542091Y-72221915D01*
X135500610Y-72226000D01*
X134899390Y-72226000D01*
X134857909Y-72221915D01*
X134823931Y-72211607D01*
X134792610Y-72194866D01*
X134765161Y-72172339D01*
X134742634Y-72144890D01*
X134725893Y-72113569D01*
X134715585Y-72079591D01*
X134711500Y-72038110D01*
X134711500Y-71361890D01*
X134715585Y-71320409D01*
X134725893Y-71286431D01*
X134742634Y-71255110D01*
X134765161Y-71227661D01*
X134792610Y-71205134D01*
X134823931Y-71188393D01*
X134857909Y-71178085D01*
X134899390Y-71174000D01*
X135500610Y-71174000D01*
X135542091Y-71178085D01*
X135542091Y-71178085D01*
G37*
G36*
X133967091Y-71178085D02*
G01*
X134001069Y-71188393D01*
X134032390Y-71205134D01*
X134059839Y-71227661D01*
X134082366Y-71255110D01*
X134099107Y-71286431D01*
X134109415Y-71320409D01*
X134113500Y-71361890D01*
X134113500Y-72038110D01*
X134109415Y-72079591D01*
X134099107Y-72113569D01*
X134082366Y-72144890D01*
X134059839Y-72172339D01*
X134032390Y-72194866D01*
X134001069Y-72211607D01*
X133967091Y-72221915D01*
X133925610Y-72226000D01*
X133324390Y-72226000D01*
X133282909Y-72221915D01*
X133248931Y-72211607D01*
X133217610Y-72194866D01*
X133190161Y-72172339D01*
X133167634Y-72144890D01*
X133150893Y-72113569D01*
X133140585Y-72079591D01*
X133136500Y-72038110D01*
X133136500Y-71361890D01*
X133140585Y-71320409D01*
X133150893Y-71286431D01*
X133167634Y-71255110D01*
X133190161Y-71227661D01*
X133217610Y-71205134D01*
X133248931Y-71188393D01*
X133282909Y-71178085D01*
X133324390Y-71174000D01*
X133925610Y-71174000D01*
X133967091Y-71178085D01*
X133967091Y-71178085D01*
G37*
G36*
X84151000Y-72201000D02*
G01*
X83449000Y-72201000D01*
X83449000Y-71549000D01*
X84151000Y-71549000D01*
X84151000Y-72201000D01*
X84151000Y-72201000D01*
G37*
G36*
X81001000Y-72201000D02*
G01*
X80299000Y-72201000D01*
X80299000Y-71549000D01*
X81001000Y-71549000D01*
X81001000Y-72201000D01*
X81001000Y-72201000D01*
G37*
G36*
X136726000Y-72101000D02*
G01*
X136074000Y-72101000D01*
X136074000Y-71399000D01*
X136726000Y-71399000D01*
X136726000Y-72101000D01*
X136726000Y-72101000D01*
G37*
G36*
X60326000Y-72101000D02*
G01*
X59624000Y-72101000D01*
X59624000Y-71449000D01*
X60326000Y-71449000D01*
X60326000Y-72101000D01*
X60326000Y-72101000D01*
G37*
G36*
X66379591Y-70878085D02*
G01*
X66413569Y-70888393D01*
X66444890Y-70905134D01*
X66472339Y-70927661D01*
X66494866Y-70955110D01*
X66511607Y-70986431D01*
X66521915Y-71020409D01*
X66526000Y-71061890D01*
X66526000Y-71663110D01*
X66521915Y-71704591D01*
X66511607Y-71738569D01*
X66494866Y-71769890D01*
X66472339Y-71797339D01*
X66444890Y-71819866D01*
X66413569Y-71836607D01*
X66379591Y-71846915D01*
X66338110Y-71851000D01*
X65661890Y-71851000D01*
X65620409Y-71846915D01*
X65586431Y-71836607D01*
X65555110Y-71819866D01*
X65527661Y-71797339D01*
X65505134Y-71769890D01*
X65488393Y-71738569D01*
X65478085Y-71704591D01*
X65474000Y-71663110D01*
X65474000Y-71061890D01*
X65478085Y-71020409D01*
X65488393Y-70986431D01*
X65505134Y-70955110D01*
X65527661Y-70927661D01*
X65555110Y-70905134D01*
X65586431Y-70888393D01*
X65620409Y-70878085D01*
X65661890Y-70874000D01*
X66338110Y-70874000D01*
X66379591Y-70878085D01*
X66379591Y-70878085D01*
G37*
G36*
X124154591Y-70778085D02*
G01*
X124188569Y-70788393D01*
X124219890Y-70805134D01*
X124247339Y-70827661D01*
X124269866Y-70855110D01*
X124286607Y-70886431D01*
X124296915Y-70920409D01*
X124301000Y-70961890D01*
X124301000Y-71638110D01*
X124296915Y-71679591D01*
X124286607Y-71713569D01*
X124269866Y-71744890D01*
X124247339Y-71772339D01*
X124219890Y-71794866D01*
X124188569Y-71811607D01*
X124154591Y-71821915D01*
X124113110Y-71826000D01*
X123511890Y-71826000D01*
X123470409Y-71821915D01*
X123436431Y-71811607D01*
X123405110Y-71794866D01*
X123377661Y-71772339D01*
X123355134Y-71744890D01*
X123338393Y-71713569D01*
X123328085Y-71679591D01*
X123324000Y-71638110D01*
X123324000Y-70961890D01*
X123328085Y-70920409D01*
X123338393Y-70886431D01*
X123355134Y-70855110D01*
X123377661Y-70827661D01*
X123405110Y-70805134D01*
X123436431Y-70788393D01*
X123470409Y-70778085D01*
X123511890Y-70774000D01*
X124113110Y-70774000D01*
X124154591Y-70778085D01*
X124154591Y-70778085D01*
G37*
G36*
X125729591Y-70778085D02*
G01*
X125763569Y-70788393D01*
X125794890Y-70805134D01*
X125822339Y-70827661D01*
X125844866Y-70855110D01*
X125861607Y-70886431D01*
X125871915Y-70920409D01*
X125876000Y-70961890D01*
X125876000Y-71638110D01*
X125871915Y-71679591D01*
X125861607Y-71713569D01*
X125844866Y-71744890D01*
X125822339Y-71772339D01*
X125794890Y-71794866D01*
X125763569Y-71811607D01*
X125729591Y-71821915D01*
X125688110Y-71826000D01*
X125086890Y-71826000D01*
X125045409Y-71821915D01*
X125011431Y-71811607D01*
X124980110Y-71794866D01*
X124952661Y-71772339D01*
X124930134Y-71744890D01*
X124913393Y-71713569D01*
X124903085Y-71679591D01*
X124899000Y-71638110D01*
X124899000Y-70961890D01*
X124903085Y-70920409D01*
X124913393Y-70886431D01*
X124930134Y-70855110D01*
X124952661Y-70827661D01*
X124980110Y-70805134D01*
X125011431Y-70788393D01*
X125045409Y-70778085D01*
X125086890Y-70774000D01*
X125688110Y-70774000D01*
X125729591Y-70778085D01*
X125729591Y-70778085D01*
G37*
G36*
X120826000Y-71751000D02*
G01*
X120174000Y-71751000D01*
X120174000Y-71049000D01*
X120826000Y-71049000D01*
X120826000Y-71751000D01*
X120826000Y-71751000D01*
G37*
G36*
X115826000Y-71751000D02*
G01*
X115174000Y-71751000D01*
X115174000Y-71049000D01*
X115826000Y-71049000D01*
X115826000Y-71751000D01*
X115826000Y-71751000D01*
G37*
G36*
X142757155Y-71027934D02*
G01*
X142778766Y-71039485D01*
X142802215Y-71046598D01*
X142826601Y-71049000D01*
X143451000Y-71049000D01*
X143451000Y-71701000D01*
X142749000Y-71701000D01*
X142749000Y-71051912D01*
X142746598Y-71027526D01*
X142743264Y-71016534D01*
X142757155Y-71027934D01*
X142757155Y-71027934D01*
G37*
G36*
X88451000Y-71651000D02*
G01*
X87799000Y-71651000D01*
X87799000Y-70949000D01*
X88451000Y-70949000D01*
X88451000Y-71651000D01*
X88451000Y-71651000D01*
G37*
G36*
X56451000Y-71476000D02*
G01*
X55749000Y-71476000D01*
X55749000Y-70824000D01*
X56451000Y-70824000D01*
X56451000Y-71476000D01*
X56451000Y-71476000D01*
G37*
G36*
X138576000Y-71451000D02*
G01*
X137924000Y-71451000D01*
X137924000Y-70749000D01*
X138576000Y-70749000D01*
X138576000Y-71451000D01*
X138576000Y-71451000D01*
G37*
G36*
X113976000Y-71101000D02*
G01*
X113324000Y-71101000D01*
X113324000Y-70399000D01*
X113976000Y-70399000D01*
X113976000Y-71101000D01*
X113976000Y-71101000D01*
G37*
G36*
X122676000Y-71101000D02*
G01*
X122024000Y-71101000D01*
X122024000Y-70399000D01*
X122676000Y-70399000D01*
X122676000Y-71101000D01*
X122676000Y-71101000D01*
G37*
G36*
X86601000Y-71001000D02*
G01*
X85949000Y-71001000D01*
X85949000Y-70299000D01*
X86601000Y-70299000D01*
X86601000Y-71001000D01*
X86601000Y-71001000D01*
G37*
G36*
X60501824Y-69715256D02*
G01*
X60619234Y-69763889D01*
X60620298Y-69764330D01*
X60726922Y-69835574D01*
X60817599Y-69926251D01*
X60888843Y-70032875D01*
X60937917Y-70151349D01*
X60962934Y-70277121D01*
X60962934Y-70405357D01*
X60937917Y-70531129D01*
X60888843Y-70649603D01*
X60817599Y-70756227D01*
X60726922Y-70846904D01*
X60620298Y-70918148D01*
X60620297Y-70918149D01*
X60620296Y-70918149D01*
X60501824Y-70967222D01*
X60376053Y-70992239D01*
X60247815Y-70992239D01*
X60122044Y-70967222D01*
X60003572Y-70918149D01*
X60003571Y-70918149D01*
X60003570Y-70918148D01*
X59896946Y-70846904D01*
X59806269Y-70756227D01*
X59735025Y-70649603D01*
X59685951Y-70531129D01*
X59660934Y-70405357D01*
X59660934Y-70277121D01*
X59685951Y-70151349D01*
X59735025Y-70032875D01*
X59806269Y-69926251D01*
X59896946Y-69835574D01*
X60003570Y-69764330D01*
X60004635Y-69763889D01*
X60122044Y-69715256D01*
X60247815Y-69690239D01*
X60376053Y-69690239D01*
X60501824Y-69715256D01*
X60501824Y-69715256D01*
G37*
G36*
X119501824Y-69715256D02*
G01*
X119619234Y-69763889D01*
X119620298Y-69764330D01*
X119726922Y-69835574D01*
X119817599Y-69926251D01*
X119888843Y-70032875D01*
X119937917Y-70151349D01*
X119962934Y-70277121D01*
X119962934Y-70405357D01*
X119937917Y-70531129D01*
X119888843Y-70649603D01*
X119817599Y-70756227D01*
X119726922Y-70846904D01*
X119620298Y-70918148D01*
X119620297Y-70918149D01*
X119620296Y-70918149D01*
X119501824Y-70967222D01*
X119376053Y-70992239D01*
X119247815Y-70992239D01*
X119122044Y-70967222D01*
X119003572Y-70918149D01*
X119003571Y-70918149D01*
X119003570Y-70918148D01*
X118896946Y-70846904D01*
X118806269Y-70756227D01*
X118735025Y-70649603D01*
X118685951Y-70531129D01*
X118660934Y-70405357D01*
X118660934Y-70277121D01*
X118685951Y-70151349D01*
X118735025Y-70032875D01*
X118806269Y-69926251D01*
X118896946Y-69835574D01*
X119003570Y-69764330D01*
X119004635Y-69763889D01*
X119122044Y-69715256D01*
X119247815Y-69690239D01*
X119376053Y-69690239D01*
X119501824Y-69715256D01*
X119501824Y-69715256D01*
G37*
G36*
X142501824Y-69715256D02*
G01*
X142619234Y-69763889D01*
X142620298Y-69764330D01*
X142726922Y-69835574D01*
X142817599Y-69926251D01*
X142888843Y-70032875D01*
X142937917Y-70151349D01*
X142962934Y-70277121D01*
X142962934Y-70405357D01*
X142937917Y-70531129D01*
X142888843Y-70649603D01*
X142871205Y-70676000D01*
X142817599Y-70756227D01*
X142738213Y-70835613D01*
X142722668Y-70854555D01*
X142711117Y-70876166D01*
X142704004Y-70899615D01*
X142701602Y-70924001D01*
X142704004Y-70948387D01*
X142707338Y-70959379D01*
X142693447Y-70947979D01*
X142671836Y-70936428D01*
X142648387Y-70929315D01*
X142624001Y-70926913D01*
X142599615Y-70929315D01*
X142576168Y-70936427D01*
X142501824Y-70967222D01*
X142484846Y-70970599D01*
X142376053Y-70992239D01*
X142247815Y-70992239D01*
X142122044Y-70967222D01*
X142003572Y-70918149D01*
X142003571Y-70918149D01*
X142003570Y-70918148D01*
X141896946Y-70846904D01*
X141806269Y-70756227D01*
X141735025Y-70649603D01*
X141685951Y-70531129D01*
X141660934Y-70405357D01*
X141660934Y-70277121D01*
X141685951Y-70151349D01*
X141735025Y-70032875D01*
X141806269Y-69926251D01*
X141896946Y-69835574D01*
X142003570Y-69764330D01*
X142004635Y-69763889D01*
X142122044Y-69715256D01*
X142247815Y-69690239D01*
X142376053Y-69690239D01*
X142501824Y-69715256D01*
X142501824Y-69715256D01*
G37*
G36*
X83501824Y-69715256D02*
G01*
X83619234Y-69763889D01*
X83620298Y-69764330D01*
X83726922Y-69835574D01*
X83817599Y-69926251D01*
X83888843Y-70032875D01*
X83937917Y-70151349D01*
X83962934Y-70277121D01*
X83962934Y-70405357D01*
X83937917Y-70531129D01*
X83888843Y-70649603D01*
X83817599Y-70756227D01*
X83726922Y-70846904D01*
X83620298Y-70918148D01*
X83620297Y-70918149D01*
X83620296Y-70918149D01*
X83501824Y-70967222D01*
X83376053Y-70992239D01*
X83247815Y-70992239D01*
X83122044Y-70967222D01*
X83003572Y-70918149D01*
X83003571Y-70918149D01*
X83003570Y-70918148D01*
X82896946Y-70846904D01*
X82806269Y-70756227D01*
X82735025Y-70649603D01*
X82685951Y-70531129D01*
X82660934Y-70405357D01*
X82660934Y-70277121D01*
X82685951Y-70151349D01*
X82735025Y-70032875D01*
X82806269Y-69926251D01*
X82896946Y-69835574D01*
X83003570Y-69764330D01*
X83004635Y-69763889D01*
X83122044Y-69715256D01*
X83247815Y-69690239D01*
X83376053Y-69690239D01*
X83501824Y-69715256D01*
X83501824Y-69715256D01*
G37*
G36*
X57868636Y-69712958D02*
G01*
X57946569Y-69745239D01*
X57987110Y-69762032D01*
X58093734Y-69833276D01*
X58184411Y-69923953D01*
X58255656Y-70030579D01*
X58304729Y-70149051D01*
X58329746Y-70274822D01*
X58329746Y-70403060D01*
X58314561Y-70479401D01*
X58304729Y-70528831D01*
X58255655Y-70647305D01*
X58184411Y-70753929D01*
X58093734Y-70844606D01*
X57987110Y-70915850D01*
X57987109Y-70915851D01*
X57987108Y-70915851D01*
X57868636Y-70964924D01*
X57742865Y-70989941D01*
X57614627Y-70989941D01*
X57488856Y-70964924D01*
X57370384Y-70915851D01*
X57370383Y-70915851D01*
X57370382Y-70915850D01*
X57263758Y-70844606D01*
X57173081Y-70753929D01*
X57101837Y-70647305D01*
X57052763Y-70528831D01*
X57042931Y-70479401D01*
X57027746Y-70403060D01*
X57027746Y-70274822D01*
X57052763Y-70149051D01*
X57101836Y-70030579D01*
X57173081Y-69923953D01*
X57263758Y-69833276D01*
X57370382Y-69762032D01*
X57410924Y-69745239D01*
X57488856Y-69712958D01*
X57614627Y-69687941D01*
X57742865Y-69687941D01*
X57868636Y-69712958D01*
X57868636Y-69712958D01*
G37*
G36*
X139868636Y-69712958D02*
G01*
X139946569Y-69745239D01*
X139987110Y-69762032D01*
X140093734Y-69833276D01*
X140184411Y-69923953D01*
X140255656Y-70030579D01*
X140304729Y-70149051D01*
X140329746Y-70274822D01*
X140329746Y-70403060D01*
X140314561Y-70479401D01*
X140304729Y-70528831D01*
X140255655Y-70647305D01*
X140184411Y-70753929D01*
X140093734Y-70844606D01*
X139987110Y-70915850D01*
X139987109Y-70915851D01*
X139987108Y-70915851D01*
X139868636Y-70964924D01*
X139742865Y-70989941D01*
X139614627Y-70989941D01*
X139488856Y-70964924D01*
X139370384Y-70915851D01*
X139370383Y-70915851D01*
X139370382Y-70915850D01*
X139263758Y-70844606D01*
X139173081Y-70753929D01*
X139101837Y-70647305D01*
X139052763Y-70528831D01*
X139042931Y-70479401D01*
X139027746Y-70403060D01*
X139027746Y-70274822D01*
X139052763Y-70149051D01*
X139101836Y-70030579D01*
X139173081Y-69923953D01*
X139263758Y-69833276D01*
X139370382Y-69762032D01*
X139410924Y-69745239D01*
X139488856Y-69712958D01*
X139614627Y-69687941D01*
X139742865Y-69687941D01*
X139868636Y-69712958D01*
X139868636Y-69712958D01*
G37*
G36*
X116868636Y-69712958D02*
G01*
X116946569Y-69745239D01*
X116987110Y-69762032D01*
X117093734Y-69833276D01*
X117184411Y-69923953D01*
X117255656Y-70030579D01*
X117304729Y-70149051D01*
X117329746Y-70274822D01*
X117329746Y-70403060D01*
X117314561Y-70479401D01*
X117304729Y-70528831D01*
X117255655Y-70647305D01*
X117184411Y-70753929D01*
X117093734Y-70844606D01*
X116987110Y-70915850D01*
X116987109Y-70915851D01*
X116987108Y-70915851D01*
X116868636Y-70964924D01*
X116742865Y-70989941D01*
X116614627Y-70989941D01*
X116488856Y-70964924D01*
X116370384Y-70915851D01*
X116370383Y-70915851D01*
X116370382Y-70915850D01*
X116263758Y-70844606D01*
X116173081Y-70753929D01*
X116101837Y-70647305D01*
X116052763Y-70528831D01*
X116042931Y-70479401D01*
X116027746Y-70403060D01*
X116027746Y-70274822D01*
X116052763Y-70149051D01*
X116101836Y-70030579D01*
X116173081Y-69923953D01*
X116263758Y-69833276D01*
X116370382Y-69762032D01*
X116410924Y-69745239D01*
X116488856Y-69712958D01*
X116614627Y-69687941D01*
X116742865Y-69687941D01*
X116868636Y-69712958D01*
X116868636Y-69712958D01*
G37*
G36*
X80868636Y-69712958D02*
G01*
X80946569Y-69745239D01*
X80987110Y-69762032D01*
X81093734Y-69833276D01*
X81184411Y-69923953D01*
X81255656Y-70030579D01*
X81304729Y-70149051D01*
X81329746Y-70274822D01*
X81329746Y-70403060D01*
X81314561Y-70479401D01*
X81304729Y-70528831D01*
X81255655Y-70647305D01*
X81184411Y-70753929D01*
X81093734Y-70844606D01*
X80987110Y-70915850D01*
X80987109Y-70915851D01*
X80987108Y-70915851D01*
X80868636Y-70964924D01*
X80742865Y-70989941D01*
X80614627Y-70989941D01*
X80488856Y-70964924D01*
X80370384Y-70915851D01*
X80370383Y-70915851D01*
X80370382Y-70915850D01*
X80263758Y-70844606D01*
X80173081Y-70753929D01*
X80101837Y-70647305D01*
X80052763Y-70528831D01*
X80042931Y-70479401D01*
X80027746Y-70403060D01*
X80027746Y-70274822D01*
X80052763Y-70149051D01*
X80101836Y-70030579D01*
X80173081Y-69923953D01*
X80263758Y-69833276D01*
X80370382Y-69762032D01*
X80410924Y-69745239D01*
X80488856Y-69712958D01*
X80614627Y-69687941D01*
X80742865Y-69687941D01*
X80868636Y-69712958D01*
X80868636Y-69712958D01*
G37*
G36*
X63076000Y-70901000D02*
G01*
X62374000Y-70901000D01*
X62374000Y-70249000D01*
X63076000Y-70249000D01*
X63076000Y-70901000D01*
X63076000Y-70901000D01*
G37*
G36*
X136726000Y-70801000D02*
G01*
X136074000Y-70801000D01*
X136074000Y-70099000D01*
X136726000Y-70099000D01*
X136726000Y-70801000D01*
X136726000Y-70801000D01*
G37*
G36*
X132492091Y-69628085D02*
G01*
X132526069Y-69638393D01*
X132557390Y-69655134D01*
X132584839Y-69677661D01*
X132607366Y-69705110D01*
X132624107Y-69736431D01*
X132634415Y-69770409D01*
X132638500Y-69811890D01*
X132638500Y-70488110D01*
X132634415Y-70529591D01*
X132624107Y-70563569D01*
X132607366Y-70594890D01*
X132584839Y-70622339D01*
X132557390Y-70644866D01*
X132526069Y-70661607D01*
X132492091Y-70671915D01*
X132450610Y-70676000D01*
X131849390Y-70676000D01*
X131807909Y-70671915D01*
X131773931Y-70661607D01*
X131742610Y-70644866D01*
X131715161Y-70622339D01*
X131692634Y-70594890D01*
X131675893Y-70563569D01*
X131665585Y-70529591D01*
X131661500Y-70488110D01*
X131661500Y-69811890D01*
X131665585Y-69770409D01*
X131675893Y-69736431D01*
X131692634Y-69705110D01*
X131715161Y-69677661D01*
X131742610Y-69655134D01*
X131773931Y-69638393D01*
X131807909Y-69628085D01*
X131849390Y-69624000D01*
X132450610Y-69624000D01*
X132492091Y-69628085D01*
X132492091Y-69628085D01*
G37*
G36*
X130917091Y-69628085D02*
G01*
X130951069Y-69638393D01*
X130982390Y-69655134D01*
X131009839Y-69677661D01*
X131032366Y-69705110D01*
X131049107Y-69736431D01*
X131059415Y-69770409D01*
X131063500Y-69811890D01*
X131063500Y-70488110D01*
X131059415Y-70529591D01*
X131049107Y-70563569D01*
X131032366Y-70594890D01*
X131009839Y-70622339D01*
X130982390Y-70644866D01*
X130951069Y-70661607D01*
X130917091Y-70671915D01*
X130875610Y-70676000D01*
X130274390Y-70676000D01*
X130232909Y-70671915D01*
X130198931Y-70661607D01*
X130167610Y-70644866D01*
X130140161Y-70622339D01*
X130117634Y-70594890D01*
X130100893Y-70563569D01*
X130090585Y-70529591D01*
X130086500Y-70488110D01*
X130086500Y-69811890D01*
X130090585Y-69770409D01*
X130100893Y-69736431D01*
X130117634Y-69705110D01*
X130140161Y-69677661D01*
X130167610Y-69655134D01*
X130198931Y-69638393D01*
X130232909Y-69628085D01*
X130274390Y-69624000D01*
X130875610Y-69624000D01*
X130917091Y-69628085D01*
X130917091Y-69628085D01*
G37*
G36*
X89904591Y-69478085D02*
G01*
X89938569Y-69488393D01*
X89969890Y-69505134D01*
X89997339Y-69527661D01*
X90019866Y-69555110D01*
X90036607Y-69586431D01*
X90046915Y-69620409D01*
X90051000Y-69661890D01*
X90051000Y-70338110D01*
X90046915Y-70379591D01*
X90036607Y-70413569D01*
X90019866Y-70444890D01*
X89997339Y-70472339D01*
X89969890Y-70494866D01*
X89938569Y-70511607D01*
X89904591Y-70521915D01*
X89863110Y-70526000D01*
X89261890Y-70526000D01*
X89220409Y-70521915D01*
X89186431Y-70511607D01*
X89155110Y-70494866D01*
X89127661Y-70472339D01*
X89105134Y-70444890D01*
X89088393Y-70413569D01*
X89078085Y-70379591D01*
X89074000Y-70338110D01*
X89074000Y-69661890D01*
X89078085Y-69620409D01*
X89088393Y-69586431D01*
X89105134Y-69555110D01*
X89127661Y-69527661D01*
X89155110Y-69505134D01*
X89186431Y-69488393D01*
X89220409Y-69478085D01*
X89261890Y-69474000D01*
X89863110Y-69474000D01*
X89904591Y-69478085D01*
X89904591Y-69478085D01*
G37*
G36*
X91479591Y-69478085D02*
G01*
X91513569Y-69488393D01*
X91544890Y-69505134D01*
X91572339Y-69527661D01*
X91594866Y-69555110D01*
X91611607Y-69586431D01*
X91621915Y-69620409D01*
X91626000Y-69661890D01*
X91626000Y-70338110D01*
X91621915Y-70379591D01*
X91611607Y-70413569D01*
X91594866Y-70444890D01*
X91572339Y-70472339D01*
X91544890Y-70494866D01*
X91513569Y-70511607D01*
X91479591Y-70521915D01*
X91438110Y-70526000D01*
X90836890Y-70526000D01*
X90795409Y-70521915D01*
X90761431Y-70511607D01*
X90730110Y-70494866D01*
X90702661Y-70472339D01*
X90680134Y-70444890D01*
X90663393Y-70413569D01*
X90653085Y-70379591D01*
X90649000Y-70338110D01*
X90649000Y-69661890D01*
X90653085Y-69620409D01*
X90663393Y-69586431D01*
X90680134Y-69555110D01*
X90702661Y-69527661D01*
X90730110Y-69505134D01*
X90761431Y-69488393D01*
X90795409Y-69478085D01*
X90836890Y-69474000D01*
X91438110Y-69474000D01*
X91479591Y-69478085D01*
X91479591Y-69478085D01*
G37*
G36*
X146001000Y-70476000D02*
G01*
X145299000Y-70476000D01*
X145299000Y-69824000D01*
X146001000Y-69824000D01*
X146001000Y-70476000D01*
X146001000Y-70476000D01*
G37*
G36*
X77376000Y-70451000D02*
G01*
X76674000Y-70451000D01*
X76674000Y-69799000D01*
X77376000Y-69799000D01*
X77376000Y-70451000D01*
X77376000Y-70451000D01*
G37*
G36*
X52801000Y-70401000D02*
G01*
X52149000Y-70401000D01*
X52149000Y-69699000D01*
X52801000Y-69699000D01*
X52801000Y-70401000D01*
X52801000Y-70401000D01*
G37*
G36*
X51304591Y-69390585D02*
G01*
X51338569Y-69400893D01*
X51369890Y-69417634D01*
X51397339Y-69440161D01*
X51419866Y-69467610D01*
X51436607Y-69498931D01*
X51446915Y-69532909D01*
X51451000Y-69574390D01*
X51451000Y-70175610D01*
X51446915Y-70217091D01*
X51436607Y-70251069D01*
X51419866Y-70282390D01*
X51397339Y-70309839D01*
X51369890Y-70332366D01*
X51338569Y-70349107D01*
X51304591Y-70359415D01*
X51263110Y-70363500D01*
X50586890Y-70363500D01*
X50545409Y-70359415D01*
X50511431Y-70349107D01*
X50480110Y-70332366D01*
X50452661Y-70309839D01*
X50430134Y-70282390D01*
X50413393Y-70251069D01*
X50403085Y-70217091D01*
X50399000Y-70175610D01*
X50399000Y-69574390D01*
X50403085Y-69532909D01*
X50413393Y-69498931D01*
X50430134Y-69467610D01*
X50452661Y-69440161D01*
X50480110Y-69417634D01*
X50511431Y-69400893D01*
X50545409Y-69390585D01*
X50586890Y-69386500D01*
X51263110Y-69386500D01*
X51304591Y-69390585D01*
X51304591Y-69390585D01*
G37*
G36*
X88451000Y-70351000D02*
G01*
X87799000Y-70351000D01*
X87799000Y-69649000D01*
X88451000Y-69649000D01*
X88451000Y-70351000D01*
X88451000Y-70351000D01*
G37*
G36*
X125276000Y-70351000D02*
G01*
X124624000Y-70351000D01*
X124624000Y-69649000D01*
X125276000Y-69649000D01*
X125276000Y-70351000D01*
X125276000Y-70351000D01*
G37*
G36*
X110079591Y-69278085D02*
G01*
X110113569Y-69288393D01*
X110144890Y-69305134D01*
X110172339Y-69327661D01*
X110194866Y-69355110D01*
X110211607Y-69386431D01*
X110221915Y-69420409D01*
X110226000Y-69461890D01*
X110226000Y-70138110D01*
X110221915Y-70179591D01*
X110211607Y-70213569D01*
X110194866Y-70244890D01*
X110172339Y-70272339D01*
X110144890Y-70294866D01*
X110113569Y-70311607D01*
X110079591Y-70321915D01*
X110038110Y-70326000D01*
X109436890Y-70326000D01*
X109395409Y-70321915D01*
X109361431Y-70311607D01*
X109330110Y-70294866D01*
X109302661Y-70272339D01*
X109280134Y-70244890D01*
X109263393Y-70213569D01*
X109253085Y-70179591D01*
X109249000Y-70138110D01*
X109249000Y-69461890D01*
X109253085Y-69420409D01*
X109263393Y-69386431D01*
X109280134Y-69355110D01*
X109302661Y-69327661D01*
X109330110Y-69305134D01*
X109361431Y-69288393D01*
X109395409Y-69278085D01*
X109436890Y-69274000D01*
X110038110Y-69274000D01*
X110079591Y-69278085D01*
X110079591Y-69278085D01*
G37*
G36*
X108504591Y-69278085D02*
G01*
X108538569Y-69288393D01*
X108569890Y-69305134D01*
X108597339Y-69327661D01*
X108619866Y-69355110D01*
X108636607Y-69386431D01*
X108646915Y-69420409D01*
X108651000Y-69461890D01*
X108651000Y-70138110D01*
X108646915Y-70179591D01*
X108636607Y-70213569D01*
X108619866Y-70244890D01*
X108597339Y-70272339D01*
X108569890Y-70294866D01*
X108538569Y-70311607D01*
X108504591Y-70321915D01*
X108463110Y-70326000D01*
X107861890Y-70326000D01*
X107820409Y-70321915D01*
X107786431Y-70311607D01*
X107755110Y-70294866D01*
X107727661Y-70272339D01*
X107705134Y-70244890D01*
X107688393Y-70213569D01*
X107678085Y-70179591D01*
X107674000Y-70138110D01*
X107674000Y-69461890D01*
X107678085Y-69420409D01*
X107688393Y-69386431D01*
X107705134Y-69355110D01*
X107727661Y-69327661D01*
X107755110Y-69305134D01*
X107786431Y-69288393D01*
X107820409Y-69278085D01*
X107861890Y-69274000D01*
X108463110Y-69274000D01*
X108504591Y-69278085D01*
X108504591Y-69278085D01*
G37*
G36*
X66201000Y-70301000D02*
G01*
X65499000Y-70301000D01*
X65499000Y-69649000D01*
X66201000Y-69649000D01*
X66201000Y-70301000D01*
X66201000Y-70301000D01*
G37*
G36*
X64901000Y-70301000D02*
G01*
X64199000Y-70301000D01*
X64199000Y-69649000D01*
X64901000Y-69649000D01*
X64901000Y-70301000D01*
X64901000Y-70301000D01*
G37*
G36*
X134376000Y-70151000D02*
G01*
X133724000Y-70151000D01*
X133724000Y-69449000D01*
X134376000Y-69449000D01*
X134376000Y-70151000D01*
X134376000Y-70151000D01*
G37*
G36*
X111376000Y-70151000D02*
G01*
X110724000Y-70151000D01*
X110724000Y-69449000D01*
X111376000Y-69449000D01*
X111376000Y-70151000D01*
X111376000Y-70151000D01*
G37*
G36*
X121834300Y-68493273D02*
G01*
X121937401Y-68535979D01*
X121952774Y-68542347D01*
X122059398Y-68613591D01*
X122150075Y-68704268D01*
X122217065Y-68804525D01*
X122221320Y-68810894D01*
X122270393Y-68929366D01*
X122295410Y-69055137D01*
X122295410Y-69183375D01*
X122270393Y-69309146D01*
X122222496Y-69424780D01*
X122221319Y-69427620D01*
X122150075Y-69534244D01*
X122059398Y-69624921D01*
X121952774Y-69696165D01*
X121952773Y-69696166D01*
X121952772Y-69696166D01*
X121834300Y-69745239D01*
X121708529Y-69770256D01*
X121580291Y-69770256D01*
X121454520Y-69745239D01*
X121336048Y-69696166D01*
X121336047Y-69696166D01*
X121336046Y-69696165D01*
X121229422Y-69624921D01*
X121138745Y-69534244D01*
X121067501Y-69427620D01*
X121066325Y-69424780D01*
X121018427Y-69309146D01*
X120993410Y-69183375D01*
X120993410Y-69055137D01*
X121018427Y-68929366D01*
X121067500Y-68810894D01*
X121071756Y-68804525D01*
X121138745Y-68704268D01*
X121229422Y-68613591D01*
X121336046Y-68542347D01*
X121351420Y-68535979D01*
X121454520Y-68493273D01*
X121580291Y-68468256D01*
X121708529Y-68468256D01*
X121834300Y-68493273D01*
X121834300Y-68493273D01*
G37*
G36*
X62834300Y-68493273D02*
G01*
X62937401Y-68535979D01*
X62952774Y-68542347D01*
X63059398Y-68613591D01*
X63150075Y-68704268D01*
X63217065Y-68804525D01*
X63221320Y-68810894D01*
X63270393Y-68929366D01*
X63295410Y-69055137D01*
X63295410Y-69183375D01*
X63270393Y-69309146D01*
X63222496Y-69424780D01*
X63221319Y-69427620D01*
X63150075Y-69534244D01*
X63059398Y-69624921D01*
X62952774Y-69696165D01*
X62952773Y-69696166D01*
X62952772Y-69696166D01*
X62834300Y-69745239D01*
X62708529Y-69770256D01*
X62580291Y-69770256D01*
X62454520Y-69745239D01*
X62336048Y-69696166D01*
X62336047Y-69696166D01*
X62336046Y-69696165D01*
X62229422Y-69624921D01*
X62138745Y-69534244D01*
X62067501Y-69427620D01*
X62066325Y-69424780D01*
X62018427Y-69309146D01*
X61993410Y-69183375D01*
X61993410Y-69055137D01*
X62018427Y-68929366D01*
X62067500Y-68810894D01*
X62071756Y-68804525D01*
X62138745Y-68704268D01*
X62229422Y-68613591D01*
X62336046Y-68542347D01*
X62351420Y-68535979D01*
X62454520Y-68493273D01*
X62580291Y-68468256D01*
X62708529Y-68468256D01*
X62834300Y-68493273D01*
X62834300Y-68493273D01*
G37*
G36*
X144834300Y-68493273D02*
G01*
X144937401Y-68535979D01*
X144952774Y-68542347D01*
X145059398Y-68613591D01*
X145150075Y-68704268D01*
X145217065Y-68804525D01*
X145221320Y-68810894D01*
X145270393Y-68929366D01*
X145295410Y-69055137D01*
X145295410Y-69183375D01*
X145270393Y-69309146D01*
X145222496Y-69424780D01*
X145221319Y-69427620D01*
X145150075Y-69534244D01*
X145059398Y-69624921D01*
X144952774Y-69696165D01*
X144952773Y-69696166D01*
X144952772Y-69696166D01*
X144834300Y-69745239D01*
X144708529Y-69770256D01*
X144580291Y-69770256D01*
X144454520Y-69745239D01*
X144336048Y-69696166D01*
X144336047Y-69696166D01*
X144336046Y-69696165D01*
X144229422Y-69624921D01*
X144138745Y-69534244D01*
X144067501Y-69427620D01*
X144066325Y-69424780D01*
X144018427Y-69309146D01*
X143993410Y-69183375D01*
X143993410Y-69055137D01*
X144018427Y-68929366D01*
X144067500Y-68810894D01*
X144071756Y-68804525D01*
X144138745Y-68704268D01*
X144229422Y-68613591D01*
X144336046Y-68542347D01*
X144351420Y-68535979D01*
X144454520Y-68493273D01*
X144580291Y-68468256D01*
X144708529Y-68468256D01*
X144834300Y-68493273D01*
X144834300Y-68493273D01*
G37*
G36*
X85834300Y-68493273D02*
G01*
X85937401Y-68535979D01*
X85952774Y-68542347D01*
X86059398Y-68613591D01*
X86150075Y-68704268D01*
X86217065Y-68804525D01*
X86221320Y-68810894D01*
X86270393Y-68929366D01*
X86295410Y-69055137D01*
X86295410Y-69183375D01*
X86270393Y-69309146D01*
X86222496Y-69424780D01*
X86221319Y-69427620D01*
X86150075Y-69534244D01*
X86059398Y-69624921D01*
X85952774Y-69696165D01*
X85952773Y-69696166D01*
X85952772Y-69696166D01*
X85834300Y-69745239D01*
X85708529Y-69770256D01*
X85580291Y-69770256D01*
X85454520Y-69745239D01*
X85336048Y-69696166D01*
X85336047Y-69696166D01*
X85336046Y-69696165D01*
X85229422Y-69624921D01*
X85138745Y-69534244D01*
X85067501Y-69427620D01*
X85066325Y-69424780D01*
X85018427Y-69309146D01*
X84993410Y-69183375D01*
X84993410Y-69055137D01*
X85018427Y-68929366D01*
X85067500Y-68810894D01*
X85071756Y-68804525D01*
X85138745Y-68704268D01*
X85229422Y-68613591D01*
X85336046Y-68542347D01*
X85351420Y-68535979D01*
X85454520Y-68493273D01*
X85580291Y-68468256D01*
X85708529Y-68468256D01*
X85834300Y-68493273D01*
X85834300Y-68493273D01*
G37*
G36*
X78538296Y-68486906D02*
G01*
X78593654Y-68509836D01*
X78656770Y-68535980D01*
X78763394Y-68607224D01*
X78854071Y-68697901D01*
X78911472Y-68783807D01*
X78925316Y-68804527D01*
X78974389Y-68922999D01*
X78999406Y-69048770D01*
X78999406Y-69177008D01*
X78974389Y-69302779D01*
X78933749Y-69400893D01*
X78925315Y-69421253D01*
X78854071Y-69527877D01*
X78763394Y-69618554D01*
X78656770Y-69689798D01*
X78656769Y-69689799D01*
X78656768Y-69689799D01*
X78538296Y-69738872D01*
X78412525Y-69763889D01*
X78284287Y-69763889D01*
X78158516Y-69738872D01*
X78040044Y-69689799D01*
X78040043Y-69689799D01*
X78040042Y-69689798D01*
X77933418Y-69618554D01*
X77842741Y-69527877D01*
X77771497Y-69421253D01*
X77763064Y-69400893D01*
X77722423Y-69302779D01*
X77697406Y-69177008D01*
X77697406Y-69048770D01*
X77722423Y-68922999D01*
X77771496Y-68804527D01*
X77785341Y-68783807D01*
X77842741Y-68697901D01*
X77933418Y-68607224D01*
X78040042Y-68535980D01*
X78103159Y-68509836D01*
X78158516Y-68486906D01*
X78284287Y-68461889D01*
X78412525Y-68461889D01*
X78538296Y-68486906D01*
X78538296Y-68486906D01*
G37*
G36*
X114538296Y-68486906D02*
G01*
X114593654Y-68509836D01*
X114656770Y-68535980D01*
X114763394Y-68607224D01*
X114854071Y-68697901D01*
X114911472Y-68783807D01*
X114925316Y-68804527D01*
X114974389Y-68922999D01*
X114999406Y-69048770D01*
X114999406Y-69177008D01*
X114974389Y-69302779D01*
X114933749Y-69400893D01*
X114925315Y-69421253D01*
X114854071Y-69527877D01*
X114763394Y-69618554D01*
X114656770Y-69689798D01*
X114656769Y-69689799D01*
X114656768Y-69689799D01*
X114538296Y-69738872D01*
X114412525Y-69763889D01*
X114284287Y-69763889D01*
X114158516Y-69738872D01*
X114040044Y-69689799D01*
X114040043Y-69689799D01*
X114040042Y-69689798D01*
X113933418Y-69618554D01*
X113842741Y-69527877D01*
X113771497Y-69421253D01*
X113763064Y-69400893D01*
X113722423Y-69302779D01*
X113697406Y-69177008D01*
X113697406Y-69048770D01*
X113722423Y-68922999D01*
X113771496Y-68804527D01*
X113785341Y-68783807D01*
X113842741Y-68697901D01*
X113933418Y-68607224D01*
X114040042Y-68535980D01*
X114103159Y-68509836D01*
X114158516Y-68486906D01*
X114284287Y-68461889D01*
X114412525Y-68461889D01*
X114538296Y-68486906D01*
X114538296Y-68486906D01*
G37*
G36*
X55538296Y-68486906D02*
G01*
X55593654Y-68509836D01*
X55656770Y-68535980D01*
X55763394Y-68607224D01*
X55854071Y-68697901D01*
X55911472Y-68783807D01*
X55925316Y-68804527D01*
X55974389Y-68922999D01*
X55999406Y-69048770D01*
X55999406Y-69177008D01*
X55974389Y-69302779D01*
X55933749Y-69400893D01*
X55925315Y-69421253D01*
X55854071Y-69527877D01*
X55763394Y-69618554D01*
X55656770Y-69689798D01*
X55656769Y-69689799D01*
X55656768Y-69689799D01*
X55538296Y-69738872D01*
X55412525Y-69763889D01*
X55284287Y-69763889D01*
X55158516Y-69738872D01*
X55040044Y-69689799D01*
X55040043Y-69689799D01*
X55040042Y-69689798D01*
X54933418Y-69618554D01*
X54864387Y-69549523D01*
X54845445Y-69533978D01*
X54823834Y-69522427D01*
X54800385Y-69515314D01*
X54775999Y-69512912D01*
X54751613Y-69515314D01*
X54728164Y-69522427D01*
X54706553Y-69533978D01*
X54687611Y-69549523D01*
X54672066Y-69568465D01*
X54660515Y-69590076D01*
X54653402Y-69613525D01*
X54651000Y-69637911D01*
X54651000Y-69751000D01*
X53999000Y-69751000D01*
X53999000Y-69049000D01*
X54594776Y-69049000D01*
X54619162Y-69046598D01*
X54642611Y-69039485D01*
X54664222Y-69027934D01*
X54683164Y-69012389D01*
X54698709Y-68993447D01*
X54710260Y-68971836D01*
X54717373Y-68948388D01*
X54722423Y-68922999D01*
X54771496Y-68804527D01*
X54785341Y-68783807D01*
X54842741Y-68697901D01*
X54933418Y-68607224D01*
X55040042Y-68535980D01*
X55103159Y-68509836D01*
X55158516Y-68486906D01*
X55284287Y-68461889D01*
X55412525Y-68461889D01*
X55538296Y-68486906D01*
X55538296Y-68486906D01*
G37*
G36*
X137538296Y-68486906D02*
G01*
X137593654Y-68509836D01*
X137656770Y-68535980D01*
X137763394Y-68607224D01*
X137854071Y-68697901D01*
X137911472Y-68783807D01*
X137925316Y-68804527D01*
X137974389Y-68922999D01*
X137999406Y-69048770D01*
X137999406Y-69177008D01*
X137974389Y-69302779D01*
X137933749Y-69400893D01*
X137925315Y-69421253D01*
X137854071Y-69527877D01*
X137763394Y-69618554D01*
X137656770Y-69689798D01*
X137656769Y-69689799D01*
X137656768Y-69689799D01*
X137538296Y-69738872D01*
X137412525Y-69763889D01*
X137284287Y-69763889D01*
X137158516Y-69738872D01*
X137040044Y-69689799D01*
X137040043Y-69689799D01*
X137040042Y-69689798D01*
X136933418Y-69618554D01*
X136842741Y-69527877D01*
X136771497Y-69421253D01*
X136763064Y-69400893D01*
X136722423Y-69302779D01*
X136697406Y-69177008D01*
X136697406Y-69048770D01*
X136722423Y-68922999D01*
X136771496Y-68804527D01*
X136785341Y-68783807D01*
X136842741Y-68697901D01*
X136933418Y-68607224D01*
X137040042Y-68535980D01*
X137103159Y-68509836D01*
X137158516Y-68486906D01*
X137284287Y-68461889D01*
X137412525Y-68461889D01*
X137538296Y-68486906D01*
X137538296Y-68486906D01*
G37*
G36*
X123426000Y-69701000D02*
G01*
X122774000Y-69701000D01*
X122774000Y-68999000D01*
X123426000Y-68999000D01*
X123426000Y-69701000D01*
X123426000Y-69701000D01*
G37*
G36*
X136226000Y-69501000D02*
G01*
X135574000Y-69501000D01*
X135574000Y-68799000D01*
X136226000Y-68799000D01*
X136226000Y-69501000D01*
X136226000Y-69501000D01*
G37*
G36*
X113226000Y-69501000D02*
G01*
X112574000Y-69501000D01*
X112574000Y-68799000D01*
X113226000Y-68799000D01*
X113226000Y-69501000D01*
X113226000Y-69501000D01*
G37*
G36*
X126542091Y-68378085D02*
G01*
X126576069Y-68388393D01*
X126607390Y-68405134D01*
X126634839Y-68427661D01*
X126657366Y-68455110D01*
X126674107Y-68486431D01*
X126684415Y-68520409D01*
X126688500Y-68561890D01*
X126688500Y-69238110D01*
X126684415Y-69279591D01*
X126674107Y-69313569D01*
X126657366Y-69344890D01*
X126634839Y-69372339D01*
X126607390Y-69394866D01*
X126576069Y-69411607D01*
X126542091Y-69421915D01*
X126500610Y-69426000D01*
X125899390Y-69426000D01*
X125857909Y-69421915D01*
X125823931Y-69411607D01*
X125792610Y-69394866D01*
X125765161Y-69372339D01*
X125742634Y-69344890D01*
X125725893Y-69313569D01*
X125715585Y-69279591D01*
X125711500Y-69238110D01*
X125711500Y-68561890D01*
X125715585Y-68520409D01*
X125725893Y-68486431D01*
X125742634Y-68455110D01*
X125765161Y-68427661D01*
X125792610Y-68405134D01*
X125823931Y-68388393D01*
X125857909Y-68378085D01*
X125899390Y-68374000D01*
X126500610Y-68374000D01*
X126542091Y-68378085D01*
X126542091Y-68378085D01*
G37*
G36*
X128117091Y-68378085D02*
G01*
X128151069Y-68388393D01*
X128182390Y-68405134D01*
X128209839Y-68427661D01*
X128232366Y-68455110D01*
X128249107Y-68486431D01*
X128259415Y-68520409D01*
X128263500Y-68561890D01*
X128263500Y-69238110D01*
X128259415Y-69279591D01*
X128249107Y-69313569D01*
X128232366Y-69344890D01*
X128209839Y-69372339D01*
X128182390Y-69394866D01*
X128151069Y-69411607D01*
X128117091Y-69421915D01*
X128075610Y-69426000D01*
X127474390Y-69426000D01*
X127432909Y-69421915D01*
X127398931Y-69411607D01*
X127367610Y-69394866D01*
X127340161Y-69372339D01*
X127317634Y-69344890D01*
X127300893Y-69313569D01*
X127290585Y-69279591D01*
X127286500Y-69238110D01*
X127286500Y-68561890D01*
X127290585Y-68520409D01*
X127300893Y-68486431D01*
X127317634Y-68455110D01*
X127340161Y-68427661D01*
X127367610Y-68405134D01*
X127398931Y-68388393D01*
X127432909Y-68378085D01*
X127474390Y-68374000D01*
X128075610Y-68374000D01*
X128117091Y-68378085D01*
X128117091Y-68378085D01*
G37*
G36*
X148976000Y-69401000D02*
G01*
X148324000Y-69401000D01*
X148324000Y-68699000D01*
X148976000Y-68699000D01*
X148976000Y-69401000D01*
X148976000Y-69401000D01*
G37*
G36*
X131929591Y-68290585D02*
G01*
X131963569Y-68300893D01*
X131994890Y-68317634D01*
X132022339Y-68340161D01*
X132044866Y-68367610D01*
X132061607Y-68398931D01*
X132071915Y-68432909D01*
X132076000Y-68474390D01*
X132076000Y-69075610D01*
X132071915Y-69117091D01*
X132061607Y-69151069D01*
X132044866Y-69182390D01*
X132022339Y-69209839D01*
X131994890Y-69232366D01*
X131963569Y-69249107D01*
X131929591Y-69259415D01*
X131888110Y-69263500D01*
X131211890Y-69263500D01*
X131170409Y-69259415D01*
X131136431Y-69249107D01*
X131105110Y-69232366D01*
X131077661Y-69209839D01*
X131055134Y-69182390D01*
X131038393Y-69151069D01*
X131028085Y-69117091D01*
X131024000Y-69075610D01*
X131024000Y-68474390D01*
X131028085Y-68432909D01*
X131038393Y-68398931D01*
X131055134Y-68367610D01*
X131077661Y-68340161D01*
X131105110Y-68317634D01*
X131136431Y-68300893D01*
X131170409Y-68290585D01*
X131211890Y-68286500D01*
X131888110Y-68286500D01*
X131929591Y-68290585D01*
X131929591Y-68290585D01*
G37*
G36*
X52801000Y-69101000D02*
G01*
X52149000Y-69101000D01*
X52149000Y-68399000D01*
X52801000Y-68399000D01*
X52801000Y-69101000D01*
X52801000Y-69101000D01*
G37*
G36*
X125276000Y-69051000D02*
G01*
X124624000Y-69051000D01*
X124624000Y-68349000D01*
X125276000Y-68349000D01*
X125276000Y-69051000D01*
X125276000Y-69051000D01*
G37*
G36*
X111376000Y-68851000D02*
G01*
X110724000Y-68851000D01*
X110724000Y-68149000D01*
X111376000Y-68149000D01*
X111376000Y-68851000D01*
X111376000Y-68851000D01*
G37*
G36*
X134376000Y-68851000D02*
G01*
X133724000Y-68851000D01*
X133724000Y-68149000D01*
X134376000Y-68149000D01*
X134376000Y-68851000D01*
X134376000Y-68851000D01*
G37*
G36*
X51304591Y-67815585D02*
G01*
X51338569Y-67825893D01*
X51369890Y-67842634D01*
X51397339Y-67865161D01*
X51419866Y-67892610D01*
X51436607Y-67923931D01*
X51446915Y-67957909D01*
X51451000Y-67999390D01*
X51451000Y-68600610D01*
X51446915Y-68642091D01*
X51436607Y-68676069D01*
X51419866Y-68707390D01*
X51397339Y-68734839D01*
X51369890Y-68757366D01*
X51338569Y-68774107D01*
X51304591Y-68784415D01*
X51263110Y-68788500D01*
X50586890Y-68788500D01*
X50545409Y-68784415D01*
X50511431Y-68774107D01*
X50480110Y-68757366D01*
X50452661Y-68734839D01*
X50430134Y-68707390D01*
X50413393Y-68676069D01*
X50403085Y-68642091D01*
X50399000Y-68600610D01*
X50399000Y-67999390D01*
X50403085Y-67957909D01*
X50413393Y-67923931D01*
X50430134Y-67892610D01*
X50452661Y-67865161D01*
X50480110Y-67842634D01*
X50511431Y-67825893D01*
X50545409Y-67815585D01*
X50586890Y-67811500D01*
X51263110Y-67811500D01*
X51304591Y-67815585D01*
X51304591Y-67815585D01*
G37*
G36*
X147126000Y-68751000D02*
G01*
X146474000Y-68751000D01*
X146474000Y-68049000D01*
X147126000Y-68049000D01*
X147126000Y-68751000D01*
X147126000Y-68751000D01*
G37*
G36*
X90601000Y-68701000D02*
G01*
X89949000Y-68701000D01*
X89949000Y-67999000D01*
X90601000Y-67999000D01*
X90601000Y-68701000D01*
X90601000Y-68701000D01*
G37*
G36*
X72479591Y-67503085D02*
G01*
X72513569Y-67513393D01*
X72544890Y-67530134D01*
X72572339Y-67552661D01*
X72594866Y-67580110D01*
X72611607Y-67611431D01*
X72621915Y-67645409D01*
X72626000Y-67686890D01*
X72626000Y-68363110D01*
X72621915Y-68404591D01*
X72611607Y-68438569D01*
X72594866Y-68469890D01*
X72572339Y-68497339D01*
X72544890Y-68519866D01*
X72513569Y-68536607D01*
X72479591Y-68546915D01*
X72438110Y-68551000D01*
X71836890Y-68551000D01*
X71795409Y-68546915D01*
X71761431Y-68536607D01*
X71730110Y-68519866D01*
X71702661Y-68497339D01*
X71680134Y-68469890D01*
X71663393Y-68438569D01*
X71653085Y-68404591D01*
X71649000Y-68363110D01*
X71649000Y-67686890D01*
X71653085Y-67645409D01*
X71663393Y-67611431D01*
X71680134Y-67580110D01*
X71702661Y-67552661D01*
X71730110Y-67530134D01*
X71761431Y-67513393D01*
X71795409Y-67503085D01*
X71836890Y-67499000D01*
X72438110Y-67499000D01*
X72479591Y-67503085D01*
X72479591Y-67503085D01*
G37*
G36*
X70904591Y-67503085D02*
G01*
X70938569Y-67513393D01*
X70969890Y-67530134D01*
X70997339Y-67552661D01*
X71019866Y-67580110D01*
X71036607Y-67611431D01*
X71046915Y-67645409D01*
X71051000Y-67686890D01*
X71051000Y-68363110D01*
X71046915Y-68404591D01*
X71036607Y-68438569D01*
X71019866Y-68469890D01*
X70997339Y-68497339D01*
X70969890Y-68519866D01*
X70938569Y-68536607D01*
X70904591Y-68546915D01*
X70863110Y-68551000D01*
X70261890Y-68551000D01*
X70220409Y-68546915D01*
X70186431Y-68536607D01*
X70155110Y-68519866D01*
X70127661Y-68497339D01*
X70105134Y-68469890D01*
X70088393Y-68438569D01*
X70078085Y-68404591D01*
X70074000Y-68363110D01*
X70074000Y-67686890D01*
X70078085Y-67645409D01*
X70088393Y-67611431D01*
X70105134Y-67580110D01*
X70127661Y-67552661D01*
X70155110Y-67530134D01*
X70186431Y-67513393D01*
X70220409Y-67503085D01*
X70261890Y-67499000D01*
X70863110Y-67499000D01*
X70904591Y-67503085D01*
X70904591Y-67503085D01*
G37*
G36*
X65551000Y-68451000D02*
G01*
X64849000Y-68451000D01*
X64849000Y-67799000D01*
X65551000Y-67799000D01*
X65551000Y-68451000D01*
X65551000Y-68451000D01*
G37*
G36*
X73826000Y-68426000D02*
G01*
X73174000Y-68426000D01*
X73174000Y-67724000D01*
X73826000Y-67724000D01*
X73826000Y-68426000D01*
X73826000Y-68426000D01*
G37*
G36*
X148976000Y-68101000D02*
G01*
X148324000Y-68101000D01*
X148324000Y-67399000D01*
X148976000Y-67399000D01*
X148976000Y-68101000D01*
X148976000Y-68101000D01*
G37*
G36*
X88751000Y-68051000D02*
G01*
X88099000Y-68051000D01*
X88099000Y-67349000D01*
X88751000Y-67349000D01*
X88751000Y-68051000D01*
X88751000Y-68051000D01*
G37*
G36*
X126751000Y-67951000D02*
G01*
X126099000Y-67951000D01*
X126099000Y-67249000D01*
X126751000Y-67249000D01*
X126751000Y-67951000D01*
X126751000Y-67951000D01*
G37*
G36*
X106854591Y-66728085D02*
G01*
X106888569Y-66738393D01*
X106919890Y-66755134D01*
X106947339Y-66777661D01*
X106969866Y-66805110D01*
X106986607Y-66836431D01*
X106996915Y-66870409D01*
X107001000Y-66911890D01*
X107001000Y-67588110D01*
X106996915Y-67629591D01*
X106986607Y-67663569D01*
X106969866Y-67694890D01*
X106947339Y-67722339D01*
X106919890Y-67744866D01*
X106888569Y-67761607D01*
X106854591Y-67771915D01*
X106813110Y-67776000D01*
X106211890Y-67776000D01*
X106170409Y-67771915D01*
X106136431Y-67761607D01*
X106105110Y-67744866D01*
X106077661Y-67722339D01*
X106055134Y-67694890D01*
X106038393Y-67663569D01*
X106028085Y-67629591D01*
X106024000Y-67588110D01*
X106024000Y-66911890D01*
X106028085Y-66870409D01*
X106038393Y-66836431D01*
X106055134Y-66805110D01*
X106077661Y-66777661D01*
X106105110Y-66755134D01*
X106136431Y-66738393D01*
X106170409Y-66728085D01*
X106211890Y-66724000D01*
X106813110Y-66724000D01*
X106854591Y-66728085D01*
X106854591Y-66728085D01*
G37*
G36*
X108429591Y-66728085D02*
G01*
X108463569Y-66738393D01*
X108494890Y-66755134D01*
X108522339Y-66777661D01*
X108544866Y-66805110D01*
X108561607Y-66836431D01*
X108571915Y-66870409D01*
X108576000Y-66911890D01*
X108576000Y-67588110D01*
X108571915Y-67629591D01*
X108561607Y-67663569D01*
X108544866Y-67694890D01*
X108522339Y-67722339D01*
X108494890Y-67744866D01*
X108463569Y-67761607D01*
X108429591Y-67771915D01*
X108388110Y-67776000D01*
X107786890Y-67776000D01*
X107745409Y-67771915D01*
X107711431Y-67761607D01*
X107680110Y-67744866D01*
X107652661Y-67722339D01*
X107630134Y-67694890D01*
X107613393Y-67663569D01*
X107603085Y-67629591D01*
X107599000Y-67588110D01*
X107599000Y-66911890D01*
X107603085Y-66870409D01*
X107613393Y-66836431D01*
X107630134Y-66805110D01*
X107652661Y-66777661D01*
X107680110Y-66755134D01*
X107711431Y-66738393D01*
X107745409Y-66728085D01*
X107786890Y-66724000D01*
X108388110Y-66724000D01*
X108429591Y-66728085D01*
X108429591Y-66728085D01*
G37*
G36*
X75676000Y-67776000D02*
G01*
X75024000Y-67776000D01*
X75024000Y-67074000D01*
X75676000Y-67074000D01*
X75676000Y-67776000D01*
X75676000Y-67776000D01*
G37*
G36*
X131929591Y-66715585D02*
G01*
X131963569Y-66725893D01*
X131994890Y-66742634D01*
X132022339Y-66765161D01*
X132044866Y-66792610D01*
X132061607Y-66823931D01*
X132071915Y-66857909D01*
X132076000Y-66899390D01*
X132076000Y-67500610D01*
X132071915Y-67542091D01*
X132061607Y-67576069D01*
X132044866Y-67607390D01*
X132022339Y-67634839D01*
X131994890Y-67657366D01*
X131963569Y-67674107D01*
X131929591Y-67684415D01*
X131888110Y-67688500D01*
X131211890Y-67688500D01*
X131170409Y-67684415D01*
X131136431Y-67674107D01*
X131105110Y-67657366D01*
X131077661Y-67634839D01*
X131055134Y-67607390D01*
X131038393Y-67576069D01*
X131028085Y-67542091D01*
X131024000Y-67500610D01*
X131024000Y-66899390D01*
X131028085Y-66857909D01*
X131038393Y-66823931D01*
X131055134Y-66792610D01*
X131077661Y-66765161D01*
X131105110Y-66742634D01*
X131136431Y-66725893D01*
X131170409Y-66715585D01*
X131211890Y-66711500D01*
X131888110Y-66711500D01*
X131929591Y-66715585D01*
X131929591Y-66715585D01*
G37*
G36*
X146331431Y-66327105D02*
G01*
X146428236Y-66367203D01*
X146449905Y-66376179D01*
X146556529Y-66447423D01*
X146647206Y-66538100D01*
X146712909Y-66636431D01*
X146718451Y-66644726D01*
X146767524Y-66763198D01*
X146792541Y-66888969D01*
X146792541Y-67017207D01*
X146770901Y-67126000D01*
X146767524Y-67142978D01*
X146718450Y-67261452D01*
X146647206Y-67368076D01*
X146556529Y-67458753D01*
X146449905Y-67529997D01*
X146449904Y-67529998D01*
X146449903Y-67529998D01*
X146331431Y-67579071D01*
X146205660Y-67604088D01*
X146077422Y-67604088D01*
X145951651Y-67579071D01*
X145833179Y-67529998D01*
X145833178Y-67529998D01*
X145833177Y-67529997D01*
X145726553Y-67458753D01*
X145635876Y-67368076D01*
X145564632Y-67261452D01*
X145515558Y-67142978D01*
X145512181Y-67126000D01*
X145490541Y-67017207D01*
X145490541Y-66888969D01*
X145515558Y-66763198D01*
X145564631Y-66644726D01*
X145570174Y-66636431D01*
X145635876Y-66538100D01*
X145726553Y-66447423D01*
X145833177Y-66376179D01*
X145854847Y-66367203D01*
X145951651Y-66327105D01*
X146077422Y-66302088D01*
X146205660Y-66302088D01*
X146331431Y-66327105D01*
X146331431Y-66327105D01*
G37*
G36*
X87331431Y-66327105D02*
G01*
X87428236Y-66367203D01*
X87449905Y-66376179D01*
X87556529Y-66447423D01*
X87647206Y-66538100D01*
X87712909Y-66636431D01*
X87718451Y-66644726D01*
X87767524Y-66763198D01*
X87792541Y-66888969D01*
X87792541Y-67017207D01*
X87770901Y-67126000D01*
X87767524Y-67142978D01*
X87718450Y-67261452D01*
X87647206Y-67368076D01*
X87556529Y-67458753D01*
X87449905Y-67529997D01*
X87449904Y-67529998D01*
X87449903Y-67529998D01*
X87331431Y-67579071D01*
X87205660Y-67604088D01*
X87077422Y-67604088D01*
X86951651Y-67579071D01*
X86833179Y-67529998D01*
X86833178Y-67529998D01*
X86833177Y-67529997D01*
X86726553Y-67458753D01*
X86635876Y-67368076D01*
X86564632Y-67261452D01*
X86515558Y-67142978D01*
X86512181Y-67126000D01*
X86490541Y-67017207D01*
X86490541Y-66888969D01*
X86515558Y-66763198D01*
X86564631Y-66644726D01*
X86570174Y-66636431D01*
X86635876Y-66538100D01*
X86726553Y-66447423D01*
X86833177Y-66376179D01*
X86854847Y-66367203D01*
X86951651Y-66327105D01*
X87077422Y-66302088D01*
X87205660Y-66302088D01*
X87331431Y-66327105D01*
X87331431Y-66327105D01*
G37*
G36*
X64331431Y-66327105D02*
G01*
X64428236Y-66367203D01*
X64449905Y-66376179D01*
X64556529Y-66447423D01*
X64647206Y-66538100D01*
X64712909Y-66636431D01*
X64718451Y-66644726D01*
X64767524Y-66763198D01*
X64792541Y-66888969D01*
X64792541Y-67017207D01*
X64770901Y-67126000D01*
X64767524Y-67142978D01*
X64718450Y-67261452D01*
X64647206Y-67368076D01*
X64556529Y-67458753D01*
X64449905Y-67529997D01*
X64449904Y-67529998D01*
X64449903Y-67529998D01*
X64331431Y-67579071D01*
X64205660Y-67604088D01*
X64077422Y-67604088D01*
X63951651Y-67579071D01*
X63833179Y-67529998D01*
X63833178Y-67529998D01*
X63833177Y-67529997D01*
X63726553Y-67458753D01*
X63635876Y-67368076D01*
X63564632Y-67261452D01*
X63515558Y-67142978D01*
X63512181Y-67126000D01*
X63490541Y-67017207D01*
X63490541Y-66888969D01*
X63515558Y-66763198D01*
X63564631Y-66644726D01*
X63570174Y-66636431D01*
X63635876Y-66538100D01*
X63726553Y-66447423D01*
X63833177Y-66376179D01*
X63854847Y-66367203D01*
X63951651Y-66327105D01*
X64077422Y-66302088D01*
X64205660Y-66302088D01*
X64331431Y-66327105D01*
X64331431Y-66327105D01*
G37*
G36*
X123331431Y-66327105D02*
G01*
X123428236Y-66367203D01*
X123449905Y-66376179D01*
X123556529Y-66447423D01*
X123647206Y-66538100D01*
X123712909Y-66636431D01*
X123718451Y-66644726D01*
X123767524Y-66763198D01*
X123792541Y-66888969D01*
X123792541Y-67017207D01*
X123770901Y-67126000D01*
X123767524Y-67142978D01*
X123718450Y-67261452D01*
X123647206Y-67368076D01*
X123556529Y-67458753D01*
X123449905Y-67529997D01*
X123449904Y-67529998D01*
X123449903Y-67529998D01*
X123331431Y-67579071D01*
X123205660Y-67604088D01*
X123077422Y-67604088D01*
X122951651Y-67579071D01*
X122833179Y-67529998D01*
X122833178Y-67529998D01*
X122833177Y-67529997D01*
X122726553Y-67458753D01*
X122635876Y-67368076D01*
X122564632Y-67261452D01*
X122515558Y-67142978D01*
X122512181Y-67126000D01*
X122490541Y-67017207D01*
X122490541Y-66888969D01*
X122515558Y-66763198D01*
X122564631Y-66644726D01*
X122570174Y-66636431D01*
X122635876Y-66538100D01*
X122726553Y-66447423D01*
X122833177Y-66376179D01*
X122854847Y-66367203D01*
X122951651Y-66327105D01*
X123077422Y-66302088D01*
X123205660Y-66302088D01*
X123331431Y-66327105D01*
X123331431Y-66327105D01*
G37*
G36*
X133126000Y-67601000D02*
G01*
X132474000Y-67601000D01*
X132474000Y-66899000D01*
X133126000Y-66899000D01*
X133126000Y-67601000D01*
X133126000Y-67601000D01*
G37*
G36*
X109801000Y-67601000D02*
G01*
X109149000Y-67601000D01*
X109149000Y-66899000D01*
X109801000Y-66899000D01*
X109801000Y-67601000D01*
X109801000Y-67601000D01*
G37*
G36*
X113044948Y-66318129D02*
G01*
X113134706Y-66355308D01*
X113163422Y-66367203D01*
X113264670Y-66434855D01*
X113270046Y-66438447D01*
X113360723Y-66529124D01*
X113431968Y-66635750D01*
X113481041Y-66754222D01*
X113506058Y-66879993D01*
X113506058Y-67008231D01*
X113503252Y-67022339D01*
X113481041Y-67134002D01*
X113431967Y-67252476D01*
X113360723Y-67359100D01*
X113270046Y-67449777D01*
X113163422Y-67521021D01*
X113163421Y-67521022D01*
X113163420Y-67521022D01*
X113044948Y-67570095D01*
X112919177Y-67595112D01*
X112790939Y-67595112D01*
X112665168Y-67570095D01*
X112546696Y-67521022D01*
X112546695Y-67521022D01*
X112546694Y-67521021D01*
X112440070Y-67449777D01*
X112349393Y-67359100D01*
X112278149Y-67252476D01*
X112229075Y-67134002D01*
X112206864Y-67022339D01*
X112204058Y-67008231D01*
X112204058Y-66879993D01*
X112229075Y-66754222D01*
X112278148Y-66635750D01*
X112349393Y-66529124D01*
X112440070Y-66438447D01*
X112445446Y-66434855D01*
X112546694Y-66367203D01*
X112575411Y-66355308D01*
X112665168Y-66318129D01*
X112790939Y-66293112D01*
X112919177Y-66293112D01*
X113044948Y-66318129D01*
X113044948Y-66318129D01*
G37*
G36*
X53251000Y-66330922D02*
G01*
X53253402Y-66355308D01*
X53260515Y-66378757D01*
X53272066Y-66400368D01*
X53287611Y-66419310D01*
X53306553Y-66434855D01*
X53328164Y-66446406D01*
X53351613Y-66453519D01*
X53375999Y-66455921D01*
X53400385Y-66453519D01*
X53423834Y-66446406D01*
X53445444Y-66434855D01*
X53546693Y-66367203D01*
X53665168Y-66318129D01*
X53790939Y-66293112D01*
X53919177Y-66293112D01*
X54044948Y-66318129D01*
X54134706Y-66355308D01*
X54163422Y-66367203D01*
X54264670Y-66434855D01*
X54270046Y-66438447D01*
X54360723Y-66529124D01*
X54431968Y-66635750D01*
X54481041Y-66754222D01*
X54506058Y-66879993D01*
X54506058Y-67008231D01*
X54503252Y-67022339D01*
X54481041Y-67134002D01*
X54431967Y-67252476D01*
X54360723Y-67359100D01*
X54270046Y-67449777D01*
X54163422Y-67521021D01*
X54163421Y-67521022D01*
X54163420Y-67521022D01*
X54044948Y-67570095D01*
X53919177Y-67595112D01*
X53790939Y-67595112D01*
X53665168Y-67570095D01*
X53546696Y-67521022D01*
X53546695Y-67521022D01*
X53546694Y-67521021D01*
X53440070Y-67449777D01*
X53349393Y-67359100D01*
X53278149Y-67252476D01*
X53229075Y-67134002D01*
X53206864Y-67022339D01*
X53204058Y-67008231D01*
X53204058Y-66875999D01*
X53201656Y-66851613D01*
X53194543Y-66828164D01*
X53182992Y-66806553D01*
X53167447Y-66787611D01*
X53148505Y-66772066D01*
X53126894Y-66760515D01*
X53103445Y-66753402D01*
X53079059Y-66751000D01*
X52599000Y-66751000D01*
X52599000Y-66049000D01*
X53251000Y-66049000D01*
X53251000Y-66330922D01*
X53251000Y-66330922D01*
G37*
G36*
X134976000Y-66757382D02*
G01*
X134978402Y-66781768D01*
X134985515Y-66805217D01*
X134997066Y-66826828D01*
X135012611Y-66845770D01*
X135031553Y-66861315D01*
X135053164Y-66872866D01*
X135076613Y-66879979D01*
X135100999Y-66882381D01*
X135125385Y-66879979D01*
X135148834Y-66872866D01*
X135170445Y-66861315D01*
X135189387Y-66845770D01*
X135204932Y-66826828D01*
X135216483Y-66805217D01*
X135223596Y-66781768D01*
X135229075Y-66754222D01*
X135278148Y-66635750D01*
X135349393Y-66529124D01*
X135440070Y-66438447D01*
X135445446Y-66434855D01*
X135546694Y-66367203D01*
X135575411Y-66355308D01*
X135665168Y-66318129D01*
X135790939Y-66293112D01*
X135919177Y-66293112D01*
X136044948Y-66318129D01*
X136134706Y-66355308D01*
X136163422Y-66367203D01*
X136264670Y-66434855D01*
X136270046Y-66438447D01*
X136360723Y-66529124D01*
X136431968Y-66635750D01*
X136481041Y-66754222D01*
X136506058Y-66879993D01*
X136506058Y-67008231D01*
X136503252Y-67022339D01*
X136481041Y-67134002D01*
X136431967Y-67252476D01*
X136360723Y-67359100D01*
X136270046Y-67449777D01*
X136163422Y-67521021D01*
X136163421Y-67521022D01*
X136163420Y-67521022D01*
X136044948Y-67570095D01*
X135919177Y-67595112D01*
X135790939Y-67595112D01*
X135665168Y-67570095D01*
X135546696Y-67521022D01*
X135546695Y-67521022D01*
X135546694Y-67521021D01*
X135440070Y-67449777D01*
X135349393Y-67359100D01*
X135278149Y-67252476D01*
X135229075Y-67134002D01*
X135212687Y-67051613D01*
X135205574Y-67028164D01*
X135194023Y-67006553D01*
X135178478Y-66987611D01*
X135159536Y-66972066D01*
X135137925Y-66960515D01*
X135114476Y-66953402D01*
X135090090Y-66951000D01*
X134324000Y-66951000D01*
X134324000Y-66249000D01*
X134976000Y-66249000D01*
X134976000Y-66757382D01*
X134976000Y-66757382D01*
G37*
G36*
X77044948Y-66318129D02*
G01*
X77134706Y-66355308D01*
X77163422Y-66367203D01*
X77264670Y-66434855D01*
X77270046Y-66438447D01*
X77360723Y-66529124D01*
X77431968Y-66635750D01*
X77481041Y-66754222D01*
X77506058Y-66879993D01*
X77506058Y-67008231D01*
X77503252Y-67022339D01*
X77481041Y-67134002D01*
X77431967Y-67252476D01*
X77360723Y-67359100D01*
X77270046Y-67449777D01*
X77163422Y-67521021D01*
X77163421Y-67521022D01*
X77163420Y-67521022D01*
X77044948Y-67570095D01*
X76919177Y-67595112D01*
X76790939Y-67595112D01*
X76665168Y-67570095D01*
X76546696Y-67521022D01*
X76546695Y-67521022D01*
X76546694Y-67521021D01*
X76440070Y-67449777D01*
X76349393Y-67359100D01*
X76278149Y-67252476D01*
X76229075Y-67134002D01*
X76206864Y-67022339D01*
X76204058Y-67008231D01*
X76204058Y-66879993D01*
X76229075Y-66754222D01*
X76278148Y-66635750D01*
X76349393Y-66529124D01*
X76440070Y-66438447D01*
X76445446Y-66434855D01*
X76546694Y-66367203D01*
X76575411Y-66355308D01*
X76665168Y-66318129D01*
X76790939Y-66293112D01*
X76919177Y-66293112D01*
X77044948Y-66318129D01*
X77044948Y-66318129D01*
G37*
G36*
X93379591Y-66528085D02*
G01*
X93413569Y-66538393D01*
X93444890Y-66555134D01*
X93472339Y-66577661D01*
X93494866Y-66605110D01*
X93511607Y-66636431D01*
X93521915Y-66670409D01*
X93526000Y-66711890D01*
X93526000Y-67388110D01*
X93521915Y-67429591D01*
X93511607Y-67463569D01*
X93494866Y-67494890D01*
X93472339Y-67522339D01*
X93444890Y-67544866D01*
X93413569Y-67561607D01*
X93379591Y-67571915D01*
X93338110Y-67576000D01*
X92736890Y-67576000D01*
X92695409Y-67571915D01*
X92661431Y-67561607D01*
X92630110Y-67544866D01*
X92602661Y-67522339D01*
X92580134Y-67494890D01*
X92563393Y-67463569D01*
X92553085Y-67429591D01*
X92549000Y-67388110D01*
X92549000Y-66711890D01*
X92553085Y-66670409D01*
X92563393Y-66636431D01*
X92580134Y-66605110D01*
X92602661Y-66577661D01*
X92630110Y-66555134D01*
X92661431Y-66538393D01*
X92695409Y-66528085D01*
X92736890Y-66524000D01*
X93338110Y-66524000D01*
X93379591Y-66528085D01*
X93379591Y-66528085D01*
G37*
G36*
X91804591Y-66528085D02*
G01*
X91838569Y-66538393D01*
X91869890Y-66555134D01*
X91897339Y-66577661D01*
X91919866Y-66605110D01*
X91936607Y-66636431D01*
X91946915Y-66670409D01*
X91951000Y-66711890D01*
X91951000Y-67388110D01*
X91946915Y-67429591D01*
X91936607Y-67463569D01*
X91919866Y-67494890D01*
X91897339Y-67522339D01*
X91869890Y-67544866D01*
X91838569Y-67561607D01*
X91804591Y-67571915D01*
X91763110Y-67576000D01*
X91161890Y-67576000D01*
X91120409Y-67571915D01*
X91086431Y-67561607D01*
X91055110Y-67544866D01*
X91027661Y-67522339D01*
X91005134Y-67494890D01*
X90988393Y-67463569D01*
X90978085Y-67429591D01*
X90974000Y-67388110D01*
X90974000Y-66711890D01*
X90978085Y-66670409D01*
X90988393Y-66636431D01*
X91005134Y-66605110D01*
X91027661Y-66577661D01*
X91055110Y-66555134D01*
X91086431Y-66538393D01*
X91120409Y-66528085D01*
X91161890Y-66524000D01*
X91763110Y-66524000D01*
X91804591Y-66528085D01*
X91804591Y-66528085D01*
G37*
G36*
X90601000Y-67401000D02*
G01*
X89949000Y-67401000D01*
X89949000Y-66699000D01*
X90601000Y-66699000D01*
X90601000Y-67401000D01*
X90601000Y-67401000D01*
G37*
G36*
X51401000Y-67401000D02*
G01*
X50749000Y-67401000D01*
X50749000Y-66699000D01*
X51401000Y-66699000D01*
X51401000Y-67401000D01*
X51401000Y-67401000D01*
G37*
G36*
X124901000Y-67301000D02*
G01*
X124249000Y-67301000D01*
X124249000Y-66599000D01*
X124901000Y-66599000D01*
X124901000Y-67301000D01*
X124901000Y-67301000D01*
G37*
G36*
X57351000Y-67151000D02*
G01*
X55749000Y-67151000D01*
X55749000Y-66049000D01*
X57351000Y-66049000D01*
X57351000Y-67151000D01*
X57351000Y-67151000D01*
G37*
G36*
X62251000Y-67151000D02*
G01*
X60649000Y-67151000D01*
X60649000Y-66049000D01*
X62251000Y-66049000D01*
X62251000Y-67151000D01*
X62251000Y-67151000D01*
G37*
G36*
X80351000Y-67151000D02*
G01*
X78749000Y-67151000D01*
X78749000Y-66049000D01*
X80351000Y-66049000D01*
X80351000Y-67151000D01*
X80351000Y-67151000D01*
G37*
G36*
X139351000Y-67151000D02*
G01*
X137749000Y-67151000D01*
X137749000Y-66049000D01*
X139351000Y-66049000D01*
X139351000Y-67151000D01*
X139351000Y-67151000D01*
G37*
G36*
X121251000Y-67151000D02*
G01*
X119649000Y-67151000D01*
X119649000Y-66049000D01*
X121251000Y-66049000D01*
X121251000Y-67151000D01*
X121251000Y-67151000D01*
G37*
G36*
X116351000Y-67151000D02*
G01*
X114749000Y-67151000D01*
X114749000Y-66049000D01*
X116351000Y-66049000D01*
X116351000Y-67151000D01*
X116351000Y-67151000D01*
G37*
G36*
X85251000Y-67151000D02*
G01*
X83649000Y-67151000D01*
X83649000Y-66049000D01*
X85251000Y-66049000D01*
X85251000Y-67151000D01*
X85251000Y-67151000D01*
G37*
G36*
X144251000Y-67151000D02*
G01*
X142649000Y-67151000D01*
X142649000Y-66049000D01*
X144251000Y-66049000D01*
X144251000Y-67151000D01*
X144251000Y-67151000D01*
G37*
G36*
X73826000Y-67126000D02*
G01*
X73174000Y-67126000D01*
X73174000Y-66424000D01*
X73826000Y-66424000D01*
X73826000Y-67126000D01*
X73826000Y-67126000D01*
G37*
G36*
X149029591Y-66103085D02*
G01*
X149063569Y-66113393D01*
X149094890Y-66130134D01*
X149122339Y-66152661D01*
X149144866Y-66180110D01*
X149161607Y-66211431D01*
X149171915Y-66245409D01*
X149176000Y-66286890D01*
X149176000Y-66888110D01*
X149171915Y-66929591D01*
X149161607Y-66963569D01*
X149144866Y-66994890D01*
X149122339Y-67022339D01*
X149094890Y-67044866D01*
X149063569Y-67061607D01*
X149029591Y-67071915D01*
X148988110Y-67076000D01*
X148311890Y-67076000D01*
X148270409Y-67071915D01*
X148236431Y-67061607D01*
X148205110Y-67044866D01*
X148177661Y-67022339D01*
X148155134Y-66994890D01*
X148138393Y-66963569D01*
X148128085Y-66929591D01*
X148124000Y-66888110D01*
X148124000Y-66286890D01*
X148128085Y-66245409D01*
X148138393Y-66211431D01*
X148155134Y-66180110D01*
X148177661Y-66152661D01*
X148205110Y-66130134D01*
X148236431Y-66113393D01*
X148270409Y-66103085D01*
X148311890Y-66099000D01*
X148988110Y-66099000D01*
X149029591Y-66103085D01*
X149029591Y-66103085D01*
G37*
G36*
X111651000Y-66951000D02*
G01*
X110999000Y-66951000D01*
X110999000Y-66249000D01*
X111651000Y-66249000D01*
X111651000Y-66951000D01*
X111651000Y-66951000D01*
G37*
G36*
X126751000Y-66651000D02*
G01*
X126099000Y-66651000D01*
X126099000Y-65949000D01*
X126751000Y-65949000D01*
X126751000Y-66651000D01*
X126751000Y-66651000D01*
G37*
G36*
X109801000Y-66301000D02*
G01*
X109149000Y-66301000D01*
X109149000Y-65599000D01*
X109801000Y-65599000D01*
X109801000Y-66301000D01*
X109801000Y-66301000D01*
G37*
G36*
X133126000Y-66301000D02*
G01*
X132474000Y-66301000D01*
X132474000Y-65599000D01*
X133126000Y-65599000D01*
X133126000Y-66301000D01*
X133126000Y-66301000D01*
G37*
G36*
X51401000Y-66101000D02*
G01*
X50749000Y-66101000D01*
X50749000Y-65399000D01*
X51401000Y-65399000D01*
X51401000Y-66101000D01*
X51401000Y-66101000D01*
G37*
G36*
X70692091Y-64728085D02*
G01*
X70726069Y-64738393D01*
X70757390Y-64755134D01*
X70784839Y-64777661D01*
X70807366Y-64805110D01*
X70824107Y-64836431D01*
X70834415Y-64870409D01*
X70838500Y-64911890D01*
X70838500Y-65588110D01*
X70834415Y-65629591D01*
X70824107Y-65663569D01*
X70807366Y-65694890D01*
X70784839Y-65722339D01*
X70757390Y-65744866D01*
X70726069Y-65761607D01*
X70692091Y-65771915D01*
X70650610Y-65776000D01*
X70049390Y-65776000D01*
X70007909Y-65771915D01*
X69973931Y-65761607D01*
X69942610Y-65744866D01*
X69915161Y-65722339D01*
X69892634Y-65694890D01*
X69875893Y-65663569D01*
X69865585Y-65629591D01*
X69861500Y-65588110D01*
X69861500Y-64911890D01*
X69865585Y-64870409D01*
X69875893Y-64836431D01*
X69892634Y-64805110D01*
X69915161Y-64777661D01*
X69942610Y-64755134D01*
X69973931Y-64738393D01*
X70007909Y-64728085D01*
X70049390Y-64724000D01*
X70650610Y-64724000D01*
X70692091Y-64728085D01*
X70692091Y-64728085D01*
G37*
G36*
X72267091Y-64728085D02*
G01*
X72301069Y-64738393D01*
X72332390Y-64755134D01*
X72359839Y-64777661D01*
X72382366Y-64805110D01*
X72399107Y-64836431D01*
X72409415Y-64870409D01*
X72413500Y-64911890D01*
X72413500Y-65588110D01*
X72409415Y-65629591D01*
X72399107Y-65663569D01*
X72382366Y-65694890D01*
X72359839Y-65722339D01*
X72332390Y-65744866D01*
X72301069Y-65761607D01*
X72267091Y-65771915D01*
X72225610Y-65776000D01*
X71624390Y-65776000D01*
X71582909Y-65771915D01*
X71548931Y-65761607D01*
X71517610Y-65744866D01*
X71490161Y-65722339D01*
X71467634Y-65694890D01*
X71450893Y-65663569D01*
X71440585Y-65629591D01*
X71436500Y-65588110D01*
X71436500Y-64911890D01*
X71440585Y-64870409D01*
X71450893Y-64836431D01*
X71467634Y-64805110D01*
X71490161Y-64777661D01*
X71517610Y-64755134D01*
X71548931Y-64738393D01*
X71582909Y-64728085D01*
X71624390Y-64724000D01*
X72225610Y-64724000D01*
X72267091Y-64728085D01*
X72267091Y-64728085D01*
G37*
G36*
X91351000Y-65601000D02*
G01*
X90699000Y-65601000D01*
X90699000Y-64899000D01*
X91351000Y-64899000D01*
X91351000Y-65601000D01*
X91351000Y-65601000D01*
G37*
G36*
X73601000Y-65576000D02*
G01*
X72949000Y-65576000D01*
X72949000Y-64874000D01*
X73601000Y-64874000D01*
X73601000Y-65576000D01*
X73601000Y-65576000D01*
G37*
G36*
X149029591Y-64528085D02*
G01*
X149063569Y-64538393D01*
X149094890Y-64555134D01*
X149122339Y-64577661D01*
X149144866Y-64605110D01*
X149161607Y-64636431D01*
X149171915Y-64670409D01*
X149176000Y-64711890D01*
X149176000Y-65313110D01*
X149171915Y-65354591D01*
X149161607Y-65388569D01*
X149144866Y-65419890D01*
X149122339Y-65447339D01*
X149094890Y-65469866D01*
X149063569Y-65486607D01*
X149029591Y-65496915D01*
X148988110Y-65501000D01*
X148311890Y-65501000D01*
X148270409Y-65496915D01*
X148236431Y-65486607D01*
X148205110Y-65469866D01*
X148177661Y-65447339D01*
X148155134Y-65419890D01*
X148138393Y-65388569D01*
X148128085Y-65354591D01*
X148124000Y-65313110D01*
X148124000Y-64711890D01*
X148128085Y-64670409D01*
X148138393Y-64636431D01*
X148155134Y-64605110D01*
X148177661Y-64577661D01*
X148205110Y-64555134D01*
X148236431Y-64538393D01*
X148270409Y-64528085D01*
X148311890Y-64524000D01*
X148988110Y-64524000D01*
X149029591Y-64528085D01*
X149029591Y-64528085D01*
G37*
G36*
X125779591Y-64515585D02*
G01*
X125813569Y-64525893D01*
X125844890Y-64542634D01*
X125872339Y-64565161D01*
X125894866Y-64592610D01*
X125911607Y-64623931D01*
X125921915Y-64657909D01*
X125926000Y-64699390D01*
X125926000Y-65300610D01*
X125921915Y-65342091D01*
X125911607Y-65376069D01*
X125894866Y-65407390D01*
X125872339Y-65434839D01*
X125844890Y-65457366D01*
X125813569Y-65474107D01*
X125779591Y-65484415D01*
X125738110Y-65488500D01*
X125061890Y-65488500D01*
X125020409Y-65484415D01*
X124986431Y-65474107D01*
X124955110Y-65457366D01*
X124927661Y-65434839D01*
X124905134Y-65407390D01*
X124888393Y-65376069D01*
X124878085Y-65342091D01*
X124874000Y-65300610D01*
X124874000Y-64699390D01*
X124878085Y-64657909D01*
X124888393Y-64623931D01*
X124905134Y-64592610D01*
X124927661Y-64565161D01*
X124955110Y-64542634D01*
X124986431Y-64525893D01*
X125020409Y-64515585D01*
X125061890Y-64511500D01*
X125738110Y-64511500D01*
X125779591Y-64515585D01*
X125779591Y-64515585D01*
G37*
G36*
X68051000Y-65351000D02*
G01*
X67399000Y-65351000D01*
X67399000Y-64649000D01*
X68051000Y-64649000D01*
X68051000Y-65351000D01*
X68051000Y-65351000D01*
G37*
G36*
X123650055Y-63713264D02*
G01*
X123745525Y-63752809D01*
X123768529Y-63762338D01*
X123875153Y-63833582D01*
X123965830Y-63924259D01*
X124036211Y-64029591D01*
X124037075Y-64030885D01*
X124086148Y-64149357D01*
X124111165Y-64275128D01*
X124111165Y-64403366D01*
X124086148Y-64529137D01*
X124041022Y-64638081D01*
X124037074Y-64647611D01*
X123965830Y-64754235D01*
X123875153Y-64844912D01*
X123768529Y-64916156D01*
X123768528Y-64916157D01*
X123768527Y-64916157D01*
X123650055Y-64965230D01*
X123524284Y-64990247D01*
X123396046Y-64990247D01*
X123270275Y-64965230D01*
X123151803Y-64916157D01*
X123151802Y-64916157D01*
X123151801Y-64916156D01*
X123045177Y-64844912D01*
X122954500Y-64754235D01*
X122883256Y-64647611D01*
X122879309Y-64638081D01*
X122834182Y-64529137D01*
X122809165Y-64403366D01*
X122809165Y-64275128D01*
X122834182Y-64149357D01*
X122883255Y-64030885D01*
X122884120Y-64029591D01*
X122954500Y-63924259D01*
X123045177Y-63833582D01*
X123151801Y-63762338D01*
X123174806Y-63752809D01*
X123270275Y-63713264D01*
X123396046Y-63688247D01*
X123524284Y-63688247D01*
X123650055Y-63713264D01*
X123650055Y-63713264D01*
G37*
G36*
X87650055Y-63713264D02*
G01*
X87745525Y-63752809D01*
X87768529Y-63762338D01*
X87875153Y-63833582D01*
X87965830Y-63924259D01*
X88036211Y-64029591D01*
X88037075Y-64030885D01*
X88086148Y-64149357D01*
X88111165Y-64275128D01*
X88111165Y-64403366D01*
X88086148Y-64529137D01*
X88041022Y-64638081D01*
X88037074Y-64647611D01*
X87965830Y-64754235D01*
X87875153Y-64844912D01*
X87768529Y-64916156D01*
X87768528Y-64916157D01*
X87768527Y-64916157D01*
X87650055Y-64965230D01*
X87524284Y-64990247D01*
X87396046Y-64990247D01*
X87270275Y-64965230D01*
X87151803Y-64916157D01*
X87151802Y-64916157D01*
X87151801Y-64916156D01*
X87045177Y-64844912D01*
X86954500Y-64754235D01*
X86883256Y-64647611D01*
X86879309Y-64638081D01*
X86834182Y-64529137D01*
X86809165Y-64403366D01*
X86809165Y-64275128D01*
X86834182Y-64149357D01*
X86883255Y-64030885D01*
X86884120Y-64029591D01*
X86954500Y-63924259D01*
X87045177Y-63833582D01*
X87151801Y-63762338D01*
X87174806Y-63752809D01*
X87270275Y-63713264D01*
X87396046Y-63688247D01*
X87524284Y-63688247D01*
X87650055Y-63713264D01*
X87650055Y-63713264D01*
G37*
G36*
X64650055Y-63713264D02*
G01*
X64745525Y-63752809D01*
X64768529Y-63762338D01*
X64875153Y-63833582D01*
X64965830Y-63924259D01*
X65036211Y-64029591D01*
X65037075Y-64030885D01*
X65086148Y-64149357D01*
X65111165Y-64275128D01*
X65111165Y-64403366D01*
X65086148Y-64529137D01*
X65041022Y-64638081D01*
X65037074Y-64647611D01*
X64965830Y-64754235D01*
X64875153Y-64844912D01*
X64768529Y-64916156D01*
X64768528Y-64916157D01*
X64768527Y-64916157D01*
X64650055Y-64965230D01*
X64524284Y-64990247D01*
X64396046Y-64990247D01*
X64270275Y-64965230D01*
X64151803Y-64916157D01*
X64151802Y-64916157D01*
X64151801Y-64916156D01*
X64045177Y-64844912D01*
X63954500Y-64754235D01*
X63883256Y-64647611D01*
X63879309Y-64638081D01*
X63834182Y-64529137D01*
X63809165Y-64403366D01*
X63809165Y-64275128D01*
X63834182Y-64149357D01*
X63883255Y-64030885D01*
X63884120Y-64029591D01*
X63954500Y-63924259D01*
X64045177Y-63833582D01*
X64151801Y-63762338D01*
X64174806Y-63752809D01*
X64270275Y-63713264D01*
X64396046Y-63688247D01*
X64524284Y-63688247D01*
X64650055Y-63713264D01*
X64650055Y-63713264D01*
G37*
G36*
X146650055Y-63713264D02*
G01*
X146745525Y-63752809D01*
X146768529Y-63762338D01*
X146875153Y-63833582D01*
X146965830Y-63924259D01*
X147036211Y-64029591D01*
X147037075Y-64030885D01*
X147086148Y-64149357D01*
X147111165Y-64275128D01*
X147111165Y-64403366D01*
X147086148Y-64529137D01*
X147041022Y-64638081D01*
X147037074Y-64647611D01*
X146965830Y-64754235D01*
X146875153Y-64844912D01*
X146768529Y-64916156D01*
X146768528Y-64916157D01*
X146768527Y-64916157D01*
X146650055Y-64965230D01*
X146524284Y-64990247D01*
X146396046Y-64990247D01*
X146270275Y-64965230D01*
X146151803Y-64916157D01*
X146151802Y-64916157D01*
X146151801Y-64916156D01*
X146045177Y-64844912D01*
X145954500Y-64754235D01*
X145883256Y-64647611D01*
X145879309Y-64638081D01*
X145834182Y-64529137D01*
X145809165Y-64403366D01*
X145809165Y-64275128D01*
X145834182Y-64149357D01*
X145883255Y-64030885D01*
X145884120Y-64029591D01*
X145954500Y-63924259D01*
X146045177Y-63833582D01*
X146151801Y-63762338D01*
X146174806Y-63752809D01*
X146270275Y-63713264D01*
X146396046Y-63688247D01*
X146524284Y-63688247D01*
X146650055Y-63713264D01*
X146650055Y-63713264D01*
G37*
G36*
X53653016Y-63688247D02*
G01*
X53730886Y-63703736D01*
X53849360Y-63752810D01*
X53955984Y-63824054D01*
X54046661Y-63914731D01*
X54077983Y-63961607D01*
X54117906Y-64021357D01*
X54166979Y-64139829D01*
X54191996Y-64265600D01*
X54191996Y-64393838D01*
X54166979Y-64519609D01*
X54135528Y-64595539D01*
X54117905Y-64638083D01*
X54046661Y-64744707D01*
X53955984Y-64835384D01*
X53849360Y-64906628D01*
X53849359Y-64906629D01*
X53849358Y-64906629D01*
X53730886Y-64955702D01*
X53605115Y-64980719D01*
X53476877Y-64980719D01*
X53351106Y-64955702D01*
X53232634Y-64906629D01*
X53232633Y-64906629D01*
X53232632Y-64906628D01*
X53126008Y-64835384D01*
X53035331Y-64744707D01*
X52964087Y-64638083D01*
X52946465Y-64595539D01*
X52915013Y-64519609D01*
X52889996Y-64393838D01*
X52889996Y-64265600D01*
X52915013Y-64139829D01*
X52964086Y-64021357D01*
X53004010Y-63961607D01*
X53035331Y-63914731D01*
X53126008Y-63824054D01*
X53232632Y-63752810D01*
X53351106Y-63703736D01*
X53428976Y-63688247D01*
X53476877Y-63678719D01*
X53605115Y-63678719D01*
X53653016Y-63688247D01*
X53653016Y-63688247D01*
G37*
G36*
X112653016Y-63688247D02*
G01*
X112730886Y-63703736D01*
X112849360Y-63752810D01*
X112955984Y-63824054D01*
X113046661Y-63914731D01*
X113077983Y-63961607D01*
X113117906Y-64021357D01*
X113166979Y-64139829D01*
X113191996Y-64265600D01*
X113191996Y-64393838D01*
X113166979Y-64519609D01*
X113135528Y-64595539D01*
X113117905Y-64638083D01*
X113046661Y-64744707D01*
X112955984Y-64835384D01*
X112849360Y-64906628D01*
X112849359Y-64906629D01*
X112849358Y-64906629D01*
X112730886Y-64955702D01*
X112605115Y-64980719D01*
X112476877Y-64980719D01*
X112351106Y-64955702D01*
X112232634Y-64906629D01*
X112232633Y-64906629D01*
X112232632Y-64906628D01*
X112126008Y-64835384D01*
X112035331Y-64744707D01*
X111964087Y-64638083D01*
X111946465Y-64595539D01*
X111915013Y-64519609D01*
X111889996Y-64393838D01*
X111889996Y-64265600D01*
X111915013Y-64139829D01*
X111964086Y-64021357D01*
X112004010Y-63961607D01*
X112035331Y-63914731D01*
X112126008Y-63824054D01*
X112232632Y-63752810D01*
X112351106Y-63703736D01*
X112428976Y-63688247D01*
X112476877Y-63678719D01*
X112605115Y-63678719D01*
X112653016Y-63688247D01*
X112653016Y-63688247D01*
G37*
G36*
X76653016Y-63688247D02*
G01*
X76730886Y-63703736D01*
X76849360Y-63752810D01*
X76955984Y-63824054D01*
X77046661Y-63914731D01*
X77077983Y-63961607D01*
X77117906Y-64021357D01*
X77166979Y-64139829D01*
X77191996Y-64265600D01*
X77191996Y-64393838D01*
X77166979Y-64519609D01*
X77135528Y-64595539D01*
X77117905Y-64638083D01*
X77046661Y-64744707D01*
X76955984Y-64835384D01*
X76849360Y-64906628D01*
X76849359Y-64906629D01*
X76849358Y-64906629D01*
X76730886Y-64955702D01*
X76605115Y-64980719D01*
X76476877Y-64980719D01*
X76351106Y-64955702D01*
X76232634Y-64906629D01*
X76232633Y-64906629D01*
X76232632Y-64906628D01*
X76126008Y-64835384D01*
X76035331Y-64744707D01*
X75964087Y-64638083D01*
X75946465Y-64595539D01*
X75915013Y-64519609D01*
X75889996Y-64393838D01*
X75889996Y-64265600D01*
X75915013Y-64139829D01*
X75964086Y-64021357D01*
X76004010Y-63961607D01*
X76035331Y-63914731D01*
X76126008Y-63824054D01*
X76232632Y-63752810D01*
X76351106Y-63703736D01*
X76428976Y-63688247D01*
X76476877Y-63678719D01*
X76605115Y-63678719D01*
X76653016Y-63688247D01*
X76653016Y-63688247D01*
G37*
G36*
X135653016Y-63688247D02*
G01*
X135730886Y-63703736D01*
X135849360Y-63752810D01*
X135955984Y-63824054D01*
X136046661Y-63914731D01*
X136077983Y-63961607D01*
X136117906Y-64021357D01*
X136166979Y-64139829D01*
X136191996Y-64265600D01*
X136191996Y-64393838D01*
X136166979Y-64519609D01*
X136135528Y-64595539D01*
X136117905Y-64638083D01*
X136046661Y-64744707D01*
X135955984Y-64835384D01*
X135849360Y-64906628D01*
X135849359Y-64906629D01*
X135849358Y-64906629D01*
X135730886Y-64955702D01*
X135605115Y-64980719D01*
X135476877Y-64980719D01*
X135351106Y-64955702D01*
X135232634Y-64906629D01*
X135232633Y-64906629D01*
X135232632Y-64906628D01*
X135126008Y-64835384D01*
X135035331Y-64744707D01*
X134964087Y-64638083D01*
X134946465Y-64595539D01*
X134915013Y-64519609D01*
X134889996Y-64393838D01*
X134889996Y-64265600D01*
X134915013Y-64139829D01*
X134964086Y-64021357D01*
X135004010Y-63961607D01*
X135035331Y-63914731D01*
X135126008Y-63824054D01*
X135232632Y-63752810D01*
X135351106Y-63703736D01*
X135428976Y-63688247D01*
X135476877Y-63678719D01*
X135605115Y-63678719D01*
X135653016Y-63688247D01*
X135653016Y-63688247D01*
G37*
G36*
X89501000Y-64951000D02*
G01*
X88849000Y-64951000D01*
X88849000Y-64249000D01*
X89501000Y-64249000D01*
X89501000Y-64951000D01*
X89501000Y-64951000D01*
G37*
G36*
X75451000Y-64926000D02*
G01*
X74799000Y-64926000D01*
X74799000Y-64224000D01*
X75451000Y-64224000D01*
X75451000Y-64926000D01*
X75451000Y-64926000D01*
G37*
G36*
X66201000Y-64701000D02*
G01*
X65549000Y-64701000D01*
X65549000Y-63999000D01*
X66201000Y-63999000D01*
X66201000Y-64701000D01*
X66201000Y-64701000D01*
G37*
G36*
X94379591Y-63478085D02*
G01*
X94413569Y-63488393D01*
X94444890Y-63505134D01*
X94472339Y-63527661D01*
X94494866Y-63555110D01*
X94511607Y-63586431D01*
X94521915Y-63620409D01*
X94526000Y-63661890D01*
X94526000Y-64338110D01*
X94521915Y-64379591D01*
X94511607Y-64413569D01*
X94494866Y-64444890D01*
X94472339Y-64472339D01*
X94444890Y-64494866D01*
X94413569Y-64511607D01*
X94379591Y-64521915D01*
X94338110Y-64526000D01*
X93736890Y-64526000D01*
X93695409Y-64521915D01*
X93661431Y-64511607D01*
X93630110Y-64494866D01*
X93602661Y-64472339D01*
X93580134Y-64444890D01*
X93563393Y-64413569D01*
X93553085Y-64379591D01*
X93549000Y-64338110D01*
X93549000Y-63661890D01*
X93553085Y-63620409D01*
X93563393Y-63586431D01*
X93580134Y-63555110D01*
X93602661Y-63527661D01*
X93630110Y-63505134D01*
X93661431Y-63488393D01*
X93695409Y-63478085D01*
X93736890Y-63474000D01*
X94338110Y-63474000D01*
X94379591Y-63478085D01*
X94379591Y-63478085D01*
G37*
G36*
X92804591Y-63478085D02*
G01*
X92838569Y-63488393D01*
X92869890Y-63505134D01*
X92897339Y-63527661D01*
X92919866Y-63555110D01*
X92936607Y-63586431D01*
X92946915Y-63620409D01*
X92951000Y-63661890D01*
X92951000Y-64338110D01*
X92946915Y-64379591D01*
X92936607Y-64413569D01*
X92919866Y-64444890D01*
X92897339Y-64472339D01*
X92869890Y-64494866D01*
X92838569Y-64511607D01*
X92804591Y-64521915D01*
X92763110Y-64526000D01*
X92161890Y-64526000D01*
X92120409Y-64521915D01*
X92086431Y-64511607D01*
X92055110Y-64494866D01*
X92027661Y-64472339D01*
X92005134Y-64444890D01*
X91988393Y-64413569D01*
X91978085Y-64379591D01*
X91974000Y-64338110D01*
X91974000Y-63661890D01*
X91978085Y-63620409D01*
X91988393Y-63586431D01*
X92005134Y-63555110D01*
X92027661Y-63527661D01*
X92055110Y-63505134D01*
X92086431Y-63488393D01*
X92120409Y-63478085D01*
X92161890Y-63474000D01*
X92763110Y-63474000D01*
X92804591Y-63478085D01*
X92804591Y-63478085D01*
G37*
G36*
X108679591Y-63328085D02*
G01*
X108713569Y-63338393D01*
X108744890Y-63355134D01*
X108772339Y-63377661D01*
X108794866Y-63405110D01*
X108811607Y-63436431D01*
X108821915Y-63470409D01*
X108826000Y-63511890D01*
X108826000Y-64188110D01*
X108821915Y-64229591D01*
X108811607Y-64263569D01*
X108794866Y-64294890D01*
X108772339Y-64322339D01*
X108744890Y-64344866D01*
X108713569Y-64361607D01*
X108679591Y-64371915D01*
X108638110Y-64376000D01*
X108036890Y-64376000D01*
X107995409Y-64371915D01*
X107961431Y-64361607D01*
X107930110Y-64344866D01*
X107902661Y-64322339D01*
X107880134Y-64294890D01*
X107863393Y-64263569D01*
X107853085Y-64229591D01*
X107849000Y-64188110D01*
X107849000Y-63511890D01*
X107853085Y-63470409D01*
X107863393Y-63436431D01*
X107880134Y-63405110D01*
X107902661Y-63377661D01*
X107930110Y-63355134D01*
X107961431Y-63338393D01*
X107995409Y-63328085D01*
X108036890Y-63324000D01*
X108638110Y-63324000D01*
X108679591Y-63328085D01*
X108679591Y-63328085D01*
G37*
G36*
X107104591Y-63328085D02*
G01*
X107138569Y-63338393D01*
X107169890Y-63355134D01*
X107197339Y-63377661D01*
X107219866Y-63405110D01*
X107236607Y-63436431D01*
X107246915Y-63470409D01*
X107251000Y-63511890D01*
X107251000Y-64188110D01*
X107246915Y-64229591D01*
X107236607Y-64263569D01*
X107219866Y-64294890D01*
X107197339Y-64322339D01*
X107169890Y-64344866D01*
X107138569Y-64361607D01*
X107104591Y-64371915D01*
X107063110Y-64376000D01*
X106461890Y-64376000D01*
X106420409Y-64371915D01*
X106386431Y-64361607D01*
X106355110Y-64344866D01*
X106327661Y-64322339D01*
X106305134Y-64294890D01*
X106288393Y-64263569D01*
X106278085Y-64229591D01*
X106274000Y-64188110D01*
X106274000Y-63511890D01*
X106278085Y-63470409D01*
X106288393Y-63436431D01*
X106305134Y-63405110D01*
X106327661Y-63377661D01*
X106355110Y-63355134D01*
X106386431Y-63338393D01*
X106420409Y-63328085D01*
X106461890Y-63324000D01*
X107063110Y-63324000D01*
X107104591Y-63328085D01*
X107104591Y-63328085D01*
G37*
G36*
X91351000Y-64301000D02*
G01*
X90699000Y-64301000D01*
X90699000Y-63599000D01*
X91351000Y-63599000D01*
X91351000Y-64301000D01*
X91351000Y-64301000D01*
G37*
G36*
X73601000Y-64276000D02*
G01*
X72949000Y-64276000D01*
X72949000Y-63574000D01*
X73601000Y-63574000D01*
X73601000Y-64276000D01*
X73601000Y-64276000D01*
G37*
G36*
X70779591Y-63128085D02*
G01*
X70813569Y-63138393D01*
X70844890Y-63155134D01*
X70872339Y-63177661D01*
X70894866Y-63205110D01*
X70911607Y-63236431D01*
X70921915Y-63270409D01*
X70926000Y-63311890D01*
X70926000Y-63988110D01*
X70921915Y-64029591D01*
X70911607Y-64063569D01*
X70894866Y-64094890D01*
X70872339Y-64122339D01*
X70844890Y-64144866D01*
X70813569Y-64161607D01*
X70779591Y-64171915D01*
X70738110Y-64176000D01*
X70136890Y-64176000D01*
X70095409Y-64171915D01*
X70061431Y-64161607D01*
X70030110Y-64144866D01*
X70002661Y-64122339D01*
X69980134Y-64094890D01*
X69963393Y-64063569D01*
X69953085Y-64029591D01*
X69949000Y-63988110D01*
X69949000Y-63311890D01*
X69953085Y-63270409D01*
X69963393Y-63236431D01*
X69980134Y-63205110D01*
X70002661Y-63177661D01*
X70030110Y-63155134D01*
X70061431Y-63138393D01*
X70095409Y-63128085D01*
X70136890Y-63124000D01*
X70738110Y-63124000D01*
X70779591Y-63128085D01*
X70779591Y-63128085D01*
G37*
G36*
X69204591Y-63128085D02*
G01*
X69238569Y-63138393D01*
X69269890Y-63155134D01*
X69297339Y-63177661D01*
X69319866Y-63205110D01*
X69336607Y-63236431D01*
X69346915Y-63270409D01*
X69351000Y-63311890D01*
X69351000Y-63988110D01*
X69346915Y-64029591D01*
X69336607Y-64063569D01*
X69319866Y-64094890D01*
X69297339Y-64122339D01*
X69269890Y-64144866D01*
X69238569Y-64161607D01*
X69204591Y-64171915D01*
X69163110Y-64176000D01*
X68561890Y-64176000D01*
X68520409Y-64171915D01*
X68486431Y-64161607D01*
X68455110Y-64144866D01*
X68427661Y-64122339D01*
X68405134Y-64094890D01*
X68388393Y-64063569D01*
X68378085Y-64029591D01*
X68374000Y-63988110D01*
X68374000Y-63311890D01*
X68378085Y-63270409D01*
X68388393Y-63236431D01*
X68405134Y-63205110D01*
X68427661Y-63177661D01*
X68455110Y-63155134D01*
X68486431Y-63138393D01*
X68520409Y-63128085D01*
X68561890Y-63124000D01*
X69163110Y-63124000D01*
X69204591Y-63128085D01*
X69204591Y-63128085D01*
G37*
G36*
X110051000Y-64101000D02*
G01*
X109399000Y-64101000D01*
X109399000Y-63399000D01*
X110051000Y-63399000D01*
X110051000Y-64101000D01*
X110051000Y-64101000D01*
G37*
G36*
X68051000Y-64051000D02*
G01*
X67399000Y-64051000D01*
X67399000Y-63349000D01*
X68051000Y-63349000D01*
X68051000Y-64051000D01*
X68051000Y-64051000D01*
G37*
G36*
X52376000Y-64026000D02*
G01*
X51674000Y-64026000D01*
X51674000Y-63374000D01*
X52376000Y-63374000D01*
X52376000Y-64026000D01*
X52376000Y-64026000D01*
G37*
G36*
X131679591Y-63003085D02*
G01*
X131713569Y-63013393D01*
X131744890Y-63030134D01*
X131772339Y-63052661D01*
X131794866Y-63080110D01*
X131811607Y-63111431D01*
X131821915Y-63145409D01*
X131826000Y-63186890D01*
X131826000Y-63788110D01*
X131821915Y-63829591D01*
X131811607Y-63863569D01*
X131794866Y-63894890D01*
X131772339Y-63922339D01*
X131744890Y-63944866D01*
X131713569Y-63961607D01*
X131679591Y-63971915D01*
X131638110Y-63976000D01*
X130961890Y-63976000D01*
X130920409Y-63971915D01*
X130886431Y-63961607D01*
X130855110Y-63944866D01*
X130827661Y-63922339D01*
X130805134Y-63894890D01*
X130788393Y-63863569D01*
X130778085Y-63829591D01*
X130774000Y-63788110D01*
X130774000Y-63186890D01*
X130778085Y-63145409D01*
X130788393Y-63111431D01*
X130805134Y-63080110D01*
X130827661Y-63052661D01*
X130855110Y-63030134D01*
X130886431Y-63013393D01*
X130920409Y-63003085D01*
X130961890Y-62999000D01*
X131638110Y-62999000D01*
X131679591Y-63003085D01*
X131679591Y-63003085D01*
G37*
G36*
X62251000Y-63951000D02*
G01*
X60649000Y-63951000D01*
X60649000Y-62849000D01*
X62251000Y-62849000D01*
X62251000Y-63951000D01*
X62251000Y-63951000D01*
G37*
G36*
X57351000Y-63951000D02*
G01*
X55749000Y-63951000D01*
X55749000Y-62849000D01*
X57351000Y-62849000D01*
X57351000Y-63951000D01*
X57351000Y-63951000D01*
G37*
G36*
X149101000Y-63951000D02*
G01*
X148449000Y-63951000D01*
X148449000Y-63249000D01*
X149101000Y-63249000D01*
X149101000Y-63951000D01*
X149101000Y-63951000D01*
G37*
G36*
X116351000Y-63951000D02*
G01*
X114749000Y-63951000D01*
X114749000Y-62849000D01*
X116351000Y-62849000D01*
X116351000Y-63951000D01*
X116351000Y-63951000D01*
G37*
G36*
X121251000Y-63951000D02*
G01*
X119649000Y-63951000D01*
X119649000Y-62849000D01*
X121251000Y-62849000D01*
X121251000Y-63951000D01*
X121251000Y-63951000D01*
G37*
G36*
X139351000Y-63951000D02*
G01*
X137749000Y-63951000D01*
X137749000Y-62849000D01*
X139351000Y-62849000D01*
X139351000Y-63951000D01*
X139351000Y-63951000D01*
G37*
G36*
X144251000Y-63951000D02*
G01*
X142649000Y-63951000D01*
X142649000Y-62849000D01*
X144251000Y-62849000D01*
X144251000Y-63951000D01*
X144251000Y-63951000D01*
G37*
G36*
X80351000Y-63951000D02*
G01*
X78749000Y-63951000D01*
X78749000Y-62849000D01*
X80351000Y-62849000D01*
X80351000Y-63951000D01*
X80351000Y-63951000D01*
G37*
G36*
X85251000Y-63951000D02*
G01*
X83649000Y-63951000D01*
X83649000Y-62849000D01*
X85251000Y-62849000D01*
X85251000Y-63951000D01*
X85251000Y-63951000D01*
G37*
G36*
X125779591Y-62940585D02*
G01*
X125813569Y-62950893D01*
X125844890Y-62967634D01*
X125872339Y-62990161D01*
X125894866Y-63017610D01*
X125911607Y-63048931D01*
X125921915Y-63082909D01*
X125926000Y-63124390D01*
X125926000Y-63725610D01*
X125921915Y-63767091D01*
X125911607Y-63801069D01*
X125894866Y-63832390D01*
X125872339Y-63859839D01*
X125844890Y-63882366D01*
X125813569Y-63899107D01*
X125779591Y-63909415D01*
X125738110Y-63913500D01*
X125061890Y-63913500D01*
X125020409Y-63909415D01*
X124986431Y-63899107D01*
X124955110Y-63882366D01*
X124927661Y-63859839D01*
X124905134Y-63832390D01*
X124888393Y-63801069D01*
X124878085Y-63767091D01*
X124874000Y-63725610D01*
X124874000Y-63124390D01*
X124878085Y-63082909D01*
X124888393Y-63048931D01*
X124905134Y-63017610D01*
X124927661Y-62990161D01*
X124955110Y-62967634D01*
X124986431Y-62950893D01*
X125020409Y-62940585D01*
X125061890Y-62936500D01*
X125738110Y-62936500D01*
X125779591Y-62940585D01*
X125779591Y-62940585D01*
G37*
G36*
X133076000Y-63701000D02*
G01*
X132424000Y-63701000D01*
X132424000Y-62999000D01*
X133076000Y-62999000D01*
X133076000Y-63701000D01*
X133076000Y-63701000D01*
G37*
G36*
X111901000Y-63451000D02*
G01*
X111249000Y-63451000D01*
X111249000Y-62749000D01*
X111901000Y-62749000D01*
X111901000Y-63451000D01*
X111901000Y-63451000D01*
G37*
G36*
X147251000Y-63301000D02*
G01*
X146599000Y-63301000D01*
X146599000Y-62599000D01*
X147251000Y-62599000D01*
X147251000Y-63301000D01*
X147251000Y-63301000D01*
G37*
G36*
X134926000Y-63051000D02*
G01*
X134274000Y-63051000D01*
X134274000Y-62349000D01*
X134926000Y-62349000D01*
X134926000Y-63051000D01*
X134926000Y-63051000D01*
G37*
G36*
X90151000Y-62926000D02*
G01*
X89499000Y-62926000D01*
X89499000Y-62224000D01*
X90151000Y-62224000D01*
X90151000Y-62926000D01*
X90151000Y-62926000D01*
G37*
G36*
X74501000Y-62926000D02*
G01*
X73849000Y-62926000D01*
X73849000Y-62224000D01*
X74501000Y-62224000D01*
X74501000Y-62926000D01*
X74501000Y-62926000D01*
G37*
G36*
X72829591Y-61778085D02*
G01*
X72863569Y-61788393D01*
X72894890Y-61805134D01*
X72922339Y-61827661D01*
X72944866Y-61855110D01*
X72961607Y-61886431D01*
X72971915Y-61920409D01*
X72976000Y-61961890D01*
X72976000Y-62638110D01*
X72971915Y-62679591D01*
X72961607Y-62713569D01*
X72944866Y-62744890D01*
X72922339Y-62772339D01*
X72894890Y-62794866D01*
X72863569Y-62811607D01*
X72829591Y-62821915D01*
X72788110Y-62826000D01*
X72186890Y-62826000D01*
X72145409Y-62821915D01*
X72111431Y-62811607D01*
X72080110Y-62794866D01*
X72052661Y-62772339D01*
X72030134Y-62744890D01*
X72013393Y-62713569D01*
X72003085Y-62679591D01*
X71999000Y-62638110D01*
X71999000Y-61961890D01*
X72003085Y-61920409D01*
X72013393Y-61886431D01*
X72030134Y-61855110D01*
X72052661Y-61827661D01*
X72080110Y-61805134D01*
X72111431Y-61788393D01*
X72145409Y-61778085D01*
X72186890Y-61774000D01*
X72788110Y-61774000D01*
X72829591Y-61778085D01*
X72829591Y-61778085D01*
G37*
G36*
X71254591Y-61778085D02*
G01*
X71288569Y-61788393D01*
X71319890Y-61805134D01*
X71347339Y-61827661D01*
X71369866Y-61855110D01*
X71386607Y-61886431D01*
X71396915Y-61920409D01*
X71401000Y-61961890D01*
X71401000Y-62638110D01*
X71396915Y-62679591D01*
X71386607Y-62713569D01*
X71369866Y-62744890D01*
X71347339Y-62772339D01*
X71319890Y-62794866D01*
X71288569Y-62811607D01*
X71254591Y-62821915D01*
X71213110Y-62826000D01*
X70611890Y-62826000D01*
X70570409Y-62821915D01*
X70536431Y-62811607D01*
X70505110Y-62794866D01*
X70477661Y-62772339D01*
X70455134Y-62744890D01*
X70438393Y-62713569D01*
X70428085Y-62679591D01*
X70424000Y-62638110D01*
X70424000Y-61961890D01*
X70428085Y-61920409D01*
X70438393Y-61886431D01*
X70455134Y-61855110D01*
X70477661Y-61827661D01*
X70505110Y-61805134D01*
X70536431Y-61788393D01*
X70570409Y-61778085D01*
X70611890Y-61774000D01*
X71213110Y-61774000D01*
X71254591Y-61778085D01*
X71254591Y-61778085D01*
G37*
G36*
X110051000Y-62801000D02*
G01*
X109399000Y-62801000D01*
X109399000Y-62099000D01*
X110051000Y-62099000D01*
X110051000Y-62801000D01*
X110051000Y-62801000D01*
G37*
G36*
X149101000Y-62651000D02*
G01*
X148449000Y-62651000D01*
X148449000Y-61949000D01*
X149101000Y-61949000D01*
X149101000Y-62651000D01*
X149101000Y-62651000D01*
G37*
G36*
X145717140Y-61250876D02*
G01*
X145823399Y-61294890D01*
X145835614Y-61299950D01*
X145942238Y-61371194D01*
X146032915Y-61461871D01*
X146097686Y-61558807D01*
X146104160Y-61568497D01*
X146153233Y-61686969D01*
X146178250Y-61812740D01*
X146178250Y-61940978D01*
X146153233Y-62066749D01*
X146107431Y-62177325D01*
X146104159Y-62185223D01*
X146032915Y-62291847D01*
X145942238Y-62382524D01*
X145835614Y-62453768D01*
X145835613Y-62453769D01*
X145835612Y-62453769D01*
X145717140Y-62502842D01*
X145591369Y-62527859D01*
X145463131Y-62527859D01*
X145337360Y-62502842D01*
X145218888Y-62453769D01*
X145218887Y-62453769D01*
X145218886Y-62453768D01*
X145112262Y-62382524D01*
X145021585Y-62291847D01*
X144950341Y-62185223D01*
X144947070Y-62177325D01*
X144901267Y-62066749D01*
X144876250Y-61940978D01*
X144876250Y-61812740D01*
X144901267Y-61686969D01*
X144950340Y-61568497D01*
X144956815Y-61558807D01*
X145021585Y-61461871D01*
X145112262Y-61371194D01*
X145218886Y-61299950D01*
X145231102Y-61294890D01*
X145337360Y-61250876D01*
X145463131Y-61225859D01*
X145591369Y-61225859D01*
X145717140Y-61250876D01*
X145717140Y-61250876D01*
G37*
G36*
X63717140Y-61250876D02*
G01*
X63823399Y-61294890D01*
X63835614Y-61299950D01*
X63942238Y-61371194D01*
X64032915Y-61461871D01*
X64097686Y-61558807D01*
X64104160Y-61568497D01*
X64153233Y-61686969D01*
X64178250Y-61812740D01*
X64178250Y-61940978D01*
X64153233Y-62066749D01*
X64107431Y-62177325D01*
X64104159Y-62185223D01*
X64032915Y-62291847D01*
X63942238Y-62382524D01*
X63835614Y-62453768D01*
X63835613Y-62453769D01*
X63835612Y-62453769D01*
X63717140Y-62502842D01*
X63591369Y-62527859D01*
X63463131Y-62527859D01*
X63337360Y-62502842D01*
X63218888Y-62453769D01*
X63218887Y-62453769D01*
X63218886Y-62453768D01*
X63112262Y-62382524D01*
X63021585Y-62291847D01*
X62950341Y-62185223D01*
X62947070Y-62177325D01*
X62901267Y-62066749D01*
X62876250Y-61940978D01*
X62876250Y-61812740D01*
X62901267Y-61686969D01*
X62950340Y-61568497D01*
X62956815Y-61558807D01*
X63021585Y-61461871D01*
X63112262Y-61371194D01*
X63218886Y-61299950D01*
X63231102Y-61294890D01*
X63337360Y-61250876D01*
X63463131Y-61225859D01*
X63591369Y-61225859D01*
X63717140Y-61250876D01*
X63717140Y-61250876D01*
G37*
G36*
X86717140Y-61250876D02*
G01*
X86823399Y-61294890D01*
X86835614Y-61299950D01*
X86942238Y-61371194D01*
X87032915Y-61461871D01*
X87097686Y-61558807D01*
X87104160Y-61568497D01*
X87153233Y-61686969D01*
X87178250Y-61812740D01*
X87178250Y-61940978D01*
X87153233Y-62066749D01*
X87107431Y-62177325D01*
X87104159Y-62185223D01*
X87032915Y-62291847D01*
X86942238Y-62382524D01*
X86835614Y-62453768D01*
X86835613Y-62453769D01*
X86835612Y-62453769D01*
X86717140Y-62502842D01*
X86591369Y-62527859D01*
X86463131Y-62527859D01*
X86337360Y-62502842D01*
X86218888Y-62453769D01*
X86218887Y-62453769D01*
X86218886Y-62453768D01*
X86112262Y-62382524D01*
X86021585Y-62291847D01*
X85950341Y-62185223D01*
X85947070Y-62177325D01*
X85901267Y-62066749D01*
X85876250Y-61940978D01*
X85876250Y-61812740D01*
X85901267Y-61686969D01*
X85950340Y-61568497D01*
X85956815Y-61558807D01*
X86021585Y-61461871D01*
X86112262Y-61371194D01*
X86218886Y-61299950D01*
X86231102Y-61294890D01*
X86337360Y-61250876D01*
X86463131Y-61225859D01*
X86591369Y-61225859D01*
X86717140Y-61250876D01*
X86717140Y-61250876D01*
G37*
G36*
X122717140Y-61250876D02*
G01*
X122823399Y-61294890D01*
X122835614Y-61299950D01*
X122942238Y-61371194D01*
X123032915Y-61461871D01*
X123097686Y-61558807D01*
X123104160Y-61568497D01*
X123153233Y-61686969D01*
X123178250Y-61812740D01*
X123178250Y-61940978D01*
X123153233Y-62066749D01*
X123107431Y-62177325D01*
X123104159Y-62185223D01*
X123032915Y-62291847D01*
X122942238Y-62382524D01*
X122835614Y-62453768D01*
X122835613Y-62453769D01*
X122835612Y-62453769D01*
X122717140Y-62502842D01*
X122591369Y-62527859D01*
X122463131Y-62527859D01*
X122337360Y-62502842D01*
X122218888Y-62453769D01*
X122218887Y-62453769D01*
X122218886Y-62453768D01*
X122112262Y-62382524D01*
X122021585Y-62291847D01*
X121950341Y-62185223D01*
X121947070Y-62177325D01*
X121901267Y-62066749D01*
X121876250Y-61940978D01*
X121876250Y-61812740D01*
X121901267Y-61686969D01*
X121950340Y-61568497D01*
X121956815Y-61558807D01*
X122021585Y-61461871D01*
X122112262Y-61371194D01*
X122218886Y-61299950D01*
X122231102Y-61294890D01*
X122337360Y-61250876D01*
X122463131Y-61225859D01*
X122591369Y-61225859D01*
X122717140Y-61250876D01*
X122717140Y-61250876D01*
G37*
G36*
X136668098Y-61242980D02*
G01*
X136727169Y-61267448D01*
X136786572Y-61292054D01*
X136893196Y-61363298D01*
X136983873Y-61453975D01*
X137053920Y-61558807D01*
X137055118Y-61560601D01*
X137104191Y-61679073D01*
X137129208Y-61804844D01*
X137129208Y-61933082D01*
X137112267Y-62018250D01*
X137104191Y-62058853D01*
X137055117Y-62177327D01*
X136983873Y-62283951D01*
X136893196Y-62374628D01*
X136786572Y-62445872D01*
X136786571Y-62445873D01*
X136786570Y-62445873D01*
X136668098Y-62494946D01*
X136542327Y-62519963D01*
X136414089Y-62519963D01*
X136288318Y-62494946D01*
X136169846Y-62445873D01*
X136169845Y-62445873D01*
X136169844Y-62445872D01*
X136063220Y-62374628D01*
X135972543Y-62283951D01*
X135901299Y-62177327D01*
X135852225Y-62058853D01*
X135844149Y-62018250D01*
X135827208Y-61933082D01*
X135827208Y-61804844D01*
X135852225Y-61679073D01*
X135901298Y-61560601D01*
X135902497Y-61558807D01*
X135972543Y-61453975D01*
X136063220Y-61363298D01*
X136169844Y-61292054D01*
X136229248Y-61267448D01*
X136288318Y-61242980D01*
X136414089Y-61217963D01*
X136542327Y-61217963D01*
X136668098Y-61242980D01*
X136668098Y-61242980D01*
G37*
G36*
X77668098Y-61242980D02*
G01*
X77727169Y-61267448D01*
X77786572Y-61292054D01*
X77893196Y-61363298D01*
X77983873Y-61453975D01*
X78053920Y-61558807D01*
X78055118Y-61560601D01*
X78104191Y-61679073D01*
X78129208Y-61804844D01*
X78129208Y-61933082D01*
X78112267Y-62018250D01*
X78104191Y-62058853D01*
X78055117Y-62177327D01*
X77983873Y-62283951D01*
X77893196Y-62374628D01*
X77786572Y-62445872D01*
X77786571Y-62445873D01*
X77786570Y-62445873D01*
X77668098Y-62494946D01*
X77542327Y-62519963D01*
X77414089Y-62519963D01*
X77288318Y-62494946D01*
X77169846Y-62445873D01*
X77169845Y-62445873D01*
X77169844Y-62445872D01*
X77063220Y-62374628D01*
X76972543Y-62283951D01*
X76901299Y-62177327D01*
X76852225Y-62058853D01*
X76844149Y-62018250D01*
X76827208Y-61933082D01*
X76827208Y-61804844D01*
X76852225Y-61679073D01*
X76901298Y-61560601D01*
X76902497Y-61558807D01*
X76972543Y-61453975D01*
X77063220Y-61363298D01*
X77169844Y-61292054D01*
X77229248Y-61267448D01*
X77288318Y-61242980D01*
X77414089Y-61217963D01*
X77542327Y-61217963D01*
X77668098Y-61242980D01*
X77668098Y-61242980D01*
G37*
G36*
X113668098Y-61242980D02*
G01*
X113727169Y-61267448D01*
X113786572Y-61292054D01*
X113893196Y-61363298D01*
X113983873Y-61453975D01*
X114053920Y-61558807D01*
X114055118Y-61560601D01*
X114104191Y-61679073D01*
X114129208Y-61804844D01*
X114129208Y-61933082D01*
X114112267Y-62018250D01*
X114104191Y-62058853D01*
X114055117Y-62177327D01*
X113983873Y-62283951D01*
X113893196Y-62374628D01*
X113786572Y-62445872D01*
X113786571Y-62445873D01*
X113786570Y-62445873D01*
X113668098Y-62494946D01*
X113542327Y-62519963D01*
X113414089Y-62519963D01*
X113288318Y-62494946D01*
X113169846Y-62445873D01*
X113169845Y-62445873D01*
X113169844Y-62445872D01*
X113063220Y-62374628D01*
X112972543Y-62283951D01*
X112901299Y-62177327D01*
X112852225Y-62058853D01*
X112844149Y-62018250D01*
X112827208Y-61933082D01*
X112827208Y-61804844D01*
X112852225Y-61679073D01*
X112901298Y-61560601D01*
X112902497Y-61558807D01*
X112972543Y-61453975D01*
X113063220Y-61363298D01*
X113169844Y-61292054D01*
X113229248Y-61267448D01*
X113288318Y-61242980D01*
X113414089Y-61217963D01*
X113542327Y-61217963D01*
X113668098Y-61242980D01*
X113668098Y-61242980D01*
G37*
G36*
X54668098Y-61242980D02*
G01*
X54727169Y-61267448D01*
X54786572Y-61292054D01*
X54893196Y-61363298D01*
X54983873Y-61453975D01*
X55053920Y-61558807D01*
X55055118Y-61560601D01*
X55104191Y-61679073D01*
X55129208Y-61804844D01*
X55129208Y-61933082D01*
X55112267Y-62018250D01*
X55104191Y-62058853D01*
X55055117Y-62177327D01*
X54983873Y-62283951D01*
X54893196Y-62374628D01*
X54786572Y-62445872D01*
X54786571Y-62445873D01*
X54786570Y-62445873D01*
X54668098Y-62494946D01*
X54542327Y-62519963D01*
X54414089Y-62519963D01*
X54288318Y-62494946D01*
X54169846Y-62445873D01*
X54169845Y-62445873D01*
X54169844Y-62445872D01*
X54063220Y-62374628D01*
X53972543Y-62283951D01*
X53901299Y-62177327D01*
X53852225Y-62058853D01*
X53844149Y-62018250D01*
X53827208Y-61933082D01*
X53827208Y-61804844D01*
X53852225Y-61679073D01*
X53901298Y-61560601D01*
X53902497Y-61558807D01*
X53972543Y-61453975D01*
X54063220Y-61363298D01*
X54169844Y-61292054D01*
X54229248Y-61267448D01*
X54288318Y-61242980D01*
X54414089Y-61217963D01*
X54542327Y-61217963D01*
X54668098Y-61242980D01*
X54668098Y-61242980D01*
G37*
G36*
X67101000Y-62501000D02*
G01*
X66449000Y-62501000D01*
X66449000Y-61799000D01*
X67101000Y-61799000D01*
X67101000Y-62501000D01*
X67101000Y-62501000D01*
G37*
G36*
X131679591Y-61428085D02*
G01*
X131713569Y-61438393D01*
X131744890Y-61455134D01*
X131772339Y-61477661D01*
X131794866Y-61505110D01*
X131811607Y-61536431D01*
X131821915Y-61570409D01*
X131826000Y-61611890D01*
X131826000Y-62213110D01*
X131821915Y-62254591D01*
X131811607Y-62288569D01*
X131794866Y-62319890D01*
X131772339Y-62347339D01*
X131744890Y-62369866D01*
X131713569Y-62386607D01*
X131679591Y-62396915D01*
X131638110Y-62401000D01*
X130961890Y-62401000D01*
X130920409Y-62396915D01*
X130886431Y-62386607D01*
X130855110Y-62369866D01*
X130827661Y-62347339D01*
X130805134Y-62319890D01*
X130788393Y-62288569D01*
X130778085Y-62254591D01*
X130774000Y-62213110D01*
X130774000Y-61611890D01*
X130778085Y-61570409D01*
X130788393Y-61536431D01*
X130805134Y-61505110D01*
X130827661Y-61477661D01*
X130855110Y-61455134D01*
X130886431Y-61438393D01*
X130920409Y-61428085D01*
X130961890Y-61424000D01*
X131638110Y-61424000D01*
X131679591Y-61428085D01*
X131679591Y-61428085D01*
G37*
G36*
X133076000Y-62401000D02*
G01*
X132424000Y-62401000D01*
X132424000Y-61699000D01*
X133076000Y-61699000D01*
X133076000Y-62401000D01*
X133076000Y-62401000D01*
G37*
G36*
X76351000Y-62276000D02*
G01*
X75699000Y-62276000D01*
X75699000Y-61574000D01*
X76351000Y-61574000D01*
X76351000Y-62276000D01*
X76351000Y-62276000D01*
G37*
G36*
X88301000Y-62276000D02*
G01*
X87649000Y-62276000D01*
X87649000Y-61574000D01*
X88301000Y-61574000D01*
X88301000Y-62276000D01*
X88301000Y-62276000D01*
G37*
G36*
X126676000Y-62251000D02*
G01*
X126024000Y-62251000D01*
X126024000Y-61549000D01*
X126676000Y-61549000D01*
X126676000Y-62251000D01*
X126676000Y-62251000D01*
G37*
G36*
X53026000Y-62176000D02*
G01*
X52324000Y-62176000D01*
X52324000Y-61524000D01*
X53026000Y-61524000D01*
X53026000Y-62176000D01*
X53026000Y-62176000D01*
G37*
G36*
X51726000Y-62176000D02*
G01*
X51024000Y-62176000D01*
X51024000Y-61524000D01*
X51726000Y-61524000D01*
X51726000Y-62176000D01*
X51726000Y-62176000D01*
G37*
G36*
X65251000Y-61851000D02*
G01*
X64599000Y-61851000D01*
X64599000Y-61149000D01*
X65251000Y-61149000D01*
X65251000Y-61851000D01*
X65251000Y-61851000D01*
G37*
G36*
X91504591Y-60753085D02*
G01*
X91538569Y-60763393D01*
X91569890Y-60780134D01*
X91597339Y-60802661D01*
X91619866Y-60830110D01*
X91636607Y-60861431D01*
X91646915Y-60895409D01*
X91651000Y-60936890D01*
X91651000Y-61613110D01*
X91646915Y-61654591D01*
X91636607Y-61688569D01*
X91619866Y-61719890D01*
X91597339Y-61747339D01*
X91569890Y-61769866D01*
X91538569Y-61786607D01*
X91504591Y-61796915D01*
X91463110Y-61801000D01*
X90861890Y-61801000D01*
X90820409Y-61796915D01*
X90786431Y-61786607D01*
X90755110Y-61769866D01*
X90727661Y-61747339D01*
X90705134Y-61719890D01*
X90688393Y-61688569D01*
X90678085Y-61654591D01*
X90674000Y-61613110D01*
X90674000Y-60936890D01*
X90678085Y-60895409D01*
X90688393Y-60861431D01*
X90705134Y-60830110D01*
X90727661Y-60802661D01*
X90755110Y-60780134D01*
X90786431Y-60763393D01*
X90820409Y-60753085D01*
X90861890Y-60749000D01*
X91463110Y-60749000D01*
X91504591Y-60753085D01*
X91504591Y-60753085D01*
G37*
G36*
X93079591Y-60753085D02*
G01*
X93113569Y-60763393D01*
X93144890Y-60780134D01*
X93172339Y-60802661D01*
X93194866Y-60830110D01*
X93211607Y-60861431D01*
X93221915Y-60895409D01*
X93226000Y-60936890D01*
X93226000Y-61613110D01*
X93221915Y-61654591D01*
X93211607Y-61688569D01*
X93194866Y-61719890D01*
X93172339Y-61747339D01*
X93144890Y-61769866D01*
X93113569Y-61786607D01*
X93079591Y-61796915D01*
X93038110Y-61801000D01*
X92436890Y-61801000D01*
X92395409Y-61796915D01*
X92361431Y-61786607D01*
X92330110Y-61769866D01*
X92302661Y-61747339D01*
X92280134Y-61719890D01*
X92263393Y-61688569D01*
X92253085Y-61654591D01*
X92249000Y-61613110D01*
X92249000Y-60936890D01*
X92253085Y-60895409D01*
X92263393Y-60861431D01*
X92280134Y-60830110D01*
X92302661Y-60802661D01*
X92330110Y-60780134D01*
X92361431Y-60763393D01*
X92395409Y-60753085D01*
X92436890Y-60749000D01*
X93038110Y-60749000D01*
X93079591Y-60753085D01*
X93079591Y-60753085D01*
G37*
G36*
X74501000Y-61626000D02*
G01*
X73849000Y-61626000D01*
X73849000Y-60924000D01*
X74501000Y-60924000D01*
X74501000Y-61626000D01*
X74501000Y-61626000D01*
G37*
G36*
X90151000Y-61626000D02*
G01*
X89499000Y-61626000D01*
X89499000Y-60924000D01*
X90151000Y-60924000D01*
X90151000Y-61626000D01*
X90151000Y-61626000D01*
G37*
G36*
X124826000Y-61601000D02*
G01*
X124174000Y-61601000D01*
X124174000Y-60899000D01*
X124826000Y-60899000D01*
X124826000Y-61601000D01*
X124826000Y-61601000D01*
G37*
G36*
X149179591Y-60590585D02*
G01*
X149213569Y-60600893D01*
X149244890Y-60617634D01*
X149272339Y-60640161D01*
X149294866Y-60667610D01*
X149311607Y-60698931D01*
X149321915Y-60732909D01*
X149326000Y-60774390D01*
X149326000Y-61375610D01*
X149321915Y-61417091D01*
X149311607Y-61451069D01*
X149294866Y-61482390D01*
X149272339Y-61509839D01*
X149244890Y-61532366D01*
X149213569Y-61549107D01*
X149179591Y-61559415D01*
X149138110Y-61563500D01*
X148461890Y-61563500D01*
X148420409Y-61559415D01*
X148386431Y-61549107D01*
X148355110Y-61532366D01*
X148327661Y-61509839D01*
X148305134Y-61482390D01*
X148288393Y-61451069D01*
X148278085Y-61417091D01*
X148274000Y-61375610D01*
X148274000Y-60774390D01*
X148278085Y-60732909D01*
X148288393Y-60698931D01*
X148305134Y-60667610D01*
X148327661Y-60640161D01*
X148355110Y-60617634D01*
X148386431Y-60600893D01*
X148420409Y-60590585D01*
X148461890Y-60586500D01*
X149138110Y-60586500D01*
X149179591Y-60590585D01*
X149179591Y-60590585D01*
G37*
G36*
X69817091Y-60328085D02*
G01*
X69851069Y-60338393D01*
X69882390Y-60355134D01*
X69909839Y-60377661D01*
X69932366Y-60405110D01*
X69949107Y-60436431D01*
X69959415Y-60470409D01*
X69963500Y-60511890D01*
X69963500Y-61188110D01*
X69959415Y-61229591D01*
X69949107Y-61263569D01*
X69932366Y-61294890D01*
X69909839Y-61322339D01*
X69882390Y-61344866D01*
X69851069Y-61361607D01*
X69817091Y-61371915D01*
X69775610Y-61376000D01*
X69174390Y-61376000D01*
X69132909Y-61371915D01*
X69098931Y-61361607D01*
X69067610Y-61344866D01*
X69040161Y-61322339D01*
X69017634Y-61294890D01*
X69000893Y-61263569D01*
X68990585Y-61229591D01*
X68986500Y-61188110D01*
X68986500Y-60511890D01*
X68990585Y-60470409D01*
X69000893Y-60436431D01*
X69017634Y-60405110D01*
X69040161Y-60377661D01*
X69067610Y-60355134D01*
X69098931Y-60338393D01*
X69132909Y-60328085D01*
X69174390Y-60324000D01*
X69775610Y-60324000D01*
X69817091Y-60328085D01*
X69817091Y-60328085D01*
G37*
G36*
X68242091Y-60328085D02*
G01*
X68276069Y-60338393D01*
X68307390Y-60355134D01*
X68334839Y-60377661D01*
X68357366Y-60405110D01*
X68374107Y-60436431D01*
X68384415Y-60470409D01*
X68388500Y-60511890D01*
X68388500Y-61188110D01*
X68384415Y-61229591D01*
X68374107Y-61263569D01*
X68357366Y-61294890D01*
X68334839Y-61322339D01*
X68307390Y-61344866D01*
X68276069Y-61361607D01*
X68242091Y-61371915D01*
X68200610Y-61376000D01*
X67599390Y-61376000D01*
X67557909Y-61371915D01*
X67523931Y-61361607D01*
X67492610Y-61344866D01*
X67465161Y-61322339D01*
X67442634Y-61294890D01*
X67425893Y-61263569D01*
X67415585Y-61229591D01*
X67411500Y-61188110D01*
X67411500Y-60511890D01*
X67415585Y-60470409D01*
X67425893Y-60436431D01*
X67442634Y-60405110D01*
X67465161Y-60377661D01*
X67492610Y-60355134D01*
X67523931Y-60338393D01*
X67557909Y-60328085D01*
X67599390Y-60324000D01*
X68200610Y-60324000D01*
X68242091Y-60328085D01*
X68242091Y-60328085D01*
G37*
G36*
X67101000Y-61201000D02*
G01*
X66449000Y-61201000D01*
X66449000Y-60499000D01*
X67101000Y-60499000D01*
X67101000Y-61201000D01*
X67101000Y-61201000D01*
G37*
G36*
X51704591Y-60115585D02*
G01*
X51738569Y-60125893D01*
X51769890Y-60142634D01*
X51797339Y-60165161D01*
X51819866Y-60192610D01*
X51836607Y-60223931D01*
X51846915Y-60257909D01*
X51851000Y-60299390D01*
X51851000Y-60900610D01*
X51846915Y-60942091D01*
X51836607Y-60976069D01*
X51819866Y-61007390D01*
X51797339Y-61034839D01*
X51769890Y-61057366D01*
X51738569Y-61074107D01*
X51704591Y-61084415D01*
X51663110Y-61088500D01*
X50986890Y-61088500D01*
X50945409Y-61084415D01*
X50911431Y-61074107D01*
X50880110Y-61057366D01*
X50852661Y-61034839D01*
X50830134Y-61007390D01*
X50813393Y-60976069D01*
X50803085Y-60942091D01*
X50799000Y-60900610D01*
X50799000Y-60299390D01*
X50803085Y-60257909D01*
X50813393Y-60223931D01*
X50830134Y-60192610D01*
X50852661Y-60165161D01*
X50880110Y-60142634D01*
X50911431Y-60125893D01*
X50945409Y-60115585D01*
X50986890Y-60111500D01*
X51663110Y-60111500D01*
X51704591Y-60115585D01*
X51704591Y-60115585D01*
G37*
G36*
X109054591Y-59978085D02*
G01*
X109088569Y-59988393D01*
X109119890Y-60005134D01*
X109147339Y-60027661D01*
X109169866Y-60055110D01*
X109186607Y-60086431D01*
X109196915Y-60120409D01*
X109201000Y-60161890D01*
X109201000Y-60838110D01*
X109196915Y-60879591D01*
X109186607Y-60913569D01*
X109169866Y-60944890D01*
X109147339Y-60972339D01*
X109119890Y-60994866D01*
X109088569Y-61011607D01*
X109054591Y-61021915D01*
X109013110Y-61026000D01*
X108411890Y-61026000D01*
X108370409Y-61021915D01*
X108336431Y-61011607D01*
X108305110Y-60994866D01*
X108277661Y-60972339D01*
X108255134Y-60944890D01*
X108238393Y-60913569D01*
X108228085Y-60879591D01*
X108224000Y-60838110D01*
X108224000Y-60161890D01*
X108228085Y-60120409D01*
X108238393Y-60086431D01*
X108255134Y-60055110D01*
X108277661Y-60027661D01*
X108305110Y-60005134D01*
X108336431Y-59988393D01*
X108370409Y-59978085D01*
X108411890Y-59974000D01*
X109013110Y-59974000D01*
X109054591Y-59978085D01*
X109054591Y-59978085D01*
G37*
G36*
X132142091Y-59978085D02*
G01*
X132176069Y-59988393D01*
X132207390Y-60005134D01*
X132234839Y-60027661D01*
X132257366Y-60055110D01*
X132274107Y-60086431D01*
X132284415Y-60120409D01*
X132288500Y-60161890D01*
X132288500Y-60838110D01*
X132284415Y-60879591D01*
X132274107Y-60913569D01*
X132257366Y-60944890D01*
X132234839Y-60972339D01*
X132207390Y-60994866D01*
X132176069Y-61011607D01*
X132142091Y-61021915D01*
X132100610Y-61026000D01*
X131499390Y-61026000D01*
X131457909Y-61021915D01*
X131423931Y-61011607D01*
X131392610Y-60994866D01*
X131365161Y-60972339D01*
X131342634Y-60944890D01*
X131325893Y-60913569D01*
X131315585Y-60879591D01*
X131311500Y-60838110D01*
X131311500Y-60161890D01*
X131315585Y-60120409D01*
X131325893Y-60086431D01*
X131342634Y-60055110D01*
X131365161Y-60027661D01*
X131392610Y-60005134D01*
X131423931Y-59988393D01*
X131457909Y-59978085D01*
X131499390Y-59974000D01*
X132100610Y-59974000D01*
X132142091Y-59978085D01*
X132142091Y-59978085D01*
G37*
G36*
X133717091Y-59978085D02*
G01*
X133751069Y-59988393D01*
X133782390Y-60005134D01*
X133809839Y-60027661D01*
X133832366Y-60055110D01*
X133849107Y-60086431D01*
X133859415Y-60120409D01*
X133863500Y-60161890D01*
X133863500Y-60838110D01*
X133859415Y-60879591D01*
X133849107Y-60913569D01*
X133832366Y-60944890D01*
X133809839Y-60972339D01*
X133782390Y-60994866D01*
X133751069Y-61011607D01*
X133717091Y-61021915D01*
X133675610Y-61026000D01*
X133074390Y-61026000D01*
X133032909Y-61021915D01*
X132998931Y-61011607D01*
X132967610Y-60994866D01*
X132940161Y-60972339D01*
X132917634Y-60944890D01*
X132900893Y-60913569D01*
X132890585Y-60879591D01*
X132886500Y-60838110D01*
X132886500Y-60161890D01*
X132890585Y-60120409D01*
X132900893Y-60086431D01*
X132917634Y-60055110D01*
X132940161Y-60027661D01*
X132967610Y-60005134D01*
X132998931Y-59988393D01*
X133032909Y-59978085D01*
X133074390Y-59974000D01*
X133675610Y-59974000D01*
X133717091Y-59978085D01*
X133717091Y-59978085D01*
G37*
G36*
X110629591Y-59978085D02*
G01*
X110663569Y-59988393D01*
X110694890Y-60005134D01*
X110722339Y-60027661D01*
X110744866Y-60055110D01*
X110761607Y-60086431D01*
X110771915Y-60120409D01*
X110776000Y-60161890D01*
X110776000Y-60838110D01*
X110771915Y-60879591D01*
X110761607Y-60913569D01*
X110744866Y-60944890D01*
X110722339Y-60972339D01*
X110694890Y-60994866D01*
X110663569Y-61011607D01*
X110629591Y-61021915D01*
X110588110Y-61026000D01*
X109986890Y-61026000D01*
X109945409Y-61021915D01*
X109911431Y-61011607D01*
X109880110Y-60994866D01*
X109852661Y-60972339D01*
X109830134Y-60944890D01*
X109813393Y-60913569D01*
X109803085Y-60879591D01*
X109799000Y-60838110D01*
X109799000Y-60161890D01*
X109803085Y-60120409D01*
X109813393Y-60086431D01*
X109830134Y-60055110D01*
X109852661Y-60027661D01*
X109880110Y-60005134D01*
X109911431Y-59988393D01*
X109945409Y-59978085D01*
X109986890Y-59974000D01*
X110588110Y-59974000D01*
X110629591Y-59978085D01*
X110629591Y-59978085D01*
G37*
G36*
X126676000Y-60951000D02*
G01*
X126024000Y-60951000D01*
X126024000Y-60249000D01*
X126676000Y-60249000D01*
X126676000Y-60951000D01*
X126676000Y-60951000D01*
G37*
G36*
X134876000Y-60851000D02*
G01*
X134224000Y-60851000D01*
X134224000Y-60149000D01*
X134876000Y-60149000D01*
X134876000Y-60851000D01*
X134876000Y-60851000D01*
G37*
G36*
X54576000Y-60826000D02*
G01*
X53874000Y-60826000D01*
X53874000Y-60174000D01*
X54576000Y-60174000D01*
X54576000Y-60826000D01*
X54576000Y-60826000D01*
G37*
G36*
X111976000Y-60801000D02*
G01*
X111324000Y-60801000D01*
X111324000Y-60099000D01*
X111976000Y-60099000D01*
X111976000Y-60801000D01*
X111976000Y-60801000D01*
G37*
G36*
X120746521Y-59504352D02*
G01*
X120859139Y-59551000D01*
X120864995Y-59553426D01*
X120971619Y-59624670D01*
X121062296Y-59715347D01*
X121130565Y-59817518D01*
X121133541Y-59821973D01*
X121182614Y-59940445D01*
X121207631Y-60066216D01*
X121207631Y-60194454D01*
X121182614Y-60320225D01*
X121134480Y-60436431D01*
X121133540Y-60438699D01*
X121062296Y-60545323D01*
X120971619Y-60636000D01*
X120864995Y-60707244D01*
X120864994Y-60707245D01*
X120864993Y-60707245D01*
X120746521Y-60756318D01*
X120620750Y-60781335D01*
X120492512Y-60781335D01*
X120366741Y-60756318D01*
X120248269Y-60707245D01*
X120248268Y-60707245D01*
X120248267Y-60707244D01*
X120141643Y-60636000D01*
X120050966Y-60545323D01*
X119979722Y-60438699D01*
X119978783Y-60436431D01*
X119930648Y-60320225D01*
X119905631Y-60194454D01*
X119905631Y-60066216D01*
X119930648Y-59940445D01*
X119979721Y-59821973D01*
X119982698Y-59817518D01*
X120050966Y-59715347D01*
X120141643Y-59624670D01*
X120248267Y-59553426D01*
X120254124Y-59551000D01*
X120366741Y-59504352D01*
X120492512Y-59479335D01*
X120620750Y-59479335D01*
X120746521Y-59504352D01*
X120746521Y-59504352D01*
G37*
G36*
X84746521Y-59504352D02*
G01*
X84859139Y-59551000D01*
X84864995Y-59553426D01*
X84971619Y-59624670D01*
X85062296Y-59715347D01*
X85130565Y-59817518D01*
X85133541Y-59821973D01*
X85182614Y-59940445D01*
X85207631Y-60066216D01*
X85207631Y-60194454D01*
X85182614Y-60320225D01*
X85134480Y-60436431D01*
X85133540Y-60438699D01*
X85062296Y-60545323D01*
X84971619Y-60636000D01*
X84864995Y-60707244D01*
X84864994Y-60707245D01*
X84864993Y-60707245D01*
X84746521Y-60756318D01*
X84620750Y-60781335D01*
X84492512Y-60781335D01*
X84366741Y-60756318D01*
X84248269Y-60707245D01*
X84248268Y-60707245D01*
X84248267Y-60707244D01*
X84141643Y-60636000D01*
X84050966Y-60545323D01*
X83979722Y-60438699D01*
X83978783Y-60436431D01*
X83930648Y-60320225D01*
X83905631Y-60194454D01*
X83905631Y-60066216D01*
X83930648Y-59940445D01*
X83979721Y-59821973D01*
X83982698Y-59817518D01*
X84050966Y-59715347D01*
X84141643Y-59624670D01*
X84248267Y-59553426D01*
X84254124Y-59551000D01*
X84366741Y-59504352D01*
X84492512Y-59479335D01*
X84620750Y-59479335D01*
X84746521Y-59504352D01*
X84746521Y-59504352D01*
G37*
G36*
X61746521Y-59504352D02*
G01*
X61859139Y-59551000D01*
X61864995Y-59553426D01*
X61971619Y-59624670D01*
X62062296Y-59715347D01*
X62130565Y-59817518D01*
X62133541Y-59821973D01*
X62182614Y-59940445D01*
X62207631Y-60066216D01*
X62207631Y-60194454D01*
X62182614Y-60320225D01*
X62134480Y-60436431D01*
X62133540Y-60438699D01*
X62062296Y-60545323D01*
X61971619Y-60636000D01*
X61864995Y-60707244D01*
X61864994Y-60707245D01*
X61864993Y-60707245D01*
X61746521Y-60756318D01*
X61620750Y-60781335D01*
X61492512Y-60781335D01*
X61366741Y-60756318D01*
X61248269Y-60707245D01*
X61248268Y-60707245D01*
X61248267Y-60707244D01*
X61141643Y-60636000D01*
X61050966Y-60545323D01*
X60979722Y-60438699D01*
X60978783Y-60436431D01*
X60930648Y-60320225D01*
X60905631Y-60194454D01*
X60905631Y-60066216D01*
X60930648Y-59940445D01*
X60979721Y-59821973D01*
X60982698Y-59817518D01*
X61050966Y-59715347D01*
X61141643Y-59624670D01*
X61248267Y-59553426D01*
X61254124Y-59551000D01*
X61366741Y-59504352D01*
X61492512Y-59479335D01*
X61620750Y-59479335D01*
X61746521Y-59504352D01*
X61746521Y-59504352D01*
G37*
G36*
X143746521Y-59504352D02*
G01*
X143859139Y-59551000D01*
X143864995Y-59553426D01*
X143971619Y-59624670D01*
X144062296Y-59715347D01*
X144130565Y-59817518D01*
X144133541Y-59821973D01*
X144182614Y-59940445D01*
X144207631Y-60066216D01*
X144207631Y-60194454D01*
X144182614Y-60320225D01*
X144134480Y-60436431D01*
X144133540Y-60438699D01*
X144062296Y-60545323D01*
X143971619Y-60636000D01*
X143864995Y-60707244D01*
X143864994Y-60707245D01*
X143864993Y-60707245D01*
X143746521Y-60756318D01*
X143620750Y-60781335D01*
X143492512Y-60781335D01*
X143366741Y-60756318D01*
X143248269Y-60707245D01*
X143248268Y-60707245D01*
X143248267Y-60707244D01*
X143141643Y-60636000D01*
X143050966Y-60545323D01*
X142979722Y-60438699D01*
X142978783Y-60436431D01*
X142930648Y-60320225D01*
X142905631Y-60194454D01*
X142905631Y-60066216D01*
X142930648Y-59940445D01*
X142979721Y-59821973D01*
X142982698Y-59817518D01*
X143050966Y-59715347D01*
X143141643Y-59624670D01*
X143248267Y-59553426D01*
X143254124Y-59551000D01*
X143366741Y-59504352D01*
X143492512Y-59479335D01*
X143620750Y-59479335D01*
X143746521Y-59504352D01*
X143746521Y-59504352D01*
G37*
G36*
X56641762Y-59499897D02*
G01*
X56663273Y-59508807D01*
X56760236Y-59548971D01*
X56866860Y-59620215D01*
X56957537Y-59710892D01*
X57017485Y-59800610D01*
X57028782Y-59817518D01*
X57077855Y-59935990D01*
X57102872Y-60061761D01*
X57102872Y-60189999D01*
X57091136Y-60249000D01*
X57077855Y-60315770D01*
X57028781Y-60434244D01*
X56957537Y-60540868D01*
X56866860Y-60631545D01*
X56760236Y-60702789D01*
X56760235Y-60702790D01*
X56760234Y-60702790D01*
X56641762Y-60751863D01*
X56515991Y-60776880D01*
X56387753Y-60776880D01*
X56261982Y-60751863D01*
X56143510Y-60702790D01*
X56143509Y-60702790D01*
X56143508Y-60702789D01*
X56036884Y-60631545D01*
X55946207Y-60540868D01*
X55874963Y-60434244D01*
X55825889Y-60315770D01*
X55812608Y-60249000D01*
X55800872Y-60189999D01*
X55800872Y-60061761D01*
X55825889Y-59935990D01*
X55874962Y-59817518D01*
X55886260Y-59800610D01*
X55946207Y-59710892D01*
X56036884Y-59620215D01*
X56143508Y-59548971D01*
X56240472Y-59508807D01*
X56261982Y-59499897D01*
X56387753Y-59474880D01*
X56515991Y-59474880D01*
X56641762Y-59499897D01*
X56641762Y-59499897D01*
G37*
G36*
X115641762Y-59499897D02*
G01*
X115663273Y-59508807D01*
X115760236Y-59548971D01*
X115866860Y-59620215D01*
X115957537Y-59710892D01*
X116017485Y-59800610D01*
X116028782Y-59817518D01*
X116077855Y-59935990D01*
X116102872Y-60061761D01*
X116102872Y-60189999D01*
X116091136Y-60249000D01*
X116077855Y-60315770D01*
X116028781Y-60434244D01*
X115957537Y-60540868D01*
X115866860Y-60631545D01*
X115760236Y-60702789D01*
X115760235Y-60702790D01*
X115760234Y-60702790D01*
X115641762Y-60751863D01*
X115515991Y-60776880D01*
X115387753Y-60776880D01*
X115261982Y-60751863D01*
X115143510Y-60702790D01*
X115143509Y-60702790D01*
X115143508Y-60702789D01*
X115036884Y-60631545D01*
X114946207Y-60540868D01*
X114874963Y-60434244D01*
X114825889Y-60315770D01*
X114812608Y-60249000D01*
X114800872Y-60189999D01*
X114800872Y-60061761D01*
X114825889Y-59935990D01*
X114874962Y-59817518D01*
X114886260Y-59800610D01*
X114946207Y-59710892D01*
X115036884Y-59620215D01*
X115143508Y-59548971D01*
X115240472Y-59508807D01*
X115261982Y-59499897D01*
X115387753Y-59474880D01*
X115515991Y-59474880D01*
X115641762Y-59499897D01*
X115641762Y-59499897D01*
G37*
G36*
X79641762Y-59499897D02*
G01*
X79663273Y-59508807D01*
X79760236Y-59548971D01*
X79866860Y-59620215D01*
X79957537Y-59710892D01*
X80017485Y-59800610D01*
X80028782Y-59817518D01*
X80077855Y-59935990D01*
X80102872Y-60061761D01*
X80102872Y-60189999D01*
X80091136Y-60249000D01*
X80077855Y-60315770D01*
X80028781Y-60434244D01*
X79957537Y-60540868D01*
X79866860Y-60631545D01*
X79760236Y-60702789D01*
X79760235Y-60702790D01*
X79760234Y-60702790D01*
X79641762Y-60751863D01*
X79515991Y-60776880D01*
X79387753Y-60776880D01*
X79261982Y-60751863D01*
X79143510Y-60702790D01*
X79143509Y-60702790D01*
X79143508Y-60702789D01*
X79036884Y-60631545D01*
X78946207Y-60540868D01*
X78874963Y-60434244D01*
X78825889Y-60315770D01*
X78812608Y-60249000D01*
X78800872Y-60189999D01*
X78800872Y-60061761D01*
X78825889Y-59935990D01*
X78874962Y-59817518D01*
X78886260Y-59800610D01*
X78946207Y-59710892D01*
X79036884Y-59620215D01*
X79143508Y-59548971D01*
X79240472Y-59508807D01*
X79261982Y-59499897D01*
X79387753Y-59474880D01*
X79515991Y-59474880D01*
X79641762Y-59499897D01*
X79641762Y-59499897D01*
G37*
G36*
X138641762Y-59499897D02*
G01*
X138663273Y-59508807D01*
X138760236Y-59548971D01*
X138866860Y-59620215D01*
X138957537Y-59710892D01*
X139017485Y-59800610D01*
X139028782Y-59817518D01*
X139077855Y-59935990D01*
X139102872Y-60061761D01*
X139102872Y-60189999D01*
X139091136Y-60249000D01*
X139077855Y-60315770D01*
X139028781Y-60434244D01*
X138957537Y-60540868D01*
X138866860Y-60631545D01*
X138760236Y-60702789D01*
X138760235Y-60702790D01*
X138760234Y-60702790D01*
X138641762Y-60751863D01*
X138515991Y-60776880D01*
X138387753Y-60776880D01*
X138261982Y-60751863D01*
X138143510Y-60702790D01*
X138143509Y-60702790D01*
X138143508Y-60702789D01*
X138036884Y-60631545D01*
X137946207Y-60540868D01*
X137874963Y-60434244D01*
X137825889Y-60315770D01*
X137812608Y-60249000D01*
X137800872Y-60189999D01*
X137800872Y-60061761D01*
X137825889Y-59935990D01*
X137874962Y-59817518D01*
X137886260Y-59800610D01*
X137946207Y-59710892D01*
X138036884Y-59620215D01*
X138143508Y-59548971D01*
X138240472Y-59508807D01*
X138261982Y-59499897D01*
X138387753Y-59474880D01*
X138515991Y-59474880D01*
X138641762Y-59499897D01*
X138641762Y-59499897D01*
G37*
G36*
X123501000Y-60726000D02*
G01*
X122799000Y-60726000D01*
X122799000Y-60074000D01*
X123501000Y-60074000D01*
X123501000Y-60726000D01*
X123501000Y-60726000D01*
G37*
G36*
X146201000Y-60351000D02*
G01*
X145499000Y-60351000D01*
X145499000Y-59699000D01*
X146201000Y-59699000D01*
X146201000Y-60351000D01*
X146201000Y-60351000D01*
G37*
G36*
X136726000Y-60201000D02*
G01*
X136074000Y-60201000D01*
X136074000Y-59499000D01*
X136726000Y-59499000D01*
X136726000Y-60201000D01*
X136726000Y-60201000D01*
G37*
G36*
X118189890Y-58874017D02*
G01*
X118264955Y-58905110D01*
X118308364Y-58923091D01*
X118340988Y-58944890D01*
X118414988Y-58994335D01*
X118505665Y-59085012D01*
X118576910Y-59191638D01*
X118625983Y-59310110D01*
X118651000Y-59435881D01*
X118651000Y-59564119D01*
X118628069Y-59679401D01*
X118625983Y-59689890D01*
X118576909Y-59808364D01*
X118505665Y-59914988D01*
X118414988Y-60005665D01*
X118308364Y-60076909D01*
X118308363Y-60076910D01*
X118308362Y-60076910D01*
X118189890Y-60125983D01*
X118064119Y-60151000D01*
X117935881Y-60151000D01*
X117810110Y-60125983D01*
X117691638Y-60076910D01*
X117691637Y-60076910D01*
X117691636Y-60076909D01*
X117585012Y-60005665D01*
X117494335Y-59914988D01*
X117423091Y-59808364D01*
X117374017Y-59689890D01*
X117371931Y-59679401D01*
X117349000Y-59564119D01*
X117349000Y-59435881D01*
X117374017Y-59310110D01*
X117423090Y-59191638D01*
X117494335Y-59085012D01*
X117585012Y-58994335D01*
X117659012Y-58944890D01*
X117691636Y-58923091D01*
X117735046Y-58905110D01*
X117810110Y-58874017D01*
X117935881Y-58849000D01*
X118064119Y-58849000D01*
X118189890Y-58874017D01*
X118189890Y-58874017D01*
G37*
G36*
X82189890Y-58874017D02*
G01*
X82264955Y-58905110D01*
X82308364Y-58923091D01*
X82340988Y-58944890D01*
X82414988Y-58994335D01*
X82505665Y-59085012D01*
X82576910Y-59191638D01*
X82625983Y-59310110D01*
X82651000Y-59435881D01*
X82651000Y-59564119D01*
X82628069Y-59679401D01*
X82625983Y-59689890D01*
X82576909Y-59808364D01*
X82505665Y-59914988D01*
X82414988Y-60005665D01*
X82308364Y-60076909D01*
X82308363Y-60076910D01*
X82308362Y-60076910D01*
X82189890Y-60125983D01*
X82064119Y-60151000D01*
X81935881Y-60151000D01*
X81810110Y-60125983D01*
X81691638Y-60076910D01*
X81691637Y-60076910D01*
X81691636Y-60076909D01*
X81585012Y-60005665D01*
X81494335Y-59914988D01*
X81423091Y-59808364D01*
X81374017Y-59689890D01*
X81371931Y-59679401D01*
X81349000Y-59564119D01*
X81349000Y-59435881D01*
X81374017Y-59310110D01*
X81423090Y-59191638D01*
X81494335Y-59085012D01*
X81585012Y-58994335D01*
X81659012Y-58944890D01*
X81691636Y-58923091D01*
X81735046Y-58905110D01*
X81810110Y-58874017D01*
X81935881Y-58849000D01*
X82064119Y-58849000D01*
X82189890Y-58874017D01*
X82189890Y-58874017D01*
G37*
G36*
X113826000Y-60151000D02*
G01*
X113174000Y-60151000D01*
X113174000Y-59449000D01*
X113826000Y-59449000D01*
X113826000Y-60151000D01*
X113826000Y-60151000D01*
G37*
G36*
X59189890Y-58874017D02*
G01*
X59264955Y-58905110D01*
X59308364Y-58923091D01*
X59340988Y-58944890D01*
X59414988Y-58994335D01*
X59505665Y-59085012D01*
X59576910Y-59191638D01*
X59625983Y-59310110D01*
X59651000Y-59435881D01*
X59651000Y-59564119D01*
X59628069Y-59679401D01*
X59625983Y-59689890D01*
X59576909Y-59808364D01*
X59505665Y-59914988D01*
X59414988Y-60005665D01*
X59308364Y-60076909D01*
X59308363Y-60076910D01*
X59308362Y-60076910D01*
X59189890Y-60125983D01*
X59064119Y-60151000D01*
X58935881Y-60151000D01*
X58810110Y-60125983D01*
X58691638Y-60076910D01*
X58691637Y-60076910D01*
X58691636Y-60076909D01*
X58585012Y-60005665D01*
X58494335Y-59914988D01*
X58423091Y-59808364D01*
X58374017Y-59689890D01*
X58371931Y-59679401D01*
X58349000Y-59564119D01*
X58349000Y-59435881D01*
X58374017Y-59310110D01*
X58423090Y-59191638D01*
X58494335Y-59085012D01*
X58585012Y-58994335D01*
X58659012Y-58944890D01*
X58691636Y-58923091D01*
X58735046Y-58905110D01*
X58810110Y-58874017D01*
X58935881Y-58849000D01*
X59064119Y-58849000D01*
X59189890Y-58874017D01*
X59189890Y-58874017D01*
G37*
G36*
X141189890Y-58874017D02*
G01*
X141264955Y-58905110D01*
X141308364Y-58923091D01*
X141340988Y-58944890D01*
X141414988Y-58994335D01*
X141505665Y-59085012D01*
X141576910Y-59191638D01*
X141625983Y-59310110D01*
X141651000Y-59435881D01*
X141651000Y-59564119D01*
X141628069Y-59679401D01*
X141625983Y-59689890D01*
X141576909Y-59808364D01*
X141505665Y-59914988D01*
X141414988Y-60005665D01*
X141308364Y-60076909D01*
X141308363Y-60076910D01*
X141308362Y-60076910D01*
X141189890Y-60125983D01*
X141064119Y-60151000D01*
X140935881Y-60151000D01*
X140810110Y-60125983D01*
X140691638Y-60076910D01*
X140691637Y-60076910D01*
X140691636Y-60076909D01*
X140585012Y-60005665D01*
X140494335Y-59914988D01*
X140423091Y-59808364D01*
X140374017Y-59689890D01*
X140371931Y-59679401D01*
X140349000Y-59564119D01*
X140349000Y-59435881D01*
X140374017Y-59310110D01*
X140423090Y-59191638D01*
X140494335Y-59085012D01*
X140585012Y-58994335D01*
X140659012Y-58944890D01*
X140691636Y-58923091D01*
X140735046Y-58905110D01*
X140810110Y-58874017D01*
X140935881Y-58849000D01*
X141064119Y-58849000D01*
X141189890Y-58874017D01*
X141189890Y-58874017D01*
G37*
G36*
X149179591Y-59015585D02*
G01*
X149213569Y-59025893D01*
X149244890Y-59042634D01*
X149272339Y-59065161D01*
X149294866Y-59092610D01*
X149311607Y-59123931D01*
X149321915Y-59157909D01*
X149326000Y-59199390D01*
X149326000Y-59800610D01*
X149321915Y-59842091D01*
X149311607Y-59876069D01*
X149294866Y-59907390D01*
X149272339Y-59934839D01*
X149244890Y-59957366D01*
X149213569Y-59974107D01*
X149179591Y-59984415D01*
X149138110Y-59988500D01*
X148461890Y-59988500D01*
X148420409Y-59984415D01*
X148386431Y-59974107D01*
X148355110Y-59957366D01*
X148327661Y-59934839D01*
X148305134Y-59907390D01*
X148288393Y-59876069D01*
X148278085Y-59842091D01*
X148274000Y-59800610D01*
X148274000Y-59199390D01*
X148278085Y-59157909D01*
X148288393Y-59123931D01*
X148305134Y-59092610D01*
X148327661Y-59065161D01*
X148355110Y-59042634D01*
X148386431Y-59025893D01*
X148420409Y-59015585D01*
X148461890Y-59011500D01*
X149138110Y-59011500D01*
X149179591Y-59015585D01*
X149179591Y-59015585D01*
G37*
G36*
X126654591Y-58828085D02*
G01*
X126688569Y-58838393D01*
X126719890Y-58855134D01*
X126747339Y-58877661D01*
X126769866Y-58905110D01*
X126786607Y-58936431D01*
X126796915Y-58970409D01*
X126801000Y-59011890D01*
X126801000Y-59688110D01*
X126796915Y-59729591D01*
X126786607Y-59763569D01*
X126769866Y-59794890D01*
X126747339Y-59822339D01*
X126719890Y-59844866D01*
X126688569Y-59861607D01*
X126654591Y-59871915D01*
X126613110Y-59876000D01*
X126011890Y-59876000D01*
X125970409Y-59871915D01*
X125936431Y-59861607D01*
X125905110Y-59844866D01*
X125877661Y-59822339D01*
X125855134Y-59794890D01*
X125838393Y-59763569D01*
X125828085Y-59729591D01*
X125824000Y-59688110D01*
X125824000Y-59011890D01*
X125828085Y-58970409D01*
X125838393Y-58936431D01*
X125855134Y-58905110D01*
X125877661Y-58877661D01*
X125905110Y-58855134D01*
X125936431Y-58838393D01*
X125970409Y-58828085D01*
X126011890Y-58824000D01*
X126613110Y-58824000D01*
X126654591Y-58828085D01*
X126654591Y-58828085D01*
G37*
G36*
X128229591Y-58828085D02*
G01*
X128263569Y-58838393D01*
X128294890Y-58855134D01*
X128322339Y-58877661D01*
X128344866Y-58905110D01*
X128361607Y-58936431D01*
X128371915Y-58970409D01*
X128376000Y-59011890D01*
X128376000Y-59688110D01*
X128371915Y-59729591D01*
X128361607Y-59763569D01*
X128344866Y-59794890D01*
X128322339Y-59822339D01*
X128294890Y-59844866D01*
X128263569Y-59861607D01*
X128229591Y-59871915D01*
X128188110Y-59876000D01*
X127586890Y-59876000D01*
X127545409Y-59871915D01*
X127511431Y-59861607D01*
X127480110Y-59844866D01*
X127452661Y-59822339D01*
X127430134Y-59794890D01*
X127413393Y-59763569D01*
X127403085Y-59729591D01*
X127399000Y-59688110D01*
X127399000Y-59011890D01*
X127403085Y-58970409D01*
X127413393Y-58936431D01*
X127430134Y-58905110D01*
X127452661Y-58877661D01*
X127480110Y-58855134D01*
X127511431Y-58838393D01*
X127545409Y-58828085D01*
X127586890Y-58824000D01*
X128188110Y-58824000D01*
X128229591Y-58828085D01*
X128229591Y-58828085D01*
G37*
G36*
X134876000Y-59551000D02*
G01*
X134224000Y-59551000D01*
X134224000Y-58849000D01*
X134876000Y-58849000D01*
X134876000Y-59551000D01*
X134876000Y-59551000D01*
G37*
G36*
X51704591Y-58540585D02*
G01*
X51738569Y-58550893D01*
X51769890Y-58567634D01*
X51797339Y-58590161D01*
X51819866Y-58617610D01*
X51836607Y-58648931D01*
X51846915Y-58682909D01*
X51851000Y-58724390D01*
X51851000Y-59325610D01*
X51846915Y-59367091D01*
X51836607Y-59401069D01*
X51819866Y-59432390D01*
X51797339Y-59459839D01*
X51769890Y-59482366D01*
X51738569Y-59499107D01*
X51704591Y-59509415D01*
X51663110Y-59513500D01*
X50986890Y-59513500D01*
X50945409Y-59509415D01*
X50911431Y-59499107D01*
X50880110Y-59482366D01*
X50852661Y-59459839D01*
X50830134Y-59432390D01*
X50813393Y-59401069D01*
X50803085Y-59367091D01*
X50799000Y-59325610D01*
X50799000Y-58724390D01*
X50803085Y-58682909D01*
X50813393Y-58648931D01*
X50830134Y-58617610D01*
X50852661Y-58590161D01*
X50880110Y-58567634D01*
X50911431Y-58550893D01*
X50945409Y-58540585D01*
X50986890Y-58536500D01*
X51663110Y-58536500D01*
X51704591Y-58540585D01*
X51704591Y-58540585D01*
G37*
G36*
X111976000Y-59501000D02*
G01*
X111324000Y-59501000D01*
X111324000Y-58799000D01*
X111976000Y-58799000D01*
X111976000Y-59501000D01*
X111976000Y-59501000D01*
G37*
G36*
X121617091Y-57978085D02*
G01*
X121651069Y-57988393D01*
X121682390Y-58005134D01*
X121709839Y-58027661D01*
X121732366Y-58055110D01*
X121749107Y-58086431D01*
X121759415Y-58120409D01*
X121763500Y-58161890D01*
X121763500Y-58838110D01*
X121759415Y-58879591D01*
X121749107Y-58913569D01*
X121732366Y-58944890D01*
X121709839Y-58972339D01*
X121682390Y-58994866D01*
X121651069Y-59011607D01*
X121617091Y-59021915D01*
X121575610Y-59026000D01*
X120974390Y-59026000D01*
X120932909Y-59021915D01*
X120898931Y-59011607D01*
X120867610Y-58994866D01*
X120840161Y-58972339D01*
X120817634Y-58944890D01*
X120800893Y-58913569D01*
X120790585Y-58879591D01*
X120786500Y-58838110D01*
X120786500Y-58161890D01*
X120790585Y-58120409D01*
X120800893Y-58086431D01*
X120817634Y-58055110D01*
X120840161Y-58027661D01*
X120867610Y-58005134D01*
X120898931Y-57988393D01*
X120932909Y-57978085D01*
X120974390Y-57974000D01*
X121575610Y-57974000D01*
X121617091Y-57978085D01*
X121617091Y-57978085D01*
G37*
G36*
X120042091Y-57978085D02*
G01*
X120076069Y-57988393D01*
X120107390Y-58005134D01*
X120134839Y-58027661D01*
X120157366Y-58055110D01*
X120174107Y-58086431D01*
X120184415Y-58120409D01*
X120188500Y-58161890D01*
X120188500Y-58838110D01*
X120184415Y-58879591D01*
X120174107Y-58913569D01*
X120157366Y-58944890D01*
X120134839Y-58972339D01*
X120107390Y-58994866D01*
X120076069Y-59011607D01*
X120042091Y-59021915D01*
X120000610Y-59026000D01*
X119399390Y-59026000D01*
X119357909Y-59021915D01*
X119323931Y-59011607D01*
X119292610Y-58994866D01*
X119265161Y-58972339D01*
X119242634Y-58944890D01*
X119225893Y-58913569D01*
X119215585Y-58879591D01*
X119211500Y-58838110D01*
X119211500Y-58161890D01*
X119215585Y-58120409D01*
X119225893Y-58086431D01*
X119242634Y-58055110D01*
X119265161Y-58027661D01*
X119292610Y-58005134D01*
X119323931Y-57988393D01*
X119357909Y-57978085D01*
X119399390Y-57974000D01*
X120000610Y-57974000D01*
X120042091Y-57978085D01*
X120042091Y-57978085D01*
G37*
G36*
X53926000Y-58976000D02*
G01*
X53224000Y-58976000D01*
X53224000Y-58324000D01*
X53926000Y-58324000D01*
X53926000Y-58976000D01*
X53926000Y-58976000D01*
G37*
G36*
X55226000Y-58976000D02*
G01*
X54524000Y-58976000D01*
X54524000Y-58324000D01*
X55226000Y-58324000D01*
X55226000Y-58976000D01*
X55226000Y-58976000D01*
G37*
G36*
X122851000Y-58876000D02*
G01*
X122149000Y-58876000D01*
X122149000Y-58224000D01*
X122851000Y-58224000D01*
X122851000Y-58876000D01*
X122851000Y-58876000D01*
G37*
G36*
X124151000Y-58876000D02*
G01*
X123449000Y-58876000D01*
X123449000Y-58224000D01*
X124151000Y-58224000D01*
X124151000Y-58876000D01*
X124151000Y-58876000D01*
G37*
G36*
X145551000Y-58501000D02*
G01*
X144849000Y-58501000D01*
X144849000Y-57849000D01*
X145551000Y-57849000D01*
X145551000Y-58501000D01*
X145551000Y-58501000D01*
G37*
G36*
X146851000Y-58501000D02*
G01*
X146149000Y-58501000D01*
X146149000Y-57849000D01*
X146851000Y-57849000D01*
X146851000Y-58501000D01*
X146851000Y-58501000D01*
G37*
G36*
X76286000Y-58126000D02*
G01*
X74884000Y-58126000D01*
X74884000Y-57024000D01*
X76286000Y-57024000D01*
X76286000Y-58126000D01*
X76286000Y-58126000D01*
G37*
G36*
X64626000Y-58126000D02*
G01*
X63224000Y-58126000D01*
X63224000Y-57024000D01*
X64626000Y-57024000D01*
X64626000Y-58126000D01*
X64626000Y-58126000D01*
G37*
G36*
X59526000Y-58076000D02*
G01*
X58524000Y-58076000D01*
X58524000Y-56774000D01*
X59526000Y-56774000D01*
X59526000Y-58076000D01*
X59526000Y-58076000D01*
G37*
G36*
X62826000Y-58076000D02*
G01*
X61824000Y-58076000D01*
X61824000Y-56774000D01*
X62826000Y-56774000D01*
X62826000Y-58076000D01*
X62826000Y-58076000D01*
G37*
G36*
X54054591Y-56778085D02*
G01*
X54088569Y-56788393D01*
X54119890Y-56805134D01*
X54147339Y-56827661D01*
X54169866Y-56855110D01*
X54186607Y-56886431D01*
X54196915Y-56920409D01*
X54201000Y-56961890D01*
X54201000Y-57638110D01*
X54196915Y-57679591D01*
X54186607Y-57713569D01*
X54169866Y-57744890D01*
X54147339Y-57772339D01*
X54119890Y-57794866D01*
X54088569Y-57811607D01*
X54054591Y-57821915D01*
X54013110Y-57826000D01*
X53411890Y-57826000D01*
X53370409Y-57821915D01*
X53336431Y-57811607D01*
X53305110Y-57794866D01*
X53277661Y-57772339D01*
X53255134Y-57744890D01*
X53238393Y-57713569D01*
X53228085Y-57679591D01*
X53224000Y-57638110D01*
X53224000Y-56961890D01*
X53228085Y-56920409D01*
X53238393Y-56886431D01*
X53255134Y-56855110D01*
X53277661Y-56827661D01*
X53305110Y-56805134D01*
X53336431Y-56788393D01*
X53370409Y-56778085D01*
X53411890Y-56774000D01*
X54013110Y-56774000D01*
X54054591Y-56778085D01*
X54054591Y-56778085D01*
G37*
G36*
X52479591Y-56778085D02*
G01*
X52513569Y-56788393D01*
X52544890Y-56805134D01*
X52572339Y-56827661D01*
X52594866Y-56855110D01*
X52611607Y-56886431D01*
X52621915Y-56920409D01*
X52626000Y-56961890D01*
X52626000Y-57638110D01*
X52621915Y-57679591D01*
X52611607Y-57713569D01*
X52594866Y-57744890D01*
X52572339Y-57772339D01*
X52544890Y-57794866D01*
X52513569Y-57811607D01*
X52479591Y-57821915D01*
X52438110Y-57826000D01*
X51836890Y-57826000D01*
X51795409Y-57821915D01*
X51761431Y-57811607D01*
X51730110Y-57794866D01*
X51702661Y-57772339D01*
X51680134Y-57744890D01*
X51663393Y-57713569D01*
X51653085Y-57679591D01*
X51649000Y-57638110D01*
X51649000Y-56961890D01*
X51653085Y-56920409D01*
X51663393Y-56886431D01*
X51680134Y-56855110D01*
X51702661Y-56827661D01*
X51730110Y-56805134D01*
X51761431Y-56788393D01*
X51795409Y-56778085D01*
X51836890Y-56774000D01*
X52438110Y-56774000D01*
X52479591Y-56778085D01*
X52479591Y-56778085D01*
G37*
G36*
X143967091Y-56428085D02*
G01*
X144001069Y-56438393D01*
X144032390Y-56455134D01*
X144059839Y-56477661D01*
X144082366Y-56505110D01*
X144099107Y-56536431D01*
X144109415Y-56570409D01*
X144113500Y-56611890D01*
X144113500Y-57288110D01*
X144109415Y-57329591D01*
X144099107Y-57363569D01*
X144082366Y-57394890D01*
X144059839Y-57422339D01*
X144032390Y-57444866D01*
X144001069Y-57461607D01*
X143967091Y-57471915D01*
X143925610Y-57476000D01*
X143324390Y-57476000D01*
X143282909Y-57471915D01*
X143248931Y-57461607D01*
X143217610Y-57444866D01*
X143190161Y-57422339D01*
X143167634Y-57394890D01*
X143150893Y-57363569D01*
X143140585Y-57329591D01*
X143136500Y-57288110D01*
X143136500Y-56611890D01*
X143140585Y-56570409D01*
X143150893Y-56536431D01*
X143167634Y-56505110D01*
X143190161Y-56477661D01*
X143217610Y-56455134D01*
X143248931Y-56438393D01*
X143282909Y-56428085D01*
X143324390Y-56424000D01*
X143925610Y-56424000D01*
X143967091Y-56428085D01*
X143967091Y-56428085D01*
G37*
G36*
X145542091Y-56428085D02*
G01*
X145576069Y-56438393D01*
X145607390Y-56455134D01*
X145634839Y-56477661D01*
X145657366Y-56505110D01*
X145674107Y-56536431D01*
X145684415Y-56570409D01*
X145688500Y-56611890D01*
X145688500Y-57288110D01*
X145684415Y-57329591D01*
X145674107Y-57363569D01*
X145657366Y-57394890D01*
X145634839Y-57422339D01*
X145607390Y-57444866D01*
X145576069Y-57461607D01*
X145542091Y-57471915D01*
X145500610Y-57476000D01*
X144899390Y-57476000D01*
X144857909Y-57471915D01*
X144823931Y-57461607D01*
X144792610Y-57444866D01*
X144765161Y-57422339D01*
X144742634Y-57394890D01*
X144725893Y-57363569D01*
X144715585Y-57329591D01*
X144711500Y-57288110D01*
X144711500Y-56611890D01*
X144715585Y-56570409D01*
X144725893Y-56536431D01*
X144742634Y-56505110D01*
X144765161Y-56477661D01*
X144792610Y-56455134D01*
X144823931Y-56438393D01*
X144857909Y-56428085D01*
X144899390Y-56424000D01*
X145500610Y-56424000D01*
X145542091Y-56428085D01*
X145542091Y-56428085D01*
G37*
G36*
X124459003Y-55367275D02*
G01*
X124459005Y-55367276D01*
X124459006Y-55367276D01*
X124639320Y-55441964D01*
X124801598Y-55550395D01*
X124939605Y-55688402D01*
X125048036Y-55850680D01*
X125122724Y-56030994D01*
X125122725Y-56030997D01*
X125160800Y-56222413D01*
X125160800Y-56417587D01*
X125130402Y-56570409D01*
X125122724Y-56609006D01*
X125048036Y-56789320D01*
X124939605Y-56951598D01*
X124801598Y-57089605D01*
X124639320Y-57198036D01*
X124459006Y-57272724D01*
X124459005Y-57272724D01*
X124459003Y-57272725D01*
X124267587Y-57310800D01*
X124072413Y-57310800D01*
X123880997Y-57272725D01*
X123880995Y-57272724D01*
X123880994Y-57272724D01*
X123700680Y-57198036D01*
X123538402Y-57089605D01*
X123400395Y-56951598D01*
X123291964Y-56789320D01*
X123217276Y-56609006D01*
X123209599Y-56570409D01*
X123179200Y-56417587D01*
X123179200Y-56222413D01*
X123217275Y-56030997D01*
X123217276Y-56030994D01*
X123291964Y-55850680D01*
X123400395Y-55688402D01*
X123538402Y-55550395D01*
X123700680Y-55441964D01*
X123880994Y-55367276D01*
X123880995Y-55367276D01*
X123880997Y-55367275D01*
X124072413Y-55329200D01*
X124267587Y-55329200D01*
X124459003Y-55367275D01*
X124459003Y-55367275D01*
G37*
G36*
X139699003Y-55367275D02*
G01*
X139699005Y-55367276D01*
X139699006Y-55367276D01*
X139879320Y-55441964D01*
X140041598Y-55550395D01*
X140179605Y-55688402D01*
X140288036Y-55850680D01*
X140362724Y-56030994D01*
X140362725Y-56030997D01*
X140400800Y-56222413D01*
X140400800Y-56417587D01*
X140370402Y-56570409D01*
X140362724Y-56609006D01*
X140288036Y-56789320D01*
X140179605Y-56951598D01*
X140041598Y-57089605D01*
X139879320Y-57198036D01*
X139699006Y-57272724D01*
X139699005Y-57272724D01*
X139699003Y-57272725D01*
X139507587Y-57310800D01*
X139312413Y-57310800D01*
X139120997Y-57272725D01*
X139120995Y-57272724D01*
X139120994Y-57272724D01*
X138940680Y-57198036D01*
X138778402Y-57089605D01*
X138640395Y-56951598D01*
X138531964Y-56789320D01*
X138457276Y-56609006D01*
X138449599Y-56570409D01*
X138419200Y-56417587D01*
X138419200Y-56222413D01*
X138457275Y-56030997D01*
X138457276Y-56030994D01*
X138531964Y-55850680D01*
X138640395Y-55688402D01*
X138778402Y-55550395D01*
X138940680Y-55441964D01*
X139120994Y-55367276D01*
X139120995Y-55367276D01*
X139120997Y-55367275D01*
X139312413Y-55329200D01*
X139507587Y-55329200D01*
X139699003Y-55367275D01*
X139699003Y-55367275D01*
G37*
G36*
X134619003Y-55367275D02*
G01*
X134619005Y-55367276D01*
X134619006Y-55367276D01*
X134799320Y-55441964D01*
X134961598Y-55550395D01*
X135099605Y-55688402D01*
X135208036Y-55850680D01*
X135282724Y-56030994D01*
X135282725Y-56030997D01*
X135320800Y-56222413D01*
X135320800Y-56417587D01*
X135290402Y-56570409D01*
X135282724Y-56609006D01*
X135208036Y-56789320D01*
X135099605Y-56951598D01*
X134961598Y-57089605D01*
X134799320Y-57198036D01*
X134619006Y-57272724D01*
X134619005Y-57272724D01*
X134619003Y-57272725D01*
X134427587Y-57310800D01*
X134232413Y-57310800D01*
X134040997Y-57272725D01*
X134040995Y-57272724D01*
X134040994Y-57272724D01*
X133860680Y-57198036D01*
X133698402Y-57089605D01*
X133560395Y-56951598D01*
X133451964Y-56789320D01*
X133377276Y-56609006D01*
X133369599Y-56570409D01*
X133339200Y-56417587D01*
X133339200Y-56222413D01*
X133377275Y-56030997D01*
X133377276Y-56030994D01*
X133451964Y-55850680D01*
X133560395Y-55688402D01*
X133698402Y-55550395D01*
X133860680Y-55441964D01*
X134040994Y-55367276D01*
X134040995Y-55367276D01*
X134040997Y-55367275D01*
X134232413Y-55329200D01*
X134427587Y-55329200D01*
X134619003Y-55367275D01*
X134619003Y-55367275D01*
G37*
G36*
X112460800Y-57310800D02*
G01*
X110479200Y-57310800D01*
X110479200Y-55329200D01*
X112460800Y-55329200D01*
X112460800Y-57310800D01*
X112460800Y-57310800D01*
G37*
G36*
X114299003Y-55367275D02*
G01*
X114299005Y-55367276D01*
X114299006Y-55367276D01*
X114479320Y-55441964D01*
X114641598Y-55550395D01*
X114779605Y-55688402D01*
X114888036Y-55850680D01*
X114962724Y-56030994D01*
X114962725Y-56030997D01*
X115000800Y-56222413D01*
X115000800Y-56417587D01*
X114970402Y-56570409D01*
X114962724Y-56609006D01*
X114888036Y-56789320D01*
X114779605Y-56951598D01*
X114641598Y-57089605D01*
X114479320Y-57198036D01*
X114299006Y-57272724D01*
X114299005Y-57272724D01*
X114299003Y-57272725D01*
X114107587Y-57310800D01*
X113912413Y-57310800D01*
X113720997Y-57272725D01*
X113720995Y-57272724D01*
X113720994Y-57272724D01*
X113540680Y-57198036D01*
X113378402Y-57089605D01*
X113240395Y-56951598D01*
X113131964Y-56789320D01*
X113057276Y-56609006D01*
X113049599Y-56570409D01*
X113019200Y-56417587D01*
X113019200Y-56222413D01*
X113057275Y-56030997D01*
X113057276Y-56030994D01*
X113131964Y-55850680D01*
X113240395Y-55688402D01*
X113378402Y-55550395D01*
X113540680Y-55441964D01*
X113720994Y-55367276D01*
X113720995Y-55367276D01*
X113720997Y-55367275D01*
X113912413Y-55329200D01*
X114107587Y-55329200D01*
X114299003Y-55367275D01*
X114299003Y-55367275D01*
G37*
G36*
X116839003Y-55367275D02*
G01*
X116839005Y-55367276D01*
X116839006Y-55367276D01*
X117019320Y-55441964D01*
X117181598Y-55550395D01*
X117319605Y-55688402D01*
X117428036Y-55850680D01*
X117502724Y-56030994D01*
X117502725Y-56030997D01*
X117540800Y-56222413D01*
X117540800Y-56417587D01*
X117510402Y-56570409D01*
X117502724Y-56609006D01*
X117428036Y-56789320D01*
X117319605Y-56951598D01*
X117181598Y-57089605D01*
X117019320Y-57198036D01*
X116839006Y-57272724D01*
X116839005Y-57272724D01*
X116839003Y-57272725D01*
X116647587Y-57310800D01*
X116452413Y-57310800D01*
X116260997Y-57272725D01*
X116260995Y-57272724D01*
X116260994Y-57272724D01*
X116080680Y-57198036D01*
X115918402Y-57089605D01*
X115780395Y-56951598D01*
X115671964Y-56789320D01*
X115597276Y-56609006D01*
X115589599Y-56570409D01*
X115559200Y-56417587D01*
X115559200Y-56222413D01*
X115597275Y-56030997D01*
X115597276Y-56030994D01*
X115671964Y-55850680D01*
X115780395Y-55688402D01*
X115918402Y-55550395D01*
X116080680Y-55441964D01*
X116260994Y-55367276D01*
X116260995Y-55367276D01*
X116260997Y-55367275D01*
X116452413Y-55329200D01*
X116647587Y-55329200D01*
X116839003Y-55367275D01*
X116839003Y-55367275D01*
G37*
G36*
X121919003Y-55367275D02*
G01*
X121919005Y-55367276D01*
X121919006Y-55367276D01*
X122099320Y-55441964D01*
X122261598Y-55550395D01*
X122399605Y-55688402D01*
X122508036Y-55850680D01*
X122582724Y-56030994D01*
X122582725Y-56030997D01*
X122620800Y-56222413D01*
X122620800Y-56417587D01*
X122590402Y-56570409D01*
X122582724Y-56609006D01*
X122508036Y-56789320D01*
X122399605Y-56951598D01*
X122261598Y-57089605D01*
X122099320Y-57198036D01*
X121919006Y-57272724D01*
X121919005Y-57272724D01*
X121919003Y-57272725D01*
X121727587Y-57310800D01*
X121532413Y-57310800D01*
X121340997Y-57272725D01*
X121340995Y-57272724D01*
X121340994Y-57272724D01*
X121160680Y-57198036D01*
X120998402Y-57089605D01*
X120860395Y-56951598D01*
X120751964Y-56789320D01*
X120677276Y-56609006D01*
X120669599Y-56570409D01*
X120639200Y-56417587D01*
X120639200Y-56222413D01*
X120677275Y-56030997D01*
X120677276Y-56030994D01*
X120751964Y-55850680D01*
X120860395Y-55688402D01*
X120998402Y-55550395D01*
X121160680Y-55441964D01*
X121340994Y-55367276D01*
X121340995Y-55367276D01*
X121340997Y-55367275D01*
X121532413Y-55329200D01*
X121727587Y-55329200D01*
X121919003Y-55367275D01*
X121919003Y-55367275D01*
G37*
G36*
X126999003Y-55367275D02*
G01*
X126999005Y-55367276D01*
X126999006Y-55367276D01*
X127179320Y-55441964D01*
X127341598Y-55550395D01*
X127479605Y-55688402D01*
X127588036Y-55850680D01*
X127662724Y-56030994D01*
X127662725Y-56030997D01*
X127700800Y-56222413D01*
X127700800Y-56417587D01*
X127670402Y-56570409D01*
X127662724Y-56609006D01*
X127588036Y-56789320D01*
X127479605Y-56951598D01*
X127341598Y-57089605D01*
X127179320Y-57198036D01*
X126999006Y-57272724D01*
X126999005Y-57272724D01*
X126999003Y-57272725D01*
X126807587Y-57310800D01*
X126612413Y-57310800D01*
X126420997Y-57272725D01*
X126420995Y-57272724D01*
X126420994Y-57272724D01*
X126240680Y-57198036D01*
X126078402Y-57089605D01*
X125940395Y-56951598D01*
X125831964Y-56789320D01*
X125757276Y-56609006D01*
X125749599Y-56570409D01*
X125719200Y-56417587D01*
X125719200Y-56222413D01*
X125757275Y-56030997D01*
X125757276Y-56030994D01*
X125831964Y-55850680D01*
X125940395Y-55688402D01*
X126078402Y-55550395D01*
X126240680Y-55441964D01*
X126420994Y-55367276D01*
X126420995Y-55367276D01*
X126420997Y-55367275D01*
X126612413Y-55329200D01*
X126807587Y-55329200D01*
X126999003Y-55367275D01*
X126999003Y-55367275D01*
G37*
G36*
X129539003Y-55367275D02*
G01*
X129539005Y-55367276D01*
X129539006Y-55367276D01*
X129719320Y-55441964D01*
X129881598Y-55550395D01*
X130019605Y-55688402D01*
X130128036Y-55850680D01*
X130202724Y-56030994D01*
X130202725Y-56030997D01*
X130240800Y-56222413D01*
X130240800Y-56417587D01*
X130210402Y-56570409D01*
X130202724Y-56609006D01*
X130128036Y-56789320D01*
X130019605Y-56951598D01*
X129881598Y-57089605D01*
X129719320Y-57198036D01*
X129539006Y-57272724D01*
X129539005Y-57272724D01*
X129539003Y-57272725D01*
X129347587Y-57310800D01*
X129152413Y-57310800D01*
X128960997Y-57272725D01*
X128960995Y-57272724D01*
X128960994Y-57272724D01*
X128780680Y-57198036D01*
X128618402Y-57089605D01*
X128480395Y-56951598D01*
X128371964Y-56789320D01*
X128297276Y-56609006D01*
X128289599Y-56570409D01*
X128259200Y-56417587D01*
X128259200Y-56222413D01*
X128297275Y-56030997D01*
X128297276Y-56030994D01*
X128371964Y-55850680D01*
X128480395Y-55688402D01*
X128618402Y-55550395D01*
X128780680Y-55441964D01*
X128960994Y-55367276D01*
X128960995Y-55367276D01*
X128960997Y-55367275D01*
X129152413Y-55329200D01*
X129347587Y-55329200D01*
X129539003Y-55367275D01*
X129539003Y-55367275D01*
G37*
G36*
X132079003Y-55367275D02*
G01*
X132079005Y-55367276D01*
X132079006Y-55367276D01*
X132259320Y-55441964D01*
X132421598Y-55550395D01*
X132559605Y-55688402D01*
X132668036Y-55850680D01*
X132742724Y-56030994D01*
X132742725Y-56030997D01*
X132780800Y-56222413D01*
X132780800Y-56417587D01*
X132750402Y-56570409D01*
X132742724Y-56609006D01*
X132668036Y-56789320D01*
X132559605Y-56951598D01*
X132421598Y-57089605D01*
X132259320Y-57198036D01*
X132079006Y-57272724D01*
X132079005Y-57272724D01*
X132079003Y-57272725D01*
X131887587Y-57310800D01*
X131692413Y-57310800D01*
X131500997Y-57272725D01*
X131500995Y-57272724D01*
X131500994Y-57272724D01*
X131320680Y-57198036D01*
X131158402Y-57089605D01*
X131020395Y-56951598D01*
X130911964Y-56789320D01*
X130837276Y-56609006D01*
X130829599Y-56570409D01*
X130799200Y-56417587D01*
X130799200Y-56222413D01*
X130837275Y-56030997D01*
X130837276Y-56030994D01*
X130911964Y-55850680D01*
X131020395Y-55688402D01*
X131158402Y-55550395D01*
X131320680Y-55441964D01*
X131500994Y-55367276D01*
X131500995Y-55367276D01*
X131500997Y-55367275D01*
X131692413Y-55329200D01*
X131887587Y-55329200D01*
X132079003Y-55367275D01*
X132079003Y-55367275D01*
G37*
G36*
X137159003Y-55367275D02*
G01*
X137159005Y-55367276D01*
X137159006Y-55367276D01*
X137339320Y-55441964D01*
X137501598Y-55550395D01*
X137639605Y-55688402D01*
X137748036Y-55850680D01*
X137822724Y-56030994D01*
X137822725Y-56030997D01*
X137860800Y-56222413D01*
X137860800Y-56417587D01*
X137830402Y-56570409D01*
X137822724Y-56609006D01*
X137748036Y-56789320D01*
X137639605Y-56951598D01*
X137501598Y-57089605D01*
X137339320Y-57198036D01*
X137159006Y-57272724D01*
X137159005Y-57272724D01*
X137159003Y-57272725D01*
X136967587Y-57310800D01*
X136772413Y-57310800D01*
X136580997Y-57272725D01*
X136580995Y-57272724D01*
X136580994Y-57272724D01*
X136400680Y-57198036D01*
X136238402Y-57089605D01*
X136100395Y-56951598D01*
X135991964Y-56789320D01*
X135917276Y-56609006D01*
X135909599Y-56570409D01*
X135879200Y-56417587D01*
X135879200Y-56222413D01*
X135917275Y-56030997D01*
X135917276Y-56030994D01*
X135991964Y-55850680D01*
X136100395Y-55688402D01*
X136238402Y-55550395D01*
X136400680Y-55441964D01*
X136580994Y-55367276D01*
X136580995Y-55367276D01*
X136580997Y-55367275D01*
X136772413Y-55329200D01*
X136967587Y-55329200D01*
X137159003Y-55367275D01*
X137159003Y-55367275D01*
G37*
G36*
X119379003Y-55367275D02*
G01*
X119379005Y-55367276D01*
X119379006Y-55367276D01*
X119559320Y-55441964D01*
X119721598Y-55550395D01*
X119859605Y-55688402D01*
X119968036Y-55850680D01*
X120042724Y-56030994D01*
X120042725Y-56030997D01*
X120080800Y-56222413D01*
X120080800Y-56417587D01*
X120050402Y-56570409D01*
X120042724Y-56609006D01*
X119968036Y-56789320D01*
X119859605Y-56951598D01*
X119721598Y-57089605D01*
X119559320Y-57198036D01*
X119379006Y-57272724D01*
X119379005Y-57272724D01*
X119379003Y-57272725D01*
X119187587Y-57310800D01*
X118992413Y-57310800D01*
X118800997Y-57272725D01*
X118800995Y-57272724D01*
X118800994Y-57272724D01*
X118620680Y-57198036D01*
X118458402Y-57089605D01*
X118320395Y-56951598D01*
X118211964Y-56789320D01*
X118137276Y-56609006D01*
X118129599Y-56570409D01*
X118099200Y-56417587D01*
X118099200Y-56222413D01*
X118137275Y-56030997D01*
X118137276Y-56030994D01*
X118211964Y-55850680D01*
X118320395Y-55688402D01*
X118458402Y-55550395D01*
X118620680Y-55441964D01*
X118800994Y-55367276D01*
X118800995Y-55367276D01*
X118800997Y-55367275D01*
X118992413Y-55329200D01*
X119187587Y-55329200D01*
X119379003Y-55367275D01*
X119379003Y-55367275D01*
G37*
G36*
X79151000Y-56951000D02*
G01*
X77249000Y-56951000D01*
X77249000Y-54349000D01*
X79151000Y-54349000D01*
X79151000Y-56951000D01*
X79151000Y-56951000D01*
G37*
G36*
X76286000Y-55626000D02*
G01*
X74884000Y-55626000D01*
X74884000Y-54524000D01*
X76286000Y-54524000D01*
X76286000Y-55626000D01*
X76286000Y-55626000D01*
G37*
G36*
X64626000Y-55626000D02*
G01*
X63224000Y-55626000D01*
X63224000Y-54524000D01*
X64626000Y-54524000D01*
X64626000Y-55626000D01*
X64626000Y-55626000D01*
G37*
G36*
X139804591Y-53478085D02*
G01*
X139838569Y-53488393D01*
X139869890Y-53505134D01*
X139897339Y-53527661D01*
X139919866Y-53555110D01*
X139936607Y-53586431D01*
X139946915Y-53620409D01*
X139951000Y-53661890D01*
X139951000Y-54338110D01*
X139946915Y-54379591D01*
X139936607Y-54413569D01*
X139919866Y-54444890D01*
X139897339Y-54472339D01*
X139869890Y-54494866D01*
X139838569Y-54511607D01*
X139804591Y-54521915D01*
X139763110Y-54526000D01*
X139161890Y-54526000D01*
X139120409Y-54521915D01*
X139086431Y-54511607D01*
X139055110Y-54494866D01*
X139027661Y-54472339D01*
X139005134Y-54444890D01*
X138988393Y-54413569D01*
X138978085Y-54379591D01*
X138974000Y-54338110D01*
X138974000Y-53661890D01*
X138978085Y-53620409D01*
X138988393Y-53586431D01*
X139005134Y-53555110D01*
X139027661Y-53527661D01*
X139055110Y-53505134D01*
X139086431Y-53488393D01*
X139120409Y-53478085D01*
X139161890Y-53474000D01*
X139763110Y-53474000D01*
X139804591Y-53478085D01*
X139804591Y-53478085D01*
G37*
G36*
X141379591Y-53478085D02*
G01*
X141413569Y-53488393D01*
X141444890Y-53505134D01*
X141472339Y-53527661D01*
X141494866Y-53555110D01*
X141511607Y-53586431D01*
X141521915Y-53620409D01*
X141526000Y-53661890D01*
X141526000Y-54338110D01*
X141521915Y-54379591D01*
X141511607Y-54413569D01*
X141494866Y-54444890D01*
X141472339Y-54472339D01*
X141444890Y-54494866D01*
X141413569Y-54511607D01*
X141379591Y-54521915D01*
X141338110Y-54526000D01*
X140736890Y-54526000D01*
X140695409Y-54521915D01*
X140661431Y-54511607D01*
X140630110Y-54494866D01*
X140602661Y-54472339D01*
X140580134Y-54444890D01*
X140563393Y-54413569D01*
X140553085Y-54379591D01*
X140549000Y-54338110D01*
X140549000Y-53661890D01*
X140553085Y-53620409D01*
X140563393Y-53586431D01*
X140580134Y-53555110D01*
X140602661Y-53527661D01*
X140630110Y-53505134D01*
X140661431Y-53488393D01*
X140695409Y-53478085D01*
X140736890Y-53474000D01*
X141338110Y-53474000D01*
X141379591Y-53478085D01*
X141379591Y-53478085D01*
G37*
G36*
X81609468Y-52653565D02*
G01*
X81648138Y-52665296D01*
X81683777Y-52684346D01*
X81715017Y-52709983D01*
X81740654Y-52741223D01*
X81759704Y-52776862D01*
X81771435Y-52815532D01*
X81776000Y-52861888D01*
X81776000Y-53513112D01*
X81771435Y-53559468D01*
X81759704Y-53598138D01*
X81740654Y-53633777D01*
X81715017Y-53665017D01*
X81683777Y-53690654D01*
X81648138Y-53709704D01*
X81609468Y-53721435D01*
X81563112Y-53726000D01*
X80486888Y-53726000D01*
X80440532Y-53721435D01*
X80401862Y-53709704D01*
X80366223Y-53690654D01*
X80334983Y-53665017D01*
X80309346Y-53633777D01*
X80290296Y-53598138D01*
X80278565Y-53559468D01*
X80274000Y-53513112D01*
X80274000Y-52861888D01*
X80278565Y-52815532D01*
X80290296Y-52776862D01*
X80309346Y-52741223D01*
X80334983Y-52709983D01*
X80366223Y-52684346D01*
X80401862Y-52665296D01*
X80440532Y-52653565D01*
X80486888Y-52649000D01*
X81563112Y-52649000D01*
X81609468Y-52653565D01*
X81609468Y-52653565D01*
G37*
G36*
X76286000Y-53126000D02*
G01*
X74884000Y-53126000D01*
X74884000Y-52024000D01*
X76286000Y-52024000D01*
X76286000Y-53126000D01*
X76286000Y-53126000D01*
G37*
G36*
X64626000Y-53126000D02*
G01*
X63224000Y-53126000D01*
X63224000Y-52024000D01*
X64626000Y-52024000D01*
X64626000Y-53126000D01*
X64626000Y-53126000D01*
G37*
G36*
X79151000Y-52951000D02*
G01*
X77249000Y-52951000D01*
X77249000Y-50349000D01*
X79151000Y-50349000D01*
X79151000Y-52951000D01*
X79151000Y-52951000D01*
G37*
G36*
X103687915Y-50457334D02*
G01*
X103796491Y-50490271D01*
X103796494Y-50490272D01*
X103832600Y-50509571D01*
X103896556Y-50543756D01*
X103984264Y-50615736D01*
X104056244Y-50703443D01*
X104090429Y-50767399D01*
X104109728Y-50803505D01*
X104109728Y-50803506D01*
X104109729Y-50803508D01*
X104142666Y-50912084D01*
X104151000Y-50996702D01*
X104151000Y-51903298D01*
X104142666Y-51987916D01*
X104109729Y-52096491D01*
X104109728Y-52096495D01*
X104090429Y-52132601D01*
X104056244Y-52196557D01*
X103984264Y-52284264D01*
X103896557Y-52356244D01*
X103832601Y-52390429D01*
X103796495Y-52409728D01*
X103796492Y-52409729D01*
X103687916Y-52442666D01*
X103575000Y-52453787D01*
X103462085Y-52442666D01*
X103353509Y-52409729D01*
X103353506Y-52409728D01*
X103317400Y-52390429D01*
X103253444Y-52356244D01*
X103165737Y-52284264D01*
X103093757Y-52196557D01*
X103059572Y-52132601D01*
X103040273Y-52096495D01*
X103040272Y-52096491D01*
X103007335Y-51987916D01*
X102999000Y-51903298D01*
X102999000Y-50996703D01*
X103007334Y-50912085D01*
X103040271Y-50803509D01*
X103040272Y-50803506D01*
X103059571Y-50767400D01*
X103093756Y-50703444D01*
X103165736Y-50615736D01*
X103253443Y-50543756D01*
X103317399Y-50509571D01*
X103353505Y-50490272D01*
X103353508Y-50490271D01*
X103462084Y-50457334D01*
X103575000Y-50446213D01*
X103687915Y-50457334D01*
X103687915Y-50457334D01*
G37*
G36*
X96537916Y-50457334D02*
G01*
X96646492Y-50490271D01*
X96646495Y-50490272D01*
X96682601Y-50509571D01*
X96746557Y-50543756D01*
X96834264Y-50615736D01*
X96906244Y-50703443D01*
X96940429Y-50767399D01*
X96959728Y-50803505D01*
X96959728Y-50803506D01*
X96959729Y-50803508D01*
X96992666Y-50912084D01*
X97001000Y-50996702D01*
X97001000Y-51903298D01*
X96992666Y-51987916D01*
X96959729Y-52096491D01*
X96959728Y-52096495D01*
X96940429Y-52132601D01*
X96906244Y-52196557D01*
X96834264Y-52284264D01*
X96746556Y-52356244D01*
X96682600Y-52390429D01*
X96646494Y-52409728D01*
X96646491Y-52409729D01*
X96537915Y-52442666D01*
X96425000Y-52453787D01*
X96312084Y-52442666D01*
X96203508Y-52409729D01*
X96203505Y-52409728D01*
X96167399Y-52390429D01*
X96103443Y-52356244D01*
X96015736Y-52284264D01*
X95943756Y-52196556D01*
X95890273Y-52096495D01*
X95890272Y-52096494D01*
X95890271Y-52096491D01*
X95857334Y-51987915D01*
X95849000Y-51903297D01*
X95849000Y-50996702D01*
X95857335Y-50912084D01*
X95890272Y-50803508D01*
X95890273Y-50803506D01*
X95890273Y-50803505D01*
X95909572Y-50767399D01*
X95943757Y-50703443D01*
X96015737Y-50615736D01*
X96103444Y-50543756D01*
X96167400Y-50509571D01*
X96203506Y-50490272D01*
X96203509Y-50490271D01*
X96312085Y-50457334D01*
X96425000Y-50446213D01*
X96537916Y-50457334D01*
X96537916Y-50457334D01*
G37*
G36*
X81609468Y-50778565D02*
G01*
X81648138Y-50790296D01*
X81683777Y-50809346D01*
X81715017Y-50834983D01*
X81740654Y-50866223D01*
X81759704Y-50901862D01*
X81771435Y-50940532D01*
X81776000Y-50986888D01*
X81776000Y-51638112D01*
X81771435Y-51684468D01*
X81759704Y-51723138D01*
X81740654Y-51758777D01*
X81715017Y-51790017D01*
X81683777Y-51815654D01*
X81648138Y-51834704D01*
X81609468Y-51846435D01*
X81563112Y-51851000D01*
X80486888Y-51851000D01*
X80440532Y-51846435D01*
X80401862Y-51834704D01*
X80366223Y-51815654D01*
X80334983Y-51790017D01*
X80309346Y-51758777D01*
X80290296Y-51723138D01*
X80278565Y-51684468D01*
X80274000Y-51638112D01*
X80274000Y-50986888D01*
X80278565Y-50940532D01*
X80290296Y-50901862D01*
X80309346Y-50866223D01*
X80334983Y-50834983D01*
X80366223Y-50809346D01*
X80401862Y-50790296D01*
X80440532Y-50778565D01*
X80486888Y-50774000D01*
X81563112Y-50774000D01*
X81609468Y-50778565D01*
X81609468Y-50778565D01*
G37*
M02*
