G04 #@! TF.GenerationSoftware,KiCad,Pcbnew,(5.0.0)*
G04 #@! TF.CreationDate,2018-09-03T15:40:08-07:00*
G04 #@! TF.ProjectId,nixie_psu_breakout,6E697869655F7073755F627265616B6F,rev?*
G04 #@! TF.SameCoordinates,Original*
G04 #@! TF.FileFunction,Legend,Top*
G04 #@! TF.FilePolarity,Positive*
%FSLAX46Y46*%
G04 Gerber Fmt 4.6, Leading zero omitted, Abs format (unit mm)*
G04 Created by KiCad (PCBNEW (5.0.0)) date 09/03/18 15:40:08*
%MOMM*%
%LPD*%
G01*
G04 APERTURE LIST*
%ADD10C,0.150000*%
%ADD11C,0.120000*%
G04 APERTURE END LIST*
D10*
G04 #@! TO.C,T1*
X144500000Y-96700000D02*
X135500000Y-96700000D01*
X135500000Y-96700000D02*
X135500000Y-86300000D01*
X135500000Y-86300000D02*
X144500000Y-86300000D01*
X144500000Y-86300000D02*
X144500000Y-96700000D01*
G04 #@! TO.C,D1*
X145000000Y-83600000D02*
X145000000Y-87200000D01*
X147000000Y-83600000D02*
X147000000Y-87200000D01*
D11*
G04 #@! TO.C,R6*
X132300000Y-94530000D02*
X131300000Y-94530000D01*
X131300000Y-93170000D02*
X132300000Y-93170000D01*
D10*
G04 #@! TO.C,U1*
X131925000Y-88475000D02*
X131925000Y-88540000D01*
X131925000Y-92725000D02*
X131925000Y-92660000D01*
X128675000Y-92725000D02*
X128675000Y-92660000D01*
X128675000Y-88475000D02*
X131925000Y-88475000D01*
X128675000Y-92725000D02*
X131925000Y-92725000D01*
X128675000Y-88475000D02*
X127750000Y-88475000D01*
D11*
G04 #@! TO.C,R5*
X126320000Y-86750000D02*
X126320000Y-85750000D01*
X127680000Y-85750000D02*
X127680000Y-86750000D01*
G04 #@! TO.C,R4*
X129800000Y-94680000D02*
X128600000Y-94680000D01*
X128600000Y-92920000D02*
X129800000Y-92920000D01*
G04 #@! TO.C,R3*
X126320000Y-89050000D02*
X126320000Y-88050000D01*
X127680000Y-88050000D02*
X127680000Y-89050000D01*
G04 #@! TO.C,R2*
X129500000Y-88280000D02*
X128500000Y-88280000D01*
X128500000Y-86920000D02*
X129500000Y-86920000D01*
G04 #@! TO.C,R1*
X127680000Y-92950000D02*
X127680000Y-93950000D01*
X126320000Y-93950000D02*
X126320000Y-92950000D01*
G04 #@! TO.C,C3*
X129700000Y-85250000D02*
X129700000Y-85950000D01*
X128500000Y-85950000D02*
X128500000Y-85250000D01*
G04 #@! TO.C,C2*
X132900000Y-86600000D02*
X131900000Y-86600000D01*
X131900000Y-88300000D02*
X132900000Y-88300000D01*
G04 #@! TO.C,C4*
X126400000Y-91350000D02*
X126400000Y-90650000D01*
X127600000Y-90650000D02*
X127600000Y-91350000D01*
G04 #@! TO.C,C1*
X132900000Y-83470000D02*
X130900000Y-83470000D01*
X130900000Y-86430000D02*
X132900000Y-86430000D01*
G04 #@! TO.C,C5*
X140000000Y-80370000D02*
X135400000Y-80370000D01*
X135400000Y-85830000D02*
X140000000Y-85830000D01*
G04 #@! TO.C,C6*
X141270000Y-81550000D02*
X141270000Y-85150000D01*
X144730000Y-85150000D02*
X144730000Y-81550000D01*
G04 #@! TO.C,C7*
X134550000Y-90950000D02*
X133850000Y-90950000D01*
X133850000Y-89750000D02*
X134550000Y-89750000D01*
G04 #@! TO.C,Q1*
X129285000Y-99900000D02*
X129285000Y-100100000D01*
X129285000Y-100100000D02*
X133585000Y-100100000D01*
X133585000Y-100100000D02*
X133585000Y-99950000D01*
X133585000Y-95050000D02*
X133585000Y-94900000D01*
X133585000Y-94900000D02*
X129285000Y-94900000D01*
X129285000Y-94900000D02*
X129285000Y-95100000D01*
G04 #@! TO.C,C8*
X132900000Y-80320000D02*
X130900000Y-80320000D01*
X130900000Y-83280000D02*
X132900000Y-83280000D01*
G04 #@! TD*
M02*
