G04 #@! TF.GenerationSoftware,KiCad,Pcbnew,(5.0.2)-1*
G04 #@! TF.CreationDate,2019-02-23T20:37:34-08:00*
G04 #@! TF.ProjectId,nixie_bottom_board,6e697869-655f-4626-9f74-746f6d5f626f,rev?*
G04 #@! TF.SameCoordinates,Original*
G04 #@! TF.FileFunction,Copper,L2,Inr*
G04 #@! TF.FilePolarity,Positive*
%FSLAX46Y46*%
G04 Gerber Fmt 4.6, Leading zero omitted, Abs format (unit mm)*
G04 Created by KiCad (PCBNEW (5.0.2)-1) date 2/23/2019 8:37:34 PM*
%MOMM*%
%LPD*%
G01*
G04 APERTURE LIST*
G04 #@! TA.AperFunction,ViaPad*
%ADD10C,1.200000*%
G04 #@! TD*
G04 #@! TA.AperFunction,ViaPad*
%ADD11C,0.650000*%
G04 #@! TD*
G04 #@! TA.AperFunction,ViaPad*
%ADD12C,2.000000*%
G04 #@! TD*
G04 #@! TA.AperFunction,ViaPad*
%ADD13C,1.600000*%
G04 #@! TD*
G04 #@! TA.AperFunction,ViaPad*
%ADD14C,1.500000*%
G04 #@! TD*
G04 #@! TA.AperFunction,ViaPad*
%ADD15C,1.350000*%
G04 #@! TD*
G04 #@! TA.AperFunction,ViaPad*
%ADD16O,1.350000X1.350000*%
G04 #@! TD*
G04 #@! TA.AperFunction,ViaPad*
%ADD17C,0.800000*%
G04 #@! TD*
G04 #@! TA.AperFunction,ViaPad*
%ADD18C,4.500000*%
G04 #@! TD*
G04 #@! TA.AperFunction,ViaPad*
%ADD19C,5.000000*%
G04 #@! TD*
G04 #@! TA.AperFunction,ViaPad*
%ADD20C,2.500000*%
G04 #@! TD*
G04 #@! TA.AperFunction,ViaPad*
%ADD21C,0.508000*%
G04 #@! TD*
G04 #@! TA.AperFunction,Conductor*
%ADD22C,0.400000*%
G04 #@! TD*
G04 #@! TA.AperFunction,Conductor*
%ADD23C,0.200000*%
G04 #@! TD*
G04 #@! TA.AperFunction,Conductor*
%ADD24C,0.150000*%
G04 #@! TD*
G04 APERTURE END LIST*
D10*
G04 #@! TO.N,/GND*
G04 #@! TO.C,J1*
X146155000Y-98310000D03*
X153845000Y-98310000D03*
D11*
X152400000Y-95410000D03*
X151600000Y-95410000D03*
X150800000Y-95410000D03*
G04 #@! TO.N,/CC2*
X149200000Y-95410000D03*
G04 #@! TO.N,/GND*
X148400000Y-95410000D03*
X147600000Y-95410000D03*
X152800000Y-96110000D03*
G04 #@! TO.N,/VBUS*
X151200000Y-96110000D03*
G04 #@! TO.N,/USB_N*
X150400000Y-96110000D03*
G04 #@! TO.N,/USB_P*
X149600000Y-96110000D03*
G04 #@! TO.N,/VBUS*
X148800000Y-96110000D03*
G04 #@! TO.N,/GND*
X147200000Y-96110000D03*
D12*
X154220000Y-92995000D03*
X145780000Y-92995000D03*
D13*
X145870000Y-95510000D03*
X154130000Y-95510000D03*
G04 #@! TD*
D14*
G04 #@! TO.N,/UART_RX*
G04 #@! TO.C,J20*
X142300000Y-108400000D03*
G04 #@! TD*
G04 #@! TO.N,/UART_TX*
G04 #@! TO.C,J19*
X139760000Y-108400000D03*
G04 #@! TD*
D15*
G04 #@! TO.N,/VNIXIE*
G04 #@! TO.C,J4*
X101500000Y-98000000D03*
D16*
G04 #@! TO.N,/GND*
X103500000Y-98000000D03*
X101500000Y-100000000D03*
G04 #@! TO.N,/SCL*
X103500000Y-100000000D03*
G04 #@! TO.N,/NIXIE_EN*
X101500000Y-102000000D03*
G04 #@! TO.N,/SDA*
X103500000Y-102000000D03*
G04 #@! TD*
D15*
G04 #@! TO.N,/HV_OUT*
G04 #@! TO.C,J3*
X196500000Y-98000000D03*
D16*
G04 #@! TO.N,/GND*
X198500000Y-98000000D03*
G04 #@! TO.N,/HV_OUT*
X196500000Y-100000000D03*
G04 #@! TO.N,/GND*
X198500000Y-100000000D03*
G04 #@! TO.N,/HV_OUT*
X196500000Y-102000000D03*
G04 #@! TO.N,/GND*
X198500000Y-102000000D03*
G04 #@! TD*
D17*
G04 #@! TO.N,/GND*
G04 #@! TO.C,MH1*
X104237437Y-91862563D03*
X104750000Y-93100000D03*
X104237437Y-94337437D03*
X103000000Y-94850000D03*
X101762563Y-94337437D03*
X101250000Y-93100000D03*
X101762563Y-91862563D03*
X103000000Y-91350000D03*
D18*
X103000000Y-93100000D03*
G04 #@! TD*
G04 #@! TO.N,/GND*
G04 #@! TO.C,MH2*
X103000000Y-107000000D03*
D17*
X103000000Y-105250000D03*
X101762563Y-105762563D03*
X101250000Y-107000000D03*
X101762563Y-108237437D03*
X103000000Y-108750000D03*
X104237437Y-108237437D03*
X104750000Y-107000000D03*
X104237437Y-105762563D03*
G04 #@! TD*
G04 #@! TO.N,/GND*
G04 #@! TO.C,MH3*
X198237437Y-91762563D03*
X198750000Y-93000000D03*
X198237437Y-94237437D03*
X197000000Y-94750000D03*
X195762563Y-94237437D03*
X195250000Y-93000000D03*
X195762563Y-91762563D03*
X197000000Y-91250000D03*
D18*
X197000000Y-93000000D03*
G04 #@! TD*
G04 #@! TO.N,/GND*
G04 #@! TO.C,MH4*
X197000000Y-107200000D03*
D17*
X197000000Y-105450000D03*
X195762563Y-105962563D03*
X195250000Y-107200000D03*
X195762563Y-108437437D03*
X197000000Y-108950000D03*
X198237437Y-108437437D03*
X198750000Y-107200000D03*
X198237437Y-105962563D03*
G04 #@! TD*
D19*
G04 #@! TO.N,/GND*
G04 #@! TO.C,MH6*
X157000000Y-100000000D03*
D17*
X158875000Y-100000000D03*
X158325825Y-101325825D03*
X157000000Y-101875000D03*
X155674175Y-101325825D03*
X155125000Y-100000000D03*
X155674175Y-98674175D03*
X157000000Y-98125000D03*
X158325825Y-98674175D03*
G04 #@! TD*
G04 #@! TO.N,/GND*
G04 #@! TO.C,MH5*
X144325825Y-98674175D03*
X143000000Y-98125000D03*
X141674175Y-98674175D03*
X141125000Y-100000000D03*
X141674175Y-101325825D03*
X143000000Y-101875000D03*
X144325825Y-101325825D03*
X144875000Y-100000000D03*
D19*
X143000000Y-100000000D03*
G04 #@! TD*
D20*
G04 #@! TO.N,*
G04 #@! TO.C,BT1*
X106800000Y-100000000D03*
G04 #@! TO.N,Net-(BT1-Pad1)*
X125600000Y-100000000D03*
G04 #@! TD*
D21*
G04 #@! TO.N,Net-(Q1-Pad1)*
X171200000Y-105200000D03*
X171800000Y-105200000D03*
X171200000Y-104600000D03*
X171800000Y-104600000D03*
X171200000Y-104000000D03*
X171800000Y-104000000D03*
X171200000Y-103400000D03*
X171800000Y-103400000D03*
X171200000Y-102800000D03*
X171800000Y-102800000D03*
X171200000Y-102200000D03*
X171800000Y-102200000D03*
G04 #@! TO.N,/HV_OUT*
X164600000Y-95400000D03*
X190250000Y-99900000D03*
X183200000Y-92500000D03*
G04 #@! TO.N,/VDD*
X130600000Y-92400000D03*
X139800000Y-106450000D03*
X145950000Y-100700000D03*
X159600000Y-103100000D03*
X159000000Y-103100000D03*
X158400000Y-103100000D03*
X157800000Y-103100000D03*
X138850000Y-93900000D03*
X159600000Y-103700000D03*
X159000000Y-103700000D03*
X157800000Y-103700000D03*
X158400000Y-103700000D03*
X131230000Y-103835000D03*
X138900000Y-99300000D03*
X138000000Y-102450000D03*
X138850000Y-96900000D03*
X128650000Y-92300000D03*
X151000000Y-106850000D03*
X156000000Y-106860000D03*
G04 #@! TO.N,/VNIXIE*
X124800000Y-94450000D03*
X125400000Y-94450000D03*
X124200000Y-94450000D03*
G04 #@! TO.N,/SCL*
X130000000Y-93100000D03*
X136950000Y-106300000D03*
G04 #@! TO.N,/SDA*
X129500000Y-93600000D03*
X135675000Y-106600000D03*
G04 #@! TO.N,/HV_EN*
X169500000Y-96500000D03*
X157900000Y-94500000D03*
X157900000Y-91700000D03*
G04 #@! TO.N,/SWO*
X133150000Y-101100000D03*
G04 #@! TO.N,/NRST*
X137800000Y-94400000D03*
X146500000Y-106850000D03*
X133770000Y-103835000D03*
X133135000Y-100035000D03*
G04 #@! TO.N,/DAC*
X135400000Y-91000000D03*
X127200000Y-97100000D03*
G04 #@! TO.N,/USB_N*
X149600000Y-98500000D03*
X130900000Y-94325000D03*
G04 #@! TO.N,/USB_P*
X130900000Y-94975000D03*
X150400000Y-98500000D03*
G04 #@! TO.N,Net-(D4-Pad2)*
X184000000Y-102800000D03*
X184600000Y-102800000D03*
X185800000Y-102800000D03*
X186400000Y-102800000D03*
X186400000Y-102200000D03*
X185800000Y-102200000D03*
X184600000Y-102200000D03*
X184000000Y-102200000D03*
X185200000Y-102200000D03*
X185200000Y-102800000D03*
G04 #@! TO.N,/SWDIO*
X131500000Y-95400000D03*
G04 #@! TO.N,/SWCLK*
X131500000Y-96400000D03*
G04 #@! TO.N,/HV_IN*
X171800000Y-94800000D03*
X171200000Y-94800000D03*
X171200000Y-95400000D03*
X171800000Y-95400000D03*
X171800000Y-97200000D03*
X171800000Y-97800000D03*
X171200000Y-97200000D03*
X171200000Y-97800000D03*
X171800000Y-96600000D03*
X171200000Y-96600000D03*
X171200000Y-96000000D03*
X171800000Y-96000000D03*
G04 #@! TO.N,/USB*
X147400000Y-103200000D03*
X133900000Y-97300000D03*
G04 #@! TO.N,/ILM*
X142800000Y-92900000D03*
G04 #@! TO.N,/32kHz*
X137800000Y-98550000D03*
X139600000Y-95400000D03*
G04 #@! TO.N,/AMP_EN*
X130300000Y-95400000D03*
X133400000Y-91000000D03*
G04 #@! TO.N,/NIXIE_EN*
X134400000Y-91000000D03*
G04 #@! TO.N,/MCO*
X131500000Y-92900000D03*
G04 #@! TO.N,/LED*
X138200000Y-94900000D03*
X146650000Y-103200000D03*
G04 #@! TO.N,Net-(R2-Pad1)*
X139600000Y-97800000D03*
X153500000Y-105150000D03*
G04 #@! TO.N,Net-(R20-Pad2)*
X137800000Y-92900000D03*
X180500000Y-91000000D03*
G04 #@! TO.N,/GND*
X152200000Y-104500000D03*
X134500000Y-93800000D03*
X133900000Y-93800000D03*
X133300000Y-93800000D03*
X134500000Y-95500000D03*
X133900000Y-95500000D03*
X133300000Y-95500000D03*
X171900000Y-101300000D03*
X171300000Y-101300000D03*
X167687500Y-99668750D03*
X168512500Y-99668750D03*
X168512500Y-98956250D03*
X167687500Y-98956250D03*
X167687500Y-98243750D03*
X168512500Y-98243750D03*
X168512500Y-97531250D03*
X167687500Y-97531250D03*
X166350000Y-100800000D03*
X165750000Y-100800000D03*
X164600000Y-99750000D03*
X164500000Y-92800000D03*
X162100000Y-95200000D03*
X162700000Y-95200000D03*
X163300000Y-95200000D03*
X130900000Y-95900000D03*
X159700000Y-106700000D03*
X163000000Y-105000000D03*
X163000000Y-105600000D03*
X163000000Y-106200000D03*
X163000000Y-106800000D03*
X163000000Y-107400000D03*
X165100000Y-92800000D03*
X164500000Y-93400000D03*
X165100000Y-93400000D03*
X150000000Y-100700000D03*
X165850000Y-96150000D03*
X166450000Y-96150000D03*
X166450000Y-95550000D03*
X165850000Y-95550000D03*
X151700000Y-102550000D03*
X172600000Y-93500000D03*
X173200000Y-93500000D03*
X173800000Y-93500000D03*
X157900000Y-106100000D03*
X159100000Y-106100000D03*
X159700000Y-106100000D03*
X132500000Y-103835000D03*
X174400000Y-93500000D03*
X137000000Y-96500000D03*
X141000000Y-96100000D03*
X158500000Y-106100000D03*
X158500000Y-106700000D03*
X159100000Y-106700000D03*
X157900000Y-106700000D03*
X127150000Y-92300000D03*
G04 #@! TO.N,/VBUS*
X165000000Y-101400000D03*
X164400000Y-101400000D03*
X165000000Y-102000000D03*
X165000000Y-102600000D03*
X165000000Y-103200000D03*
X160200000Y-94900000D03*
X159300000Y-95400000D03*
X159900000Y-95400000D03*
X160500000Y-95400000D03*
X161100000Y-95400000D03*
X160800000Y-94900000D03*
X151600000Y-98200000D03*
X151600000Y-98800000D03*
X148400000Y-98200000D03*
X148400000Y-98800000D03*
X148000000Y-96100000D03*
X165000000Y-103800000D03*
X152000000Y-96100000D03*
X163250000Y-100400000D03*
G04 #@! TO.N,/UART_TX*
X134900000Y-97300000D03*
G04 #@! TO.N,/UART_RX*
X135600000Y-97300000D03*
G04 #@! TD*
D22*
G04 #@! TO.N,/HV_OUT*
X196500000Y-98000000D02*
X196500000Y-100000000D01*
X196500000Y-100000000D02*
X196500000Y-102000000D01*
X191000000Y-92500000D02*
X196500000Y-98000000D01*
X164600000Y-95400000D02*
X167500000Y-92500000D01*
X167500000Y-92500000D02*
X183200000Y-92500000D01*
X183200000Y-92500000D02*
X191000000Y-92500000D01*
D23*
G04 #@! TO.N,/DAC*
X134900000Y-96400000D02*
X133200000Y-96400000D01*
X135400000Y-95900000D02*
X134900000Y-96400000D01*
X135400000Y-91000000D02*
X135400000Y-95900000D01*
X127200000Y-97100000D02*
X132500000Y-97100000D01*
X133200000Y-96400000D02*
X132500000Y-97100000D01*
D22*
G04 #@! TO.N,Net-(R20-Pad2)*
X139700000Y-91000000D02*
X137800000Y-92900000D01*
X180500000Y-91000000D02*
X139700000Y-91000000D01*
G04 #@! TD*
D24*
G04 #@! TO.N,/VDD*
G36*
X196713508Y-90396518D02*
X196973451Y-90475000D01*
X196751309Y-90475000D01*
X196263485Y-90572035D01*
X195803964Y-90762374D01*
X195390407Y-91038705D01*
X195038705Y-91390407D01*
X194762374Y-91803964D01*
X194572035Y-92263485D01*
X194475000Y-92751309D01*
X194475000Y-93248691D01*
X194572035Y-93736515D01*
X194762374Y-94196036D01*
X195038705Y-94609593D01*
X195390407Y-94961295D01*
X195803964Y-95237626D01*
X196263485Y-95427965D01*
X196751309Y-95525000D01*
X197248691Y-95525000D01*
X197736515Y-95427965D01*
X198196036Y-95237626D01*
X198609593Y-94961295D01*
X198961295Y-94609593D01*
X199237626Y-94196036D01*
X199427965Y-93736515D01*
X199525000Y-93248691D01*
X199525000Y-93024195D01*
X199598412Y-93261352D01*
X199674962Y-93989675D01*
X199675001Y-94000841D01*
X199675000Y-105984103D01*
X199603482Y-106713508D01*
X199525000Y-106973452D01*
X199525000Y-106951309D01*
X199427965Y-106463485D01*
X199237626Y-106003964D01*
X198961295Y-105590407D01*
X198609593Y-105238705D01*
X198196036Y-104962374D01*
X197736515Y-104772035D01*
X197248691Y-104675000D01*
X196751309Y-104675000D01*
X196263485Y-104772035D01*
X195803964Y-104962374D01*
X195390407Y-105238705D01*
X195038705Y-105590407D01*
X194762374Y-106003964D01*
X194572035Y-106463485D01*
X194475000Y-106951309D01*
X194475000Y-107448691D01*
X194572035Y-107936515D01*
X194762374Y-108396036D01*
X195038705Y-108809593D01*
X195390407Y-109161295D01*
X195803964Y-109437626D01*
X196263485Y-109627965D01*
X196330550Y-109641305D01*
X196010325Y-109674962D01*
X195999447Y-109675000D01*
X104015897Y-109675000D01*
X103286492Y-109603482D01*
X103026548Y-109525000D01*
X103248691Y-109525000D01*
X103736515Y-109427965D01*
X104196036Y-109237626D01*
X104609593Y-108961295D01*
X104961295Y-108609593D01*
X105168796Y-108299046D01*
X138735000Y-108299046D01*
X138735000Y-108500954D01*
X138774390Y-108698982D01*
X138851656Y-108885520D01*
X138963830Y-109053400D01*
X139106600Y-109196170D01*
X139274480Y-109308344D01*
X139461018Y-109385610D01*
X139659046Y-109425000D01*
X139860954Y-109425000D01*
X140058982Y-109385610D01*
X140245520Y-109308344D01*
X140413400Y-109196170D01*
X140556170Y-109053400D01*
X140668344Y-108885520D01*
X140745610Y-108698982D01*
X140785000Y-108500954D01*
X140785000Y-108299046D01*
X141275000Y-108299046D01*
X141275000Y-108500954D01*
X141314390Y-108698982D01*
X141391656Y-108885520D01*
X141503830Y-109053400D01*
X141646600Y-109196170D01*
X141814480Y-109308344D01*
X142001018Y-109385610D01*
X142199046Y-109425000D01*
X142400954Y-109425000D01*
X142598982Y-109385610D01*
X142785520Y-109308344D01*
X142953400Y-109196170D01*
X143096170Y-109053400D01*
X143208344Y-108885520D01*
X143285610Y-108698982D01*
X143325000Y-108500954D01*
X143325000Y-108299046D01*
X143285610Y-108101018D01*
X143208344Y-107914480D01*
X143096170Y-107746600D01*
X142953400Y-107603830D01*
X142785520Y-107491656D01*
X142598982Y-107414390D01*
X142400954Y-107375000D01*
X142199046Y-107375000D01*
X142001018Y-107414390D01*
X141814480Y-107491656D01*
X141646600Y-107603830D01*
X141503830Y-107746600D01*
X141391656Y-107914480D01*
X141314390Y-108101018D01*
X141275000Y-108299046D01*
X140785000Y-108299046D01*
X140745610Y-108101018D01*
X140668344Y-107914480D01*
X140556170Y-107746600D01*
X140413400Y-107603830D01*
X140245520Y-107491656D01*
X140058982Y-107414390D01*
X139860954Y-107375000D01*
X139659046Y-107375000D01*
X139461018Y-107414390D01*
X139274480Y-107491656D01*
X139106600Y-107603830D01*
X138963830Y-107746600D01*
X138851656Y-107914480D01*
X138774390Y-108101018D01*
X138735000Y-108299046D01*
X105168796Y-108299046D01*
X105237626Y-108196036D01*
X105427965Y-107736515D01*
X105525000Y-107248691D01*
X105525000Y-106751309D01*
X105484539Y-106547898D01*
X135146000Y-106547898D01*
X135146000Y-106652102D01*
X135166329Y-106754304D01*
X135206206Y-106850576D01*
X135264099Y-106937218D01*
X135337782Y-107010901D01*
X135424424Y-107068794D01*
X135520696Y-107108671D01*
X135622898Y-107129000D01*
X135727102Y-107129000D01*
X135829304Y-107108671D01*
X135925576Y-107068794D01*
X136012218Y-107010901D01*
X136085901Y-106937218D01*
X136143794Y-106850576D01*
X136183671Y-106754304D01*
X136204000Y-106652102D01*
X136204000Y-106547898D01*
X136183671Y-106445696D01*
X136143794Y-106349424D01*
X136085901Y-106262782D01*
X136071017Y-106247898D01*
X136421000Y-106247898D01*
X136421000Y-106352102D01*
X136441329Y-106454304D01*
X136481206Y-106550576D01*
X136539099Y-106637218D01*
X136612782Y-106710901D01*
X136699424Y-106768794D01*
X136795696Y-106808671D01*
X136897898Y-106829000D01*
X137002102Y-106829000D01*
X137104304Y-106808671D01*
X137130312Y-106797898D01*
X145971000Y-106797898D01*
X145971000Y-106902102D01*
X145991329Y-107004304D01*
X146031206Y-107100576D01*
X146089099Y-107187218D01*
X146162782Y-107260901D01*
X146249424Y-107318794D01*
X146345696Y-107358671D01*
X146447898Y-107379000D01*
X146552102Y-107379000D01*
X146654304Y-107358671D01*
X146750576Y-107318794D01*
X146837218Y-107260901D01*
X146910901Y-107187218D01*
X146968794Y-107100576D01*
X147008671Y-107004304D01*
X147029000Y-106902102D01*
X147029000Y-106797898D01*
X147008671Y-106695696D01*
X146968794Y-106599424D01*
X146910901Y-106512782D01*
X146837218Y-106439099D01*
X146750576Y-106381206D01*
X146654304Y-106341329D01*
X146552102Y-106321000D01*
X146447898Y-106321000D01*
X146345696Y-106341329D01*
X146249424Y-106381206D01*
X146162782Y-106439099D01*
X146089099Y-106512782D01*
X146031206Y-106599424D01*
X145991329Y-106695696D01*
X145971000Y-106797898D01*
X137130312Y-106797898D01*
X137200576Y-106768794D01*
X137287218Y-106710901D01*
X137360901Y-106637218D01*
X137418794Y-106550576D01*
X137458671Y-106454304D01*
X137479000Y-106352102D01*
X137479000Y-106247898D01*
X137458671Y-106145696D01*
X137418794Y-106049424D01*
X137417775Y-106047898D01*
X157371000Y-106047898D01*
X157371000Y-106152102D01*
X157391329Y-106254304D01*
X157431206Y-106350576D01*
X157464230Y-106400000D01*
X157431206Y-106449424D01*
X157391329Y-106545696D01*
X157371000Y-106647898D01*
X157371000Y-106752102D01*
X157391329Y-106854304D01*
X157431206Y-106950576D01*
X157489099Y-107037218D01*
X157562782Y-107110901D01*
X157649424Y-107168794D01*
X157745696Y-107208671D01*
X157847898Y-107229000D01*
X157952102Y-107229000D01*
X158054304Y-107208671D01*
X158150576Y-107168794D01*
X158200000Y-107135770D01*
X158249424Y-107168794D01*
X158345696Y-107208671D01*
X158447898Y-107229000D01*
X158552102Y-107229000D01*
X158654304Y-107208671D01*
X158750576Y-107168794D01*
X158800000Y-107135770D01*
X158849424Y-107168794D01*
X158945696Y-107208671D01*
X159047898Y-107229000D01*
X159152102Y-107229000D01*
X159254304Y-107208671D01*
X159350576Y-107168794D01*
X159400000Y-107135770D01*
X159449424Y-107168794D01*
X159545696Y-107208671D01*
X159647898Y-107229000D01*
X159752102Y-107229000D01*
X159854304Y-107208671D01*
X159950576Y-107168794D01*
X160037218Y-107110901D01*
X160110901Y-107037218D01*
X160168794Y-106950576D01*
X160208671Y-106854304D01*
X160229000Y-106752102D01*
X160229000Y-106647898D01*
X160208671Y-106545696D01*
X160168794Y-106449424D01*
X160135770Y-106400000D01*
X160168794Y-106350576D01*
X160208671Y-106254304D01*
X160229000Y-106152102D01*
X160229000Y-106047898D01*
X160208671Y-105945696D01*
X160168794Y-105849424D01*
X160110901Y-105762782D01*
X160037218Y-105689099D01*
X159950576Y-105631206D01*
X159854304Y-105591329D01*
X159752102Y-105571000D01*
X159647898Y-105571000D01*
X159545696Y-105591329D01*
X159449424Y-105631206D01*
X159400000Y-105664230D01*
X159350576Y-105631206D01*
X159254304Y-105591329D01*
X159152102Y-105571000D01*
X159047898Y-105571000D01*
X158945696Y-105591329D01*
X158849424Y-105631206D01*
X158800000Y-105664230D01*
X158750576Y-105631206D01*
X158654304Y-105591329D01*
X158552102Y-105571000D01*
X158447898Y-105571000D01*
X158345696Y-105591329D01*
X158249424Y-105631206D01*
X158200000Y-105664230D01*
X158150576Y-105631206D01*
X158054304Y-105591329D01*
X157952102Y-105571000D01*
X157847898Y-105571000D01*
X157745696Y-105591329D01*
X157649424Y-105631206D01*
X157562782Y-105689099D01*
X157489099Y-105762782D01*
X157431206Y-105849424D01*
X157391329Y-105945696D01*
X157371000Y-106047898D01*
X137417775Y-106047898D01*
X137360901Y-105962782D01*
X137287218Y-105889099D01*
X137200576Y-105831206D01*
X137104304Y-105791329D01*
X137002102Y-105771000D01*
X136897898Y-105771000D01*
X136795696Y-105791329D01*
X136699424Y-105831206D01*
X136612782Y-105889099D01*
X136539099Y-105962782D01*
X136481206Y-106049424D01*
X136441329Y-106145696D01*
X136421000Y-106247898D01*
X136071017Y-106247898D01*
X136012218Y-106189099D01*
X135925576Y-106131206D01*
X135829304Y-106091329D01*
X135727102Y-106071000D01*
X135622898Y-106071000D01*
X135520696Y-106091329D01*
X135424424Y-106131206D01*
X135337782Y-106189099D01*
X135264099Y-106262782D01*
X135206206Y-106349424D01*
X135166329Y-106445696D01*
X135146000Y-106547898D01*
X105484539Y-106547898D01*
X105427965Y-106263485D01*
X105237626Y-105803964D01*
X104961295Y-105390407D01*
X104668786Y-105097898D01*
X152971000Y-105097898D01*
X152971000Y-105202102D01*
X152991329Y-105304304D01*
X153031206Y-105400576D01*
X153089099Y-105487218D01*
X153162782Y-105560901D01*
X153249424Y-105618794D01*
X153345696Y-105658671D01*
X153447898Y-105679000D01*
X153552102Y-105679000D01*
X153654304Y-105658671D01*
X153750576Y-105618794D01*
X153837218Y-105560901D01*
X153910901Y-105487218D01*
X153968794Y-105400576D01*
X154008671Y-105304304D01*
X154029000Y-105202102D01*
X154029000Y-105097898D01*
X154008671Y-104995696D01*
X153968794Y-104899424D01*
X153910901Y-104812782D01*
X153837218Y-104739099D01*
X153750576Y-104681206D01*
X153654304Y-104641329D01*
X153552102Y-104621000D01*
X153447898Y-104621000D01*
X153345696Y-104641329D01*
X153249424Y-104681206D01*
X153162782Y-104739099D01*
X153089099Y-104812782D01*
X153031206Y-104899424D01*
X152991329Y-104995696D01*
X152971000Y-105097898D01*
X104668786Y-105097898D01*
X104609593Y-105038705D01*
X104196036Y-104762374D01*
X103736515Y-104572035D01*
X103248691Y-104475000D01*
X102751309Y-104475000D01*
X102263485Y-104572035D01*
X101803964Y-104762374D01*
X101390407Y-105038705D01*
X101038705Y-105390407D01*
X100762374Y-105803964D01*
X100572035Y-106263485D01*
X100475000Y-106751309D01*
X100475000Y-106975807D01*
X100401589Y-106738653D01*
X100325038Y-106010325D01*
X100325000Y-105999447D01*
X100325000Y-103124132D01*
X129189700Y-103124132D01*
X129189700Y-103275868D01*
X129219302Y-103424688D01*
X129277369Y-103564874D01*
X129361669Y-103691038D01*
X129468962Y-103798331D01*
X129595126Y-103882631D01*
X129735312Y-103940698D01*
X129884132Y-103970300D01*
X130035868Y-103970300D01*
X130184688Y-103940698D01*
X130324874Y-103882631D01*
X130451038Y-103798331D01*
X130466471Y-103782898D01*
X131971000Y-103782898D01*
X131971000Y-103887102D01*
X131991329Y-103989304D01*
X132031206Y-104085576D01*
X132089099Y-104172218D01*
X132162782Y-104245901D01*
X132249424Y-104303794D01*
X132345696Y-104343671D01*
X132447898Y-104364000D01*
X132552102Y-104364000D01*
X132654304Y-104343671D01*
X132750576Y-104303794D01*
X132837218Y-104245901D01*
X132910901Y-104172218D01*
X132968794Y-104085576D01*
X133008671Y-103989304D01*
X133029000Y-103887102D01*
X133029000Y-103782898D01*
X133241000Y-103782898D01*
X133241000Y-103887102D01*
X133261329Y-103989304D01*
X133301206Y-104085576D01*
X133359099Y-104172218D01*
X133432782Y-104245901D01*
X133519424Y-104303794D01*
X133615696Y-104343671D01*
X133717898Y-104364000D01*
X133822102Y-104364000D01*
X133924304Y-104343671D01*
X134020576Y-104303794D01*
X134107218Y-104245901D01*
X134180901Y-104172218D01*
X134202340Y-104140132D01*
X134269700Y-104140132D01*
X134269700Y-104291868D01*
X134299302Y-104440688D01*
X134357369Y-104580874D01*
X134441669Y-104707038D01*
X134548962Y-104814331D01*
X134675126Y-104898631D01*
X134815312Y-104956698D01*
X134964132Y-104986300D01*
X135115868Y-104986300D01*
X135264688Y-104956698D01*
X135404874Y-104898631D01*
X135531038Y-104814331D01*
X135638331Y-104707038D01*
X135722631Y-104580874D01*
X135777711Y-104447898D01*
X151671000Y-104447898D01*
X151671000Y-104552102D01*
X151691329Y-104654304D01*
X151731206Y-104750576D01*
X151789099Y-104837218D01*
X151862782Y-104910901D01*
X151949424Y-104968794D01*
X152045696Y-105008671D01*
X152147898Y-105029000D01*
X152252102Y-105029000D01*
X152354304Y-105008671D01*
X152450576Y-104968794D01*
X152537218Y-104910901D01*
X152610901Y-104837218D01*
X152668794Y-104750576D01*
X152708671Y-104654304D01*
X152729000Y-104552102D01*
X152729000Y-104447898D01*
X152708671Y-104345696D01*
X152668794Y-104249424D01*
X152610901Y-104162782D01*
X152537218Y-104089099D01*
X152450576Y-104031206D01*
X152354304Y-103991329D01*
X152252102Y-103971000D01*
X152147898Y-103971000D01*
X152045696Y-103991329D01*
X151949424Y-104031206D01*
X151862782Y-104089099D01*
X151789099Y-104162782D01*
X151731206Y-104249424D01*
X151691329Y-104345696D01*
X151671000Y-104447898D01*
X135777711Y-104447898D01*
X135780698Y-104440688D01*
X135810300Y-104291868D01*
X135810300Y-104140132D01*
X135780698Y-103991312D01*
X135722631Y-103851126D01*
X135638331Y-103724962D01*
X135531038Y-103617669D01*
X135404874Y-103533369D01*
X135264688Y-103475302D01*
X135115868Y-103445700D01*
X134964132Y-103445700D01*
X134815312Y-103475302D01*
X134675126Y-103533369D01*
X134548962Y-103617669D01*
X134441669Y-103724962D01*
X134357369Y-103851126D01*
X134299302Y-103991312D01*
X134269700Y-104140132D01*
X134202340Y-104140132D01*
X134238794Y-104085576D01*
X134278671Y-103989304D01*
X134299000Y-103887102D01*
X134299000Y-103782898D01*
X134278671Y-103680696D01*
X134238794Y-103584424D01*
X134180901Y-103497782D01*
X134107218Y-103424099D01*
X134020576Y-103366206D01*
X133924304Y-103326329D01*
X133822102Y-103306000D01*
X133717898Y-103306000D01*
X133615696Y-103326329D01*
X133519424Y-103366206D01*
X133432782Y-103424099D01*
X133359099Y-103497782D01*
X133301206Y-103584424D01*
X133261329Y-103680696D01*
X133241000Y-103782898D01*
X133029000Y-103782898D01*
X133008671Y-103680696D01*
X132968794Y-103584424D01*
X132910901Y-103497782D01*
X132837218Y-103424099D01*
X132750576Y-103366206D01*
X132654304Y-103326329D01*
X132552102Y-103306000D01*
X132447898Y-103306000D01*
X132345696Y-103326329D01*
X132249424Y-103366206D01*
X132162782Y-103424099D01*
X132089099Y-103497782D01*
X132031206Y-103584424D01*
X131991329Y-103680696D01*
X131971000Y-103782898D01*
X130466471Y-103782898D01*
X130558331Y-103691038D01*
X130642631Y-103564874D01*
X130700698Y-103424688D01*
X130730300Y-103275868D01*
X130730300Y-103147898D01*
X146121000Y-103147898D01*
X146121000Y-103252102D01*
X146141329Y-103354304D01*
X146181206Y-103450576D01*
X146239099Y-103537218D01*
X146312782Y-103610901D01*
X146399424Y-103668794D01*
X146495696Y-103708671D01*
X146597898Y-103729000D01*
X146702102Y-103729000D01*
X146804304Y-103708671D01*
X146900576Y-103668794D01*
X146987218Y-103610901D01*
X147025000Y-103573119D01*
X147062782Y-103610901D01*
X147149424Y-103668794D01*
X147245696Y-103708671D01*
X147347898Y-103729000D01*
X147452102Y-103729000D01*
X147554304Y-103708671D01*
X147650576Y-103668794D01*
X147737218Y-103610901D01*
X147810901Y-103537218D01*
X147868794Y-103450576D01*
X147908671Y-103354304D01*
X147929000Y-103252102D01*
X147929000Y-103147898D01*
X147908671Y-103045696D01*
X147868794Y-102949424D01*
X147810901Y-102862782D01*
X147737218Y-102789099D01*
X147650576Y-102731206D01*
X147554304Y-102691329D01*
X147452102Y-102671000D01*
X147347898Y-102671000D01*
X147245696Y-102691329D01*
X147149424Y-102731206D01*
X147062782Y-102789099D01*
X147025000Y-102826881D01*
X146987218Y-102789099D01*
X146900576Y-102731206D01*
X146804304Y-102691329D01*
X146702102Y-102671000D01*
X146597898Y-102671000D01*
X146495696Y-102691329D01*
X146399424Y-102731206D01*
X146312782Y-102789099D01*
X146239099Y-102862782D01*
X146181206Y-102949424D01*
X146141329Y-103045696D01*
X146121000Y-103147898D01*
X130730300Y-103147898D01*
X130730300Y-103124132D01*
X130700698Y-102975312D01*
X130642631Y-102835126D01*
X130558331Y-102708962D01*
X130451038Y-102601669D01*
X130324874Y-102517369D01*
X130184688Y-102459302D01*
X130035868Y-102429700D01*
X129884132Y-102429700D01*
X129735312Y-102459302D01*
X129595126Y-102517369D01*
X129468962Y-102601669D01*
X129361669Y-102708962D01*
X129277369Y-102835126D01*
X129219302Y-102975312D01*
X129189700Y-103124132D01*
X100325000Y-103124132D01*
X100325000Y-102000000D01*
X100545404Y-102000000D01*
X100563746Y-102186232D01*
X100618068Y-102365308D01*
X100706282Y-102530345D01*
X100824999Y-102675001D01*
X100969655Y-102793718D01*
X101134692Y-102881932D01*
X101313768Y-102936254D01*
X101453335Y-102950000D01*
X101546665Y-102950000D01*
X101686232Y-102936254D01*
X101865308Y-102881932D01*
X102030345Y-102793718D01*
X102175001Y-102675001D01*
X102293718Y-102530345D01*
X102381932Y-102365308D01*
X102436254Y-102186232D01*
X102454596Y-102000000D01*
X102545404Y-102000000D01*
X102563746Y-102186232D01*
X102618068Y-102365308D01*
X102706282Y-102530345D01*
X102824999Y-102675001D01*
X102969655Y-102793718D01*
X103134692Y-102881932D01*
X103313768Y-102936254D01*
X103453335Y-102950000D01*
X103546665Y-102950000D01*
X103686232Y-102936254D01*
X103865308Y-102881932D01*
X104030345Y-102793718D01*
X104175001Y-102675001D01*
X104293718Y-102530345D01*
X104381932Y-102365308D01*
X104436254Y-102186232D01*
X104443946Y-102108132D01*
X134269700Y-102108132D01*
X134269700Y-102259868D01*
X134299302Y-102408688D01*
X134357369Y-102548874D01*
X134441669Y-102675038D01*
X134548962Y-102782331D01*
X134675126Y-102866631D01*
X134815312Y-102924698D01*
X134964132Y-102954300D01*
X135115868Y-102954300D01*
X135264688Y-102924698D01*
X135404874Y-102866631D01*
X135531038Y-102782331D01*
X135638331Y-102675038D01*
X135722631Y-102548874D01*
X135780698Y-102408688D01*
X135810300Y-102259868D01*
X135810300Y-102108132D01*
X135780698Y-101959312D01*
X135722631Y-101819126D01*
X135638331Y-101692962D01*
X135531038Y-101585669D01*
X135404874Y-101501369D01*
X135264688Y-101443302D01*
X135115868Y-101413700D01*
X134964132Y-101413700D01*
X134815312Y-101443302D01*
X134675126Y-101501369D01*
X134548962Y-101585669D01*
X134441669Y-101692962D01*
X134357369Y-101819126D01*
X134299302Y-101959312D01*
X134269700Y-102108132D01*
X104443946Y-102108132D01*
X104454596Y-102000000D01*
X104436254Y-101813768D01*
X104381932Y-101634692D01*
X104293718Y-101469655D01*
X104175001Y-101324999D01*
X104030345Y-101206282D01*
X103865308Y-101118068D01*
X103686232Y-101063746D01*
X103546665Y-101050000D01*
X103453335Y-101050000D01*
X103313768Y-101063746D01*
X103134692Y-101118068D01*
X102969655Y-101206282D01*
X102824999Y-101324999D01*
X102706282Y-101469655D01*
X102618068Y-101634692D01*
X102563746Y-101813768D01*
X102545404Y-102000000D01*
X102454596Y-102000000D01*
X102436254Y-101813768D01*
X102381932Y-101634692D01*
X102293718Y-101469655D01*
X102175001Y-101324999D01*
X102030345Y-101206282D01*
X101865308Y-101118068D01*
X101686232Y-101063746D01*
X101546665Y-101050000D01*
X101453335Y-101050000D01*
X101313768Y-101063746D01*
X101134692Y-101118068D01*
X100969655Y-101206282D01*
X100824999Y-101324999D01*
X100706282Y-101469655D01*
X100618068Y-101634692D01*
X100563746Y-101813768D01*
X100545404Y-102000000D01*
X100325000Y-102000000D01*
X100325000Y-99275000D01*
X100885923Y-99275000D01*
X100824999Y-99324999D01*
X100706282Y-99469655D01*
X100618068Y-99634692D01*
X100563746Y-99813768D01*
X100545404Y-100000000D01*
X100563746Y-100186232D01*
X100618068Y-100365308D01*
X100706282Y-100530345D01*
X100824999Y-100675001D01*
X100969655Y-100793718D01*
X101134692Y-100881932D01*
X101313768Y-100936254D01*
X101453335Y-100950000D01*
X101546665Y-100950000D01*
X101686232Y-100936254D01*
X101865308Y-100881932D01*
X102030345Y-100793718D01*
X102175001Y-100675001D01*
X102293718Y-100530345D01*
X102381932Y-100365308D01*
X102436254Y-100186232D01*
X102454596Y-100000000D01*
X102545404Y-100000000D01*
X102563746Y-100186232D01*
X102618068Y-100365308D01*
X102706282Y-100530345D01*
X102824999Y-100675001D01*
X102969655Y-100793718D01*
X103134692Y-100881932D01*
X103313768Y-100936254D01*
X103453335Y-100950000D01*
X103546665Y-100950000D01*
X103686232Y-100936254D01*
X103865308Y-100881932D01*
X104030345Y-100793718D01*
X104175001Y-100675001D01*
X104293718Y-100530345D01*
X104381932Y-100365308D01*
X104436254Y-100186232D01*
X104454596Y-100000000D01*
X104439803Y-99849801D01*
X105275000Y-99849801D01*
X105275000Y-100150199D01*
X105333605Y-100444826D01*
X105448562Y-100722358D01*
X105615455Y-100972131D01*
X105827869Y-101184545D01*
X106077642Y-101351438D01*
X106355174Y-101466395D01*
X106649801Y-101525000D01*
X106950199Y-101525000D01*
X107244826Y-101466395D01*
X107522358Y-101351438D01*
X107772131Y-101184545D01*
X107984545Y-100972131D01*
X108151438Y-100722358D01*
X108266395Y-100444826D01*
X108325000Y-100150199D01*
X108325000Y-99849801D01*
X124075000Y-99849801D01*
X124075000Y-100150199D01*
X124133605Y-100444826D01*
X124248562Y-100722358D01*
X124415455Y-100972131D01*
X124627869Y-101184545D01*
X124877642Y-101351438D01*
X125155174Y-101466395D01*
X125449801Y-101525000D01*
X125750199Y-101525000D01*
X126044826Y-101466395D01*
X126322358Y-101351438D01*
X126572131Y-101184545D01*
X126708778Y-101047898D01*
X132621000Y-101047898D01*
X132621000Y-101152102D01*
X132641329Y-101254304D01*
X132681206Y-101350576D01*
X132739099Y-101437218D01*
X132812782Y-101510901D01*
X132899424Y-101568794D01*
X132995696Y-101608671D01*
X133097898Y-101629000D01*
X133202102Y-101629000D01*
X133304304Y-101608671D01*
X133400576Y-101568794D01*
X133487218Y-101510901D01*
X133560901Y-101437218D01*
X133618794Y-101350576D01*
X133658671Y-101254304D01*
X133679000Y-101152102D01*
X133679000Y-101047898D01*
X133658671Y-100945696D01*
X133618794Y-100849424D01*
X133560901Y-100762782D01*
X133487218Y-100689099D01*
X133400576Y-100631206D01*
X133304304Y-100591329D01*
X133202102Y-100571000D01*
X133097898Y-100571000D01*
X132995696Y-100591329D01*
X132899424Y-100631206D01*
X132812782Y-100689099D01*
X132739099Y-100762782D01*
X132681206Y-100849424D01*
X132641329Y-100945696D01*
X132621000Y-101047898D01*
X126708778Y-101047898D01*
X126784545Y-100972131D01*
X126951438Y-100722358D01*
X127066395Y-100444826D01*
X127125000Y-100150199D01*
X127125000Y-99982898D01*
X132606000Y-99982898D01*
X132606000Y-100087102D01*
X132626329Y-100189304D01*
X132666206Y-100285576D01*
X132724099Y-100372218D01*
X132797782Y-100445901D01*
X132884424Y-100503794D01*
X132980696Y-100543671D01*
X133082898Y-100564000D01*
X133187102Y-100564000D01*
X133289304Y-100543671D01*
X133385576Y-100503794D01*
X133472218Y-100445901D01*
X133545901Y-100372218D01*
X133603794Y-100285576D01*
X133643671Y-100189304D01*
X133664000Y-100087102D01*
X133664000Y-99982898D01*
X133643671Y-99880696D01*
X133603794Y-99784424D01*
X133565215Y-99726686D01*
X140225000Y-99726686D01*
X140225000Y-100273314D01*
X140331642Y-100809438D01*
X140540827Y-101314455D01*
X140844517Y-101768959D01*
X141231041Y-102155483D01*
X141685545Y-102459173D01*
X142190562Y-102668358D01*
X142726686Y-102775000D01*
X143273314Y-102775000D01*
X143809438Y-102668358D01*
X144220964Y-102497898D01*
X151171000Y-102497898D01*
X151171000Y-102602102D01*
X151191329Y-102704304D01*
X151231206Y-102800576D01*
X151289099Y-102887218D01*
X151362782Y-102960901D01*
X151449424Y-103018794D01*
X151545696Y-103058671D01*
X151647898Y-103079000D01*
X151752102Y-103079000D01*
X151854304Y-103058671D01*
X151950576Y-103018794D01*
X152037218Y-102960901D01*
X152110901Y-102887218D01*
X152168794Y-102800576D01*
X152208671Y-102704304D01*
X152229000Y-102602102D01*
X152229000Y-102497898D01*
X152208671Y-102395696D01*
X152168794Y-102299424D01*
X152110901Y-102212782D01*
X152037218Y-102139099D01*
X151950576Y-102081206D01*
X151854304Y-102041329D01*
X151752102Y-102021000D01*
X151647898Y-102021000D01*
X151545696Y-102041329D01*
X151449424Y-102081206D01*
X151362782Y-102139099D01*
X151289099Y-102212782D01*
X151231206Y-102299424D01*
X151191329Y-102395696D01*
X151171000Y-102497898D01*
X144220964Y-102497898D01*
X144314455Y-102459173D01*
X144768959Y-102155483D01*
X145155483Y-101768959D01*
X145459173Y-101314455D01*
X145668358Y-100809438D01*
X145700490Y-100647898D01*
X149471000Y-100647898D01*
X149471000Y-100752102D01*
X149491329Y-100854304D01*
X149531206Y-100950576D01*
X149589099Y-101037218D01*
X149662782Y-101110901D01*
X149749424Y-101168794D01*
X149845696Y-101208671D01*
X149947898Y-101229000D01*
X150052102Y-101229000D01*
X150154304Y-101208671D01*
X150250576Y-101168794D01*
X150337218Y-101110901D01*
X150410901Y-101037218D01*
X150468794Y-100950576D01*
X150508671Y-100854304D01*
X150529000Y-100752102D01*
X150529000Y-100647898D01*
X150508671Y-100545696D01*
X150468794Y-100449424D01*
X150410901Y-100362782D01*
X150337218Y-100289099D01*
X150250576Y-100231206D01*
X150154304Y-100191329D01*
X150052102Y-100171000D01*
X149947898Y-100171000D01*
X149845696Y-100191329D01*
X149749424Y-100231206D01*
X149662782Y-100289099D01*
X149589099Y-100362782D01*
X149531206Y-100449424D01*
X149491329Y-100545696D01*
X149471000Y-100647898D01*
X145700490Y-100647898D01*
X145775000Y-100273314D01*
X145775000Y-99975000D01*
X154225000Y-99975000D01*
X154225000Y-100273314D01*
X154331642Y-100809438D01*
X154540827Y-101314455D01*
X154844517Y-101768959D01*
X155231041Y-102155483D01*
X155685545Y-102459173D01*
X156190562Y-102668358D01*
X156726686Y-102775000D01*
X160925000Y-102775000D01*
X160925000Y-104300000D01*
X160945933Y-104405238D01*
X161005546Y-104494454D01*
X161094762Y-104554067D01*
X161200000Y-104575000D01*
X162683882Y-104575000D01*
X162662782Y-104589099D01*
X162589099Y-104662782D01*
X162531206Y-104749424D01*
X162491329Y-104845696D01*
X162471000Y-104947898D01*
X162471000Y-105052102D01*
X162491329Y-105154304D01*
X162531206Y-105250576D01*
X162564230Y-105300000D01*
X162531206Y-105349424D01*
X162491329Y-105445696D01*
X162471000Y-105547898D01*
X162471000Y-105652102D01*
X162491329Y-105754304D01*
X162531206Y-105850576D01*
X162564230Y-105900000D01*
X162531206Y-105949424D01*
X162491329Y-106045696D01*
X162471000Y-106147898D01*
X162471000Y-106252102D01*
X162491329Y-106354304D01*
X162531206Y-106450576D01*
X162564230Y-106500000D01*
X162531206Y-106549424D01*
X162491329Y-106645696D01*
X162471000Y-106747898D01*
X162471000Y-106852102D01*
X162491329Y-106954304D01*
X162531206Y-107050576D01*
X162564230Y-107100000D01*
X162531206Y-107149424D01*
X162491329Y-107245696D01*
X162471000Y-107347898D01*
X162471000Y-107452102D01*
X162491329Y-107554304D01*
X162531206Y-107650576D01*
X162589099Y-107737218D01*
X162662782Y-107810901D01*
X162749424Y-107868794D01*
X162845696Y-107908671D01*
X162947898Y-107929000D01*
X163052102Y-107929000D01*
X163154304Y-107908671D01*
X163250576Y-107868794D01*
X163337218Y-107810901D01*
X163410901Y-107737218D01*
X163468794Y-107650576D01*
X163508671Y-107554304D01*
X163529000Y-107452102D01*
X163529000Y-107347898D01*
X163508671Y-107245696D01*
X163468794Y-107149424D01*
X163435770Y-107100000D01*
X163468794Y-107050576D01*
X163508671Y-106954304D01*
X163529000Y-106852102D01*
X163529000Y-106747898D01*
X163508671Y-106645696D01*
X163468794Y-106549424D01*
X163435770Y-106500000D01*
X163468794Y-106450576D01*
X163508671Y-106354304D01*
X163529000Y-106252102D01*
X163529000Y-106147898D01*
X163508671Y-106045696D01*
X163468794Y-105949424D01*
X163435770Y-105900000D01*
X163468794Y-105850576D01*
X163508671Y-105754304D01*
X163529000Y-105652102D01*
X163529000Y-105547898D01*
X163508671Y-105445696D01*
X163468794Y-105349424D01*
X163435770Y-105300000D01*
X163468794Y-105250576D01*
X163508671Y-105154304D01*
X163529000Y-105052102D01*
X163529000Y-104947898D01*
X163508671Y-104845696D01*
X163468794Y-104749424D01*
X163410901Y-104662782D01*
X163337218Y-104589099D01*
X163316118Y-104575000D01*
X165300000Y-104575000D01*
X165405238Y-104554067D01*
X165494454Y-104494454D01*
X165554067Y-104405238D01*
X165575000Y-104300000D01*
X165575000Y-101300098D01*
X165595696Y-101308671D01*
X165697898Y-101329000D01*
X165802102Y-101329000D01*
X165904304Y-101308671D01*
X166000576Y-101268794D01*
X166050000Y-101235770D01*
X166099424Y-101268794D01*
X166195696Y-101308671D01*
X166297898Y-101329000D01*
X166402102Y-101329000D01*
X166504304Y-101308671D01*
X166600576Y-101268794D01*
X166687218Y-101210901D01*
X166760901Y-101137218D01*
X166818794Y-101050576D01*
X166858671Y-100954304D01*
X166879000Y-100852102D01*
X166879000Y-100747898D01*
X166858671Y-100645696D01*
X166818794Y-100549424D01*
X166760901Y-100462782D01*
X166687218Y-100389099D01*
X166600576Y-100331206D01*
X166504304Y-100291329D01*
X166402102Y-100271000D01*
X166297898Y-100271000D01*
X166195696Y-100291329D01*
X166099424Y-100331206D01*
X166050000Y-100364230D01*
X166000576Y-100331206D01*
X165904304Y-100291329D01*
X165802102Y-100271000D01*
X165697898Y-100271000D01*
X165595696Y-100291329D01*
X165575000Y-100299902D01*
X165575000Y-97479148D01*
X167158500Y-97479148D01*
X167158500Y-97583352D01*
X167178829Y-97685554D01*
X167218706Y-97781826D01*
X167276599Y-97868468D01*
X167295631Y-97887500D01*
X167276599Y-97906532D01*
X167218706Y-97993174D01*
X167178829Y-98089446D01*
X167158500Y-98191648D01*
X167158500Y-98295852D01*
X167178829Y-98398054D01*
X167218706Y-98494326D01*
X167276599Y-98580968D01*
X167295631Y-98600000D01*
X167276599Y-98619032D01*
X167218706Y-98705674D01*
X167178829Y-98801946D01*
X167158500Y-98904148D01*
X167158500Y-99008352D01*
X167178829Y-99110554D01*
X167218706Y-99206826D01*
X167276599Y-99293468D01*
X167295631Y-99312500D01*
X167276599Y-99331532D01*
X167218706Y-99418174D01*
X167178829Y-99514446D01*
X167158500Y-99616648D01*
X167158500Y-99720852D01*
X167178829Y-99823054D01*
X167218706Y-99919326D01*
X167276599Y-100005968D01*
X167350282Y-100079651D01*
X167436924Y-100137544D01*
X167533196Y-100177421D01*
X167635398Y-100197750D01*
X167739602Y-100197750D01*
X167841804Y-100177421D01*
X167938076Y-100137544D01*
X168024718Y-100079651D01*
X168098401Y-100005968D01*
X168100000Y-100003575D01*
X168101599Y-100005968D01*
X168175282Y-100079651D01*
X168261924Y-100137544D01*
X168358196Y-100177421D01*
X168460398Y-100197750D01*
X168564602Y-100197750D01*
X168666804Y-100177421D01*
X168763076Y-100137544D01*
X168849718Y-100079651D01*
X168923401Y-100005968D01*
X168981294Y-99919326D01*
X169021171Y-99823054D01*
X169041500Y-99720852D01*
X169041500Y-99616648D01*
X169021171Y-99514446D01*
X168981294Y-99418174D01*
X168923401Y-99331532D01*
X168904369Y-99312500D01*
X168923401Y-99293468D01*
X168981294Y-99206826D01*
X169021171Y-99110554D01*
X169041500Y-99008352D01*
X169041500Y-98904148D01*
X169021171Y-98801946D01*
X168981294Y-98705674D01*
X168923401Y-98619032D01*
X168904369Y-98600000D01*
X168923401Y-98580968D01*
X168981294Y-98494326D01*
X169021171Y-98398054D01*
X169041500Y-98295852D01*
X169041500Y-98191648D01*
X169021171Y-98089446D01*
X168981294Y-97993174D01*
X168923401Y-97906532D01*
X168904369Y-97887500D01*
X168923401Y-97868468D01*
X168981294Y-97781826D01*
X169021171Y-97685554D01*
X169041500Y-97583352D01*
X169041500Y-97479148D01*
X169021171Y-97376946D01*
X168981294Y-97280674D01*
X168923401Y-97194032D01*
X168849718Y-97120349D01*
X168763076Y-97062456D01*
X168666804Y-97022579D01*
X168564602Y-97002250D01*
X168460398Y-97002250D01*
X168358196Y-97022579D01*
X168261924Y-97062456D01*
X168175282Y-97120349D01*
X168101599Y-97194032D01*
X168100000Y-97196425D01*
X168098401Y-97194032D01*
X168024718Y-97120349D01*
X167938076Y-97062456D01*
X167841804Y-97022579D01*
X167739602Y-97002250D01*
X167635398Y-97002250D01*
X167533196Y-97022579D01*
X167436924Y-97062456D01*
X167350282Y-97120349D01*
X167276599Y-97194032D01*
X167218706Y-97280674D01*
X167178829Y-97376946D01*
X167158500Y-97479148D01*
X165575000Y-97479148D01*
X165575000Y-96602474D01*
X165599424Y-96618794D01*
X165695696Y-96658671D01*
X165797898Y-96679000D01*
X165902102Y-96679000D01*
X166004304Y-96658671D01*
X166100576Y-96618794D01*
X166150000Y-96585770D01*
X166199424Y-96618794D01*
X166295696Y-96658671D01*
X166397898Y-96679000D01*
X166502102Y-96679000D01*
X166604304Y-96658671D01*
X166700576Y-96618794D01*
X166787218Y-96560901D01*
X166860901Y-96487218D01*
X166887174Y-96447898D01*
X168971000Y-96447898D01*
X168971000Y-96552102D01*
X168991329Y-96654304D01*
X169031206Y-96750576D01*
X169089099Y-96837218D01*
X169162782Y-96910901D01*
X169249424Y-96968794D01*
X169345696Y-97008671D01*
X169447898Y-97029000D01*
X169552102Y-97029000D01*
X169654304Y-97008671D01*
X169750576Y-96968794D01*
X169837218Y-96910901D01*
X169910901Y-96837218D01*
X169968794Y-96750576D01*
X170008671Y-96654304D01*
X170029000Y-96552102D01*
X170029000Y-96447898D01*
X170008671Y-96345696D01*
X169968794Y-96249424D01*
X169910901Y-96162782D01*
X169837218Y-96089099D01*
X169750576Y-96031206D01*
X169654304Y-95991329D01*
X169552102Y-95971000D01*
X169447898Y-95971000D01*
X169345696Y-95991329D01*
X169249424Y-96031206D01*
X169162782Y-96089099D01*
X169089099Y-96162782D01*
X169031206Y-96249424D01*
X168991329Y-96345696D01*
X168971000Y-96447898D01*
X166887174Y-96447898D01*
X166918794Y-96400576D01*
X166958671Y-96304304D01*
X166979000Y-96202102D01*
X166979000Y-96097898D01*
X166958671Y-95995696D01*
X166918794Y-95899424D01*
X166885770Y-95850000D01*
X166918794Y-95800576D01*
X166958671Y-95704304D01*
X166979000Y-95602102D01*
X166979000Y-95497898D01*
X166958671Y-95395696D01*
X166918794Y-95299424D01*
X166860901Y-95212782D01*
X166787218Y-95139099D01*
X166700576Y-95081206D01*
X166604304Y-95041329D01*
X166502102Y-95021000D01*
X166397898Y-95021000D01*
X166295696Y-95041329D01*
X166199424Y-95081206D01*
X166150000Y-95114230D01*
X166100576Y-95081206D01*
X166004304Y-95041329D01*
X165928369Y-95026225D01*
X167779594Y-93175000D01*
X172180935Y-93175000D01*
X172131206Y-93249424D01*
X172091329Y-93345696D01*
X172071000Y-93447898D01*
X172071000Y-93552102D01*
X172091329Y-93654304D01*
X172131206Y-93750576D01*
X172155018Y-93786212D01*
X172128465Y-93818566D01*
X172098287Y-93875026D01*
X172079703Y-93936289D01*
X172073428Y-94000000D01*
X172075001Y-94015971D01*
X172075001Y-94347526D01*
X172050576Y-94331206D01*
X171954304Y-94291329D01*
X171852102Y-94271000D01*
X171747898Y-94271000D01*
X171645696Y-94291329D01*
X171549424Y-94331206D01*
X171500000Y-94364230D01*
X171450576Y-94331206D01*
X171354304Y-94291329D01*
X171252102Y-94271000D01*
X171147898Y-94271000D01*
X171045696Y-94291329D01*
X170949424Y-94331206D01*
X170862782Y-94389099D01*
X170789099Y-94462782D01*
X170731206Y-94549424D01*
X170691329Y-94645696D01*
X170671000Y-94747898D01*
X170671000Y-94852102D01*
X170691329Y-94954304D01*
X170731206Y-95050576D01*
X170764230Y-95100000D01*
X170731206Y-95149424D01*
X170691329Y-95245696D01*
X170671000Y-95347898D01*
X170671000Y-95452102D01*
X170691329Y-95554304D01*
X170731206Y-95650576D01*
X170764230Y-95700000D01*
X170731206Y-95749424D01*
X170691329Y-95845696D01*
X170671000Y-95947898D01*
X170671000Y-96052102D01*
X170691329Y-96154304D01*
X170731206Y-96250576D01*
X170764230Y-96300000D01*
X170731206Y-96349424D01*
X170691329Y-96445696D01*
X170671000Y-96547898D01*
X170671000Y-96652102D01*
X170691329Y-96754304D01*
X170731206Y-96850576D01*
X170764230Y-96900000D01*
X170731206Y-96949424D01*
X170691329Y-97045696D01*
X170671000Y-97147898D01*
X170671000Y-97252102D01*
X170691329Y-97354304D01*
X170731206Y-97450576D01*
X170764230Y-97500000D01*
X170731206Y-97549424D01*
X170691329Y-97645696D01*
X170671000Y-97747898D01*
X170671000Y-97852102D01*
X170691329Y-97954304D01*
X170731206Y-98050576D01*
X170789099Y-98137218D01*
X170862782Y-98210901D01*
X170949424Y-98268794D01*
X171045696Y-98308671D01*
X171147898Y-98329000D01*
X171252102Y-98329000D01*
X171354304Y-98308671D01*
X171450576Y-98268794D01*
X171500000Y-98235770D01*
X171549424Y-98268794D01*
X171645696Y-98308671D01*
X171747898Y-98329000D01*
X171852102Y-98329000D01*
X171954304Y-98308671D01*
X172050576Y-98268794D01*
X172075001Y-98252474D01*
X172075000Y-100799902D01*
X172054304Y-100791329D01*
X171952102Y-100771000D01*
X171847898Y-100771000D01*
X171745696Y-100791329D01*
X171649424Y-100831206D01*
X171600000Y-100864230D01*
X171550576Y-100831206D01*
X171454304Y-100791329D01*
X171352102Y-100771000D01*
X171247898Y-100771000D01*
X171145696Y-100791329D01*
X171049424Y-100831206D01*
X170962782Y-100889099D01*
X170889099Y-100962782D01*
X170831206Y-101049424D01*
X170791329Y-101145696D01*
X170771000Y-101247898D01*
X170771000Y-101352102D01*
X170791329Y-101454304D01*
X170831206Y-101550576D01*
X170889099Y-101637218D01*
X170962782Y-101710901D01*
X170976429Y-101720020D01*
X170949424Y-101731206D01*
X170862782Y-101789099D01*
X170789099Y-101862782D01*
X170731206Y-101949424D01*
X170691329Y-102045696D01*
X170671000Y-102147898D01*
X170671000Y-102252102D01*
X170691329Y-102354304D01*
X170731206Y-102450576D01*
X170764230Y-102500000D01*
X170731206Y-102549424D01*
X170691329Y-102645696D01*
X170671000Y-102747898D01*
X170671000Y-102852102D01*
X170691329Y-102954304D01*
X170731206Y-103050576D01*
X170764230Y-103100000D01*
X170731206Y-103149424D01*
X170691329Y-103245696D01*
X170671000Y-103347898D01*
X170671000Y-103452102D01*
X170691329Y-103554304D01*
X170731206Y-103650576D01*
X170764230Y-103700000D01*
X170731206Y-103749424D01*
X170691329Y-103845696D01*
X170671000Y-103947898D01*
X170671000Y-104052102D01*
X170691329Y-104154304D01*
X170731206Y-104250576D01*
X170764230Y-104300000D01*
X170731206Y-104349424D01*
X170691329Y-104445696D01*
X170671000Y-104547898D01*
X170671000Y-104652102D01*
X170691329Y-104754304D01*
X170731206Y-104850576D01*
X170764230Y-104900000D01*
X170731206Y-104949424D01*
X170691329Y-105045696D01*
X170671000Y-105147898D01*
X170671000Y-105252102D01*
X170691329Y-105354304D01*
X170731206Y-105450576D01*
X170789099Y-105537218D01*
X170862782Y-105610901D01*
X170949424Y-105668794D01*
X171045696Y-105708671D01*
X171147898Y-105729000D01*
X171252102Y-105729000D01*
X171354304Y-105708671D01*
X171450576Y-105668794D01*
X171500000Y-105635770D01*
X171549424Y-105668794D01*
X171645696Y-105708671D01*
X171747898Y-105729000D01*
X171852102Y-105729000D01*
X171954304Y-105708671D01*
X172050576Y-105668794D01*
X172075000Y-105652474D01*
X172075000Y-105984039D01*
X172073428Y-106000000D01*
X172079703Y-106063711D01*
X172098287Y-106124974D01*
X172128465Y-106181434D01*
X172169079Y-106230921D01*
X172218566Y-106271535D01*
X172275026Y-106301713D01*
X172336289Y-106320297D01*
X172400000Y-106326572D01*
X172415960Y-106325000D01*
X183584040Y-106325000D01*
X183600000Y-106326572D01*
X183663711Y-106320297D01*
X183724974Y-106301713D01*
X183781434Y-106271535D01*
X183830921Y-106230921D01*
X183871535Y-106181434D01*
X183901713Y-106124974D01*
X183920297Y-106063711D01*
X183925000Y-106015961D01*
X183925000Y-106015960D01*
X183926572Y-106000000D01*
X183925000Y-105984039D01*
X183925000Y-103324445D01*
X183947898Y-103329000D01*
X184052102Y-103329000D01*
X184154304Y-103308671D01*
X184250576Y-103268794D01*
X184300000Y-103235770D01*
X184349424Y-103268794D01*
X184445696Y-103308671D01*
X184547898Y-103329000D01*
X184652102Y-103329000D01*
X184754304Y-103308671D01*
X184850576Y-103268794D01*
X184900000Y-103235770D01*
X184949424Y-103268794D01*
X185045696Y-103308671D01*
X185147898Y-103329000D01*
X185252102Y-103329000D01*
X185354304Y-103308671D01*
X185450576Y-103268794D01*
X185500000Y-103235770D01*
X185549424Y-103268794D01*
X185645696Y-103308671D01*
X185747898Y-103329000D01*
X185852102Y-103329000D01*
X185954304Y-103308671D01*
X186050576Y-103268794D01*
X186100000Y-103235770D01*
X186149424Y-103268794D01*
X186245696Y-103308671D01*
X186347898Y-103329000D01*
X186452102Y-103329000D01*
X186554304Y-103308671D01*
X186650576Y-103268794D01*
X186737218Y-103210901D01*
X186810901Y-103137218D01*
X186868794Y-103050576D01*
X186908671Y-102954304D01*
X186929000Y-102852102D01*
X186929000Y-102747898D01*
X186908671Y-102645696D01*
X186868794Y-102549424D01*
X186835770Y-102500000D01*
X186868794Y-102450576D01*
X186908671Y-102354304D01*
X186929000Y-102252102D01*
X186929000Y-102147898D01*
X186908671Y-102045696D01*
X186868794Y-101949424D01*
X186810901Y-101862782D01*
X186737218Y-101789099D01*
X186650576Y-101731206D01*
X186554304Y-101691329D01*
X186452102Y-101671000D01*
X186347898Y-101671000D01*
X186245696Y-101691329D01*
X186149424Y-101731206D01*
X186100000Y-101764230D01*
X186050576Y-101731206D01*
X185954304Y-101691329D01*
X185852102Y-101671000D01*
X185747898Y-101671000D01*
X185645696Y-101691329D01*
X185549424Y-101731206D01*
X185500000Y-101764230D01*
X185450576Y-101731206D01*
X185354304Y-101691329D01*
X185252102Y-101671000D01*
X185147898Y-101671000D01*
X185045696Y-101691329D01*
X184949424Y-101731206D01*
X184900000Y-101764230D01*
X184850576Y-101731206D01*
X184754304Y-101691329D01*
X184652102Y-101671000D01*
X184547898Y-101671000D01*
X184445696Y-101691329D01*
X184349424Y-101731206D01*
X184300000Y-101764230D01*
X184250576Y-101731206D01*
X184154304Y-101691329D01*
X184052102Y-101671000D01*
X183947898Y-101671000D01*
X183925000Y-101675555D01*
X183925000Y-99828200D01*
X189521000Y-99828200D01*
X189521000Y-99971800D01*
X189549015Y-100112641D01*
X189603969Y-100245311D01*
X189683749Y-100364710D01*
X189785290Y-100466251D01*
X189904689Y-100546031D01*
X190037359Y-100600985D01*
X190178200Y-100629000D01*
X190321800Y-100629000D01*
X190462641Y-100600985D01*
X190595311Y-100546031D01*
X190714710Y-100466251D01*
X190816251Y-100364710D01*
X190896031Y-100245311D01*
X190950985Y-100112641D01*
X190979000Y-99971800D01*
X190979000Y-99828200D01*
X190950985Y-99687359D01*
X190896031Y-99554689D01*
X190816251Y-99435290D01*
X190714710Y-99333749D01*
X190595311Y-99253969D01*
X190462641Y-99199015D01*
X190321800Y-99171000D01*
X190178200Y-99171000D01*
X190037359Y-99199015D01*
X189904689Y-99253969D01*
X189785290Y-99333749D01*
X189683749Y-99435290D01*
X189603969Y-99554689D01*
X189549015Y-99687359D01*
X189521000Y-99828200D01*
X183925000Y-99828200D01*
X183925000Y-94015961D01*
X183926572Y-94000000D01*
X183920297Y-93936289D01*
X183901713Y-93875026D01*
X183871535Y-93818566D01*
X183830921Y-93769079D01*
X183781434Y-93728465D01*
X183724974Y-93698287D01*
X183663711Y-93679703D01*
X183615961Y-93675000D01*
X183615960Y-93675000D01*
X183600000Y-93673428D01*
X183584039Y-93675000D01*
X174900098Y-93675000D01*
X174908671Y-93654304D01*
X174929000Y-93552102D01*
X174929000Y-93447898D01*
X174908671Y-93345696D01*
X174868794Y-93249424D01*
X174819065Y-93175000D01*
X182924626Y-93175000D01*
X182987359Y-93200985D01*
X183128200Y-93229000D01*
X183271800Y-93229000D01*
X183412641Y-93200985D01*
X183475374Y-93175000D01*
X190720406Y-93175000D01*
X195363628Y-97818222D01*
X195350000Y-97886735D01*
X195350000Y-98113265D01*
X195394194Y-98335443D01*
X195480884Y-98544729D01*
X195606737Y-98733082D01*
X195766918Y-98893263D01*
X195825000Y-98932072D01*
X195825001Y-99066268D01*
X195682893Y-99182893D01*
X195539184Y-99358003D01*
X195432398Y-99557785D01*
X195366640Y-99774561D01*
X195344436Y-100000000D01*
X195366640Y-100225439D01*
X195432398Y-100442215D01*
X195539184Y-100641997D01*
X195682893Y-100817107D01*
X195825000Y-100933732D01*
X195825001Y-101066268D01*
X195682893Y-101182893D01*
X195539184Y-101358003D01*
X195432398Y-101557785D01*
X195366640Y-101774561D01*
X195344436Y-102000000D01*
X195366640Y-102225439D01*
X195432398Y-102442215D01*
X195539184Y-102641997D01*
X195682893Y-102817107D01*
X195858003Y-102960816D01*
X196057785Y-103067602D01*
X196274561Y-103133360D01*
X196443508Y-103150000D01*
X196556492Y-103150000D01*
X196725439Y-103133360D01*
X196942215Y-103067602D01*
X197141997Y-102960816D01*
X197317107Y-102817107D01*
X197460816Y-102641997D01*
X197567602Y-102442215D01*
X197604500Y-102320579D01*
X197618068Y-102365308D01*
X197706282Y-102530345D01*
X197824999Y-102675001D01*
X197969655Y-102793718D01*
X198134692Y-102881932D01*
X198313768Y-102936254D01*
X198453335Y-102950000D01*
X198546665Y-102950000D01*
X198686232Y-102936254D01*
X198865308Y-102881932D01*
X199030345Y-102793718D01*
X199175001Y-102675001D01*
X199293718Y-102530345D01*
X199381932Y-102365308D01*
X199436254Y-102186232D01*
X199454596Y-102000000D01*
X199436254Y-101813768D01*
X199381932Y-101634692D01*
X199293718Y-101469655D01*
X199175001Y-101324999D01*
X199030345Y-101206282D01*
X198865308Y-101118068D01*
X198686232Y-101063746D01*
X198546665Y-101050000D01*
X198453335Y-101050000D01*
X198313768Y-101063746D01*
X198134692Y-101118068D01*
X197969655Y-101206282D01*
X197824999Y-101324999D01*
X197706282Y-101469655D01*
X197618068Y-101634692D01*
X197604500Y-101679421D01*
X197567602Y-101557785D01*
X197460816Y-101358003D01*
X197317107Y-101182893D01*
X197175000Y-101066269D01*
X197175000Y-100933731D01*
X197317107Y-100817107D01*
X197460816Y-100641997D01*
X197567602Y-100442215D01*
X197604500Y-100320579D01*
X197618068Y-100365308D01*
X197706282Y-100530345D01*
X197824999Y-100675001D01*
X197969655Y-100793718D01*
X198134692Y-100881932D01*
X198313768Y-100936254D01*
X198453335Y-100950000D01*
X198546665Y-100950000D01*
X198686232Y-100936254D01*
X198865308Y-100881932D01*
X199030345Y-100793718D01*
X199175001Y-100675001D01*
X199293718Y-100530345D01*
X199381932Y-100365308D01*
X199436254Y-100186232D01*
X199454596Y-100000000D01*
X199436254Y-99813768D01*
X199381932Y-99634692D01*
X199293718Y-99469655D01*
X199175001Y-99324999D01*
X199030345Y-99206282D01*
X198865308Y-99118068D01*
X198686232Y-99063746D01*
X198546665Y-99050000D01*
X198453335Y-99050000D01*
X198313768Y-99063746D01*
X198134692Y-99118068D01*
X197969655Y-99206282D01*
X197824999Y-99324999D01*
X197706282Y-99469655D01*
X197618068Y-99634692D01*
X197604500Y-99679421D01*
X197567602Y-99557785D01*
X197460816Y-99358003D01*
X197317107Y-99182893D01*
X197175000Y-99066269D01*
X197175000Y-98932072D01*
X197233082Y-98893263D01*
X197393263Y-98733082D01*
X197519116Y-98544729D01*
X197605806Y-98335443D01*
X197607074Y-98329067D01*
X197618068Y-98365308D01*
X197706282Y-98530345D01*
X197824999Y-98675001D01*
X197969655Y-98793718D01*
X198134692Y-98881932D01*
X198313768Y-98936254D01*
X198453335Y-98950000D01*
X198546665Y-98950000D01*
X198686232Y-98936254D01*
X198865308Y-98881932D01*
X199030345Y-98793718D01*
X199175001Y-98675001D01*
X199293718Y-98530345D01*
X199381932Y-98365308D01*
X199436254Y-98186232D01*
X199454596Y-98000000D01*
X199436254Y-97813768D01*
X199381932Y-97634692D01*
X199293718Y-97469655D01*
X199175001Y-97324999D01*
X199030345Y-97206282D01*
X198865308Y-97118068D01*
X198686232Y-97063746D01*
X198546665Y-97050000D01*
X198453335Y-97050000D01*
X198313768Y-97063746D01*
X198134692Y-97118068D01*
X197969655Y-97206282D01*
X197824999Y-97324999D01*
X197706282Y-97469655D01*
X197618068Y-97634692D01*
X197607074Y-97670933D01*
X197605806Y-97664557D01*
X197519116Y-97455271D01*
X197393263Y-97266918D01*
X197233082Y-97106737D01*
X197044729Y-96980884D01*
X196835443Y-96894194D01*
X196613265Y-96850000D01*
X196386735Y-96850000D01*
X196318222Y-96863628D01*
X191500742Y-92046148D01*
X191479606Y-92020394D01*
X191376824Y-91936042D01*
X191259561Y-91873364D01*
X191132323Y-91834767D01*
X191033159Y-91825000D01*
X191033152Y-91825000D01*
X191000000Y-91821735D01*
X190966848Y-91825000D01*
X183475374Y-91825000D01*
X183412641Y-91799015D01*
X183271800Y-91771000D01*
X183128200Y-91771000D01*
X182987359Y-91799015D01*
X182924626Y-91825000D01*
X167533151Y-91825000D01*
X167499999Y-91821735D01*
X167466847Y-91825000D01*
X167466841Y-91825000D01*
X167381499Y-91833406D01*
X167367676Y-91834767D01*
X167329079Y-91846476D01*
X167240439Y-91873364D01*
X167123176Y-91936042D01*
X167020394Y-92020394D01*
X166999258Y-92046148D01*
X165629000Y-93416406D01*
X165629000Y-93347898D01*
X165608671Y-93245696D01*
X165568794Y-93149424D01*
X165535770Y-93100000D01*
X165568794Y-93050576D01*
X165608671Y-92954304D01*
X165629000Y-92852102D01*
X165629000Y-92747898D01*
X165608671Y-92645696D01*
X165568794Y-92549424D01*
X165510901Y-92462782D01*
X165437218Y-92389099D01*
X165350576Y-92331206D01*
X165254304Y-92291329D01*
X165152102Y-92271000D01*
X165047898Y-92271000D01*
X164945696Y-92291329D01*
X164849424Y-92331206D01*
X164800000Y-92364230D01*
X164750576Y-92331206D01*
X164654304Y-92291329D01*
X164552102Y-92271000D01*
X164447898Y-92271000D01*
X164345696Y-92291329D01*
X164249424Y-92331206D01*
X164162782Y-92389099D01*
X164089099Y-92462782D01*
X164031206Y-92549424D01*
X163991329Y-92645696D01*
X163971000Y-92747898D01*
X163971000Y-92852102D01*
X163991329Y-92954304D01*
X164031206Y-93050576D01*
X164064230Y-93100000D01*
X164031206Y-93149424D01*
X163991329Y-93245696D01*
X163971000Y-93347898D01*
X163971000Y-93452102D01*
X163991329Y-93554304D01*
X164031206Y-93650576D01*
X164080935Y-93725000D01*
X155265659Y-93725000D01*
X155349890Y-93598939D01*
X155446002Y-93366904D01*
X155495000Y-93120577D01*
X155495000Y-92869423D01*
X155446002Y-92623096D01*
X155349890Y-92391061D01*
X155210357Y-92182235D01*
X155032765Y-92004643D01*
X154823939Y-91865110D01*
X154591904Y-91768998D01*
X154345577Y-91720000D01*
X154094423Y-91720000D01*
X153848096Y-91768998D01*
X153616061Y-91865110D01*
X153407235Y-92004643D01*
X153229643Y-92182235D01*
X153090110Y-92391061D01*
X152993998Y-92623096D01*
X152945000Y-92869423D01*
X152945000Y-93120577D01*
X152993998Y-93366904D01*
X153090110Y-93598939D01*
X153174341Y-93725000D01*
X146825659Y-93725000D01*
X146909890Y-93598939D01*
X147006002Y-93366904D01*
X147055000Y-93120577D01*
X147055000Y-92869423D01*
X147006002Y-92623096D01*
X146909890Y-92391061D01*
X146770357Y-92182235D01*
X146592765Y-92004643D01*
X146383939Y-91865110D01*
X146151904Y-91768998D01*
X145905577Y-91720000D01*
X145654423Y-91720000D01*
X145408096Y-91768998D01*
X145176061Y-91865110D01*
X144967235Y-92004643D01*
X144789643Y-92182235D01*
X144650110Y-92391061D01*
X144553998Y-92623096D01*
X144505000Y-92869423D01*
X144505000Y-93120577D01*
X144553998Y-93366904D01*
X144650110Y-93598939D01*
X144734341Y-93725000D01*
X144100000Y-93725000D01*
X143994762Y-93745933D01*
X143905546Y-93805546D01*
X143845933Y-93894762D01*
X143825000Y-94000000D01*
X143825000Y-97338088D01*
X143809438Y-97331642D01*
X143273314Y-97225000D01*
X142726686Y-97225000D01*
X142190562Y-97331642D01*
X141685545Y-97540827D01*
X141231041Y-97844517D01*
X140844517Y-98231041D01*
X140540827Y-98685545D01*
X140331642Y-99190562D01*
X140225000Y-99726686D01*
X133565215Y-99726686D01*
X133545901Y-99697782D01*
X133472218Y-99624099D01*
X133385576Y-99566206D01*
X133289304Y-99526329D01*
X133187102Y-99506000D01*
X133082898Y-99506000D01*
X132980696Y-99526329D01*
X132884424Y-99566206D01*
X132797782Y-99624099D01*
X132724099Y-99697782D01*
X132666206Y-99784424D01*
X132626329Y-99880696D01*
X132606000Y-99982898D01*
X127125000Y-99982898D01*
X127125000Y-99849801D01*
X127066395Y-99555174D01*
X126951438Y-99277642D01*
X126784545Y-99027869D01*
X126572131Y-98815455D01*
X126322358Y-98648562D01*
X126044826Y-98533605D01*
X125865315Y-98497898D01*
X137271000Y-98497898D01*
X137271000Y-98602102D01*
X137291329Y-98704304D01*
X137331206Y-98800576D01*
X137389099Y-98887218D01*
X137462782Y-98960901D01*
X137549424Y-99018794D01*
X137645696Y-99058671D01*
X137747898Y-99079000D01*
X137852102Y-99079000D01*
X137954304Y-99058671D01*
X138050576Y-99018794D01*
X138137218Y-98960901D01*
X138210901Y-98887218D01*
X138268794Y-98800576D01*
X138308671Y-98704304D01*
X138329000Y-98602102D01*
X138329000Y-98497898D01*
X138308671Y-98395696D01*
X138268794Y-98299424D01*
X138210901Y-98212782D01*
X138137218Y-98139099D01*
X138050576Y-98081206D01*
X137954304Y-98041329D01*
X137852102Y-98021000D01*
X137747898Y-98021000D01*
X137645696Y-98041329D01*
X137549424Y-98081206D01*
X137462782Y-98139099D01*
X137389099Y-98212782D01*
X137331206Y-98299424D01*
X137291329Y-98395696D01*
X137271000Y-98497898D01*
X125865315Y-98497898D01*
X125750199Y-98475000D01*
X125449801Y-98475000D01*
X125155174Y-98533605D01*
X124877642Y-98648562D01*
X124627869Y-98815455D01*
X124415455Y-99027869D01*
X124248562Y-99277642D01*
X124133605Y-99555174D01*
X124075000Y-99849801D01*
X108325000Y-99849801D01*
X108266395Y-99555174D01*
X108151438Y-99277642D01*
X107984545Y-99027869D01*
X107772131Y-98815455D01*
X107522358Y-98648562D01*
X107244826Y-98533605D01*
X106950199Y-98475000D01*
X106649801Y-98475000D01*
X106355174Y-98533605D01*
X106077642Y-98648562D01*
X105827869Y-98815455D01*
X105615455Y-99027869D01*
X105448562Y-99277642D01*
X105333605Y-99555174D01*
X105275000Y-99849801D01*
X104439803Y-99849801D01*
X104436254Y-99813768D01*
X104381932Y-99634692D01*
X104293718Y-99469655D01*
X104175001Y-99324999D01*
X104030345Y-99206282D01*
X103865308Y-99118068D01*
X103686232Y-99063746D01*
X103546665Y-99050000D01*
X103453335Y-99050000D01*
X103313768Y-99063746D01*
X103134692Y-99118068D01*
X102969655Y-99206282D01*
X102824999Y-99324999D01*
X102706282Y-99469655D01*
X102618068Y-99634692D01*
X102563746Y-99813768D01*
X102545404Y-100000000D01*
X102454596Y-100000000D01*
X102436254Y-99813768D01*
X102381932Y-99634692D01*
X102293718Y-99469655D01*
X102175001Y-99324999D01*
X102114077Y-99275000D01*
X102500000Y-99275000D01*
X102605238Y-99254067D01*
X102694454Y-99194454D01*
X102754067Y-99105238D01*
X102775000Y-99000000D01*
X102775000Y-98614077D01*
X102824999Y-98675001D01*
X102969655Y-98793718D01*
X103134692Y-98881932D01*
X103313768Y-98936254D01*
X103453335Y-98950000D01*
X103546665Y-98950000D01*
X103686232Y-98936254D01*
X103865308Y-98881932D01*
X104030345Y-98793718D01*
X104175001Y-98675001D01*
X104293718Y-98530345D01*
X104381932Y-98365308D01*
X104436254Y-98186232D01*
X104454596Y-98000000D01*
X104436254Y-97813768D01*
X104381932Y-97634692D01*
X104293718Y-97469655D01*
X104175001Y-97324999D01*
X104030345Y-97206282D01*
X103865308Y-97118068D01*
X103723332Y-97075000D01*
X107300000Y-97075000D01*
X107405238Y-97054067D01*
X107414470Y-97047898D01*
X126671000Y-97047898D01*
X126671000Y-97152102D01*
X126691329Y-97254304D01*
X126731206Y-97350576D01*
X126789099Y-97437218D01*
X126862782Y-97510901D01*
X126949424Y-97568794D01*
X127045696Y-97608671D01*
X127147898Y-97629000D01*
X127252102Y-97629000D01*
X127354304Y-97608671D01*
X127450576Y-97568794D01*
X127537218Y-97510901D01*
X127573119Y-97475000D01*
X132481584Y-97475000D01*
X132500000Y-97476814D01*
X132518416Y-97475000D01*
X132518419Y-97475000D01*
X132573513Y-97469574D01*
X132644200Y-97448131D01*
X132709347Y-97413309D01*
X132766448Y-97366448D01*
X132778195Y-97352134D01*
X133355330Y-96775000D01*
X133827788Y-96775000D01*
X133745696Y-96791329D01*
X133649424Y-96831206D01*
X133562782Y-96889099D01*
X133489099Y-96962782D01*
X133431206Y-97049424D01*
X133391329Y-97145696D01*
X133371000Y-97247898D01*
X133371000Y-97352102D01*
X133391329Y-97454304D01*
X133431206Y-97550576D01*
X133489099Y-97637218D01*
X133562782Y-97710901D01*
X133649424Y-97768794D01*
X133745696Y-97808671D01*
X133847898Y-97829000D01*
X133952102Y-97829000D01*
X134054304Y-97808671D01*
X134150576Y-97768794D01*
X134237218Y-97710901D01*
X134310901Y-97637218D01*
X134368794Y-97550576D01*
X134400000Y-97475238D01*
X134431206Y-97550576D01*
X134489099Y-97637218D01*
X134562782Y-97710901D01*
X134649424Y-97768794D01*
X134745696Y-97808671D01*
X134847898Y-97829000D01*
X134952102Y-97829000D01*
X135054304Y-97808671D01*
X135150576Y-97768794D01*
X135237218Y-97710901D01*
X135250000Y-97698119D01*
X135262782Y-97710901D01*
X135349424Y-97768794D01*
X135445696Y-97808671D01*
X135547898Y-97829000D01*
X135652102Y-97829000D01*
X135754304Y-97808671D01*
X135850576Y-97768794D01*
X135881848Y-97747898D01*
X139071000Y-97747898D01*
X139071000Y-97852102D01*
X139091329Y-97954304D01*
X139131206Y-98050576D01*
X139189099Y-98137218D01*
X139262782Y-98210901D01*
X139349424Y-98268794D01*
X139445696Y-98308671D01*
X139547898Y-98329000D01*
X139652102Y-98329000D01*
X139754304Y-98308671D01*
X139850576Y-98268794D01*
X139937218Y-98210901D01*
X140010901Y-98137218D01*
X140068794Y-98050576D01*
X140108671Y-97954304D01*
X140129000Y-97852102D01*
X140129000Y-97747898D01*
X140108671Y-97645696D01*
X140068794Y-97549424D01*
X140010901Y-97462782D01*
X139937218Y-97389099D01*
X139850576Y-97331206D01*
X139754304Y-97291329D01*
X139652102Y-97271000D01*
X139547898Y-97271000D01*
X139445696Y-97291329D01*
X139349424Y-97331206D01*
X139262782Y-97389099D01*
X139189099Y-97462782D01*
X139131206Y-97549424D01*
X139091329Y-97645696D01*
X139071000Y-97747898D01*
X135881848Y-97747898D01*
X135937218Y-97710901D01*
X136010901Y-97637218D01*
X136068794Y-97550576D01*
X136108671Y-97454304D01*
X136129000Y-97352102D01*
X136129000Y-97247898D01*
X136108671Y-97145696D01*
X136068794Y-97049424D01*
X136010901Y-96962782D01*
X135937218Y-96889099D01*
X135850576Y-96831206D01*
X135754304Y-96791329D01*
X135652102Y-96771000D01*
X135547898Y-96771000D01*
X135445696Y-96791329D01*
X135349424Y-96831206D01*
X135262782Y-96889099D01*
X135250000Y-96901881D01*
X135237218Y-96889099D01*
X135150576Y-96831206D01*
X135054304Y-96791329D01*
X134954398Y-96771457D01*
X134973513Y-96769574D01*
X135044200Y-96748131D01*
X135109347Y-96713309D01*
X135166448Y-96666448D01*
X135178195Y-96652134D01*
X135382431Y-96447898D01*
X136471000Y-96447898D01*
X136471000Y-96552102D01*
X136491329Y-96654304D01*
X136531206Y-96750576D01*
X136589099Y-96837218D01*
X136662782Y-96910901D01*
X136749424Y-96968794D01*
X136845696Y-97008671D01*
X136947898Y-97029000D01*
X137052102Y-97029000D01*
X137154304Y-97008671D01*
X137250576Y-96968794D01*
X137337218Y-96910901D01*
X137410901Y-96837218D01*
X137468794Y-96750576D01*
X137508671Y-96654304D01*
X137529000Y-96552102D01*
X137529000Y-96447898D01*
X137508671Y-96345696D01*
X137468794Y-96249424D01*
X137410901Y-96162782D01*
X137337218Y-96089099D01*
X137275558Y-96047898D01*
X140471000Y-96047898D01*
X140471000Y-96152102D01*
X140491329Y-96254304D01*
X140531206Y-96350576D01*
X140589099Y-96437218D01*
X140662782Y-96510901D01*
X140749424Y-96568794D01*
X140845696Y-96608671D01*
X140947898Y-96629000D01*
X141052102Y-96629000D01*
X141154304Y-96608671D01*
X141250576Y-96568794D01*
X141337218Y-96510901D01*
X141410901Y-96437218D01*
X141468794Y-96350576D01*
X141508671Y-96254304D01*
X141529000Y-96152102D01*
X141529000Y-96047898D01*
X141508671Y-95945696D01*
X141468794Y-95849424D01*
X141410901Y-95762782D01*
X141337218Y-95689099D01*
X141250576Y-95631206D01*
X141154304Y-95591329D01*
X141052102Y-95571000D01*
X140947898Y-95571000D01*
X140845696Y-95591329D01*
X140749424Y-95631206D01*
X140662782Y-95689099D01*
X140589099Y-95762782D01*
X140531206Y-95849424D01*
X140491329Y-95945696D01*
X140471000Y-96047898D01*
X137275558Y-96047898D01*
X137250576Y-96031206D01*
X137154304Y-95991329D01*
X137052102Y-95971000D01*
X136947898Y-95971000D01*
X136845696Y-95991329D01*
X136749424Y-96031206D01*
X136662782Y-96089099D01*
X136589099Y-96162782D01*
X136531206Y-96249424D01*
X136491329Y-96345696D01*
X136471000Y-96447898D01*
X135382431Y-96447898D01*
X135652139Y-96178191D01*
X135666448Y-96166448D01*
X135713309Y-96109347D01*
X135748131Y-96044200D01*
X135769574Y-95973513D01*
X135775000Y-95918419D01*
X135775000Y-95918416D01*
X135776814Y-95900000D01*
X135775000Y-95881584D01*
X135775000Y-94347898D01*
X137271000Y-94347898D01*
X137271000Y-94452102D01*
X137291329Y-94554304D01*
X137331206Y-94650576D01*
X137389099Y-94737218D01*
X137462782Y-94810901D01*
X137549424Y-94868794D01*
X137645696Y-94908671D01*
X137671000Y-94913704D01*
X137671000Y-94952102D01*
X137691329Y-95054304D01*
X137731206Y-95150576D01*
X137789099Y-95237218D01*
X137862782Y-95310901D01*
X137949424Y-95368794D01*
X138045696Y-95408671D01*
X138147898Y-95429000D01*
X138252102Y-95429000D01*
X138354304Y-95408671D01*
X138450576Y-95368794D01*
X138481848Y-95347898D01*
X139071000Y-95347898D01*
X139071000Y-95452102D01*
X139091329Y-95554304D01*
X139131206Y-95650576D01*
X139189099Y-95737218D01*
X139262782Y-95810901D01*
X139349424Y-95868794D01*
X139445696Y-95908671D01*
X139547898Y-95929000D01*
X139652102Y-95929000D01*
X139754304Y-95908671D01*
X139850576Y-95868794D01*
X139937218Y-95810901D01*
X140010901Y-95737218D01*
X140068794Y-95650576D01*
X140108671Y-95554304D01*
X140129000Y-95452102D01*
X140129000Y-95347898D01*
X140108671Y-95245696D01*
X140068794Y-95149424D01*
X140010901Y-95062782D01*
X139937218Y-94989099D01*
X139850576Y-94931206D01*
X139754304Y-94891329D01*
X139652102Y-94871000D01*
X139547898Y-94871000D01*
X139445696Y-94891329D01*
X139349424Y-94931206D01*
X139262782Y-94989099D01*
X139189099Y-95062782D01*
X139131206Y-95149424D01*
X139091329Y-95245696D01*
X139071000Y-95347898D01*
X138481848Y-95347898D01*
X138537218Y-95310901D01*
X138610901Y-95237218D01*
X138668794Y-95150576D01*
X138708671Y-95054304D01*
X138729000Y-94952102D01*
X138729000Y-94847898D01*
X138708671Y-94745696D01*
X138668794Y-94649424D01*
X138610901Y-94562782D01*
X138537218Y-94489099D01*
X138450576Y-94431206D01*
X138354304Y-94391329D01*
X138329000Y-94386296D01*
X138329000Y-94347898D01*
X138308671Y-94245696D01*
X138268794Y-94149424D01*
X138210901Y-94062782D01*
X138137218Y-93989099D01*
X138050576Y-93931206D01*
X137954304Y-93891329D01*
X137852102Y-93871000D01*
X137747898Y-93871000D01*
X137645696Y-93891329D01*
X137549424Y-93931206D01*
X137462782Y-93989099D01*
X137389099Y-94062782D01*
X137331206Y-94149424D01*
X137291329Y-94245696D01*
X137271000Y-94347898D01*
X135775000Y-94347898D01*
X135775000Y-92847898D01*
X137271000Y-92847898D01*
X137271000Y-92952102D01*
X137291329Y-93054304D01*
X137331206Y-93150576D01*
X137389099Y-93237218D01*
X137462782Y-93310901D01*
X137549424Y-93368794D01*
X137645696Y-93408671D01*
X137747898Y-93429000D01*
X137852102Y-93429000D01*
X137954304Y-93408671D01*
X138050576Y-93368794D01*
X138137218Y-93310901D01*
X138210901Y-93237218D01*
X138268794Y-93150576D01*
X138302466Y-93069284D01*
X138523852Y-92847898D01*
X142271000Y-92847898D01*
X142271000Y-92952102D01*
X142291329Y-93054304D01*
X142331206Y-93150576D01*
X142389099Y-93237218D01*
X142462782Y-93310901D01*
X142549424Y-93368794D01*
X142645696Y-93408671D01*
X142747898Y-93429000D01*
X142852102Y-93429000D01*
X142954304Y-93408671D01*
X143050576Y-93368794D01*
X143137218Y-93310901D01*
X143210901Y-93237218D01*
X143268794Y-93150576D01*
X143308671Y-93054304D01*
X143329000Y-92952102D01*
X143329000Y-92847898D01*
X143308671Y-92745696D01*
X143268794Y-92649424D01*
X143210901Y-92562782D01*
X143137218Y-92489099D01*
X143050576Y-92431206D01*
X142954304Y-92391329D01*
X142852102Y-92371000D01*
X142747898Y-92371000D01*
X142645696Y-92391329D01*
X142549424Y-92431206D01*
X142462782Y-92489099D01*
X142389099Y-92562782D01*
X142331206Y-92649424D01*
X142291329Y-92745696D01*
X142271000Y-92847898D01*
X138523852Y-92847898D01*
X139896752Y-91475000D01*
X157420612Y-91475000D01*
X157391329Y-91545696D01*
X157371000Y-91647898D01*
X157371000Y-91752102D01*
X157391329Y-91854304D01*
X157431206Y-91950576D01*
X157489099Y-92037218D01*
X157562782Y-92110901D01*
X157649424Y-92168794D01*
X157745696Y-92208671D01*
X157847898Y-92229000D01*
X157952102Y-92229000D01*
X158054304Y-92208671D01*
X158150576Y-92168794D01*
X158237218Y-92110901D01*
X158310901Y-92037218D01*
X158368794Y-91950576D01*
X158408671Y-91854304D01*
X158429000Y-91752102D01*
X158429000Y-91647898D01*
X158408671Y-91545696D01*
X158379388Y-91475000D01*
X180264407Y-91475000D01*
X180345696Y-91508671D01*
X180447898Y-91529000D01*
X180552102Y-91529000D01*
X180654304Y-91508671D01*
X180750576Y-91468794D01*
X180837218Y-91410901D01*
X180910901Y-91337218D01*
X180968794Y-91250576D01*
X181008671Y-91154304D01*
X181029000Y-91052102D01*
X181029000Y-90947898D01*
X181008671Y-90845696D01*
X180968794Y-90749424D01*
X180910901Y-90662782D01*
X180837218Y-90589099D01*
X180750576Y-90531206D01*
X180654304Y-90491329D01*
X180552102Y-90471000D01*
X180447898Y-90471000D01*
X180345696Y-90491329D01*
X180264407Y-90525000D01*
X139723332Y-90525000D01*
X139700000Y-90522702D01*
X139606884Y-90531873D01*
X139517345Y-90559034D01*
X139509993Y-90562964D01*
X139434827Y-90603141D01*
X139362499Y-90662499D01*
X139347625Y-90680623D01*
X137630716Y-92397534D01*
X137549424Y-92431206D01*
X137462782Y-92489099D01*
X137389099Y-92562782D01*
X137331206Y-92649424D01*
X137291329Y-92745696D01*
X137271000Y-92847898D01*
X135775000Y-92847898D01*
X135775000Y-91373119D01*
X135810901Y-91337218D01*
X135868794Y-91250576D01*
X135908671Y-91154304D01*
X135929000Y-91052102D01*
X135929000Y-90947898D01*
X135908671Y-90845696D01*
X135868794Y-90749424D01*
X135810901Y-90662782D01*
X135737218Y-90589099D01*
X135650576Y-90531206D01*
X135554304Y-90491329D01*
X135452102Y-90471000D01*
X135347898Y-90471000D01*
X135245696Y-90491329D01*
X135149424Y-90531206D01*
X135062782Y-90589099D01*
X134989099Y-90662782D01*
X134931206Y-90749424D01*
X134900000Y-90824762D01*
X134868794Y-90749424D01*
X134810901Y-90662782D01*
X134737218Y-90589099D01*
X134650576Y-90531206D01*
X134554304Y-90491329D01*
X134452102Y-90471000D01*
X134347898Y-90471000D01*
X134245696Y-90491329D01*
X134149424Y-90531206D01*
X134062782Y-90589099D01*
X133989099Y-90662782D01*
X133931206Y-90749424D01*
X133900000Y-90824762D01*
X133868794Y-90749424D01*
X133810901Y-90662782D01*
X133737218Y-90589099D01*
X133650576Y-90531206D01*
X133554304Y-90491329D01*
X133452102Y-90471000D01*
X133347898Y-90471000D01*
X133245696Y-90491329D01*
X133149424Y-90531206D01*
X133062782Y-90589099D01*
X132989099Y-90662782D01*
X132931206Y-90749424D01*
X132891329Y-90845696D01*
X132871000Y-90947898D01*
X132871000Y-91052102D01*
X132891329Y-91154304D01*
X132931206Y-91250576D01*
X132989099Y-91337218D01*
X133062782Y-91410901D01*
X133149424Y-91468794D01*
X133245696Y-91508671D01*
X133347898Y-91529000D01*
X133452102Y-91529000D01*
X133554304Y-91508671D01*
X133650576Y-91468794D01*
X133737218Y-91410901D01*
X133810901Y-91337218D01*
X133868794Y-91250576D01*
X133900000Y-91175238D01*
X133931206Y-91250576D01*
X133989099Y-91337218D01*
X134062782Y-91410901D01*
X134149424Y-91468794D01*
X134245696Y-91508671D01*
X134347898Y-91529000D01*
X134452102Y-91529000D01*
X134554304Y-91508671D01*
X134650576Y-91468794D01*
X134737218Y-91410901D01*
X134810901Y-91337218D01*
X134868794Y-91250576D01*
X134900000Y-91175238D01*
X134931206Y-91250576D01*
X134989099Y-91337218D01*
X135025000Y-91373119D01*
X135025001Y-93727791D01*
X135008671Y-93645696D01*
X134968794Y-93549424D01*
X134910901Y-93462782D01*
X134837218Y-93389099D01*
X134750576Y-93331206D01*
X134654304Y-93291329D01*
X134552102Y-93271000D01*
X134447898Y-93271000D01*
X134345696Y-93291329D01*
X134249424Y-93331206D01*
X134200000Y-93364230D01*
X134150576Y-93331206D01*
X134054304Y-93291329D01*
X133952102Y-93271000D01*
X133847898Y-93271000D01*
X133745696Y-93291329D01*
X133649424Y-93331206D01*
X133600000Y-93364230D01*
X133550576Y-93331206D01*
X133454304Y-93291329D01*
X133352102Y-93271000D01*
X133247898Y-93271000D01*
X133145696Y-93291329D01*
X133049424Y-93331206D01*
X132962782Y-93389099D01*
X132889099Y-93462782D01*
X132831206Y-93549424D01*
X132791329Y-93645696D01*
X132771000Y-93747898D01*
X132771000Y-93852102D01*
X132791329Y-93954304D01*
X132831206Y-94050576D01*
X132889099Y-94137218D01*
X132962782Y-94210901D01*
X133049424Y-94268794D01*
X133145696Y-94308671D01*
X133247898Y-94329000D01*
X133352102Y-94329000D01*
X133454304Y-94308671D01*
X133550576Y-94268794D01*
X133600000Y-94235770D01*
X133649424Y-94268794D01*
X133745696Y-94308671D01*
X133847898Y-94329000D01*
X133952102Y-94329000D01*
X134054304Y-94308671D01*
X134150576Y-94268794D01*
X134200000Y-94235770D01*
X134249424Y-94268794D01*
X134345696Y-94308671D01*
X134447898Y-94329000D01*
X134552102Y-94329000D01*
X134654304Y-94308671D01*
X134750576Y-94268794D01*
X134837218Y-94210901D01*
X134910901Y-94137218D01*
X134968794Y-94050576D01*
X135008671Y-93954304D01*
X135025001Y-93872209D01*
X135025001Y-95427793D01*
X135008671Y-95345696D01*
X134968794Y-95249424D01*
X134910901Y-95162782D01*
X134837218Y-95089099D01*
X134750576Y-95031206D01*
X134654304Y-94991329D01*
X134552102Y-94971000D01*
X134447898Y-94971000D01*
X134345696Y-94991329D01*
X134249424Y-95031206D01*
X134200000Y-95064230D01*
X134150576Y-95031206D01*
X134054304Y-94991329D01*
X133952102Y-94971000D01*
X133847898Y-94971000D01*
X133745696Y-94991329D01*
X133649424Y-95031206D01*
X133600000Y-95064230D01*
X133550576Y-95031206D01*
X133454304Y-94991329D01*
X133352102Y-94971000D01*
X133247898Y-94971000D01*
X133145696Y-94991329D01*
X133049424Y-95031206D01*
X132962782Y-95089099D01*
X132889099Y-95162782D01*
X132831206Y-95249424D01*
X132791329Y-95345696D01*
X132771000Y-95447898D01*
X132771000Y-95552102D01*
X132791329Y-95654304D01*
X132831206Y-95750576D01*
X132889099Y-95837218D01*
X132962782Y-95910901D01*
X133049424Y-95968794D01*
X133145696Y-96008671D01*
X133227788Y-96025000D01*
X133218415Y-96025000D01*
X133199999Y-96023186D01*
X133181583Y-96025000D01*
X133181581Y-96025000D01*
X133126487Y-96030426D01*
X133055800Y-96051869D01*
X133055798Y-96051870D01*
X132990652Y-96086691D01*
X132976997Y-96097898D01*
X132933552Y-96133552D01*
X132921810Y-96147860D01*
X132344671Y-96725000D01*
X131919065Y-96725000D01*
X131968794Y-96650576D01*
X132008671Y-96554304D01*
X132029000Y-96452102D01*
X132029000Y-96347898D01*
X132008671Y-96245696D01*
X131968794Y-96149424D01*
X131910901Y-96062782D01*
X131837218Y-95989099D01*
X131750576Y-95931206D01*
X131675238Y-95900000D01*
X131750576Y-95868794D01*
X131837218Y-95810901D01*
X131910901Y-95737218D01*
X131968794Y-95650576D01*
X132008671Y-95554304D01*
X132029000Y-95452102D01*
X132029000Y-95347898D01*
X132008671Y-95245696D01*
X131968794Y-95149424D01*
X131910901Y-95062782D01*
X131837218Y-94989099D01*
X131750576Y-94931206D01*
X131654304Y-94891329D01*
X131552102Y-94871000D01*
X131447898Y-94871000D01*
X131419789Y-94876591D01*
X131408671Y-94820696D01*
X131368794Y-94724424D01*
X131319065Y-94650000D01*
X131368794Y-94575576D01*
X131408671Y-94479304D01*
X131429000Y-94377102D01*
X131429000Y-94272898D01*
X131408671Y-94170696D01*
X131368794Y-94074424D01*
X131310901Y-93987782D01*
X131237218Y-93914099D01*
X131150576Y-93856206D01*
X131054304Y-93816329D01*
X130952102Y-93796000D01*
X130847898Y-93796000D01*
X130745696Y-93816329D01*
X130649424Y-93856206D01*
X130562782Y-93914099D01*
X130489099Y-93987782D01*
X130431206Y-94074424D01*
X130391329Y-94170696D01*
X130371000Y-94272898D01*
X130371000Y-94377102D01*
X130391329Y-94479304D01*
X130431206Y-94575576D01*
X130480935Y-94650000D01*
X130431206Y-94724424D01*
X130391329Y-94820696D01*
X130380211Y-94876591D01*
X130352102Y-94871000D01*
X130247898Y-94871000D01*
X130145696Y-94891329D01*
X130049424Y-94931206D01*
X129962782Y-94989099D01*
X129889099Y-95062782D01*
X129831206Y-95149424D01*
X129791329Y-95245696D01*
X129771000Y-95347898D01*
X129771000Y-95452102D01*
X129791329Y-95554304D01*
X129831206Y-95650576D01*
X129889099Y-95737218D01*
X129962782Y-95810901D01*
X130049424Y-95868794D01*
X130145696Y-95908671D01*
X130247898Y-95929000D01*
X130352102Y-95929000D01*
X130371000Y-95925241D01*
X130371000Y-95952102D01*
X130391329Y-96054304D01*
X130431206Y-96150576D01*
X130489099Y-96237218D01*
X130562782Y-96310901D01*
X130649424Y-96368794D01*
X130745696Y-96408671D01*
X130847898Y-96429000D01*
X130952102Y-96429000D01*
X130971000Y-96425241D01*
X130971000Y-96452102D01*
X130991329Y-96554304D01*
X131031206Y-96650576D01*
X131080935Y-96725000D01*
X127573119Y-96725000D01*
X127537218Y-96689099D01*
X127450576Y-96631206D01*
X127354304Y-96591329D01*
X127252102Y-96571000D01*
X127147898Y-96571000D01*
X127045696Y-96591329D01*
X126949424Y-96631206D01*
X126862782Y-96689099D01*
X126789099Y-96762782D01*
X126731206Y-96849424D01*
X126691329Y-96945696D01*
X126671000Y-97047898D01*
X107414470Y-97047898D01*
X107494454Y-96994454D01*
X109413908Y-95075000D01*
X125750000Y-95075000D01*
X125855238Y-95054067D01*
X125944454Y-94994454D01*
X126004067Y-94905238D01*
X126025000Y-94800000D01*
X126025000Y-94100000D01*
X126004067Y-93994762D01*
X125944454Y-93905546D01*
X125855238Y-93845933D01*
X125750000Y-93825000D01*
X108900000Y-93825000D01*
X108801665Y-93843183D01*
X108710870Y-93900363D01*
X106890420Y-95625000D01*
X103248691Y-95625000D01*
X103736515Y-95527965D01*
X104196036Y-95337626D01*
X104609593Y-95061295D01*
X104961295Y-94709593D01*
X105237626Y-94296036D01*
X105427965Y-93836515D01*
X105485374Y-93547898D01*
X128971000Y-93547898D01*
X128971000Y-93652102D01*
X128991329Y-93754304D01*
X129031206Y-93850576D01*
X129089099Y-93937218D01*
X129162782Y-94010901D01*
X129249424Y-94068794D01*
X129345696Y-94108671D01*
X129447898Y-94129000D01*
X129552102Y-94129000D01*
X129654304Y-94108671D01*
X129750576Y-94068794D01*
X129837218Y-94010901D01*
X129910901Y-93937218D01*
X129968794Y-93850576D01*
X130008671Y-93754304D01*
X130029000Y-93652102D01*
X130029000Y-93629000D01*
X130052102Y-93629000D01*
X130154304Y-93608671D01*
X130250576Y-93568794D01*
X130337218Y-93510901D01*
X130410901Y-93437218D01*
X130468794Y-93350576D01*
X130508671Y-93254304D01*
X130529000Y-93152102D01*
X130529000Y-93047898D01*
X130508671Y-92945696D01*
X130468794Y-92849424D01*
X130467775Y-92847898D01*
X130971000Y-92847898D01*
X130971000Y-92952102D01*
X130991329Y-93054304D01*
X131031206Y-93150576D01*
X131089099Y-93237218D01*
X131162782Y-93310901D01*
X131249424Y-93368794D01*
X131345696Y-93408671D01*
X131447898Y-93429000D01*
X131552102Y-93429000D01*
X131654304Y-93408671D01*
X131750576Y-93368794D01*
X131837218Y-93310901D01*
X131910901Y-93237218D01*
X131968794Y-93150576D01*
X132008671Y-93054304D01*
X132029000Y-92952102D01*
X132029000Y-92847898D01*
X132008671Y-92745696D01*
X131968794Y-92649424D01*
X131910901Y-92562782D01*
X131837218Y-92489099D01*
X131750576Y-92431206D01*
X131654304Y-92391329D01*
X131552102Y-92371000D01*
X131447898Y-92371000D01*
X131345696Y-92391329D01*
X131249424Y-92431206D01*
X131162782Y-92489099D01*
X131089099Y-92562782D01*
X131031206Y-92649424D01*
X130991329Y-92745696D01*
X130971000Y-92847898D01*
X130467775Y-92847898D01*
X130410901Y-92762782D01*
X130337218Y-92689099D01*
X130250576Y-92631206D01*
X130154304Y-92591329D01*
X130052102Y-92571000D01*
X129947898Y-92571000D01*
X129845696Y-92591329D01*
X129749424Y-92631206D01*
X129662782Y-92689099D01*
X129589099Y-92762782D01*
X129531206Y-92849424D01*
X129491329Y-92945696D01*
X129471000Y-93047898D01*
X129471000Y-93071000D01*
X129447898Y-93071000D01*
X129345696Y-93091329D01*
X129249424Y-93131206D01*
X129162782Y-93189099D01*
X129089099Y-93262782D01*
X129031206Y-93349424D01*
X128991329Y-93445696D01*
X128971000Y-93547898D01*
X105485374Y-93547898D01*
X105525000Y-93348691D01*
X105525000Y-92851309D01*
X105427965Y-92363485D01*
X105380088Y-92247898D01*
X126621000Y-92247898D01*
X126621000Y-92352102D01*
X126641329Y-92454304D01*
X126681206Y-92550576D01*
X126739099Y-92637218D01*
X126812782Y-92710901D01*
X126899424Y-92768794D01*
X126995696Y-92808671D01*
X127097898Y-92829000D01*
X127202102Y-92829000D01*
X127304304Y-92808671D01*
X127400576Y-92768794D01*
X127487218Y-92710901D01*
X127560901Y-92637218D01*
X127618794Y-92550576D01*
X127658671Y-92454304D01*
X127679000Y-92352102D01*
X127679000Y-92247898D01*
X127658671Y-92145696D01*
X127618794Y-92049424D01*
X127560901Y-91962782D01*
X127487218Y-91889099D01*
X127400576Y-91831206D01*
X127304304Y-91791329D01*
X127202102Y-91771000D01*
X127097898Y-91771000D01*
X126995696Y-91791329D01*
X126899424Y-91831206D01*
X126812782Y-91889099D01*
X126739099Y-91962782D01*
X126681206Y-92049424D01*
X126641329Y-92145696D01*
X126621000Y-92247898D01*
X105380088Y-92247898D01*
X105237626Y-91903964D01*
X104961295Y-91490407D01*
X104609593Y-91138705D01*
X104196036Y-90862374D01*
X103736515Y-90672035D01*
X103248691Y-90575000D01*
X102751309Y-90575000D01*
X102610956Y-90602918D01*
X103261352Y-90401588D01*
X103989675Y-90325038D01*
X104000553Y-90325000D01*
X195984104Y-90325000D01*
X196713508Y-90396518D01*
X196713508Y-90396518D01*
G37*
X196713508Y-90396518D02*
X196973451Y-90475000D01*
X196751309Y-90475000D01*
X196263485Y-90572035D01*
X195803964Y-90762374D01*
X195390407Y-91038705D01*
X195038705Y-91390407D01*
X194762374Y-91803964D01*
X194572035Y-92263485D01*
X194475000Y-92751309D01*
X194475000Y-93248691D01*
X194572035Y-93736515D01*
X194762374Y-94196036D01*
X195038705Y-94609593D01*
X195390407Y-94961295D01*
X195803964Y-95237626D01*
X196263485Y-95427965D01*
X196751309Y-95525000D01*
X197248691Y-95525000D01*
X197736515Y-95427965D01*
X198196036Y-95237626D01*
X198609593Y-94961295D01*
X198961295Y-94609593D01*
X199237626Y-94196036D01*
X199427965Y-93736515D01*
X199525000Y-93248691D01*
X199525000Y-93024195D01*
X199598412Y-93261352D01*
X199674962Y-93989675D01*
X199675001Y-94000841D01*
X199675000Y-105984103D01*
X199603482Y-106713508D01*
X199525000Y-106973452D01*
X199525000Y-106951309D01*
X199427965Y-106463485D01*
X199237626Y-106003964D01*
X198961295Y-105590407D01*
X198609593Y-105238705D01*
X198196036Y-104962374D01*
X197736515Y-104772035D01*
X197248691Y-104675000D01*
X196751309Y-104675000D01*
X196263485Y-104772035D01*
X195803964Y-104962374D01*
X195390407Y-105238705D01*
X195038705Y-105590407D01*
X194762374Y-106003964D01*
X194572035Y-106463485D01*
X194475000Y-106951309D01*
X194475000Y-107448691D01*
X194572035Y-107936515D01*
X194762374Y-108396036D01*
X195038705Y-108809593D01*
X195390407Y-109161295D01*
X195803964Y-109437626D01*
X196263485Y-109627965D01*
X196330550Y-109641305D01*
X196010325Y-109674962D01*
X195999447Y-109675000D01*
X104015897Y-109675000D01*
X103286492Y-109603482D01*
X103026548Y-109525000D01*
X103248691Y-109525000D01*
X103736515Y-109427965D01*
X104196036Y-109237626D01*
X104609593Y-108961295D01*
X104961295Y-108609593D01*
X105168796Y-108299046D01*
X138735000Y-108299046D01*
X138735000Y-108500954D01*
X138774390Y-108698982D01*
X138851656Y-108885520D01*
X138963830Y-109053400D01*
X139106600Y-109196170D01*
X139274480Y-109308344D01*
X139461018Y-109385610D01*
X139659046Y-109425000D01*
X139860954Y-109425000D01*
X140058982Y-109385610D01*
X140245520Y-109308344D01*
X140413400Y-109196170D01*
X140556170Y-109053400D01*
X140668344Y-108885520D01*
X140745610Y-108698982D01*
X140785000Y-108500954D01*
X140785000Y-108299046D01*
X141275000Y-108299046D01*
X141275000Y-108500954D01*
X141314390Y-108698982D01*
X141391656Y-108885520D01*
X141503830Y-109053400D01*
X141646600Y-109196170D01*
X141814480Y-109308344D01*
X142001018Y-109385610D01*
X142199046Y-109425000D01*
X142400954Y-109425000D01*
X142598982Y-109385610D01*
X142785520Y-109308344D01*
X142953400Y-109196170D01*
X143096170Y-109053400D01*
X143208344Y-108885520D01*
X143285610Y-108698982D01*
X143325000Y-108500954D01*
X143325000Y-108299046D01*
X143285610Y-108101018D01*
X143208344Y-107914480D01*
X143096170Y-107746600D01*
X142953400Y-107603830D01*
X142785520Y-107491656D01*
X142598982Y-107414390D01*
X142400954Y-107375000D01*
X142199046Y-107375000D01*
X142001018Y-107414390D01*
X141814480Y-107491656D01*
X141646600Y-107603830D01*
X141503830Y-107746600D01*
X141391656Y-107914480D01*
X141314390Y-108101018D01*
X141275000Y-108299046D01*
X140785000Y-108299046D01*
X140745610Y-108101018D01*
X140668344Y-107914480D01*
X140556170Y-107746600D01*
X140413400Y-107603830D01*
X140245520Y-107491656D01*
X140058982Y-107414390D01*
X139860954Y-107375000D01*
X139659046Y-107375000D01*
X139461018Y-107414390D01*
X139274480Y-107491656D01*
X139106600Y-107603830D01*
X138963830Y-107746600D01*
X138851656Y-107914480D01*
X138774390Y-108101018D01*
X138735000Y-108299046D01*
X105168796Y-108299046D01*
X105237626Y-108196036D01*
X105427965Y-107736515D01*
X105525000Y-107248691D01*
X105525000Y-106751309D01*
X105484539Y-106547898D01*
X135146000Y-106547898D01*
X135146000Y-106652102D01*
X135166329Y-106754304D01*
X135206206Y-106850576D01*
X135264099Y-106937218D01*
X135337782Y-107010901D01*
X135424424Y-107068794D01*
X135520696Y-107108671D01*
X135622898Y-107129000D01*
X135727102Y-107129000D01*
X135829304Y-107108671D01*
X135925576Y-107068794D01*
X136012218Y-107010901D01*
X136085901Y-106937218D01*
X136143794Y-106850576D01*
X136183671Y-106754304D01*
X136204000Y-106652102D01*
X136204000Y-106547898D01*
X136183671Y-106445696D01*
X136143794Y-106349424D01*
X136085901Y-106262782D01*
X136071017Y-106247898D01*
X136421000Y-106247898D01*
X136421000Y-106352102D01*
X136441329Y-106454304D01*
X136481206Y-106550576D01*
X136539099Y-106637218D01*
X136612782Y-106710901D01*
X136699424Y-106768794D01*
X136795696Y-106808671D01*
X136897898Y-106829000D01*
X137002102Y-106829000D01*
X137104304Y-106808671D01*
X137130312Y-106797898D01*
X145971000Y-106797898D01*
X145971000Y-106902102D01*
X145991329Y-107004304D01*
X146031206Y-107100576D01*
X146089099Y-107187218D01*
X146162782Y-107260901D01*
X146249424Y-107318794D01*
X146345696Y-107358671D01*
X146447898Y-107379000D01*
X146552102Y-107379000D01*
X146654304Y-107358671D01*
X146750576Y-107318794D01*
X146837218Y-107260901D01*
X146910901Y-107187218D01*
X146968794Y-107100576D01*
X147008671Y-107004304D01*
X147029000Y-106902102D01*
X147029000Y-106797898D01*
X147008671Y-106695696D01*
X146968794Y-106599424D01*
X146910901Y-106512782D01*
X146837218Y-106439099D01*
X146750576Y-106381206D01*
X146654304Y-106341329D01*
X146552102Y-106321000D01*
X146447898Y-106321000D01*
X146345696Y-106341329D01*
X146249424Y-106381206D01*
X146162782Y-106439099D01*
X146089099Y-106512782D01*
X146031206Y-106599424D01*
X145991329Y-106695696D01*
X145971000Y-106797898D01*
X137130312Y-106797898D01*
X137200576Y-106768794D01*
X137287218Y-106710901D01*
X137360901Y-106637218D01*
X137418794Y-106550576D01*
X137458671Y-106454304D01*
X137479000Y-106352102D01*
X137479000Y-106247898D01*
X137458671Y-106145696D01*
X137418794Y-106049424D01*
X137417775Y-106047898D01*
X157371000Y-106047898D01*
X157371000Y-106152102D01*
X157391329Y-106254304D01*
X157431206Y-106350576D01*
X157464230Y-106400000D01*
X157431206Y-106449424D01*
X157391329Y-106545696D01*
X157371000Y-106647898D01*
X157371000Y-106752102D01*
X157391329Y-106854304D01*
X157431206Y-106950576D01*
X157489099Y-107037218D01*
X157562782Y-107110901D01*
X157649424Y-107168794D01*
X157745696Y-107208671D01*
X157847898Y-107229000D01*
X157952102Y-107229000D01*
X158054304Y-107208671D01*
X158150576Y-107168794D01*
X158200000Y-107135770D01*
X158249424Y-107168794D01*
X158345696Y-107208671D01*
X158447898Y-107229000D01*
X158552102Y-107229000D01*
X158654304Y-107208671D01*
X158750576Y-107168794D01*
X158800000Y-107135770D01*
X158849424Y-107168794D01*
X158945696Y-107208671D01*
X159047898Y-107229000D01*
X159152102Y-107229000D01*
X159254304Y-107208671D01*
X159350576Y-107168794D01*
X159400000Y-107135770D01*
X159449424Y-107168794D01*
X159545696Y-107208671D01*
X159647898Y-107229000D01*
X159752102Y-107229000D01*
X159854304Y-107208671D01*
X159950576Y-107168794D01*
X160037218Y-107110901D01*
X160110901Y-107037218D01*
X160168794Y-106950576D01*
X160208671Y-106854304D01*
X160229000Y-106752102D01*
X160229000Y-106647898D01*
X160208671Y-106545696D01*
X160168794Y-106449424D01*
X160135770Y-106400000D01*
X160168794Y-106350576D01*
X160208671Y-106254304D01*
X160229000Y-106152102D01*
X160229000Y-106047898D01*
X160208671Y-105945696D01*
X160168794Y-105849424D01*
X160110901Y-105762782D01*
X160037218Y-105689099D01*
X159950576Y-105631206D01*
X159854304Y-105591329D01*
X159752102Y-105571000D01*
X159647898Y-105571000D01*
X159545696Y-105591329D01*
X159449424Y-105631206D01*
X159400000Y-105664230D01*
X159350576Y-105631206D01*
X159254304Y-105591329D01*
X159152102Y-105571000D01*
X159047898Y-105571000D01*
X158945696Y-105591329D01*
X158849424Y-105631206D01*
X158800000Y-105664230D01*
X158750576Y-105631206D01*
X158654304Y-105591329D01*
X158552102Y-105571000D01*
X158447898Y-105571000D01*
X158345696Y-105591329D01*
X158249424Y-105631206D01*
X158200000Y-105664230D01*
X158150576Y-105631206D01*
X158054304Y-105591329D01*
X157952102Y-105571000D01*
X157847898Y-105571000D01*
X157745696Y-105591329D01*
X157649424Y-105631206D01*
X157562782Y-105689099D01*
X157489099Y-105762782D01*
X157431206Y-105849424D01*
X157391329Y-105945696D01*
X157371000Y-106047898D01*
X137417775Y-106047898D01*
X137360901Y-105962782D01*
X137287218Y-105889099D01*
X137200576Y-105831206D01*
X137104304Y-105791329D01*
X137002102Y-105771000D01*
X136897898Y-105771000D01*
X136795696Y-105791329D01*
X136699424Y-105831206D01*
X136612782Y-105889099D01*
X136539099Y-105962782D01*
X136481206Y-106049424D01*
X136441329Y-106145696D01*
X136421000Y-106247898D01*
X136071017Y-106247898D01*
X136012218Y-106189099D01*
X135925576Y-106131206D01*
X135829304Y-106091329D01*
X135727102Y-106071000D01*
X135622898Y-106071000D01*
X135520696Y-106091329D01*
X135424424Y-106131206D01*
X135337782Y-106189099D01*
X135264099Y-106262782D01*
X135206206Y-106349424D01*
X135166329Y-106445696D01*
X135146000Y-106547898D01*
X105484539Y-106547898D01*
X105427965Y-106263485D01*
X105237626Y-105803964D01*
X104961295Y-105390407D01*
X104668786Y-105097898D01*
X152971000Y-105097898D01*
X152971000Y-105202102D01*
X152991329Y-105304304D01*
X153031206Y-105400576D01*
X153089099Y-105487218D01*
X153162782Y-105560901D01*
X153249424Y-105618794D01*
X153345696Y-105658671D01*
X153447898Y-105679000D01*
X153552102Y-105679000D01*
X153654304Y-105658671D01*
X153750576Y-105618794D01*
X153837218Y-105560901D01*
X153910901Y-105487218D01*
X153968794Y-105400576D01*
X154008671Y-105304304D01*
X154029000Y-105202102D01*
X154029000Y-105097898D01*
X154008671Y-104995696D01*
X153968794Y-104899424D01*
X153910901Y-104812782D01*
X153837218Y-104739099D01*
X153750576Y-104681206D01*
X153654304Y-104641329D01*
X153552102Y-104621000D01*
X153447898Y-104621000D01*
X153345696Y-104641329D01*
X153249424Y-104681206D01*
X153162782Y-104739099D01*
X153089099Y-104812782D01*
X153031206Y-104899424D01*
X152991329Y-104995696D01*
X152971000Y-105097898D01*
X104668786Y-105097898D01*
X104609593Y-105038705D01*
X104196036Y-104762374D01*
X103736515Y-104572035D01*
X103248691Y-104475000D01*
X102751309Y-104475000D01*
X102263485Y-104572035D01*
X101803964Y-104762374D01*
X101390407Y-105038705D01*
X101038705Y-105390407D01*
X100762374Y-105803964D01*
X100572035Y-106263485D01*
X100475000Y-106751309D01*
X100475000Y-106975807D01*
X100401589Y-106738653D01*
X100325038Y-106010325D01*
X100325000Y-105999447D01*
X100325000Y-103124132D01*
X129189700Y-103124132D01*
X129189700Y-103275868D01*
X129219302Y-103424688D01*
X129277369Y-103564874D01*
X129361669Y-103691038D01*
X129468962Y-103798331D01*
X129595126Y-103882631D01*
X129735312Y-103940698D01*
X129884132Y-103970300D01*
X130035868Y-103970300D01*
X130184688Y-103940698D01*
X130324874Y-103882631D01*
X130451038Y-103798331D01*
X130466471Y-103782898D01*
X131971000Y-103782898D01*
X131971000Y-103887102D01*
X131991329Y-103989304D01*
X132031206Y-104085576D01*
X132089099Y-104172218D01*
X132162782Y-104245901D01*
X132249424Y-104303794D01*
X132345696Y-104343671D01*
X132447898Y-104364000D01*
X132552102Y-104364000D01*
X132654304Y-104343671D01*
X132750576Y-104303794D01*
X132837218Y-104245901D01*
X132910901Y-104172218D01*
X132968794Y-104085576D01*
X133008671Y-103989304D01*
X133029000Y-103887102D01*
X133029000Y-103782898D01*
X133241000Y-103782898D01*
X133241000Y-103887102D01*
X133261329Y-103989304D01*
X133301206Y-104085576D01*
X133359099Y-104172218D01*
X133432782Y-104245901D01*
X133519424Y-104303794D01*
X133615696Y-104343671D01*
X133717898Y-104364000D01*
X133822102Y-104364000D01*
X133924304Y-104343671D01*
X134020576Y-104303794D01*
X134107218Y-104245901D01*
X134180901Y-104172218D01*
X134202340Y-104140132D01*
X134269700Y-104140132D01*
X134269700Y-104291868D01*
X134299302Y-104440688D01*
X134357369Y-104580874D01*
X134441669Y-104707038D01*
X134548962Y-104814331D01*
X134675126Y-104898631D01*
X134815312Y-104956698D01*
X134964132Y-104986300D01*
X135115868Y-104986300D01*
X135264688Y-104956698D01*
X135404874Y-104898631D01*
X135531038Y-104814331D01*
X135638331Y-104707038D01*
X135722631Y-104580874D01*
X135777711Y-104447898D01*
X151671000Y-104447898D01*
X151671000Y-104552102D01*
X151691329Y-104654304D01*
X151731206Y-104750576D01*
X151789099Y-104837218D01*
X151862782Y-104910901D01*
X151949424Y-104968794D01*
X152045696Y-105008671D01*
X152147898Y-105029000D01*
X152252102Y-105029000D01*
X152354304Y-105008671D01*
X152450576Y-104968794D01*
X152537218Y-104910901D01*
X152610901Y-104837218D01*
X152668794Y-104750576D01*
X152708671Y-104654304D01*
X152729000Y-104552102D01*
X152729000Y-104447898D01*
X152708671Y-104345696D01*
X152668794Y-104249424D01*
X152610901Y-104162782D01*
X152537218Y-104089099D01*
X152450576Y-104031206D01*
X152354304Y-103991329D01*
X152252102Y-103971000D01*
X152147898Y-103971000D01*
X152045696Y-103991329D01*
X151949424Y-104031206D01*
X151862782Y-104089099D01*
X151789099Y-104162782D01*
X151731206Y-104249424D01*
X151691329Y-104345696D01*
X151671000Y-104447898D01*
X135777711Y-104447898D01*
X135780698Y-104440688D01*
X135810300Y-104291868D01*
X135810300Y-104140132D01*
X135780698Y-103991312D01*
X135722631Y-103851126D01*
X135638331Y-103724962D01*
X135531038Y-103617669D01*
X135404874Y-103533369D01*
X135264688Y-103475302D01*
X135115868Y-103445700D01*
X134964132Y-103445700D01*
X134815312Y-103475302D01*
X134675126Y-103533369D01*
X134548962Y-103617669D01*
X134441669Y-103724962D01*
X134357369Y-103851126D01*
X134299302Y-103991312D01*
X134269700Y-104140132D01*
X134202340Y-104140132D01*
X134238794Y-104085576D01*
X134278671Y-103989304D01*
X134299000Y-103887102D01*
X134299000Y-103782898D01*
X134278671Y-103680696D01*
X134238794Y-103584424D01*
X134180901Y-103497782D01*
X134107218Y-103424099D01*
X134020576Y-103366206D01*
X133924304Y-103326329D01*
X133822102Y-103306000D01*
X133717898Y-103306000D01*
X133615696Y-103326329D01*
X133519424Y-103366206D01*
X133432782Y-103424099D01*
X133359099Y-103497782D01*
X133301206Y-103584424D01*
X133261329Y-103680696D01*
X133241000Y-103782898D01*
X133029000Y-103782898D01*
X133008671Y-103680696D01*
X132968794Y-103584424D01*
X132910901Y-103497782D01*
X132837218Y-103424099D01*
X132750576Y-103366206D01*
X132654304Y-103326329D01*
X132552102Y-103306000D01*
X132447898Y-103306000D01*
X132345696Y-103326329D01*
X132249424Y-103366206D01*
X132162782Y-103424099D01*
X132089099Y-103497782D01*
X132031206Y-103584424D01*
X131991329Y-103680696D01*
X131971000Y-103782898D01*
X130466471Y-103782898D01*
X130558331Y-103691038D01*
X130642631Y-103564874D01*
X130700698Y-103424688D01*
X130730300Y-103275868D01*
X130730300Y-103147898D01*
X146121000Y-103147898D01*
X146121000Y-103252102D01*
X146141329Y-103354304D01*
X146181206Y-103450576D01*
X146239099Y-103537218D01*
X146312782Y-103610901D01*
X146399424Y-103668794D01*
X146495696Y-103708671D01*
X146597898Y-103729000D01*
X146702102Y-103729000D01*
X146804304Y-103708671D01*
X146900576Y-103668794D01*
X146987218Y-103610901D01*
X147025000Y-103573119D01*
X147062782Y-103610901D01*
X147149424Y-103668794D01*
X147245696Y-103708671D01*
X147347898Y-103729000D01*
X147452102Y-103729000D01*
X147554304Y-103708671D01*
X147650576Y-103668794D01*
X147737218Y-103610901D01*
X147810901Y-103537218D01*
X147868794Y-103450576D01*
X147908671Y-103354304D01*
X147929000Y-103252102D01*
X147929000Y-103147898D01*
X147908671Y-103045696D01*
X147868794Y-102949424D01*
X147810901Y-102862782D01*
X147737218Y-102789099D01*
X147650576Y-102731206D01*
X147554304Y-102691329D01*
X147452102Y-102671000D01*
X147347898Y-102671000D01*
X147245696Y-102691329D01*
X147149424Y-102731206D01*
X147062782Y-102789099D01*
X147025000Y-102826881D01*
X146987218Y-102789099D01*
X146900576Y-102731206D01*
X146804304Y-102691329D01*
X146702102Y-102671000D01*
X146597898Y-102671000D01*
X146495696Y-102691329D01*
X146399424Y-102731206D01*
X146312782Y-102789099D01*
X146239099Y-102862782D01*
X146181206Y-102949424D01*
X146141329Y-103045696D01*
X146121000Y-103147898D01*
X130730300Y-103147898D01*
X130730300Y-103124132D01*
X130700698Y-102975312D01*
X130642631Y-102835126D01*
X130558331Y-102708962D01*
X130451038Y-102601669D01*
X130324874Y-102517369D01*
X130184688Y-102459302D01*
X130035868Y-102429700D01*
X129884132Y-102429700D01*
X129735312Y-102459302D01*
X129595126Y-102517369D01*
X129468962Y-102601669D01*
X129361669Y-102708962D01*
X129277369Y-102835126D01*
X129219302Y-102975312D01*
X129189700Y-103124132D01*
X100325000Y-103124132D01*
X100325000Y-102000000D01*
X100545404Y-102000000D01*
X100563746Y-102186232D01*
X100618068Y-102365308D01*
X100706282Y-102530345D01*
X100824999Y-102675001D01*
X100969655Y-102793718D01*
X101134692Y-102881932D01*
X101313768Y-102936254D01*
X101453335Y-102950000D01*
X101546665Y-102950000D01*
X101686232Y-102936254D01*
X101865308Y-102881932D01*
X102030345Y-102793718D01*
X102175001Y-102675001D01*
X102293718Y-102530345D01*
X102381932Y-102365308D01*
X102436254Y-102186232D01*
X102454596Y-102000000D01*
X102545404Y-102000000D01*
X102563746Y-102186232D01*
X102618068Y-102365308D01*
X102706282Y-102530345D01*
X102824999Y-102675001D01*
X102969655Y-102793718D01*
X103134692Y-102881932D01*
X103313768Y-102936254D01*
X103453335Y-102950000D01*
X103546665Y-102950000D01*
X103686232Y-102936254D01*
X103865308Y-102881932D01*
X104030345Y-102793718D01*
X104175001Y-102675001D01*
X104293718Y-102530345D01*
X104381932Y-102365308D01*
X104436254Y-102186232D01*
X104443946Y-102108132D01*
X134269700Y-102108132D01*
X134269700Y-102259868D01*
X134299302Y-102408688D01*
X134357369Y-102548874D01*
X134441669Y-102675038D01*
X134548962Y-102782331D01*
X134675126Y-102866631D01*
X134815312Y-102924698D01*
X134964132Y-102954300D01*
X135115868Y-102954300D01*
X135264688Y-102924698D01*
X135404874Y-102866631D01*
X135531038Y-102782331D01*
X135638331Y-102675038D01*
X135722631Y-102548874D01*
X135780698Y-102408688D01*
X135810300Y-102259868D01*
X135810300Y-102108132D01*
X135780698Y-101959312D01*
X135722631Y-101819126D01*
X135638331Y-101692962D01*
X135531038Y-101585669D01*
X135404874Y-101501369D01*
X135264688Y-101443302D01*
X135115868Y-101413700D01*
X134964132Y-101413700D01*
X134815312Y-101443302D01*
X134675126Y-101501369D01*
X134548962Y-101585669D01*
X134441669Y-101692962D01*
X134357369Y-101819126D01*
X134299302Y-101959312D01*
X134269700Y-102108132D01*
X104443946Y-102108132D01*
X104454596Y-102000000D01*
X104436254Y-101813768D01*
X104381932Y-101634692D01*
X104293718Y-101469655D01*
X104175001Y-101324999D01*
X104030345Y-101206282D01*
X103865308Y-101118068D01*
X103686232Y-101063746D01*
X103546665Y-101050000D01*
X103453335Y-101050000D01*
X103313768Y-101063746D01*
X103134692Y-101118068D01*
X102969655Y-101206282D01*
X102824999Y-101324999D01*
X102706282Y-101469655D01*
X102618068Y-101634692D01*
X102563746Y-101813768D01*
X102545404Y-102000000D01*
X102454596Y-102000000D01*
X102436254Y-101813768D01*
X102381932Y-101634692D01*
X102293718Y-101469655D01*
X102175001Y-101324999D01*
X102030345Y-101206282D01*
X101865308Y-101118068D01*
X101686232Y-101063746D01*
X101546665Y-101050000D01*
X101453335Y-101050000D01*
X101313768Y-101063746D01*
X101134692Y-101118068D01*
X100969655Y-101206282D01*
X100824999Y-101324999D01*
X100706282Y-101469655D01*
X100618068Y-101634692D01*
X100563746Y-101813768D01*
X100545404Y-102000000D01*
X100325000Y-102000000D01*
X100325000Y-99275000D01*
X100885923Y-99275000D01*
X100824999Y-99324999D01*
X100706282Y-99469655D01*
X100618068Y-99634692D01*
X100563746Y-99813768D01*
X100545404Y-100000000D01*
X100563746Y-100186232D01*
X100618068Y-100365308D01*
X100706282Y-100530345D01*
X100824999Y-100675001D01*
X100969655Y-100793718D01*
X101134692Y-100881932D01*
X101313768Y-100936254D01*
X101453335Y-100950000D01*
X101546665Y-100950000D01*
X101686232Y-100936254D01*
X101865308Y-100881932D01*
X102030345Y-100793718D01*
X102175001Y-100675001D01*
X102293718Y-100530345D01*
X102381932Y-100365308D01*
X102436254Y-100186232D01*
X102454596Y-100000000D01*
X102545404Y-100000000D01*
X102563746Y-100186232D01*
X102618068Y-100365308D01*
X102706282Y-100530345D01*
X102824999Y-100675001D01*
X102969655Y-100793718D01*
X103134692Y-100881932D01*
X103313768Y-100936254D01*
X103453335Y-100950000D01*
X103546665Y-100950000D01*
X103686232Y-100936254D01*
X103865308Y-100881932D01*
X104030345Y-100793718D01*
X104175001Y-100675001D01*
X104293718Y-100530345D01*
X104381932Y-100365308D01*
X104436254Y-100186232D01*
X104454596Y-100000000D01*
X104439803Y-99849801D01*
X105275000Y-99849801D01*
X105275000Y-100150199D01*
X105333605Y-100444826D01*
X105448562Y-100722358D01*
X105615455Y-100972131D01*
X105827869Y-101184545D01*
X106077642Y-101351438D01*
X106355174Y-101466395D01*
X106649801Y-101525000D01*
X106950199Y-101525000D01*
X107244826Y-101466395D01*
X107522358Y-101351438D01*
X107772131Y-101184545D01*
X107984545Y-100972131D01*
X108151438Y-100722358D01*
X108266395Y-100444826D01*
X108325000Y-100150199D01*
X108325000Y-99849801D01*
X124075000Y-99849801D01*
X124075000Y-100150199D01*
X124133605Y-100444826D01*
X124248562Y-100722358D01*
X124415455Y-100972131D01*
X124627869Y-101184545D01*
X124877642Y-101351438D01*
X125155174Y-101466395D01*
X125449801Y-101525000D01*
X125750199Y-101525000D01*
X126044826Y-101466395D01*
X126322358Y-101351438D01*
X126572131Y-101184545D01*
X126708778Y-101047898D01*
X132621000Y-101047898D01*
X132621000Y-101152102D01*
X132641329Y-101254304D01*
X132681206Y-101350576D01*
X132739099Y-101437218D01*
X132812782Y-101510901D01*
X132899424Y-101568794D01*
X132995696Y-101608671D01*
X133097898Y-101629000D01*
X133202102Y-101629000D01*
X133304304Y-101608671D01*
X133400576Y-101568794D01*
X133487218Y-101510901D01*
X133560901Y-101437218D01*
X133618794Y-101350576D01*
X133658671Y-101254304D01*
X133679000Y-101152102D01*
X133679000Y-101047898D01*
X133658671Y-100945696D01*
X133618794Y-100849424D01*
X133560901Y-100762782D01*
X133487218Y-100689099D01*
X133400576Y-100631206D01*
X133304304Y-100591329D01*
X133202102Y-100571000D01*
X133097898Y-100571000D01*
X132995696Y-100591329D01*
X132899424Y-100631206D01*
X132812782Y-100689099D01*
X132739099Y-100762782D01*
X132681206Y-100849424D01*
X132641329Y-100945696D01*
X132621000Y-101047898D01*
X126708778Y-101047898D01*
X126784545Y-100972131D01*
X126951438Y-100722358D01*
X127066395Y-100444826D01*
X127125000Y-100150199D01*
X127125000Y-99982898D01*
X132606000Y-99982898D01*
X132606000Y-100087102D01*
X132626329Y-100189304D01*
X132666206Y-100285576D01*
X132724099Y-100372218D01*
X132797782Y-100445901D01*
X132884424Y-100503794D01*
X132980696Y-100543671D01*
X133082898Y-100564000D01*
X133187102Y-100564000D01*
X133289304Y-100543671D01*
X133385576Y-100503794D01*
X133472218Y-100445901D01*
X133545901Y-100372218D01*
X133603794Y-100285576D01*
X133643671Y-100189304D01*
X133664000Y-100087102D01*
X133664000Y-99982898D01*
X133643671Y-99880696D01*
X133603794Y-99784424D01*
X133565215Y-99726686D01*
X140225000Y-99726686D01*
X140225000Y-100273314D01*
X140331642Y-100809438D01*
X140540827Y-101314455D01*
X140844517Y-101768959D01*
X141231041Y-102155483D01*
X141685545Y-102459173D01*
X142190562Y-102668358D01*
X142726686Y-102775000D01*
X143273314Y-102775000D01*
X143809438Y-102668358D01*
X144220964Y-102497898D01*
X151171000Y-102497898D01*
X151171000Y-102602102D01*
X151191329Y-102704304D01*
X151231206Y-102800576D01*
X151289099Y-102887218D01*
X151362782Y-102960901D01*
X151449424Y-103018794D01*
X151545696Y-103058671D01*
X151647898Y-103079000D01*
X151752102Y-103079000D01*
X151854304Y-103058671D01*
X151950576Y-103018794D01*
X152037218Y-102960901D01*
X152110901Y-102887218D01*
X152168794Y-102800576D01*
X152208671Y-102704304D01*
X152229000Y-102602102D01*
X152229000Y-102497898D01*
X152208671Y-102395696D01*
X152168794Y-102299424D01*
X152110901Y-102212782D01*
X152037218Y-102139099D01*
X151950576Y-102081206D01*
X151854304Y-102041329D01*
X151752102Y-102021000D01*
X151647898Y-102021000D01*
X151545696Y-102041329D01*
X151449424Y-102081206D01*
X151362782Y-102139099D01*
X151289099Y-102212782D01*
X151231206Y-102299424D01*
X151191329Y-102395696D01*
X151171000Y-102497898D01*
X144220964Y-102497898D01*
X144314455Y-102459173D01*
X144768959Y-102155483D01*
X145155483Y-101768959D01*
X145459173Y-101314455D01*
X145668358Y-100809438D01*
X145700490Y-100647898D01*
X149471000Y-100647898D01*
X149471000Y-100752102D01*
X149491329Y-100854304D01*
X149531206Y-100950576D01*
X149589099Y-101037218D01*
X149662782Y-101110901D01*
X149749424Y-101168794D01*
X149845696Y-101208671D01*
X149947898Y-101229000D01*
X150052102Y-101229000D01*
X150154304Y-101208671D01*
X150250576Y-101168794D01*
X150337218Y-101110901D01*
X150410901Y-101037218D01*
X150468794Y-100950576D01*
X150508671Y-100854304D01*
X150529000Y-100752102D01*
X150529000Y-100647898D01*
X150508671Y-100545696D01*
X150468794Y-100449424D01*
X150410901Y-100362782D01*
X150337218Y-100289099D01*
X150250576Y-100231206D01*
X150154304Y-100191329D01*
X150052102Y-100171000D01*
X149947898Y-100171000D01*
X149845696Y-100191329D01*
X149749424Y-100231206D01*
X149662782Y-100289099D01*
X149589099Y-100362782D01*
X149531206Y-100449424D01*
X149491329Y-100545696D01*
X149471000Y-100647898D01*
X145700490Y-100647898D01*
X145775000Y-100273314D01*
X145775000Y-99975000D01*
X154225000Y-99975000D01*
X154225000Y-100273314D01*
X154331642Y-100809438D01*
X154540827Y-101314455D01*
X154844517Y-101768959D01*
X155231041Y-102155483D01*
X155685545Y-102459173D01*
X156190562Y-102668358D01*
X156726686Y-102775000D01*
X160925000Y-102775000D01*
X160925000Y-104300000D01*
X160945933Y-104405238D01*
X161005546Y-104494454D01*
X161094762Y-104554067D01*
X161200000Y-104575000D01*
X162683882Y-104575000D01*
X162662782Y-104589099D01*
X162589099Y-104662782D01*
X162531206Y-104749424D01*
X162491329Y-104845696D01*
X162471000Y-104947898D01*
X162471000Y-105052102D01*
X162491329Y-105154304D01*
X162531206Y-105250576D01*
X162564230Y-105300000D01*
X162531206Y-105349424D01*
X162491329Y-105445696D01*
X162471000Y-105547898D01*
X162471000Y-105652102D01*
X162491329Y-105754304D01*
X162531206Y-105850576D01*
X162564230Y-105900000D01*
X162531206Y-105949424D01*
X162491329Y-106045696D01*
X162471000Y-106147898D01*
X162471000Y-106252102D01*
X162491329Y-106354304D01*
X162531206Y-106450576D01*
X162564230Y-106500000D01*
X162531206Y-106549424D01*
X162491329Y-106645696D01*
X162471000Y-106747898D01*
X162471000Y-106852102D01*
X162491329Y-106954304D01*
X162531206Y-107050576D01*
X162564230Y-107100000D01*
X162531206Y-107149424D01*
X162491329Y-107245696D01*
X162471000Y-107347898D01*
X162471000Y-107452102D01*
X162491329Y-107554304D01*
X162531206Y-107650576D01*
X162589099Y-107737218D01*
X162662782Y-107810901D01*
X162749424Y-107868794D01*
X162845696Y-107908671D01*
X162947898Y-107929000D01*
X163052102Y-107929000D01*
X163154304Y-107908671D01*
X163250576Y-107868794D01*
X163337218Y-107810901D01*
X163410901Y-107737218D01*
X163468794Y-107650576D01*
X163508671Y-107554304D01*
X163529000Y-107452102D01*
X163529000Y-107347898D01*
X163508671Y-107245696D01*
X163468794Y-107149424D01*
X163435770Y-107100000D01*
X163468794Y-107050576D01*
X163508671Y-106954304D01*
X163529000Y-106852102D01*
X163529000Y-106747898D01*
X163508671Y-106645696D01*
X163468794Y-106549424D01*
X163435770Y-106500000D01*
X163468794Y-106450576D01*
X163508671Y-106354304D01*
X163529000Y-106252102D01*
X163529000Y-106147898D01*
X163508671Y-106045696D01*
X163468794Y-105949424D01*
X163435770Y-105900000D01*
X163468794Y-105850576D01*
X163508671Y-105754304D01*
X163529000Y-105652102D01*
X163529000Y-105547898D01*
X163508671Y-105445696D01*
X163468794Y-105349424D01*
X163435770Y-105300000D01*
X163468794Y-105250576D01*
X163508671Y-105154304D01*
X163529000Y-105052102D01*
X163529000Y-104947898D01*
X163508671Y-104845696D01*
X163468794Y-104749424D01*
X163410901Y-104662782D01*
X163337218Y-104589099D01*
X163316118Y-104575000D01*
X165300000Y-104575000D01*
X165405238Y-104554067D01*
X165494454Y-104494454D01*
X165554067Y-104405238D01*
X165575000Y-104300000D01*
X165575000Y-101300098D01*
X165595696Y-101308671D01*
X165697898Y-101329000D01*
X165802102Y-101329000D01*
X165904304Y-101308671D01*
X166000576Y-101268794D01*
X166050000Y-101235770D01*
X166099424Y-101268794D01*
X166195696Y-101308671D01*
X166297898Y-101329000D01*
X166402102Y-101329000D01*
X166504304Y-101308671D01*
X166600576Y-101268794D01*
X166687218Y-101210901D01*
X166760901Y-101137218D01*
X166818794Y-101050576D01*
X166858671Y-100954304D01*
X166879000Y-100852102D01*
X166879000Y-100747898D01*
X166858671Y-100645696D01*
X166818794Y-100549424D01*
X166760901Y-100462782D01*
X166687218Y-100389099D01*
X166600576Y-100331206D01*
X166504304Y-100291329D01*
X166402102Y-100271000D01*
X166297898Y-100271000D01*
X166195696Y-100291329D01*
X166099424Y-100331206D01*
X166050000Y-100364230D01*
X166000576Y-100331206D01*
X165904304Y-100291329D01*
X165802102Y-100271000D01*
X165697898Y-100271000D01*
X165595696Y-100291329D01*
X165575000Y-100299902D01*
X165575000Y-97479148D01*
X167158500Y-97479148D01*
X167158500Y-97583352D01*
X167178829Y-97685554D01*
X167218706Y-97781826D01*
X167276599Y-97868468D01*
X167295631Y-97887500D01*
X167276599Y-97906532D01*
X167218706Y-97993174D01*
X167178829Y-98089446D01*
X167158500Y-98191648D01*
X167158500Y-98295852D01*
X167178829Y-98398054D01*
X167218706Y-98494326D01*
X167276599Y-98580968D01*
X167295631Y-98600000D01*
X167276599Y-98619032D01*
X167218706Y-98705674D01*
X167178829Y-98801946D01*
X167158500Y-98904148D01*
X167158500Y-99008352D01*
X167178829Y-99110554D01*
X167218706Y-99206826D01*
X167276599Y-99293468D01*
X167295631Y-99312500D01*
X167276599Y-99331532D01*
X167218706Y-99418174D01*
X167178829Y-99514446D01*
X167158500Y-99616648D01*
X167158500Y-99720852D01*
X167178829Y-99823054D01*
X167218706Y-99919326D01*
X167276599Y-100005968D01*
X167350282Y-100079651D01*
X167436924Y-100137544D01*
X167533196Y-100177421D01*
X167635398Y-100197750D01*
X167739602Y-100197750D01*
X167841804Y-100177421D01*
X167938076Y-100137544D01*
X168024718Y-100079651D01*
X168098401Y-100005968D01*
X168100000Y-100003575D01*
X168101599Y-100005968D01*
X168175282Y-100079651D01*
X168261924Y-100137544D01*
X168358196Y-100177421D01*
X168460398Y-100197750D01*
X168564602Y-100197750D01*
X168666804Y-100177421D01*
X168763076Y-100137544D01*
X168849718Y-100079651D01*
X168923401Y-100005968D01*
X168981294Y-99919326D01*
X169021171Y-99823054D01*
X169041500Y-99720852D01*
X169041500Y-99616648D01*
X169021171Y-99514446D01*
X168981294Y-99418174D01*
X168923401Y-99331532D01*
X168904369Y-99312500D01*
X168923401Y-99293468D01*
X168981294Y-99206826D01*
X169021171Y-99110554D01*
X169041500Y-99008352D01*
X169041500Y-98904148D01*
X169021171Y-98801946D01*
X168981294Y-98705674D01*
X168923401Y-98619032D01*
X168904369Y-98600000D01*
X168923401Y-98580968D01*
X168981294Y-98494326D01*
X169021171Y-98398054D01*
X169041500Y-98295852D01*
X169041500Y-98191648D01*
X169021171Y-98089446D01*
X168981294Y-97993174D01*
X168923401Y-97906532D01*
X168904369Y-97887500D01*
X168923401Y-97868468D01*
X168981294Y-97781826D01*
X169021171Y-97685554D01*
X169041500Y-97583352D01*
X169041500Y-97479148D01*
X169021171Y-97376946D01*
X168981294Y-97280674D01*
X168923401Y-97194032D01*
X168849718Y-97120349D01*
X168763076Y-97062456D01*
X168666804Y-97022579D01*
X168564602Y-97002250D01*
X168460398Y-97002250D01*
X168358196Y-97022579D01*
X168261924Y-97062456D01*
X168175282Y-97120349D01*
X168101599Y-97194032D01*
X168100000Y-97196425D01*
X168098401Y-97194032D01*
X168024718Y-97120349D01*
X167938076Y-97062456D01*
X167841804Y-97022579D01*
X167739602Y-97002250D01*
X167635398Y-97002250D01*
X167533196Y-97022579D01*
X167436924Y-97062456D01*
X167350282Y-97120349D01*
X167276599Y-97194032D01*
X167218706Y-97280674D01*
X167178829Y-97376946D01*
X167158500Y-97479148D01*
X165575000Y-97479148D01*
X165575000Y-96602474D01*
X165599424Y-96618794D01*
X165695696Y-96658671D01*
X165797898Y-96679000D01*
X165902102Y-96679000D01*
X166004304Y-96658671D01*
X166100576Y-96618794D01*
X166150000Y-96585770D01*
X166199424Y-96618794D01*
X166295696Y-96658671D01*
X166397898Y-96679000D01*
X166502102Y-96679000D01*
X166604304Y-96658671D01*
X166700576Y-96618794D01*
X166787218Y-96560901D01*
X166860901Y-96487218D01*
X166887174Y-96447898D01*
X168971000Y-96447898D01*
X168971000Y-96552102D01*
X168991329Y-96654304D01*
X169031206Y-96750576D01*
X169089099Y-96837218D01*
X169162782Y-96910901D01*
X169249424Y-96968794D01*
X169345696Y-97008671D01*
X169447898Y-97029000D01*
X169552102Y-97029000D01*
X169654304Y-97008671D01*
X169750576Y-96968794D01*
X169837218Y-96910901D01*
X169910901Y-96837218D01*
X169968794Y-96750576D01*
X170008671Y-96654304D01*
X170029000Y-96552102D01*
X170029000Y-96447898D01*
X170008671Y-96345696D01*
X169968794Y-96249424D01*
X169910901Y-96162782D01*
X169837218Y-96089099D01*
X169750576Y-96031206D01*
X169654304Y-95991329D01*
X169552102Y-95971000D01*
X169447898Y-95971000D01*
X169345696Y-95991329D01*
X169249424Y-96031206D01*
X169162782Y-96089099D01*
X169089099Y-96162782D01*
X169031206Y-96249424D01*
X168991329Y-96345696D01*
X168971000Y-96447898D01*
X166887174Y-96447898D01*
X166918794Y-96400576D01*
X166958671Y-96304304D01*
X166979000Y-96202102D01*
X166979000Y-96097898D01*
X166958671Y-95995696D01*
X166918794Y-95899424D01*
X166885770Y-95850000D01*
X166918794Y-95800576D01*
X166958671Y-95704304D01*
X166979000Y-95602102D01*
X166979000Y-95497898D01*
X166958671Y-95395696D01*
X166918794Y-95299424D01*
X166860901Y-95212782D01*
X166787218Y-95139099D01*
X166700576Y-95081206D01*
X166604304Y-95041329D01*
X166502102Y-95021000D01*
X166397898Y-95021000D01*
X166295696Y-95041329D01*
X166199424Y-95081206D01*
X166150000Y-95114230D01*
X166100576Y-95081206D01*
X166004304Y-95041329D01*
X165928369Y-95026225D01*
X167779594Y-93175000D01*
X172180935Y-93175000D01*
X172131206Y-93249424D01*
X172091329Y-93345696D01*
X172071000Y-93447898D01*
X172071000Y-93552102D01*
X172091329Y-93654304D01*
X172131206Y-93750576D01*
X172155018Y-93786212D01*
X172128465Y-93818566D01*
X172098287Y-93875026D01*
X172079703Y-93936289D01*
X172073428Y-94000000D01*
X172075001Y-94015971D01*
X172075001Y-94347526D01*
X172050576Y-94331206D01*
X171954304Y-94291329D01*
X171852102Y-94271000D01*
X171747898Y-94271000D01*
X171645696Y-94291329D01*
X171549424Y-94331206D01*
X171500000Y-94364230D01*
X171450576Y-94331206D01*
X171354304Y-94291329D01*
X171252102Y-94271000D01*
X171147898Y-94271000D01*
X171045696Y-94291329D01*
X170949424Y-94331206D01*
X170862782Y-94389099D01*
X170789099Y-94462782D01*
X170731206Y-94549424D01*
X170691329Y-94645696D01*
X170671000Y-94747898D01*
X170671000Y-94852102D01*
X170691329Y-94954304D01*
X170731206Y-95050576D01*
X170764230Y-95100000D01*
X170731206Y-95149424D01*
X170691329Y-95245696D01*
X170671000Y-95347898D01*
X170671000Y-95452102D01*
X170691329Y-95554304D01*
X170731206Y-95650576D01*
X170764230Y-95700000D01*
X170731206Y-95749424D01*
X170691329Y-95845696D01*
X170671000Y-95947898D01*
X170671000Y-96052102D01*
X170691329Y-96154304D01*
X170731206Y-96250576D01*
X170764230Y-96300000D01*
X170731206Y-96349424D01*
X170691329Y-96445696D01*
X170671000Y-96547898D01*
X170671000Y-96652102D01*
X170691329Y-96754304D01*
X170731206Y-96850576D01*
X170764230Y-96900000D01*
X170731206Y-96949424D01*
X170691329Y-97045696D01*
X170671000Y-97147898D01*
X170671000Y-97252102D01*
X170691329Y-97354304D01*
X170731206Y-97450576D01*
X170764230Y-97500000D01*
X170731206Y-97549424D01*
X170691329Y-97645696D01*
X170671000Y-97747898D01*
X170671000Y-97852102D01*
X170691329Y-97954304D01*
X170731206Y-98050576D01*
X170789099Y-98137218D01*
X170862782Y-98210901D01*
X170949424Y-98268794D01*
X171045696Y-98308671D01*
X171147898Y-98329000D01*
X171252102Y-98329000D01*
X171354304Y-98308671D01*
X171450576Y-98268794D01*
X171500000Y-98235770D01*
X171549424Y-98268794D01*
X171645696Y-98308671D01*
X171747898Y-98329000D01*
X171852102Y-98329000D01*
X171954304Y-98308671D01*
X172050576Y-98268794D01*
X172075001Y-98252474D01*
X172075000Y-100799902D01*
X172054304Y-100791329D01*
X171952102Y-100771000D01*
X171847898Y-100771000D01*
X171745696Y-100791329D01*
X171649424Y-100831206D01*
X171600000Y-100864230D01*
X171550576Y-100831206D01*
X171454304Y-100791329D01*
X171352102Y-100771000D01*
X171247898Y-100771000D01*
X171145696Y-100791329D01*
X171049424Y-100831206D01*
X170962782Y-100889099D01*
X170889099Y-100962782D01*
X170831206Y-101049424D01*
X170791329Y-101145696D01*
X170771000Y-101247898D01*
X170771000Y-101352102D01*
X170791329Y-101454304D01*
X170831206Y-101550576D01*
X170889099Y-101637218D01*
X170962782Y-101710901D01*
X170976429Y-101720020D01*
X170949424Y-101731206D01*
X170862782Y-101789099D01*
X170789099Y-101862782D01*
X170731206Y-101949424D01*
X170691329Y-102045696D01*
X170671000Y-102147898D01*
X170671000Y-102252102D01*
X170691329Y-102354304D01*
X170731206Y-102450576D01*
X170764230Y-102500000D01*
X170731206Y-102549424D01*
X170691329Y-102645696D01*
X170671000Y-102747898D01*
X170671000Y-102852102D01*
X170691329Y-102954304D01*
X170731206Y-103050576D01*
X170764230Y-103100000D01*
X170731206Y-103149424D01*
X170691329Y-103245696D01*
X170671000Y-103347898D01*
X170671000Y-103452102D01*
X170691329Y-103554304D01*
X170731206Y-103650576D01*
X170764230Y-103700000D01*
X170731206Y-103749424D01*
X170691329Y-103845696D01*
X170671000Y-103947898D01*
X170671000Y-104052102D01*
X170691329Y-104154304D01*
X170731206Y-104250576D01*
X170764230Y-104300000D01*
X170731206Y-104349424D01*
X170691329Y-104445696D01*
X170671000Y-104547898D01*
X170671000Y-104652102D01*
X170691329Y-104754304D01*
X170731206Y-104850576D01*
X170764230Y-104900000D01*
X170731206Y-104949424D01*
X170691329Y-105045696D01*
X170671000Y-105147898D01*
X170671000Y-105252102D01*
X170691329Y-105354304D01*
X170731206Y-105450576D01*
X170789099Y-105537218D01*
X170862782Y-105610901D01*
X170949424Y-105668794D01*
X171045696Y-105708671D01*
X171147898Y-105729000D01*
X171252102Y-105729000D01*
X171354304Y-105708671D01*
X171450576Y-105668794D01*
X171500000Y-105635770D01*
X171549424Y-105668794D01*
X171645696Y-105708671D01*
X171747898Y-105729000D01*
X171852102Y-105729000D01*
X171954304Y-105708671D01*
X172050576Y-105668794D01*
X172075000Y-105652474D01*
X172075000Y-105984039D01*
X172073428Y-106000000D01*
X172079703Y-106063711D01*
X172098287Y-106124974D01*
X172128465Y-106181434D01*
X172169079Y-106230921D01*
X172218566Y-106271535D01*
X172275026Y-106301713D01*
X172336289Y-106320297D01*
X172400000Y-106326572D01*
X172415960Y-106325000D01*
X183584040Y-106325000D01*
X183600000Y-106326572D01*
X183663711Y-106320297D01*
X183724974Y-106301713D01*
X183781434Y-106271535D01*
X183830921Y-106230921D01*
X183871535Y-106181434D01*
X183901713Y-106124974D01*
X183920297Y-106063711D01*
X183925000Y-106015961D01*
X183925000Y-106015960D01*
X183926572Y-106000000D01*
X183925000Y-105984039D01*
X183925000Y-103324445D01*
X183947898Y-103329000D01*
X184052102Y-103329000D01*
X184154304Y-103308671D01*
X184250576Y-103268794D01*
X184300000Y-103235770D01*
X184349424Y-103268794D01*
X184445696Y-103308671D01*
X184547898Y-103329000D01*
X184652102Y-103329000D01*
X184754304Y-103308671D01*
X184850576Y-103268794D01*
X184900000Y-103235770D01*
X184949424Y-103268794D01*
X185045696Y-103308671D01*
X185147898Y-103329000D01*
X185252102Y-103329000D01*
X185354304Y-103308671D01*
X185450576Y-103268794D01*
X185500000Y-103235770D01*
X185549424Y-103268794D01*
X185645696Y-103308671D01*
X185747898Y-103329000D01*
X185852102Y-103329000D01*
X185954304Y-103308671D01*
X186050576Y-103268794D01*
X186100000Y-103235770D01*
X186149424Y-103268794D01*
X186245696Y-103308671D01*
X186347898Y-103329000D01*
X186452102Y-103329000D01*
X186554304Y-103308671D01*
X186650576Y-103268794D01*
X186737218Y-103210901D01*
X186810901Y-103137218D01*
X186868794Y-103050576D01*
X186908671Y-102954304D01*
X186929000Y-102852102D01*
X186929000Y-102747898D01*
X186908671Y-102645696D01*
X186868794Y-102549424D01*
X186835770Y-102500000D01*
X186868794Y-102450576D01*
X186908671Y-102354304D01*
X186929000Y-102252102D01*
X186929000Y-102147898D01*
X186908671Y-102045696D01*
X186868794Y-101949424D01*
X186810901Y-101862782D01*
X186737218Y-101789099D01*
X186650576Y-101731206D01*
X186554304Y-101691329D01*
X186452102Y-101671000D01*
X186347898Y-101671000D01*
X186245696Y-101691329D01*
X186149424Y-101731206D01*
X186100000Y-101764230D01*
X186050576Y-101731206D01*
X185954304Y-101691329D01*
X185852102Y-101671000D01*
X185747898Y-101671000D01*
X185645696Y-101691329D01*
X185549424Y-101731206D01*
X185500000Y-101764230D01*
X185450576Y-101731206D01*
X185354304Y-101691329D01*
X185252102Y-101671000D01*
X185147898Y-101671000D01*
X185045696Y-101691329D01*
X184949424Y-101731206D01*
X184900000Y-101764230D01*
X184850576Y-101731206D01*
X184754304Y-101691329D01*
X184652102Y-101671000D01*
X184547898Y-101671000D01*
X184445696Y-101691329D01*
X184349424Y-101731206D01*
X184300000Y-101764230D01*
X184250576Y-101731206D01*
X184154304Y-101691329D01*
X184052102Y-101671000D01*
X183947898Y-101671000D01*
X183925000Y-101675555D01*
X183925000Y-99828200D01*
X189521000Y-99828200D01*
X189521000Y-99971800D01*
X189549015Y-100112641D01*
X189603969Y-100245311D01*
X189683749Y-100364710D01*
X189785290Y-100466251D01*
X189904689Y-100546031D01*
X190037359Y-100600985D01*
X190178200Y-100629000D01*
X190321800Y-100629000D01*
X190462641Y-100600985D01*
X190595311Y-100546031D01*
X190714710Y-100466251D01*
X190816251Y-100364710D01*
X190896031Y-100245311D01*
X190950985Y-100112641D01*
X190979000Y-99971800D01*
X190979000Y-99828200D01*
X190950985Y-99687359D01*
X190896031Y-99554689D01*
X190816251Y-99435290D01*
X190714710Y-99333749D01*
X190595311Y-99253969D01*
X190462641Y-99199015D01*
X190321800Y-99171000D01*
X190178200Y-99171000D01*
X190037359Y-99199015D01*
X189904689Y-99253969D01*
X189785290Y-99333749D01*
X189683749Y-99435290D01*
X189603969Y-99554689D01*
X189549015Y-99687359D01*
X189521000Y-99828200D01*
X183925000Y-99828200D01*
X183925000Y-94015961D01*
X183926572Y-94000000D01*
X183920297Y-93936289D01*
X183901713Y-93875026D01*
X183871535Y-93818566D01*
X183830921Y-93769079D01*
X183781434Y-93728465D01*
X183724974Y-93698287D01*
X183663711Y-93679703D01*
X183615961Y-93675000D01*
X183615960Y-93675000D01*
X183600000Y-93673428D01*
X183584039Y-93675000D01*
X174900098Y-93675000D01*
X174908671Y-93654304D01*
X174929000Y-93552102D01*
X174929000Y-93447898D01*
X174908671Y-93345696D01*
X174868794Y-93249424D01*
X174819065Y-93175000D01*
X182924626Y-93175000D01*
X182987359Y-93200985D01*
X183128200Y-93229000D01*
X183271800Y-93229000D01*
X183412641Y-93200985D01*
X183475374Y-93175000D01*
X190720406Y-93175000D01*
X195363628Y-97818222D01*
X195350000Y-97886735D01*
X195350000Y-98113265D01*
X195394194Y-98335443D01*
X195480884Y-98544729D01*
X195606737Y-98733082D01*
X195766918Y-98893263D01*
X195825000Y-98932072D01*
X195825001Y-99066268D01*
X195682893Y-99182893D01*
X195539184Y-99358003D01*
X195432398Y-99557785D01*
X195366640Y-99774561D01*
X195344436Y-100000000D01*
X195366640Y-100225439D01*
X195432398Y-100442215D01*
X195539184Y-100641997D01*
X195682893Y-100817107D01*
X195825000Y-100933732D01*
X195825001Y-101066268D01*
X195682893Y-101182893D01*
X195539184Y-101358003D01*
X195432398Y-101557785D01*
X195366640Y-101774561D01*
X195344436Y-102000000D01*
X195366640Y-102225439D01*
X195432398Y-102442215D01*
X195539184Y-102641997D01*
X195682893Y-102817107D01*
X195858003Y-102960816D01*
X196057785Y-103067602D01*
X196274561Y-103133360D01*
X196443508Y-103150000D01*
X196556492Y-103150000D01*
X196725439Y-103133360D01*
X196942215Y-103067602D01*
X197141997Y-102960816D01*
X197317107Y-102817107D01*
X197460816Y-102641997D01*
X197567602Y-102442215D01*
X197604500Y-102320579D01*
X197618068Y-102365308D01*
X197706282Y-102530345D01*
X197824999Y-102675001D01*
X197969655Y-102793718D01*
X198134692Y-102881932D01*
X198313768Y-102936254D01*
X198453335Y-102950000D01*
X198546665Y-102950000D01*
X198686232Y-102936254D01*
X198865308Y-102881932D01*
X199030345Y-102793718D01*
X199175001Y-102675001D01*
X199293718Y-102530345D01*
X199381932Y-102365308D01*
X199436254Y-102186232D01*
X199454596Y-102000000D01*
X199436254Y-101813768D01*
X199381932Y-101634692D01*
X199293718Y-101469655D01*
X199175001Y-101324999D01*
X199030345Y-101206282D01*
X198865308Y-101118068D01*
X198686232Y-101063746D01*
X198546665Y-101050000D01*
X198453335Y-101050000D01*
X198313768Y-101063746D01*
X198134692Y-101118068D01*
X197969655Y-101206282D01*
X197824999Y-101324999D01*
X197706282Y-101469655D01*
X197618068Y-101634692D01*
X197604500Y-101679421D01*
X197567602Y-101557785D01*
X197460816Y-101358003D01*
X197317107Y-101182893D01*
X197175000Y-101066269D01*
X197175000Y-100933731D01*
X197317107Y-100817107D01*
X197460816Y-100641997D01*
X197567602Y-100442215D01*
X197604500Y-100320579D01*
X197618068Y-100365308D01*
X197706282Y-100530345D01*
X197824999Y-100675001D01*
X197969655Y-100793718D01*
X198134692Y-100881932D01*
X198313768Y-100936254D01*
X198453335Y-100950000D01*
X198546665Y-100950000D01*
X198686232Y-100936254D01*
X198865308Y-100881932D01*
X199030345Y-100793718D01*
X199175001Y-100675001D01*
X199293718Y-100530345D01*
X199381932Y-100365308D01*
X199436254Y-100186232D01*
X199454596Y-100000000D01*
X199436254Y-99813768D01*
X199381932Y-99634692D01*
X199293718Y-99469655D01*
X199175001Y-99324999D01*
X199030345Y-99206282D01*
X198865308Y-99118068D01*
X198686232Y-99063746D01*
X198546665Y-99050000D01*
X198453335Y-99050000D01*
X198313768Y-99063746D01*
X198134692Y-99118068D01*
X197969655Y-99206282D01*
X197824999Y-99324999D01*
X197706282Y-99469655D01*
X197618068Y-99634692D01*
X197604500Y-99679421D01*
X197567602Y-99557785D01*
X197460816Y-99358003D01*
X197317107Y-99182893D01*
X197175000Y-99066269D01*
X197175000Y-98932072D01*
X197233082Y-98893263D01*
X197393263Y-98733082D01*
X197519116Y-98544729D01*
X197605806Y-98335443D01*
X197607074Y-98329067D01*
X197618068Y-98365308D01*
X197706282Y-98530345D01*
X197824999Y-98675001D01*
X197969655Y-98793718D01*
X198134692Y-98881932D01*
X198313768Y-98936254D01*
X198453335Y-98950000D01*
X198546665Y-98950000D01*
X198686232Y-98936254D01*
X198865308Y-98881932D01*
X199030345Y-98793718D01*
X199175001Y-98675001D01*
X199293718Y-98530345D01*
X199381932Y-98365308D01*
X199436254Y-98186232D01*
X199454596Y-98000000D01*
X199436254Y-97813768D01*
X199381932Y-97634692D01*
X199293718Y-97469655D01*
X199175001Y-97324999D01*
X199030345Y-97206282D01*
X198865308Y-97118068D01*
X198686232Y-97063746D01*
X198546665Y-97050000D01*
X198453335Y-97050000D01*
X198313768Y-97063746D01*
X198134692Y-97118068D01*
X197969655Y-97206282D01*
X197824999Y-97324999D01*
X197706282Y-97469655D01*
X197618068Y-97634692D01*
X197607074Y-97670933D01*
X197605806Y-97664557D01*
X197519116Y-97455271D01*
X197393263Y-97266918D01*
X197233082Y-97106737D01*
X197044729Y-96980884D01*
X196835443Y-96894194D01*
X196613265Y-96850000D01*
X196386735Y-96850000D01*
X196318222Y-96863628D01*
X191500742Y-92046148D01*
X191479606Y-92020394D01*
X191376824Y-91936042D01*
X191259561Y-91873364D01*
X191132323Y-91834767D01*
X191033159Y-91825000D01*
X191033152Y-91825000D01*
X191000000Y-91821735D01*
X190966848Y-91825000D01*
X183475374Y-91825000D01*
X183412641Y-91799015D01*
X183271800Y-91771000D01*
X183128200Y-91771000D01*
X182987359Y-91799015D01*
X182924626Y-91825000D01*
X167533151Y-91825000D01*
X167499999Y-91821735D01*
X167466847Y-91825000D01*
X167466841Y-91825000D01*
X167381499Y-91833406D01*
X167367676Y-91834767D01*
X167329079Y-91846476D01*
X167240439Y-91873364D01*
X167123176Y-91936042D01*
X167020394Y-92020394D01*
X166999258Y-92046148D01*
X165629000Y-93416406D01*
X165629000Y-93347898D01*
X165608671Y-93245696D01*
X165568794Y-93149424D01*
X165535770Y-93100000D01*
X165568794Y-93050576D01*
X165608671Y-92954304D01*
X165629000Y-92852102D01*
X165629000Y-92747898D01*
X165608671Y-92645696D01*
X165568794Y-92549424D01*
X165510901Y-92462782D01*
X165437218Y-92389099D01*
X165350576Y-92331206D01*
X165254304Y-92291329D01*
X165152102Y-92271000D01*
X165047898Y-92271000D01*
X164945696Y-92291329D01*
X164849424Y-92331206D01*
X164800000Y-92364230D01*
X164750576Y-92331206D01*
X164654304Y-92291329D01*
X164552102Y-92271000D01*
X164447898Y-92271000D01*
X164345696Y-92291329D01*
X164249424Y-92331206D01*
X164162782Y-92389099D01*
X164089099Y-92462782D01*
X164031206Y-92549424D01*
X163991329Y-92645696D01*
X163971000Y-92747898D01*
X163971000Y-92852102D01*
X163991329Y-92954304D01*
X164031206Y-93050576D01*
X164064230Y-93100000D01*
X164031206Y-93149424D01*
X163991329Y-93245696D01*
X163971000Y-93347898D01*
X163971000Y-93452102D01*
X163991329Y-93554304D01*
X164031206Y-93650576D01*
X164080935Y-93725000D01*
X155265659Y-93725000D01*
X155349890Y-93598939D01*
X155446002Y-93366904D01*
X155495000Y-93120577D01*
X155495000Y-92869423D01*
X155446002Y-92623096D01*
X155349890Y-92391061D01*
X155210357Y-92182235D01*
X155032765Y-92004643D01*
X154823939Y-91865110D01*
X154591904Y-91768998D01*
X154345577Y-91720000D01*
X154094423Y-91720000D01*
X153848096Y-91768998D01*
X153616061Y-91865110D01*
X153407235Y-92004643D01*
X153229643Y-92182235D01*
X153090110Y-92391061D01*
X152993998Y-92623096D01*
X152945000Y-92869423D01*
X152945000Y-93120577D01*
X152993998Y-93366904D01*
X153090110Y-93598939D01*
X153174341Y-93725000D01*
X146825659Y-93725000D01*
X146909890Y-93598939D01*
X147006002Y-93366904D01*
X147055000Y-93120577D01*
X147055000Y-92869423D01*
X147006002Y-92623096D01*
X146909890Y-92391061D01*
X146770357Y-92182235D01*
X146592765Y-92004643D01*
X146383939Y-91865110D01*
X146151904Y-91768998D01*
X145905577Y-91720000D01*
X145654423Y-91720000D01*
X145408096Y-91768998D01*
X145176061Y-91865110D01*
X144967235Y-92004643D01*
X144789643Y-92182235D01*
X144650110Y-92391061D01*
X144553998Y-92623096D01*
X144505000Y-92869423D01*
X144505000Y-93120577D01*
X144553998Y-93366904D01*
X144650110Y-93598939D01*
X144734341Y-93725000D01*
X144100000Y-93725000D01*
X143994762Y-93745933D01*
X143905546Y-93805546D01*
X143845933Y-93894762D01*
X143825000Y-94000000D01*
X143825000Y-97338088D01*
X143809438Y-97331642D01*
X143273314Y-97225000D01*
X142726686Y-97225000D01*
X142190562Y-97331642D01*
X141685545Y-97540827D01*
X141231041Y-97844517D01*
X140844517Y-98231041D01*
X140540827Y-98685545D01*
X140331642Y-99190562D01*
X140225000Y-99726686D01*
X133565215Y-99726686D01*
X133545901Y-99697782D01*
X133472218Y-99624099D01*
X133385576Y-99566206D01*
X133289304Y-99526329D01*
X133187102Y-99506000D01*
X133082898Y-99506000D01*
X132980696Y-99526329D01*
X132884424Y-99566206D01*
X132797782Y-99624099D01*
X132724099Y-99697782D01*
X132666206Y-99784424D01*
X132626329Y-99880696D01*
X132606000Y-99982898D01*
X127125000Y-99982898D01*
X127125000Y-99849801D01*
X127066395Y-99555174D01*
X126951438Y-99277642D01*
X126784545Y-99027869D01*
X126572131Y-98815455D01*
X126322358Y-98648562D01*
X126044826Y-98533605D01*
X125865315Y-98497898D01*
X137271000Y-98497898D01*
X137271000Y-98602102D01*
X137291329Y-98704304D01*
X137331206Y-98800576D01*
X137389099Y-98887218D01*
X137462782Y-98960901D01*
X137549424Y-99018794D01*
X137645696Y-99058671D01*
X137747898Y-99079000D01*
X137852102Y-99079000D01*
X137954304Y-99058671D01*
X138050576Y-99018794D01*
X138137218Y-98960901D01*
X138210901Y-98887218D01*
X138268794Y-98800576D01*
X138308671Y-98704304D01*
X138329000Y-98602102D01*
X138329000Y-98497898D01*
X138308671Y-98395696D01*
X138268794Y-98299424D01*
X138210901Y-98212782D01*
X138137218Y-98139099D01*
X138050576Y-98081206D01*
X137954304Y-98041329D01*
X137852102Y-98021000D01*
X137747898Y-98021000D01*
X137645696Y-98041329D01*
X137549424Y-98081206D01*
X137462782Y-98139099D01*
X137389099Y-98212782D01*
X137331206Y-98299424D01*
X137291329Y-98395696D01*
X137271000Y-98497898D01*
X125865315Y-98497898D01*
X125750199Y-98475000D01*
X125449801Y-98475000D01*
X125155174Y-98533605D01*
X124877642Y-98648562D01*
X124627869Y-98815455D01*
X124415455Y-99027869D01*
X124248562Y-99277642D01*
X124133605Y-99555174D01*
X124075000Y-99849801D01*
X108325000Y-99849801D01*
X108266395Y-99555174D01*
X108151438Y-99277642D01*
X107984545Y-99027869D01*
X107772131Y-98815455D01*
X107522358Y-98648562D01*
X107244826Y-98533605D01*
X106950199Y-98475000D01*
X106649801Y-98475000D01*
X106355174Y-98533605D01*
X106077642Y-98648562D01*
X105827869Y-98815455D01*
X105615455Y-99027869D01*
X105448562Y-99277642D01*
X105333605Y-99555174D01*
X105275000Y-99849801D01*
X104439803Y-99849801D01*
X104436254Y-99813768D01*
X104381932Y-99634692D01*
X104293718Y-99469655D01*
X104175001Y-99324999D01*
X104030345Y-99206282D01*
X103865308Y-99118068D01*
X103686232Y-99063746D01*
X103546665Y-99050000D01*
X103453335Y-99050000D01*
X103313768Y-99063746D01*
X103134692Y-99118068D01*
X102969655Y-99206282D01*
X102824999Y-99324999D01*
X102706282Y-99469655D01*
X102618068Y-99634692D01*
X102563746Y-99813768D01*
X102545404Y-100000000D01*
X102454596Y-100000000D01*
X102436254Y-99813768D01*
X102381932Y-99634692D01*
X102293718Y-99469655D01*
X102175001Y-99324999D01*
X102114077Y-99275000D01*
X102500000Y-99275000D01*
X102605238Y-99254067D01*
X102694454Y-99194454D01*
X102754067Y-99105238D01*
X102775000Y-99000000D01*
X102775000Y-98614077D01*
X102824999Y-98675001D01*
X102969655Y-98793718D01*
X103134692Y-98881932D01*
X103313768Y-98936254D01*
X103453335Y-98950000D01*
X103546665Y-98950000D01*
X103686232Y-98936254D01*
X103865308Y-98881932D01*
X104030345Y-98793718D01*
X104175001Y-98675001D01*
X104293718Y-98530345D01*
X104381932Y-98365308D01*
X104436254Y-98186232D01*
X104454596Y-98000000D01*
X104436254Y-97813768D01*
X104381932Y-97634692D01*
X104293718Y-97469655D01*
X104175001Y-97324999D01*
X104030345Y-97206282D01*
X103865308Y-97118068D01*
X103723332Y-97075000D01*
X107300000Y-97075000D01*
X107405238Y-97054067D01*
X107414470Y-97047898D01*
X126671000Y-97047898D01*
X126671000Y-97152102D01*
X126691329Y-97254304D01*
X126731206Y-97350576D01*
X126789099Y-97437218D01*
X126862782Y-97510901D01*
X126949424Y-97568794D01*
X127045696Y-97608671D01*
X127147898Y-97629000D01*
X127252102Y-97629000D01*
X127354304Y-97608671D01*
X127450576Y-97568794D01*
X127537218Y-97510901D01*
X127573119Y-97475000D01*
X132481584Y-97475000D01*
X132500000Y-97476814D01*
X132518416Y-97475000D01*
X132518419Y-97475000D01*
X132573513Y-97469574D01*
X132644200Y-97448131D01*
X132709347Y-97413309D01*
X132766448Y-97366448D01*
X132778195Y-97352134D01*
X133355330Y-96775000D01*
X133827788Y-96775000D01*
X133745696Y-96791329D01*
X133649424Y-96831206D01*
X133562782Y-96889099D01*
X133489099Y-96962782D01*
X133431206Y-97049424D01*
X133391329Y-97145696D01*
X133371000Y-97247898D01*
X133371000Y-97352102D01*
X133391329Y-97454304D01*
X133431206Y-97550576D01*
X133489099Y-97637218D01*
X133562782Y-97710901D01*
X133649424Y-97768794D01*
X133745696Y-97808671D01*
X133847898Y-97829000D01*
X133952102Y-97829000D01*
X134054304Y-97808671D01*
X134150576Y-97768794D01*
X134237218Y-97710901D01*
X134310901Y-97637218D01*
X134368794Y-97550576D01*
X134400000Y-97475238D01*
X134431206Y-97550576D01*
X134489099Y-97637218D01*
X134562782Y-97710901D01*
X134649424Y-97768794D01*
X134745696Y-97808671D01*
X134847898Y-97829000D01*
X134952102Y-97829000D01*
X135054304Y-97808671D01*
X135150576Y-97768794D01*
X135237218Y-97710901D01*
X135250000Y-97698119D01*
X135262782Y-97710901D01*
X135349424Y-97768794D01*
X135445696Y-97808671D01*
X135547898Y-97829000D01*
X135652102Y-97829000D01*
X135754304Y-97808671D01*
X135850576Y-97768794D01*
X135881848Y-97747898D01*
X139071000Y-97747898D01*
X139071000Y-97852102D01*
X139091329Y-97954304D01*
X139131206Y-98050576D01*
X139189099Y-98137218D01*
X139262782Y-98210901D01*
X139349424Y-98268794D01*
X139445696Y-98308671D01*
X139547898Y-98329000D01*
X139652102Y-98329000D01*
X139754304Y-98308671D01*
X139850576Y-98268794D01*
X139937218Y-98210901D01*
X140010901Y-98137218D01*
X140068794Y-98050576D01*
X140108671Y-97954304D01*
X140129000Y-97852102D01*
X140129000Y-97747898D01*
X140108671Y-97645696D01*
X140068794Y-97549424D01*
X140010901Y-97462782D01*
X139937218Y-97389099D01*
X139850576Y-97331206D01*
X139754304Y-97291329D01*
X139652102Y-97271000D01*
X139547898Y-97271000D01*
X139445696Y-97291329D01*
X139349424Y-97331206D01*
X139262782Y-97389099D01*
X139189099Y-97462782D01*
X139131206Y-97549424D01*
X139091329Y-97645696D01*
X139071000Y-97747898D01*
X135881848Y-97747898D01*
X135937218Y-97710901D01*
X136010901Y-97637218D01*
X136068794Y-97550576D01*
X136108671Y-97454304D01*
X136129000Y-97352102D01*
X136129000Y-97247898D01*
X136108671Y-97145696D01*
X136068794Y-97049424D01*
X136010901Y-96962782D01*
X135937218Y-96889099D01*
X135850576Y-96831206D01*
X135754304Y-96791329D01*
X135652102Y-96771000D01*
X135547898Y-96771000D01*
X135445696Y-96791329D01*
X135349424Y-96831206D01*
X135262782Y-96889099D01*
X135250000Y-96901881D01*
X135237218Y-96889099D01*
X135150576Y-96831206D01*
X135054304Y-96791329D01*
X134954398Y-96771457D01*
X134973513Y-96769574D01*
X135044200Y-96748131D01*
X135109347Y-96713309D01*
X135166448Y-96666448D01*
X135178195Y-96652134D01*
X135382431Y-96447898D01*
X136471000Y-96447898D01*
X136471000Y-96552102D01*
X136491329Y-96654304D01*
X136531206Y-96750576D01*
X136589099Y-96837218D01*
X136662782Y-96910901D01*
X136749424Y-96968794D01*
X136845696Y-97008671D01*
X136947898Y-97029000D01*
X137052102Y-97029000D01*
X137154304Y-97008671D01*
X137250576Y-96968794D01*
X137337218Y-96910901D01*
X137410901Y-96837218D01*
X137468794Y-96750576D01*
X137508671Y-96654304D01*
X137529000Y-96552102D01*
X137529000Y-96447898D01*
X137508671Y-96345696D01*
X137468794Y-96249424D01*
X137410901Y-96162782D01*
X137337218Y-96089099D01*
X137275558Y-96047898D01*
X140471000Y-96047898D01*
X140471000Y-96152102D01*
X140491329Y-96254304D01*
X140531206Y-96350576D01*
X140589099Y-96437218D01*
X140662782Y-96510901D01*
X140749424Y-96568794D01*
X140845696Y-96608671D01*
X140947898Y-96629000D01*
X141052102Y-96629000D01*
X141154304Y-96608671D01*
X141250576Y-96568794D01*
X141337218Y-96510901D01*
X141410901Y-96437218D01*
X141468794Y-96350576D01*
X141508671Y-96254304D01*
X141529000Y-96152102D01*
X141529000Y-96047898D01*
X141508671Y-95945696D01*
X141468794Y-95849424D01*
X141410901Y-95762782D01*
X141337218Y-95689099D01*
X141250576Y-95631206D01*
X141154304Y-95591329D01*
X141052102Y-95571000D01*
X140947898Y-95571000D01*
X140845696Y-95591329D01*
X140749424Y-95631206D01*
X140662782Y-95689099D01*
X140589099Y-95762782D01*
X140531206Y-95849424D01*
X140491329Y-95945696D01*
X140471000Y-96047898D01*
X137275558Y-96047898D01*
X137250576Y-96031206D01*
X137154304Y-95991329D01*
X137052102Y-95971000D01*
X136947898Y-95971000D01*
X136845696Y-95991329D01*
X136749424Y-96031206D01*
X136662782Y-96089099D01*
X136589099Y-96162782D01*
X136531206Y-96249424D01*
X136491329Y-96345696D01*
X136471000Y-96447898D01*
X135382431Y-96447898D01*
X135652139Y-96178191D01*
X135666448Y-96166448D01*
X135713309Y-96109347D01*
X135748131Y-96044200D01*
X135769574Y-95973513D01*
X135775000Y-95918419D01*
X135775000Y-95918416D01*
X135776814Y-95900000D01*
X135775000Y-95881584D01*
X135775000Y-94347898D01*
X137271000Y-94347898D01*
X137271000Y-94452102D01*
X137291329Y-94554304D01*
X137331206Y-94650576D01*
X137389099Y-94737218D01*
X137462782Y-94810901D01*
X137549424Y-94868794D01*
X137645696Y-94908671D01*
X137671000Y-94913704D01*
X137671000Y-94952102D01*
X137691329Y-95054304D01*
X137731206Y-95150576D01*
X137789099Y-95237218D01*
X137862782Y-95310901D01*
X137949424Y-95368794D01*
X138045696Y-95408671D01*
X138147898Y-95429000D01*
X138252102Y-95429000D01*
X138354304Y-95408671D01*
X138450576Y-95368794D01*
X138481848Y-95347898D01*
X139071000Y-95347898D01*
X139071000Y-95452102D01*
X139091329Y-95554304D01*
X139131206Y-95650576D01*
X139189099Y-95737218D01*
X139262782Y-95810901D01*
X139349424Y-95868794D01*
X139445696Y-95908671D01*
X139547898Y-95929000D01*
X139652102Y-95929000D01*
X139754304Y-95908671D01*
X139850576Y-95868794D01*
X139937218Y-95810901D01*
X140010901Y-95737218D01*
X140068794Y-95650576D01*
X140108671Y-95554304D01*
X140129000Y-95452102D01*
X140129000Y-95347898D01*
X140108671Y-95245696D01*
X140068794Y-95149424D01*
X140010901Y-95062782D01*
X139937218Y-94989099D01*
X139850576Y-94931206D01*
X139754304Y-94891329D01*
X139652102Y-94871000D01*
X139547898Y-94871000D01*
X139445696Y-94891329D01*
X139349424Y-94931206D01*
X139262782Y-94989099D01*
X139189099Y-95062782D01*
X139131206Y-95149424D01*
X139091329Y-95245696D01*
X139071000Y-95347898D01*
X138481848Y-95347898D01*
X138537218Y-95310901D01*
X138610901Y-95237218D01*
X138668794Y-95150576D01*
X138708671Y-95054304D01*
X138729000Y-94952102D01*
X138729000Y-94847898D01*
X138708671Y-94745696D01*
X138668794Y-94649424D01*
X138610901Y-94562782D01*
X138537218Y-94489099D01*
X138450576Y-94431206D01*
X138354304Y-94391329D01*
X138329000Y-94386296D01*
X138329000Y-94347898D01*
X138308671Y-94245696D01*
X138268794Y-94149424D01*
X138210901Y-94062782D01*
X138137218Y-93989099D01*
X138050576Y-93931206D01*
X137954304Y-93891329D01*
X137852102Y-93871000D01*
X137747898Y-93871000D01*
X137645696Y-93891329D01*
X137549424Y-93931206D01*
X137462782Y-93989099D01*
X137389099Y-94062782D01*
X137331206Y-94149424D01*
X137291329Y-94245696D01*
X137271000Y-94347898D01*
X135775000Y-94347898D01*
X135775000Y-92847898D01*
X137271000Y-92847898D01*
X137271000Y-92952102D01*
X137291329Y-93054304D01*
X137331206Y-93150576D01*
X137389099Y-93237218D01*
X137462782Y-93310901D01*
X137549424Y-93368794D01*
X137645696Y-93408671D01*
X137747898Y-93429000D01*
X137852102Y-93429000D01*
X137954304Y-93408671D01*
X138050576Y-93368794D01*
X138137218Y-93310901D01*
X138210901Y-93237218D01*
X138268794Y-93150576D01*
X138302466Y-93069284D01*
X138523852Y-92847898D01*
X142271000Y-92847898D01*
X142271000Y-92952102D01*
X142291329Y-93054304D01*
X142331206Y-93150576D01*
X142389099Y-93237218D01*
X142462782Y-93310901D01*
X142549424Y-93368794D01*
X142645696Y-93408671D01*
X142747898Y-93429000D01*
X142852102Y-93429000D01*
X142954304Y-93408671D01*
X143050576Y-93368794D01*
X143137218Y-93310901D01*
X143210901Y-93237218D01*
X143268794Y-93150576D01*
X143308671Y-93054304D01*
X143329000Y-92952102D01*
X143329000Y-92847898D01*
X143308671Y-92745696D01*
X143268794Y-92649424D01*
X143210901Y-92562782D01*
X143137218Y-92489099D01*
X143050576Y-92431206D01*
X142954304Y-92391329D01*
X142852102Y-92371000D01*
X142747898Y-92371000D01*
X142645696Y-92391329D01*
X142549424Y-92431206D01*
X142462782Y-92489099D01*
X142389099Y-92562782D01*
X142331206Y-92649424D01*
X142291329Y-92745696D01*
X142271000Y-92847898D01*
X138523852Y-92847898D01*
X139896752Y-91475000D01*
X157420612Y-91475000D01*
X157391329Y-91545696D01*
X157371000Y-91647898D01*
X157371000Y-91752102D01*
X157391329Y-91854304D01*
X157431206Y-91950576D01*
X157489099Y-92037218D01*
X157562782Y-92110901D01*
X157649424Y-92168794D01*
X157745696Y-92208671D01*
X157847898Y-92229000D01*
X157952102Y-92229000D01*
X158054304Y-92208671D01*
X158150576Y-92168794D01*
X158237218Y-92110901D01*
X158310901Y-92037218D01*
X158368794Y-91950576D01*
X158408671Y-91854304D01*
X158429000Y-91752102D01*
X158429000Y-91647898D01*
X158408671Y-91545696D01*
X158379388Y-91475000D01*
X180264407Y-91475000D01*
X180345696Y-91508671D01*
X180447898Y-91529000D01*
X180552102Y-91529000D01*
X180654304Y-91508671D01*
X180750576Y-91468794D01*
X180837218Y-91410901D01*
X180910901Y-91337218D01*
X180968794Y-91250576D01*
X181008671Y-91154304D01*
X181029000Y-91052102D01*
X181029000Y-90947898D01*
X181008671Y-90845696D01*
X180968794Y-90749424D01*
X180910901Y-90662782D01*
X180837218Y-90589099D01*
X180750576Y-90531206D01*
X180654304Y-90491329D01*
X180552102Y-90471000D01*
X180447898Y-90471000D01*
X180345696Y-90491329D01*
X180264407Y-90525000D01*
X139723332Y-90525000D01*
X139700000Y-90522702D01*
X139606884Y-90531873D01*
X139517345Y-90559034D01*
X139509993Y-90562964D01*
X139434827Y-90603141D01*
X139362499Y-90662499D01*
X139347625Y-90680623D01*
X137630716Y-92397534D01*
X137549424Y-92431206D01*
X137462782Y-92489099D01*
X137389099Y-92562782D01*
X137331206Y-92649424D01*
X137291329Y-92745696D01*
X137271000Y-92847898D01*
X135775000Y-92847898D01*
X135775000Y-91373119D01*
X135810901Y-91337218D01*
X135868794Y-91250576D01*
X135908671Y-91154304D01*
X135929000Y-91052102D01*
X135929000Y-90947898D01*
X135908671Y-90845696D01*
X135868794Y-90749424D01*
X135810901Y-90662782D01*
X135737218Y-90589099D01*
X135650576Y-90531206D01*
X135554304Y-90491329D01*
X135452102Y-90471000D01*
X135347898Y-90471000D01*
X135245696Y-90491329D01*
X135149424Y-90531206D01*
X135062782Y-90589099D01*
X134989099Y-90662782D01*
X134931206Y-90749424D01*
X134900000Y-90824762D01*
X134868794Y-90749424D01*
X134810901Y-90662782D01*
X134737218Y-90589099D01*
X134650576Y-90531206D01*
X134554304Y-90491329D01*
X134452102Y-90471000D01*
X134347898Y-90471000D01*
X134245696Y-90491329D01*
X134149424Y-90531206D01*
X134062782Y-90589099D01*
X133989099Y-90662782D01*
X133931206Y-90749424D01*
X133900000Y-90824762D01*
X133868794Y-90749424D01*
X133810901Y-90662782D01*
X133737218Y-90589099D01*
X133650576Y-90531206D01*
X133554304Y-90491329D01*
X133452102Y-90471000D01*
X133347898Y-90471000D01*
X133245696Y-90491329D01*
X133149424Y-90531206D01*
X133062782Y-90589099D01*
X132989099Y-90662782D01*
X132931206Y-90749424D01*
X132891329Y-90845696D01*
X132871000Y-90947898D01*
X132871000Y-91052102D01*
X132891329Y-91154304D01*
X132931206Y-91250576D01*
X132989099Y-91337218D01*
X133062782Y-91410901D01*
X133149424Y-91468794D01*
X133245696Y-91508671D01*
X133347898Y-91529000D01*
X133452102Y-91529000D01*
X133554304Y-91508671D01*
X133650576Y-91468794D01*
X133737218Y-91410901D01*
X133810901Y-91337218D01*
X133868794Y-91250576D01*
X133900000Y-91175238D01*
X133931206Y-91250576D01*
X133989099Y-91337218D01*
X134062782Y-91410901D01*
X134149424Y-91468794D01*
X134245696Y-91508671D01*
X134347898Y-91529000D01*
X134452102Y-91529000D01*
X134554304Y-91508671D01*
X134650576Y-91468794D01*
X134737218Y-91410901D01*
X134810901Y-91337218D01*
X134868794Y-91250576D01*
X134900000Y-91175238D01*
X134931206Y-91250576D01*
X134989099Y-91337218D01*
X135025000Y-91373119D01*
X135025001Y-93727791D01*
X135008671Y-93645696D01*
X134968794Y-93549424D01*
X134910901Y-93462782D01*
X134837218Y-93389099D01*
X134750576Y-93331206D01*
X134654304Y-93291329D01*
X134552102Y-93271000D01*
X134447898Y-93271000D01*
X134345696Y-93291329D01*
X134249424Y-93331206D01*
X134200000Y-93364230D01*
X134150576Y-93331206D01*
X134054304Y-93291329D01*
X133952102Y-93271000D01*
X133847898Y-93271000D01*
X133745696Y-93291329D01*
X133649424Y-93331206D01*
X133600000Y-93364230D01*
X133550576Y-93331206D01*
X133454304Y-93291329D01*
X133352102Y-93271000D01*
X133247898Y-93271000D01*
X133145696Y-93291329D01*
X133049424Y-93331206D01*
X132962782Y-93389099D01*
X132889099Y-93462782D01*
X132831206Y-93549424D01*
X132791329Y-93645696D01*
X132771000Y-93747898D01*
X132771000Y-93852102D01*
X132791329Y-93954304D01*
X132831206Y-94050576D01*
X132889099Y-94137218D01*
X132962782Y-94210901D01*
X133049424Y-94268794D01*
X133145696Y-94308671D01*
X133247898Y-94329000D01*
X133352102Y-94329000D01*
X133454304Y-94308671D01*
X133550576Y-94268794D01*
X133600000Y-94235770D01*
X133649424Y-94268794D01*
X133745696Y-94308671D01*
X133847898Y-94329000D01*
X133952102Y-94329000D01*
X134054304Y-94308671D01*
X134150576Y-94268794D01*
X134200000Y-94235770D01*
X134249424Y-94268794D01*
X134345696Y-94308671D01*
X134447898Y-94329000D01*
X134552102Y-94329000D01*
X134654304Y-94308671D01*
X134750576Y-94268794D01*
X134837218Y-94210901D01*
X134910901Y-94137218D01*
X134968794Y-94050576D01*
X135008671Y-93954304D01*
X135025001Y-93872209D01*
X135025001Y-95427793D01*
X135008671Y-95345696D01*
X134968794Y-95249424D01*
X134910901Y-95162782D01*
X134837218Y-95089099D01*
X134750576Y-95031206D01*
X134654304Y-94991329D01*
X134552102Y-94971000D01*
X134447898Y-94971000D01*
X134345696Y-94991329D01*
X134249424Y-95031206D01*
X134200000Y-95064230D01*
X134150576Y-95031206D01*
X134054304Y-94991329D01*
X133952102Y-94971000D01*
X133847898Y-94971000D01*
X133745696Y-94991329D01*
X133649424Y-95031206D01*
X133600000Y-95064230D01*
X133550576Y-95031206D01*
X133454304Y-94991329D01*
X133352102Y-94971000D01*
X133247898Y-94971000D01*
X133145696Y-94991329D01*
X133049424Y-95031206D01*
X132962782Y-95089099D01*
X132889099Y-95162782D01*
X132831206Y-95249424D01*
X132791329Y-95345696D01*
X132771000Y-95447898D01*
X132771000Y-95552102D01*
X132791329Y-95654304D01*
X132831206Y-95750576D01*
X132889099Y-95837218D01*
X132962782Y-95910901D01*
X133049424Y-95968794D01*
X133145696Y-96008671D01*
X133227788Y-96025000D01*
X133218415Y-96025000D01*
X133199999Y-96023186D01*
X133181583Y-96025000D01*
X133181581Y-96025000D01*
X133126487Y-96030426D01*
X133055800Y-96051869D01*
X133055798Y-96051870D01*
X132990652Y-96086691D01*
X132976997Y-96097898D01*
X132933552Y-96133552D01*
X132921810Y-96147860D01*
X132344671Y-96725000D01*
X131919065Y-96725000D01*
X131968794Y-96650576D01*
X132008671Y-96554304D01*
X132029000Y-96452102D01*
X132029000Y-96347898D01*
X132008671Y-96245696D01*
X131968794Y-96149424D01*
X131910901Y-96062782D01*
X131837218Y-95989099D01*
X131750576Y-95931206D01*
X131675238Y-95900000D01*
X131750576Y-95868794D01*
X131837218Y-95810901D01*
X131910901Y-95737218D01*
X131968794Y-95650576D01*
X132008671Y-95554304D01*
X132029000Y-95452102D01*
X132029000Y-95347898D01*
X132008671Y-95245696D01*
X131968794Y-95149424D01*
X131910901Y-95062782D01*
X131837218Y-94989099D01*
X131750576Y-94931206D01*
X131654304Y-94891329D01*
X131552102Y-94871000D01*
X131447898Y-94871000D01*
X131419789Y-94876591D01*
X131408671Y-94820696D01*
X131368794Y-94724424D01*
X131319065Y-94650000D01*
X131368794Y-94575576D01*
X131408671Y-94479304D01*
X131429000Y-94377102D01*
X131429000Y-94272898D01*
X131408671Y-94170696D01*
X131368794Y-94074424D01*
X131310901Y-93987782D01*
X131237218Y-93914099D01*
X131150576Y-93856206D01*
X131054304Y-93816329D01*
X130952102Y-93796000D01*
X130847898Y-93796000D01*
X130745696Y-93816329D01*
X130649424Y-93856206D01*
X130562782Y-93914099D01*
X130489099Y-93987782D01*
X130431206Y-94074424D01*
X130391329Y-94170696D01*
X130371000Y-94272898D01*
X130371000Y-94377102D01*
X130391329Y-94479304D01*
X130431206Y-94575576D01*
X130480935Y-94650000D01*
X130431206Y-94724424D01*
X130391329Y-94820696D01*
X130380211Y-94876591D01*
X130352102Y-94871000D01*
X130247898Y-94871000D01*
X130145696Y-94891329D01*
X130049424Y-94931206D01*
X129962782Y-94989099D01*
X129889099Y-95062782D01*
X129831206Y-95149424D01*
X129791329Y-95245696D01*
X129771000Y-95347898D01*
X129771000Y-95452102D01*
X129791329Y-95554304D01*
X129831206Y-95650576D01*
X129889099Y-95737218D01*
X129962782Y-95810901D01*
X130049424Y-95868794D01*
X130145696Y-95908671D01*
X130247898Y-95929000D01*
X130352102Y-95929000D01*
X130371000Y-95925241D01*
X130371000Y-95952102D01*
X130391329Y-96054304D01*
X130431206Y-96150576D01*
X130489099Y-96237218D01*
X130562782Y-96310901D01*
X130649424Y-96368794D01*
X130745696Y-96408671D01*
X130847898Y-96429000D01*
X130952102Y-96429000D01*
X130971000Y-96425241D01*
X130971000Y-96452102D01*
X130991329Y-96554304D01*
X131031206Y-96650576D01*
X131080935Y-96725000D01*
X127573119Y-96725000D01*
X127537218Y-96689099D01*
X127450576Y-96631206D01*
X127354304Y-96591329D01*
X127252102Y-96571000D01*
X127147898Y-96571000D01*
X127045696Y-96591329D01*
X126949424Y-96631206D01*
X126862782Y-96689099D01*
X126789099Y-96762782D01*
X126731206Y-96849424D01*
X126691329Y-96945696D01*
X126671000Y-97047898D01*
X107414470Y-97047898D01*
X107494454Y-96994454D01*
X109413908Y-95075000D01*
X125750000Y-95075000D01*
X125855238Y-95054067D01*
X125944454Y-94994454D01*
X126004067Y-94905238D01*
X126025000Y-94800000D01*
X126025000Y-94100000D01*
X126004067Y-93994762D01*
X125944454Y-93905546D01*
X125855238Y-93845933D01*
X125750000Y-93825000D01*
X108900000Y-93825000D01*
X108801665Y-93843183D01*
X108710870Y-93900363D01*
X106890420Y-95625000D01*
X103248691Y-95625000D01*
X103736515Y-95527965D01*
X104196036Y-95337626D01*
X104609593Y-95061295D01*
X104961295Y-94709593D01*
X105237626Y-94296036D01*
X105427965Y-93836515D01*
X105485374Y-93547898D01*
X128971000Y-93547898D01*
X128971000Y-93652102D01*
X128991329Y-93754304D01*
X129031206Y-93850576D01*
X129089099Y-93937218D01*
X129162782Y-94010901D01*
X129249424Y-94068794D01*
X129345696Y-94108671D01*
X129447898Y-94129000D01*
X129552102Y-94129000D01*
X129654304Y-94108671D01*
X129750576Y-94068794D01*
X129837218Y-94010901D01*
X129910901Y-93937218D01*
X129968794Y-93850576D01*
X130008671Y-93754304D01*
X130029000Y-93652102D01*
X130029000Y-93629000D01*
X130052102Y-93629000D01*
X130154304Y-93608671D01*
X130250576Y-93568794D01*
X130337218Y-93510901D01*
X130410901Y-93437218D01*
X130468794Y-93350576D01*
X130508671Y-93254304D01*
X130529000Y-93152102D01*
X130529000Y-93047898D01*
X130508671Y-92945696D01*
X130468794Y-92849424D01*
X130467775Y-92847898D01*
X130971000Y-92847898D01*
X130971000Y-92952102D01*
X130991329Y-93054304D01*
X131031206Y-93150576D01*
X131089099Y-93237218D01*
X131162782Y-93310901D01*
X131249424Y-93368794D01*
X131345696Y-93408671D01*
X131447898Y-93429000D01*
X131552102Y-93429000D01*
X131654304Y-93408671D01*
X131750576Y-93368794D01*
X131837218Y-93310901D01*
X131910901Y-93237218D01*
X131968794Y-93150576D01*
X132008671Y-93054304D01*
X132029000Y-92952102D01*
X132029000Y-92847898D01*
X132008671Y-92745696D01*
X131968794Y-92649424D01*
X131910901Y-92562782D01*
X131837218Y-92489099D01*
X131750576Y-92431206D01*
X131654304Y-92391329D01*
X131552102Y-92371000D01*
X131447898Y-92371000D01*
X131345696Y-92391329D01*
X131249424Y-92431206D01*
X131162782Y-92489099D01*
X131089099Y-92562782D01*
X131031206Y-92649424D01*
X130991329Y-92745696D01*
X130971000Y-92847898D01*
X130467775Y-92847898D01*
X130410901Y-92762782D01*
X130337218Y-92689099D01*
X130250576Y-92631206D01*
X130154304Y-92591329D01*
X130052102Y-92571000D01*
X129947898Y-92571000D01*
X129845696Y-92591329D01*
X129749424Y-92631206D01*
X129662782Y-92689099D01*
X129589099Y-92762782D01*
X129531206Y-92849424D01*
X129491329Y-92945696D01*
X129471000Y-93047898D01*
X129471000Y-93071000D01*
X129447898Y-93071000D01*
X129345696Y-93091329D01*
X129249424Y-93131206D01*
X129162782Y-93189099D01*
X129089099Y-93262782D01*
X129031206Y-93349424D01*
X128991329Y-93445696D01*
X128971000Y-93547898D01*
X105485374Y-93547898D01*
X105525000Y-93348691D01*
X105525000Y-92851309D01*
X105427965Y-92363485D01*
X105380088Y-92247898D01*
X126621000Y-92247898D01*
X126621000Y-92352102D01*
X126641329Y-92454304D01*
X126681206Y-92550576D01*
X126739099Y-92637218D01*
X126812782Y-92710901D01*
X126899424Y-92768794D01*
X126995696Y-92808671D01*
X127097898Y-92829000D01*
X127202102Y-92829000D01*
X127304304Y-92808671D01*
X127400576Y-92768794D01*
X127487218Y-92710901D01*
X127560901Y-92637218D01*
X127618794Y-92550576D01*
X127658671Y-92454304D01*
X127679000Y-92352102D01*
X127679000Y-92247898D01*
X127658671Y-92145696D01*
X127618794Y-92049424D01*
X127560901Y-91962782D01*
X127487218Y-91889099D01*
X127400576Y-91831206D01*
X127304304Y-91791329D01*
X127202102Y-91771000D01*
X127097898Y-91771000D01*
X126995696Y-91791329D01*
X126899424Y-91831206D01*
X126812782Y-91889099D01*
X126739099Y-91962782D01*
X126681206Y-92049424D01*
X126641329Y-92145696D01*
X126621000Y-92247898D01*
X105380088Y-92247898D01*
X105237626Y-91903964D01*
X104961295Y-91490407D01*
X104609593Y-91138705D01*
X104196036Y-90862374D01*
X103736515Y-90672035D01*
X103248691Y-90575000D01*
X102751309Y-90575000D01*
X102610956Y-90602918D01*
X103261352Y-90401588D01*
X103989675Y-90325038D01*
X104000553Y-90325000D01*
X195984104Y-90325000D01*
X196713508Y-90396518D01*
G04 #@! TO.N,/VBUS*
G36*
X145199745Y-94080581D02*
X145422681Y-94172924D01*
X145659348Y-94220000D01*
X145900652Y-94220000D01*
X146137319Y-94172924D01*
X146360255Y-94080581D01*
X146368608Y-94075000D01*
X153631392Y-94075000D01*
X153639745Y-94080581D01*
X153862681Y-94172924D01*
X154099348Y-94220000D01*
X154340652Y-94220000D01*
X154577319Y-94172924D01*
X154800255Y-94080581D01*
X154808608Y-94075000D01*
X157674351Y-94075000D01*
X157673108Y-94075515D01*
X157594655Y-94127936D01*
X157527936Y-94194655D01*
X157475515Y-94273108D01*
X157439407Y-94360281D01*
X157421000Y-94452823D01*
X157421000Y-94547177D01*
X157439407Y-94639719D01*
X157475515Y-94726892D01*
X157527936Y-94805345D01*
X157594655Y-94872064D01*
X157673108Y-94924485D01*
X157760281Y-94960593D01*
X157852823Y-94979000D01*
X157947177Y-94979000D01*
X158039719Y-94960593D01*
X158126892Y-94924485D01*
X158205345Y-94872064D01*
X158272064Y-94805345D01*
X158324485Y-94726892D01*
X158360593Y-94639719D01*
X158379000Y-94547177D01*
X158379000Y-94452823D01*
X158360593Y-94360281D01*
X158324485Y-94273108D01*
X158272064Y-94194655D01*
X158205345Y-94127936D01*
X158126892Y-94075515D01*
X158125649Y-94075000D01*
X164970406Y-94075000D01*
X164317422Y-94727984D01*
X164254689Y-94753969D01*
X164135290Y-94833749D01*
X164033749Y-94935290D01*
X163953969Y-95054689D01*
X163899015Y-95187359D01*
X163871000Y-95328200D01*
X163871000Y-95471800D01*
X163899015Y-95612641D01*
X163953969Y-95745311D01*
X164033749Y-95864710D01*
X164135290Y-95966251D01*
X164254689Y-96046031D01*
X164387359Y-96100985D01*
X164528200Y-96129000D01*
X164671800Y-96129000D01*
X164812641Y-96100985D01*
X164945311Y-96046031D01*
X165064710Y-95966251D01*
X165166251Y-95864710D01*
X165225000Y-95776786D01*
X165225000Y-104225000D01*
X161275000Y-104225000D01*
X161275000Y-102500000D01*
X161273559Y-102485368D01*
X161269291Y-102471299D01*
X161262360Y-102458332D01*
X161253033Y-102446967D01*
X161241668Y-102437640D01*
X161228701Y-102430709D01*
X161214632Y-102426441D01*
X161200000Y-102425000D01*
X158266301Y-102425000D01*
X158290771Y-102414864D01*
X158737086Y-102116646D01*
X159116646Y-101737086D01*
X159414864Y-101290771D01*
X159620280Y-100794853D01*
X159725000Y-100268389D01*
X159725000Y-99731611D01*
X159719274Y-99702823D01*
X164121000Y-99702823D01*
X164121000Y-99797177D01*
X164139407Y-99889719D01*
X164175515Y-99976892D01*
X164227936Y-100055345D01*
X164294655Y-100122064D01*
X164373108Y-100174485D01*
X164460281Y-100210593D01*
X164552823Y-100229000D01*
X164647177Y-100229000D01*
X164739719Y-100210593D01*
X164826892Y-100174485D01*
X164905345Y-100122064D01*
X164972064Y-100055345D01*
X165024485Y-99976892D01*
X165060593Y-99889719D01*
X165079000Y-99797177D01*
X165079000Y-99702823D01*
X165060593Y-99610281D01*
X165024485Y-99523108D01*
X164972064Y-99444655D01*
X164905345Y-99377936D01*
X164826892Y-99325515D01*
X164739719Y-99289407D01*
X164647177Y-99271000D01*
X164552823Y-99271000D01*
X164460281Y-99289407D01*
X164373108Y-99325515D01*
X164294655Y-99377936D01*
X164227936Y-99444655D01*
X164175515Y-99523108D01*
X164139407Y-99610281D01*
X164121000Y-99702823D01*
X159719274Y-99702823D01*
X159620280Y-99205147D01*
X159414864Y-98709229D01*
X159116646Y-98262914D01*
X158737086Y-97883354D01*
X158290771Y-97585136D01*
X157794853Y-97379720D01*
X157268389Y-97275000D01*
X156731611Y-97275000D01*
X156205147Y-97379720D01*
X155709229Y-97585136D01*
X155262914Y-97883354D01*
X154883354Y-98262914D01*
X154585136Y-98709229D01*
X154379720Y-99205147D01*
X154296206Y-99625000D01*
X145703794Y-99625000D01*
X145620280Y-99205147D01*
X145414864Y-98709229D01*
X145116646Y-98262914D01*
X145082477Y-98228745D01*
X145330000Y-98228745D01*
X145330000Y-98391255D01*
X145361704Y-98550644D01*
X145423894Y-98700784D01*
X145514181Y-98835907D01*
X145629093Y-98950819D01*
X145764216Y-99041106D01*
X145914356Y-99103296D01*
X146073745Y-99135000D01*
X146236255Y-99135000D01*
X146395644Y-99103296D01*
X146545784Y-99041106D01*
X146680907Y-98950819D01*
X146795819Y-98835907D01*
X146886106Y-98700784D01*
X146948296Y-98550644D01*
X146967753Y-98452823D01*
X149121000Y-98452823D01*
X149121000Y-98547177D01*
X149139407Y-98639719D01*
X149175515Y-98726892D01*
X149227936Y-98805345D01*
X149294655Y-98872064D01*
X149373108Y-98924485D01*
X149460281Y-98960593D01*
X149552823Y-98979000D01*
X149647177Y-98979000D01*
X149739719Y-98960593D01*
X149826892Y-98924485D01*
X149905345Y-98872064D01*
X149972064Y-98805345D01*
X150000000Y-98763536D01*
X150027936Y-98805345D01*
X150094655Y-98872064D01*
X150173108Y-98924485D01*
X150260281Y-98960593D01*
X150352823Y-98979000D01*
X150447177Y-98979000D01*
X150539719Y-98960593D01*
X150626892Y-98924485D01*
X150705345Y-98872064D01*
X150772064Y-98805345D01*
X150824485Y-98726892D01*
X150860593Y-98639719D01*
X150879000Y-98547177D01*
X150879000Y-98452823D01*
X150860593Y-98360281D01*
X150824485Y-98273108D01*
X150794843Y-98228745D01*
X153020000Y-98228745D01*
X153020000Y-98391255D01*
X153051704Y-98550644D01*
X153113894Y-98700784D01*
X153204181Y-98835907D01*
X153319093Y-98950819D01*
X153454216Y-99041106D01*
X153604356Y-99103296D01*
X153763745Y-99135000D01*
X153926255Y-99135000D01*
X154085644Y-99103296D01*
X154235784Y-99041106D01*
X154370907Y-98950819D01*
X154485819Y-98835907D01*
X154576106Y-98700784D01*
X154638296Y-98550644D01*
X154670000Y-98391255D01*
X154670000Y-98228745D01*
X154638296Y-98069356D01*
X154576106Y-97919216D01*
X154485819Y-97784093D01*
X154370907Y-97669181D01*
X154235784Y-97578894D01*
X154085644Y-97516704D01*
X153926255Y-97485000D01*
X153763745Y-97485000D01*
X153604356Y-97516704D01*
X153454216Y-97578894D01*
X153319093Y-97669181D01*
X153204181Y-97784093D01*
X153113894Y-97919216D01*
X153051704Y-98069356D01*
X153020000Y-98228745D01*
X150794843Y-98228745D01*
X150772064Y-98194655D01*
X150705345Y-98127936D01*
X150626892Y-98075515D01*
X150539719Y-98039407D01*
X150447177Y-98021000D01*
X150352823Y-98021000D01*
X150260281Y-98039407D01*
X150173108Y-98075515D01*
X150094655Y-98127936D01*
X150027936Y-98194655D01*
X150000000Y-98236464D01*
X149972064Y-98194655D01*
X149905345Y-98127936D01*
X149826892Y-98075515D01*
X149739719Y-98039407D01*
X149647177Y-98021000D01*
X149552823Y-98021000D01*
X149460281Y-98039407D01*
X149373108Y-98075515D01*
X149294655Y-98127936D01*
X149227936Y-98194655D01*
X149175515Y-98273108D01*
X149139407Y-98360281D01*
X149121000Y-98452823D01*
X146967753Y-98452823D01*
X146980000Y-98391255D01*
X146980000Y-98228745D01*
X146948296Y-98069356D01*
X146886106Y-97919216D01*
X146795819Y-97784093D01*
X146680907Y-97669181D01*
X146545784Y-97578894D01*
X146395644Y-97516704D01*
X146236255Y-97485000D01*
X146073745Y-97485000D01*
X145914356Y-97516704D01*
X145764216Y-97578894D01*
X145629093Y-97669181D01*
X145514181Y-97784093D01*
X145423894Y-97919216D01*
X145361704Y-98069356D01*
X145330000Y-98228745D01*
X145082477Y-98228745D01*
X144737086Y-97883354D01*
X144290771Y-97585136D01*
X144175000Y-97537182D01*
X144175000Y-95409046D01*
X144845000Y-95409046D01*
X144845000Y-95610954D01*
X144884390Y-95808982D01*
X144961656Y-95995520D01*
X145073830Y-96163400D01*
X145216600Y-96306170D01*
X145384480Y-96418344D01*
X145571018Y-96495610D01*
X145769046Y-96535000D01*
X145897883Y-96535000D01*
X145871136Y-96599571D01*
X145850000Y-96705830D01*
X145850000Y-96814170D01*
X145871136Y-96920429D01*
X145912597Y-97020523D01*
X145972787Y-97110604D01*
X146049396Y-97187213D01*
X146139477Y-97247403D01*
X146239571Y-97288864D01*
X146345830Y-97310000D01*
X146454170Y-97310000D01*
X146560429Y-97288864D01*
X146660523Y-97247403D01*
X146750604Y-97187213D01*
X146827213Y-97110604D01*
X146887403Y-97020523D01*
X146928864Y-96920429D01*
X146950000Y-96814170D01*
X146950000Y-96705830D01*
X146928864Y-96599571D01*
X146923561Y-96586768D01*
X146939477Y-96597403D01*
X147039571Y-96638864D01*
X147145830Y-96660000D01*
X147254170Y-96660000D01*
X147360429Y-96638864D01*
X147460523Y-96597403D01*
X147550604Y-96537213D01*
X147627213Y-96460604D01*
X147687403Y-96370523D01*
X147728864Y-96270429D01*
X147750000Y-96164170D01*
X147750000Y-96055830D01*
X147728864Y-95949571D01*
X147727169Y-95945480D01*
X147760429Y-95938864D01*
X147860523Y-95897403D01*
X147950604Y-95837213D01*
X148000000Y-95787817D01*
X148049396Y-95837213D01*
X148139477Y-95897403D01*
X148239571Y-95938864D01*
X148345830Y-95960000D01*
X148454170Y-95960000D01*
X148560429Y-95938864D01*
X148660523Y-95897403D01*
X148750604Y-95837213D01*
X148800000Y-95787817D01*
X148849396Y-95837213D01*
X148939477Y-95897403D01*
X149039571Y-95938864D01*
X149072831Y-95945480D01*
X149071136Y-95949571D01*
X149050000Y-96055830D01*
X149050000Y-96164170D01*
X149071136Y-96270429D01*
X149112597Y-96370523D01*
X149172787Y-96460604D01*
X149249396Y-96537213D01*
X149339477Y-96597403D01*
X149439571Y-96638864D01*
X149545830Y-96660000D01*
X149654170Y-96660000D01*
X149760429Y-96638864D01*
X149860523Y-96597403D01*
X149950604Y-96537213D01*
X150000000Y-96487817D01*
X150049396Y-96537213D01*
X150139477Y-96597403D01*
X150239571Y-96638864D01*
X150345830Y-96660000D01*
X150454170Y-96660000D01*
X150560429Y-96638864D01*
X150660523Y-96597403D01*
X150750604Y-96537213D01*
X150827213Y-96460604D01*
X150887403Y-96370523D01*
X150928864Y-96270429D01*
X150950000Y-96164170D01*
X150950000Y-96055830D01*
X150928864Y-95949571D01*
X150927169Y-95945480D01*
X150960429Y-95938864D01*
X151060523Y-95897403D01*
X151150604Y-95837213D01*
X151200000Y-95787817D01*
X151249396Y-95837213D01*
X151339477Y-95897403D01*
X151439571Y-95938864D01*
X151545830Y-95960000D01*
X151654170Y-95960000D01*
X151760429Y-95938864D01*
X151860523Y-95897403D01*
X151950604Y-95837213D01*
X152000000Y-95787817D01*
X152049396Y-95837213D01*
X152139477Y-95897403D01*
X152239571Y-95938864D01*
X152272831Y-95945480D01*
X152271136Y-95949571D01*
X152250000Y-96055830D01*
X152250000Y-96164170D01*
X152271136Y-96270429D01*
X152312597Y-96370523D01*
X152372787Y-96460604D01*
X152449396Y-96537213D01*
X152539477Y-96597403D01*
X152639571Y-96638864D01*
X152745830Y-96660000D01*
X152854170Y-96660000D01*
X152960429Y-96638864D01*
X153060523Y-96597403D01*
X153076439Y-96586768D01*
X153071136Y-96599571D01*
X153050000Y-96705830D01*
X153050000Y-96814170D01*
X153071136Y-96920429D01*
X153112597Y-97020523D01*
X153172787Y-97110604D01*
X153249396Y-97187213D01*
X153339477Y-97247403D01*
X153439571Y-97288864D01*
X153545830Y-97310000D01*
X153654170Y-97310000D01*
X153760429Y-97288864D01*
X153860523Y-97247403D01*
X153950604Y-97187213D01*
X154027213Y-97110604D01*
X154087403Y-97020523D01*
X154128864Y-96920429D01*
X154150000Y-96814170D01*
X154150000Y-96705830D01*
X154128864Y-96599571D01*
X154102117Y-96535000D01*
X154230954Y-96535000D01*
X154428982Y-96495610D01*
X154615520Y-96418344D01*
X154783400Y-96306170D01*
X154926170Y-96163400D01*
X155038344Y-95995520D01*
X155115610Y-95808982D01*
X155155000Y-95610954D01*
X155155000Y-95409046D01*
X155115610Y-95211018D01*
X155091506Y-95152823D01*
X161621000Y-95152823D01*
X161621000Y-95247177D01*
X161639407Y-95339719D01*
X161675515Y-95426892D01*
X161727936Y-95505345D01*
X161794655Y-95572064D01*
X161873108Y-95624485D01*
X161960281Y-95660593D01*
X162052823Y-95679000D01*
X162147177Y-95679000D01*
X162239719Y-95660593D01*
X162326892Y-95624485D01*
X162400000Y-95575635D01*
X162473108Y-95624485D01*
X162560281Y-95660593D01*
X162652823Y-95679000D01*
X162747177Y-95679000D01*
X162839719Y-95660593D01*
X162926892Y-95624485D01*
X163000000Y-95575635D01*
X163073108Y-95624485D01*
X163160281Y-95660593D01*
X163252823Y-95679000D01*
X163347177Y-95679000D01*
X163439719Y-95660593D01*
X163526892Y-95624485D01*
X163605345Y-95572064D01*
X163672064Y-95505345D01*
X163724485Y-95426892D01*
X163760593Y-95339719D01*
X163779000Y-95247177D01*
X163779000Y-95152823D01*
X163760593Y-95060281D01*
X163724485Y-94973108D01*
X163672064Y-94894655D01*
X163605345Y-94827936D01*
X163526892Y-94775515D01*
X163439719Y-94739407D01*
X163347177Y-94721000D01*
X163252823Y-94721000D01*
X163160281Y-94739407D01*
X163073108Y-94775515D01*
X163000000Y-94824365D01*
X162926892Y-94775515D01*
X162839719Y-94739407D01*
X162747177Y-94721000D01*
X162652823Y-94721000D01*
X162560281Y-94739407D01*
X162473108Y-94775515D01*
X162400000Y-94824365D01*
X162326892Y-94775515D01*
X162239719Y-94739407D01*
X162147177Y-94721000D01*
X162052823Y-94721000D01*
X161960281Y-94739407D01*
X161873108Y-94775515D01*
X161794655Y-94827936D01*
X161727936Y-94894655D01*
X161675515Y-94973108D01*
X161639407Y-95060281D01*
X161621000Y-95152823D01*
X155091506Y-95152823D01*
X155038344Y-95024480D01*
X154926170Y-94856600D01*
X154783400Y-94713830D01*
X154615520Y-94601656D01*
X154428982Y-94524390D01*
X154230954Y-94485000D01*
X154029046Y-94485000D01*
X153831018Y-94524390D01*
X153644480Y-94601656D01*
X153476600Y-94713830D01*
X153333830Y-94856600D01*
X153221656Y-95024480D01*
X153144390Y-95211018D01*
X153105000Y-95409046D01*
X153105000Y-95610954D01*
X153114488Y-95658655D01*
X153060523Y-95622597D01*
X152960429Y-95581136D01*
X152927169Y-95574520D01*
X152928864Y-95570429D01*
X152950000Y-95464170D01*
X152950000Y-95355830D01*
X152928864Y-95249571D01*
X152887403Y-95149477D01*
X152827213Y-95059396D01*
X152750604Y-94982787D01*
X152660523Y-94922597D01*
X152560429Y-94881136D01*
X152454170Y-94860000D01*
X152345830Y-94860000D01*
X152239571Y-94881136D01*
X152139477Y-94922597D01*
X152049396Y-94982787D01*
X152000000Y-95032183D01*
X151950604Y-94982787D01*
X151860523Y-94922597D01*
X151760429Y-94881136D01*
X151654170Y-94860000D01*
X151545830Y-94860000D01*
X151439571Y-94881136D01*
X151339477Y-94922597D01*
X151249396Y-94982787D01*
X151200000Y-95032183D01*
X151150604Y-94982787D01*
X151060523Y-94922597D01*
X150960429Y-94881136D01*
X150854170Y-94860000D01*
X150745830Y-94860000D01*
X150639571Y-94881136D01*
X150539477Y-94922597D01*
X150449396Y-94982787D01*
X150372787Y-95059396D01*
X150312597Y-95149477D01*
X150271136Y-95249571D01*
X150250000Y-95355830D01*
X150250000Y-95464170D01*
X150271136Y-95570429D01*
X150272831Y-95574520D01*
X150239571Y-95581136D01*
X150139477Y-95622597D01*
X150049396Y-95682787D01*
X150000000Y-95732183D01*
X149950604Y-95682787D01*
X149860523Y-95622597D01*
X149760429Y-95581136D01*
X149727169Y-95574520D01*
X149728864Y-95570429D01*
X149750000Y-95464170D01*
X149750000Y-95355830D01*
X149728864Y-95249571D01*
X149687403Y-95149477D01*
X149627213Y-95059396D01*
X149550604Y-94982787D01*
X149460523Y-94922597D01*
X149360429Y-94881136D01*
X149254170Y-94860000D01*
X149145830Y-94860000D01*
X149039571Y-94881136D01*
X148939477Y-94922597D01*
X148849396Y-94982787D01*
X148800000Y-95032183D01*
X148750604Y-94982787D01*
X148660523Y-94922597D01*
X148560429Y-94881136D01*
X148454170Y-94860000D01*
X148345830Y-94860000D01*
X148239571Y-94881136D01*
X148139477Y-94922597D01*
X148049396Y-94982787D01*
X148000000Y-95032183D01*
X147950604Y-94982787D01*
X147860523Y-94922597D01*
X147760429Y-94881136D01*
X147654170Y-94860000D01*
X147545830Y-94860000D01*
X147439571Y-94881136D01*
X147339477Y-94922597D01*
X147249396Y-94982787D01*
X147172787Y-95059396D01*
X147112597Y-95149477D01*
X147071136Y-95249571D01*
X147050000Y-95355830D01*
X147050000Y-95464170D01*
X147071136Y-95570429D01*
X147072831Y-95574520D01*
X147039571Y-95581136D01*
X146939477Y-95622597D01*
X146885512Y-95658655D01*
X146895000Y-95610954D01*
X146895000Y-95409046D01*
X146855610Y-95211018D01*
X146778344Y-95024480D01*
X146666170Y-94856600D01*
X146523400Y-94713830D01*
X146355520Y-94601656D01*
X146168982Y-94524390D01*
X145970954Y-94485000D01*
X145769046Y-94485000D01*
X145571018Y-94524390D01*
X145384480Y-94601656D01*
X145216600Y-94713830D01*
X145073830Y-94856600D01*
X144961656Y-95024480D01*
X144884390Y-95211018D01*
X144845000Y-95409046D01*
X144175000Y-95409046D01*
X144175000Y-94075000D01*
X145191392Y-94075000D01*
X145199745Y-94080581D01*
X145199745Y-94080581D01*
G37*
X145199745Y-94080581D02*
X145422681Y-94172924D01*
X145659348Y-94220000D01*
X145900652Y-94220000D01*
X146137319Y-94172924D01*
X146360255Y-94080581D01*
X146368608Y-94075000D01*
X153631392Y-94075000D01*
X153639745Y-94080581D01*
X153862681Y-94172924D01*
X154099348Y-94220000D01*
X154340652Y-94220000D01*
X154577319Y-94172924D01*
X154800255Y-94080581D01*
X154808608Y-94075000D01*
X157674351Y-94075000D01*
X157673108Y-94075515D01*
X157594655Y-94127936D01*
X157527936Y-94194655D01*
X157475515Y-94273108D01*
X157439407Y-94360281D01*
X157421000Y-94452823D01*
X157421000Y-94547177D01*
X157439407Y-94639719D01*
X157475515Y-94726892D01*
X157527936Y-94805345D01*
X157594655Y-94872064D01*
X157673108Y-94924485D01*
X157760281Y-94960593D01*
X157852823Y-94979000D01*
X157947177Y-94979000D01*
X158039719Y-94960593D01*
X158126892Y-94924485D01*
X158205345Y-94872064D01*
X158272064Y-94805345D01*
X158324485Y-94726892D01*
X158360593Y-94639719D01*
X158379000Y-94547177D01*
X158379000Y-94452823D01*
X158360593Y-94360281D01*
X158324485Y-94273108D01*
X158272064Y-94194655D01*
X158205345Y-94127936D01*
X158126892Y-94075515D01*
X158125649Y-94075000D01*
X164970406Y-94075000D01*
X164317422Y-94727984D01*
X164254689Y-94753969D01*
X164135290Y-94833749D01*
X164033749Y-94935290D01*
X163953969Y-95054689D01*
X163899015Y-95187359D01*
X163871000Y-95328200D01*
X163871000Y-95471800D01*
X163899015Y-95612641D01*
X163953969Y-95745311D01*
X164033749Y-95864710D01*
X164135290Y-95966251D01*
X164254689Y-96046031D01*
X164387359Y-96100985D01*
X164528200Y-96129000D01*
X164671800Y-96129000D01*
X164812641Y-96100985D01*
X164945311Y-96046031D01*
X165064710Y-95966251D01*
X165166251Y-95864710D01*
X165225000Y-95776786D01*
X165225000Y-104225000D01*
X161275000Y-104225000D01*
X161275000Y-102500000D01*
X161273559Y-102485368D01*
X161269291Y-102471299D01*
X161262360Y-102458332D01*
X161253033Y-102446967D01*
X161241668Y-102437640D01*
X161228701Y-102430709D01*
X161214632Y-102426441D01*
X161200000Y-102425000D01*
X158266301Y-102425000D01*
X158290771Y-102414864D01*
X158737086Y-102116646D01*
X159116646Y-101737086D01*
X159414864Y-101290771D01*
X159620280Y-100794853D01*
X159725000Y-100268389D01*
X159725000Y-99731611D01*
X159719274Y-99702823D01*
X164121000Y-99702823D01*
X164121000Y-99797177D01*
X164139407Y-99889719D01*
X164175515Y-99976892D01*
X164227936Y-100055345D01*
X164294655Y-100122064D01*
X164373108Y-100174485D01*
X164460281Y-100210593D01*
X164552823Y-100229000D01*
X164647177Y-100229000D01*
X164739719Y-100210593D01*
X164826892Y-100174485D01*
X164905345Y-100122064D01*
X164972064Y-100055345D01*
X165024485Y-99976892D01*
X165060593Y-99889719D01*
X165079000Y-99797177D01*
X165079000Y-99702823D01*
X165060593Y-99610281D01*
X165024485Y-99523108D01*
X164972064Y-99444655D01*
X164905345Y-99377936D01*
X164826892Y-99325515D01*
X164739719Y-99289407D01*
X164647177Y-99271000D01*
X164552823Y-99271000D01*
X164460281Y-99289407D01*
X164373108Y-99325515D01*
X164294655Y-99377936D01*
X164227936Y-99444655D01*
X164175515Y-99523108D01*
X164139407Y-99610281D01*
X164121000Y-99702823D01*
X159719274Y-99702823D01*
X159620280Y-99205147D01*
X159414864Y-98709229D01*
X159116646Y-98262914D01*
X158737086Y-97883354D01*
X158290771Y-97585136D01*
X157794853Y-97379720D01*
X157268389Y-97275000D01*
X156731611Y-97275000D01*
X156205147Y-97379720D01*
X155709229Y-97585136D01*
X155262914Y-97883354D01*
X154883354Y-98262914D01*
X154585136Y-98709229D01*
X154379720Y-99205147D01*
X154296206Y-99625000D01*
X145703794Y-99625000D01*
X145620280Y-99205147D01*
X145414864Y-98709229D01*
X145116646Y-98262914D01*
X145082477Y-98228745D01*
X145330000Y-98228745D01*
X145330000Y-98391255D01*
X145361704Y-98550644D01*
X145423894Y-98700784D01*
X145514181Y-98835907D01*
X145629093Y-98950819D01*
X145764216Y-99041106D01*
X145914356Y-99103296D01*
X146073745Y-99135000D01*
X146236255Y-99135000D01*
X146395644Y-99103296D01*
X146545784Y-99041106D01*
X146680907Y-98950819D01*
X146795819Y-98835907D01*
X146886106Y-98700784D01*
X146948296Y-98550644D01*
X146967753Y-98452823D01*
X149121000Y-98452823D01*
X149121000Y-98547177D01*
X149139407Y-98639719D01*
X149175515Y-98726892D01*
X149227936Y-98805345D01*
X149294655Y-98872064D01*
X149373108Y-98924485D01*
X149460281Y-98960593D01*
X149552823Y-98979000D01*
X149647177Y-98979000D01*
X149739719Y-98960593D01*
X149826892Y-98924485D01*
X149905345Y-98872064D01*
X149972064Y-98805345D01*
X150000000Y-98763536D01*
X150027936Y-98805345D01*
X150094655Y-98872064D01*
X150173108Y-98924485D01*
X150260281Y-98960593D01*
X150352823Y-98979000D01*
X150447177Y-98979000D01*
X150539719Y-98960593D01*
X150626892Y-98924485D01*
X150705345Y-98872064D01*
X150772064Y-98805345D01*
X150824485Y-98726892D01*
X150860593Y-98639719D01*
X150879000Y-98547177D01*
X150879000Y-98452823D01*
X150860593Y-98360281D01*
X150824485Y-98273108D01*
X150794843Y-98228745D01*
X153020000Y-98228745D01*
X153020000Y-98391255D01*
X153051704Y-98550644D01*
X153113894Y-98700784D01*
X153204181Y-98835907D01*
X153319093Y-98950819D01*
X153454216Y-99041106D01*
X153604356Y-99103296D01*
X153763745Y-99135000D01*
X153926255Y-99135000D01*
X154085644Y-99103296D01*
X154235784Y-99041106D01*
X154370907Y-98950819D01*
X154485819Y-98835907D01*
X154576106Y-98700784D01*
X154638296Y-98550644D01*
X154670000Y-98391255D01*
X154670000Y-98228745D01*
X154638296Y-98069356D01*
X154576106Y-97919216D01*
X154485819Y-97784093D01*
X154370907Y-97669181D01*
X154235784Y-97578894D01*
X154085644Y-97516704D01*
X153926255Y-97485000D01*
X153763745Y-97485000D01*
X153604356Y-97516704D01*
X153454216Y-97578894D01*
X153319093Y-97669181D01*
X153204181Y-97784093D01*
X153113894Y-97919216D01*
X153051704Y-98069356D01*
X153020000Y-98228745D01*
X150794843Y-98228745D01*
X150772064Y-98194655D01*
X150705345Y-98127936D01*
X150626892Y-98075515D01*
X150539719Y-98039407D01*
X150447177Y-98021000D01*
X150352823Y-98021000D01*
X150260281Y-98039407D01*
X150173108Y-98075515D01*
X150094655Y-98127936D01*
X150027936Y-98194655D01*
X150000000Y-98236464D01*
X149972064Y-98194655D01*
X149905345Y-98127936D01*
X149826892Y-98075515D01*
X149739719Y-98039407D01*
X149647177Y-98021000D01*
X149552823Y-98021000D01*
X149460281Y-98039407D01*
X149373108Y-98075515D01*
X149294655Y-98127936D01*
X149227936Y-98194655D01*
X149175515Y-98273108D01*
X149139407Y-98360281D01*
X149121000Y-98452823D01*
X146967753Y-98452823D01*
X146980000Y-98391255D01*
X146980000Y-98228745D01*
X146948296Y-98069356D01*
X146886106Y-97919216D01*
X146795819Y-97784093D01*
X146680907Y-97669181D01*
X146545784Y-97578894D01*
X146395644Y-97516704D01*
X146236255Y-97485000D01*
X146073745Y-97485000D01*
X145914356Y-97516704D01*
X145764216Y-97578894D01*
X145629093Y-97669181D01*
X145514181Y-97784093D01*
X145423894Y-97919216D01*
X145361704Y-98069356D01*
X145330000Y-98228745D01*
X145082477Y-98228745D01*
X144737086Y-97883354D01*
X144290771Y-97585136D01*
X144175000Y-97537182D01*
X144175000Y-95409046D01*
X144845000Y-95409046D01*
X144845000Y-95610954D01*
X144884390Y-95808982D01*
X144961656Y-95995520D01*
X145073830Y-96163400D01*
X145216600Y-96306170D01*
X145384480Y-96418344D01*
X145571018Y-96495610D01*
X145769046Y-96535000D01*
X145897883Y-96535000D01*
X145871136Y-96599571D01*
X145850000Y-96705830D01*
X145850000Y-96814170D01*
X145871136Y-96920429D01*
X145912597Y-97020523D01*
X145972787Y-97110604D01*
X146049396Y-97187213D01*
X146139477Y-97247403D01*
X146239571Y-97288864D01*
X146345830Y-97310000D01*
X146454170Y-97310000D01*
X146560429Y-97288864D01*
X146660523Y-97247403D01*
X146750604Y-97187213D01*
X146827213Y-97110604D01*
X146887403Y-97020523D01*
X146928864Y-96920429D01*
X146950000Y-96814170D01*
X146950000Y-96705830D01*
X146928864Y-96599571D01*
X146923561Y-96586768D01*
X146939477Y-96597403D01*
X147039571Y-96638864D01*
X147145830Y-96660000D01*
X147254170Y-96660000D01*
X147360429Y-96638864D01*
X147460523Y-96597403D01*
X147550604Y-96537213D01*
X147627213Y-96460604D01*
X147687403Y-96370523D01*
X147728864Y-96270429D01*
X147750000Y-96164170D01*
X147750000Y-96055830D01*
X147728864Y-95949571D01*
X147727169Y-95945480D01*
X147760429Y-95938864D01*
X147860523Y-95897403D01*
X147950604Y-95837213D01*
X148000000Y-95787817D01*
X148049396Y-95837213D01*
X148139477Y-95897403D01*
X148239571Y-95938864D01*
X148345830Y-95960000D01*
X148454170Y-95960000D01*
X148560429Y-95938864D01*
X148660523Y-95897403D01*
X148750604Y-95837213D01*
X148800000Y-95787817D01*
X148849396Y-95837213D01*
X148939477Y-95897403D01*
X149039571Y-95938864D01*
X149072831Y-95945480D01*
X149071136Y-95949571D01*
X149050000Y-96055830D01*
X149050000Y-96164170D01*
X149071136Y-96270429D01*
X149112597Y-96370523D01*
X149172787Y-96460604D01*
X149249396Y-96537213D01*
X149339477Y-96597403D01*
X149439571Y-96638864D01*
X149545830Y-96660000D01*
X149654170Y-96660000D01*
X149760429Y-96638864D01*
X149860523Y-96597403D01*
X149950604Y-96537213D01*
X150000000Y-96487817D01*
X150049396Y-96537213D01*
X150139477Y-96597403D01*
X150239571Y-96638864D01*
X150345830Y-96660000D01*
X150454170Y-96660000D01*
X150560429Y-96638864D01*
X150660523Y-96597403D01*
X150750604Y-96537213D01*
X150827213Y-96460604D01*
X150887403Y-96370523D01*
X150928864Y-96270429D01*
X150950000Y-96164170D01*
X150950000Y-96055830D01*
X150928864Y-95949571D01*
X150927169Y-95945480D01*
X150960429Y-95938864D01*
X151060523Y-95897403D01*
X151150604Y-95837213D01*
X151200000Y-95787817D01*
X151249396Y-95837213D01*
X151339477Y-95897403D01*
X151439571Y-95938864D01*
X151545830Y-95960000D01*
X151654170Y-95960000D01*
X151760429Y-95938864D01*
X151860523Y-95897403D01*
X151950604Y-95837213D01*
X152000000Y-95787817D01*
X152049396Y-95837213D01*
X152139477Y-95897403D01*
X152239571Y-95938864D01*
X152272831Y-95945480D01*
X152271136Y-95949571D01*
X152250000Y-96055830D01*
X152250000Y-96164170D01*
X152271136Y-96270429D01*
X152312597Y-96370523D01*
X152372787Y-96460604D01*
X152449396Y-96537213D01*
X152539477Y-96597403D01*
X152639571Y-96638864D01*
X152745830Y-96660000D01*
X152854170Y-96660000D01*
X152960429Y-96638864D01*
X153060523Y-96597403D01*
X153076439Y-96586768D01*
X153071136Y-96599571D01*
X153050000Y-96705830D01*
X153050000Y-96814170D01*
X153071136Y-96920429D01*
X153112597Y-97020523D01*
X153172787Y-97110604D01*
X153249396Y-97187213D01*
X153339477Y-97247403D01*
X153439571Y-97288864D01*
X153545830Y-97310000D01*
X153654170Y-97310000D01*
X153760429Y-97288864D01*
X153860523Y-97247403D01*
X153950604Y-97187213D01*
X154027213Y-97110604D01*
X154087403Y-97020523D01*
X154128864Y-96920429D01*
X154150000Y-96814170D01*
X154150000Y-96705830D01*
X154128864Y-96599571D01*
X154102117Y-96535000D01*
X154230954Y-96535000D01*
X154428982Y-96495610D01*
X154615520Y-96418344D01*
X154783400Y-96306170D01*
X154926170Y-96163400D01*
X155038344Y-95995520D01*
X155115610Y-95808982D01*
X155155000Y-95610954D01*
X155155000Y-95409046D01*
X155115610Y-95211018D01*
X155091506Y-95152823D01*
X161621000Y-95152823D01*
X161621000Y-95247177D01*
X161639407Y-95339719D01*
X161675515Y-95426892D01*
X161727936Y-95505345D01*
X161794655Y-95572064D01*
X161873108Y-95624485D01*
X161960281Y-95660593D01*
X162052823Y-95679000D01*
X162147177Y-95679000D01*
X162239719Y-95660593D01*
X162326892Y-95624485D01*
X162400000Y-95575635D01*
X162473108Y-95624485D01*
X162560281Y-95660593D01*
X162652823Y-95679000D01*
X162747177Y-95679000D01*
X162839719Y-95660593D01*
X162926892Y-95624485D01*
X163000000Y-95575635D01*
X163073108Y-95624485D01*
X163160281Y-95660593D01*
X163252823Y-95679000D01*
X163347177Y-95679000D01*
X163439719Y-95660593D01*
X163526892Y-95624485D01*
X163605345Y-95572064D01*
X163672064Y-95505345D01*
X163724485Y-95426892D01*
X163760593Y-95339719D01*
X163779000Y-95247177D01*
X163779000Y-95152823D01*
X163760593Y-95060281D01*
X163724485Y-94973108D01*
X163672064Y-94894655D01*
X163605345Y-94827936D01*
X163526892Y-94775515D01*
X163439719Y-94739407D01*
X163347177Y-94721000D01*
X163252823Y-94721000D01*
X163160281Y-94739407D01*
X163073108Y-94775515D01*
X163000000Y-94824365D01*
X162926892Y-94775515D01*
X162839719Y-94739407D01*
X162747177Y-94721000D01*
X162652823Y-94721000D01*
X162560281Y-94739407D01*
X162473108Y-94775515D01*
X162400000Y-94824365D01*
X162326892Y-94775515D01*
X162239719Y-94739407D01*
X162147177Y-94721000D01*
X162052823Y-94721000D01*
X161960281Y-94739407D01*
X161873108Y-94775515D01*
X161794655Y-94827936D01*
X161727936Y-94894655D01*
X161675515Y-94973108D01*
X161639407Y-95060281D01*
X161621000Y-95152823D01*
X155091506Y-95152823D01*
X155038344Y-95024480D01*
X154926170Y-94856600D01*
X154783400Y-94713830D01*
X154615520Y-94601656D01*
X154428982Y-94524390D01*
X154230954Y-94485000D01*
X154029046Y-94485000D01*
X153831018Y-94524390D01*
X153644480Y-94601656D01*
X153476600Y-94713830D01*
X153333830Y-94856600D01*
X153221656Y-95024480D01*
X153144390Y-95211018D01*
X153105000Y-95409046D01*
X153105000Y-95610954D01*
X153114488Y-95658655D01*
X153060523Y-95622597D01*
X152960429Y-95581136D01*
X152927169Y-95574520D01*
X152928864Y-95570429D01*
X152950000Y-95464170D01*
X152950000Y-95355830D01*
X152928864Y-95249571D01*
X152887403Y-95149477D01*
X152827213Y-95059396D01*
X152750604Y-94982787D01*
X152660523Y-94922597D01*
X152560429Y-94881136D01*
X152454170Y-94860000D01*
X152345830Y-94860000D01*
X152239571Y-94881136D01*
X152139477Y-94922597D01*
X152049396Y-94982787D01*
X152000000Y-95032183D01*
X151950604Y-94982787D01*
X151860523Y-94922597D01*
X151760429Y-94881136D01*
X151654170Y-94860000D01*
X151545830Y-94860000D01*
X151439571Y-94881136D01*
X151339477Y-94922597D01*
X151249396Y-94982787D01*
X151200000Y-95032183D01*
X151150604Y-94982787D01*
X151060523Y-94922597D01*
X150960429Y-94881136D01*
X150854170Y-94860000D01*
X150745830Y-94860000D01*
X150639571Y-94881136D01*
X150539477Y-94922597D01*
X150449396Y-94982787D01*
X150372787Y-95059396D01*
X150312597Y-95149477D01*
X150271136Y-95249571D01*
X150250000Y-95355830D01*
X150250000Y-95464170D01*
X150271136Y-95570429D01*
X150272831Y-95574520D01*
X150239571Y-95581136D01*
X150139477Y-95622597D01*
X150049396Y-95682787D01*
X150000000Y-95732183D01*
X149950604Y-95682787D01*
X149860523Y-95622597D01*
X149760429Y-95581136D01*
X149727169Y-95574520D01*
X149728864Y-95570429D01*
X149750000Y-95464170D01*
X149750000Y-95355830D01*
X149728864Y-95249571D01*
X149687403Y-95149477D01*
X149627213Y-95059396D01*
X149550604Y-94982787D01*
X149460523Y-94922597D01*
X149360429Y-94881136D01*
X149254170Y-94860000D01*
X149145830Y-94860000D01*
X149039571Y-94881136D01*
X148939477Y-94922597D01*
X148849396Y-94982787D01*
X148800000Y-95032183D01*
X148750604Y-94982787D01*
X148660523Y-94922597D01*
X148560429Y-94881136D01*
X148454170Y-94860000D01*
X148345830Y-94860000D01*
X148239571Y-94881136D01*
X148139477Y-94922597D01*
X148049396Y-94982787D01*
X148000000Y-95032183D01*
X147950604Y-94982787D01*
X147860523Y-94922597D01*
X147760429Y-94881136D01*
X147654170Y-94860000D01*
X147545830Y-94860000D01*
X147439571Y-94881136D01*
X147339477Y-94922597D01*
X147249396Y-94982787D01*
X147172787Y-95059396D01*
X147112597Y-95149477D01*
X147071136Y-95249571D01*
X147050000Y-95355830D01*
X147050000Y-95464170D01*
X147071136Y-95570429D01*
X147072831Y-95574520D01*
X147039571Y-95581136D01*
X146939477Y-95622597D01*
X146885512Y-95658655D01*
X146895000Y-95610954D01*
X146895000Y-95409046D01*
X146855610Y-95211018D01*
X146778344Y-95024480D01*
X146666170Y-94856600D01*
X146523400Y-94713830D01*
X146355520Y-94601656D01*
X146168982Y-94524390D01*
X145970954Y-94485000D01*
X145769046Y-94485000D01*
X145571018Y-94524390D01*
X145384480Y-94601656D01*
X145216600Y-94713830D01*
X145073830Y-94856600D01*
X144961656Y-95024480D01*
X144884390Y-95211018D01*
X144845000Y-95409046D01*
X144175000Y-95409046D01*
X144175000Y-94075000D01*
X145191392Y-94075000D01*
X145199745Y-94080581D01*
D23*
G04 #@! TO.N,/VNIXIE*
G36*
X125650000Y-94700000D02*
X109300000Y-94700000D01*
X109280491Y-94701921D01*
X109261732Y-94707612D01*
X109244443Y-94716853D01*
X109229289Y-94729289D01*
X107258578Y-96700000D01*
X102500000Y-96700000D01*
X102480491Y-96701921D01*
X102461732Y-96707612D01*
X102444443Y-96716853D01*
X102429289Y-96729289D01*
X102416853Y-96744443D01*
X102407612Y-96761732D01*
X102401921Y-96780491D01*
X102400000Y-96800000D01*
X102400000Y-98900000D01*
X100350000Y-98900000D01*
X100350000Y-98243327D01*
X100602939Y-98243327D01*
X100667647Y-98413659D01*
X100764341Y-98568095D01*
X100889306Y-98700699D01*
X101037740Y-98806376D01*
X101203938Y-98881064D01*
X101256673Y-98897061D01*
X101400000Y-98861190D01*
X101400000Y-98100000D01*
X101600000Y-98100000D01*
X101600000Y-98861190D01*
X101743327Y-98897061D01*
X101913659Y-98832353D01*
X102068095Y-98735659D01*
X102200699Y-98610694D01*
X102306376Y-98462260D01*
X102381064Y-98296062D01*
X102397061Y-98243327D01*
X102361190Y-98100000D01*
X101600000Y-98100000D01*
X101400000Y-98100000D01*
X100638810Y-98100000D01*
X100602939Y-98243327D01*
X100350000Y-98243327D01*
X100350000Y-97756673D01*
X100602939Y-97756673D01*
X100638810Y-97900000D01*
X101400000Y-97900000D01*
X101400000Y-97138810D01*
X101600000Y-97138810D01*
X101600000Y-97900000D01*
X102361190Y-97900000D01*
X102397061Y-97756673D01*
X102332353Y-97586341D01*
X102235659Y-97431905D01*
X102110694Y-97299301D01*
X101962260Y-97193624D01*
X101796062Y-97118936D01*
X101743327Y-97102939D01*
X101600000Y-97138810D01*
X101400000Y-97138810D01*
X101256673Y-97102939D01*
X101086341Y-97167647D01*
X100931905Y-97264341D01*
X100799301Y-97389306D01*
X100693624Y-97537740D01*
X100618936Y-97703938D01*
X100602939Y-97756673D01*
X100350000Y-97756673D01*
X100350000Y-96000000D01*
X107000000Y-96000000D01*
X107019509Y-95998079D01*
X107038268Y-95992388D01*
X107055557Y-95983147D01*
X107068774Y-95972595D01*
X108939847Y-94200000D01*
X125650000Y-94200000D01*
X125650000Y-94700000D01*
X125650000Y-94700000D01*
G37*
X125650000Y-94700000D02*
X109300000Y-94700000D01*
X109280491Y-94701921D01*
X109261732Y-94707612D01*
X109244443Y-94716853D01*
X109229289Y-94729289D01*
X107258578Y-96700000D01*
X102500000Y-96700000D01*
X102480491Y-96701921D01*
X102461732Y-96707612D01*
X102444443Y-96716853D01*
X102429289Y-96729289D01*
X102416853Y-96744443D01*
X102407612Y-96761732D01*
X102401921Y-96780491D01*
X102400000Y-96800000D01*
X102400000Y-98900000D01*
X100350000Y-98900000D01*
X100350000Y-98243327D01*
X100602939Y-98243327D01*
X100667647Y-98413659D01*
X100764341Y-98568095D01*
X100889306Y-98700699D01*
X101037740Y-98806376D01*
X101203938Y-98881064D01*
X101256673Y-98897061D01*
X101400000Y-98861190D01*
X101400000Y-98100000D01*
X101600000Y-98100000D01*
X101600000Y-98861190D01*
X101743327Y-98897061D01*
X101913659Y-98832353D01*
X102068095Y-98735659D01*
X102200699Y-98610694D01*
X102306376Y-98462260D01*
X102381064Y-98296062D01*
X102397061Y-98243327D01*
X102361190Y-98100000D01*
X101600000Y-98100000D01*
X101400000Y-98100000D01*
X100638810Y-98100000D01*
X100602939Y-98243327D01*
X100350000Y-98243327D01*
X100350000Y-97756673D01*
X100602939Y-97756673D01*
X100638810Y-97900000D01*
X101400000Y-97900000D01*
X101400000Y-97138810D01*
X101600000Y-97138810D01*
X101600000Y-97900000D01*
X102361190Y-97900000D01*
X102397061Y-97756673D01*
X102332353Y-97586341D01*
X102235659Y-97431905D01*
X102110694Y-97299301D01*
X101962260Y-97193624D01*
X101796062Y-97118936D01*
X101743327Y-97102939D01*
X101600000Y-97138810D01*
X101400000Y-97138810D01*
X101256673Y-97102939D01*
X101086341Y-97167647D01*
X100931905Y-97264341D01*
X100799301Y-97389306D01*
X100693624Y-97537740D01*
X100618936Y-97703938D01*
X100602939Y-97756673D01*
X100350000Y-97756673D01*
X100350000Y-96000000D01*
X107000000Y-96000000D01*
X107019509Y-95998079D01*
X107038268Y-95992388D01*
X107055557Y-95983147D01*
X107068774Y-95972595D01*
X108939847Y-94200000D01*
X125650000Y-94200000D01*
X125650000Y-94700000D01*
G04 #@! TD*
M02*
