G04 #@! TF.GenerationSoftware,KiCad,Pcbnew,(5.0.2)-1*
G04 #@! TF.CreationDate,2019-02-23T20:37:34-08:00*
G04 #@! TF.ProjectId,nixie_bottom_board,6e697869-655f-4626-9f74-746f6d5f626f,rev?*
G04 #@! TF.SameCoordinates,Original*
G04 #@! TF.FileFunction,Copper,L3,Inr*
G04 #@! TF.FilePolarity,Positive*
%FSLAX46Y46*%
G04 Gerber Fmt 4.6, Leading zero omitted, Abs format (unit mm)*
G04 Created by KiCad (PCBNEW (5.0.2)-1) date 2/23/2019 8:37:34 PM*
%MOMM*%
%LPD*%
G01*
G04 APERTURE LIST*
G04 #@! TA.AperFunction,ViaPad*
%ADD10C,1.200000*%
G04 #@! TD*
G04 #@! TA.AperFunction,ViaPad*
%ADD11C,0.650000*%
G04 #@! TD*
G04 #@! TA.AperFunction,ViaPad*
%ADD12C,2.000000*%
G04 #@! TD*
G04 #@! TA.AperFunction,ViaPad*
%ADD13C,1.600000*%
G04 #@! TD*
G04 #@! TA.AperFunction,ViaPad*
%ADD14C,1.500000*%
G04 #@! TD*
G04 #@! TA.AperFunction,ViaPad*
%ADD15C,1.350000*%
G04 #@! TD*
G04 #@! TA.AperFunction,ViaPad*
%ADD16O,1.350000X1.350000*%
G04 #@! TD*
G04 #@! TA.AperFunction,ViaPad*
%ADD17C,0.800000*%
G04 #@! TD*
G04 #@! TA.AperFunction,ViaPad*
%ADD18C,4.500000*%
G04 #@! TD*
G04 #@! TA.AperFunction,ViaPad*
%ADD19C,5.000000*%
G04 #@! TD*
G04 #@! TA.AperFunction,ViaPad*
%ADD20C,2.500000*%
G04 #@! TD*
G04 #@! TA.AperFunction,ViaPad*
%ADD21C,0.508000*%
G04 #@! TD*
G04 #@! TA.AperFunction,Conductor*
%ADD22C,0.250000*%
G04 #@! TD*
G04 #@! TA.AperFunction,Conductor*
%ADD23C,0.200000*%
G04 #@! TD*
G04 #@! TA.AperFunction,Conductor*
%ADD24C,0.150000*%
G04 #@! TD*
G04 APERTURE END LIST*
D10*
G04 #@! TO.N,/GND*
G04 #@! TO.C,J1*
X146155000Y-98310000D03*
X153845000Y-98310000D03*
D11*
X152400000Y-95410000D03*
X151600000Y-95410000D03*
X150800000Y-95410000D03*
G04 #@! TO.N,/CC2*
X149200000Y-95410000D03*
G04 #@! TO.N,/GND*
X148400000Y-95410000D03*
X147600000Y-95410000D03*
X152800000Y-96110000D03*
G04 #@! TO.N,/VBUS*
X151200000Y-96110000D03*
G04 #@! TO.N,/USB_N*
X150400000Y-96110000D03*
G04 #@! TO.N,/USB_P*
X149600000Y-96110000D03*
G04 #@! TO.N,/VBUS*
X148800000Y-96110000D03*
G04 #@! TO.N,/GND*
X147200000Y-96110000D03*
D12*
X154220000Y-92995000D03*
X145780000Y-92995000D03*
D13*
X145870000Y-95510000D03*
X154130000Y-95510000D03*
G04 #@! TD*
D14*
G04 #@! TO.N,/UART_RX*
G04 #@! TO.C,J20*
X142300000Y-108400000D03*
G04 #@! TD*
G04 #@! TO.N,/UART_TX*
G04 #@! TO.C,J19*
X139760000Y-108400000D03*
G04 #@! TD*
D15*
G04 #@! TO.N,/VNIXIE*
G04 #@! TO.C,J4*
X101500000Y-98000000D03*
D16*
G04 #@! TO.N,/GND*
X103500000Y-98000000D03*
X101500000Y-100000000D03*
G04 #@! TO.N,/SCL*
X103500000Y-100000000D03*
G04 #@! TO.N,/NIXIE_EN*
X101500000Y-102000000D03*
G04 #@! TO.N,/SDA*
X103500000Y-102000000D03*
G04 #@! TD*
D15*
G04 #@! TO.N,/HV_OUT*
G04 #@! TO.C,J3*
X196500000Y-98000000D03*
D16*
G04 #@! TO.N,/GND*
X198500000Y-98000000D03*
G04 #@! TO.N,/HV_OUT*
X196500000Y-100000000D03*
G04 #@! TO.N,/GND*
X198500000Y-100000000D03*
G04 #@! TO.N,/HV_OUT*
X196500000Y-102000000D03*
G04 #@! TO.N,/GND*
X198500000Y-102000000D03*
G04 #@! TD*
D17*
G04 #@! TO.N,/GND*
G04 #@! TO.C,MH1*
X104237437Y-91862563D03*
X104750000Y-93100000D03*
X104237437Y-94337437D03*
X103000000Y-94850000D03*
X101762563Y-94337437D03*
X101250000Y-93100000D03*
X101762563Y-91862563D03*
X103000000Y-91350000D03*
D18*
X103000000Y-93100000D03*
G04 #@! TD*
G04 #@! TO.N,/GND*
G04 #@! TO.C,MH2*
X103000000Y-107000000D03*
D17*
X103000000Y-105250000D03*
X101762563Y-105762563D03*
X101250000Y-107000000D03*
X101762563Y-108237437D03*
X103000000Y-108750000D03*
X104237437Y-108237437D03*
X104750000Y-107000000D03*
X104237437Y-105762563D03*
G04 #@! TD*
G04 #@! TO.N,/GND*
G04 #@! TO.C,MH3*
X198237437Y-91762563D03*
X198750000Y-93000000D03*
X198237437Y-94237437D03*
X197000000Y-94750000D03*
X195762563Y-94237437D03*
X195250000Y-93000000D03*
X195762563Y-91762563D03*
X197000000Y-91250000D03*
D18*
X197000000Y-93000000D03*
G04 #@! TD*
G04 #@! TO.N,/GND*
G04 #@! TO.C,MH4*
X197000000Y-107200000D03*
D17*
X197000000Y-105450000D03*
X195762563Y-105962563D03*
X195250000Y-107200000D03*
X195762563Y-108437437D03*
X197000000Y-108950000D03*
X198237437Y-108437437D03*
X198750000Y-107200000D03*
X198237437Y-105962563D03*
G04 #@! TD*
D19*
G04 #@! TO.N,/GND*
G04 #@! TO.C,MH6*
X157000000Y-100000000D03*
D17*
X158875000Y-100000000D03*
X158325825Y-101325825D03*
X157000000Y-101875000D03*
X155674175Y-101325825D03*
X155125000Y-100000000D03*
X155674175Y-98674175D03*
X157000000Y-98125000D03*
X158325825Y-98674175D03*
G04 #@! TD*
G04 #@! TO.N,/GND*
G04 #@! TO.C,MH5*
X144325825Y-98674175D03*
X143000000Y-98125000D03*
X141674175Y-98674175D03*
X141125000Y-100000000D03*
X141674175Y-101325825D03*
X143000000Y-101875000D03*
X144325825Y-101325825D03*
X144875000Y-100000000D03*
D19*
X143000000Y-100000000D03*
G04 #@! TD*
D20*
G04 #@! TO.N,*
G04 #@! TO.C,BT1*
X106800000Y-100000000D03*
G04 #@! TO.N,Net-(BT1-Pad1)*
X125600000Y-100000000D03*
G04 #@! TD*
D21*
G04 #@! TO.N,Net-(Q1-Pad1)*
X171200000Y-105200000D03*
X171800000Y-105200000D03*
X171200000Y-104600000D03*
X171800000Y-104600000D03*
X171200000Y-104000000D03*
X171800000Y-104000000D03*
X171200000Y-103400000D03*
X171800000Y-103400000D03*
X171200000Y-102800000D03*
X171800000Y-102800000D03*
X171200000Y-102200000D03*
X171800000Y-102200000D03*
G04 #@! TO.N,/HV_OUT*
X164600000Y-95400000D03*
X190250000Y-99900000D03*
X183200000Y-92500000D03*
G04 #@! TO.N,/VDD*
X130600000Y-92400000D03*
X139800000Y-106450000D03*
X145950000Y-100700000D03*
X159600000Y-103100000D03*
X159000000Y-103100000D03*
X158400000Y-103100000D03*
X157800000Y-103100000D03*
X138850000Y-93900000D03*
X159600000Y-103700000D03*
X159000000Y-103700000D03*
X157800000Y-103700000D03*
X158400000Y-103700000D03*
X131230000Y-103835000D03*
X138900000Y-99300000D03*
X138000000Y-102450000D03*
X138850000Y-96900000D03*
X128650000Y-92300000D03*
X151000000Y-106850000D03*
X156000000Y-106860000D03*
G04 #@! TO.N,/VNIXIE*
X124800000Y-94450000D03*
X125400000Y-94450000D03*
X124200000Y-94450000D03*
G04 #@! TO.N,/SCL*
X130000000Y-93100000D03*
X136950000Y-106300000D03*
G04 #@! TO.N,/SDA*
X129500000Y-93600000D03*
X135675000Y-106600000D03*
G04 #@! TO.N,/HV_EN*
X169500000Y-96500000D03*
X157900000Y-94500000D03*
X157900000Y-91700000D03*
G04 #@! TO.N,/SWO*
X133150000Y-101100000D03*
G04 #@! TO.N,/NRST*
X137800000Y-94400000D03*
X146500000Y-106850000D03*
X133770000Y-103835000D03*
X133135000Y-100035000D03*
G04 #@! TO.N,/DAC*
X135400000Y-91000000D03*
X127200000Y-97100000D03*
G04 #@! TO.N,/USB_N*
X149600000Y-98500000D03*
X130900000Y-94325000D03*
G04 #@! TO.N,/USB_P*
X130900000Y-94975000D03*
X150400000Y-98500000D03*
G04 #@! TO.N,Net-(D4-Pad2)*
X184000000Y-102800000D03*
X184600000Y-102800000D03*
X185800000Y-102800000D03*
X186400000Y-102800000D03*
X186400000Y-102200000D03*
X185800000Y-102200000D03*
X184600000Y-102200000D03*
X184000000Y-102200000D03*
X185200000Y-102200000D03*
X185200000Y-102800000D03*
G04 #@! TO.N,/SWDIO*
X131500000Y-95400000D03*
G04 #@! TO.N,/SWCLK*
X131500000Y-96400000D03*
G04 #@! TO.N,/HV_IN*
X171800000Y-94800000D03*
X171200000Y-94800000D03*
X171200000Y-95400000D03*
X171800000Y-95400000D03*
X171800000Y-97200000D03*
X171800000Y-97800000D03*
X171200000Y-97200000D03*
X171200000Y-97800000D03*
X171800000Y-96600000D03*
X171200000Y-96600000D03*
X171200000Y-96000000D03*
X171800000Y-96000000D03*
G04 #@! TO.N,/USB*
X147400000Y-103200000D03*
X133900000Y-97300000D03*
G04 #@! TO.N,/ILM*
X142800000Y-92900000D03*
G04 #@! TO.N,/32kHz*
X137800000Y-98550000D03*
X139600000Y-95400000D03*
G04 #@! TO.N,/AMP_EN*
X130300000Y-95400000D03*
X133400000Y-91000000D03*
G04 #@! TO.N,/NIXIE_EN*
X134400000Y-91000000D03*
G04 #@! TO.N,/MCO*
X131500000Y-92900000D03*
G04 #@! TO.N,/LED*
X138200000Y-94900000D03*
X146650000Y-103200000D03*
G04 #@! TO.N,Net-(R2-Pad1)*
X139600000Y-97800000D03*
X153500000Y-105150000D03*
G04 #@! TO.N,Net-(R20-Pad2)*
X137800000Y-92900000D03*
X180500000Y-91000000D03*
G04 #@! TO.N,/GND*
X152200000Y-104500000D03*
X134500000Y-93800000D03*
X133900000Y-93800000D03*
X133300000Y-93800000D03*
X134500000Y-95500000D03*
X133900000Y-95500000D03*
X133300000Y-95500000D03*
X171900000Y-101300000D03*
X171300000Y-101300000D03*
X167687500Y-99668750D03*
X168512500Y-99668750D03*
X168512500Y-98956250D03*
X167687500Y-98956250D03*
X167687500Y-98243750D03*
X168512500Y-98243750D03*
X168512500Y-97531250D03*
X167687500Y-97531250D03*
X166350000Y-100800000D03*
X165750000Y-100800000D03*
X164600000Y-99750000D03*
X164500000Y-92800000D03*
X162100000Y-95200000D03*
X162700000Y-95200000D03*
X163300000Y-95200000D03*
X130900000Y-95900000D03*
X159700000Y-106700000D03*
X163000000Y-105000000D03*
X163000000Y-105600000D03*
X163000000Y-106200000D03*
X163000000Y-106800000D03*
X163000000Y-107400000D03*
X165100000Y-92800000D03*
X164500000Y-93400000D03*
X165100000Y-93400000D03*
X150000000Y-100700000D03*
X165850000Y-96150000D03*
X166450000Y-96150000D03*
X166450000Y-95550000D03*
X165850000Y-95550000D03*
X151700000Y-102550000D03*
X172600000Y-93500000D03*
X173200000Y-93500000D03*
X173800000Y-93500000D03*
X157900000Y-106100000D03*
X159100000Y-106100000D03*
X159700000Y-106100000D03*
X132500000Y-103835000D03*
X174400000Y-93500000D03*
X137000000Y-96500000D03*
X141000000Y-96100000D03*
X158500000Y-106100000D03*
X158500000Y-106700000D03*
X159100000Y-106700000D03*
X157900000Y-106700000D03*
X127150000Y-92300000D03*
G04 #@! TO.N,/VBUS*
X165000000Y-101400000D03*
X164400000Y-101400000D03*
X165000000Y-102000000D03*
X165000000Y-102600000D03*
X165000000Y-103200000D03*
X160200000Y-94900000D03*
X159300000Y-95400000D03*
X159900000Y-95400000D03*
X160500000Y-95400000D03*
X161100000Y-95400000D03*
X160800000Y-94900000D03*
X151600000Y-98200000D03*
X151600000Y-98800000D03*
X148400000Y-98200000D03*
X148400000Y-98800000D03*
X148000000Y-96100000D03*
X165000000Y-103800000D03*
X152000000Y-96100000D03*
X163250000Y-100400000D03*
G04 #@! TO.N,/UART_TX*
X134900000Y-97300000D03*
G04 #@! TO.N,/UART_RX*
X135600000Y-97300000D03*
G04 #@! TD*
D22*
G04 #@! TO.N,/USB_P*
X149600000Y-97700000D02*
X149600000Y-96110000D01*
X150400000Y-98500000D02*
X149600000Y-97700000D01*
D23*
G04 #@! TO.N,/UART_TX*
X140800000Y-107360000D02*
X139760000Y-108400000D01*
X140800000Y-103800000D02*
X140800000Y-107360000D01*
X134900000Y-97300000D02*
X134900000Y-97900000D01*
X134900000Y-97900000D02*
X140800000Y-103800000D01*
G04 #@! TO.N,/UART_RX*
X141250000Y-107350000D02*
X142300000Y-108400000D01*
X141250000Y-103650000D02*
X141250000Y-107350000D01*
X135600000Y-97300000D02*
X135600000Y-98000000D01*
X135600000Y-98000000D02*
X141250000Y-103650000D01*
G04 #@! TD*
D24*
G04 #@! TO.N,/GND*
G36*
X196713508Y-90396518D02*
X197399842Y-90603735D01*
X198032852Y-90940313D01*
X198588433Y-91393434D01*
X199045421Y-91945838D01*
X199386412Y-92576488D01*
X199598412Y-93261352D01*
X199674962Y-93989675D01*
X199675001Y-94000841D01*
X199675000Y-105984103D01*
X199603482Y-106713508D01*
X199396266Y-107399839D01*
X199059687Y-108032852D01*
X198606567Y-108588433D01*
X198054163Y-109045421D01*
X197423512Y-109386412D01*
X196738653Y-109598411D01*
X196010325Y-109674962D01*
X195999447Y-109675000D01*
X104015897Y-109675000D01*
X103286492Y-109603482D01*
X102600161Y-109396266D01*
X101967148Y-109059687D01*
X101411567Y-108606567D01*
X100954579Y-108054163D01*
X100613588Y-107423512D01*
X100401589Y-106738653D01*
X100381540Y-106547898D01*
X135146000Y-106547898D01*
X135146000Y-106652102D01*
X135166329Y-106754304D01*
X135206206Y-106850576D01*
X135264099Y-106937218D01*
X135337782Y-107010901D01*
X135424424Y-107068794D01*
X135520696Y-107108671D01*
X135622898Y-107129000D01*
X135727102Y-107129000D01*
X135829304Y-107108671D01*
X135925576Y-107068794D01*
X136012218Y-107010901D01*
X136085901Y-106937218D01*
X136143794Y-106850576D01*
X136183671Y-106754304D01*
X136204000Y-106652102D01*
X136204000Y-106547898D01*
X136183671Y-106445696D01*
X136143794Y-106349424D01*
X136085901Y-106262782D01*
X136071017Y-106247898D01*
X136421000Y-106247898D01*
X136421000Y-106352102D01*
X136441329Y-106454304D01*
X136481206Y-106550576D01*
X136539099Y-106637218D01*
X136612782Y-106710901D01*
X136699424Y-106768794D01*
X136795696Y-106808671D01*
X136897898Y-106829000D01*
X137002102Y-106829000D01*
X137104304Y-106808671D01*
X137200576Y-106768794D01*
X137287218Y-106710901D01*
X137360901Y-106637218D01*
X137418794Y-106550576D01*
X137458671Y-106454304D01*
X137469890Y-106397898D01*
X139271000Y-106397898D01*
X139271000Y-106502102D01*
X139291329Y-106604304D01*
X139331206Y-106700576D01*
X139389099Y-106787218D01*
X139462782Y-106860901D01*
X139549424Y-106918794D01*
X139645696Y-106958671D01*
X139747898Y-106979000D01*
X139852102Y-106979000D01*
X139954304Y-106958671D01*
X140050576Y-106918794D01*
X140137218Y-106860901D01*
X140210901Y-106787218D01*
X140268794Y-106700576D01*
X140308671Y-106604304D01*
X140329000Y-106502102D01*
X140329000Y-106397898D01*
X140308671Y-106295696D01*
X140268794Y-106199424D01*
X140210901Y-106112782D01*
X140137218Y-106039099D01*
X140050576Y-105981206D01*
X139954304Y-105941329D01*
X139852102Y-105921000D01*
X139747898Y-105921000D01*
X139645696Y-105941329D01*
X139549424Y-105981206D01*
X139462782Y-106039099D01*
X139389099Y-106112782D01*
X139331206Y-106199424D01*
X139291329Y-106295696D01*
X139271000Y-106397898D01*
X137469890Y-106397898D01*
X137479000Y-106352102D01*
X137479000Y-106247898D01*
X137458671Y-106145696D01*
X137418794Y-106049424D01*
X137360901Y-105962782D01*
X137287218Y-105889099D01*
X137200576Y-105831206D01*
X137104304Y-105791329D01*
X137002102Y-105771000D01*
X136897898Y-105771000D01*
X136795696Y-105791329D01*
X136699424Y-105831206D01*
X136612782Y-105889099D01*
X136539099Y-105962782D01*
X136481206Y-106049424D01*
X136441329Y-106145696D01*
X136421000Y-106247898D01*
X136071017Y-106247898D01*
X136012218Y-106189099D01*
X135925576Y-106131206D01*
X135829304Y-106091329D01*
X135727102Y-106071000D01*
X135622898Y-106071000D01*
X135520696Y-106091329D01*
X135424424Y-106131206D01*
X135337782Y-106189099D01*
X135264099Y-106262782D01*
X135206206Y-106349424D01*
X135166329Y-106445696D01*
X135146000Y-106547898D01*
X100381540Y-106547898D01*
X100325038Y-106010325D01*
X100325000Y-105999447D01*
X100325000Y-103124132D01*
X129189700Y-103124132D01*
X129189700Y-103275868D01*
X129219302Y-103424688D01*
X129277369Y-103564874D01*
X129361669Y-103691038D01*
X129468962Y-103798331D01*
X129595126Y-103882631D01*
X129735312Y-103940698D01*
X129884132Y-103970300D01*
X130035868Y-103970300D01*
X130184688Y-103940698D01*
X130324874Y-103882631D01*
X130451038Y-103798331D01*
X130466471Y-103782898D01*
X130701000Y-103782898D01*
X130701000Y-103887102D01*
X130721329Y-103989304D01*
X130761206Y-104085576D01*
X130819099Y-104172218D01*
X130892782Y-104245901D01*
X130979424Y-104303794D01*
X131075696Y-104343671D01*
X131177898Y-104364000D01*
X131282102Y-104364000D01*
X131384304Y-104343671D01*
X131480576Y-104303794D01*
X131567218Y-104245901D01*
X131640901Y-104172218D01*
X131698794Y-104085576D01*
X131738671Y-103989304D01*
X131759000Y-103887102D01*
X131759000Y-103782898D01*
X133241000Y-103782898D01*
X133241000Y-103887102D01*
X133261329Y-103989304D01*
X133301206Y-104085576D01*
X133359099Y-104172218D01*
X133432782Y-104245901D01*
X133519424Y-104303794D01*
X133615696Y-104343671D01*
X133717898Y-104364000D01*
X133822102Y-104364000D01*
X133924304Y-104343671D01*
X134020576Y-104303794D01*
X134107218Y-104245901D01*
X134180901Y-104172218D01*
X134202340Y-104140132D01*
X134269700Y-104140132D01*
X134269700Y-104291868D01*
X134299302Y-104440688D01*
X134357369Y-104580874D01*
X134441669Y-104707038D01*
X134548962Y-104814331D01*
X134675126Y-104898631D01*
X134815312Y-104956698D01*
X134964132Y-104986300D01*
X135115868Y-104986300D01*
X135264688Y-104956698D01*
X135404874Y-104898631D01*
X135531038Y-104814331D01*
X135638331Y-104707038D01*
X135722631Y-104580874D01*
X135780698Y-104440688D01*
X135810300Y-104291868D01*
X135810300Y-104140132D01*
X135780698Y-103991312D01*
X135722631Y-103851126D01*
X135638331Y-103724962D01*
X135531038Y-103617669D01*
X135404874Y-103533369D01*
X135264688Y-103475302D01*
X135115868Y-103445700D01*
X134964132Y-103445700D01*
X134815312Y-103475302D01*
X134675126Y-103533369D01*
X134548962Y-103617669D01*
X134441669Y-103724962D01*
X134357369Y-103851126D01*
X134299302Y-103991312D01*
X134269700Y-104140132D01*
X134202340Y-104140132D01*
X134238794Y-104085576D01*
X134278671Y-103989304D01*
X134299000Y-103887102D01*
X134299000Y-103782898D01*
X134278671Y-103680696D01*
X134238794Y-103584424D01*
X134180901Y-103497782D01*
X134107218Y-103424099D01*
X134020576Y-103366206D01*
X133924304Y-103326329D01*
X133822102Y-103306000D01*
X133717898Y-103306000D01*
X133615696Y-103326329D01*
X133519424Y-103366206D01*
X133432782Y-103424099D01*
X133359099Y-103497782D01*
X133301206Y-103584424D01*
X133261329Y-103680696D01*
X133241000Y-103782898D01*
X131759000Y-103782898D01*
X131738671Y-103680696D01*
X131698794Y-103584424D01*
X131640901Y-103497782D01*
X131567218Y-103424099D01*
X131480576Y-103366206D01*
X131384304Y-103326329D01*
X131282102Y-103306000D01*
X131177898Y-103306000D01*
X131075696Y-103326329D01*
X130979424Y-103366206D01*
X130892782Y-103424099D01*
X130819099Y-103497782D01*
X130761206Y-103584424D01*
X130721329Y-103680696D01*
X130701000Y-103782898D01*
X130466471Y-103782898D01*
X130558331Y-103691038D01*
X130642631Y-103564874D01*
X130700698Y-103424688D01*
X130730300Y-103275868D01*
X130730300Y-103124132D01*
X130700698Y-102975312D01*
X130642631Y-102835126D01*
X130558331Y-102708962D01*
X130451038Y-102601669D01*
X130324874Y-102517369D01*
X130184688Y-102459302D01*
X130035868Y-102429700D01*
X129884132Y-102429700D01*
X129735312Y-102459302D01*
X129595126Y-102517369D01*
X129468962Y-102601669D01*
X129361669Y-102708962D01*
X129277369Y-102835126D01*
X129219302Y-102975312D01*
X129189700Y-103124132D01*
X100325000Y-103124132D01*
X100325000Y-102000000D01*
X100545404Y-102000000D01*
X100563746Y-102186232D01*
X100618068Y-102365308D01*
X100706282Y-102530345D01*
X100824999Y-102675001D01*
X100969655Y-102793718D01*
X101134692Y-102881932D01*
X101313768Y-102936254D01*
X101453335Y-102950000D01*
X101546665Y-102950000D01*
X101686232Y-102936254D01*
X101865308Y-102881932D01*
X102030345Y-102793718D01*
X102175001Y-102675001D01*
X102293718Y-102530345D01*
X102381932Y-102365308D01*
X102436254Y-102186232D01*
X102454596Y-102000000D01*
X102545404Y-102000000D01*
X102563746Y-102186232D01*
X102618068Y-102365308D01*
X102706282Y-102530345D01*
X102824999Y-102675001D01*
X102969655Y-102793718D01*
X103134692Y-102881932D01*
X103313768Y-102936254D01*
X103453335Y-102950000D01*
X103546665Y-102950000D01*
X103686232Y-102936254D01*
X103865308Y-102881932D01*
X104030345Y-102793718D01*
X104175001Y-102675001D01*
X104293718Y-102530345D01*
X104381932Y-102365308D01*
X104436254Y-102186232D01*
X104443946Y-102108132D01*
X134269700Y-102108132D01*
X134269700Y-102259868D01*
X134299302Y-102408688D01*
X134357369Y-102548874D01*
X134441669Y-102675038D01*
X134548962Y-102782331D01*
X134675126Y-102866631D01*
X134815312Y-102924698D01*
X134964132Y-102954300D01*
X135115868Y-102954300D01*
X135264688Y-102924698D01*
X135404874Y-102866631D01*
X135531038Y-102782331D01*
X135638331Y-102675038D01*
X135722631Y-102548874D01*
X135780698Y-102408688D01*
X135782844Y-102397898D01*
X137471000Y-102397898D01*
X137471000Y-102502102D01*
X137491329Y-102604304D01*
X137531206Y-102700576D01*
X137589099Y-102787218D01*
X137662782Y-102860901D01*
X137749424Y-102918794D01*
X137845696Y-102958671D01*
X137947898Y-102979000D01*
X138052102Y-102979000D01*
X138154304Y-102958671D01*
X138250576Y-102918794D01*
X138337218Y-102860901D01*
X138410901Y-102787218D01*
X138468794Y-102700576D01*
X138508671Y-102604304D01*
X138529000Y-102502102D01*
X138529000Y-102397898D01*
X138508671Y-102295696D01*
X138468794Y-102199424D01*
X138410901Y-102112782D01*
X138337218Y-102039099D01*
X138250576Y-101981206D01*
X138154304Y-101941329D01*
X138052102Y-101921000D01*
X137947898Y-101921000D01*
X137845696Y-101941329D01*
X137749424Y-101981206D01*
X137662782Y-102039099D01*
X137589099Y-102112782D01*
X137531206Y-102199424D01*
X137491329Y-102295696D01*
X137471000Y-102397898D01*
X135782844Y-102397898D01*
X135810300Y-102259868D01*
X135810300Y-102108132D01*
X135780698Y-101959312D01*
X135722631Y-101819126D01*
X135638331Y-101692962D01*
X135531038Y-101585669D01*
X135404874Y-101501369D01*
X135264688Y-101443302D01*
X135115868Y-101413700D01*
X134964132Y-101413700D01*
X134815312Y-101443302D01*
X134675126Y-101501369D01*
X134548962Y-101585669D01*
X134441669Y-101692962D01*
X134357369Y-101819126D01*
X134299302Y-101959312D01*
X134269700Y-102108132D01*
X104443946Y-102108132D01*
X104454596Y-102000000D01*
X104436254Y-101813768D01*
X104381932Y-101634692D01*
X104293718Y-101469655D01*
X104175001Y-101324999D01*
X104030345Y-101206282D01*
X103865308Y-101118068D01*
X103686232Y-101063746D01*
X103546665Y-101050000D01*
X103453335Y-101050000D01*
X103313768Y-101063746D01*
X103134692Y-101118068D01*
X102969655Y-101206282D01*
X102824999Y-101324999D01*
X102706282Y-101469655D01*
X102618068Y-101634692D01*
X102563746Y-101813768D01*
X102545404Y-102000000D01*
X102454596Y-102000000D01*
X102436254Y-101813768D01*
X102381932Y-101634692D01*
X102293718Y-101469655D01*
X102175001Y-101324999D01*
X102030345Y-101206282D01*
X101865308Y-101118068D01*
X101686232Y-101063746D01*
X101546665Y-101050000D01*
X101453335Y-101050000D01*
X101313768Y-101063746D01*
X101134692Y-101118068D01*
X100969655Y-101206282D01*
X100824999Y-101324999D01*
X100706282Y-101469655D01*
X100618068Y-101634692D01*
X100563746Y-101813768D01*
X100545404Y-102000000D01*
X100325000Y-102000000D01*
X100325000Y-100262887D01*
X100639250Y-100262887D01*
X100705462Y-100422758D01*
X100803205Y-100569641D01*
X100927725Y-100694633D01*
X101074237Y-100792931D01*
X101237111Y-100860757D01*
X101375000Y-100835035D01*
X101375000Y-100125000D01*
X101625000Y-100125000D01*
X101625000Y-100835035D01*
X101762889Y-100860757D01*
X101925763Y-100792931D01*
X102072275Y-100694633D01*
X102196795Y-100569641D01*
X102294538Y-100422758D01*
X102360750Y-100262887D01*
X102334439Y-100125000D01*
X101625000Y-100125000D01*
X101375000Y-100125000D01*
X100665561Y-100125000D01*
X100639250Y-100262887D01*
X100325000Y-100262887D01*
X100325000Y-100000000D01*
X102545404Y-100000000D01*
X102563746Y-100186232D01*
X102618068Y-100365308D01*
X102706282Y-100530345D01*
X102824999Y-100675001D01*
X102969655Y-100793718D01*
X103134692Y-100881932D01*
X103313768Y-100936254D01*
X103453335Y-100950000D01*
X103546665Y-100950000D01*
X103686232Y-100936254D01*
X103865308Y-100881932D01*
X104030345Y-100793718D01*
X104175001Y-100675001D01*
X104293718Y-100530345D01*
X104381932Y-100365308D01*
X104436254Y-100186232D01*
X104454596Y-100000000D01*
X104439803Y-99849801D01*
X105275000Y-99849801D01*
X105275000Y-100150199D01*
X105333605Y-100444826D01*
X105448562Y-100722358D01*
X105615455Y-100972131D01*
X105827869Y-101184545D01*
X106077642Y-101351438D01*
X106355174Y-101466395D01*
X106649801Y-101525000D01*
X106950199Y-101525000D01*
X107244826Y-101466395D01*
X107522358Y-101351438D01*
X107772131Y-101184545D01*
X107984545Y-100972131D01*
X108151438Y-100722358D01*
X108266395Y-100444826D01*
X108325000Y-100150199D01*
X108325000Y-99849801D01*
X124075000Y-99849801D01*
X124075000Y-100150199D01*
X124133605Y-100444826D01*
X124248562Y-100722358D01*
X124415455Y-100972131D01*
X124627869Y-101184545D01*
X124877642Y-101351438D01*
X125155174Y-101466395D01*
X125449801Y-101525000D01*
X125750199Y-101525000D01*
X126044826Y-101466395D01*
X126322358Y-101351438D01*
X126572131Y-101184545D01*
X126708778Y-101047898D01*
X132621000Y-101047898D01*
X132621000Y-101152102D01*
X132641329Y-101254304D01*
X132681206Y-101350576D01*
X132739099Y-101437218D01*
X132812782Y-101510901D01*
X132899424Y-101568794D01*
X132995696Y-101608671D01*
X133097898Y-101629000D01*
X133202102Y-101629000D01*
X133304304Y-101608671D01*
X133400576Y-101568794D01*
X133487218Y-101510901D01*
X133560901Y-101437218D01*
X133618794Y-101350576D01*
X133658671Y-101254304D01*
X133679000Y-101152102D01*
X133679000Y-101047898D01*
X133658671Y-100945696D01*
X133618794Y-100849424D01*
X133560901Y-100762782D01*
X133487218Y-100689099D01*
X133400576Y-100631206D01*
X133304304Y-100591329D01*
X133202102Y-100571000D01*
X133097898Y-100571000D01*
X132995696Y-100591329D01*
X132899424Y-100631206D01*
X132812782Y-100689099D01*
X132739099Y-100762782D01*
X132681206Y-100849424D01*
X132641329Y-100945696D01*
X132621000Y-101047898D01*
X126708778Y-101047898D01*
X126784545Y-100972131D01*
X126951438Y-100722358D01*
X127066395Y-100444826D01*
X127125000Y-100150199D01*
X127125000Y-99982898D01*
X132606000Y-99982898D01*
X132606000Y-100087102D01*
X132626329Y-100189304D01*
X132666206Y-100285576D01*
X132724099Y-100372218D01*
X132797782Y-100445901D01*
X132884424Y-100503794D01*
X132980696Y-100543671D01*
X133082898Y-100564000D01*
X133187102Y-100564000D01*
X133289304Y-100543671D01*
X133385576Y-100503794D01*
X133472218Y-100445901D01*
X133545901Y-100372218D01*
X133603794Y-100285576D01*
X133643671Y-100189304D01*
X133664000Y-100087102D01*
X133664000Y-99982898D01*
X133643671Y-99880696D01*
X133603794Y-99784424D01*
X133545901Y-99697782D01*
X133472218Y-99624099D01*
X133385576Y-99566206D01*
X133289304Y-99526329D01*
X133187102Y-99506000D01*
X133082898Y-99506000D01*
X132980696Y-99526329D01*
X132884424Y-99566206D01*
X132797782Y-99624099D01*
X132724099Y-99697782D01*
X132666206Y-99784424D01*
X132626329Y-99880696D01*
X132606000Y-99982898D01*
X127125000Y-99982898D01*
X127125000Y-99849801D01*
X127066395Y-99555174D01*
X126951438Y-99277642D01*
X126784545Y-99027869D01*
X126572131Y-98815455D01*
X126322358Y-98648562D01*
X126044826Y-98533605D01*
X125750199Y-98475000D01*
X125449801Y-98475000D01*
X125155174Y-98533605D01*
X124877642Y-98648562D01*
X124627869Y-98815455D01*
X124415455Y-99027869D01*
X124248562Y-99277642D01*
X124133605Y-99555174D01*
X124075000Y-99849801D01*
X108325000Y-99849801D01*
X108266395Y-99555174D01*
X108151438Y-99277642D01*
X107984545Y-99027869D01*
X107772131Y-98815455D01*
X107522358Y-98648562D01*
X107244826Y-98533605D01*
X106950199Y-98475000D01*
X106649801Y-98475000D01*
X106355174Y-98533605D01*
X106077642Y-98648562D01*
X105827869Y-98815455D01*
X105615455Y-99027869D01*
X105448562Y-99277642D01*
X105333605Y-99555174D01*
X105275000Y-99849801D01*
X104439803Y-99849801D01*
X104436254Y-99813768D01*
X104381932Y-99634692D01*
X104293718Y-99469655D01*
X104175001Y-99324999D01*
X104030345Y-99206282D01*
X103865308Y-99118068D01*
X103686232Y-99063746D01*
X103546665Y-99050000D01*
X103453335Y-99050000D01*
X103313768Y-99063746D01*
X103134692Y-99118068D01*
X102969655Y-99206282D01*
X102824999Y-99324999D01*
X102706282Y-99469655D01*
X102618068Y-99634692D01*
X102563746Y-99813768D01*
X102545404Y-100000000D01*
X100325000Y-100000000D01*
X100325000Y-99737113D01*
X100639250Y-99737113D01*
X100665561Y-99875000D01*
X101375000Y-99875000D01*
X101375000Y-99164965D01*
X101625000Y-99164965D01*
X101625000Y-99875000D01*
X102334439Y-99875000D01*
X102360750Y-99737113D01*
X102294538Y-99577242D01*
X102196795Y-99430359D01*
X102072275Y-99305367D01*
X101925763Y-99207069D01*
X101762889Y-99139243D01*
X101625000Y-99164965D01*
X101375000Y-99164965D01*
X101237111Y-99139243D01*
X101074237Y-99207069D01*
X100927725Y-99305367D01*
X100803205Y-99430359D01*
X100705462Y-99577242D01*
X100639250Y-99737113D01*
X100325000Y-99737113D01*
X100325000Y-97906433D01*
X100550000Y-97906433D01*
X100550000Y-98093567D01*
X100586508Y-98277105D01*
X100658121Y-98449994D01*
X100762087Y-98605590D01*
X100894410Y-98737913D01*
X101050006Y-98841879D01*
X101222895Y-98913492D01*
X101406433Y-98950000D01*
X101593567Y-98950000D01*
X101777105Y-98913492D01*
X101949994Y-98841879D01*
X102105590Y-98737913D01*
X102237913Y-98605590D01*
X102341879Y-98449994D01*
X102413492Y-98277105D01*
X102416320Y-98262887D01*
X102639250Y-98262887D01*
X102705462Y-98422758D01*
X102803205Y-98569641D01*
X102927725Y-98694633D01*
X103074237Y-98792931D01*
X103237111Y-98860757D01*
X103375000Y-98835035D01*
X103375000Y-98125000D01*
X103625000Y-98125000D01*
X103625000Y-98835035D01*
X103762889Y-98860757D01*
X103925763Y-98792931D01*
X104072275Y-98694633D01*
X104196795Y-98569641D01*
X104294538Y-98422758D01*
X104360750Y-98262887D01*
X104334439Y-98125000D01*
X103625000Y-98125000D01*
X103375000Y-98125000D01*
X102665561Y-98125000D01*
X102639250Y-98262887D01*
X102416320Y-98262887D01*
X102450000Y-98093567D01*
X102450000Y-97906433D01*
X102416321Y-97737113D01*
X102639250Y-97737113D01*
X102665561Y-97875000D01*
X103375000Y-97875000D01*
X103375000Y-97164965D01*
X103625000Y-97164965D01*
X103625000Y-97875000D01*
X104334439Y-97875000D01*
X104360750Y-97737113D01*
X104294538Y-97577242D01*
X104196795Y-97430359D01*
X104072275Y-97305367D01*
X103925763Y-97207069D01*
X103762889Y-97139243D01*
X103625000Y-97164965D01*
X103375000Y-97164965D01*
X103237111Y-97139243D01*
X103074237Y-97207069D01*
X102927725Y-97305367D01*
X102803205Y-97430359D01*
X102705462Y-97577242D01*
X102639250Y-97737113D01*
X102416321Y-97737113D01*
X102413492Y-97722895D01*
X102341879Y-97550006D01*
X102237913Y-97394410D01*
X102105590Y-97262087D01*
X101949994Y-97158121D01*
X101777105Y-97086508D01*
X101593567Y-97050000D01*
X101406433Y-97050000D01*
X101222895Y-97086508D01*
X101050006Y-97158121D01*
X100894410Y-97262087D01*
X100762087Y-97394410D01*
X100658121Y-97550006D01*
X100586508Y-97722895D01*
X100550000Y-97906433D01*
X100325000Y-97906433D01*
X100325000Y-97047898D01*
X126671000Y-97047898D01*
X126671000Y-97152102D01*
X126691329Y-97254304D01*
X126731206Y-97350576D01*
X126789099Y-97437218D01*
X126862782Y-97510901D01*
X126949424Y-97568794D01*
X127045696Y-97608671D01*
X127147898Y-97629000D01*
X127252102Y-97629000D01*
X127354304Y-97608671D01*
X127450576Y-97568794D01*
X127537218Y-97510901D01*
X127610901Y-97437218D01*
X127668794Y-97350576D01*
X127708671Y-97254304D01*
X127709945Y-97247898D01*
X133371000Y-97247898D01*
X133371000Y-97352102D01*
X133391329Y-97454304D01*
X133431206Y-97550576D01*
X133489099Y-97637218D01*
X133562782Y-97710901D01*
X133649424Y-97768794D01*
X133745696Y-97808671D01*
X133847898Y-97829000D01*
X133952102Y-97829000D01*
X134054304Y-97808671D01*
X134150576Y-97768794D01*
X134237218Y-97710901D01*
X134310901Y-97637218D01*
X134368794Y-97550576D01*
X134400000Y-97475238D01*
X134431206Y-97550576D01*
X134489099Y-97637218D01*
X134525001Y-97673120D01*
X134525001Y-97881574D01*
X134523186Y-97900000D01*
X134528535Y-97954304D01*
X134530427Y-97973513D01*
X134535832Y-97991329D01*
X134551870Y-98044200D01*
X134567538Y-98073512D01*
X134586692Y-98109347D01*
X134633553Y-98166448D01*
X134647862Y-98178191D01*
X140425000Y-103955330D01*
X140425001Y-107204669D01*
X140169502Y-107460168D01*
X140058982Y-107414390D01*
X139860954Y-107375000D01*
X139659046Y-107375000D01*
X139461018Y-107414390D01*
X139274480Y-107491656D01*
X139106600Y-107603830D01*
X138963830Y-107746600D01*
X138851656Y-107914480D01*
X138774390Y-108101018D01*
X138735000Y-108299046D01*
X138735000Y-108500954D01*
X138774390Y-108698982D01*
X138851656Y-108885520D01*
X138963830Y-109053400D01*
X139106600Y-109196170D01*
X139274480Y-109308344D01*
X139461018Y-109385610D01*
X139659046Y-109425000D01*
X139860954Y-109425000D01*
X140058982Y-109385610D01*
X140245520Y-109308344D01*
X140413400Y-109196170D01*
X140556170Y-109053400D01*
X140668344Y-108885520D01*
X140745610Y-108698982D01*
X140785000Y-108500954D01*
X140785000Y-108299046D01*
X140745610Y-108101018D01*
X140699832Y-107990498D01*
X141030000Y-107660330D01*
X141360168Y-107990498D01*
X141314390Y-108101018D01*
X141275000Y-108299046D01*
X141275000Y-108500954D01*
X141314390Y-108698982D01*
X141391656Y-108885520D01*
X141503830Y-109053400D01*
X141646600Y-109196170D01*
X141814480Y-109308344D01*
X142001018Y-109385610D01*
X142199046Y-109425000D01*
X142400954Y-109425000D01*
X142598982Y-109385610D01*
X142785520Y-109308344D01*
X142953400Y-109196170D01*
X143096170Y-109053400D01*
X143208344Y-108885520D01*
X143285610Y-108698982D01*
X143325000Y-108500954D01*
X143325000Y-108299046D01*
X143285610Y-108101018D01*
X143208344Y-107914480D01*
X143096170Y-107746600D01*
X142953400Y-107603830D01*
X142785520Y-107491656D01*
X142598982Y-107414390D01*
X142400954Y-107375000D01*
X142199046Y-107375000D01*
X142001018Y-107414390D01*
X141890498Y-107460168D01*
X141625000Y-107194671D01*
X141625000Y-106797898D01*
X145971000Y-106797898D01*
X145971000Y-106902102D01*
X145991329Y-107004304D01*
X146031206Y-107100576D01*
X146089099Y-107187218D01*
X146162782Y-107260901D01*
X146249424Y-107318794D01*
X146345696Y-107358671D01*
X146447898Y-107379000D01*
X146552102Y-107379000D01*
X146654304Y-107358671D01*
X146750576Y-107318794D01*
X146837218Y-107260901D01*
X146910901Y-107187218D01*
X146968794Y-107100576D01*
X147008671Y-107004304D01*
X147029000Y-106902102D01*
X147029000Y-106797898D01*
X150471000Y-106797898D01*
X150471000Y-106902102D01*
X150491329Y-107004304D01*
X150531206Y-107100576D01*
X150589099Y-107187218D01*
X150662782Y-107260901D01*
X150749424Y-107318794D01*
X150845696Y-107358671D01*
X150947898Y-107379000D01*
X151052102Y-107379000D01*
X151154304Y-107358671D01*
X151250576Y-107318794D01*
X151337218Y-107260901D01*
X151410901Y-107187218D01*
X151468794Y-107100576D01*
X151508671Y-107004304D01*
X151529000Y-106902102D01*
X151529000Y-106807898D01*
X155471000Y-106807898D01*
X155471000Y-106912102D01*
X155491329Y-107014304D01*
X155531206Y-107110576D01*
X155589099Y-107197218D01*
X155662782Y-107270901D01*
X155749424Y-107328794D01*
X155845696Y-107368671D01*
X155947898Y-107389000D01*
X156052102Y-107389000D01*
X156154304Y-107368671D01*
X156250576Y-107328794D01*
X156337218Y-107270901D01*
X156410901Y-107197218D01*
X156468794Y-107110576D01*
X156508671Y-107014304D01*
X156529000Y-106912102D01*
X156529000Y-106807898D01*
X156508671Y-106705696D01*
X156468794Y-106609424D01*
X156410901Y-106522782D01*
X156337218Y-106449099D01*
X156250576Y-106391206D01*
X156154304Y-106351329D01*
X156052102Y-106331000D01*
X155947898Y-106331000D01*
X155845696Y-106351329D01*
X155749424Y-106391206D01*
X155662782Y-106449099D01*
X155589099Y-106522782D01*
X155531206Y-106609424D01*
X155491329Y-106705696D01*
X155471000Y-106807898D01*
X151529000Y-106807898D01*
X151529000Y-106797898D01*
X151508671Y-106695696D01*
X151468794Y-106599424D01*
X151410901Y-106512782D01*
X151337218Y-106439099D01*
X151250576Y-106381206D01*
X151154304Y-106341329D01*
X151052102Y-106321000D01*
X150947898Y-106321000D01*
X150845696Y-106341329D01*
X150749424Y-106381206D01*
X150662782Y-106439099D01*
X150589099Y-106512782D01*
X150531206Y-106599424D01*
X150491329Y-106695696D01*
X150471000Y-106797898D01*
X147029000Y-106797898D01*
X147008671Y-106695696D01*
X146968794Y-106599424D01*
X146910901Y-106512782D01*
X146837218Y-106439099D01*
X146750576Y-106381206D01*
X146654304Y-106341329D01*
X146552102Y-106321000D01*
X146447898Y-106321000D01*
X146345696Y-106341329D01*
X146249424Y-106381206D01*
X146162782Y-106439099D01*
X146089099Y-106512782D01*
X146031206Y-106599424D01*
X145991329Y-106695696D01*
X145971000Y-106797898D01*
X141625000Y-106797898D01*
X141625000Y-105097898D01*
X152971000Y-105097898D01*
X152971000Y-105202102D01*
X152991329Y-105304304D01*
X153031206Y-105400576D01*
X153089099Y-105487218D01*
X153162782Y-105560901D01*
X153249424Y-105618794D01*
X153345696Y-105658671D01*
X153447898Y-105679000D01*
X153552102Y-105679000D01*
X153654304Y-105658671D01*
X153750576Y-105618794D01*
X153837218Y-105560901D01*
X153910901Y-105487218D01*
X153968794Y-105400576D01*
X154008671Y-105304304D01*
X154029000Y-105202102D01*
X154029000Y-105097898D01*
X154008671Y-104995696D01*
X153968794Y-104899424D01*
X153910901Y-104812782D01*
X153837218Y-104739099D01*
X153750576Y-104681206D01*
X153654304Y-104641329D01*
X153552102Y-104621000D01*
X153447898Y-104621000D01*
X153345696Y-104641329D01*
X153249424Y-104681206D01*
X153162782Y-104739099D01*
X153089099Y-104812782D01*
X153031206Y-104899424D01*
X152991329Y-104995696D01*
X152971000Y-105097898D01*
X141625000Y-105097898D01*
X141625000Y-103668416D01*
X141626814Y-103650000D01*
X141625000Y-103631581D01*
X141619574Y-103576487D01*
X141598131Y-103505800D01*
X141587070Y-103485107D01*
X141563310Y-103440653D01*
X141528189Y-103397859D01*
X141516448Y-103383552D01*
X141502140Y-103371810D01*
X141278228Y-103147898D01*
X146121000Y-103147898D01*
X146121000Y-103252102D01*
X146141329Y-103354304D01*
X146181206Y-103450576D01*
X146239099Y-103537218D01*
X146312782Y-103610901D01*
X146399424Y-103668794D01*
X146495696Y-103708671D01*
X146597898Y-103729000D01*
X146702102Y-103729000D01*
X146804304Y-103708671D01*
X146900576Y-103668794D01*
X146987218Y-103610901D01*
X147025000Y-103573119D01*
X147062782Y-103610901D01*
X147149424Y-103668794D01*
X147245696Y-103708671D01*
X147347898Y-103729000D01*
X147452102Y-103729000D01*
X147554304Y-103708671D01*
X147650576Y-103668794D01*
X147737218Y-103610901D01*
X147810901Y-103537218D01*
X147868794Y-103450576D01*
X147908671Y-103354304D01*
X147929000Y-103252102D01*
X147929000Y-103147898D01*
X147909109Y-103047898D01*
X157271000Y-103047898D01*
X157271000Y-103152102D01*
X157291329Y-103254304D01*
X157331206Y-103350576D01*
X157364230Y-103400000D01*
X157331206Y-103449424D01*
X157291329Y-103545696D01*
X157271000Y-103647898D01*
X157271000Y-103752102D01*
X157291329Y-103854304D01*
X157331206Y-103950576D01*
X157389099Y-104037218D01*
X157462782Y-104110901D01*
X157549424Y-104168794D01*
X157645696Y-104208671D01*
X157747898Y-104229000D01*
X157852102Y-104229000D01*
X157954304Y-104208671D01*
X158050576Y-104168794D01*
X158100000Y-104135770D01*
X158149424Y-104168794D01*
X158245696Y-104208671D01*
X158347898Y-104229000D01*
X158452102Y-104229000D01*
X158554304Y-104208671D01*
X158650576Y-104168794D01*
X158700000Y-104135770D01*
X158749424Y-104168794D01*
X158845696Y-104208671D01*
X158947898Y-104229000D01*
X159052102Y-104229000D01*
X159154304Y-104208671D01*
X159250576Y-104168794D01*
X159300000Y-104135770D01*
X159349424Y-104168794D01*
X159445696Y-104208671D01*
X159547898Y-104229000D01*
X159652102Y-104229000D01*
X159754304Y-104208671D01*
X159850576Y-104168794D01*
X159937218Y-104110901D01*
X160010901Y-104037218D01*
X160068794Y-103950576D01*
X160108671Y-103854304D01*
X160129000Y-103752102D01*
X160129000Y-103647898D01*
X160108671Y-103545696D01*
X160068794Y-103449424D01*
X160035770Y-103400000D01*
X160068794Y-103350576D01*
X160108671Y-103254304D01*
X160129000Y-103152102D01*
X160129000Y-103047898D01*
X160108671Y-102945696D01*
X160068794Y-102849424D01*
X160010901Y-102762782D01*
X159937218Y-102689099D01*
X159850576Y-102631206D01*
X159754304Y-102591329D01*
X159652102Y-102571000D01*
X159547898Y-102571000D01*
X159445696Y-102591329D01*
X159349424Y-102631206D01*
X159300000Y-102664230D01*
X159250576Y-102631206D01*
X159154304Y-102591329D01*
X159052102Y-102571000D01*
X158947898Y-102571000D01*
X158845696Y-102591329D01*
X158749424Y-102631206D01*
X158700000Y-102664230D01*
X158650576Y-102631206D01*
X158554304Y-102591329D01*
X158452102Y-102571000D01*
X158347898Y-102571000D01*
X158245696Y-102591329D01*
X158149424Y-102631206D01*
X158100000Y-102664230D01*
X158050576Y-102631206D01*
X157954304Y-102591329D01*
X157852102Y-102571000D01*
X157747898Y-102571000D01*
X157645696Y-102591329D01*
X157549424Y-102631206D01*
X157462782Y-102689099D01*
X157389099Y-102762782D01*
X157331206Y-102849424D01*
X157291329Y-102945696D01*
X157271000Y-103047898D01*
X147909109Y-103047898D01*
X147908671Y-103045696D01*
X147868794Y-102949424D01*
X147810901Y-102862782D01*
X147737218Y-102789099D01*
X147650576Y-102731206D01*
X147554304Y-102691329D01*
X147452102Y-102671000D01*
X147347898Y-102671000D01*
X147245696Y-102691329D01*
X147149424Y-102731206D01*
X147062782Y-102789099D01*
X147025000Y-102826881D01*
X146987218Y-102789099D01*
X146900576Y-102731206D01*
X146804304Y-102691329D01*
X146702102Y-102671000D01*
X146597898Y-102671000D01*
X146495696Y-102691329D01*
X146399424Y-102731206D01*
X146312782Y-102789099D01*
X146239099Y-102862782D01*
X146181206Y-102949424D01*
X146141329Y-103045696D01*
X146121000Y-103147898D01*
X141278228Y-103147898D01*
X139478228Y-101347898D01*
X163871000Y-101347898D01*
X163871000Y-101452102D01*
X163891329Y-101554304D01*
X163931206Y-101650576D01*
X163989099Y-101737218D01*
X164062782Y-101810901D01*
X164149424Y-101868794D01*
X164245696Y-101908671D01*
X164347898Y-101929000D01*
X164452102Y-101929000D01*
X164475692Y-101924308D01*
X164471000Y-101947898D01*
X164471000Y-102052102D01*
X164491329Y-102154304D01*
X164531206Y-102250576D01*
X164564230Y-102300000D01*
X164531206Y-102349424D01*
X164491329Y-102445696D01*
X164471000Y-102547898D01*
X164471000Y-102652102D01*
X164491329Y-102754304D01*
X164531206Y-102850576D01*
X164564230Y-102900000D01*
X164531206Y-102949424D01*
X164491329Y-103045696D01*
X164471000Y-103147898D01*
X164471000Y-103252102D01*
X164491329Y-103354304D01*
X164531206Y-103450576D01*
X164564230Y-103500000D01*
X164531206Y-103549424D01*
X164491329Y-103645696D01*
X164471000Y-103747898D01*
X164471000Y-103852102D01*
X164491329Y-103954304D01*
X164531206Y-104050576D01*
X164589099Y-104137218D01*
X164662782Y-104210901D01*
X164749424Y-104268794D01*
X164845696Y-104308671D01*
X164947898Y-104329000D01*
X165052102Y-104329000D01*
X165154304Y-104308671D01*
X165250576Y-104268794D01*
X165337218Y-104210901D01*
X165410901Y-104137218D01*
X165468794Y-104050576D01*
X165508671Y-103954304D01*
X165529000Y-103852102D01*
X165529000Y-103747898D01*
X165508671Y-103645696D01*
X165468794Y-103549424D01*
X165435770Y-103500000D01*
X165468794Y-103450576D01*
X165508671Y-103354304D01*
X165529000Y-103252102D01*
X165529000Y-103147898D01*
X165508671Y-103045696D01*
X165468794Y-102949424D01*
X165435770Y-102900000D01*
X165468794Y-102850576D01*
X165508671Y-102754304D01*
X165529000Y-102652102D01*
X165529000Y-102547898D01*
X165508671Y-102445696D01*
X165468794Y-102349424D01*
X165435770Y-102300000D01*
X165468794Y-102250576D01*
X165508671Y-102154304D01*
X165529000Y-102052102D01*
X165529000Y-101947898D01*
X165508671Y-101845696D01*
X165468794Y-101749424D01*
X165435770Y-101700000D01*
X165468794Y-101650576D01*
X165508671Y-101554304D01*
X165529000Y-101452102D01*
X165529000Y-101347898D01*
X165508671Y-101245696D01*
X165468794Y-101149424D01*
X165410901Y-101062782D01*
X165337218Y-100989099D01*
X165250576Y-100931206D01*
X165154304Y-100891329D01*
X165052102Y-100871000D01*
X164947898Y-100871000D01*
X164845696Y-100891329D01*
X164749424Y-100931206D01*
X164700000Y-100964230D01*
X164650576Y-100931206D01*
X164554304Y-100891329D01*
X164452102Y-100871000D01*
X164347898Y-100871000D01*
X164245696Y-100891329D01*
X164149424Y-100931206D01*
X164062782Y-100989099D01*
X163989099Y-101062782D01*
X163931206Y-101149424D01*
X163891329Y-101245696D01*
X163871000Y-101347898D01*
X139478228Y-101347898D01*
X138778228Y-100647898D01*
X145421000Y-100647898D01*
X145421000Y-100752102D01*
X145441329Y-100854304D01*
X145481206Y-100950576D01*
X145539099Y-101037218D01*
X145612782Y-101110901D01*
X145699424Y-101168794D01*
X145795696Y-101208671D01*
X145897898Y-101229000D01*
X146002102Y-101229000D01*
X146104304Y-101208671D01*
X146200576Y-101168794D01*
X146287218Y-101110901D01*
X146360901Y-101037218D01*
X146418794Y-100950576D01*
X146458671Y-100854304D01*
X146479000Y-100752102D01*
X146479000Y-100647898D01*
X146458671Y-100545696D01*
X146418794Y-100449424D01*
X146360901Y-100362782D01*
X146346017Y-100347898D01*
X162721000Y-100347898D01*
X162721000Y-100452102D01*
X162741329Y-100554304D01*
X162781206Y-100650576D01*
X162839099Y-100737218D01*
X162912782Y-100810901D01*
X162999424Y-100868794D01*
X163095696Y-100908671D01*
X163197898Y-100929000D01*
X163302102Y-100929000D01*
X163404304Y-100908671D01*
X163500576Y-100868794D01*
X163587218Y-100810901D01*
X163660901Y-100737218D01*
X163718794Y-100650576D01*
X163758671Y-100554304D01*
X163779000Y-100452102D01*
X163779000Y-100347898D01*
X163758671Y-100245696D01*
X163718794Y-100149424D01*
X163660901Y-100062782D01*
X163587218Y-99989099D01*
X163500576Y-99931206D01*
X163404304Y-99891329D01*
X163302102Y-99871000D01*
X163197898Y-99871000D01*
X163095696Y-99891329D01*
X162999424Y-99931206D01*
X162912782Y-99989099D01*
X162839099Y-100062782D01*
X162781206Y-100149424D01*
X162741329Y-100245696D01*
X162721000Y-100347898D01*
X146346017Y-100347898D01*
X146287218Y-100289099D01*
X146200576Y-100231206D01*
X146104304Y-100191329D01*
X146002102Y-100171000D01*
X145897898Y-100171000D01*
X145795696Y-100191329D01*
X145699424Y-100231206D01*
X145612782Y-100289099D01*
X145539099Y-100362782D01*
X145481206Y-100449424D01*
X145441329Y-100545696D01*
X145421000Y-100647898D01*
X138778228Y-100647898D01*
X137378228Y-99247898D01*
X138371000Y-99247898D01*
X138371000Y-99352102D01*
X138391329Y-99454304D01*
X138431206Y-99550576D01*
X138489099Y-99637218D01*
X138562782Y-99710901D01*
X138649424Y-99768794D01*
X138745696Y-99808671D01*
X138847898Y-99829000D01*
X138952102Y-99829000D01*
X139054304Y-99808671D01*
X139150576Y-99768794D01*
X139237218Y-99710901D01*
X139310901Y-99637218D01*
X139368794Y-99550576D01*
X139408671Y-99454304D01*
X139429000Y-99352102D01*
X139429000Y-99247898D01*
X139408671Y-99145696D01*
X139368794Y-99049424D01*
X139310901Y-98962782D01*
X139285722Y-98937603D01*
X145704173Y-98937603D01*
X145774429Y-99046474D01*
X145925420Y-99106568D01*
X146085234Y-99136051D01*
X146247729Y-99133789D01*
X146406661Y-99099869D01*
X146535571Y-99046474D01*
X146605827Y-98937603D01*
X146155000Y-98486777D01*
X145704173Y-98937603D01*
X139285722Y-98937603D01*
X139237218Y-98889099D01*
X139150576Y-98831206D01*
X139054304Y-98791329D01*
X138952102Y-98771000D01*
X138847898Y-98771000D01*
X138745696Y-98791329D01*
X138649424Y-98831206D01*
X138562782Y-98889099D01*
X138489099Y-98962782D01*
X138431206Y-99049424D01*
X138391329Y-99145696D01*
X138371000Y-99247898D01*
X137378228Y-99247898D01*
X136628228Y-98497898D01*
X137271000Y-98497898D01*
X137271000Y-98602102D01*
X137291329Y-98704304D01*
X137331206Y-98800576D01*
X137389099Y-98887218D01*
X137462782Y-98960901D01*
X137549424Y-99018794D01*
X137645696Y-99058671D01*
X137747898Y-99079000D01*
X137852102Y-99079000D01*
X137954304Y-99058671D01*
X138050576Y-99018794D01*
X138137218Y-98960901D01*
X138210901Y-98887218D01*
X138268794Y-98800576D01*
X138308671Y-98704304D01*
X138329000Y-98602102D01*
X138329000Y-98497898D01*
X138308671Y-98395696D01*
X138268794Y-98299424D01*
X138210901Y-98212782D01*
X138137218Y-98139099D01*
X138050576Y-98081206D01*
X137954304Y-98041329D01*
X137852102Y-98021000D01*
X137747898Y-98021000D01*
X137645696Y-98041329D01*
X137549424Y-98081206D01*
X137462782Y-98139099D01*
X137389099Y-98212782D01*
X137331206Y-98299424D01*
X137291329Y-98395696D01*
X137271000Y-98497898D01*
X136628228Y-98497898D01*
X135975000Y-97844671D01*
X135975000Y-97747898D01*
X139071000Y-97747898D01*
X139071000Y-97852102D01*
X139091329Y-97954304D01*
X139131206Y-98050576D01*
X139189099Y-98137218D01*
X139262782Y-98210901D01*
X139349424Y-98268794D01*
X139445696Y-98308671D01*
X139547898Y-98329000D01*
X139652102Y-98329000D01*
X139754304Y-98308671D01*
X139850576Y-98268794D01*
X139893318Y-98240234D01*
X145328949Y-98240234D01*
X145331211Y-98402729D01*
X145365131Y-98561661D01*
X145418526Y-98690571D01*
X145527397Y-98760827D01*
X145978223Y-98310000D01*
X146331777Y-98310000D01*
X146782603Y-98760827D01*
X146891474Y-98690571D01*
X146951568Y-98539580D01*
X146981051Y-98379766D01*
X146978789Y-98217271D01*
X146963984Y-98147898D01*
X147871000Y-98147898D01*
X147871000Y-98252102D01*
X147891329Y-98354304D01*
X147931206Y-98450576D01*
X147964230Y-98500000D01*
X147931206Y-98549424D01*
X147891329Y-98645696D01*
X147871000Y-98747898D01*
X147871000Y-98852102D01*
X147891329Y-98954304D01*
X147931206Y-99050576D01*
X147989099Y-99137218D01*
X148062782Y-99210901D01*
X148149424Y-99268794D01*
X148245696Y-99308671D01*
X148347898Y-99329000D01*
X148452102Y-99329000D01*
X148554304Y-99308671D01*
X148650576Y-99268794D01*
X148737218Y-99210901D01*
X148810901Y-99137218D01*
X148868794Y-99050576D01*
X148908671Y-98954304D01*
X148929000Y-98852102D01*
X148929000Y-98747898D01*
X148908671Y-98645696D01*
X148868794Y-98549424D01*
X148835770Y-98500000D01*
X148868794Y-98450576D01*
X148908671Y-98354304D01*
X148929000Y-98252102D01*
X148929000Y-98147898D01*
X148908671Y-98045696D01*
X148868794Y-97949424D01*
X148810901Y-97862782D01*
X148737218Y-97789099D01*
X148650576Y-97731206D01*
X148554304Y-97691329D01*
X148452102Y-97671000D01*
X148347898Y-97671000D01*
X148245696Y-97691329D01*
X148149424Y-97731206D01*
X148062782Y-97789099D01*
X147989099Y-97862782D01*
X147931206Y-97949424D01*
X147891329Y-98045696D01*
X147871000Y-98147898D01*
X146963984Y-98147898D01*
X146944869Y-98058339D01*
X146891474Y-97929429D01*
X146782603Y-97859173D01*
X146331777Y-98310000D01*
X145978223Y-98310000D01*
X145527397Y-97859173D01*
X145418526Y-97929429D01*
X145358432Y-98080420D01*
X145328949Y-98240234D01*
X139893318Y-98240234D01*
X139937218Y-98210901D01*
X140010901Y-98137218D01*
X140068794Y-98050576D01*
X140108671Y-97954304D01*
X140129000Y-97852102D01*
X140129000Y-97747898D01*
X140115972Y-97682397D01*
X145704173Y-97682397D01*
X146155000Y-98133223D01*
X146605827Y-97682397D01*
X146535571Y-97573526D01*
X146384580Y-97513432D01*
X146224766Y-97483949D01*
X146062271Y-97486211D01*
X145903339Y-97520131D01*
X145774429Y-97573526D01*
X145704173Y-97682397D01*
X140115972Y-97682397D01*
X140108671Y-97645696D01*
X140068794Y-97549424D01*
X140010901Y-97462782D01*
X139937218Y-97389099D01*
X139850576Y-97331206D01*
X139754304Y-97291329D01*
X139652102Y-97271000D01*
X139547898Y-97271000D01*
X139445696Y-97291329D01*
X139349424Y-97331206D01*
X139262782Y-97389099D01*
X139189099Y-97462782D01*
X139131206Y-97549424D01*
X139091329Y-97645696D01*
X139071000Y-97747898D01*
X135975000Y-97747898D01*
X135975000Y-97673119D01*
X136010901Y-97637218D01*
X136068794Y-97550576D01*
X136108671Y-97454304D01*
X136129000Y-97352102D01*
X136129000Y-97247898D01*
X136108671Y-97145696D01*
X136068794Y-97049424D01*
X136010901Y-96962782D01*
X135937218Y-96889099D01*
X135875558Y-96847898D01*
X138321000Y-96847898D01*
X138321000Y-96952102D01*
X138341329Y-97054304D01*
X138381206Y-97150576D01*
X138439099Y-97237218D01*
X138512782Y-97310901D01*
X138599424Y-97368794D01*
X138695696Y-97408671D01*
X138797898Y-97429000D01*
X138902102Y-97429000D01*
X139004304Y-97408671D01*
X139100576Y-97368794D01*
X139187218Y-97310901D01*
X139260901Y-97237218D01*
X139318794Y-97150576D01*
X139358671Y-97054304D01*
X139379000Y-96952102D01*
X139379000Y-96847898D01*
X139358671Y-96745696D01*
X139318794Y-96649424D01*
X139260901Y-96562782D01*
X139187218Y-96489099D01*
X139100576Y-96431206D01*
X139004304Y-96391329D01*
X138902102Y-96371000D01*
X138797898Y-96371000D01*
X138695696Y-96391329D01*
X138599424Y-96431206D01*
X138512782Y-96489099D01*
X138439099Y-96562782D01*
X138381206Y-96649424D01*
X138341329Y-96745696D01*
X138321000Y-96847898D01*
X135875558Y-96847898D01*
X135850576Y-96831206D01*
X135754304Y-96791329D01*
X135652102Y-96771000D01*
X135547898Y-96771000D01*
X135445696Y-96791329D01*
X135349424Y-96831206D01*
X135262782Y-96889099D01*
X135250000Y-96901881D01*
X135237218Y-96889099D01*
X135150576Y-96831206D01*
X135054304Y-96791329D01*
X134952102Y-96771000D01*
X134847898Y-96771000D01*
X134745696Y-96791329D01*
X134649424Y-96831206D01*
X134562782Y-96889099D01*
X134489099Y-96962782D01*
X134431206Y-97049424D01*
X134400000Y-97124762D01*
X134368794Y-97049424D01*
X134310901Y-96962782D01*
X134237218Y-96889099D01*
X134150576Y-96831206D01*
X134054304Y-96791329D01*
X133952102Y-96771000D01*
X133847898Y-96771000D01*
X133745696Y-96791329D01*
X133649424Y-96831206D01*
X133562782Y-96889099D01*
X133489099Y-96962782D01*
X133431206Y-97049424D01*
X133391329Y-97145696D01*
X133371000Y-97247898D01*
X127709945Y-97247898D01*
X127729000Y-97152102D01*
X127729000Y-97047898D01*
X127708671Y-96945696D01*
X127668794Y-96849424D01*
X127610901Y-96762782D01*
X127537218Y-96689099D01*
X127450576Y-96631206D01*
X127354304Y-96591329D01*
X127252102Y-96571000D01*
X127147898Y-96571000D01*
X127045696Y-96591329D01*
X126949424Y-96631206D01*
X126862782Y-96689099D01*
X126789099Y-96762782D01*
X126731206Y-96849424D01*
X126691329Y-96945696D01*
X126671000Y-97047898D01*
X100325000Y-97047898D01*
X100325000Y-95347898D01*
X129771000Y-95347898D01*
X129771000Y-95452102D01*
X129791329Y-95554304D01*
X129831206Y-95650576D01*
X129889099Y-95737218D01*
X129962782Y-95810901D01*
X130049424Y-95868794D01*
X130145696Y-95908671D01*
X130247898Y-95929000D01*
X130352102Y-95929000D01*
X130454304Y-95908671D01*
X130550576Y-95868794D01*
X130637218Y-95810901D01*
X130710901Y-95737218D01*
X130768794Y-95650576D01*
X130808671Y-95554304D01*
X130819789Y-95498409D01*
X130847898Y-95504000D01*
X130952102Y-95504000D01*
X130980211Y-95498409D01*
X130991329Y-95554304D01*
X131031206Y-95650576D01*
X131089099Y-95737218D01*
X131162782Y-95810901D01*
X131249424Y-95868794D01*
X131324762Y-95900000D01*
X131249424Y-95931206D01*
X131162782Y-95989099D01*
X131089099Y-96062782D01*
X131031206Y-96149424D01*
X130991329Y-96245696D01*
X130971000Y-96347898D01*
X130971000Y-96452102D01*
X130991329Y-96554304D01*
X131031206Y-96650576D01*
X131089099Y-96737218D01*
X131162782Y-96810901D01*
X131249424Y-96868794D01*
X131345696Y-96908671D01*
X131447898Y-96929000D01*
X131552102Y-96929000D01*
X131654304Y-96908671D01*
X131750576Y-96868794D01*
X131837218Y-96810901D01*
X131910901Y-96737218D01*
X131968794Y-96650576D01*
X132008671Y-96554304D01*
X132029000Y-96452102D01*
X132029000Y-96347898D01*
X132015735Y-96281208D01*
X145275569Y-96281208D01*
X145370206Y-96410569D01*
X145555502Y-96490770D01*
X145752883Y-96533280D01*
X145843880Y-96534716D01*
X145823058Y-96584986D01*
X145800000Y-96700905D01*
X145800000Y-96819095D01*
X145823058Y-96935014D01*
X145868287Y-97044207D01*
X145933950Y-97142478D01*
X146017522Y-97226050D01*
X146115793Y-97291713D01*
X146224986Y-97336942D01*
X146340905Y-97360000D01*
X146459095Y-97360000D01*
X146575014Y-97336942D01*
X146684207Y-97291713D01*
X146782478Y-97226050D01*
X146866050Y-97142478D01*
X146931713Y-97044207D01*
X146976942Y-96935014D01*
X147000000Y-96819095D01*
X147000000Y-96700905D01*
X146982907Y-96614973D01*
X146984699Y-96618999D01*
X147088137Y-96651221D01*
X147195873Y-96662645D01*
X147303769Y-96652831D01*
X147407676Y-96622156D01*
X147415301Y-96618999D01*
X147451316Y-96538093D01*
X147200000Y-96286777D01*
X147185858Y-96300919D01*
X147009081Y-96124142D01*
X147023223Y-96110000D01*
X147009081Y-96095858D01*
X147185858Y-95919081D01*
X147200000Y-95933223D01*
X147214142Y-95919081D01*
X147390919Y-96095858D01*
X147376777Y-96110000D01*
X147483942Y-96217165D01*
X147491329Y-96254304D01*
X147531206Y-96350576D01*
X147589099Y-96437218D01*
X147662782Y-96510901D01*
X147749424Y-96568794D01*
X147845696Y-96608671D01*
X147947898Y-96629000D01*
X148052102Y-96629000D01*
X148154304Y-96608671D01*
X148250576Y-96568794D01*
X148337218Y-96510901D01*
X148344796Y-96503324D01*
X148417522Y-96576050D01*
X148515793Y-96641713D01*
X148624986Y-96686942D01*
X148740905Y-96710000D01*
X148859095Y-96710000D01*
X148975014Y-96686942D01*
X149084207Y-96641713D01*
X149182478Y-96576050D01*
X149200000Y-96558528D01*
X149200001Y-96558529D01*
X149200000Y-97680353D01*
X149198065Y-97700000D01*
X149200000Y-97719646D01*
X149205788Y-97778413D01*
X149228660Y-97853813D01*
X149265803Y-97923302D01*
X149315789Y-97984211D01*
X149331052Y-97996737D01*
X149360806Y-98026491D01*
X149349424Y-98031206D01*
X149262782Y-98089099D01*
X149189099Y-98162782D01*
X149131206Y-98249424D01*
X149091329Y-98345696D01*
X149071000Y-98447898D01*
X149071000Y-98552102D01*
X149091329Y-98654304D01*
X149131206Y-98750576D01*
X149189099Y-98837218D01*
X149262782Y-98910901D01*
X149349424Y-98968794D01*
X149445696Y-99008671D01*
X149547898Y-99029000D01*
X149652102Y-99029000D01*
X149754304Y-99008671D01*
X149850576Y-98968794D01*
X149937218Y-98910901D01*
X150000000Y-98848119D01*
X150062782Y-98910901D01*
X150149424Y-98968794D01*
X150245696Y-99008671D01*
X150347898Y-99029000D01*
X150452102Y-99029000D01*
X150554304Y-99008671D01*
X150650576Y-98968794D01*
X150737218Y-98910901D01*
X150810901Y-98837218D01*
X150868794Y-98750576D01*
X150908671Y-98654304D01*
X150929000Y-98552102D01*
X150929000Y-98447898D01*
X150908671Y-98345696D01*
X150868794Y-98249424D01*
X150810901Y-98162782D01*
X150796017Y-98147898D01*
X151071000Y-98147898D01*
X151071000Y-98252102D01*
X151091329Y-98354304D01*
X151131206Y-98450576D01*
X151164230Y-98500000D01*
X151131206Y-98549424D01*
X151091329Y-98645696D01*
X151071000Y-98747898D01*
X151071000Y-98852102D01*
X151091329Y-98954304D01*
X151131206Y-99050576D01*
X151189099Y-99137218D01*
X151262782Y-99210901D01*
X151349424Y-99268794D01*
X151445696Y-99308671D01*
X151547898Y-99329000D01*
X151652102Y-99329000D01*
X151754304Y-99308671D01*
X151850576Y-99268794D01*
X151937218Y-99210901D01*
X152010901Y-99137218D01*
X152068794Y-99050576D01*
X152108671Y-98954304D01*
X152111992Y-98937603D01*
X153394173Y-98937603D01*
X153464429Y-99046474D01*
X153615420Y-99106568D01*
X153775234Y-99136051D01*
X153937729Y-99133789D01*
X154096661Y-99099869D01*
X154225571Y-99046474D01*
X154295827Y-98937603D01*
X153845000Y-98486777D01*
X153394173Y-98937603D01*
X152111992Y-98937603D01*
X152129000Y-98852102D01*
X152129000Y-98747898D01*
X152108671Y-98645696D01*
X152068794Y-98549424D01*
X152035770Y-98500000D01*
X152068794Y-98450576D01*
X152108671Y-98354304D01*
X152129000Y-98252102D01*
X152129000Y-98240234D01*
X153018949Y-98240234D01*
X153021211Y-98402729D01*
X153055131Y-98561661D01*
X153108526Y-98690571D01*
X153217397Y-98760827D01*
X153668223Y-98310000D01*
X154021777Y-98310000D01*
X154472603Y-98760827D01*
X154581474Y-98690571D01*
X154641568Y-98539580D01*
X154671051Y-98379766D01*
X154668789Y-98217271D01*
X154634869Y-98058339D01*
X154581474Y-97929429D01*
X154472603Y-97859173D01*
X154021777Y-98310000D01*
X153668223Y-98310000D01*
X153217397Y-97859173D01*
X153108526Y-97929429D01*
X153048432Y-98080420D01*
X153018949Y-98240234D01*
X152129000Y-98240234D01*
X152129000Y-98147898D01*
X152108671Y-98045696D01*
X152068794Y-97949424D01*
X152010901Y-97862782D01*
X151937218Y-97789099D01*
X151850576Y-97731206D01*
X151754304Y-97691329D01*
X151709400Y-97682397D01*
X153394173Y-97682397D01*
X153845000Y-98133223D01*
X154295827Y-97682397D01*
X154225571Y-97573526D01*
X154074580Y-97513432D01*
X153914766Y-97483949D01*
X153752271Y-97486211D01*
X153593339Y-97520131D01*
X153464429Y-97573526D01*
X153394173Y-97682397D01*
X151709400Y-97682397D01*
X151652102Y-97671000D01*
X151547898Y-97671000D01*
X151445696Y-97691329D01*
X151349424Y-97731206D01*
X151262782Y-97789099D01*
X151189099Y-97862782D01*
X151131206Y-97949424D01*
X151091329Y-98045696D01*
X151071000Y-98147898D01*
X150796017Y-98147898D01*
X150737218Y-98089099D01*
X150650576Y-98031206D01*
X150554304Y-97991329D01*
X150452102Y-97971000D01*
X150436686Y-97971000D01*
X150000000Y-97534315D01*
X150000000Y-96558528D01*
X150017522Y-96576050D01*
X150115793Y-96641713D01*
X150224986Y-96686942D01*
X150340905Y-96710000D01*
X150459095Y-96710000D01*
X150575014Y-96686942D01*
X150684207Y-96641713D01*
X150782478Y-96576050D01*
X150800000Y-96558528D01*
X150817522Y-96576050D01*
X150915793Y-96641713D01*
X151024986Y-96686942D01*
X151140905Y-96710000D01*
X151259095Y-96710000D01*
X151375014Y-96686942D01*
X151484207Y-96641713D01*
X151582478Y-96576050D01*
X151655205Y-96503324D01*
X151662782Y-96510901D01*
X151749424Y-96568794D01*
X151845696Y-96608671D01*
X151947898Y-96629000D01*
X152052102Y-96629000D01*
X152154304Y-96608671D01*
X152250576Y-96568794D01*
X152337218Y-96510901D01*
X152410901Y-96437218D01*
X152468794Y-96350576D01*
X152508671Y-96254304D01*
X152516058Y-96217165D01*
X152623223Y-96110000D01*
X152609081Y-96095858D01*
X152785858Y-95919081D01*
X152800000Y-95933223D01*
X152814142Y-95919081D01*
X152990919Y-96095858D01*
X152976777Y-96110000D01*
X152990919Y-96124142D01*
X152814142Y-96300919D01*
X152800000Y-96286777D01*
X152548684Y-96538093D01*
X152584699Y-96618999D01*
X152688137Y-96651221D01*
X152795873Y-96662645D01*
X152903769Y-96652831D01*
X153007676Y-96622156D01*
X153015301Y-96618999D01*
X153017093Y-96614973D01*
X153000000Y-96700905D01*
X153000000Y-96819095D01*
X153023058Y-96935014D01*
X153068287Y-97044207D01*
X153133950Y-97142478D01*
X153217522Y-97226050D01*
X153315793Y-97291713D01*
X153424986Y-97336942D01*
X153540905Y-97360000D01*
X153659095Y-97360000D01*
X153775014Y-97336942D01*
X153884207Y-97291713D01*
X153982478Y-97226050D01*
X154066050Y-97142478D01*
X154131713Y-97044207D01*
X154176942Y-96935014D01*
X154200000Y-96819095D01*
X154200000Y-96700905D01*
X154176942Y-96584986D01*
X154156463Y-96535546D01*
X154214765Y-96536466D01*
X154413390Y-96500205D01*
X154545531Y-96447898D01*
X168971000Y-96447898D01*
X168971000Y-96552102D01*
X168991329Y-96654304D01*
X169031206Y-96750576D01*
X169089099Y-96837218D01*
X169162782Y-96910901D01*
X169249424Y-96968794D01*
X169345696Y-97008671D01*
X169447898Y-97029000D01*
X169552102Y-97029000D01*
X169654304Y-97008671D01*
X169750576Y-96968794D01*
X169837218Y-96910901D01*
X169910901Y-96837218D01*
X169968794Y-96750576D01*
X170008671Y-96654304D01*
X170029000Y-96552102D01*
X170029000Y-96447898D01*
X170008671Y-96345696D01*
X169968794Y-96249424D01*
X169910901Y-96162782D01*
X169837218Y-96089099D01*
X169750576Y-96031206D01*
X169654304Y-95991329D01*
X169552102Y-95971000D01*
X169447898Y-95971000D01*
X169345696Y-95991329D01*
X169249424Y-96031206D01*
X169162782Y-96089099D01*
X169089099Y-96162782D01*
X169031206Y-96249424D01*
X168991329Y-96345696D01*
X168971000Y-96447898D01*
X154545531Y-96447898D01*
X154601125Y-96425892D01*
X154629794Y-96410569D01*
X154724431Y-96281208D01*
X154130000Y-95686777D01*
X154115858Y-95700919D01*
X153939081Y-95524142D01*
X153953223Y-95510000D01*
X154306777Y-95510000D01*
X154901208Y-96104431D01*
X155030569Y-96009794D01*
X155110770Y-95824498D01*
X155153280Y-95627117D01*
X155156466Y-95425235D01*
X155142348Y-95347898D01*
X158771000Y-95347898D01*
X158771000Y-95452102D01*
X158791329Y-95554304D01*
X158831206Y-95650576D01*
X158889099Y-95737218D01*
X158962782Y-95810901D01*
X159049424Y-95868794D01*
X159145696Y-95908671D01*
X159247898Y-95929000D01*
X159352102Y-95929000D01*
X159454304Y-95908671D01*
X159550576Y-95868794D01*
X159600000Y-95835770D01*
X159649424Y-95868794D01*
X159745696Y-95908671D01*
X159847898Y-95929000D01*
X159952102Y-95929000D01*
X160054304Y-95908671D01*
X160150576Y-95868794D01*
X160200000Y-95835770D01*
X160249424Y-95868794D01*
X160345696Y-95908671D01*
X160447898Y-95929000D01*
X160552102Y-95929000D01*
X160654304Y-95908671D01*
X160750576Y-95868794D01*
X160800000Y-95835770D01*
X160849424Y-95868794D01*
X160945696Y-95908671D01*
X161047898Y-95929000D01*
X161152102Y-95929000D01*
X161254304Y-95908671D01*
X161350576Y-95868794D01*
X161437218Y-95810901D01*
X161510901Y-95737218D01*
X161568794Y-95650576D01*
X161608671Y-95554304D01*
X161629000Y-95452102D01*
X161629000Y-95347898D01*
X161625082Y-95328200D01*
X163871000Y-95328200D01*
X163871000Y-95471800D01*
X163899015Y-95612641D01*
X163953969Y-95745311D01*
X164033749Y-95864710D01*
X164135290Y-95966251D01*
X164254689Y-96046031D01*
X164387359Y-96100985D01*
X164528200Y-96129000D01*
X164671800Y-96129000D01*
X164812641Y-96100985D01*
X164945311Y-96046031D01*
X165064710Y-95966251D01*
X165166251Y-95864710D01*
X165246031Y-95745311D01*
X165300985Y-95612641D01*
X165329000Y-95471800D01*
X165329000Y-95328200D01*
X165300985Y-95187359D01*
X165246031Y-95054689D01*
X165166251Y-94935290D01*
X165064710Y-94833749D01*
X164945311Y-94753969D01*
X164930655Y-94747898D01*
X170671000Y-94747898D01*
X170671000Y-94852102D01*
X170691329Y-94954304D01*
X170731206Y-95050576D01*
X170764230Y-95100000D01*
X170731206Y-95149424D01*
X170691329Y-95245696D01*
X170671000Y-95347898D01*
X170671000Y-95452102D01*
X170691329Y-95554304D01*
X170731206Y-95650576D01*
X170764230Y-95700000D01*
X170731206Y-95749424D01*
X170691329Y-95845696D01*
X170671000Y-95947898D01*
X170671000Y-96052102D01*
X170691329Y-96154304D01*
X170731206Y-96250576D01*
X170764230Y-96300000D01*
X170731206Y-96349424D01*
X170691329Y-96445696D01*
X170671000Y-96547898D01*
X170671000Y-96652102D01*
X170691329Y-96754304D01*
X170731206Y-96850576D01*
X170764230Y-96900000D01*
X170731206Y-96949424D01*
X170691329Y-97045696D01*
X170671000Y-97147898D01*
X170671000Y-97252102D01*
X170691329Y-97354304D01*
X170731206Y-97450576D01*
X170764230Y-97500000D01*
X170731206Y-97549424D01*
X170691329Y-97645696D01*
X170671000Y-97747898D01*
X170671000Y-97852102D01*
X170691329Y-97954304D01*
X170731206Y-98050576D01*
X170789099Y-98137218D01*
X170862782Y-98210901D01*
X170949424Y-98268794D01*
X171045696Y-98308671D01*
X171147898Y-98329000D01*
X171252102Y-98329000D01*
X171354304Y-98308671D01*
X171450576Y-98268794D01*
X171500000Y-98235770D01*
X171549424Y-98268794D01*
X171645696Y-98308671D01*
X171747898Y-98329000D01*
X171852102Y-98329000D01*
X171954304Y-98308671D01*
X172050576Y-98268794D01*
X172075001Y-98252474D01*
X172075000Y-101747526D01*
X172050576Y-101731206D01*
X171954304Y-101691329D01*
X171852102Y-101671000D01*
X171747898Y-101671000D01*
X171645696Y-101691329D01*
X171549424Y-101731206D01*
X171500000Y-101764230D01*
X171450576Y-101731206D01*
X171354304Y-101691329D01*
X171252102Y-101671000D01*
X171147898Y-101671000D01*
X171045696Y-101691329D01*
X170949424Y-101731206D01*
X170862782Y-101789099D01*
X170789099Y-101862782D01*
X170731206Y-101949424D01*
X170691329Y-102045696D01*
X170671000Y-102147898D01*
X170671000Y-102252102D01*
X170691329Y-102354304D01*
X170731206Y-102450576D01*
X170764230Y-102500000D01*
X170731206Y-102549424D01*
X170691329Y-102645696D01*
X170671000Y-102747898D01*
X170671000Y-102852102D01*
X170691329Y-102954304D01*
X170731206Y-103050576D01*
X170764230Y-103100000D01*
X170731206Y-103149424D01*
X170691329Y-103245696D01*
X170671000Y-103347898D01*
X170671000Y-103452102D01*
X170691329Y-103554304D01*
X170731206Y-103650576D01*
X170764230Y-103700000D01*
X170731206Y-103749424D01*
X170691329Y-103845696D01*
X170671000Y-103947898D01*
X170671000Y-104052102D01*
X170691329Y-104154304D01*
X170731206Y-104250576D01*
X170764230Y-104300000D01*
X170731206Y-104349424D01*
X170691329Y-104445696D01*
X170671000Y-104547898D01*
X170671000Y-104652102D01*
X170691329Y-104754304D01*
X170731206Y-104850576D01*
X170764230Y-104900000D01*
X170731206Y-104949424D01*
X170691329Y-105045696D01*
X170671000Y-105147898D01*
X170671000Y-105252102D01*
X170691329Y-105354304D01*
X170731206Y-105450576D01*
X170789099Y-105537218D01*
X170862782Y-105610901D01*
X170949424Y-105668794D01*
X171045696Y-105708671D01*
X171147898Y-105729000D01*
X171252102Y-105729000D01*
X171354304Y-105708671D01*
X171450576Y-105668794D01*
X171500000Y-105635770D01*
X171549424Y-105668794D01*
X171645696Y-105708671D01*
X171747898Y-105729000D01*
X171852102Y-105729000D01*
X171954304Y-105708671D01*
X172050576Y-105668794D01*
X172075000Y-105652474D01*
X172075000Y-105984039D01*
X172073428Y-106000000D01*
X172079703Y-106063711D01*
X172098287Y-106124974D01*
X172128465Y-106181434D01*
X172169079Y-106230921D01*
X172218566Y-106271535D01*
X172275026Y-106301713D01*
X172336289Y-106320297D01*
X172400000Y-106326572D01*
X172415960Y-106325000D01*
X183584040Y-106325000D01*
X183600000Y-106326572D01*
X183663711Y-106320297D01*
X183724974Y-106301713D01*
X183781434Y-106271535D01*
X183830921Y-106230921D01*
X183871535Y-106181434D01*
X183901713Y-106124974D01*
X183920297Y-106063711D01*
X183925000Y-106015961D01*
X183925000Y-106015960D01*
X183926572Y-106000000D01*
X183925000Y-105984039D01*
X183925000Y-103324445D01*
X183947898Y-103329000D01*
X184052102Y-103329000D01*
X184154304Y-103308671D01*
X184250576Y-103268794D01*
X184300000Y-103235770D01*
X184349424Y-103268794D01*
X184445696Y-103308671D01*
X184547898Y-103329000D01*
X184652102Y-103329000D01*
X184754304Y-103308671D01*
X184850576Y-103268794D01*
X184900000Y-103235770D01*
X184949424Y-103268794D01*
X185045696Y-103308671D01*
X185147898Y-103329000D01*
X185252102Y-103329000D01*
X185354304Y-103308671D01*
X185450576Y-103268794D01*
X185500000Y-103235770D01*
X185549424Y-103268794D01*
X185645696Y-103308671D01*
X185747898Y-103329000D01*
X185852102Y-103329000D01*
X185954304Y-103308671D01*
X186050576Y-103268794D01*
X186100000Y-103235770D01*
X186149424Y-103268794D01*
X186245696Y-103308671D01*
X186347898Y-103329000D01*
X186452102Y-103329000D01*
X186554304Y-103308671D01*
X186650576Y-103268794D01*
X186737218Y-103210901D01*
X186810901Y-103137218D01*
X186868794Y-103050576D01*
X186908671Y-102954304D01*
X186929000Y-102852102D01*
X186929000Y-102747898D01*
X186908671Y-102645696D01*
X186868794Y-102549424D01*
X186835770Y-102500000D01*
X186868794Y-102450576D01*
X186908671Y-102354304D01*
X186929000Y-102252102D01*
X186929000Y-102147898D01*
X186908671Y-102045696D01*
X186868794Y-101949424D01*
X186810901Y-101862782D01*
X186737218Y-101789099D01*
X186650576Y-101731206D01*
X186554304Y-101691329D01*
X186452102Y-101671000D01*
X186347898Y-101671000D01*
X186245696Y-101691329D01*
X186149424Y-101731206D01*
X186100000Y-101764230D01*
X186050576Y-101731206D01*
X185954304Y-101691329D01*
X185852102Y-101671000D01*
X185747898Y-101671000D01*
X185645696Y-101691329D01*
X185549424Y-101731206D01*
X185500000Y-101764230D01*
X185450576Y-101731206D01*
X185354304Y-101691329D01*
X185252102Y-101671000D01*
X185147898Y-101671000D01*
X185045696Y-101691329D01*
X184949424Y-101731206D01*
X184900000Y-101764230D01*
X184850576Y-101731206D01*
X184754304Y-101691329D01*
X184652102Y-101671000D01*
X184547898Y-101671000D01*
X184445696Y-101691329D01*
X184349424Y-101731206D01*
X184300000Y-101764230D01*
X184250576Y-101731206D01*
X184154304Y-101691329D01*
X184052102Y-101671000D01*
X183947898Y-101671000D01*
X183925000Y-101675555D01*
X183925000Y-99828200D01*
X189521000Y-99828200D01*
X189521000Y-99971800D01*
X189549015Y-100112641D01*
X189603969Y-100245311D01*
X189683749Y-100364710D01*
X189785290Y-100466251D01*
X189904689Y-100546031D01*
X190037359Y-100600985D01*
X190178200Y-100629000D01*
X190321800Y-100629000D01*
X190462641Y-100600985D01*
X190595311Y-100546031D01*
X190714710Y-100466251D01*
X190816251Y-100364710D01*
X190896031Y-100245311D01*
X190950985Y-100112641D01*
X190973390Y-100000000D01*
X195344436Y-100000000D01*
X195366640Y-100225439D01*
X195432398Y-100442215D01*
X195539184Y-100641997D01*
X195682893Y-100817107D01*
X195858003Y-100960816D01*
X195931311Y-101000000D01*
X195858003Y-101039184D01*
X195682893Y-101182893D01*
X195539184Y-101358003D01*
X195432398Y-101557785D01*
X195366640Y-101774561D01*
X195344436Y-102000000D01*
X195366640Y-102225439D01*
X195432398Y-102442215D01*
X195539184Y-102641997D01*
X195682893Y-102817107D01*
X195858003Y-102960816D01*
X196057785Y-103067602D01*
X196274561Y-103133360D01*
X196443508Y-103150000D01*
X196556492Y-103150000D01*
X196725439Y-103133360D01*
X196942215Y-103067602D01*
X197141997Y-102960816D01*
X197317107Y-102817107D01*
X197460816Y-102641997D01*
X197567602Y-102442215D01*
X197633360Y-102225439D01*
X197643252Y-102125002D01*
X197665561Y-102125002D01*
X197639250Y-102262887D01*
X197705462Y-102422758D01*
X197803205Y-102569641D01*
X197927725Y-102694633D01*
X198074237Y-102792931D01*
X198237111Y-102860757D01*
X198375000Y-102835035D01*
X198375000Y-102125000D01*
X198625000Y-102125000D01*
X198625000Y-102835035D01*
X198762889Y-102860757D01*
X198925763Y-102792931D01*
X199072275Y-102694633D01*
X199196795Y-102569641D01*
X199294538Y-102422758D01*
X199360750Y-102262887D01*
X199334439Y-102125000D01*
X198625000Y-102125000D01*
X198375000Y-102125000D01*
X198355000Y-102125000D01*
X198355000Y-101875000D01*
X198375000Y-101875000D01*
X198375000Y-101164965D01*
X198625000Y-101164965D01*
X198625000Y-101875000D01*
X199334439Y-101875000D01*
X199360750Y-101737113D01*
X199294538Y-101577242D01*
X199196795Y-101430359D01*
X199072275Y-101305367D01*
X198925763Y-101207069D01*
X198762889Y-101139243D01*
X198625000Y-101164965D01*
X198375000Y-101164965D01*
X198237111Y-101139243D01*
X198074237Y-101207069D01*
X197927725Y-101305367D01*
X197803205Y-101430359D01*
X197705462Y-101577242D01*
X197639250Y-101737113D01*
X197665561Y-101874998D01*
X197643252Y-101874998D01*
X197633360Y-101774561D01*
X197567602Y-101557785D01*
X197460816Y-101358003D01*
X197317107Y-101182893D01*
X197141997Y-101039184D01*
X197068689Y-101000000D01*
X197141997Y-100960816D01*
X197317107Y-100817107D01*
X197460816Y-100641997D01*
X197567602Y-100442215D01*
X197633360Y-100225439D01*
X197643252Y-100125002D01*
X197665561Y-100125002D01*
X197639250Y-100262887D01*
X197705462Y-100422758D01*
X197803205Y-100569641D01*
X197927725Y-100694633D01*
X198074237Y-100792931D01*
X198237111Y-100860757D01*
X198375000Y-100835035D01*
X198375000Y-100125000D01*
X198625000Y-100125000D01*
X198625000Y-100835035D01*
X198762889Y-100860757D01*
X198925763Y-100792931D01*
X199072275Y-100694633D01*
X199196795Y-100569641D01*
X199294538Y-100422758D01*
X199360750Y-100262887D01*
X199334439Y-100125000D01*
X198625000Y-100125000D01*
X198375000Y-100125000D01*
X198355000Y-100125000D01*
X198355000Y-99875000D01*
X198375000Y-99875000D01*
X198375000Y-99164965D01*
X198625000Y-99164965D01*
X198625000Y-99875000D01*
X199334439Y-99875000D01*
X199360750Y-99737113D01*
X199294538Y-99577242D01*
X199196795Y-99430359D01*
X199072275Y-99305367D01*
X198925763Y-99207069D01*
X198762889Y-99139243D01*
X198625000Y-99164965D01*
X198375000Y-99164965D01*
X198237111Y-99139243D01*
X198074237Y-99207069D01*
X197927725Y-99305367D01*
X197803205Y-99430359D01*
X197705462Y-99577242D01*
X197639250Y-99737113D01*
X197665561Y-99874998D01*
X197643252Y-99874998D01*
X197633360Y-99774561D01*
X197567602Y-99557785D01*
X197460816Y-99358003D01*
X197317107Y-99182893D01*
X197141997Y-99039184D01*
X197071272Y-99001381D01*
X197233082Y-98893263D01*
X197393263Y-98733082D01*
X197519116Y-98544729D01*
X197605806Y-98335443D01*
X197647665Y-98125002D01*
X197665561Y-98125002D01*
X197639250Y-98262887D01*
X197705462Y-98422758D01*
X197803205Y-98569641D01*
X197927725Y-98694633D01*
X198074237Y-98792931D01*
X198237111Y-98860757D01*
X198375000Y-98835035D01*
X198375000Y-98125000D01*
X198625000Y-98125000D01*
X198625000Y-98835035D01*
X198762889Y-98860757D01*
X198925763Y-98792931D01*
X199072275Y-98694633D01*
X199196795Y-98569641D01*
X199294538Y-98422758D01*
X199360750Y-98262887D01*
X199334439Y-98125000D01*
X198625000Y-98125000D01*
X198375000Y-98125000D01*
X198355000Y-98125000D01*
X198355000Y-97875000D01*
X198375000Y-97875000D01*
X198375000Y-97164965D01*
X198625000Y-97164965D01*
X198625000Y-97875000D01*
X199334439Y-97875000D01*
X199360750Y-97737113D01*
X199294538Y-97577242D01*
X199196795Y-97430359D01*
X199072275Y-97305367D01*
X198925763Y-97207069D01*
X198762889Y-97139243D01*
X198625000Y-97164965D01*
X198375000Y-97164965D01*
X198237111Y-97139243D01*
X198074237Y-97207069D01*
X197927725Y-97305367D01*
X197803205Y-97430359D01*
X197705462Y-97577242D01*
X197639250Y-97737113D01*
X197665561Y-97874998D01*
X197647665Y-97874998D01*
X197605806Y-97664557D01*
X197519116Y-97455271D01*
X197393263Y-97266918D01*
X197233082Y-97106737D01*
X197044729Y-96980884D01*
X196835443Y-96894194D01*
X196613265Y-96850000D01*
X196386735Y-96850000D01*
X196164557Y-96894194D01*
X195955271Y-96980884D01*
X195766918Y-97106737D01*
X195606737Y-97266918D01*
X195480884Y-97455271D01*
X195394194Y-97664557D01*
X195350000Y-97886735D01*
X195350000Y-98113265D01*
X195394194Y-98335443D01*
X195480884Y-98544729D01*
X195606737Y-98733082D01*
X195766918Y-98893263D01*
X195928728Y-99001381D01*
X195858003Y-99039184D01*
X195682893Y-99182893D01*
X195539184Y-99358003D01*
X195432398Y-99557785D01*
X195366640Y-99774561D01*
X195344436Y-100000000D01*
X190973390Y-100000000D01*
X190979000Y-99971800D01*
X190979000Y-99828200D01*
X190950985Y-99687359D01*
X190896031Y-99554689D01*
X190816251Y-99435290D01*
X190714710Y-99333749D01*
X190595311Y-99253969D01*
X190462641Y-99199015D01*
X190321800Y-99171000D01*
X190178200Y-99171000D01*
X190037359Y-99199015D01*
X189904689Y-99253969D01*
X189785290Y-99333749D01*
X189683749Y-99435290D01*
X189603969Y-99554689D01*
X189549015Y-99687359D01*
X189521000Y-99828200D01*
X183925000Y-99828200D01*
X183925000Y-94015961D01*
X183926572Y-94000000D01*
X183920297Y-93936289D01*
X183901713Y-93875026D01*
X183871535Y-93818566D01*
X183830921Y-93769079D01*
X183781434Y-93728465D01*
X183724974Y-93698287D01*
X183663711Y-93679703D01*
X183615961Y-93675000D01*
X183615960Y-93675000D01*
X183600000Y-93673428D01*
X183584039Y-93675000D01*
X172415961Y-93675000D01*
X172400000Y-93673428D01*
X172384040Y-93675000D01*
X172384039Y-93675000D01*
X172336289Y-93679703D01*
X172275026Y-93698287D01*
X172218566Y-93728465D01*
X172169079Y-93769079D01*
X172128465Y-93818566D01*
X172098287Y-93875026D01*
X172079703Y-93936289D01*
X172073428Y-94000000D01*
X172075001Y-94015971D01*
X172075001Y-94347526D01*
X172050576Y-94331206D01*
X171954304Y-94291329D01*
X171852102Y-94271000D01*
X171747898Y-94271000D01*
X171645696Y-94291329D01*
X171549424Y-94331206D01*
X171500000Y-94364230D01*
X171450576Y-94331206D01*
X171354304Y-94291329D01*
X171252102Y-94271000D01*
X171147898Y-94271000D01*
X171045696Y-94291329D01*
X170949424Y-94331206D01*
X170862782Y-94389099D01*
X170789099Y-94462782D01*
X170731206Y-94549424D01*
X170691329Y-94645696D01*
X170671000Y-94747898D01*
X164930655Y-94747898D01*
X164812641Y-94699015D01*
X164671800Y-94671000D01*
X164528200Y-94671000D01*
X164387359Y-94699015D01*
X164254689Y-94753969D01*
X164135290Y-94833749D01*
X164033749Y-94935290D01*
X163953969Y-95054689D01*
X163899015Y-95187359D01*
X163871000Y-95328200D01*
X161625082Y-95328200D01*
X161608671Y-95245696D01*
X161568794Y-95149424D01*
X161510901Y-95062782D01*
X161437218Y-94989099D01*
X161350576Y-94931206D01*
X161329000Y-94922269D01*
X161329000Y-94847898D01*
X161308671Y-94745696D01*
X161268794Y-94649424D01*
X161210901Y-94562782D01*
X161137218Y-94489099D01*
X161050576Y-94431206D01*
X160954304Y-94391329D01*
X160852102Y-94371000D01*
X160747898Y-94371000D01*
X160645696Y-94391329D01*
X160549424Y-94431206D01*
X160500000Y-94464230D01*
X160450576Y-94431206D01*
X160354304Y-94391329D01*
X160252102Y-94371000D01*
X160147898Y-94371000D01*
X160045696Y-94391329D01*
X159949424Y-94431206D01*
X159862782Y-94489099D01*
X159789099Y-94562782D01*
X159731206Y-94649424D01*
X159691329Y-94745696D01*
X159671000Y-94847898D01*
X159671000Y-94922269D01*
X159649424Y-94931206D01*
X159600000Y-94964230D01*
X159550576Y-94931206D01*
X159454304Y-94891329D01*
X159352102Y-94871000D01*
X159247898Y-94871000D01*
X159145696Y-94891329D01*
X159049424Y-94931206D01*
X158962782Y-94989099D01*
X158889099Y-95062782D01*
X158831206Y-95149424D01*
X158791329Y-95245696D01*
X158771000Y-95347898D01*
X155142348Y-95347898D01*
X155120205Y-95226610D01*
X155045892Y-95038875D01*
X155030569Y-95010206D01*
X154901208Y-94915569D01*
X154306777Y-95510000D01*
X153953223Y-95510000D01*
X153358792Y-94915569D01*
X153229431Y-95010206D01*
X153149230Y-95195502D01*
X153106720Y-95392883D01*
X153103534Y-95594765D01*
X153111954Y-95640887D01*
X153102144Y-95631077D01*
X153051315Y-95681906D01*
X153015301Y-95601001D01*
X152925302Y-95572965D01*
X152941221Y-95521863D01*
X152952645Y-95414127D01*
X152942831Y-95306231D01*
X152912156Y-95202324D01*
X152908999Y-95194699D01*
X152828093Y-95158684D01*
X152576777Y-95410000D01*
X152590919Y-95424142D01*
X152414142Y-95600919D01*
X152400000Y-95586777D01*
X152385858Y-95600919D01*
X152209081Y-95424142D01*
X152223223Y-95410000D01*
X152145170Y-95331947D01*
X152142831Y-95306231D01*
X152112156Y-95202324D01*
X152108999Y-95194699D01*
X152028093Y-95158684D01*
X152000000Y-95186777D01*
X151971907Y-95158684D01*
X151891001Y-95194699D01*
X151858779Y-95298137D01*
X151855237Y-95331540D01*
X151776777Y-95410000D01*
X151790919Y-95424142D01*
X151614142Y-95600919D01*
X151600000Y-95586777D01*
X151585858Y-95600919D01*
X151409081Y-95424142D01*
X151423223Y-95410000D01*
X151345170Y-95331947D01*
X151342831Y-95306231D01*
X151312156Y-95202324D01*
X151308999Y-95194699D01*
X151228093Y-95158684D01*
X151200000Y-95186777D01*
X151171907Y-95158684D01*
X151091001Y-95194699D01*
X151058779Y-95298137D01*
X151055237Y-95331540D01*
X150976777Y-95410000D01*
X150990919Y-95424142D01*
X150814142Y-95600919D01*
X150800000Y-95586777D01*
X150785858Y-95600919D01*
X150609081Y-95424142D01*
X150623223Y-95410000D01*
X150371907Y-95158684D01*
X150291001Y-95194699D01*
X150258779Y-95298137D01*
X150247355Y-95405873D01*
X150257169Y-95513769D01*
X150260763Y-95525942D01*
X150224986Y-95533058D01*
X150115793Y-95578287D01*
X150017522Y-95643950D01*
X150000000Y-95661472D01*
X149982478Y-95643950D01*
X149884207Y-95578287D01*
X149786343Y-95537751D01*
X149800000Y-95469095D01*
X149800000Y-95350905D01*
X149776942Y-95234986D01*
X149731713Y-95125793D01*
X149666050Y-95027522D01*
X149620435Y-94981907D01*
X150548684Y-94981907D01*
X150800000Y-95233223D01*
X151051316Y-94981907D01*
X151348684Y-94981907D01*
X151600000Y-95233223D01*
X151851316Y-94981907D01*
X152148684Y-94981907D01*
X152400000Y-95233223D01*
X152651316Y-94981907D01*
X152615301Y-94901001D01*
X152511863Y-94868779D01*
X152404127Y-94857355D01*
X152296231Y-94867169D01*
X152192324Y-94897844D01*
X152184699Y-94901001D01*
X152148684Y-94981907D01*
X151851316Y-94981907D01*
X151815301Y-94901001D01*
X151711863Y-94868779D01*
X151604127Y-94857355D01*
X151496231Y-94867169D01*
X151392324Y-94897844D01*
X151384699Y-94901001D01*
X151348684Y-94981907D01*
X151051316Y-94981907D01*
X151015301Y-94901001D01*
X150911863Y-94868779D01*
X150804127Y-94857355D01*
X150696231Y-94867169D01*
X150592324Y-94897844D01*
X150584699Y-94901001D01*
X150548684Y-94981907D01*
X149620435Y-94981907D01*
X149582478Y-94943950D01*
X149484207Y-94878287D01*
X149375014Y-94833058D01*
X149259095Y-94810000D01*
X149140905Y-94810000D01*
X149024986Y-94833058D01*
X148915793Y-94878287D01*
X148817522Y-94943950D01*
X148766270Y-94995203D01*
X148702144Y-94931077D01*
X148651315Y-94981906D01*
X148615301Y-94901001D01*
X148511863Y-94868779D01*
X148404127Y-94857355D01*
X148296231Y-94867169D01*
X148192324Y-94897844D01*
X148184699Y-94901001D01*
X148148684Y-94981907D01*
X148400000Y-95233223D01*
X148414142Y-95219081D01*
X148590919Y-95395858D01*
X148576777Y-95410000D01*
X148590919Y-95424142D01*
X148414142Y-95600919D01*
X148400000Y-95586777D01*
X148385858Y-95600919D01*
X148209081Y-95424142D01*
X148223223Y-95410000D01*
X148145170Y-95331947D01*
X148142831Y-95306231D01*
X148112156Y-95202324D01*
X148108999Y-95194699D01*
X148028093Y-95158684D01*
X148000000Y-95186777D01*
X147971907Y-95158684D01*
X147891001Y-95194699D01*
X147858779Y-95298137D01*
X147855237Y-95331540D01*
X147776777Y-95410000D01*
X147790919Y-95424142D01*
X147614142Y-95600919D01*
X147600000Y-95586777D01*
X147585858Y-95600919D01*
X147409081Y-95424142D01*
X147423223Y-95410000D01*
X147171907Y-95158684D01*
X147091001Y-95194699D01*
X147058779Y-95298137D01*
X147047355Y-95405873D01*
X147057169Y-95513769D01*
X147074801Y-95573495D01*
X146992324Y-95597844D01*
X146984699Y-95601001D01*
X146948685Y-95681906D01*
X146897856Y-95631077D01*
X146890937Y-95637996D01*
X146893280Y-95627117D01*
X146896466Y-95425235D01*
X146860205Y-95226610D01*
X146785892Y-95038875D01*
X146770569Y-95010206D01*
X146731887Y-94981907D01*
X147348684Y-94981907D01*
X147600000Y-95233223D01*
X147851316Y-94981907D01*
X147815301Y-94901001D01*
X147711863Y-94868779D01*
X147604127Y-94857355D01*
X147496231Y-94867169D01*
X147392324Y-94897844D01*
X147384699Y-94901001D01*
X147348684Y-94981907D01*
X146731887Y-94981907D01*
X146641208Y-94915569D01*
X146046777Y-95510000D01*
X146060919Y-95524142D01*
X145884142Y-95700919D01*
X145870000Y-95686777D01*
X145275569Y-96281208D01*
X132015735Y-96281208D01*
X132008671Y-96245696D01*
X131968794Y-96149424D01*
X131910901Y-96062782D01*
X131837218Y-95989099D01*
X131750576Y-95931206D01*
X131675238Y-95900000D01*
X131750576Y-95868794D01*
X131837218Y-95810901D01*
X131910901Y-95737218D01*
X131968794Y-95650576D01*
X132008671Y-95554304D01*
X132029000Y-95452102D01*
X132029000Y-95347898D01*
X132008671Y-95245696D01*
X131968794Y-95149424D01*
X131910901Y-95062782D01*
X131837218Y-94989099D01*
X131750576Y-94931206D01*
X131654304Y-94891329D01*
X131552102Y-94871000D01*
X131447898Y-94871000D01*
X131419789Y-94876591D01*
X131408671Y-94820696D01*
X131368794Y-94724424D01*
X131319065Y-94650000D01*
X131368794Y-94575576D01*
X131408671Y-94479304D01*
X131429000Y-94377102D01*
X131429000Y-94347898D01*
X137271000Y-94347898D01*
X137271000Y-94452102D01*
X137291329Y-94554304D01*
X137331206Y-94650576D01*
X137389099Y-94737218D01*
X137462782Y-94810901D01*
X137549424Y-94868794D01*
X137645696Y-94908671D01*
X137671000Y-94913704D01*
X137671000Y-94952102D01*
X137691329Y-95054304D01*
X137731206Y-95150576D01*
X137789099Y-95237218D01*
X137862782Y-95310901D01*
X137949424Y-95368794D01*
X138045696Y-95408671D01*
X138147898Y-95429000D01*
X138252102Y-95429000D01*
X138354304Y-95408671D01*
X138450576Y-95368794D01*
X138481848Y-95347898D01*
X139071000Y-95347898D01*
X139071000Y-95452102D01*
X139091329Y-95554304D01*
X139131206Y-95650576D01*
X139189099Y-95737218D01*
X139262782Y-95810901D01*
X139349424Y-95868794D01*
X139445696Y-95908671D01*
X139547898Y-95929000D01*
X139652102Y-95929000D01*
X139754304Y-95908671D01*
X139850576Y-95868794D01*
X139937218Y-95810901D01*
X140010901Y-95737218D01*
X140068794Y-95650576D01*
X140091911Y-95594765D01*
X144843534Y-95594765D01*
X144879795Y-95793390D01*
X144954108Y-95981125D01*
X144969431Y-96009794D01*
X145098792Y-96104431D01*
X145693223Y-95510000D01*
X145098792Y-94915569D01*
X144969431Y-95010206D01*
X144889230Y-95195502D01*
X144846720Y-95392883D01*
X144843534Y-95594765D01*
X140091911Y-95594765D01*
X140108671Y-95554304D01*
X140129000Y-95452102D01*
X140129000Y-95347898D01*
X140108671Y-95245696D01*
X140068794Y-95149424D01*
X140010901Y-95062782D01*
X139937218Y-94989099D01*
X139850576Y-94931206D01*
X139754304Y-94891329D01*
X139652102Y-94871000D01*
X139547898Y-94871000D01*
X139445696Y-94891329D01*
X139349424Y-94931206D01*
X139262782Y-94989099D01*
X139189099Y-95062782D01*
X139131206Y-95149424D01*
X139091329Y-95245696D01*
X139071000Y-95347898D01*
X138481848Y-95347898D01*
X138537218Y-95310901D01*
X138610901Y-95237218D01*
X138668794Y-95150576D01*
X138708671Y-95054304D01*
X138729000Y-94952102D01*
X138729000Y-94847898D01*
X138708671Y-94745696D01*
X138705812Y-94738792D01*
X145275569Y-94738792D01*
X145870000Y-95333223D01*
X146464431Y-94738792D01*
X153535569Y-94738792D01*
X154130000Y-95333223D01*
X154724431Y-94738792D01*
X154629794Y-94609431D01*
X154444498Y-94529230D01*
X154247117Y-94486720D01*
X154045235Y-94483534D01*
X153846610Y-94519795D01*
X153658875Y-94594108D01*
X153630206Y-94609431D01*
X153535569Y-94738792D01*
X146464431Y-94738792D01*
X146369794Y-94609431D01*
X146184498Y-94529230D01*
X145987117Y-94486720D01*
X145785235Y-94483534D01*
X145586610Y-94519795D01*
X145398875Y-94594108D01*
X145370206Y-94609431D01*
X145275569Y-94738792D01*
X138705812Y-94738792D01*
X138668794Y-94649424D01*
X138610901Y-94562782D01*
X138537218Y-94489099D01*
X138475558Y-94447898D01*
X157371000Y-94447898D01*
X157371000Y-94552102D01*
X157391329Y-94654304D01*
X157431206Y-94750576D01*
X157489099Y-94837218D01*
X157562782Y-94910901D01*
X157649424Y-94968794D01*
X157745696Y-95008671D01*
X157847898Y-95029000D01*
X157952102Y-95029000D01*
X158054304Y-95008671D01*
X158150576Y-94968794D01*
X158237218Y-94910901D01*
X158310901Y-94837218D01*
X158368794Y-94750576D01*
X158408671Y-94654304D01*
X158429000Y-94552102D01*
X158429000Y-94447898D01*
X158408671Y-94345696D01*
X158368794Y-94249424D01*
X158310901Y-94162782D01*
X158237218Y-94089099D01*
X158150576Y-94031206D01*
X158054304Y-93991329D01*
X157952102Y-93971000D01*
X157847898Y-93971000D01*
X157745696Y-93991329D01*
X157649424Y-94031206D01*
X157562782Y-94089099D01*
X157489099Y-94162782D01*
X157431206Y-94249424D01*
X157391329Y-94345696D01*
X157371000Y-94447898D01*
X138475558Y-94447898D01*
X138450576Y-94431206D01*
X138354304Y-94391329D01*
X138329000Y-94386296D01*
X138329000Y-94347898D01*
X138308671Y-94245696D01*
X138268794Y-94149424D01*
X138210901Y-94062782D01*
X138137218Y-93989099D01*
X138050576Y-93931206D01*
X137954304Y-93891329D01*
X137852102Y-93871000D01*
X137747898Y-93871000D01*
X137645696Y-93891329D01*
X137549424Y-93931206D01*
X137462782Y-93989099D01*
X137389099Y-94062782D01*
X137331206Y-94149424D01*
X137291329Y-94245696D01*
X137271000Y-94347898D01*
X131429000Y-94347898D01*
X131429000Y-94272898D01*
X131408671Y-94170696D01*
X131368794Y-94074424D01*
X131310901Y-93987782D01*
X131237218Y-93914099D01*
X131150576Y-93856206D01*
X131130519Y-93847898D01*
X138321000Y-93847898D01*
X138321000Y-93952102D01*
X138341329Y-94054304D01*
X138381206Y-94150576D01*
X138439099Y-94237218D01*
X138512782Y-94310901D01*
X138599424Y-94368794D01*
X138695696Y-94408671D01*
X138797898Y-94429000D01*
X138902102Y-94429000D01*
X139004304Y-94408671D01*
X139100576Y-94368794D01*
X139187218Y-94310901D01*
X139260901Y-94237218D01*
X139318794Y-94150576D01*
X139358671Y-94054304D01*
X139379000Y-93952102D01*
X139379000Y-93909294D01*
X145042483Y-93909294D01*
X145161347Y-94059166D01*
X145380842Y-94159411D01*
X145615677Y-94214909D01*
X145856826Y-94223527D01*
X146095024Y-94184933D01*
X146321116Y-94100610D01*
X146398653Y-94059166D01*
X146517517Y-93909294D01*
X153482483Y-93909294D01*
X153601347Y-94059166D01*
X153820842Y-94159411D01*
X154055677Y-94214909D01*
X154296826Y-94223527D01*
X154535024Y-94184933D01*
X154761116Y-94100610D01*
X154838653Y-94059166D01*
X154957517Y-93909294D01*
X154220000Y-93171777D01*
X153482483Y-93909294D01*
X146517517Y-93909294D01*
X145780000Y-93171777D01*
X145042483Y-93909294D01*
X139379000Y-93909294D01*
X139379000Y-93847898D01*
X139358671Y-93745696D01*
X139318794Y-93649424D01*
X139260901Y-93562782D01*
X139187218Y-93489099D01*
X139100576Y-93431206D01*
X139004304Y-93391329D01*
X138902102Y-93371000D01*
X138797898Y-93371000D01*
X138695696Y-93391329D01*
X138599424Y-93431206D01*
X138512782Y-93489099D01*
X138439099Y-93562782D01*
X138381206Y-93649424D01*
X138341329Y-93745696D01*
X138321000Y-93847898D01*
X131130519Y-93847898D01*
X131054304Y-93816329D01*
X130952102Y-93796000D01*
X130847898Y-93796000D01*
X130745696Y-93816329D01*
X130649424Y-93856206D01*
X130562782Y-93914099D01*
X130489099Y-93987782D01*
X130431206Y-94074424D01*
X130391329Y-94170696D01*
X130371000Y-94272898D01*
X130371000Y-94377102D01*
X130391329Y-94479304D01*
X130431206Y-94575576D01*
X130480935Y-94650000D01*
X130431206Y-94724424D01*
X130391329Y-94820696D01*
X130380211Y-94876591D01*
X130352102Y-94871000D01*
X130247898Y-94871000D01*
X130145696Y-94891329D01*
X130049424Y-94931206D01*
X129962782Y-94989099D01*
X129889099Y-95062782D01*
X129831206Y-95149424D01*
X129791329Y-95245696D01*
X129771000Y-95347898D01*
X100325000Y-95347898D01*
X100325000Y-94397898D01*
X123671000Y-94397898D01*
X123671000Y-94502102D01*
X123691329Y-94604304D01*
X123731206Y-94700576D01*
X123789099Y-94787218D01*
X123862782Y-94860901D01*
X123949424Y-94918794D01*
X124045696Y-94958671D01*
X124147898Y-94979000D01*
X124252102Y-94979000D01*
X124354304Y-94958671D01*
X124450576Y-94918794D01*
X124500000Y-94885770D01*
X124549424Y-94918794D01*
X124645696Y-94958671D01*
X124747898Y-94979000D01*
X124852102Y-94979000D01*
X124954304Y-94958671D01*
X125050576Y-94918794D01*
X125100000Y-94885770D01*
X125149424Y-94918794D01*
X125245696Y-94958671D01*
X125347898Y-94979000D01*
X125452102Y-94979000D01*
X125554304Y-94958671D01*
X125650576Y-94918794D01*
X125737218Y-94860901D01*
X125810901Y-94787218D01*
X125868794Y-94700576D01*
X125908671Y-94604304D01*
X125929000Y-94502102D01*
X125929000Y-94397898D01*
X125908671Y-94295696D01*
X125868794Y-94199424D01*
X125810901Y-94112782D01*
X125737218Y-94039099D01*
X125650576Y-93981206D01*
X125554304Y-93941329D01*
X125452102Y-93921000D01*
X125347898Y-93921000D01*
X125245696Y-93941329D01*
X125149424Y-93981206D01*
X125100000Y-94014230D01*
X125050576Y-93981206D01*
X124954304Y-93941329D01*
X124852102Y-93921000D01*
X124747898Y-93921000D01*
X124645696Y-93941329D01*
X124549424Y-93981206D01*
X124500000Y-94014230D01*
X124450576Y-93981206D01*
X124354304Y-93941329D01*
X124252102Y-93921000D01*
X124147898Y-93921000D01*
X124045696Y-93941329D01*
X123949424Y-93981206D01*
X123862782Y-94039099D01*
X123789099Y-94112782D01*
X123731206Y-94199424D01*
X123691329Y-94295696D01*
X123671000Y-94397898D01*
X100325000Y-94397898D01*
X100325000Y-94015896D01*
X100370887Y-93547898D01*
X128971000Y-93547898D01*
X128971000Y-93652102D01*
X128991329Y-93754304D01*
X129031206Y-93850576D01*
X129089099Y-93937218D01*
X129162782Y-94010901D01*
X129249424Y-94068794D01*
X129345696Y-94108671D01*
X129447898Y-94129000D01*
X129552102Y-94129000D01*
X129654304Y-94108671D01*
X129750576Y-94068794D01*
X129837218Y-94010901D01*
X129910901Y-93937218D01*
X129968794Y-93850576D01*
X130008671Y-93754304D01*
X130029000Y-93652102D01*
X130029000Y-93629000D01*
X130052102Y-93629000D01*
X130154304Y-93608671D01*
X130250576Y-93568794D01*
X130337218Y-93510901D01*
X130410901Y-93437218D01*
X130468794Y-93350576D01*
X130508671Y-93254304D01*
X130529000Y-93152102D01*
X130529000Y-93047898D01*
X130508671Y-92945696D01*
X130497612Y-92918998D01*
X130547898Y-92929000D01*
X130652102Y-92929000D01*
X130754304Y-92908671D01*
X130850576Y-92868794D01*
X130937218Y-92810901D01*
X130988574Y-92759545D01*
X130971000Y-92847898D01*
X130971000Y-92952102D01*
X130991329Y-93054304D01*
X131031206Y-93150576D01*
X131089099Y-93237218D01*
X131162782Y-93310901D01*
X131249424Y-93368794D01*
X131345696Y-93408671D01*
X131447898Y-93429000D01*
X131552102Y-93429000D01*
X131654304Y-93408671D01*
X131750576Y-93368794D01*
X131837218Y-93310901D01*
X131910901Y-93237218D01*
X131968794Y-93150576D01*
X132008671Y-93054304D01*
X132029000Y-92952102D01*
X132029000Y-92847898D01*
X137271000Y-92847898D01*
X137271000Y-92952102D01*
X137291329Y-93054304D01*
X137331206Y-93150576D01*
X137389099Y-93237218D01*
X137462782Y-93310901D01*
X137549424Y-93368794D01*
X137645696Y-93408671D01*
X137747898Y-93429000D01*
X137852102Y-93429000D01*
X137954304Y-93408671D01*
X138050576Y-93368794D01*
X138137218Y-93310901D01*
X138210901Y-93237218D01*
X138268794Y-93150576D01*
X138308671Y-93054304D01*
X138329000Y-92952102D01*
X138329000Y-92847898D01*
X142271000Y-92847898D01*
X142271000Y-92952102D01*
X142291329Y-93054304D01*
X142331206Y-93150576D01*
X142389099Y-93237218D01*
X142462782Y-93310901D01*
X142549424Y-93368794D01*
X142645696Y-93408671D01*
X142747898Y-93429000D01*
X142852102Y-93429000D01*
X142954304Y-93408671D01*
X143050576Y-93368794D01*
X143137218Y-93310901D01*
X143210901Y-93237218D01*
X143268794Y-93150576D01*
X143301413Y-93071826D01*
X144551473Y-93071826D01*
X144590067Y-93310024D01*
X144674390Y-93536116D01*
X144715834Y-93613653D01*
X144865706Y-93732517D01*
X145603223Y-92995000D01*
X145956777Y-92995000D01*
X146694294Y-93732517D01*
X146844166Y-93613653D01*
X146944411Y-93394158D01*
X146999909Y-93159323D01*
X147003035Y-93071826D01*
X152991473Y-93071826D01*
X153030067Y-93310024D01*
X153114390Y-93536116D01*
X153155834Y-93613653D01*
X153305706Y-93732517D01*
X154043223Y-92995000D01*
X154396777Y-92995000D01*
X155134294Y-93732517D01*
X155284166Y-93613653D01*
X155384411Y-93394158D01*
X155439909Y-93159323D01*
X155448527Y-92918174D01*
X155409933Y-92679976D01*
X155325610Y-92453884D01*
X155311882Y-92428200D01*
X182471000Y-92428200D01*
X182471000Y-92571800D01*
X182499015Y-92712641D01*
X182553969Y-92845311D01*
X182633749Y-92964710D01*
X182735290Y-93066251D01*
X182854689Y-93146031D01*
X182987359Y-93200985D01*
X183128200Y-93229000D01*
X183271800Y-93229000D01*
X183412641Y-93200985D01*
X183545311Y-93146031D01*
X183664710Y-93066251D01*
X183766251Y-92964710D01*
X183846031Y-92845311D01*
X183900985Y-92712641D01*
X183929000Y-92571800D01*
X183929000Y-92428200D01*
X183900985Y-92287359D01*
X183846031Y-92154689D01*
X183766251Y-92035290D01*
X183664710Y-91933749D01*
X183545311Y-91853969D01*
X183412641Y-91799015D01*
X183271800Y-91771000D01*
X183128200Y-91771000D01*
X182987359Y-91799015D01*
X182854689Y-91853969D01*
X182735290Y-91933749D01*
X182633749Y-92035290D01*
X182553969Y-92154689D01*
X182499015Y-92287359D01*
X182471000Y-92428200D01*
X155311882Y-92428200D01*
X155284166Y-92376347D01*
X155134294Y-92257483D01*
X154396777Y-92995000D01*
X154043223Y-92995000D01*
X153305706Y-92257483D01*
X153155834Y-92376347D01*
X153055589Y-92595842D01*
X153000091Y-92830677D01*
X152991473Y-93071826D01*
X147003035Y-93071826D01*
X147008527Y-92918174D01*
X146969933Y-92679976D01*
X146885610Y-92453884D01*
X146844166Y-92376347D01*
X146694294Y-92257483D01*
X145956777Y-92995000D01*
X145603223Y-92995000D01*
X144865706Y-92257483D01*
X144715834Y-92376347D01*
X144615589Y-92595842D01*
X144560091Y-92830677D01*
X144551473Y-93071826D01*
X143301413Y-93071826D01*
X143308671Y-93054304D01*
X143329000Y-92952102D01*
X143329000Y-92847898D01*
X143308671Y-92745696D01*
X143268794Y-92649424D01*
X143210901Y-92562782D01*
X143137218Y-92489099D01*
X143050576Y-92431206D01*
X142954304Y-92391329D01*
X142852102Y-92371000D01*
X142747898Y-92371000D01*
X142645696Y-92391329D01*
X142549424Y-92431206D01*
X142462782Y-92489099D01*
X142389099Y-92562782D01*
X142331206Y-92649424D01*
X142291329Y-92745696D01*
X142271000Y-92847898D01*
X138329000Y-92847898D01*
X138308671Y-92745696D01*
X138268794Y-92649424D01*
X138210901Y-92562782D01*
X138137218Y-92489099D01*
X138050576Y-92431206D01*
X137954304Y-92391329D01*
X137852102Y-92371000D01*
X137747898Y-92371000D01*
X137645696Y-92391329D01*
X137549424Y-92431206D01*
X137462782Y-92489099D01*
X137389099Y-92562782D01*
X137331206Y-92649424D01*
X137291329Y-92745696D01*
X137271000Y-92847898D01*
X132029000Y-92847898D01*
X132008671Y-92745696D01*
X131968794Y-92649424D01*
X131910901Y-92562782D01*
X131837218Y-92489099D01*
X131750576Y-92431206D01*
X131654304Y-92391329D01*
X131552102Y-92371000D01*
X131447898Y-92371000D01*
X131345696Y-92391329D01*
X131249424Y-92431206D01*
X131162782Y-92489099D01*
X131111426Y-92540455D01*
X131129000Y-92452102D01*
X131129000Y-92347898D01*
X131108671Y-92245696D01*
X131068794Y-92149424D01*
X131022878Y-92080706D01*
X145042483Y-92080706D01*
X145780000Y-92818223D01*
X146517517Y-92080706D01*
X153482483Y-92080706D01*
X154220000Y-92818223D01*
X154957517Y-92080706D01*
X154838653Y-91930834D01*
X154619158Y-91830589D01*
X154384323Y-91775091D01*
X154143174Y-91766473D01*
X153904976Y-91805067D01*
X153678884Y-91889390D01*
X153601347Y-91930834D01*
X153482483Y-92080706D01*
X146517517Y-92080706D01*
X146398653Y-91930834D01*
X146179158Y-91830589D01*
X145944323Y-91775091D01*
X145703174Y-91766473D01*
X145464976Y-91805067D01*
X145238884Y-91889390D01*
X145161347Y-91930834D01*
X145042483Y-92080706D01*
X131022878Y-92080706D01*
X131010901Y-92062782D01*
X130937218Y-91989099D01*
X130850576Y-91931206D01*
X130754304Y-91891329D01*
X130652102Y-91871000D01*
X130547898Y-91871000D01*
X130445696Y-91891329D01*
X130349424Y-91931206D01*
X130262782Y-91989099D01*
X130189099Y-92062782D01*
X130131206Y-92149424D01*
X130091329Y-92245696D01*
X130071000Y-92347898D01*
X130071000Y-92452102D01*
X130091329Y-92554304D01*
X130102388Y-92581002D01*
X130052102Y-92571000D01*
X129947898Y-92571000D01*
X129845696Y-92591329D01*
X129749424Y-92631206D01*
X129662782Y-92689099D01*
X129589099Y-92762782D01*
X129531206Y-92849424D01*
X129491329Y-92945696D01*
X129471000Y-93047898D01*
X129471000Y-93071000D01*
X129447898Y-93071000D01*
X129345696Y-93091329D01*
X129249424Y-93131206D01*
X129162782Y-93189099D01*
X129089099Y-93262782D01*
X129031206Y-93349424D01*
X128991329Y-93445696D01*
X128971000Y-93547898D01*
X100370887Y-93547898D01*
X100396518Y-93286492D01*
X100603735Y-92600158D01*
X100791035Y-92247898D01*
X128121000Y-92247898D01*
X128121000Y-92352102D01*
X128141329Y-92454304D01*
X128181206Y-92550576D01*
X128239099Y-92637218D01*
X128312782Y-92710901D01*
X128399424Y-92768794D01*
X128495696Y-92808671D01*
X128597898Y-92829000D01*
X128702102Y-92829000D01*
X128804304Y-92808671D01*
X128900576Y-92768794D01*
X128987218Y-92710901D01*
X129060901Y-92637218D01*
X129118794Y-92550576D01*
X129158671Y-92454304D01*
X129179000Y-92352102D01*
X129179000Y-92247898D01*
X129158671Y-92145696D01*
X129118794Y-92049424D01*
X129060901Y-91962782D01*
X128987218Y-91889099D01*
X128900576Y-91831206D01*
X128804304Y-91791329D01*
X128702102Y-91771000D01*
X128597898Y-91771000D01*
X128495696Y-91791329D01*
X128399424Y-91831206D01*
X128312782Y-91889099D01*
X128239099Y-91962782D01*
X128181206Y-92049424D01*
X128141329Y-92145696D01*
X128121000Y-92247898D01*
X100791035Y-92247898D01*
X100940313Y-91967148D01*
X101200687Y-91647898D01*
X157371000Y-91647898D01*
X157371000Y-91752102D01*
X157391329Y-91854304D01*
X157431206Y-91950576D01*
X157489099Y-92037218D01*
X157562782Y-92110901D01*
X157649424Y-92168794D01*
X157745696Y-92208671D01*
X157847898Y-92229000D01*
X157952102Y-92229000D01*
X158054304Y-92208671D01*
X158150576Y-92168794D01*
X158237218Y-92110901D01*
X158310901Y-92037218D01*
X158368794Y-91950576D01*
X158408671Y-91854304D01*
X158429000Y-91752102D01*
X158429000Y-91647898D01*
X158408671Y-91545696D01*
X158368794Y-91449424D01*
X158310901Y-91362782D01*
X158237218Y-91289099D01*
X158150576Y-91231206D01*
X158054304Y-91191329D01*
X157952102Y-91171000D01*
X157847898Y-91171000D01*
X157745696Y-91191329D01*
X157649424Y-91231206D01*
X157562782Y-91289099D01*
X157489099Y-91362782D01*
X157431206Y-91449424D01*
X157391329Y-91545696D01*
X157371000Y-91647898D01*
X101200687Y-91647898D01*
X101393434Y-91411567D01*
X101945838Y-90954579D01*
X101958194Y-90947898D01*
X132871000Y-90947898D01*
X132871000Y-91052102D01*
X132891329Y-91154304D01*
X132931206Y-91250576D01*
X132989099Y-91337218D01*
X133062782Y-91410901D01*
X133149424Y-91468794D01*
X133245696Y-91508671D01*
X133347898Y-91529000D01*
X133452102Y-91529000D01*
X133554304Y-91508671D01*
X133650576Y-91468794D01*
X133737218Y-91410901D01*
X133810901Y-91337218D01*
X133868794Y-91250576D01*
X133900000Y-91175238D01*
X133931206Y-91250576D01*
X133989099Y-91337218D01*
X134062782Y-91410901D01*
X134149424Y-91468794D01*
X134245696Y-91508671D01*
X134347898Y-91529000D01*
X134452102Y-91529000D01*
X134554304Y-91508671D01*
X134650576Y-91468794D01*
X134737218Y-91410901D01*
X134810901Y-91337218D01*
X134868794Y-91250576D01*
X134900000Y-91175238D01*
X134931206Y-91250576D01*
X134989099Y-91337218D01*
X135062782Y-91410901D01*
X135149424Y-91468794D01*
X135245696Y-91508671D01*
X135347898Y-91529000D01*
X135452102Y-91529000D01*
X135554304Y-91508671D01*
X135650576Y-91468794D01*
X135737218Y-91410901D01*
X135810901Y-91337218D01*
X135868794Y-91250576D01*
X135908671Y-91154304D01*
X135929000Y-91052102D01*
X135929000Y-90947898D01*
X179971000Y-90947898D01*
X179971000Y-91052102D01*
X179991329Y-91154304D01*
X180031206Y-91250576D01*
X180089099Y-91337218D01*
X180162782Y-91410901D01*
X180249424Y-91468794D01*
X180345696Y-91508671D01*
X180447898Y-91529000D01*
X180552102Y-91529000D01*
X180654304Y-91508671D01*
X180750576Y-91468794D01*
X180837218Y-91410901D01*
X180910901Y-91337218D01*
X180968794Y-91250576D01*
X181008671Y-91154304D01*
X181029000Y-91052102D01*
X181029000Y-90947898D01*
X181008671Y-90845696D01*
X180968794Y-90749424D01*
X180910901Y-90662782D01*
X180837218Y-90589099D01*
X180750576Y-90531206D01*
X180654304Y-90491329D01*
X180552102Y-90471000D01*
X180447898Y-90471000D01*
X180345696Y-90491329D01*
X180249424Y-90531206D01*
X180162782Y-90589099D01*
X180089099Y-90662782D01*
X180031206Y-90749424D01*
X179991329Y-90845696D01*
X179971000Y-90947898D01*
X135929000Y-90947898D01*
X135908671Y-90845696D01*
X135868794Y-90749424D01*
X135810901Y-90662782D01*
X135737218Y-90589099D01*
X135650576Y-90531206D01*
X135554304Y-90491329D01*
X135452102Y-90471000D01*
X135347898Y-90471000D01*
X135245696Y-90491329D01*
X135149424Y-90531206D01*
X135062782Y-90589099D01*
X134989099Y-90662782D01*
X134931206Y-90749424D01*
X134900000Y-90824762D01*
X134868794Y-90749424D01*
X134810901Y-90662782D01*
X134737218Y-90589099D01*
X134650576Y-90531206D01*
X134554304Y-90491329D01*
X134452102Y-90471000D01*
X134347898Y-90471000D01*
X134245696Y-90491329D01*
X134149424Y-90531206D01*
X134062782Y-90589099D01*
X133989099Y-90662782D01*
X133931206Y-90749424D01*
X133900000Y-90824762D01*
X133868794Y-90749424D01*
X133810901Y-90662782D01*
X133737218Y-90589099D01*
X133650576Y-90531206D01*
X133554304Y-90491329D01*
X133452102Y-90471000D01*
X133347898Y-90471000D01*
X133245696Y-90491329D01*
X133149424Y-90531206D01*
X133062782Y-90589099D01*
X132989099Y-90662782D01*
X132931206Y-90749424D01*
X132891329Y-90845696D01*
X132871000Y-90947898D01*
X101958194Y-90947898D01*
X102576488Y-90613588D01*
X103261352Y-90401588D01*
X103989675Y-90325038D01*
X104000553Y-90325000D01*
X195984104Y-90325000D01*
X196713508Y-90396518D01*
X196713508Y-90396518D01*
G37*
X196713508Y-90396518D02*
X197399842Y-90603735D01*
X198032852Y-90940313D01*
X198588433Y-91393434D01*
X199045421Y-91945838D01*
X199386412Y-92576488D01*
X199598412Y-93261352D01*
X199674962Y-93989675D01*
X199675001Y-94000841D01*
X199675000Y-105984103D01*
X199603482Y-106713508D01*
X199396266Y-107399839D01*
X199059687Y-108032852D01*
X198606567Y-108588433D01*
X198054163Y-109045421D01*
X197423512Y-109386412D01*
X196738653Y-109598411D01*
X196010325Y-109674962D01*
X195999447Y-109675000D01*
X104015897Y-109675000D01*
X103286492Y-109603482D01*
X102600161Y-109396266D01*
X101967148Y-109059687D01*
X101411567Y-108606567D01*
X100954579Y-108054163D01*
X100613588Y-107423512D01*
X100401589Y-106738653D01*
X100381540Y-106547898D01*
X135146000Y-106547898D01*
X135146000Y-106652102D01*
X135166329Y-106754304D01*
X135206206Y-106850576D01*
X135264099Y-106937218D01*
X135337782Y-107010901D01*
X135424424Y-107068794D01*
X135520696Y-107108671D01*
X135622898Y-107129000D01*
X135727102Y-107129000D01*
X135829304Y-107108671D01*
X135925576Y-107068794D01*
X136012218Y-107010901D01*
X136085901Y-106937218D01*
X136143794Y-106850576D01*
X136183671Y-106754304D01*
X136204000Y-106652102D01*
X136204000Y-106547898D01*
X136183671Y-106445696D01*
X136143794Y-106349424D01*
X136085901Y-106262782D01*
X136071017Y-106247898D01*
X136421000Y-106247898D01*
X136421000Y-106352102D01*
X136441329Y-106454304D01*
X136481206Y-106550576D01*
X136539099Y-106637218D01*
X136612782Y-106710901D01*
X136699424Y-106768794D01*
X136795696Y-106808671D01*
X136897898Y-106829000D01*
X137002102Y-106829000D01*
X137104304Y-106808671D01*
X137200576Y-106768794D01*
X137287218Y-106710901D01*
X137360901Y-106637218D01*
X137418794Y-106550576D01*
X137458671Y-106454304D01*
X137469890Y-106397898D01*
X139271000Y-106397898D01*
X139271000Y-106502102D01*
X139291329Y-106604304D01*
X139331206Y-106700576D01*
X139389099Y-106787218D01*
X139462782Y-106860901D01*
X139549424Y-106918794D01*
X139645696Y-106958671D01*
X139747898Y-106979000D01*
X139852102Y-106979000D01*
X139954304Y-106958671D01*
X140050576Y-106918794D01*
X140137218Y-106860901D01*
X140210901Y-106787218D01*
X140268794Y-106700576D01*
X140308671Y-106604304D01*
X140329000Y-106502102D01*
X140329000Y-106397898D01*
X140308671Y-106295696D01*
X140268794Y-106199424D01*
X140210901Y-106112782D01*
X140137218Y-106039099D01*
X140050576Y-105981206D01*
X139954304Y-105941329D01*
X139852102Y-105921000D01*
X139747898Y-105921000D01*
X139645696Y-105941329D01*
X139549424Y-105981206D01*
X139462782Y-106039099D01*
X139389099Y-106112782D01*
X139331206Y-106199424D01*
X139291329Y-106295696D01*
X139271000Y-106397898D01*
X137469890Y-106397898D01*
X137479000Y-106352102D01*
X137479000Y-106247898D01*
X137458671Y-106145696D01*
X137418794Y-106049424D01*
X137360901Y-105962782D01*
X137287218Y-105889099D01*
X137200576Y-105831206D01*
X137104304Y-105791329D01*
X137002102Y-105771000D01*
X136897898Y-105771000D01*
X136795696Y-105791329D01*
X136699424Y-105831206D01*
X136612782Y-105889099D01*
X136539099Y-105962782D01*
X136481206Y-106049424D01*
X136441329Y-106145696D01*
X136421000Y-106247898D01*
X136071017Y-106247898D01*
X136012218Y-106189099D01*
X135925576Y-106131206D01*
X135829304Y-106091329D01*
X135727102Y-106071000D01*
X135622898Y-106071000D01*
X135520696Y-106091329D01*
X135424424Y-106131206D01*
X135337782Y-106189099D01*
X135264099Y-106262782D01*
X135206206Y-106349424D01*
X135166329Y-106445696D01*
X135146000Y-106547898D01*
X100381540Y-106547898D01*
X100325038Y-106010325D01*
X100325000Y-105999447D01*
X100325000Y-103124132D01*
X129189700Y-103124132D01*
X129189700Y-103275868D01*
X129219302Y-103424688D01*
X129277369Y-103564874D01*
X129361669Y-103691038D01*
X129468962Y-103798331D01*
X129595126Y-103882631D01*
X129735312Y-103940698D01*
X129884132Y-103970300D01*
X130035868Y-103970300D01*
X130184688Y-103940698D01*
X130324874Y-103882631D01*
X130451038Y-103798331D01*
X130466471Y-103782898D01*
X130701000Y-103782898D01*
X130701000Y-103887102D01*
X130721329Y-103989304D01*
X130761206Y-104085576D01*
X130819099Y-104172218D01*
X130892782Y-104245901D01*
X130979424Y-104303794D01*
X131075696Y-104343671D01*
X131177898Y-104364000D01*
X131282102Y-104364000D01*
X131384304Y-104343671D01*
X131480576Y-104303794D01*
X131567218Y-104245901D01*
X131640901Y-104172218D01*
X131698794Y-104085576D01*
X131738671Y-103989304D01*
X131759000Y-103887102D01*
X131759000Y-103782898D01*
X133241000Y-103782898D01*
X133241000Y-103887102D01*
X133261329Y-103989304D01*
X133301206Y-104085576D01*
X133359099Y-104172218D01*
X133432782Y-104245901D01*
X133519424Y-104303794D01*
X133615696Y-104343671D01*
X133717898Y-104364000D01*
X133822102Y-104364000D01*
X133924304Y-104343671D01*
X134020576Y-104303794D01*
X134107218Y-104245901D01*
X134180901Y-104172218D01*
X134202340Y-104140132D01*
X134269700Y-104140132D01*
X134269700Y-104291868D01*
X134299302Y-104440688D01*
X134357369Y-104580874D01*
X134441669Y-104707038D01*
X134548962Y-104814331D01*
X134675126Y-104898631D01*
X134815312Y-104956698D01*
X134964132Y-104986300D01*
X135115868Y-104986300D01*
X135264688Y-104956698D01*
X135404874Y-104898631D01*
X135531038Y-104814331D01*
X135638331Y-104707038D01*
X135722631Y-104580874D01*
X135780698Y-104440688D01*
X135810300Y-104291868D01*
X135810300Y-104140132D01*
X135780698Y-103991312D01*
X135722631Y-103851126D01*
X135638331Y-103724962D01*
X135531038Y-103617669D01*
X135404874Y-103533369D01*
X135264688Y-103475302D01*
X135115868Y-103445700D01*
X134964132Y-103445700D01*
X134815312Y-103475302D01*
X134675126Y-103533369D01*
X134548962Y-103617669D01*
X134441669Y-103724962D01*
X134357369Y-103851126D01*
X134299302Y-103991312D01*
X134269700Y-104140132D01*
X134202340Y-104140132D01*
X134238794Y-104085576D01*
X134278671Y-103989304D01*
X134299000Y-103887102D01*
X134299000Y-103782898D01*
X134278671Y-103680696D01*
X134238794Y-103584424D01*
X134180901Y-103497782D01*
X134107218Y-103424099D01*
X134020576Y-103366206D01*
X133924304Y-103326329D01*
X133822102Y-103306000D01*
X133717898Y-103306000D01*
X133615696Y-103326329D01*
X133519424Y-103366206D01*
X133432782Y-103424099D01*
X133359099Y-103497782D01*
X133301206Y-103584424D01*
X133261329Y-103680696D01*
X133241000Y-103782898D01*
X131759000Y-103782898D01*
X131738671Y-103680696D01*
X131698794Y-103584424D01*
X131640901Y-103497782D01*
X131567218Y-103424099D01*
X131480576Y-103366206D01*
X131384304Y-103326329D01*
X131282102Y-103306000D01*
X131177898Y-103306000D01*
X131075696Y-103326329D01*
X130979424Y-103366206D01*
X130892782Y-103424099D01*
X130819099Y-103497782D01*
X130761206Y-103584424D01*
X130721329Y-103680696D01*
X130701000Y-103782898D01*
X130466471Y-103782898D01*
X130558331Y-103691038D01*
X130642631Y-103564874D01*
X130700698Y-103424688D01*
X130730300Y-103275868D01*
X130730300Y-103124132D01*
X130700698Y-102975312D01*
X130642631Y-102835126D01*
X130558331Y-102708962D01*
X130451038Y-102601669D01*
X130324874Y-102517369D01*
X130184688Y-102459302D01*
X130035868Y-102429700D01*
X129884132Y-102429700D01*
X129735312Y-102459302D01*
X129595126Y-102517369D01*
X129468962Y-102601669D01*
X129361669Y-102708962D01*
X129277369Y-102835126D01*
X129219302Y-102975312D01*
X129189700Y-103124132D01*
X100325000Y-103124132D01*
X100325000Y-102000000D01*
X100545404Y-102000000D01*
X100563746Y-102186232D01*
X100618068Y-102365308D01*
X100706282Y-102530345D01*
X100824999Y-102675001D01*
X100969655Y-102793718D01*
X101134692Y-102881932D01*
X101313768Y-102936254D01*
X101453335Y-102950000D01*
X101546665Y-102950000D01*
X101686232Y-102936254D01*
X101865308Y-102881932D01*
X102030345Y-102793718D01*
X102175001Y-102675001D01*
X102293718Y-102530345D01*
X102381932Y-102365308D01*
X102436254Y-102186232D01*
X102454596Y-102000000D01*
X102545404Y-102000000D01*
X102563746Y-102186232D01*
X102618068Y-102365308D01*
X102706282Y-102530345D01*
X102824999Y-102675001D01*
X102969655Y-102793718D01*
X103134692Y-102881932D01*
X103313768Y-102936254D01*
X103453335Y-102950000D01*
X103546665Y-102950000D01*
X103686232Y-102936254D01*
X103865308Y-102881932D01*
X104030345Y-102793718D01*
X104175001Y-102675001D01*
X104293718Y-102530345D01*
X104381932Y-102365308D01*
X104436254Y-102186232D01*
X104443946Y-102108132D01*
X134269700Y-102108132D01*
X134269700Y-102259868D01*
X134299302Y-102408688D01*
X134357369Y-102548874D01*
X134441669Y-102675038D01*
X134548962Y-102782331D01*
X134675126Y-102866631D01*
X134815312Y-102924698D01*
X134964132Y-102954300D01*
X135115868Y-102954300D01*
X135264688Y-102924698D01*
X135404874Y-102866631D01*
X135531038Y-102782331D01*
X135638331Y-102675038D01*
X135722631Y-102548874D01*
X135780698Y-102408688D01*
X135782844Y-102397898D01*
X137471000Y-102397898D01*
X137471000Y-102502102D01*
X137491329Y-102604304D01*
X137531206Y-102700576D01*
X137589099Y-102787218D01*
X137662782Y-102860901D01*
X137749424Y-102918794D01*
X137845696Y-102958671D01*
X137947898Y-102979000D01*
X138052102Y-102979000D01*
X138154304Y-102958671D01*
X138250576Y-102918794D01*
X138337218Y-102860901D01*
X138410901Y-102787218D01*
X138468794Y-102700576D01*
X138508671Y-102604304D01*
X138529000Y-102502102D01*
X138529000Y-102397898D01*
X138508671Y-102295696D01*
X138468794Y-102199424D01*
X138410901Y-102112782D01*
X138337218Y-102039099D01*
X138250576Y-101981206D01*
X138154304Y-101941329D01*
X138052102Y-101921000D01*
X137947898Y-101921000D01*
X137845696Y-101941329D01*
X137749424Y-101981206D01*
X137662782Y-102039099D01*
X137589099Y-102112782D01*
X137531206Y-102199424D01*
X137491329Y-102295696D01*
X137471000Y-102397898D01*
X135782844Y-102397898D01*
X135810300Y-102259868D01*
X135810300Y-102108132D01*
X135780698Y-101959312D01*
X135722631Y-101819126D01*
X135638331Y-101692962D01*
X135531038Y-101585669D01*
X135404874Y-101501369D01*
X135264688Y-101443302D01*
X135115868Y-101413700D01*
X134964132Y-101413700D01*
X134815312Y-101443302D01*
X134675126Y-101501369D01*
X134548962Y-101585669D01*
X134441669Y-101692962D01*
X134357369Y-101819126D01*
X134299302Y-101959312D01*
X134269700Y-102108132D01*
X104443946Y-102108132D01*
X104454596Y-102000000D01*
X104436254Y-101813768D01*
X104381932Y-101634692D01*
X104293718Y-101469655D01*
X104175001Y-101324999D01*
X104030345Y-101206282D01*
X103865308Y-101118068D01*
X103686232Y-101063746D01*
X103546665Y-101050000D01*
X103453335Y-101050000D01*
X103313768Y-101063746D01*
X103134692Y-101118068D01*
X102969655Y-101206282D01*
X102824999Y-101324999D01*
X102706282Y-101469655D01*
X102618068Y-101634692D01*
X102563746Y-101813768D01*
X102545404Y-102000000D01*
X102454596Y-102000000D01*
X102436254Y-101813768D01*
X102381932Y-101634692D01*
X102293718Y-101469655D01*
X102175001Y-101324999D01*
X102030345Y-101206282D01*
X101865308Y-101118068D01*
X101686232Y-101063746D01*
X101546665Y-101050000D01*
X101453335Y-101050000D01*
X101313768Y-101063746D01*
X101134692Y-101118068D01*
X100969655Y-101206282D01*
X100824999Y-101324999D01*
X100706282Y-101469655D01*
X100618068Y-101634692D01*
X100563746Y-101813768D01*
X100545404Y-102000000D01*
X100325000Y-102000000D01*
X100325000Y-100262887D01*
X100639250Y-100262887D01*
X100705462Y-100422758D01*
X100803205Y-100569641D01*
X100927725Y-100694633D01*
X101074237Y-100792931D01*
X101237111Y-100860757D01*
X101375000Y-100835035D01*
X101375000Y-100125000D01*
X101625000Y-100125000D01*
X101625000Y-100835035D01*
X101762889Y-100860757D01*
X101925763Y-100792931D01*
X102072275Y-100694633D01*
X102196795Y-100569641D01*
X102294538Y-100422758D01*
X102360750Y-100262887D01*
X102334439Y-100125000D01*
X101625000Y-100125000D01*
X101375000Y-100125000D01*
X100665561Y-100125000D01*
X100639250Y-100262887D01*
X100325000Y-100262887D01*
X100325000Y-100000000D01*
X102545404Y-100000000D01*
X102563746Y-100186232D01*
X102618068Y-100365308D01*
X102706282Y-100530345D01*
X102824999Y-100675001D01*
X102969655Y-100793718D01*
X103134692Y-100881932D01*
X103313768Y-100936254D01*
X103453335Y-100950000D01*
X103546665Y-100950000D01*
X103686232Y-100936254D01*
X103865308Y-100881932D01*
X104030345Y-100793718D01*
X104175001Y-100675001D01*
X104293718Y-100530345D01*
X104381932Y-100365308D01*
X104436254Y-100186232D01*
X104454596Y-100000000D01*
X104439803Y-99849801D01*
X105275000Y-99849801D01*
X105275000Y-100150199D01*
X105333605Y-100444826D01*
X105448562Y-100722358D01*
X105615455Y-100972131D01*
X105827869Y-101184545D01*
X106077642Y-101351438D01*
X106355174Y-101466395D01*
X106649801Y-101525000D01*
X106950199Y-101525000D01*
X107244826Y-101466395D01*
X107522358Y-101351438D01*
X107772131Y-101184545D01*
X107984545Y-100972131D01*
X108151438Y-100722358D01*
X108266395Y-100444826D01*
X108325000Y-100150199D01*
X108325000Y-99849801D01*
X124075000Y-99849801D01*
X124075000Y-100150199D01*
X124133605Y-100444826D01*
X124248562Y-100722358D01*
X124415455Y-100972131D01*
X124627869Y-101184545D01*
X124877642Y-101351438D01*
X125155174Y-101466395D01*
X125449801Y-101525000D01*
X125750199Y-101525000D01*
X126044826Y-101466395D01*
X126322358Y-101351438D01*
X126572131Y-101184545D01*
X126708778Y-101047898D01*
X132621000Y-101047898D01*
X132621000Y-101152102D01*
X132641329Y-101254304D01*
X132681206Y-101350576D01*
X132739099Y-101437218D01*
X132812782Y-101510901D01*
X132899424Y-101568794D01*
X132995696Y-101608671D01*
X133097898Y-101629000D01*
X133202102Y-101629000D01*
X133304304Y-101608671D01*
X133400576Y-101568794D01*
X133487218Y-101510901D01*
X133560901Y-101437218D01*
X133618794Y-101350576D01*
X133658671Y-101254304D01*
X133679000Y-101152102D01*
X133679000Y-101047898D01*
X133658671Y-100945696D01*
X133618794Y-100849424D01*
X133560901Y-100762782D01*
X133487218Y-100689099D01*
X133400576Y-100631206D01*
X133304304Y-100591329D01*
X133202102Y-100571000D01*
X133097898Y-100571000D01*
X132995696Y-100591329D01*
X132899424Y-100631206D01*
X132812782Y-100689099D01*
X132739099Y-100762782D01*
X132681206Y-100849424D01*
X132641329Y-100945696D01*
X132621000Y-101047898D01*
X126708778Y-101047898D01*
X126784545Y-100972131D01*
X126951438Y-100722358D01*
X127066395Y-100444826D01*
X127125000Y-100150199D01*
X127125000Y-99982898D01*
X132606000Y-99982898D01*
X132606000Y-100087102D01*
X132626329Y-100189304D01*
X132666206Y-100285576D01*
X132724099Y-100372218D01*
X132797782Y-100445901D01*
X132884424Y-100503794D01*
X132980696Y-100543671D01*
X133082898Y-100564000D01*
X133187102Y-100564000D01*
X133289304Y-100543671D01*
X133385576Y-100503794D01*
X133472218Y-100445901D01*
X133545901Y-100372218D01*
X133603794Y-100285576D01*
X133643671Y-100189304D01*
X133664000Y-100087102D01*
X133664000Y-99982898D01*
X133643671Y-99880696D01*
X133603794Y-99784424D01*
X133545901Y-99697782D01*
X133472218Y-99624099D01*
X133385576Y-99566206D01*
X133289304Y-99526329D01*
X133187102Y-99506000D01*
X133082898Y-99506000D01*
X132980696Y-99526329D01*
X132884424Y-99566206D01*
X132797782Y-99624099D01*
X132724099Y-99697782D01*
X132666206Y-99784424D01*
X132626329Y-99880696D01*
X132606000Y-99982898D01*
X127125000Y-99982898D01*
X127125000Y-99849801D01*
X127066395Y-99555174D01*
X126951438Y-99277642D01*
X126784545Y-99027869D01*
X126572131Y-98815455D01*
X126322358Y-98648562D01*
X126044826Y-98533605D01*
X125750199Y-98475000D01*
X125449801Y-98475000D01*
X125155174Y-98533605D01*
X124877642Y-98648562D01*
X124627869Y-98815455D01*
X124415455Y-99027869D01*
X124248562Y-99277642D01*
X124133605Y-99555174D01*
X124075000Y-99849801D01*
X108325000Y-99849801D01*
X108266395Y-99555174D01*
X108151438Y-99277642D01*
X107984545Y-99027869D01*
X107772131Y-98815455D01*
X107522358Y-98648562D01*
X107244826Y-98533605D01*
X106950199Y-98475000D01*
X106649801Y-98475000D01*
X106355174Y-98533605D01*
X106077642Y-98648562D01*
X105827869Y-98815455D01*
X105615455Y-99027869D01*
X105448562Y-99277642D01*
X105333605Y-99555174D01*
X105275000Y-99849801D01*
X104439803Y-99849801D01*
X104436254Y-99813768D01*
X104381932Y-99634692D01*
X104293718Y-99469655D01*
X104175001Y-99324999D01*
X104030345Y-99206282D01*
X103865308Y-99118068D01*
X103686232Y-99063746D01*
X103546665Y-99050000D01*
X103453335Y-99050000D01*
X103313768Y-99063746D01*
X103134692Y-99118068D01*
X102969655Y-99206282D01*
X102824999Y-99324999D01*
X102706282Y-99469655D01*
X102618068Y-99634692D01*
X102563746Y-99813768D01*
X102545404Y-100000000D01*
X100325000Y-100000000D01*
X100325000Y-99737113D01*
X100639250Y-99737113D01*
X100665561Y-99875000D01*
X101375000Y-99875000D01*
X101375000Y-99164965D01*
X101625000Y-99164965D01*
X101625000Y-99875000D01*
X102334439Y-99875000D01*
X102360750Y-99737113D01*
X102294538Y-99577242D01*
X102196795Y-99430359D01*
X102072275Y-99305367D01*
X101925763Y-99207069D01*
X101762889Y-99139243D01*
X101625000Y-99164965D01*
X101375000Y-99164965D01*
X101237111Y-99139243D01*
X101074237Y-99207069D01*
X100927725Y-99305367D01*
X100803205Y-99430359D01*
X100705462Y-99577242D01*
X100639250Y-99737113D01*
X100325000Y-99737113D01*
X100325000Y-97906433D01*
X100550000Y-97906433D01*
X100550000Y-98093567D01*
X100586508Y-98277105D01*
X100658121Y-98449994D01*
X100762087Y-98605590D01*
X100894410Y-98737913D01*
X101050006Y-98841879D01*
X101222895Y-98913492D01*
X101406433Y-98950000D01*
X101593567Y-98950000D01*
X101777105Y-98913492D01*
X101949994Y-98841879D01*
X102105590Y-98737913D01*
X102237913Y-98605590D01*
X102341879Y-98449994D01*
X102413492Y-98277105D01*
X102416320Y-98262887D01*
X102639250Y-98262887D01*
X102705462Y-98422758D01*
X102803205Y-98569641D01*
X102927725Y-98694633D01*
X103074237Y-98792931D01*
X103237111Y-98860757D01*
X103375000Y-98835035D01*
X103375000Y-98125000D01*
X103625000Y-98125000D01*
X103625000Y-98835035D01*
X103762889Y-98860757D01*
X103925763Y-98792931D01*
X104072275Y-98694633D01*
X104196795Y-98569641D01*
X104294538Y-98422758D01*
X104360750Y-98262887D01*
X104334439Y-98125000D01*
X103625000Y-98125000D01*
X103375000Y-98125000D01*
X102665561Y-98125000D01*
X102639250Y-98262887D01*
X102416320Y-98262887D01*
X102450000Y-98093567D01*
X102450000Y-97906433D01*
X102416321Y-97737113D01*
X102639250Y-97737113D01*
X102665561Y-97875000D01*
X103375000Y-97875000D01*
X103375000Y-97164965D01*
X103625000Y-97164965D01*
X103625000Y-97875000D01*
X104334439Y-97875000D01*
X104360750Y-97737113D01*
X104294538Y-97577242D01*
X104196795Y-97430359D01*
X104072275Y-97305367D01*
X103925763Y-97207069D01*
X103762889Y-97139243D01*
X103625000Y-97164965D01*
X103375000Y-97164965D01*
X103237111Y-97139243D01*
X103074237Y-97207069D01*
X102927725Y-97305367D01*
X102803205Y-97430359D01*
X102705462Y-97577242D01*
X102639250Y-97737113D01*
X102416321Y-97737113D01*
X102413492Y-97722895D01*
X102341879Y-97550006D01*
X102237913Y-97394410D01*
X102105590Y-97262087D01*
X101949994Y-97158121D01*
X101777105Y-97086508D01*
X101593567Y-97050000D01*
X101406433Y-97050000D01*
X101222895Y-97086508D01*
X101050006Y-97158121D01*
X100894410Y-97262087D01*
X100762087Y-97394410D01*
X100658121Y-97550006D01*
X100586508Y-97722895D01*
X100550000Y-97906433D01*
X100325000Y-97906433D01*
X100325000Y-97047898D01*
X126671000Y-97047898D01*
X126671000Y-97152102D01*
X126691329Y-97254304D01*
X126731206Y-97350576D01*
X126789099Y-97437218D01*
X126862782Y-97510901D01*
X126949424Y-97568794D01*
X127045696Y-97608671D01*
X127147898Y-97629000D01*
X127252102Y-97629000D01*
X127354304Y-97608671D01*
X127450576Y-97568794D01*
X127537218Y-97510901D01*
X127610901Y-97437218D01*
X127668794Y-97350576D01*
X127708671Y-97254304D01*
X127709945Y-97247898D01*
X133371000Y-97247898D01*
X133371000Y-97352102D01*
X133391329Y-97454304D01*
X133431206Y-97550576D01*
X133489099Y-97637218D01*
X133562782Y-97710901D01*
X133649424Y-97768794D01*
X133745696Y-97808671D01*
X133847898Y-97829000D01*
X133952102Y-97829000D01*
X134054304Y-97808671D01*
X134150576Y-97768794D01*
X134237218Y-97710901D01*
X134310901Y-97637218D01*
X134368794Y-97550576D01*
X134400000Y-97475238D01*
X134431206Y-97550576D01*
X134489099Y-97637218D01*
X134525001Y-97673120D01*
X134525001Y-97881574D01*
X134523186Y-97900000D01*
X134528535Y-97954304D01*
X134530427Y-97973513D01*
X134535832Y-97991329D01*
X134551870Y-98044200D01*
X134567538Y-98073512D01*
X134586692Y-98109347D01*
X134633553Y-98166448D01*
X134647862Y-98178191D01*
X140425000Y-103955330D01*
X140425001Y-107204669D01*
X140169502Y-107460168D01*
X140058982Y-107414390D01*
X139860954Y-107375000D01*
X139659046Y-107375000D01*
X139461018Y-107414390D01*
X139274480Y-107491656D01*
X139106600Y-107603830D01*
X138963830Y-107746600D01*
X138851656Y-107914480D01*
X138774390Y-108101018D01*
X138735000Y-108299046D01*
X138735000Y-108500954D01*
X138774390Y-108698982D01*
X138851656Y-108885520D01*
X138963830Y-109053400D01*
X139106600Y-109196170D01*
X139274480Y-109308344D01*
X139461018Y-109385610D01*
X139659046Y-109425000D01*
X139860954Y-109425000D01*
X140058982Y-109385610D01*
X140245520Y-109308344D01*
X140413400Y-109196170D01*
X140556170Y-109053400D01*
X140668344Y-108885520D01*
X140745610Y-108698982D01*
X140785000Y-108500954D01*
X140785000Y-108299046D01*
X140745610Y-108101018D01*
X140699832Y-107990498D01*
X141030000Y-107660330D01*
X141360168Y-107990498D01*
X141314390Y-108101018D01*
X141275000Y-108299046D01*
X141275000Y-108500954D01*
X141314390Y-108698982D01*
X141391656Y-108885520D01*
X141503830Y-109053400D01*
X141646600Y-109196170D01*
X141814480Y-109308344D01*
X142001018Y-109385610D01*
X142199046Y-109425000D01*
X142400954Y-109425000D01*
X142598982Y-109385610D01*
X142785520Y-109308344D01*
X142953400Y-109196170D01*
X143096170Y-109053400D01*
X143208344Y-108885520D01*
X143285610Y-108698982D01*
X143325000Y-108500954D01*
X143325000Y-108299046D01*
X143285610Y-108101018D01*
X143208344Y-107914480D01*
X143096170Y-107746600D01*
X142953400Y-107603830D01*
X142785520Y-107491656D01*
X142598982Y-107414390D01*
X142400954Y-107375000D01*
X142199046Y-107375000D01*
X142001018Y-107414390D01*
X141890498Y-107460168D01*
X141625000Y-107194671D01*
X141625000Y-106797898D01*
X145971000Y-106797898D01*
X145971000Y-106902102D01*
X145991329Y-107004304D01*
X146031206Y-107100576D01*
X146089099Y-107187218D01*
X146162782Y-107260901D01*
X146249424Y-107318794D01*
X146345696Y-107358671D01*
X146447898Y-107379000D01*
X146552102Y-107379000D01*
X146654304Y-107358671D01*
X146750576Y-107318794D01*
X146837218Y-107260901D01*
X146910901Y-107187218D01*
X146968794Y-107100576D01*
X147008671Y-107004304D01*
X147029000Y-106902102D01*
X147029000Y-106797898D01*
X150471000Y-106797898D01*
X150471000Y-106902102D01*
X150491329Y-107004304D01*
X150531206Y-107100576D01*
X150589099Y-107187218D01*
X150662782Y-107260901D01*
X150749424Y-107318794D01*
X150845696Y-107358671D01*
X150947898Y-107379000D01*
X151052102Y-107379000D01*
X151154304Y-107358671D01*
X151250576Y-107318794D01*
X151337218Y-107260901D01*
X151410901Y-107187218D01*
X151468794Y-107100576D01*
X151508671Y-107004304D01*
X151529000Y-106902102D01*
X151529000Y-106807898D01*
X155471000Y-106807898D01*
X155471000Y-106912102D01*
X155491329Y-107014304D01*
X155531206Y-107110576D01*
X155589099Y-107197218D01*
X155662782Y-107270901D01*
X155749424Y-107328794D01*
X155845696Y-107368671D01*
X155947898Y-107389000D01*
X156052102Y-107389000D01*
X156154304Y-107368671D01*
X156250576Y-107328794D01*
X156337218Y-107270901D01*
X156410901Y-107197218D01*
X156468794Y-107110576D01*
X156508671Y-107014304D01*
X156529000Y-106912102D01*
X156529000Y-106807898D01*
X156508671Y-106705696D01*
X156468794Y-106609424D01*
X156410901Y-106522782D01*
X156337218Y-106449099D01*
X156250576Y-106391206D01*
X156154304Y-106351329D01*
X156052102Y-106331000D01*
X155947898Y-106331000D01*
X155845696Y-106351329D01*
X155749424Y-106391206D01*
X155662782Y-106449099D01*
X155589099Y-106522782D01*
X155531206Y-106609424D01*
X155491329Y-106705696D01*
X155471000Y-106807898D01*
X151529000Y-106807898D01*
X151529000Y-106797898D01*
X151508671Y-106695696D01*
X151468794Y-106599424D01*
X151410901Y-106512782D01*
X151337218Y-106439099D01*
X151250576Y-106381206D01*
X151154304Y-106341329D01*
X151052102Y-106321000D01*
X150947898Y-106321000D01*
X150845696Y-106341329D01*
X150749424Y-106381206D01*
X150662782Y-106439099D01*
X150589099Y-106512782D01*
X150531206Y-106599424D01*
X150491329Y-106695696D01*
X150471000Y-106797898D01*
X147029000Y-106797898D01*
X147008671Y-106695696D01*
X146968794Y-106599424D01*
X146910901Y-106512782D01*
X146837218Y-106439099D01*
X146750576Y-106381206D01*
X146654304Y-106341329D01*
X146552102Y-106321000D01*
X146447898Y-106321000D01*
X146345696Y-106341329D01*
X146249424Y-106381206D01*
X146162782Y-106439099D01*
X146089099Y-106512782D01*
X146031206Y-106599424D01*
X145991329Y-106695696D01*
X145971000Y-106797898D01*
X141625000Y-106797898D01*
X141625000Y-105097898D01*
X152971000Y-105097898D01*
X152971000Y-105202102D01*
X152991329Y-105304304D01*
X153031206Y-105400576D01*
X153089099Y-105487218D01*
X153162782Y-105560901D01*
X153249424Y-105618794D01*
X153345696Y-105658671D01*
X153447898Y-105679000D01*
X153552102Y-105679000D01*
X153654304Y-105658671D01*
X153750576Y-105618794D01*
X153837218Y-105560901D01*
X153910901Y-105487218D01*
X153968794Y-105400576D01*
X154008671Y-105304304D01*
X154029000Y-105202102D01*
X154029000Y-105097898D01*
X154008671Y-104995696D01*
X153968794Y-104899424D01*
X153910901Y-104812782D01*
X153837218Y-104739099D01*
X153750576Y-104681206D01*
X153654304Y-104641329D01*
X153552102Y-104621000D01*
X153447898Y-104621000D01*
X153345696Y-104641329D01*
X153249424Y-104681206D01*
X153162782Y-104739099D01*
X153089099Y-104812782D01*
X153031206Y-104899424D01*
X152991329Y-104995696D01*
X152971000Y-105097898D01*
X141625000Y-105097898D01*
X141625000Y-103668416D01*
X141626814Y-103650000D01*
X141625000Y-103631581D01*
X141619574Y-103576487D01*
X141598131Y-103505800D01*
X141587070Y-103485107D01*
X141563310Y-103440653D01*
X141528189Y-103397859D01*
X141516448Y-103383552D01*
X141502140Y-103371810D01*
X141278228Y-103147898D01*
X146121000Y-103147898D01*
X146121000Y-103252102D01*
X146141329Y-103354304D01*
X146181206Y-103450576D01*
X146239099Y-103537218D01*
X146312782Y-103610901D01*
X146399424Y-103668794D01*
X146495696Y-103708671D01*
X146597898Y-103729000D01*
X146702102Y-103729000D01*
X146804304Y-103708671D01*
X146900576Y-103668794D01*
X146987218Y-103610901D01*
X147025000Y-103573119D01*
X147062782Y-103610901D01*
X147149424Y-103668794D01*
X147245696Y-103708671D01*
X147347898Y-103729000D01*
X147452102Y-103729000D01*
X147554304Y-103708671D01*
X147650576Y-103668794D01*
X147737218Y-103610901D01*
X147810901Y-103537218D01*
X147868794Y-103450576D01*
X147908671Y-103354304D01*
X147929000Y-103252102D01*
X147929000Y-103147898D01*
X147909109Y-103047898D01*
X157271000Y-103047898D01*
X157271000Y-103152102D01*
X157291329Y-103254304D01*
X157331206Y-103350576D01*
X157364230Y-103400000D01*
X157331206Y-103449424D01*
X157291329Y-103545696D01*
X157271000Y-103647898D01*
X157271000Y-103752102D01*
X157291329Y-103854304D01*
X157331206Y-103950576D01*
X157389099Y-104037218D01*
X157462782Y-104110901D01*
X157549424Y-104168794D01*
X157645696Y-104208671D01*
X157747898Y-104229000D01*
X157852102Y-104229000D01*
X157954304Y-104208671D01*
X158050576Y-104168794D01*
X158100000Y-104135770D01*
X158149424Y-104168794D01*
X158245696Y-104208671D01*
X158347898Y-104229000D01*
X158452102Y-104229000D01*
X158554304Y-104208671D01*
X158650576Y-104168794D01*
X158700000Y-104135770D01*
X158749424Y-104168794D01*
X158845696Y-104208671D01*
X158947898Y-104229000D01*
X159052102Y-104229000D01*
X159154304Y-104208671D01*
X159250576Y-104168794D01*
X159300000Y-104135770D01*
X159349424Y-104168794D01*
X159445696Y-104208671D01*
X159547898Y-104229000D01*
X159652102Y-104229000D01*
X159754304Y-104208671D01*
X159850576Y-104168794D01*
X159937218Y-104110901D01*
X160010901Y-104037218D01*
X160068794Y-103950576D01*
X160108671Y-103854304D01*
X160129000Y-103752102D01*
X160129000Y-103647898D01*
X160108671Y-103545696D01*
X160068794Y-103449424D01*
X160035770Y-103400000D01*
X160068794Y-103350576D01*
X160108671Y-103254304D01*
X160129000Y-103152102D01*
X160129000Y-103047898D01*
X160108671Y-102945696D01*
X160068794Y-102849424D01*
X160010901Y-102762782D01*
X159937218Y-102689099D01*
X159850576Y-102631206D01*
X159754304Y-102591329D01*
X159652102Y-102571000D01*
X159547898Y-102571000D01*
X159445696Y-102591329D01*
X159349424Y-102631206D01*
X159300000Y-102664230D01*
X159250576Y-102631206D01*
X159154304Y-102591329D01*
X159052102Y-102571000D01*
X158947898Y-102571000D01*
X158845696Y-102591329D01*
X158749424Y-102631206D01*
X158700000Y-102664230D01*
X158650576Y-102631206D01*
X158554304Y-102591329D01*
X158452102Y-102571000D01*
X158347898Y-102571000D01*
X158245696Y-102591329D01*
X158149424Y-102631206D01*
X158100000Y-102664230D01*
X158050576Y-102631206D01*
X157954304Y-102591329D01*
X157852102Y-102571000D01*
X157747898Y-102571000D01*
X157645696Y-102591329D01*
X157549424Y-102631206D01*
X157462782Y-102689099D01*
X157389099Y-102762782D01*
X157331206Y-102849424D01*
X157291329Y-102945696D01*
X157271000Y-103047898D01*
X147909109Y-103047898D01*
X147908671Y-103045696D01*
X147868794Y-102949424D01*
X147810901Y-102862782D01*
X147737218Y-102789099D01*
X147650576Y-102731206D01*
X147554304Y-102691329D01*
X147452102Y-102671000D01*
X147347898Y-102671000D01*
X147245696Y-102691329D01*
X147149424Y-102731206D01*
X147062782Y-102789099D01*
X147025000Y-102826881D01*
X146987218Y-102789099D01*
X146900576Y-102731206D01*
X146804304Y-102691329D01*
X146702102Y-102671000D01*
X146597898Y-102671000D01*
X146495696Y-102691329D01*
X146399424Y-102731206D01*
X146312782Y-102789099D01*
X146239099Y-102862782D01*
X146181206Y-102949424D01*
X146141329Y-103045696D01*
X146121000Y-103147898D01*
X141278228Y-103147898D01*
X139478228Y-101347898D01*
X163871000Y-101347898D01*
X163871000Y-101452102D01*
X163891329Y-101554304D01*
X163931206Y-101650576D01*
X163989099Y-101737218D01*
X164062782Y-101810901D01*
X164149424Y-101868794D01*
X164245696Y-101908671D01*
X164347898Y-101929000D01*
X164452102Y-101929000D01*
X164475692Y-101924308D01*
X164471000Y-101947898D01*
X164471000Y-102052102D01*
X164491329Y-102154304D01*
X164531206Y-102250576D01*
X164564230Y-102300000D01*
X164531206Y-102349424D01*
X164491329Y-102445696D01*
X164471000Y-102547898D01*
X164471000Y-102652102D01*
X164491329Y-102754304D01*
X164531206Y-102850576D01*
X164564230Y-102900000D01*
X164531206Y-102949424D01*
X164491329Y-103045696D01*
X164471000Y-103147898D01*
X164471000Y-103252102D01*
X164491329Y-103354304D01*
X164531206Y-103450576D01*
X164564230Y-103500000D01*
X164531206Y-103549424D01*
X164491329Y-103645696D01*
X164471000Y-103747898D01*
X164471000Y-103852102D01*
X164491329Y-103954304D01*
X164531206Y-104050576D01*
X164589099Y-104137218D01*
X164662782Y-104210901D01*
X164749424Y-104268794D01*
X164845696Y-104308671D01*
X164947898Y-104329000D01*
X165052102Y-104329000D01*
X165154304Y-104308671D01*
X165250576Y-104268794D01*
X165337218Y-104210901D01*
X165410901Y-104137218D01*
X165468794Y-104050576D01*
X165508671Y-103954304D01*
X165529000Y-103852102D01*
X165529000Y-103747898D01*
X165508671Y-103645696D01*
X165468794Y-103549424D01*
X165435770Y-103500000D01*
X165468794Y-103450576D01*
X165508671Y-103354304D01*
X165529000Y-103252102D01*
X165529000Y-103147898D01*
X165508671Y-103045696D01*
X165468794Y-102949424D01*
X165435770Y-102900000D01*
X165468794Y-102850576D01*
X165508671Y-102754304D01*
X165529000Y-102652102D01*
X165529000Y-102547898D01*
X165508671Y-102445696D01*
X165468794Y-102349424D01*
X165435770Y-102300000D01*
X165468794Y-102250576D01*
X165508671Y-102154304D01*
X165529000Y-102052102D01*
X165529000Y-101947898D01*
X165508671Y-101845696D01*
X165468794Y-101749424D01*
X165435770Y-101700000D01*
X165468794Y-101650576D01*
X165508671Y-101554304D01*
X165529000Y-101452102D01*
X165529000Y-101347898D01*
X165508671Y-101245696D01*
X165468794Y-101149424D01*
X165410901Y-101062782D01*
X165337218Y-100989099D01*
X165250576Y-100931206D01*
X165154304Y-100891329D01*
X165052102Y-100871000D01*
X164947898Y-100871000D01*
X164845696Y-100891329D01*
X164749424Y-100931206D01*
X164700000Y-100964230D01*
X164650576Y-100931206D01*
X164554304Y-100891329D01*
X164452102Y-100871000D01*
X164347898Y-100871000D01*
X164245696Y-100891329D01*
X164149424Y-100931206D01*
X164062782Y-100989099D01*
X163989099Y-101062782D01*
X163931206Y-101149424D01*
X163891329Y-101245696D01*
X163871000Y-101347898D01*
X139478228Y-101347898D01*
X138778228Y-100647898D01*
X145421000Y-100647898D01*
X145421000Y-100752102D01*
X145441329Y-100854304D01*
X145481206Y-100950576D01*
X145539099Y-101037218D01*
X145612782Y-101110901D01*
X145699424Y-101168794D01*
X145795696Y-101208671D01*
X145897898Y-101229000D01*
X146002102Y-101229000D01*
X146104304Y-101208671D01*
X146200576Y-101168794D01*
X146287218Y-101110901D01*
X146360901Y-101037218D01*
X146418794Y-100950576D01*
X146458671Y-100854304D01*
X146479000Y-100752102D01*
X146479000Y-100647898D01*
X146458671Y-100545696D01*
X146418794Y-100449424D01*
X146360901Y-100362782D01*
X146346017Y-100347898D01*
X162721000Y-100347898D01*
X162721000Y-100452102D01*
X162741329Y-100554304D01*
X162781206Y-100650576D01*
X162839099Y-100737218D01*
X162912782Y-100810901D01*
X162999424Y-100868794D01*
X163095696Y-100908671D01*
X163197898Y-100929000D01*
X163302102Y-100929000D01*
X163404304Y-100908671D01*
X163500576Y-100868794D01*
X163587218Y-100810901D01*
X163660901Y-100737218D01*
X163718794Y-100650576D01*
X163758671Y-100554304D01*
X163779000Y-100452102D01*
X163779000Y-100347898D01*
X163758671Y-100245696D01*
X163718794Y-100149424D01*
X163660901Y-100062782D01*
X163587218Y-99989099D01*
X163500576Y-99931206D01*
X163404304Y-99891329D01*
X163302102Y-99871000D01*
X163197898Y-99871000D01*
X163095696Y-99891329D01*
X162999424Y-99931206D01*
X162912782Y-99989099D01*
X162839099Y-100062782D01*
X162781206Y-100149424D01*
X162741329Y-100245696D01*
X162721000Y-100347898D01*
X146346017Y-100347898D01*
X146287218Y-100289099D01*
X146200576Y-100231206D01*
X146104304Y-100191329D01*
X146002102Y-100171000D01*
X145897898Y-100171000D01*
X145795696Y-100191329D01*
X145699424Y-100231206D01*
X145612782Y-100289099D01*
X145539099Y-100362782D01*
X145481206Y-100449424D01*
X145441329Y-100545696D01*
X145421000Y-100647898D01*
X138778228Y-100647898D01*
X137378228Y-99247898D01*
X138371000Y-99247898D01*
X138371000Y-99352102D01*
X138391329Y-99454304D01*
X138431206Y-99550576D01*
X138489099Y-99637218D01*
X138562782Y-99710901D01*
X138649424Y-99768794D01*
X138745696Y-99808671D01*
X138847898Y-99829000D01*
X138952102Y-99829000D01*
X139054304Y-99808671D01*
X139150576Y-99768794D01*
X139237218Y-99710901D01*
X139310901Y-99637218D01*
X139368794Y-99550576D01*
X139408671Y-99454304D01*
X139429000Y-99352102D01*
X139429000Y-99247898D01*
X139408671Y-99145696D01*
X139368794Y-99049424D01*
X139310901Y-98962782D01*
X139285722Y-98937603D01*
X145704173Y-98937603D01*
X145774429Y-99046474D01*
X145925420Y-99106568D01*
X146085234Y-99136051D01*
X146247729Y-99133789D01*
X146406661Y-99099869D01*
X146535571Y-99046474D01*
X146605827Y-98937603D01*
X146155000Y-98486777D01*
X145704173Y-98937603D01*
X139285722Y-98937603D01*
X139237218Y-98889099D01*
X139150576Y-98831206D01*
X139054304Y-98791329D01*
X138952102Y-98771000D01*
X138847898Y-98771000D01*
X138745696Y-98791329D01*
X138649424Y-98831206D01*
X138562782Y-98889099D01*
X138489099Y-98962782D01*
X138431206Y-99049424D01*
X138391329Y-99145696D01*
X138371000Y-99247898D01*
X137378228Y-99247898D01*
X136628228Y-98497898D01*
X137271000Y-98497898D01*
X137271000Y-98602102D01*
X137291329Y-98704304D01*
X137331206Y-98800576D01*
X137389099Y-98887218D01*
X137462782Y-98960901D01*
X137549424Y-99018794D01*
X137645696Y-99058671D01*
X137747898Y-99079000D01*
X137852102Y-99079000D01*
X137954304Y-99058671D01*
X138050576Y-99018794D01*
X138137218Y-98960901D01*
X138210901Y-98887218D01*
X138268794Y-98800576D01*
X138308671Y-98704304D01*
X138329000Y-98602102D01*
X138329000Y-98497898D01*
X138308671Y-98395696D01*
X138268794Y-98299424D01*
X138210901Y-98212782D01*
X138137218Y-98139099D01*
X138050576Y-98081206D01*
X137954304Y-98041329D01*
X137852102Y-98021000D01*
X137747898Y-98021000D01*
X137645696Y-98041329D01*
X137549424Y-98081206D01*
X137462782Y-98139099D01*
X137389099Y-98212782D01*
X137331206Y-98299424D01*
X137291329Y-98395696D01*
X137271000Y-98497898D01*
X136628228Y-98497898D01*
X135975000Y-97844671D01*
X135975000Y-97747898D01*
X139071000Y-97747898D01*
X139071000Y-97852102D01*
X139091329Y-97954304D01*
X139131206Y-98050576D01*
X139189099Y-98137218D01*
X139262782Y-98210901D01*
X139349424Y-98268794D01*
X139445696Y-98308671D01*
X139547898Y-98329000D01*
X139652102Y-98329000D01*
X139754304Y-98308671D01*
X139850576Y-98268794D01*
X139893318Y-98240234D01*
X145328949Y-98240234D01*
X145331211Y-98402729D01*
X145365131Y-98561661D01*
X145418526Y-98690571D01*
X145527397Y-98760827D01*
X145978223Y-98310000D01*
X146331777Y-98310000D01*
X146782603Y-98760827D01*
X146891474Y-98690571D01*
X146951568Y-98539580D01*
X146981051Y-98379766D01*
X146978789Y-98217271D01*
X146963984Y-98147898D01*
X147871000Y-98147898D01*
X147871000Y-98252102D01*
X147891329Y-98354304D01*
X147931206Y-98450576D01*
X147964230Y-98500000D01*
X147931206Y-98549424D01*
X147891329Y-98645696D01*
X147871000Y-98747898D01*
X147871000Y-98852102D01*
X147891329Y-98954304D01*
X147931206Y-99050576D01*
X147989099Y-99137218D01*
X148062782Y-99210901D01*
X148149424Y-99268794D01*
X148245696Y-99308671D01*
X148347898Y-99329000D01*
X148452102Y-99329000D01*
X148554304Y-99308671D01*
X148650576Y-99268794D01*
X148737218Y-99210901D01*
X148810901Y-99137218D01*
X148868794Y-99050576D01*
X148908671Y-98954304D01*
X148929000Y-98852102D01*
X148929000Y-98747898D01*
X148908671Y-98645696D01*
X148868794Y-98549424D01*
X148835770Y-98500000D01*
X148868794Y-98450576D01*
X148908671Y-98354304D01*
X148929000Y-98252102D01*
X148929000Y-98147898D01*
X148908671Y-98045696D01*
X148868794Y-97949424D01*
X148810901Y-97862782D01*
X148737218Y-97789099D01*
X148650576Y-97731206D01*
X148554304Y-97691329D01*
X148452102Y-97671000D01*
X148347898Y-97671000D01*
X148245696Y-97691329D01*
X148149424Y-97731206D01*
X148062782Y-97789099D01*
X147989099Y-97862782D01*
X147931206Y-97949424D01*
X147891329Y-98045696D01*
X147871000Y-98147898D01*
X146963984Y-98147898D01*
X146944869Y-98058339D01*
X146891474Y-97929429D01*
X146782603Y-97859173D01*
X146331777Y-98310000D01*
X145978223Y-98310000D01*
X145527397Y-97859173D01*
X145418526Y-97929429D01*
X145358432Y-98080420D01*
X145328949Y-98240234D01*
X139893318Y-98240234D01*
X139937218Y-98210901D01*
X140010901Y-98137218D01*
X140068794Y-98050576D01*
X140108671Y-97954304D01*
X140129000Y-97852102D01*
X140129000Y-97747898D01*
X140115972Y-97682397D01*
X145704173Y-97682397D01*
X146155000Y-98133223D01*
X146605827Y-97682397D01*
X146535571Y-97573526D01*
X146384580Y-97513432D01*
X146224766Y-97483949D01*
X146062271Y-97486211D01*
X145903339Y-97520131D01*
X145774429Y-97573526D01*
X145704173Y-97682397D01*
X140115972Y-97682397D01*
X140108671Y-97645696D01*
X140068794Y-97549424D01*
X140010901Y-97462782D01*
X139937218Y-97389099D01*
X139850576Y-97331206D01*
X139754304Y-97291329D01*
X139652102Y-97271000D01*
X139547898Y-97271000D01*
X139445696Y-97291329D01*
X139349424Y-97331206D01*
X139262782Y-97389099D01*
X139189099Y-97462782D01*
X139131206Y-97549424D01*
X139091329Y-97645696D01*
X139071000Y-97747898D01*
X135975000Y-97747898D01*
X135975000Y-97673119D01*
X136010901Y-97637218D01*
X136068794Y-97550576D01*
X136108671Y-97454304D01*
X136129000Y-97352102D01*
X136129000Y-97247898D01*
X136108671Y-97145696D01*
X136068794Y-97049424D01*
X136010901Y-96962782D01*
X135937218Y-96889099D01*
X135875558Y-96847898D01*
X138321000Y-96847898D01*
X138321000Y-96952102D01*
X138341329Y-97054304D01*
X138381206Y-97150576D01*
X138439099Y-97237218D01*
X138512782Y-97310901D01*
X138599424Y-97368794D01*
X138695696Y-97408671D01*
X138797898Y-97429000D01*
X138902102Y-97429000D01*
X139004304Y-97408671D01*
X139100576Y-97368794D01*
X139187218Y-97310901D01*
X139260901Y-97237218D01*
X139318794Y-97150576D01*
X139358671Y-97054304D01*
X139379000Y-96952102D01*
X139379000Y-96847898D01*
X139358671Y-96745696D01*
X139318794Y-96649424D01*
X139260901Y-96562782D01*
X139187218Y-96489099D01*
X139100576Y-96431206D01*
X139004304Y-96391329D01*
X138902102Y-96371000D01*
X138797898Y-96371000D01*
X138695696Y-96391329D01*
X138599424Y-96431206D01*
X138512782Y-96489099D01*
X138439099Y-96562782D01*
X138381206Y-96649424D01*
X138341329Y-96745696D01*
X138321000Y-96847898D01*
X135875558Y-96847898D01*
X135850576Y-96831206D01*
X135754304Y-96791329D01*
X135652102Y-96771000D01*
X135547898Y-96771000D01*
X135445696Y-96791329D01*
X135349424Y-96831206D01*
X135262782Y-96889099D01*
X135250000Y-96901881D01*
X135237218Y-96889099D01*
X135150576Y-96831206D01*
X135054304Y-96791329D01*
X134952102Y-96771000D01*
X134847898Y-96771000D01*
X134745696Y-96791329D01*
X134649424Y-96831206D01*
X134562782Y-96889099D01*
X134489099Y-96962782D01*
X134431206Y-97049424D01*
X134400000Y-97124762D01*
X134368794Y-97049424D01*
X134310901Y-96962782D01*
X134237218Y-96889099D01*
X134150576Y-96831206D01*
X134054304Y-96791329D01*
X133952102Y-96771000D01*
X133847898Y-96771000D01*
X133745696Y-96791329D01*
X133649424Y-96831206D01*
X133562782Y-96889099D01*
X133489099Y-96962782D01*
X133431206Y-97049424D01*
X133391329Y-97145696D01*
X133371000Y-97247898D01*
X127709945Y-97247898D01*
X127729000Y-97152102D01*
X127729000Y-97047898D01*
X127708671Y-96945696D01*
X127668794Y-96849424D01*
X127610901Y-96762782D01*
X127537218Y-96689099D01*
X127450576Y-96631206D01*
X127354304Y-96591329D01*
X127252102Y-96571000D01*
X127147898Y-96571000D01*
X127045696Y-96591329D01*
X126949424Y-96631206D01*
X126862782Y-96689099D01*
X126789099Y-96762782D01*
X126731206Y-96849424D01*
X126691329Y-96945696D01*
X126671000Y-97047898D01*
X100325000Y-97047898D01*
X100325000Y-95347898D01*
X129771000Y-95347898D01*
X129771000Y-95452102D01*
X129791329Y-95554304D01*
X129831206Y-95650576D01*
X129889099Y-95737218D01*
X129962782Y-95810901D01*
X130049424Y-95868794D01*
X130145696Y-95908671D01*
X130247898Y-95929000D01*
X130352102Y-95929000D01*
X130454304Y-95908671D01*
X130550576Y-95868794D01*
X130637218Y-95810901D01*
X130710901Y-95737218D01*
X130768794Y-95650576D01*
X130808671Y-95554304D01*
X130819789Y-95498409D01*
X130847898Y-95504000D01*
X130952102Y-95504000D01*
X130980211Y-95498409D01*
X130991329Y-95554304D01*
X131031206Y-95650576D01*
X131089099Y-95737218D01*
X131162782Y-95810901D01*
X131249424Y-95868794D01*
X131324762Y-95900000D01*
X131249424Y-95931206D01*
X131162782Y-95989099D01*
X131089099Y-96062782D01*
X131031206Y-96149424D01*
X130991329Y-96245696D01*
X130971000Y-96347898D01*
X130971000Y-96452102D01*
X130991329Y-96554304D01*
X131031206Y-96650576D01*
X131089099Y-96737218D01*
X131162782Y-96810901D01*
X131249424Y-96868794D01*
X131345696Y-96908671D01*
X131447898Y-96929000D01*
X131552102Y-96929000D01*
X131654304Y-96908671D01*
X131750576Y-96868794D01*
X131837218Y-96810901D01*
X131910901Y-96737218D01*
X131968794Y-96650576D01*
X132008671Y-96554304D01*
X132029000Y-96452102D01*
X132029000Y-96347898D01*
X132015735Y-96281208D01*
X145275569Y-96281208D01*
X145370206Y-96410569D01*
X145555502Y-96490770D01*
X145752883Y-96533280D01*
X145843880Y-96534716D01*
X145823058Y-96584986D01*
X145800000Y-96700905D01*
X145800000Y-96819095D01*
X145823058Y-96935014D01*
X145868287Y-97044207D01*
X145933950Y-97142478D01*
X146017522Y-97226050D01*
X146115793Y-97291713D01*
X146224986Y-97336942D01*
X146340905Y-97360000D01*
X146459095Y-97360000D01*
X146575014Y-97336942D01*
X146684207Y-97291713D01*
X146782478Y-97226050D01*
X146866050Y-97142478D01*
X146931713Y-97044207D01*
X146976942Y-96935014D01*
X147000000Y-96819095D01*
X147000000Y-96700905D01*
X146982907Y-96614973D01*
X146984699Y-96618999D01*
X147088137Y-96651221D01*
X147195873Y-96662645D01*
X147303769Y-96652831D01*
X147407676Y-96622156D01*
X147415301Y-96618999D01*
X147451316Y-96538093D01*
X147200000Y-96286777D01*
X147185858Y-96300919D01*
X147009081Y-96124142D01*
X147023223Y-96110000D01*
X147009081Y-96095858D01*
X147185858Y-95919081D01*
X147200000Y-95933223D01*
X147214142Y-95919081D01*
X147390919Y-96095858D01*
X147376777Y-96110000D01*
X147483942Y-96217165D01*
X147491329Y-96254304D01*
X147531206Y-96350576D01*
X147589099Y-96437218D01*
X147662782Y-96510901D01*
X147749424Y-96568794D01*
X147845696Y-96608671D01*
X147947898Y-96629000D01*
X148052102Y-96629000D01*
X148154304Y-96608671D01*
X148250576Y-96568794D01*
X148337218Y-96510901D01*
X148344796Y-96503324D01*
X148417522Y-96576050D01*
X148515793Y-96641713D01*
X148624986Y-96686942D01*
X148740905Y-96710000D01*
X148859095Y-96710000D01*
X148975014Y-96686942D01*
X149084207Y-96641713D01*
X149182478Y-96576050D01*
X149200000Y-96558528D01*
X149200001Y-96558529D01*
X149200000Y-97680353D01*
X149198065Y-97700000D01*
X149200000Y-97719646D01*
X149205788Y-97778413D01*
X149228660Y-97853813D01*
X149265803Y-97923302D01*
X149315789Y-97984211D01*
X149331052Y-97996737D01*
X149360806Y-98026491D01*
X149349424Y-98031206D01*
X149262782Y-98089099D01*
X149189099Y-98162782D01*
X149131206Y-98249424D01*
X149091329Y-98345696D01*
X149071000Y-98447898D01*
X149071000Y-98552102D01*
X149091329Y-98654304D01*
X149131206Y-98750576D01*
X149189099Y-98837218D01*
X149262782Y-98910901D01*
X149349424Y-98968794D01*
X149445696Y-99008671D01*
X149547898Y-99029000D01*
X149652102Y-99029000D01*
X149754304Y-99008671D01*
X149850576Y-98968794D01*
X149937218Y-98910901D01*
X150000000Y-98848119D01*
X150062782Y-98910901D01*
X150149424Y-98968794D01*
X150245696Y-99008671D01*
X150347898Y-99029000D01*
X150452102Y-99029000D01*
X150554304Y-99008671D01*
X150650576Y-98968794D01*
X150737218Y-98910901D01*
X150810901Y-98837218D01*
X150868794Y-98750576D01*
X150908671Y-98654304D01*
X150929000Y-98552102D01*
X150929000Y-98447898D01*
X150908671Y-98345696D01*
X150868794Y-98249424D01*
X150810901Y-98162782D01*
X150796017Y-98147898D01*
X151071000Y-98147898D01*
X151071000Y-98252102D01*
X151091329Y-98354304D01*
X151131206Y-98450576D01*
X151164230Y-98500000D01*
X151131206Y-98549424D01*
X151091329Y-98645696D01*
X151071000Y-98747898D01*
X151071000Y-98852102D01*
X151091329Y-98954304D01*
X151131206Y-99050576D01*
X151189099Y-99137218D01*
X151262782Y-99210901D01*
X151349424Y-99268794D01*
X151445696Y-99308671D01*
X151547898Y-99329000D01*
X151652102Y-99329000D01*
X151754304Y-99308671D01*
X151850576Y-99268794D01*
X151937218Y-99210901D01*
X152010901Y-99137218D01*
X152068794Y-99050576D01*
X152108671Y-98954304D01*
X152111992Y-98937603D01*
X153394173Y-98937603D01*
X153464429Y-99046474D01*
X153615420Y-99106568D01*
X153775234Y-99136051D01*
X153937729Y-99133789D01*
X154096661Y-99099869D01*
X154225571Y-99046474D01*
X154295827Y-98937603D01*
X153845000Y-98486777D01*
X153394173Y-98937603D01*
X152111992Y-98937603D01*
X152129000Y-98852102D01*
X152129000Y-98747898D01*
X152108671Y-98645696D01*
X152068794Y-98549424D01*
X152035770Y-98500000D01*
X152068794Y-98450576D01*
X152108671Y-98354304D01*
X152129000Y-98252102D01*
X152129000Y-98240234D01*
X153018949Y-98240234D01*
X153021211Y-98402729D01*
X153055131Y-98561661D01*
X153108526Y-98690571D01*
X153217397Y-98760827D01*
X153668223Y-98310000D01*
X154021777Y-98310000D01*
X154472603Y-98760827D01*
X154581474Y-98690571D01*
X154641568Y-98539580D01*
X154671051Y-98379766D01*
X154668789Y-98217271D01*
X154634869Y-98058339D01*
X154581474Y-97929429D01*
X154472603Y-97859173D01*
X154021777Y-98310000D01*
X153668223Y-98310000D01*
X153217397Y-97859173D01*
X153108526Y-97929429D01*
X153048432Y-98080420D01*
X153018949Y-98240234D01*
X152129000Y-98240234D01*
X152129000Y-98147898D01*
X152108671Y-98045696D01*
X152068794Y-97949424D01*
X152010901Y-97862782D01*
X151937218Y-97789099D01*
X151850576Y-97731206D01*
X151754304Y-97691329D01*
X151709400Y-97682397D01*
X153394173Y-97682397D01*
X153845000Y-98133223D01*
X154295827Y-97682397D01*
X154225571Y-97573526D01*
X154074580Y-97513432D01*
X153914766Y-97483949D01*
X153752271Y-97486211D01*
X153593339Y-97520131D01*
X153464429Y-97573526D01*
X153394173Y-97682397D01*
X151709400Y-97682397D01*
X151652102Y-97671000D01*
X151547898Y-97671000D01*
X151445696Y-97691329D01*
X151349424Y-97731206D01*
X151262782Y-97789099D01*
X151189099Y-97862782D01*
X151131206Y-97949424D01*
X151091329Y-98045696D01*
X151071000Y-98147898D01*
X150796017Y-98147898D01*
X150737218Y-98089099D01*
X150650576Y-98031206D01*
X150554304Y-97991329D01*
X150452102Y-97971000D01*
X150436686Y-97971000D01*
X150000000Y-97534315D01*
X150000000Y-96558528D01*
X150017522Y-96576050D01*
X150115793Y-96641713D01*
X150224986Y-96686942D01*
X150340905Y-96710000D01*
X150459095Y-96710000D01*
X150575014Y-96686942D01*
X150684207Y-96641713D01*
X150782478Y-96576050D01*
X150800000Y-96558528D01*
X150817522Y-96576050D01*
X150915793Y-96641713D01*
X151024986Y-96686942D01*
X151140905Y-96710000D01*
X151259095Y-96710000D01*
X151375014Y-96686942D01*
X151484207Y-96641713D01*
X151582478Y-96576050D01*
X151655205Y-96503324D01*
X151662782Y-96510901D01*
X151749424Y-96568794D01*
X151845696Y-96608671D01*
X151947898Y-96629000D01*
X152052102Y-96629000D01*
X152154304Y-96608671D01*
X152250576Y-96568794D01*
X152337218Y-96510901D01*
X152410901Y-96437218D01*
X152468794Y-96350576D01*
X152508671Y-96254304D01*
X152516058Y-96217165D01*
X152623223Y-96110000D01*
X152609081Y-96095858D01*
X152785858Y-95919081D01*
X152800000Y-95933223D01*
X152814142Y-95919081D01*
X152990919Y-96095858D01*
X152976777Y-96110000D01*
X152990919Y-96124142D01*
X152814142Y-96300919D01*
X152800000Y-96286777D01*
X152548684Y-96538093D01*
X152584699Y-96618999D01*
X152688137Y-96651221D01*
X152795873Y-96662645D01*
X152903769Y-96652831D01*
X153007676Y-96622156D01*
X153015301Y-96618999D01*
X153017093Y-96614973D01*
X153000000Y-96700905D01*
X153000000Y-96819095D01*
X153023058Y-96935014D01*
X153068287Y-97044207D01*
X153133950Y-97142478D01*
X153217522Y-97226050D01*
X153315793Y-97291713D01*
X153424986Y-97336942D01*
X153540905Y-97360000D01*
X153659095Y-97360000D01*
X153775014Y-97336942D01*
X153884207Y-97291713D01*
X153982478Y-97226050D01*
X154066050Y-97142478D01*
X154131713Y-97044207D01*
X154176942Y-96935014D01*
X154200000Y-96819095D01*
X154200000Y-96700905D01*
X154176942Y-96584986D01*
X154156463Y-96535546D01*
X154214765Y-96536466D01*
X154413390Y-96500205D01*
X154545531Y-96447898D01*
X168971000Y-96447898D01*
X168971000Y-96552102D01*
X168991329Y-96654304D01*
X169031206Y-96750576D01*
X169089099Y-96837218D01*
X169162782Y-96910901D01*
X169249424Y-96968794D01*
X169345696Y-97008671D01*
X169447898Y-97029000D01*
X169552102Y-97029000D01*
X169654304Y-97008671D01*
X169750576Y-96968794D01*
X169837218Y-96910901D01*
X169910901Y-96837218D01*
X169968794Y-96750576D01*
X170008671Y-96654304D01*
X170029000Y-96552102D01*
X170029000Y-96447898D01*
X170008671Y-96345696D01*
X169968794Y-96249424D01*
X169910901Y-96162782D01*
X169837218Y-96089099D01*
X169750576Y-96031206D01*
X169654304Y-95991329D01*
X169552102Y-95971000D01*
X169447898Y-95971000D01*
X169345696Y-95991329D01*
X169249424Y-96031206D01*
X169162782Y-96089099D01*
X169089099Y-96162782D01*
X169031206Y-96249424D01*
X168991329Y-96345696D01*
X168971000Y-96447898D01*
X154545531Y-96447898D01*
X154601125Y-96425892D01*
X154629794Y-96410569D01*
X154724431Y-96281208D01*
X154130000Y-95686777D01*
X154115858Y-95700919D01*
X153939081Y-95524142D01*
X153953223Y-95510000D01*
X154306777Y-95510000D01*
X154901208Y-96104431D01*
X155030569Y-96009794D01*
X155110770Y-95824498D01*
X155153280Y-95627117D01*
X155156466Y-95425235D01*
X155142348Y-95347898D01*
X158771000Y-95347898D01*
X158771000Y-95452102D01*
X158791329Y-95554304D01*
X158831206Y-95650576D01*
X158889099Y-95737218D01*
X158962782Y-95810901D01*
X159049424Y-95868794D01*
X159145696Y-95908671D01*
X159247898Y-95929000D01*
X159352102Y-95929000D01*
X159454304Y-95908671D01*
X159550576Y-95868794D01*
X159600000Y-95835770D01*
X159649424Y-95868794D01*
X159745696Y-95908671D01*
X159847898Y-95929000D01*
X159952102Y-95929000D01*
X160054304Y-95908671D01*
X160150576Y-95868794D01*
X160200000Y-95835770D01*
X160249424Y-95868794D01*
X160345696Y-95908671D01*
X160447898Y-95929000D01*
X160552102Y-95929000D01*
X160654304Y-95908671D01*
X160750576Y-95868794D01*
X160800000Y-95835770D01*
X160849424Y-95868794D01*
X160945696Y-95908671D01*
X161047898Y-95929000D01*
X161152102Y-95929000D01*
X161254304Y-95908671D01*
X161350576Y-95868794D01*
X161437218Y-95810901D01*
X161510901Y-95737218D01*
X161568794Y-95650576D01*
X161608671Y-95554304D01*
X161629000Y-95452102D01*
X161629000Y-95347898D01*
X161625082Y-95328200D01*
X163871000Y-95328200D01*
X163871000Y-95471800D01*
X163899015Y-95612641D01*
X163953969Y-95745311D01*
X164033749Y-95864710D01*
X164135290Y-95966251D01*
X164254689Y-96046031D01*
X164387359Y-96100985D01*
X164528200Y-96129000D01*
X164671800Y-96129000D01*
X164812641Y-96100985D01*
X164945311Y-96046031D01*
X165064710Y-95966251D01*
X165166251Y-95864710D01*
X165246031Y-95745311D01*
X165300985Y-95612641D01*
X165329000Y-95471800D01*
X165329000Y-95328200D01*
X165300985Y-95187359D01*
X165246031Y-95054689D01*
X165166251Y-94935290D01*
X165064710Y-94833749D01*
X164945311Y-94753969D01*
X164930655Y-94747898D01*
X170671000Y-94747898D01*
X170671000Y-94852102D01*
X170691329Y-94954304D01*
X170731206Y-95050576D01*
X170764230Y-95100000D01*
X170731206Y-95149424D01*
X170691329Y-95245696D01*
X170671000Y-95347898D01*
X170671000Y-95452102D01*
X170691329Y-95554304D01*
X170731206Y-95650576D01*
X170764230Y-95700000D01*
X170731206Y-95749424D01*
X170691329Y-95845696D01*
X170671000Y-95947898D01*
X170671000Y-96052102D01*
X170691329Y-96154304D01*
X170731206Y-96250576D01*
X170764230Y-96300000D01*
X170731206Y-96349424D01*
X170691329Y-96445696D01*
X170671000Y-96547898D01*
X170671000Y-96652102D01*
X170691329Y-96754304D01*
X170731206Y-96850576D01*
X170764230Y-96900000D01*
X170731206Y-96949424D01*
X170691329Y-97045696D01*
X170671000Y-97147898D01*
X170671000Y-97252102D01*
X170691329Y-97354304D01*
X170731206Y-97450576D01*
X170764230Y-97500000D01*
X170731206Y-97549424D01*
X170691329Y-97645696D01*
X170671000Y-97747898D01*
X170671000Y-97852102D01*
X170691329Y-97954304D01*
X170731206Y-98050576D01*
X170789099Y-98137218D01*
X170862782Y-98210901D01*
X170949424Y-98268794D01*
X171045696Y-98308671D01*
X171147898Y-98329000D01*
X171252102Y-98329000D01*
X171354304Y-98308671D01*
X171450576Y-98268794D01*
X171500000Y-98235770D01*
X171549424Y-98268794D01*
X171645696Y-98308671D01*
X171747898Y-98329000D01*
X171852102Y-98329000D01*
X171954304Y-98308671D01*
X172050576Y-98268794D01*
X172075001Y-98252474D01*
X172075000Y-101747526D01*
X172050576Y-101731206D01*
X171954304Y-101691329D01*
X171852102Y-101671000D01*
X171747898Y-101671000D01*
X171645696Y-101691329D01*
X171549424Y-101731206D01*
X171500000Y-101764230D01*
X171450576Y-101731206D01*
X171354304Y-101691329D01*
X171252102Y-101671000D01*
X171147898Y-101671000D01*
X171045696Y-101691329D01*
X170949424Y-101731206D01*
X170862782Y-101789099D01*
X170789099Y-101862782D01*
X170731206Y-101949424D01*
X170691329Y-102045696D01*
X170671000Y-102147898D01*
X170671000Y-102252102D01*
X170691329Y-102354304D01*
X170731206Y-102450576D01*
X170764230Y-102500000D01*
X170731206Y-102549424D01*
X170691329Y-102645696D01*
X170671000Y-102747898D01*
X170671000Y-102852102D01*
X170691329Y-102954304D01*
X170731206Y-103050576D01*
X170764230Y-103100000D01*
X170731206Y-103149424D01*
X170691329Y-103245696D01*
X170671000Y-103347898D01*
X170671000Y-103452102D01*
X170691329Y-103554304D01*
X170731206Y-103650576D01*
X170764230Y-103700000D01*
X170731206Y-103749424D01*
X170691329Y-103845696D01*
X170671000Y-103947898D01*
X170671000Y-104052102D01*
X170691329Y-104154304D01*
X170731206Y-104250576D01*
X170764230Y-104300000D01*
X170731206Y-104349424D01*
X170691329Y-104445696D01*
X170671000Y-104547898D01*
X170671000Y-104652102D01*
X170691329Y-104754304D01*
X170731206Y-104850576D01*
X170764230Y-104900000D01*
X170731206Y-104949424D01*
X170691329Y-105045696D01*
X170671000Y-105147898D01*
X170671000Y-105252102D01*
X170691329Y-105354304D01*
X170731206Y-105450576D01*
X170789099Y-105537218D01*
X170862782Y-105610901D01*
X170949424Y-105668794D01*
X171045696Y-105708671D01*
X171147898Y-105729000D01*
X171252102Y-105729000D01*
X171354304Y-105708671D01*
X171450576Y-105668794D01*
X171500000Y-105635770D01*
X171549424Y-105668794D01*
X171645696Y-105708671D01*
X171747898Y-105729000D01*
X171852102Y-105729000D01*
X171954304Y-105708671D01*
X172050576Y-105668794D01*
X172075000Y-105652474D01*
X172075000Y-105984039D01*
X172073428Y-106000000D01*
X172079703Y-106063711D01*
X172098287Y-106124974D01*
X172128465Y-106181434D01*
X172169079Y-106230921D01*
X172218566Y-106271535D01*
X172275026Y-106301713D01*
X172336289Y-106320297D01*
X172400000Y-106326572D01*
X172415960Y-106325000D01*
X183584040Y-106325000D01*
X183600000Y-106326572D01*
X183663711Y-106320297D01*
X183724974Y-106301713D01*
X183781434Y-106271535D01*
X183830921Y-106230921D01*
X183871535Y-106181434D01*
X183901713Y-106124974D01*
X183920297Y-106063711D01*
X183925000Y-106015961D01*
X183925000Y-106015960D01*
X183926572Y-106000000D01*
X183925000Y-105984039D01*
X183925000Y-103324445D01*
X183947898Y-103329000D01*
X184052102Y-103329000D01*
X184154304Y-103308671D01*
X184250576Y-103268794D01*
X184300000Y-103235770D01*
X184349424Y-103268794D01*
X184445696Y-103308671D01*
X184547898Y-103329000D01*
X184652102Y-103329000D01*
X184754304Y-103308671D01*
X184850576Y-103268794D01*
X184900000Y-103235770D01*
X184949424Y-103268794D01*
X185045696Y-103308671D01*
X185147898Y-103329000D01*
X185252102Y-103329000D01*
X185354304Y-103308671D01*
X185450576Y-103268794D01*
X185500000Y-103235770D01*
X185549424Y-103268794D01*
X185645696Y-103308671D01*
X185747898Y-103329000D01*
X185852102Y-103329000D01*
X185954304Y-103308671D01*
X186050576Y-103268794D01*
X186100000Y-103235770D01*
X186149424Y-103268794D01*
X186245696Y-103308671D01*
X186347898Y-103329000D01*
X186452102Y-103329000D01*
X186554304Y-103308671D01*
X186650576Y-103268794D01*
X186737218Y-103210901D01*
X186810901Y-103137218D01*
X186868794Y-103050576D01*
X186908671Y-102954304D01*
X186929000Y-102852102D01*
X186929000Y-102747898D01*
X186908671Y-102645696D01*
X186868794Y-102549424D01*
X186835770Y-102500000D01*
X186868794Y-102450576D01*
X186908671Y-102354304D01*
X186929000Y-102252102D01*
X186929000Y-102147898D01*
X186908671Y-102045696D01*
X186868794Y-101949424D01*
X186810901Y-101862782D01*
X186737218Y-101789099D01*
X186650576Y-101731206D01*
X186554304Y-101691329D01*
X186452102Y-101671000D01*
X186347898Y-101671000D01*
X186245696Y-101691329D01*
X186149424Y-101731206D01*
X186100000Y-101764230D01*
X186050576Y-101731206D01*
X185954304Y-101691329D01*
X185852102Y-101671000D01*
X185747898Y-101671000D01*
X185645696Y-101691329D01*
X185549424Y-101731206D01*
X185500000Y-101764230D01*
X185450576Y-101731206D01*
X185354304Y-101691329D01*
X185252102Y-101671000D01*
X185147898Y-101671000D01*
X185045696Y-101691329D01*
X184949424Y-101731206D01*
X184900000Y-101764230D01*
X184850576Y-101731206D01*
X184754304Y-101691329D01*
X184652102Y-101671000D01*
X184547898Y-101671000D01*
X184445696Y-101691329D01*
X184349424Y-101731206D01*
X184300000Y-101764230D01*
X184250576Y-101731206D01*
X184154304Y-101691329D01*
X184052102Y-101671000D01*
X183947898Y-101671000D01*
X183925000Y-101675555D01*
X183925000Y-99828200D01*
X189521000Y-99828200D01*
X189521000Y-99971800D01*
X189549015Y-100112641D01*
X189603969Y-100245311D01*
X189683749Y-100364710D01*
X189785290Y-100466251D01*
X189904689Y-100546031D01*
X190037359Y-100600985D01*
X190178200Y-100629000D01*
X190321800Y-100629000D01*
X190462641Y-100600985D01*
X190595311Y-100546031D01*
X190714710Y-100466251D01*
X190816251Y-100364710D01*
X190896031Y-100245311D01*
X190950985Y-100112641D01*
X190973390Y-100000000D01*
X195344436Y-100000000D01*
X195366640Y-100225439D01*
X195432398Y-100442215D01*
X195539184Y-100641997D01*
X195682893Y-100817107D01*
X195858003Y-100960816D01*
X195931311Y-101000000D01*
X195858003Y-101039184D01*
X195682893Y-101182893D01*
X195539184Y-101358003D01*
X195432398Y-101557785D01*
X195366640Y-101774561D01*
X195344436Y-102000000D01*
X195366640Y-102225439D01*
X195432398Y-102442215D01*
X195539184Y-102641997D01*
X195682893Y-102817107D01*
X195858003Y-102960816D01*
X196057785Y-103067602D01*
X196274561Y-103133360D01*
X196443508Y-103150000D01*
X196556492Y-103150000D01*
X196725439Y-103133360D01*
X196942215Y-103067602D01*
X197141997Y-102960816D01*
X197317107Y-102817107D01*
X197460816Y-102641997D01*
X197567602Y-102442215D01*
X197633360Y-102225439D01*
X197643252Y-102125002D01*
X197665561Y-102125002D01*
X197639250Y-102262887D01*
X197705462Y-102422758D01*
X197803205Y-102569641D01*
X197927725Y-102694633D01*
X198074237Y-102792931D01*
X198237111Y-102860757D01*
X198375000Y-102835035D01*
X198375000Y-102125000D01*
X198625000Y-102125000D01*
X198625000Y-102835035D01*
X198762889Y-102860757D01*
X198925763Y-102792931D01*
X199072275Y-102694633D01*
X199196795Y-102569641D01*
X199294538Y-102422758D01*
X199360750Y-102262887D01*
X199334439Y-102125000D01*
X198625000Y-102125000D01*
X198375000Y-102125000D01*
X198355000Y-102125000D01*
X198355000Y-101875000D01*
X198375000Y-101875000D01*
X198375000Y-101164965D01*
X198625000Y-101164965D01*
X198625000Y-101875000D01*
X199334439Y-101875000D01*
X199360750Y-101737113D01*
X199294538Y-101577242D01*
X199196795Y-101430359D01*
X199072275Y-101305367D01*
X198925763Y-101207069D01*
X198762889Y-101139243D01*
X198625000Y-101164965D01*
X198375000Y-101164965D01*
X198237111Y-101139243D01*
X198074237Y-101207069D01*
X197927725Y-101305367D01*
X197803205Y-101430359D01*
X197705462Y-101577242D01*
X197639250Y-101737113D01*
X197665561Y-101874998D01*
X197643252Y-101874998D01*
X197633360Y-101774561D01*
X197567602Y-101557785D01*
X197460816Y-101358003D01*
X197317107Y-101182893D01*
X197141997Y-101039184D01*
X197068689Y-101000000D01*
X197141997Y-100960816D01*
X197317107Y-100817107D01*
X197460816Y-100641997D01*
X197567602Y-100442215D01*
X197633360Y-100225439D01*
X197643252Y-100125002D01*
X197665561Y-100125002D01*
X197639250Y-100262887D01*
X197705462Y-100422758D01*
X197803205Y-100569641D01*
X197927725Y-100694633D01*
X198074237Y-100792931D01*
X198237111Y-100860757D01*
X198375000Y-100835035D01*
X198375000Y-100125000D01*
X198625000Y-100125000D01*
X198625000Y-100835035D01*
X198762889Y-100860757D01*
X198925763Y-100792931D01*
X199072275Y-100694633D01*
X199196795Y-100569641D01*
X199294538Y-100422758D01*
X199360750Y-100262887D01*
X199334439Y-100125000D01*
X198625000Y-100125000D01*
X198375000Y-100125000D01*
X198355000Y-100125000D01*
X198355000Y-99875000D01*
X198375000Y-99875000D01*
X198375000Y-99164965D01*
X198625000Y-99164965D01*
X198625000Y-99875000D01*
X199334439Y-99875000D01*
X199360750Y-99737113D01*
X199294538Y-99577242D01*
X199196795Y-99430359D01*
X199072275Y-99305367D01*
X198925763Y-99207069D01*
X198762889Y-99139243D01*
X198625000Y-99164965D01*
X198375000Y-99164965D01*
X198237111Y-99139243D01*
X198074237Y-99207069D01*
X197927725Y-99305367D01*
X197803205Y-99430359D01*
X197705462Y-99577242D01*
X197639250Y-99737113D01*
X197665561Y-99874998D01*
X197643252Y-99874998D01*
X197633360Y-99774561D01*
X197567602Y-99557785D01*
X197460816Y-99358003D01*
X197317107Y-99182893D01*
X197141997Y-99039184D01*
X197071272Y-99001381D01*
X197233082Y-98893263D01*
X197393263Y-98733082D01*
X197519116Y-98544729D01*
X197605806Y-98335443D01*
X197647665Y-98125002D01*
X197665561Y-98125002D01*
X197639250Y-98262887D01*
X197705462Y-98422758D01*
X197803205Y-98569641D01*
X197927725Y-98694633D01*
X198074237Y-98792931D01*
X198237111Y-98860757D01*
X198375000Y-98835035D01*
X198375000Y-98125000D01*
X198625000Y-98125000D01*
X198625000Y-98835035D01*
X198762889Y-98860757D01*
X198925763Y-98792931D01*
X199072275Y-98694633D01*
X199196795Y-98569641D01*
X199294538Y-98422758D01*
X199360750Y-98262887D01*
X199334439Y-98125000D01*
X198625000Y-98125000D01*
X198375000Y-98125000D01*
X198355000Y-98125000D01*
X198355000Y-97875000D01*
X198375000Y-97875000D01*
X198375000Y-97164965D01*
X198625000Y-97164965D01*
X198625000Y-97875000D01*
X199334439Y-97875000D01*
X199360750Y-97737113D01*
X199294538Y-97577242D01*
X199196795Y-97430359D01*
X199072275Y-97305367D01*
X198925763Y-97207069D01*
X198762889Y-97139243D01*
X198625000Y-97164965D01*
X198375000Y-97164965D01*
X198237111Y-97139243D01*
X198074237Y-97207069D01*
X197927725Y-97305367D01*
X197803205Y-97430359D01*
X197705462Y-97577242D01*
X197639250Y-97737113D01*
X197665561Y-97874998D01*
X197647665Y-97874998D01*
X197605806Y-97664557D01*
X197519116Y-97455271D01*
X197393263Y-97266918D01*
X197233082Y-97106737D01*
X197044729Y-96980884D01*
X196835443Y-96894194D01*
X196613265Y-96850000D01*
X196386735Y-96850000D01*
X196164557Y-96894194D01*
X195955271Y-96980884D01*
X195766918Y-97106737D01*
X195606737Y-97266918D01*
X195480884Y-97455271D01*
X195394194Y-97664557D01*
X195350000Y-97886735D01*
X195350000Y-98113265D01*
X195394194Y-98335443D01*
X195480884Y-98544729D01*
X195606737Y-98733082D01*
X195766918Y-98893263D01*
X195928728Y-99001381D01*
X195858003Y-99039184D01*
X195682893Y-99182893D01*
X195539184Y-99358003D01*
X195432398Y-99557785D01*
X195366640Y-99774561D01*
X195344436Y-100000000D01*
X190973390Y-100000000D01*
X190979000Y-99971800D01*
X190979000Y-99828200D01*
X190950985Y-99687359D01*
X190896031Y-99554689D01*
X190816251Y-99435290D01*
X190714710Y-99333749D01*
X190595311Y-99253969D01*
X190462641Y-99199015D01*
X190321800Y-99171000D01*
X190178200Y-99171000D01*
X190037359Y-99199015D01*
X189904689Y-99253969D01*
X189785290Y-99333749D01*
X189683749Y-99435290D01*
X189603969Y-99554689D01*
X189549015Y-99687359D01*
X189521000Y-99828200D01*
X183925000Y-99828200D01*
X183925000Y-94015961D01*
X183926572Y-94000000D01*
X183920297Y-93936289D01*
X183901713Y-93875026D01*
X183871535Y-93818566D01*
X183830921Y-93769079D01*
X183781434Y-93728465D01*
X183724974Y-93698287D01*
X183663711Y-93679703D01*
X183615961Y-93675000D01*
X183615960Y-93675000D01*
X183600000Y-93673428D01*
X183584039Y-93675000D01*
X172415961Y-93675000D01*
X172400000Y-93673428D01*
X172384040Y-93675000D01*
X172384039Y-93675000D01*
X172336289Y-93679703D01*
X172275026Y-93698287D01*
X172218566Y-93728465D01*
X172169079Y-93769079D01*
X172128465Y-93818566D01*
X172098287Y-93875026D01*
X172079703Y-93936289D01*
X172073428Y-94000000D01*
X172075001Y-94015971D01*
X172075001Y-94347526D01*
X172050576Y-94331206D01*
X171954304Y-94291329D01*
X171852102Y-94271000D01*
X171747898Y-94271000D01*
X171645696Y-94291329D01*
X171549424Y-94331206D01*
X171500000Y-94364230D01*
X171450576Y-94331206D01*
X171354304Y-94291329D01*
X171252102Y-94271000D01*
X171147898Y-94271000D01*
X171045696Y-94291329D01*
X170949424Y-94331206D01*
X170862782Y-94389099D01*
X170789099Y-94462782D01*
X170731206Y-94549424D01*
X170691329Y-94645696D01*
X170671000Y-94747898D01*
X164930655Y-94747898D01*
X164812641Y-94699015D01*
X164671800Y-94671000D01*
X164528200Y-94671000D01*
X164387359Y-94699015D01*
X164254689Y-94753969D01*
X164135290Y-94833749D01*
X164033749Y-94935290D01*
X163953969Y-95054689D01*
X163899015Y-95187359D01*
X163871000Y-95328200D01*
X161625082Y-95328200D01*
X161608671Y-95245696D01*
X161568794Y-95149424D01*
X161510901Y-95062782D01*
X161437218Y-94989099D01*
X161350576Y-94931206D01*
X161329000Y-94922269D01*
X161329000Y-94847898D01*
X161308671Y-94745696D01*
X161268794Y-94649424D01*
X161210901Y-94562782D01*
X161137218Y-94489099D01*
X161050576Y-94431206D01*
X160954304Y-94391329D01*
X160852102Y-94371000D01*
X160747898Y-94371000D01*
X160645696Y-94391329D01*
X160549424Y-94431206D01*
X160500000Y-94464230D01*
X160450576Y-94431206D01*
X160354304Y-94391329D01*
X160252102Y-94371000D01*
X160147898Y-94371000D01*
X160045696Y-94391329D01*
X159949424Y-94431206D01*
X159862782Y-94489099D01*
X159789099Y-94562782D01*
X159731206Y-94649424D01*
X159691329Y-94745696D01*
X159671000Y-94847898D01*
X159671000Y-94922269D01*
X159649424Y-94931206D01*
X159600000Y-94964230D01*
X159550576Y-94931206D01*
X159454304Y-94891329D01*
X159352102Y-94871000D01*
X159247898Y-94871000D01*
X159145696Y-94891329D01*
X159049424Y-94931206D01*
X158962782Y-94989099D01*
X158889099Y-95062782D01*
X158831206Y-95149424D01*
X158791329Y-95245696D01*
X158771000Y-95347898D01*
X155142348Y-95347898D01*
X155120205Y-95226610D01*
X155045892Y-95038875D01*
X155030569Y-95010206D01*
X154901208Y-94915569D01*
X154306777Y-95510000D01*
X153953223Y-95510000D01*
X153358792Y-94915569D01*
X153229431Y-95010206D01*
X153149230Y-95195502D01*
X153106720Y-95392883D01*
X153103534Y-95594765D01*
X153111954Y-95640887D01*
X153102144Y-95631077D01*
X153051315Y-95681906D01*
X153015301Y-95601001D01*
X152925302Y-95572965D01*
X152941221Y-95521863D01*
X152952645Y-95414127D01*
X152942831Y-95306231D01*
X152912156Y-95202324D01*
X152908999Y-95194699D01*
X152828093Y-95158684D01*
X152576777Y-95410000D01*
X152590919Y-95424142D01*
X152414142Y-95600919D01*
X152400000Y-95586777D01*
X152385858Y-95600919D01*
X152209081Y-95424142D01*
X152223223Y-95410000D01*
X152145170Y-95331947D01*
X152142831Y-95306231D01*
X152112156Y-95202324D01*
X152108999Y-95194699D01*
X152028093Y-95158684D01*
X152000000Y-95186777D01*
X151971907Y-95158684D01*
X151891001Y-95194699D01*
X151858779Y-95298137D01*
X151855237Y-95331540D01*
X151776777Y-95410000D01*
X151790919Y-95424142D01*
X151614142Y-95600919D01*
X151600000Y-95586777D01*
X151585858Y-95600919D01*
X151409081Y-95424142D01*
X151423223Y-95410000D01*
X151345170Y-95331947D01*
X151342831Y-95306231D01*
X151312156Y-95202324D01*
X151308999Y-95194699D01*
X151228093Y-95158684D01*
X151200000Y-95186777D01*
X151171907Y-95158684D01*
X151091001Y-95194699D01*
X151058779Y-95298137D01*
X151055237Y-95331540D01*
X150976777Y-95410000D01*
X150990919Y-95424142D01*
X150814142Y-95600919D01*
X150800000Y-95586777D01*
X150785858Y-95600919D01*
X150609081Y-95424142D01*
X150623223Y-95410000D01*
X150371907Y-95158684D01*
X150291001Y-95194699D01*
X150258779Y-95298137D01*
X150247355Y-95405873D01*
X150257169Y-95513769D01*
X150260763Y-95525942D01*
X150224986Y-95533058D01*
X150115793Y-95578287D01*
X150017522Y-95643950D01*
X150000000Y-95661472D01*
X149982478Y-95643950D01*
X149884207Y-95578287D01*
X149786343Y-95537751D01*
X149800000Y-95469095D01*
X149800000Y-95350905D01*
X149776942Y-95234986D01*
X149731713Y-95125793D01*
X149666050Y-95027522D01*
X149620435Y-94981907D01*
X150548684Y-94981907D01*
X150800000Y-95233223D01*
X151051316Y-94981907D01*
X151348684Y-94981907D01*
X151600000Y-95233223D01*
X151851316Y-94981907D01*
X152148684Y-94981907D01*
X152400000Y-95233223D01*
X152651316Y-94981907D01*
X152615301Y-94901001D01*
X152511863Y-94868779D01*
X152404127Y-94857355D01*
X152296231Y-94867169D01*
X152192324Y-94897844D01*
X152184699Y-94901001D01*
X152148684Y-94981907D01*
X151851316Y-94981907D01*
X151815301Y-94901001D01*
X151711863Y-94868779D01*
X151604127Y-94857355D01*
X151496231Y-94867169D01*
X151392324Y-94897844D01*
X151384699Y-94901001D01*
X151348684Y-94981907D01*
X151051316Y-94981907D01*
X151015301Y-94901001D01*
X150911863Y-94868779D01*
X150804127Y-94857355D01*
X150696231Y-94867169D01*
X150592324Y-94897844D01*
X150584699Y-94901001D01*
X150548684Y-94981907D01*
X149620435Y-94981907D01*
X149582478Y-94943950D01*
X149484207Y-94878287D01*
X149375014Y-94833058D01*
X149259095Y-94810000D01*
X149140905Y-94810000D01*
X149024986Y-94833058D01*
X148915793Y-94878287D01*
X148817522Y-94943950D01*
X148766270Y-94995203D01*
X148702144Y-94931077D01*
X148651315Y-94981906D01*
X148615301Y-94901001D01*
X148511863Y-94868779D01*
X148404127Y-94857355D01*
X148296231Y-94867169D01*
X148192324Y-94897844D01*
X148184699Y-94901001D01*
X148148684Y-94981907D01*
X148400000Y-95233223D01*
X148414142Y-95219081D01*
X148590919Y-95395858D01*
X148576777Y-95410000D01*
X148590919Y-95424142D01*
X148414142Y-95600919D01*
X148400000Y-95586777D01*
X148385858Y-95600919D01*
X148209081Y-95424142D01*
X148223223Y-95410000D01*
X148145170Y-95331947D01*
X148142831Y-95306231D01*
X148112156Y-95202324D01*
X148108999Y-95194699D01*
X148028093Y-95158684D01*
X148000000Y-95186777D01*
X147971907Y-95158684D01*
X147891001Y-95194699D01*
X147858779Y-95298137D01*
X147855237Y-95331540D01*
X147776777Y-95410000D01*
X147790919Y-95424142D01*
X147614142Y-95600919D01*
X147600000Y-95586777D01*
X147585858Y-95600919D01*
X147409081Y-95424142D01*
X147423223Y-95410000D01*
X147171907Y-95158684D01*
X147091001Y-95194699D01*
X147058779Y-95298137D01*
X147047355Y-95405873D01*
X147057169Y-95513769D01*
X147074801Y-95573495D01*
X146992324Y-95597844D01*
X146984699Y-95601001D01*
X146948685Y-95681906D01*
X146897856Y-95631077D01*
X146890937Y-95637996D01*
X146893280Y-95627117D01*
X146896466Y-95425235D01*
X146860205Y-95226610D01*
X146785892Y-95038875D01*
X146770569Y-95010206D01*
X146731887Y-94981907D01*
X147348684Y-94981907D01*
X147600000Y-95233223D01*
X147851316Y-94981907D01*
X147815301Y-94901001D01*
X147711863Y-94868779D01*
X147604127Y-94857355D01*
X147496231Y-94867169D01*
X147392324Y-94897844D01*
X147384699Y-94901001D01*
X147348684Y-94981907D01*
X146731887Y-94981907D01*
X146641208Y-94915569D01*
X146046777Y-95510000D01*
X146060919Y-95524142D01*
X145884142Y-95700919D01*
X145870000Y-95686777D01*
X145275569Y-96281208D01*
X132015735Y-96281208D01*
X132008671Y-96245696D01*
X131968794Y-96149424D01*
X131910901Y-96062782D01*
X131837218Y-95989099D01*
X131750576Y-95931206D01*
X131675238Y-95900000D01*
X131750576Y-95868794D01*
X131837218Y-95810901D01*
X131910901Y-95737218D01*
X131968794Y-95650576D01*
X132008671Y-95554304D01*
X132029000Y-95452102D01*
X132029000Y-95347898D01*
X132008671Y-95245696D01*
X131968794Y-95149424D01*
X131910901Y-95062782D01*
X131837218Y-94989099D01*
X131750576Y-94931206D01*
X131654304Y-94891329D01*
X131552102Y-94871000D01*
X131447898Y-94871000D01*
X131419789Y-94876591D01*
X131408671Y-94820696D01*
X131368794Y-94724424D01*
X131319065Y-94650000D01*
X131368794Y-94575576D01*
X131408671Y-94479304D01*
X131429000Y-94377102D01*
X131429000Y-94347898D01*
X137271000Y-94347898D01*
X137271000Y-94452102D01*
X137291329Y-94554304D01*
X137331206Y-94650576D01*
X137389099Y-94737218D01*
X137462782Y-94810901D01*
X137549424Y-94868794D01*
X137645696Y-94908671D01*
X137671000Y-94913704D01*
X137671000Y-94952102D01*
X137691329Y-95054304D01*
X137731206Y-95150576D01*
X137789099Y-95237218D01*
X137862782Y-95310901D01*
X137949424Y-95368794D01*
X138045696Y-95408671D01*
X138147898Y-95429000D01*
X138252102Y-95429000D01*
X138354304Y-95408671D01*
X138450576Y-95368794D01*
X138481848Y-95347898D01*
X139071000Y-95347898D01*
X139071000Y-95452102D01*
X139091329Y-95554304D01*
X139131206Y-95650576D01*
X139189099Y-95737218D01*
X139262782Y-95810901D01*
X139349424Y-95868794D01*
X139445696Y-95908671D01*
X139547898Y-95929000D01*
X139652102Y-95929000D01*
X139754304Y-95908671D01*
X139850576Y-95868794D01*
X139937218Y-95810901D01*
X140010901Y-95737218D01*
X140068794Y-95650576D01*
X140091911Y-95594765D01*
X144843534Y-95594765D01*
X144879795Y-95793390D01*
X144954108Y-95981125D01*
X144969431Y-96009794D01*
X145098792Y-96104431D01*
X145693223Y-95510000D01*
X145098792Y-94915569D01*
X144969431Y-95010206D01*
X144889230Y-95195502D01*
X144846720Y-95392883D01*
X144843534Y-95594765D01*
X140091911Y-95594765D01*
X140108671Y-95554304D01*
X140129000Y-95452102D01*
X140129000Y-95347898D01*
X140108671Y-95245696D01*
X140068794Y-95149424D01*
X140010901Y-95062782D01*
X139937218Y-94989099D01*
X139850576Y-94931206D01*
X139754304Y-94891329D01*
X139652102Y-94871000D01*
X139547898Y-94871000D01*
X139445696Y-94891329D01*
X139349424Y-94931206D01*
X139262782Y-94989099D01*
X139189099Y-95062782D01*
X139131206Y-95149424D01*
X139091329Y-95245696D01*
X139071000Y-95347898D01*
X138481848Y-95347898D01*
X138537218Y-95310901D01*
X138610901Y-95237218D01*
X138668794Y-95150576D01*
X138708671Y-95054304D01*
X138729000Y-94952102D01*
X138729000Y-94847898D01*
X138708671Y-94745696D01*
X138705812Y-94738792D01*
X145275569Y-94738792D01*
X145870000Y-95333223D01*
X146464431Y-94738792D01*
X153535569Y-94738792D01*
X154130000Y-95333223D01*
X154724431Y-94738792D01*
X154629794Y-94609431D01*
X154444498Y-94529230D01*
X154247117Y-94486720D01*
X154045235Y-94483534D01*
X153846610Y-94519795D01*
X153658875Y-94594108D01*
X153630206Y-94609431D01*
X153535569Y-94738792D01*
X146464431Y-94738792D01*
X146369794Y-94609431D01*
X146184498Y-94529230D01*
X145987117Y-94486720D01*
X145785235Y-94483534D01*
X145586610Y-94519795D01*
X145398875Y-94594108D01*
X145370206Y-94609431D01*
X145275569Y-94738792D01*
X138705812Y-94738792D01*
X138668794Y-94649424D01*
X138610901Y-94562782D01*
X138537218Y-94489099D01*
X138475558Y-94447898D01*
X157371000Y-94447898D01*
X157371000Y-94552102D01*
X157391329Y-94654304D01*
X157431206Y-94750576D01*
X157489099Y-94837218D01*
X157562782Y-94910901D01*
X157649424Y-94968794D01*
X157745696Y-95008671D01*
X157847898Y-95029000D01*
X157952102Y-95029000D01*
X158054304Y-95008671D01*
X158150576Y-94968794D01*
X158237218Y-94910901D01*
X158310901Y-94837218D01*
X158368794Y-94750576D01*
X158408671Y-94654304D01*
X158429000Y-94552102D01*
X158429000Y-94447898D01*
X158408671Y-94345696D01*
X158368794Y-94249424D01*
X158310901Y-94162782D01*
X158237218Y-94089099D01*
X158150576Y-94031206D01*
X158054304Y-93991329D01*
X157952102Y-93971000D01*
X157847898Y-93971000D01*
X157745696Y-93991329D01*
X157649424Y-94031206D01*
X157562782Y-94089099D01*
X157489099Y-94162782D01*
X157431206Y-94249424D01*
X157391329Y-94345696D01*
X157371000Y-94447898D01*
X138475558Y-94447898D01*
X138450576Y-94431206D01*
X138354304Y-94391329D01*
X138329000Y-94386296D01*
X138329000Y-94347898D01*
X138308671Y-94245696D01*
X138268794Y-94149424D01*
X138210901Y-94062782D01*
X138137218Y-93989099D01*
X138050576Y-93931206D01*
X137954304Y-93891329D01*
X137852102Y-93871000D01*
X137747898Y-93871000D01*
X137645696Y-93891329D01*
X137549424Y-93931206D01*
X137462782Y-93989099D01*
X137389099Y-94062782D01*
X137331206Y-94149424D01*
X137291329Y-94245696D01*
X137271000Y-94347898D01*
X131429000Y-94347898D01*
X131429000Y-94272898D01*
X131408671Y-94170696D01*
X131368794Y-94074424D01*
X131310901Y-93987782D01*
X131237218Y-93914099D01*
X131150576Y-93856206D01*
X131130519Y-93847898D01*
X138321000Y-93847898D01*
X138321000Y-93952102D01*
X138341329Y-94054304D01*
X138381206Y-94150576D01*
X138439099Y-94237218D01*
X138512782Y-94310901D01*
X138599424Y-94368794D01*
X138695696Y-94408671D01*
X138797898Y-94429000D01*
X138902102Y-94429000D01*
X139004304Y-94408671D01*
X139100576Y-94368794D01*
X139187218Y-94310901D01*
X139260901Y-94237218D01*
X139318794Y-94150576D01*
X139358671Y-94054304D01*
X139379000Y-93952102D01*
X139379000Y-93909294D01*
X145042483Y-93909294D01*
X145161347Y-94059166D01*
X145380842Y-94159411D01*
X145615677Y-94214909D01*
X145856826Y-94223527D01*
X146095024Y-94184933D01*
X146321116Y-94100610D01*
X146398653Y-94059166D01*
X146517517Y-93909294D01*
X153482483Y-93909294D01*
X153601347Y-94059166D01*
X153820842Y-94159411D01*
X154055677Y-94214909D01*
X154296826Y-94223527D01*
X154535024Y-94184933D01*
X154761116Y-94100610D01*
X154838653Y-94059166D01*
X154957517Y-93909294D01*
X154220000Y-93171777D01*
X153482483Y-93909294D01*
X146517517Y-93909294D01*
X145780000Y-93171777D01*
X145042483Y-93909294D01*
X139379000Y-93909294D01*
X139379000Y-93847898D01*
X139358671Y-93745696D01*
X139318794Y-93649424D01*
X139260901Y-93562782D01*
X139187218Y-93489099D01*
X139100576Y-93431206D01*
X139004304Y-93391329D01*
X138902102Y-93371000D01*
X138797898Y-93371000D01*
X138695696Y-93391329D01*
X138599424Y-93431206D01*
X138512782Y-93489099D01*
X138439099Y-93562782D01*
X138381206Y-93649424D01*
X138341329Y-93745696D01*
X138321000Y-93847898D01*
X131130519Y-93847898D01*
X131054304Y-93816329D01*
X130952102Y-93796000D01*
X130847898Y-93796000D01*
X130745696Y-93816329D01*
X130649424Y-93856206D01*
X130562782Y-93914099D01*
X130489099Y-93987782D01*
X130431206Y-94074424D01*
X130391329Y-94170696D01*
X130371000Y-94272898D01*
X130371000Y-94377102D01*
X130391329Y-94479304D01*
X130431206Y-94575576D01*
X130480935Y-94650000D01*
X130431206Y-94724424D01*
X130391329Y-94820696D01*
X130380211Y-94876591D01*
X130352102Y-94871000D01*
X130247898Y-94871000D01*
X130145696Y-94891329D01*
X130049424Y-94931206D01*
X129962782Y-94989099D01*
X129889099Y-95062782D01*
X129831206Y-95149424D01*
X129791329Y-95245696D01*
X129771000Y-95347898D01*
X100325000Y-95347898D01*
X100325000Y-94397898D01*
X123671000Y-94397898D01*
X123671000Y-94502102D01*
X123691329Y-94604304D01*
X123731206Y-94700576D01*
X123789099Y-94787218D01*
X123862782Y-94860901D01*
X123949424Y-94918794D01*
X124045696Y-94958671D01*
X124147898Y-94979000D01*
X124252102Y-94979000D01*
X124354304Y-94958671D01*
X124450576Y-94918794D01*
X124500000Y-94885770D01*
X124549424Y-94918794D01*
X124645696Y-94958671D01*
X124747898Y-94979000D01*
X124852102Y-94979000D01*
X124954304Y-94958671D01*
X125050576Y-94918794D01*
X125100000Y-94885770D01*
X125149424Y-94918794D01*
X125245696Y-94958671D01*
X125347898Y-94979000D01*
X125452102Y-94979000D01*
X125554304Y-94958671D01*
X125650576Y-94918794D01*
X125737218Y-94860901D01*
X125810901Y-94787218D01*
X125868794Y-94700576D01*
X125908671Y-94604304D01*
X125929000Y-94502102D01*
X125929000Y-94397898D01*
X125908671Y-94295696D01*
X125868794Y-94199424D01*
X125810901Y-94112782D01*
X125737218Y-94039099D01*
X125650576Y-93981206D01*
X125554304Y-93941329D01*
X125452102Y-93921000D01*
X125347898Y-93921000D01*
X125245696Y-93941329D01*
X125149424Y-93981206D01*
X125100000Y-94014230D01*
X125050576Y-93981206D01*
X124954304Y-93941329D01*
X124852102Y-93921000D01*
X124747898Y-93921000D01*
X124645696Y-93941329D01*
X124549424Y-93981206D01*
X124500000Y-94014230D01*
X124450576Y-93981206D01*
X124354304Y-93941329D01*
X124252102Y-93921000D01*
X124147898Y-93921000D01*
X124045696Y-93941329D01*
X123949424Y-93981206D01*
X123862782Y-94039099D01*
X123789099Y-94112782D01*
X123731206Y-94199424D01*
X123691329Y-94295696D01*
X123671000Y-94397898D01*
X100325000Y-94397898D01*
X100325000Y-94015896D01*
X100370887Y-93547898D01*
X128971000Y-93547898D01*
X128971000Y-93652102D01*
X128991329Y-93754304D01*
X129031206Y-93850576D01*
X129089099Y-93937218D01*
X129162782Y-94010901D01*
X129249424Y-94068794D01*
X129345696Y-94108671D01*
X129447898Y-94129000D01*
X129552102Y-94129000D01*
X129654304Y-94108671D01*
X129750576Y-94068794D01*
X129837218Y-94010901D01*
X129910901Y-93937218D01*
X129968794Y-93850576D01*
X130008671Y-93754304D01*
X130029000Y-93652102D01*
X130029000Y-93629000D01*
X130052102Y-93629000D01*
X130154304Y-93608671D01*
X130250576Y-93568794D01*
X130337218Y-93510901D01*
X130410901Y-93437218D01*
X130468794Y-93350576D01*
X130508671Y-93254304D01*
X130529000Y-93152102D01*
X130529000Y-93047898D01*
X130508671Y-92945696D01*
X130497612Y-92918998D01*
X130547898Y-92929000D01*
X130652102Y-92929000D01*
X130754304Y-92908671D01*
X130850576Y-92868794D01*
X130937218Y-92810901D01*
X130988574Y-92759545D01*
X130971000Y-92847898D01*
X130971000Y-92952102D01*
X130991329Y-93054304D01*
X131031206Y-93150576D01*
X131089099Y-93237218D01*
X131162782Y-93310901D01*
X131249424Y-93368794D01*
X131345696Y-93408671D01*
X131447898Y-93429000D01*
X131552102Y-93429000D01*
X131654304Y-93408671D01*
X131750576Y-93368794D01*
X131837218Y-93310901D01*
X131910901Y-93237218D01*
X131968794Y-93150576D01*
X132008671Y-93054304D01*
X132029000Y-92952102D01*
X132029000Y-92847898D01*
X137271000Y-92847898D01*
X137271000Y-92952102D01*
X137291329Y-93054304D01*
X137331206Y-93150576D01*
X137389099Y-93237218D01*
X137462782Y-93310901D01*
X137549424Y-93368794D01*
X137645696Y-93408671D01*
X137747898Y-93429000D01*
X137852102Y-93429000D01*
X137954304Y-93408671D01*
X138050576Y-93368794D01*
X138137218Y-93310901D01*
X138210901Y-93237218D01*
X138268794Y-93150576D01*
X138308671Y-93054304D01*
X138329000Y-92952102D01*
X138329000Y-92847898D01*
X142271000Y-92847898D01*
X142271000Y-92952102D01*
X142291329Y-93054304D01*
X142331206Y-93150576D01*
X142389099Y-93237218D01*
X142462782Y-93310901D01*
X142549424Y-93368794D01*
X142645696Y-93408671D01*
X142747898Y-93429000D01*
X142852102Y-93429000D01*
X142954304Y-93408671D01*
X143050576Y-93368794D01*
X143137218Y-93310901D01*
X143210901Y-93237218D01*
X143268794Y-93150576D01*
X143301413Y-93071826D01*
X144551473Y-93071826D01*
X144590067Y-93310024D01*
X144674390Y-93536116D01*
X144715834Y-93613653D01*
X144865706Y-93732517D01*
X145603223Y-92995000D01*
X145956777Y-92995000D01*
X146694294Y-93732517D01*
X146844166Y-93613653D01*
X146944411Y-93394158D01*
X146999909Y-93159323D01*
X147003035Y-93071826D01*
X152991473Y-93071826D01*
X153030067Y-93310024D01*
X153114390Y-93536116D01*
X153155834Y-93613653D01*
X153305706Y-93732517D01*
X154043223Y-92995000D01*
X154396777Y-92995000D01*
X155134294Y-93732517D01*
X155284166Y-93613653D01*
X155384411Y-93394158D01*
X155439909Y-93159323D01*
X155448527Y-92918174D01*
X155409933Y-92679976D01*
X155325610Y-92453884D01*
X155311882Y-92428200D01*
X182471000Y-92428200D01*
X182471000Y-92571800D01*
X182499015Y-92712641D01*
X182553969Y-92845311D01*
X182633749Y-92964710D01*
X182735290Y-93066251D01*
X182854689Y-93146031D01*
X182987359Y-93200985D01*
X183128200Y-93229000D01*
X183271800Y-93229000D01*
X183412641Y-93200985D01*
X183545311Y-93146031D01*
X183664710Y-93066251D01*
X183766251Y-92964710D01*
X183846031Y-92845311D01*
X183900985Y-92712641D01*
X183929000Y-92571800D01*
X183929000Y-92428200D01*
X183900985Y-92287359D01*
X183846031Y-92154689D01*
X183766251Y-92035290D01*
X183664710Y-91933749D01*
X183545311Y-91853969D01*
X183412641Y-91799015D01*
X183271800Y-91771000D01*
X183128200Y-91771000D01*
X182987359Y-91799015D01*
X182854689Y-91853969D01*
X182735290Y-91933749D01*
X182633749Y-92035290D01*
X182553969Y-92154689D01*
X182499015Y-92287359D01*
X182471000Y-92428200D01*
X155311882Y-92428200D01*
X155284166Y-92376347D01*
X155134294Y-92257483D01*
X154396777Y-92995000D01*
X154043223Y-92995000D01*
X153305706Y-92257483D01*
X153155834Y-92376347D01*
X153055589Y-92595842D01*
X153000091Y-92830677D01*
X152991473Y-93071826D01*
X147003035Y-93071826D01*
X147008527Y-92918174D01*
X146969933Y-92679976D01*
X146885610Y-92453884D01*
X146844166Y-92376347D01*
X146694294Y-92257483D01*
X145956777Y-92995000D01*
X145603223Y-92995000D01*
X144865706Y-92257483D01*
X144715834Y-92376347D01*
X144615589Y-92595842D01*
X144560091Y-92830677D01*
X144551473Y-93071826D01*
X143301413Y-93071826D01*
X143308671Y-93054304D01*
X143329000Y-92952102D01*
X143329000Y-92847898D01*
X143308671Y-92745696D01*
X143268794Y-92649424D01*
X143210901Y-92562782D01*
X143137218Y-92489099D01*
X143050576Y-92431206D01*
X142954304Y-92391329D01*
X142852102Y-92371000D01*
X142747898Y-92371000D01*
X142645696Y-92391329D01*
X142549424Y-92431206D01*
X142462782Y-92489099D01*
X142389099Y-92562782D01*
X142331206Y-92649424D01*
X142291329Y-92745696D01*
X142271000Y-92847898D01*
X138329000Y-92847898D01*
X138308671Y-92745696D01*
X138268794Y-92649424D01*
X138210901Y-92562782D01*
X138137218Y-92489099D01*
X138050576Y-92431206D01*
X137954304Y-92391329D01*
X137852102Y-92371000D01*
X137747898Y-92371000D01*
X137645696Y-92391329D01*
X137549424Y-92431206D01*
X137462782Y-92489099D01*
X137389099Y-92562782D01*
X137331206Y-92649424D01*
X137291329Y-92745696D01*
X137271000Y-92847898D01*
X132029000Y-92847898D01*
X132008671Y-92745696D01*
X131968794Y-92649424D01*
X131910901Y-92562782D01*
X131837218Y-92489099D01*
X131750576Y-92431206D01*
X131654304Y-92391329D01*
X131552102Y-92371000D01*
X131447898Y-92371000D01*
X131345696Y-92391329D01*
X131249424Y-92431206D01*
X131162782Y-92489099D01*
X131111426Y-92540455D01*
X131129000Y-92452102D01*
X131129000Y-92347898D01*
X131108671Y-92245696D01*
X131068794Y-92149424D01*
X131022878Y-92080706D01*
X145042483Y-92080706D01*
X145780000Y-92818223D01*
X146517517Y-92080706D01*
X153482483Y-92080706D01*
X154220000Y-92818223D01*
X154957517Y-92080706D01*
X154838653Y-91930834D01*
X154619158Y-91830589D01*
X154384323Y-91775091D01*
X154143174Y-91766473D01*
X153904976Y-91805067D01*
X153678884Y-91889390D01*
X153601347Y-91930834D01*
X153482483Y-92080706D01*
X146517517Y-92080706D01*
X146398653Y-91930834D01*
X146179158Y-91830589D01*
X145944323Y-91775091D01*
X145703174Y-91766473D01*
X145464976Y-91805067D01*
X145238884Y-91889390D01*
X145161347Y-91930834D01*
X145042483Y-92080706D01*
X131022878Y-92080706D01*
X131010901Y-92062782D01*
X130937218Y-91989099D01*
X130850576Y-91931206D01*
X130754304Y-91891329D01*
X130652102Y-91871000D01*
X130547898Y-91871000D01*
X130445696Y-91891329D01*
X130349424Y-91931206D01*
X130262782Y-91989099D01*
X130189099Y-92062782D01*
X130131206Y-92149424D01*
X130091329Y-92245696D01*
X130071000Y-92347898D01*
X130071000Y-92452102D01*
X130091329Y-92554304D01*
X130102388Y-92581002D01*
X130052102Y-92571000D01*
X129947898Y-92571000D01*
X129845696Y-92591329D01*
X129749424Y-92631206D01*
X129662782Y-92689099D01*
X129589099Y-92762782D01*
X129531206Y-92849424D01*
X129491329Y-92945696D01*
X129471000Y-93047898D01*
X129471000Y-93071000D01*
X129447898Y-93071000D01*
X129345696Y-93091329D01*
X129249424Y-93131206D01*
X129162782Y-93189099D01*
X129089099Y-93262782D01*
X129031206Y-93349424D01*
X128991329Y-93445696D01*
X128971000Y-93547898D01*
X100370887Y-93547898D01*
X100396518Y-93286492D01*
X100603735Y-92600158D01*
X100791035Y-92247898D01*
X128121000Y-92247898D01*
X128121000Y-92352102D01*
X128141329Y-92454304D01*
X128181206Y-92550576D01*
X128239099Y-92637218D01*
X128312782Y-92710901D01*
X128399424Y-92768794D01*
X128495696Y-92808671D01*
X128597898Y-92829000D01*
X128702102Y-92829000D01*
X128804304Y-92808671D01*
X128900576Y-92768794D01*
X128987218Y-92710901D01*
X129060901Y-92637218D01*
X129118794Y-92550576D01*
X129158671Y-92454304D01*
X129179000Y-92352102D01*
X129179000Y-92247898D01*
X129158671Y-92145696D01*
X129118794Y-92049424D01*
X129060901Y-91962782D01*
X128987218Y-91889099D01*
X128900576Y-91831206D01*
X128804304Y-91791329D01*
X128702102Y-91771000D01*
X128597898Y-91771000D01*
X128495696Y-91791329D01*
X128399424Y-91831206D01*
X128312782Y-91889099D01*
X128239099Y-91962782D01*
X128181206Y-92049424D01*
X128141329Y-92145696D01*
X128121000Y-92247898D01*
X100791035Y-92247898D01*
X100940313Y-91967148D01*
X101200687Y-91647898D01*
X157371000Y-91647898D01*
X157371000Y-91752102D01*
X157391329Y-91854304D01*
X157431206Y-91950576D01*
X157489099Y-92037218D01*
X157562782Y-92110901D01*
X157649424Y-92168794D01*
X157745696Y-92208671D01*
X157847898Y-92229000D01*
X157952102Y-92229000D01*
X158054304Y-92208671D01*
X158150576Y-92168794D01*
X158237218Y-92110901D01*
X158310901Y-92037218D01*
X158368794Y-91950576D01*
X158408671Y-91854304D01*
X158429000Y-91752102D01*
X158429000Y-91647898D01*
X158408671Y-91545696D01*
X158368794Y-91449424D01*
X158310901Y-91362782D01*
X158237218Y-91289099D01*
X158150576Y-91231206D01*
X158054304Y-91191329D01*
X157952102Y-91171000D01*
X157847898Y-91171000D01*
X157745696Y-91191329D01*
X157649424Y-91231206D01*
X157562782Y-91289099D01*
X157489099Y-91362782D01*
X157431206Y-91449424D01*
X157391329Y-91545696D01*
X157371000Y-91647898D01*
X101200687Y-91647898D01*
X101393434Y-91411567D01*
X101945838Y-90954579D01*
X101958194Y-90947898D01*
X132871000Y-90947898D01*
X132871000Y-91052102D01*
X132891329Y-91154304D01*
X132931206Y-91250576D01*
X132989099Y-91337218D01*
X133062782Y-91410901D01*
X133149424Y-91468794D01*
X133245696Y-91508671D01*
X133347898Y-91529000D01*
X133452102Y-91529000D01*
X133554304Y-91508671D01*
X133650576Y-91468794D01*
X133737218Y-91410901D01*
X133810901Y-91337218D01*
X133868794Y-91250576D01*
X133900000Y-91175238D01*
X133931206Y-91250576D01*
X133989099Y-91337218D01*
X134062782Y-91410901D01*
X134149424Y-91468794D01*
X134245696Y-91508671D01*
X134347898Y-91529000D01*
X134452102Y-91529000D01*
X134554304Y-91508671D01*
X134650576Y-91468794D01*
X134737218Y-91410901D01*
X134810901Y-91337218D01*
X134868794Y-91250576D01*
X134900000Y-91175238D01*
X134931206Y-91250576D01*
X134989099Y-91337218D01*
X135062782Y-91410901D01*
X135149424Y-91468794D01*
X135245696Y-91508671D01*
X135347898Y-91529000D01*
X135452102Y-91529000D01*
X135554304Y-91508671D01*
X135650576Y-91468794D01*
X135737218Y-91410901D01*
X135810901Y-91337218D01*
X135868794Y-91250576D01*
X135908671Y-91154304D01*
X135929000Y-91052102D01*
X135929000Y-90947898D01*
X179971000Y-90947898D01*
X179971000Y-91052102D01*
X179991329Y-91154304D01*
X180031206Y-91250576D01*
X180089099Y-91337218D01*
X180162782Y-91410901D01*
X180249424Y-91468794D01*
X180345696Y-91508671D01*
X180447898Y-91529000D01*
X180552102Y-91529000D01*
X180654304Y-91508671D01*
X180750576Y-91468794D01*
X180837218Y-91410901D01*
X180910901Y-91337218D01*
X180968794Y-91250576D01*
X181008671Y-91154304D01*
X181029000Y-91052102D01*
X181029000Y-90947898D01*
X181008671Y-90845696D01*
X180968794Y-90749424D01*
X180910901Y-90662782D01*
X180837218Y-90589099D01*
X180750576Y-90531206D01*
X180654304Y-90491329D01*
X180552102Y-90471000D01*
X180447898Y-90471000D01*
X180345696Y-90491329D01*
X180249424Y-90531206D01*
X180162782Y-90589099D01*
X180089099Y-90662782D01*
X180031206Y-90749424D01*
X179991329Y-90845696D01*
X179971000Y-90947898D01*
X135929000Y-90947898D01*
X135908671Y-90845696D01*
X135868794Y-90749424D01*
X135810901Y-90662782D01*
X135737218Y-90589099D01*
X135650576Y-90531206D01*
X135554304Y-90491329D01*
X135452102Y-90471000D01*
X135347898Y-90471000D01*
X135245696Y-90491329D01*
X135149424Y-90531206D01*
X135062782Y-90589099D01*
X134989099Y-90662782D01*
X134931206Y-90749424D01*
X134900000Y-90824762D01*
X134868794Y-90749424D01*
X134810901Y-90662782D01*
X134737218Y-90589099D01*
X134650576Y-90531206D01*
X134554304Y-90491329D01*
X134452102Y-90471000D01*
X134347898Y-90471000D01*
X134245696Y-90491329D01*
X134149424Y-90531206D01*
X134062782Y-90589099D01*
X133989099Y-90662782D01*
X133931206Y-90749424D01*
X133900000Y-90824762D01*
X133868794Y-90749424D01*
X133810901Y-90662782D01*
X133737218Y-90589099D01*
X133650576Y-90531206D01*
X133554304Y-90491329D01*
X133452102Y-90471000D01*
X133347898Y-90471000D01*
X133245696Y-90491329D01*
X133149424Y-90531206D01*
X133062782Y-90589099D01*
X132989099Y-90662782D01*
X132931206Y-90749424D01*
X132891329Y-90845696D01*
X132871000Y-90947898D01*
X101958194Y-90947898D01*
X102576488Y-90613588D01*
X103261352Y-90401588D01*
X103989675Y-90325038D01*
X104000553Y-90325000D01*
X195984104Y-90325000D01*
X196713508Y-90396518D01*
G04 #@! TD*
M02*
