G04 #@! TF.GenerationSoftware,KiCad,Pcbnew,(5.0.0)*
G04 #@! TF.CreationDate,2018-09-03T15:40:08-07:00*
G04 #@! TF.ProjectId,nixie_psu_breakout,6E697869655F7073755F627265616B6F,rev?*
G04 #@! TF.SameCoordinates,Original*
G04 #@! TF.FileFunction,Copper,L2,Bot,Signal*
G04 #@! TF.FilePolarity,Positive*
%FSLAX46Y46*%
G04 Gerber Fmt 4.6, Leading zero omitted, Abs format (unit mm)*
G04 Created by KiCad (PCBNEW (5.0.0)) date 09/03/18 15:40:08*
%MOMM*%
%LPD*%
G01*
G04 APERTURE LIST*
G04 #@! TA.AperFunction,ComponentPad*
%ADD10R,1.500000X1.500000*%
G04 #@! TD*
G04 #@! TA.AperFunction,ViaPad*
%ADD11C,0.508000*%
G04 #@! TD*
G04 #@! TA.AperFunction,Conductor*
%ADD12C,0.300000*%
G04 #@! TD*
G04 #@! TA.AperFunction,Conductor*
%ADD13C,0.200000*%
G04 #@! TD*
G04 APERTURE END LIST*
D10*
G04 #@! TO.P,J3,1*
G04 #@! TO.N,GNDREF*
X126900000Y-99150000D03*
G04 #@! TD*
G04 #@! TO.P,J4,1*
G04 #@! TO.N,GNDREF*
X146500000Y-99150000D03*
G04 #@! TD*
G04 #@! TO.P,J5,1*
G04 #@! TO.N,Net-(C5-Pad2)*
X146500000Y-81300000D03*
G04 #@! TD*
G04 #@! TO.P,J1,1*
G04 #@! TO.N,Net-(C1-Pad2)*
X126900000Y-81300000D03*
G04 #@! TD*
G04 #@! TO.P,J2,1*
G04 #@! TO.N,Net-(J2-Pad1)*
X126900000Y-83300000D03*
G04 #@! TD*
D11*
G04 #@! TO.N,GNDREF*
X127000000Y-88550000D03*
X143600000Y-84050000D03*
X135900000Y-81900000D03*
X143600000Y-84650000D03*
X135900000Y-83100000D03*
X136500000Y-83100000D03*
X136500000Y-84300000D03*
X143000000Y-84650000D03*
X135900000Y-84300000D03*
X142400000Y-84050000D03*
X135900000Y-83700000D03*
X142400000Y-84650000D03*
X143000000Y-84050000D03*
X136500000Y-82500000D03*
X135900000Y-82500000D03*
X136500000Y-83700000D03*
X136500000Y-81900000D03*
X131400000Y-87750000D03*
X131400000Y-87150000D03*
X130400000Y-84950000D03*
X130400000Y-85550000D03*
X130400000Y-84350000D03*
X130712500Y-90956250D03*
X129887500Y-90243750D03*
X130712500Y-89531250D03*
X129887500Y-89531250D03*
X129887500Y-90956250D03*
X129887500Y-91668750D03*
X130712500Y-91668750D03*
X130712500Y-90243750D03*
X134025000Y-92400000D03*
X135225000Y-92400000D03*
X135224002Y-91200000D03*
X134625000Y-92400000D03*
X135225000Y-91800000D03*
G04 #@! TO.N,Net-(C5-Pad2)*
X127000000Y-84700000D03*
G04 #@! TD*
D12*
G04 #@! TO.N,Net-(C5-Pad2)*
X128300000Y-81100000D02*
X128300000Y-84300000D01*
X127900000Y-84700000D02*
X127000000Y-84700000D01*
X128700000Y-80700000D02*
X128300000Y-81100000D01*
X128300000Y-84300000D02*
X127900000Y-84700000D01*
X146300000Y-80700000D02*
X128700000Y-80700000D01*
X146700000Y-81100000D02*
X146300000Y-80700000D01*
G04 #@! TD*
D13*
G04 #@! TO.N,GNDREF*
G36*
X145247581Y-82050000D02*
X145257235Y-82148017D01*
X145285825Y-82242267D01*
X145332254Y-82329129D01*
X145394736Y-82405264D01*
X145470871Y-82467746D01*
X145557733Y-82514175D01*
X145651983Y-82542765D01*
X145750000Y-82552419D01*
X147150001Y-82552419D01*
X147150000Y-97792000D01*
X146806000Y-97792000D01*
X146654000Y-97944000D01*
X146654000Y-98996000D01*
X146674000Y-98996000D01*
X146674000Y-99304000D01*
X146654000Y-99304000D01*
X146654000Y-99324000D01*
X146346000Y-99324000D01*
X146346000Y-99304000D01*
X145294000Y-99304000D01*
X145142000Y-99456000D01*
X145142000Y-99800000D01*
X128258000Y-99800000D01*
X128258000Y-99456000D01*
X128106000Y-99304000D01*
X127054000Y-99304000D01*
X127054000Y-99324000D01*
X126746000Y-99324000D01*
X126746000Y-99304000D01*
X126726000Y-99304000D01*
X126726000Y-98996000D01*
X126746000Y-98996000D01*
X126746000Y-97944000D01*
X127054000Y-97944000D01*
X127054000Y-98996000D01*
X128106000Y-98996000D01*
X128258000Y-98844000D01*
X128258000Y-98340117D01*
X145142000Y-98340117D01*
X145142000Y-98844000D01*
X145294000Y-98996000D01*
X146346000Y-98996000D01*
X146346000Y-97944000D01*
X146194000Y-97792000D01*
X145690117Y-97792000D01*
X145572653Y-97815365D01*
X145462004Y-97861197D01*
X145362422Y-97927736D01*
X145277735Y-98012423D01*
X145211197Y-98112004D01*
X145165365Y-98222653D01*
X145142000Y-98340117D01*
X128258000Y-98340117D01*
X128234635Y-98222653D01*
X128188803Y-98112004D01*
X128122265Y-98012423D01*
X128037578Y-97927736D01*
X127937996Y-97861197D01*
X127827347Y-97815365D01*
X127709883Y-97792000D01*
X127206000Y-97792000D01*
X127054000Y-97944000D01*
X126746000Y-97944000D01*
X126594000Y-97792000D01*
X126250000Y-97792000D01*
X126250000Y-86300000D01*
X135400000Y-86300000D01*
X135400000Y-96700000D01*
X135407612Y-96738268D01*
X135429289Y-96770711D01*
X135461732Y-96792388D01*
X135500000Y-96800000D01*
X144500000Y-96800000D01*
X144538268Y-96792388D01*
X144570711Y-96770711D01*
X144592388Y-96738268D01*
X144600000Y-96700000D01*
X144600000Y-86300000D01*
X144592388Y-86261732D01*
X144570711Y-86229289D01*
X144538268Y-86207612D01*
X144500000Y-86200000D01*
X135500000Y-86200000D01*
X135461732Y-86207612D01*
X135429289Y-86229289D01*
X135407612Y-86261732D01*
X135400000Y-86300000D01*
X126250000Y-86300000D01*
X126250000Y-84794371D01*
X126274976Y-84919934D01*
X126331814Y-85057153D01*
X126414330Y-85180647D01*
X126519353Y-85285670D01*
X126642847Y-85368186D01*
X126780066Y-85425024D01*
X126925738Y-85454000D01*
X127074262Y-85454000D01*
X127219934Y-85425024D01*
X127357153Y-85368186D01*
X127384370Y-85350000D01*
X127868079Y-85350000D01*
X127900000Y-85353144D01*
X127931921Y-85350000D01*
X127931932Y-85350000D01*
X128027422Y-85340595D01*
X128149948Y-85303427D01*
X128262868Y-85243070D01*
X128361843Y-85161843D01*
X128382200Y-85137038D01*
X128737038Y-84782200D01*
X128761843Y-84761843D01*
X128843070Y-84662868D01*
X128903427Y-84549948D01*
X128940595Y-84427422D01*
X128950000Y-84331932D01*
X128950000Y-84331922D01*
X128953144Y-84300001D01*
X128950000Y-84268080D01*
X128950000Y-81369238D01*
X128969238Y-81350000D01*
X145247581Y-81350000D01*
X145247581Y-82050000D01*
X145247581Y-82050000D01*
G37*
X145247581Y-82050000D02*
X145257235Y-82148017D01*
X145285825Y-82242267D01*
X145332254Y-82329129D01*
X145394736Y-82405264D01*
X145470871Y-82467746D01*
X145557733Y-82514175D01*
X145651983Y-82542765D01*
X145750000Y-82552419D01*
X147150001Y-82552419D01*
X147150000Y-97792000D01*
X146806000Y-97792000D01*
X146654000Y-97944000D01*
X146654000Y-98996000D01*
X146674000Y-98996000D01*
X146674000Y-99304000D01*
X146654000Y-99304000D01*
X146654000Y-99324000D01*
X146346000Y-99324000D01*
X146346000Y-99304000D01*
X145294000Y-99304000D01*
X145142000Y-99456000D01*
X145142000Y-99800000D01*
X128258000Y-99800000D01*
X128258000Y-99456000D01*
X128106000Y-99304000D01*
X127054000Y-99304000D01*
X127054000Y-99324000D01*
X126746000Y-99324000D01*
X126746000Y-99304000D01*
X126726000Y-99304000D01*
X126726000Y-98996000D01*
X126746000Y-98996000D01*
X126746000Y-97944000D01*
X127054000Y-97944000D01*
X127054000Y-98996000D01*
X128106000Y-98996000D01*
X128258000Y-98844000D01*
X128258000Y-98340117D01*
X145142000Y-98340117D01*
X145142000Y-98844000D01*
X145294000Y-98996000D01*
X146346000Y-98996000D01*
X146346000Y-97944000D01*
X146194000Y-97792000D01*
X145690117Y-97792000D01*
X145572653Y-97815365D01*
X145462004Y-97861197D01*
X145362422Y-97927736D01*
X145277735Y-98012423D01*
X145211197Y-98112004D01*
X145165365Y-98222653D01*
X145142000Y-98340117D01*
X128258000Y-98340117D01*
X128234635Y-98222653D01*
X128188803Y-98112004D01*
X128122265Y-98012423D01*
X128037578Y-97927736D01*
X127937996Y-97861197D01*
X127827347Y-97815365D01*
X127709883Y-97792000D01*
X127206000Y-97792000D01*
X127054000Y-97944000D01*
X126746000Y-97944000D01*
X126594000Y-97792000D01*
X126250000Y-97792000D01*
X126250000Y-86300000D01*
X135400000Y-86300000D01*
X135400000Y-96700000D01*
X135407612Y-96738268D01*
X135429289Y-96770711D01*
X135461732Y-96792388D01*
X135500000Y-96800000D01*
X144500000Y-96800000D01*
X144538268Y-96792388D01*
X144570711Y-96770711D01*
X144592388Y-96738268D01*
X144600000Y-96700000D01*
X144600000Y-86300000D01*
X144592388Y-86261732D01*
X144570711Y-86229289D01*
X144538268Y-86207612D01*
X144500000Y-86200000D01*
X135500000Y-86200000D01*
X135461732Y-86207612D01*
X135429289Y-86229289D01*
X135407612Y-86261732D01*
X135400000Y-86300000D01*
X126250000Y-86300000D01*
X126250000Y-84794371D01*
X126274976Y-84919934D01*
X126331814Y-85057153D01*
X126414330Y-85180647D01*
X126519353Y-85285670D01*
X126642847Y-85368186D01*
X126780066Y-85425024D01*
X126925738Y-85454000D01*
X127074262Y-85454000D01*
X127219934Y-85425024D01*
X127357153Y-85368186D01*
X127384370Y-85350000D01*
X127868079Y-85350000D01*
X127900000Y-85353144D01*
X127931921Y-85350000D01*
X127931932Y-85350000D01*
X128027422Y-85340595D01*
X128149948Y-85303427D01*
X128262868Y-85243070D01*
X128361843Y-85161843D01*
X128382200Y-85137038D01*
X128737038Y-84782200D01*
X128761843Y-84761843D01*
X128843070Y-84662868D01*
X128903427Y-84549948D01*
X128940595Y-84427422D01*
X128950000Y-84331932D01*
X128950000Y-84331922D01*
X128953144Y-84300001D01*
X128950000Y-84268080D01*
X128950000Y-81369238D01*
X128969238Y-81350000D01*
X145247581Y-81350000D01*
X145247581Y-82050000D01*
G04 #@! TD*
M02*
