G04 #@! TF.GenerationSoftware,KiCad,Pcbnew,(5.0.0)*
G04 #@! TF.CreationDate,2018-09-03T15:40:08-07:00*
G04 #@! TF.ProjectId,nixie_psu_breakout,6E697869655F7073755F627265616B6F,rev?*
G04 #@! TF.SameCoordinates,Original*
G04 #@! TF.FileFunction,Legend,Bot*
G04 #@! TF.FilePolarity,Positive*
%FSLAX46Y46*%
G04 Gerber Fmt 4.6, Leading zero omitted, Abs format (unit mm)*
G04 Created by KiCad (PCBNEW (5.0.0)) date 09/03/18 15:40:08*
%MOMM*%
%LPD*%
G01*
G04 APERTURE LIST*
%ADD10C,0.300000*%
%ADD11C,0.200000*%
G04 APERTURE END LIST*
D10*
X143207142Y-90678571D02*
X143921428Y-90678571D01*
X143921428Y-89178571D01*
X142921428Y-89178571D02*
X142064285Y-89178571D01*
X142492857Y-90678571D02*
X142492857Y-89178571D01*
X141707142Y-89178571D02*
X140778571Y-89178571D01*
X141278571Y-89750000D01*
X141064285Y-89750000D01*
X140921428Y-89821428D01*
X140850000Y-89892857D01*
X140778571Y-90035714D01*
X140778571Y-90392857D01*
X140850000Y-90535714D01*
X140921428Y-90607142D01*
X141064285Y-90678571D01*
X141492857Y-90678571D01*
X141635714Y-90607142D01*
X141707142Y-90535714D01*
X140278571Y-89178571D02*
X139278571Y-89178571D01*
X139921428Y-90678571D01*
X137992857Y-89178571D02*
X138707142Y-89178571D01*
X138778571Y-89892857D01*
X138707142Y-89821428D01*
X138564285Y-89750000D01*
X138207142Y-89750000D01*
X138064285Y-89821428D01*
X137992857Y-89892857D01*
X137921428Y-90035714D01*
X137921428Y-90392857D01*
X137992857Y-90535714D01*
X138064285Y-90607142D01*
X138207142Y-90678571D01*
X138564285Y-90678571D01*
X138707142Y-90607142D01*
X138778571Y-90535714D01*
X137207142Y-90678571D02*
X136921428Y-90678571D01*
X136778571Y-90607142D01*
X136707142Y-90535714D01*
X136564285Y-90321428D01*
X136492857Y-90035714D01*
X136492857Y-89464285D01*
X136564285Y-89321428D01*
X136635714Y-89250000D01*
X136778571Y-89178571D01*
X137064285Y-89178571D01*
X137207142Y-89250000D01*
X137278571Y-89321428D01*
X137350000Y-89464285D01*
X137350000Y-89821428D01*
X137278571Y-89964285D01*
X137207142Y-90035714D01*
X137064285Y-90107142D01*
X136778571Y-90107142D01*
X136635714Y-90035714D01*
X136564285Y-89964285D01*
X136492857Y-89821428D01*
X133850000Y-90678571D02*
X134350000Y-89964285D01*
X134707142Y-90678571D02*
X134707142Y-89178571D01*
X134135714Y-89178571D01*
X133992857Y-89250000D01*
X133921428Y-89321428D01*
X133850000Y-89464285D01*
X133850000Y-89678571D01*
X133921428Y-89821428D01*
X133992857Y-89892857D01*
X134135714Y-89964285D01*
X134707142Y-89964285D01*
X132635714Y-90607142D02*
X132778571Y-90678571D01*
X133064285Y-90678571D01*
X133207142Y-90607142D01*
X133278571Y-90464285D01*
X133278571Y-89892857D01*
X133207142Y-89750000D01*
X133064285Y-89678571D01*
X132778571Y-89678571D01*
X132635714Y-89750000D01*
X132564285Y-89892857D01*
X132564285Y-90035714D01*
X133278571Y-90178571D01*
X132064285Y-89678571D02*
X131707142Y-90678571D01*
X131350000Y-89678571D01*
X130778571Y-90535714D02*
X130707142Y-90607142D01*
X130778571Y-90678571D01*
X130850000Y-90607142D01*
X130778571Y-90535714D01*
X130778571Y-90678571D01*
X129207142Y-90535714D02*
X129278571Y-90607142D01*
X129492857Y-90678571D01*
X129635714Y-90678571D01*
X129850000Y-90607142D01*
X129992857Y-90464285D01*
X130064285Y-90321428D01*
X130135714Y-90035714D01*
X130135714Y-89821428D01*
X130064285Y-89535714D01*
X129992857Y-89392857D01*
X129850000Y-89250000D01*
X129635714Y-89178571D01*
X129492857Y-89178571D01*
X129278571Y-89250000D01*
X129207142Y-89321428D01*
X141521428Y-91178571D02*
X141378571Y-91178571D01*
X141235714Y-91250000D01*
X141164285Y-91321428D01*
X141092857Y-91464285D01*
X141021428Y-91750000D01*
X141021428Y-92107142D01*
X141092857Y-92392857D01*
X141164285Y-92535714D01*
X141235714Y-92607142D01*
X141378571Y-92678571D01*
X141521428Y-92678571D01*
X141664285Y-92607142D01*
X141735714Y-92535714D01*
X141807142Y-92392857D01*
X141878571Y-92107142D01*
X141878571Y-91750000D01*
X141807142Y-91464285D01*
X141735714Y-91321428D01*
X141664285Y-91250000D01*
X141521428Y-91178571D01*
X140521428Y-92678571D02*
X139735714Y-91678571D01*
X140521428Y-91678571D02*
X139735714Y-92678571D01*
X139307142Y-91178571D02*
X138307142Y-91178571D01*
X138950000Y-92678571D01*
X137735714Y-92678571D02*
X137735714Y-91178571D01*
X137378571Y-91178571D01*
X137164285Y-91250000D01*
X137021428Y-91392857D01*
X136950000Y-91535714D01*
X136878571Y-91821428D01*
X136878571Y-92035714D01*
X136950000Y-92321428D01*
X137021428Y-92464285D01*
X137164285Y-92607142D01*
X137378571Y-92678571D01*
X137735714Y-92678571D01*
X136235714Y-92535714D02*
X136164285Y-92607142D01*
X136235714Y-92678571D01*
X136307142Y-92607142D01*
X136235714Y-92535714D01*
X136235714Y-92678571D01*
X134878571Y-92607142D02*
X135021428Y-92678571D01*
X135307142Y-92678571D01*
X135450000Y-92607142D01*
X135521428Y-92535714D01*
X135592857Y-92392857D01*
X135592857Y-91964285D01*
X135521428Y-91821428D01*
X135450000Y-91750000D01*
X135307142Y-91678571D01*
X135021428Y-91678571D01*
X134878571Y-91750000D01*
X134021428Y-92678571D02*
X134164285Y-92607142D01*
X134235714Y-92535714D01*
X134307142Y-92392857D01*
X134307142Y-91964285D01*
X134235714Y-91821428D01*
X134164285Y-91750000D01*
X134021428Y-91678571D01*
X133807142Y-91678571D01*
X133664285Y-91750000D01*
X133592857Y-91821428D01*
X133521428Y-91964285D01*
X133521428Y-92392857D01*
X133592857Y-92535714D01*
X133664285Y-92607142D01*
X133807142Y-92678571D01*
X134021428Y-92678571D01*
X132878571Y-92678571D02*
X132878571Y-91678571D01*
X132878571Y-91821428D02*
X132807142Y-91750000D01*
X132664285Y-91678571D01*
X132450000Y-91678571D01*
X132307142Y-91750000D01*
X132235714Y-91892857D01*
X132235714Y-92678571D01*
X132235714Y-91892857D02*
X132164285Y-91750000D01*
X132021428Y-91678571D01*
X131807142Y-91678571D01*
X131664285Y-91750000D01*
X131592857Y-91892857D01*
X131592857Y-92678571D01*
D11*
X145255714Y-80692857D02*
X144855714Y-81892857D01*
X144455714Y-80692857D01*
X143827142Y-80692857D02*
X143598571Y-80692857D01*
X143484285Y-80750000D01*
X143370000Y-80864285D01*
X143312857Y-81092857D01*
X143312857Y-81492857D01*
X143370000Y-81721428D01*
X143484285Y-81835714D01*
X143598571Y-81892857D01*
X143827142Y-81892857D01*
X143941428Y-81835714D01*
X144055714Y-81721428D01*
X144112857Y-81492857D01*
X144112857Y-81092857D01*
X144055714Y-80864285D01*
X143941428Y-80750000D01*
X143827142Y-80692857D01*
X142798571Y-80692857D02*
X142798571Y-81664285D01*
X142741428Y-81778571D01*
X142684285Y-81835714D01*
X142570000Y-81892857D01*
X142341428Y-81892857D01*
X142227142Y-81835714D01*
X142170000Y-81778571D01*
X142112857Y-81664285D01*
X142112857Y-80692857D01*
X141712857Y-80692857D02*
X141027142Y-80692857D01*
X141370000Y-81892857D02*
X141370000Y-80692857D01*
X144455714Y-98550000D02*
X144570000Y-98492857D01*
X144741428Y-98492857D01*
X144912857Y-98550000D01*
X145027142Y-98664285D01*
X145084285Y-98778571D01*
X145141428Y-99007142D01*
X145141428Y-99178571D01*
X145084285Y-99407142D01*
X145027142Y-99521428D01*
X144912857Y-99635714D01*
X144741428Y-99692857D01*
X144627142Y-99692857D01*
X144455714Y-99635714D01*
X144398571Y-99578571D01*
X144398571Y-99178571D01*
X144627142Y-99178571D01*
X143884285Y-99692857D02*
X143884285Y-98492857D01*
X143198571Y-99692857D01*
X143198571Y-98492857D01*
X142627142Y-99692857D02*
X142627142Y-98492857D01*
X142341428Y-98492857D01*
X142170000Y-98550000D01*
X142055714Y-98664285D01*
X141998571Y-98778571D01*
X141941428Y-99007142D01*
X141941428Y-99178571D01*
X141998571Y-99407142D01*
X142055714Y-99521428D01*
X142170000Y-99635714D01*
X142341428Y-99692857D01*
X142627142Y-99692857D01*
X130087142Y-83264285D02*
X129687142Y-83264285D01*
X129515714Y-83892857D02*
X130087142Y-83892857D01*
X130087142Y-82692857D01*
X129515714Y-82692857D01*
X129001428Y-83892857D02*
X129001428Y-82692857D01*
X128315714Y-83892857D01*
X128315714Y-82692857D01*
X130772857Y-98550000D02*
X130887142Y-98492857D01*
X131058571Y-98492857D01*
X131230000Y-98550000D01*
X131344285Y-98664285D01*
X131401428Y-98778571D01*
X131458571Y-99007142D01*
X131458571Y-99178571D01*
X131401428Y-99407142D01*
X131344285Y-99521428D01*
X131230000Y-99635714D01*
X131058571Y-99692857D01*
X130944285Y-99692857D01*
X130772857Y-99635714D01*
X130715714Y-99578571D01*
X130715714Y-99178571D01*
X130944285Y-99178571D01*
X130201428Y-99692857D02*
X130201428Y-98492857D01*
X129515714Y-99692857D01*
X129515714Y-98492857D01*
X128944285Y-99692857D02*
X128944285Y-98492857D01*
X128658571Y-98492857D01*
X128487142Y-98550000D01*
X128372857Y-98664285D01*
X128315714Y-98778571D01*
X128258571Y-99007142D01*
X128258571Y-99178571D01*
X128315714Y-99407142D01*
X128372857Y-99521428D01*
X128487142Y-99635714D01*
X128658571Y-99692857D01*
X128944285Y-99692857D01*
X130772857Y-80692857D02*
X130372857Y-81892857D01*
X129972857Y-80692857D01*
X129572857Y-81892857D02*
X129572857Y-80692857D01*
X129001428Y-81892857D02*
X129001428Y-80692857D01*
X128315714Y-81892857D01*
X128315714Y-80692857D01*
M02*
