G04 #@! TF.GenerationSoftware,KiCad,Pcbnew,(5.0.0)*
G04 #@! TF.CreationDate,2018-09-03T15:40:08-07:00*
G04 #@! TF.ProjectId,nixie_psu_breakout,6E697869655F7073755F627265616B6F,rev?*
G04 #@! TF.SameCoordinates,Original*
G04 #@! TF.FileFunction,Copper,L1,Top,Signal*
G04 #@! TF.FilePolarity,Positive*
%FSLAX46Y46*%
G04 Gerber Fmt 4.6, Leading zero omitted, Abs format (unit mm)*
G04 Created by KiCad (PCBNEW (5.0.0)) date 09/03/18 15:40:08*
%MOMM*%
%LPD*%
G01*
G04 APERTURE LIST*
G04 #@! TA.AperFunction,SMDPad,CuDef*
%ADD10R,2.080000X1.170000*%
G04 #@! TD*
G04 #@! TA.AperFunction,SMDPad,CuDef*
%ADD11R,1.100000X0.800000*%
G04 #@! TD*
G04 #@! TA.AperFunction,SMDPad,CuDef*
%ADD12R,1.400000X1.200000*%
G04 #@! TD*
G04 #@! TA.AperFunction,SMDPad,CuDef*
%ADD13R,0.500000X0.900000*%
G04 #@! TD*
G04 #@! TA.AperFunction,SMDPad,CuDef*
%ADD14R,0.890000X0.420000*%
G04 #@! TD*
G04 #@! TA.AperFunction,SMDPad,CuDef*
%ADD15R,0.825000X0.712500*%
G04 #@! TD*
G04 #@! TA.AperFunction,SMDPad,CuDef*
%ADD16R,0.900000X0.500000*%
G04 #@! TD*
G04 #@! TA.AperFunction,SMDPad,CuDef*
%ADD17R,0.700000X1.300000*%
G04 #@! TD*
G04 #@! TA.AperFunction,SMDPad,CuDef*
%ADD18R,0.750000X0.800000*%
G04 #@! TD*
G04 #@! TA.AperFunction,SMDPad,CuDef*
%ADD19R,1.000000X1.250000*%
G04 #@! TD*
G04 #@! TA.AperFunction,SMDPad,CuDef*
%ADD20R,1.000000X2.500000*%
G04 #@! TD*
G04 #@! TA.AperFunction,SMDPad,CuDef*
%ADD21R,1.000000X5.000000*%
G04 #@! TD*
G04 #@! TA.AperFunction,SMDPad,CuDef*
%ADD22R,3.000000X1.000000*%
G04 #@! TD*
G04 #@! TA.AperFunction,SMDPad,CuDef*
%ADD23R,0.800000X0.750000*%
G04 #@! TD*
G04 #@! TA.AperFunction,ComponentPad*
%ADD24R,1.500000X1.500000*%
G04 #@! TD*
G04 #@! TA.AperFunction,SMDPad,CuDef*
%ADD25R,1.150000X0.700000*%
G04 #@! TD*
G04 #@! TA.AperFunction,SMDPad,CuDef*
%ADD26R,1.550000X4.700000*%
G04 #@! TD*
G04 #@! TA.AperFunction,SMDPad,CuDef*
%ADD27R,3.300000X4.200000*%
G04 #@! TD*
G04 #@! TA.AperFunction,ViaPad*
%ADD28C,0.508000*%
G04 #@! TD*
G04 #@! TA.AperFunction,Conductor*
%ADD29C,0.200000*%
G04 #@! TD*
G04 #@! TA.AperFunction,Conductor*
%ADD30C,0.300000*%
G04 #@! TD*
G04 #@! TA.AperFunction,Conductor*
%ADD31C,0.100000*%
G04 #@! TD*
G04 APERTURE END LIST*
D10*
G04 #@! TO.P,T1,1*
G04 #@! TO.N,GNDREF*
X145830000Y-89000000D03*
G04 #@! TO.P,T1,2*
G04 #@! TO.N,N/C*
X145830000Y-91500000D03*
G04 #@! TO.P,T1,3*
G04 #@! TO.N,Net-(D1-Pad2)*
X145830000Y-94000000D03*
G04 #@! TO.P,T1,4*
G04 #@! TO.N,Net-(Q1-Pad1)*
X134170000Y-94000000D03*
G04 #@! TO.P,T1,6*
G04 #@! TO.N,Net-(C1-Pad2)*
X134170000Y-89000000D03*
D11*
G04 #@! TO.P,T1,5*
G04 #@! TO.N,N/C*
X134170000Y-91500000D03*
G04 #@! TD*
D12*
G04 #@! TO.P,D1,1*
G04 #@! TO.N,Net-(C5-Pad2)*
X146000000Y-83850000D03*
G04 #@! TO.P,D1,2*
G04 #@! TO.N,Net-(D1-Pad2)*
X146000000Y-86950000D03*
G04 #@! TD*
D13*
G04 #@! TO.P,R6,1*
G04 #@! TO.N,Net-(Q1-Pad2)*
X131050000Y-93850000D03*
G04 #@! TO.P,R6,2*
G04 #@! TO.N,Net-(R6-Pad2)*
X132550000Y-93850000D03*
G04 #@! TD*
D14*
G04 #@! TO.P,U1,1*
G04 #@! TO.N,Net-(R2-Pad1)*
X128195000Y-88975000D03*
G04 #@! TO.P,U1,2*
G04 #@! TO.N,Net-(R3-Pad2)*
X128195000Y-89625000D03*
G04 #@! TO.P,U1,3*
G04 #@! TO.N,Net-(C4-Pad1)*
X128195000Y-90275000D03*
G04 #@! TO.P,U1,4*
G04 #@! TO.N,Net-(R1-Pad2)*
X128195000Y-90925000D03*
G04 #@! TO.P,U1,5*
G04 #@! TO.N,GNDREF*
X128195000Y-91575000D03*
G04 #@! TO.P,U1,6*
X128195000Y-92225000D03*
G04 #@! TO.P,U1,7*
G04 #@! TO.N,Net-(Q1-Pad3)*
X132405000Y-92225000D03*
G04 #@! TO.P,U1,8*
G04 #@! TO.N,Net-(R6-Pad2)*
X132405000Y-91575000D03*
G04 #@! TO.P,U1,9*
G04 #@! TO.N,Net-(C7-Pad1)*
X132405000Y-90925000D03*
G04 #@! TO.P,U1,10*
G04 #@! TO.N,Net-(C1-Pad2)*
X132405000Y-90275000D03*
G04 #@! TO.P,U1,11*
X132405000Y-89625000D03*
G04 #@! TO.P,U1,12*
G04 #@! TO.N,Net-(J2-Pad1)*
X132405000Y-88975000D03*
D15*
G04 #@! TO.P,U1,13*
G04 #@! TO.N,GNDREF*
X130712500Y-91668750D03*
X130712500Y-90956250D03*
X130712500Y-90243750D03*
X130712500Y-89531250D03*
X129887500Y-91668750D03*
X129887500Y-90956250D03*
X129887500Y-90243750D03*
X129887500Y-89531250D03*
G04 #@! TD*
D16*
G04 #@! TO.P,R5,1*
G04 #@! TO.N,Net-(C5-Pad2)*
X127000000Y-85500000D03*
G04 #@! TO.P,R5,2*
G04 #@! TO.N,Net-(R3-Pad2)*
X127000000Y-87000000D03*
G04 #@! TD*
D17*
G04 #@! TO.P,R4,1*
G04 #@! TO.N,GNDREF*
X128250000Y-93800000D03*
G04 #@! TO.P,R4,2*
G04 #@! TO.N,Net-(Q1-Pad3)*
X130150000Y-93800000D03*
G04 #@! TD*
D16*
G04 #@! TO.P,R3,1*
G04 #@! TO.N,GNDREF*
X127000000Y-87800000D03*
G04 #@! TO.P,R3,2*
G04 #@! TO.N,Net-(R3-Pad2)*
X127000000Y-89300000D03*
G04 #@! TD*
D13*
G04 #@! TO.P,R2,1*
G04 #@! TO.N,Net-(R2-Pad1)*
X128250000Y-87600000D03*
G04 #@! TO.P,R2,2*
G04 #@! TO.N,Net-(C3-Pad1)*
X129750000Y-87600000D03*
G04 #@! TD*
D16*
G04 #@! TO.P,R1,1*
G04 #@! TO.N,GNDREF*
X127000000Y-94200000D03*
G04 #@! TO.P,R1,2*
G04 #@! TO.N,Net-(R1-Pad2)*
X127000000Y-92700000D03*
G04 #@! TD*
D18*
G04 #@! TO.P,C3,2*
G04 #@! TO.N,GNDREF*
X129100000Y-84850000D03*
G04 #@! TO.P,C3,1*
G04 #@! TO.N,Net-(C3-Pad1)*
X129100000Y-86350000D03*
G04 #@! TD*
D19*
G04 #@! TO.P,C2,1*
G04 #@! TO.N,GNDREF*
X131400000Y-87450000D03*
G04 #@! TO.P,C2,2*
G04 #@! TO.N,Net-(C1-Pad2)*
X133400000Y-87450000D03*
G04 #@! TD*
D18*
G04 #@! TO.P,C4,2*
G04 #@! TO.N,GNDREF*
X127000000Y-91750000D03*
G04 #@! TO.P,C4,1*
G04 #@! TO.N,Net-(C4-Pad1)*
X127000000Y-90250000D03*
G04 #@! TD*
D20*
G04 #@! TO.P,C1,1*
G04 #@! TO.N,GNDREF*
X130400000Y-84950000D03*
G04 #@! TO.P,C1,2*
G04 #@! TO.N,Net-(C1-Pad2)*
X133400000Y-84950000D03*
G04 #@! TD*
D21*
G04 #@! TO.P,C5,1*
G04 #@! TO.N,GNDREF*
X134900000Y-83100000D03*
G04 #@! TO.P,C5,2*
G04 #@! TO.N,Net-(C5-Pad2)*
X140500000Y-83100000D03*
G04 #@! TD*
D22*
G04 #@! TO.P,C6,1*
G04 #@! TO.N,GNDREF*
X143000000Y-85650000D03*
G04 #@! TO.P,C6,2*
G04 #@! TO.N,Net-(C5-Pad2)*
X143000000Y-81050000D03*
G04 #@! TD*
D23*
G04 #@! TO.P,C7,2*
G04 #@! TO.N,GNDREF*
X134950000Y-90350000D03*
G04 #@! TO.P,C7,1*
G04 #@! TO.N,Net-(C7-Pad1)*
X133450000Y-90350000D03*
G04 #@! TD*
D24*
G04 #@! TO.P,J3,1*
G04 #@! TO.N,GNDREF*
X126900000Y-99150000D03*
G04 #@! TD*
G04 #@! TO.P,J4,1*
G04 #@! TO.N,GNDREF*
X146500000Y-99150000D03*
G04 #@! TD*
G04 #@! TO.P,J5,1*
G04 #@! TO.N,Net-(C5-Pad2)*
X146500000Y-81300000D03*
G04 #@! TD*
G04 #@! TO.P,J1,1*
G04 #@! TO.N,Net-(C1-Pad2)*
X126900000Y-81300000D03*
G04 #@! TD*
G04 #@! TO.P,J2,1*
G04 #@! TO.N,Net-(J2-Pad1)*
X126900000Y-83300000D03*
G04 #@! TD*
D25*
G04 #@! TO.P,Q1,3*
G04 #@! TO.N,Net-(Q1-Pad3)*
X128765000Y-96860000D03*
X128765000Y-95590000D03*
X128765000Y-98140000D03*
D26*
G04 #@! TO.P,Q1,1*
G04 #@! TO.N,Net-(Q1-Pad1)*
X134235000Y-97500000D03*
D27*
X132035000Y-97500000D03*
D25*
G04 #@! TO.P,Q1,2*
G04 #@! TO.N,Net-(Q1-Pad2)*
X128765000Y-99410000D03*
G04 #@! TD*
D20*
G04 #@! TO.P,C8,2*
G04 #@! TO.N,Net-(C1-Pad2)*
X130400000Y-81800000D03*
G04 #@! TO.P,C8,1*
G04 #@! TO.N,GNDREF*
X133400000Y-81800000D03*
G04 #@! TD*
D28*
G04 #@! TO.N,GNDREF*
X127000000Y-88550000D03*
X143600000Y-84050000D03*
X135900000Y-81900000D03*
X143600000Y-84650000D03*
X135900000Y-83100000D03*
X136500000Y-83100000D03*
X136500000Y-84300000D03*
X143000000Y-84650000D03*
X135900000Y-84300000D03*
X142400000Y-84050000D03*
X135900000Y-83700000D03*
X142400000Y-84650000D03*
X143000000Y-84050000D03*
X136500000Y-82500000D03*
X135900000Y-82500000D03*
X136500000Y-83700000D03*
X136500000Y-81900000D03*
X131400000Y-87750000D03*
X131400000Y-87150000D03*
X130400000Y-84950000D03*
X130400000Y-85550000D03*
X130400000Y-84350000D03*
X130712500Y-90956250D03*
X129887500Y-90243750D03*
X130712500Y-89531250D03*
X129887500Y-89531250D03*
X129887500Y-90956250D03*
X129887500Y-91668750D03*
X130712500Y-91668750D03*
X130712500Y-90243750D03*
X134025000Y-92400000D03*
X135225000Y-92400000D03*
X135224002Y-91200000D03*
X134625000Y-92400000D03*
X135225000Y-91800000D03*
G04 #@! TO.N,Net-(C5-Pad2)*
X127000000Y-84700000D03*
G04 #@! TD*
D29*
G04 #@! TO.N,GNDREF*
X127000000Y-87800000D02*
X127000000Y-88550000D01*
X142400000Y-84650000D02*
X142400000Y-84050000D01*
X142400000Y-84650000D02*
X143000000Y-84650000D01*
X136500000Y-82500000D02*
X135900000Y-82500000D01*
X136500000Y-81900000D02*
X135900000Y-81900000D01*
X135900000Y-82500000D02*
X135900000Y-83100000D01*
X143600000Y-84650000D02*
X143600000Y-84050000D01*
X135900000Y-83700000D02*
X135900000Y-83100000D01*
X136500000Y-84300000D02*
X135900000Y-84300000D01*
X135900000Y-81900000D02*
X135900000Y-82500000D01*
X135900000Y-83100000D02*
X134900000Y-83100000D01*
X135900000Y-83700000D02*
X136500000Y-83700000D01*
X143000000Y-85400000D02*
X143000000Y-84650000D01*
X136500000Y-83100000D02*
X135900000Y-83100000D01*
X135900000Y-84300000D02*
X135900000Y-83700000D01*
X143000000Y-84050000D02*
X143000000Y-84650000D01*
X143600000Y-84650000D02*
X143000000Y-84650000D01*
X131400000Y-87450000D02*
X131400000Y-87150000D01*
X131400000Y-87450000D02*
X131400000Y-87750000D01*
X130400000Y-84950000D02*
X130400000Y-84350000D01*
X130400000Y-84950000D02*
X130400000Y-85550000D01*
D30*
X135225000Y-92400000D02*
X135225000Y-91800000D01*
X134625000Y-92400000D02*
X135225000Y-92400000D01*
X134950000Y-90350000D02*
X135224002Y-90624002D01*
X135224002Y-91200000D02*
X135224002Y-90624002D01*
X134625000Y-92400000D02*
X134025000Y-92400000D01*
X135224002Y-91799002D02*
X135225000Y-91800000D01*
X135224002Y-91200000D02*
X135224002Y-91799002D01*
D29*
G04 #@! TO.N,Net-(C4-Pad1)*
X127075000Y-90275000D02*
X127000000Y-90200000D01*
G04 #@! TO.N,Net-(J2-Pad1)*
X127475000Y-83375000D02*
X127200000Y-83100000D01*
X127200000Y-83100000D02*
X126700000Y-83100000D01*
D30*
G04 #@! TO.N,Net-(Q1-Pad3)*
X132170000Y-92225000D02*
X132405000Y-92225000D01*
G04 #@! TO.N,Net-(Q1-Pad2)*
X131050000Y-93600000D02*
X131050000Y-93800000D01*
D29*
G04 #@! TO.N,Net-(R2-Pad1)*
X128250000Y-87600000D02*
X128250000Y-88920000D01*
X128250000Y-88920000D02*
X128195000Y-88975000D01*
G04 #@! TO.N,Net-(R3-Pad2)*
X127300000Y-89250000D02*
X127000000Y-89250000D01*
X127000000Y-86950000D02*
X126350000Y-86950000D01*
X126350000Y-86950000D02*
X126200000Y-87100000D01*
X126350000Y-89250000D02*
X127000000Y-89250000D01*
X126200000Y-87100000D02*
X126200000Y-89100000D01*
X126200000Y-89100000D02*
X126350000Y-89250000D01*
G04 #@! TO.N,Net-(D1-Pad2)*
X145830000Y-94000000D02*
X146285000Y-94000000D01*
D30*
G04 #@! TO.N,Net-(C5-Pad2)*
X127000000Y-84700000D02*
X127000000Y-85450000D01*
G04 #@! TO.N,Net-(C7-Pad1)*
X133450000Y-90450000D02*
X133450000Y-90350000D01*
G04 #@! TD*
D29*
G04 #@! TO.N,Net-(R3-Pad2)*
G36*
X127350000Y-87150000D02*
X126410000Y-87150000D01*
X126390491Y-87151921D01*
X126371731Y-87157612D01*
X126329305Y-87175186D01*
X126312016Y-87184428D01*
X126296863Y-87196864D01*
X126284426Y-87212018D01*
X126275186Y-87229305D01*
X126257612Y-87271731D01*
X126251922Y-87290490D01*
X126250000Y-87310000D01*
X126250000Y-87535267D01*
X126248549Y-87550000D01*
X126248549Y-88050000D01*
X126250000Y-88064733D01*
X126250000Y-88990000D01*
X126251921Y-89009509D01*
X126257612Y-89028269D01*
X126275186Y-89070695D01*
X126284428Y-89087984D01*
X126296864Y-89103137D01*
X126312018Y-89115574D01*
X126329305Y-89124814D01*
X126371731Y-89142388D01*
X126390490Y-89148078D01*
X126410000Y-89150000D01*
X127448549Y-89150000D01*
X127448549Y-89185000D01*
X127454341Y-89243810D01*
X127471496Y-89300360D01*
X127499353Y-89352477D01*
X127536842Y-89398158D01*
X127582523Y-89435647D01*
X127634640Y-89463504D01*
X127691190Y-89480659D01*
X127733928Y-89484868D01*
X127810000Y-89500000D01*
X128600000Y-89500000D01*
X128600000Y-89750000D01*
X127707741Y-89750000D01*
X127644560Y-89655444D01*
X127547234Y-89590411D01*
X127504808Y-89572837D01*
X127475683Y-89567044D01*
X127433810Y-89554341D01*
X127390262Y-89550052D01*
X127390000Y-89550000D01*
X127389733Y-89550000D01*
X127375000Y-89548549D01*
X126625000Y-89548549D01*
X126610267Y-89550000D01*
X126050000Y-89550000D01*
X126050000Y-86850000D01*
X127350000Y-86850000D01*
X127350000Y-87150000D01*
X127350000Y-87150000D01*
G37*
X127350000Y-87150000D02*
X126410000Y-87150000D01*
X126390491Y-87151921D01*
X126371731Y-87157612D01*
X126329305Y-87175186D01*
X126312016Y-87184428D01*
X126296863Y-87196864D01*
X126284426Y-87212018D01*
X126275186Y-87229305D01*
X126257612Y-87271731D01*
X126251922Y-87290490D01*
X126250000Y-87310000D01*
X126250000Y-87535267D01*
X126248549Y-87550000D01*
X126248549Y-88050000D01*
X126250000Y-88064733D01*
X126250000Y-88990000D01*
X126251921Y-89009509D01*
X126257612Y-89028269D01*
X126275186Y-89070695D01*
X126284428Y-89087984D01*
X126296864Y-89103137D01*
X126312018Y-89115574D01*
X126329305Y-89124814D01*
X126371731Y-89142388D01*
X126390490Y-89148078D01*
X126410000Y-89150000D01*
X127448549Y-89150000D01*
X127448549Y-89185000D01*
X127454341Y-89243810D01*
X127471496Y-89300360D01*
X127499353Y-89352477D01*
X127536842Y-89398158D01*
X127582523Y-89435647D01*
X127634640Y-89463504D01*
X127691190Y-89480659D01*
X127733928Y-89484868D01*
X127810000Y-89500000D01*
X128600000Y-89500000D01*
X128600000Y-89750000D01*
X127707741Y-89750000D01*
X127644560Y-89655444D01*
X127547234Y-89590411D01*
X127504808Y-89572837D01*
X127475683Y-89567044D01*
X127433810Y-89554341D01*
X127390262Y-89550052D01*
X127390000Y-89550000D01*
X127389733Y-89550000D01*
X127375000Y-89548549D01*
X126625000Y-89548549D01*
X126610267Y-89550000D01*
X126050000Y-89550000D01*
X126050000Y-86850000D01*
X127350000Y-86850000D01*
X127350000Y-87150000D01*
G04 #@! TO.N,Net-(C3-Pad1)*
G36*
X129400000Y-87090000D02*
X129401921Y-87109509D01*
X129407612Y-87128269D01*
X129425186Y-87170695D01*
X129434428Y-87187984D01*
X129446864Y-87203137D01*
X129462018Y-87215574D01*
X129479305Y-87224814D01*
X129521731Y-87242388D01*
X129540490Y-87248078D01*
X129560000Y-87250000D01*
X129900000Y-87250000D01*
X129900000Y-87950000D01*
X129000000Y-87950000D01*
X129000000Y-87210000D01*
X128977163Y-87095192D01*
X128959589Y-87052766D01*
X128894560Y-86955444D01*
X128800000Y-86892259D01*
X128800000Y-86000000D01*
X129400000Y-86000000D01*
X129400000Y-87090000D01*
X129400000Y-87090000D01*
G37*
X129400000Y-87090000D02*
X129401921Y-87109509D01*
X129407612Y-87128269D01*
X129425186Y-87170695D01*
X129434428Y-87187984D01*
X129446864Y-87203137D01*
X129462018Y-87215574D01*
X129479305Y-87224814D01*
X129521731Y-87242388D01*
X129540490Y-87248078D01*
X129560000Y-87250000D01*
X129900000Y-87250000D01*
X129900000Y-87950000D01*
X129000000Y-87950000D01*
X129000000Y-87210000D01*
X128977163Y-87095192D01*
X128959589Y-87052766D01*
X128894560Y-86955444D01*
X128800000Y-86892259D01*
X128800000Y-86000000D01*
X129400000Y-86000000D01*
X129400000Y-87090000D01*
G04 #@! TO.N,Net-(R2-Pad1)*
G36*
X128600000Y-89100000D02*
X127850000Y-89100000D01*
X127850000Y-87250000D01*
X128600000Y-87250000D01*
X128600000Y-89100000D01*
X128600000Y-89100000D01*
G37*
X128600000Y-89100000D02*
X127850000Y-89100000D01*
X127850000Y-87250000D01*
X128600000Y-87250000D01*
X128600000Y-89100000D01*
G04 #@! TO.N,GNDREF*
G36*
X127350000Y-88748549D02*
X126650000Y-88748549D01*
X126650000Y-87600000D01*
X127350000Y-87600000D01*
X127350000Y-88748549D01*
X127350000Y-88748549D01*
G37*
X127350000Y-88748549D02*
X126650000Y-88748549D01*
X126650000Y-87600000D01*
X127350000Y-87600000D01*
X127350000Y-88748549D01*
G04 #@! TO.N,Net-(C4-Pad1)*
G36*
X127350000Y-89990000D02*
X127351921Y-90009509D01*
X127357612Y-90028269D01*
X127375186Y-90070695D01*
X127384428Y-90087984D01*
X127396864Y-90103137D01*
X127412018Y-90115574D01*
X127429305Y-90124814D01*
X127471731Y-90142388D01*
X127490490Y-90148078D01*
X127510000Y-90150000D01*
X128600000Y-90150000D01*
X128600000Y-90400000D01*
X127510000Y-90400000D01*
X127490491Y-90401921D01*
X127471731Y-90407612D01*
X127429305Y-90425186D01*
X127412016Y-90434428D01*
X127396863Y-90446864D01*
X127384426Y-90462018D01*
X127375186Y-90479305D01*
X127357612Y-90521731D01*
X127351922Y-90540490D01*
X127350985Y-90550000D01*
X126650000Y-90550000D01*
X126650000Y-89950000D01*
X127350000Y-89950000D01*
X127350000Y-89990000D01*
X127350000Y-89990000D01*
G37*
X127350000Y-89990000D02*
X127351921Y-90009509D01*
X127357612Y-90028269D01*
X127375186Y-90070695D01*
X127384428Y-90087984D01*
X127396864Y-90103137D01*
X127412018Y-90115574D01*
X127429305Y-90124814D01*
X127471731Y-90142388D01*
X127490490Y-90148078D01*
X127510000Y-90150000D01*
X128600000Y-90150000D01*
X128600000Y-90400000D01*
X127510000Y-90400000D01*
X127490491Y-90401921D01*
X127471731Y-90407612D01*
X127429305Y-90425186D01*
X127412016Y-90434428D01*
X127396863Y-90446864D01*
X127384426Y-90462018D01*
X127375186Y-90479305D01*
X127357612Y-90521731D01*
X127351922Y-90540490D01*
X127350985Y-90550000D01*
X126650000Y-90550000D01*
X126650000Y-89950000D01*
X127350000Y-89950000D01*
X127350000Y-89990000D01*
G04 #@! TO.N,Net-(R1-Pad2)*
G36*
X128600000Y-91050000D02*
X127389733Y-91050000D01*
X127375000Y-91048549D01*
X126625000Y-91048549D01*
X126610267Y-91050000D01*
X126410000Y-91050000D01*
X126390491Y-91051921D01*
X126371731Y-91057612D01*
X126329305Y-91075186D01*
X126312016Y-91084428D01*
X126296863Y-91096864D01*
X126284426Y-91112018D01*
X126275186Y-91129305D01*
X126257612Y-91171731D01*
X126251922Y-91190490D01*
X126250000Y-91210000D01*
X126250000Y-92390000D01*
X126251921Y-92409509D01*
X126257612Y-92428269D01*
X126275186Y-92470695D01*
X126284428Y-92487984D01*
X126296864Y-92503137D01*
X126312018Y-92515574D01*
X126329305Y-92524814D01*
X126371731Y-92542388D01*
X126390490Y-92548078D01*
X126410000Y-92550000D01*
X127350000Y-92550000D01*
X127350000Y-92850000D01*
X126050000Y-92850000D01*
X126050000Y-90950000D01*
X126610267Y-90950000D01*
X126625000Y-90951451D01*
X127375000Y-90951451D01*
X127389733Y-90950000D01*
X127540000Y-90950000D01*
X127559509Y-90948079D01*
X127578269Y-90942388D01*
X127620695Y-90924814D01*
X127637984Y-90915572D01*
X127653137Y-90903136D01*
X127665574Y-90887982D01*
X127674814Y-90870695D01*
X127692388Y-90828269D01*
X127698078Y-90809510D01*
X127699015Y-90800000D01*
X128600000Y-90800000D01*
X128600000Y-91050000D01*
X128600000Y-91050000D01*
G37*
X128600000Y-91050000D02*
X127389733Y-91050000D01*
X127375000Y-91048549D01*
X126625000Y-91048549D01*
X126610267Y-91050000D01*
X126410000Y-91050000D01*
X126390491Y-91051921D01*
X126371731Y-91057612D01*
X126329305Y-91075186D01*
X126312016Y-91084428D01*
X126296863Y-91096864D01*
X126284426Y-91112018D01*
X126275186Y-91129305D01*
X126257612Y-91171731D01*
X126251922Y-91190490D01*
X126250000Y-91210000D01*
X126250000Y-92390000D01*
X126251921Y-92409509D01*
X126257612Y-92428269D01*
X126275186Y-92470695D01*
X126284428Y-92487984D01*
X126296864Y-92503137D01*
X126312018Y-92515574D01*
X126329305Y-92524814D01*
X126371731Y-92542388D01*
X126390490Y-92548078D01*
X126410000Y-92550000D01*
X127350000Y-92550000D01*
X127350000Y-92850000D01*
X126050000Y-92850000D01*
X126050000Y-90950000D01*
X126610267Y-90950000D01*
X126625000Y-90951451D01*
X127375000Y-90951451D01*
X127389733Y-90950000D01*
X127540000Y-90950000D01*
X127559509Y-90948079D01*
X127578269Y-90942388D01*
X127620695Y-90924814D01*
X127637984Y-90915572D01*
X127653137Y-90903136D01*
X127665574Y-90887982D01*
X127674814Y-90870695D01*
X127692388Y-90828269D01*
X127698078Y-90809510D01*
X127699015Y-90800000D01*
X128600000Y-90800000D01*
X128600000Y-91050000D01*
G04 #@! TO.N,Net-(C5-Pad2)*
G36*
X127350000Y-85650000D02*
X126650000Y-85650000D01*
X126650000Y-84500000D01*
X127350000Y-84500000D01*
X127350000Y-85650000D01*
X127350000Y-85650000D01*
G37*
X127350000Y-85650000D02*
X126650000Y-85650000D01*
X126650000Y-84500000D01*
X127350000Y-84500000D01*
X127350000Y-85650000D01*
G04 #@! TO.N,Net-(D1-Pad2)*
G36*
X147350000Y-94500000D02*
X144900000Y-94500000D01*
X144900000Y-93200000D01*
X147040000Y-93200000D01*
X147059509Y-93198079D01*
X147078269Y-93192388D01*
X147120695Y-93174814D01*
X147137984Y-93165572D01*
X147153137Y-93153136D01*
X147165574Y-93137982D01*
X147174814Y-93120695D01*
X147192388Y-93078269D01*
X147198078Y-93059510D01*
X147200000Y-93040000D01*
X147200000Y-87760000D01*
X147198079Y-87740491D01*
X147192388Y-87721731D01*
X147174814Y-87679305D01*
X147165572Y-87662016D01*
X147153136Y-87646863D01*
X147137982Y-87634426D01*
X147120695Y-87625186D01*
X147078269Y-87607612D01*
X147059510Y-87601922D01*
X147040000Y-87600000D01*
X145300000Y-87600000D01*
X145300000Y-86300000D01*
X147350001Y-86300000D01*
X147350000Y-94500000D01*
X147350000Y-94500000D01*
G37*
X147350000Y-94500000D02*
X144900000Y-94500000D01*
X144900000Y-93200000D01*
X147040000Y-93200000D01*
X147059509Y-93198079D01*
X147078269Y-93192388D01*
X147120695Y-93174814D01*
X147137984Y-93165572D01*
X147153137Y-93153136D01*
X147165574Y-93137982D01*
X147174814Y-93120695D01*
X147192388Y-93078269D01*
X147198078Y-93059510D01*
X147200000Y-93040000D01*
X147200000Y-87760000D01*
X147198079Y-87740491D01*
X147192388Y-87721731D01*
X147174814Y-87679305D01*
X147165572Y-87662016D01*
X147153136Y-87646863D01*
X147137982Y-87634426D01*
X147120695Y-87625186D01*
X147078269Y-87607612D01*
X147059510Y-87601922D01*
X147040000Y-87600000D01*
X145300000Y-87600000D01*
X145300000Y-86300000D01*
X147350001Y-86300000D01*
X147350000Y-94500000D01*
G04 #@! TO.N,GNDREF*
G36*
X139500000Y-85540000D02*
X139538062Y-85731347D01*
X139555636Y-85773773D01*
X139664017Y-85935975D01*
X139826227Y-86044364D01*
X139868653Y-86061938D01*
X140060000Y-86100000D01*
X140940000Y-86100000D01*
X141131347Y-86061938D01*
X141173773Y-86044364D01*
X141335975Y-85935983D01*
X141444364Y-85773773D01*
X141461938Y-85731347D01*
X141500000Y-85540000D01*
X141500000Y-83200000D01*
X144600000Y-83200000D01*
X144600000Y-88240000D01*
X144601921Y-88259509D01*
X144607612Y-88278269D01*
X144625186Y-88320695D01*
X144634428Y-88337984D01*
X144646864Y-88353137D01*
X144662018Y-88365574D01*
X144679305Y-88374814D01*
X144721731Y-88392388D01*
X144740490Y-88398078D01*
X144760000Y-88400000D01*
X146800000Y-88400000D01*
X146800000Y-89600000D01*
X144560000Y-89600000D01*
X144540491Y-89601921D01*
X144521731Y-89607612D01*
X144479305Y-89625186D01*
X144462016Y-89634428D01*
X144446863Y-89646864D01*
X144434426Y-89662018D01*
X144425186Y-89679305D01*
X144407612Y-89721731D01*
X144401922Y-89740490D01*
X144400000Y-89760000D01*
X144400000Y-95090000D01*
X144401921Y-95109509D01*
X144407612Y-95128269D01*
X144425186Y-95170695D01*
X144434428Y-95187984D01*
X144446864Y-95203137D01*
X144462018Y-95215574D01*
X144479305Y-95224814D01*
X144521731Y-95242388D01*
X144540490Y-95248078D01*
X144560000Y-95250000D01*
X147150000Y-95250000D01*
X147150000Y-99800000D01*
X144300000Y-99800000D01*
X144300000Y-86360000D01*
X144298079Y-86340491D01*
X144292388Y-86321731D01*
X144274814Y-86279305D01*
X144265572Y-86262016D01*
X144253136Y-86246863D01*
X144237982Y-86234426D01*
X144220695Y-86225186D01*
X144178269Y-86207612D01*
X144159510Y-86201922D01*
X144140000Y-86200000D01*
X135800000Y-86200000D01*
X135800000Y-85660000D01*
X135798079Y-85640491D01*
X135792388Y-85621731D01*
X135774814Y-85579305D01*
X135765572Y-85562016D01*
X135753136Y-85546863D01*
X135737982Y-85534426D01*
X135720695Y-85525186D01*
X135678269Y-85507612D01*
X135659510Y-85501922D01*
X135640000Y-85500000D01*
X134500000Y-85500000D01*
X134500000Y-83110000D01*
X134498079Y-83090491D01*
X134492388Y-83071731D01*
X134474814Y-83029305D01*
X134465572Y-83012016D01*
X134453136Y-82996863D01*
X134437982Y-82984426D01*
X134420695Y-82975186D01*
X134378269Y-82957612D01*
X134359510Y-82951922D01*
X134340000Y-82950000D01*
X133000000Y-82950000D01*
X133000000Y-80650000D01*
X139500000Y-80650000D01*
X139500000Y-85540000D01*
X139500000Y-85540000D01*
G37*
X139500000Y-85540000D02*
X139538062Y-85731347D01*
X139555636Y-85773773D01*
X139664017Y-85935975D01*
X139826227Y-86044364D01*
X139868653Y-86061938D01*
X140060000Y-86100000D01*
X140940000Y-86100000D01*
X141131347Y-86061938D01*
X141173773Y-86044364D01*
X141335975Y-85935983D01*
X141444364Y-85773773D01*
X141461938Y-85731347D01*
X141500000Y-85540000D01*
X141500000Y-83200000D01*
X144600000Y-83200000D01*
X144600000Y-88240000D01*
X144601921Y-88259509D01*
X144607612Y-88278269D01*
X144625186Y-88320695D01*
X144634428Y-88337984D01*
X144646864Y-88353137D01*
X144662018Y-88365574D01*
X144679305Y-88374814D01*
X144721731Y-88392388D01*
X144740490Y-88398078D01*
X144760000Y-88400000D01*
X146800000Y-88400000D01*
X146800000Y-89600000D01*
X144560000Y-89600000D01*
X144540491Y-89601921D01*
X144521731Y-89607612D01*
X144479305Y-89625186D01*
X144462016Y-89634428D01*
X144446863Y-89646864D01*
X144434426Y-89662018D01*
X144425186Y-89679305D01*
X144407612Y-89721731D01*
X144401922Y-89740490D01*
X144400000Y-89760000D01*
X144400000Y-95090000D01*
X144401921Y-95109509D01*
X144407612Y-95128269D01*
X144425186Y-95170695D01*
X144434428Y-95187984D01*
X144446864Y-95203137D01*
X144462018Y-95215574D01*
X144479305Y-95224814D01*
X144521731Y-95242388D01*
X144540490Y-95248078D01*
X144560000Y-95250000D01*
X147150000Y-95250000D01*
X147150000Y-99800000D01*
X144300000Y-99800000D01*
X144300000Y-86360000D01*
X144298079Y-86340491D01*
X144292388Y-86321731D01*
X144274814Y-86279305D01*
X144265572Y-86262016D01*
X144253136Y-86246863D01*
X144237982Y-86234426D01*
X144220695Y-86225186D01*
X144178269Y-86207612D01*
X144159510Y-86201922D01*
X144140000Y-86200000D01*
X135800000Y-86200000D01*
X135800000Y-85660000D01*
X135798079Y-85640491D01*
X135792388Y-85621731D01*
X135774814Y-85579305D01*
X135765572Y-85562016D01*
X135753136Y-85546863D01*
X135737982Y-85534426D01*
X135720695Y-85525186D01*
X135678269Y-85507612D01*
X135659510Y-85501922D01*
X135640000Y-85500000D01*
X134500000Y-85500000D01*
X134500000Y-83110000D01*
X134498079Y-83090491D01*
X134492388Y-83071731D01*
X134474814Y-83029305D01*
X134465572Y-83012016D01*
X134453136Y-82996863D01*
X134437982Y-82984426D01*
X134420695Y-82975186D01*
X134378269Y-82957612D01*
X134359510Y-82951922D01*
X134340000Y-82950000D01*
X133000000Y-82950000D01*
X133000000Y-80650000D01*
X139500000Y-80650000D01*
X139500000Y-85540000D01*
G04 #@! TO.N,Net-(C5-Pad2)*
G36*
X147150000Y-84600000D02*
X145200000Y-84600000D01*
X145200000Y-82760000D01*
X145198079Y-82740491D01*
X145192388Y-82721731D01*
X145174814Y-82679305D01*
X145165572Y-82662016D01*
X145153136Y-82646863D01*
X145137982Y-82634426D01*
X145120695Y-82625186D01*
X145078269Y-82607612D01*
X145059510Y-82601922D01*
X145040000Y-82600000D01*
X141060000Y-82600000D01*
X141040491Y-82601921D01*
X141021731Y-82607612D01*
X140979305Y-82625186D01*
X140962016Y-82634428D01*
X140946863Y-82646864D01*
X140934426Y-82662018D01*
X140925186Y-82679305D01*
X140907612Y-82721731D01*
X140901922Y-82740490D01*
X140900000Y-82760000D01*
X140900000Y-85500000D01*
X140100000Y-85500000D01*
X140100000Y-80650000D01*
X147150000Y-80650000D01*
X147150000Y-84600000D01*
X147150000Y-84600000D01*
G37*
X147150000Y-84600000D02*
X145200000Y-84600000D01*
X145200000Y-82760000D01*
X145198079Y-82740491D01*
X145192388Y-82721731D01*
X145174814Y-82679305D01*
X145165572Y-82662016D01*
X145153136Y-82646863D01*
X145137982Y-82634426D01*
X145120695Y-82625186D01*
X145078269Y-82607612D01*
X145059510Y-82601922D01*
X145040000Y-82600000D01*
X141060000Y-82600000D01*
X141040491Y-82601921D01*
X141021731Y-82607612D01*
X140979305Y-82625186D01*
X140962016Y-82634428D01*
X140946863Y-82646864D01*
X140934426Y-82662018D01*
X140925186Y-82679305D01*
X140907612Y-82721731D01*
X140901922Y-82740490D01*
X140900000Y-82760000D01*
X140900000Y-85500000D01*
X140100000Y-85500000D01*
X140100000Y-80650000D01*
X147150000Y-80650000D01*
X147150000Y-84600000D01*
G04 #@! TO.N,GNDREF*
G36*
X130850000Y-86500000D02*
X130872836Y-86614804D01*
X130902125Y-86685515D01*
X130967158Y-86782844D01*
X131064485Y-86847875D01*
X131135196Y-86877164D01*
X131250000Y-86900000D01*
X132000000Y-86900000D01*
X132000000Y-88450000D01*
X131760000Y-88450000D01*
X131740491Y-88451921D01*
X131721731Y-88457612D01*
X131679305Y-88475186D01*
X131662016Y-88484428D01*
X131646863Y-88496864D01*
X131634426Y-88512018D01*
X131625186Y-88529305D01*
X131607612Y-88571731D01*
X131601922Y-88590490D01*
X131600000Y-88610000D01*
X131600000Y-91711935D01*
X131545192Y-91722837D01*
X131502766Y-91740411D01*
X131405444Y-91805440D01*
X131340411Y-91902766D01*
X131322837Y-91945192D01*
X131300000Y-92060000D01*
X131300000Y-92350000D01*
X128910000Y-92350000D01*
X128890491Y-92351921D01*
X128871731Y-92357612D01*
X128829305Y-92375186D01*
X128812016Y-92384428D01*
X128796863Y-92396864D01*
X128784426Y-92412018D01*
X128775186Y-92429305D01*
X128757612Y-92471731D01*
X128751922Y-92490490D01*
X128750000Y-92510000D01*
X128750000Y-94550000D01*
X127910000Y-94550000D01*
X127890491Y-94551921D01*
X127871731Y-94557612D01*
X127829305Y-94575186D01*
X127812016Y-94584428D01*
X127796863Y-94596864D01*
X127784426Y-94612018D01*
X127775186Y-94629305D01*
X127757612Y-94671731D01*
X127751922Y-94690490D01*
X127750000Y-94710000D01*
X127750000Y-99800000D01*
X126250000Y-99800000D01*
X126250000Y-93350000D01*
X127590000Y-93350000D01*
X127609509Y-93348079D01*
X127628269Y-93342388D01*
X127670695Y-93324814D01*
X127687984Y-93315572D01*
X127703137Y-93303136D01*
X127715574Y-93287982D01*
X127724814Y-93270695D01*
X127742388Y-93228269D01*
X127748078Y-93209510D01*
X127750000Y-93190000D01*
X127750000Y-92964733D01*
X127751451Y-92950000D01*
X127751451Y-92450000D01*
X127750000Y-92435267D01*
X127750000Y-92210000D01*
X127748079Y-92190491D01*
X127742388Y-92171731D01*
X127724814Y-92129305D01*
X127715572Y-92112016D01*
X127703136Y-92096863D01*
X127687982Y-92084426D01*
X127670695Y-92075186D01*
X127628269Y-92057612D01*
X127609510Y-92051922D01*
X127590000Y-92050000D01*
X126650000Y-92050000D01*
X126650000Y-91450000D01*
X128840000Y-91450000D01*
X128859509Y-91448079D01*
X128878269Y-91442388D01*
X128920695Y-91424814D01*
X128937984Y-91415572D01*
X128953137Y-91403136D01*
X128965574Y-91387982D01*
X128974814Y-91370695D01*
X128992388Y-91328269D01*
X128998078Y-91309510D01*
X129000000Y-91290000D01*
X129000000Y-88350000D01*
X129485267Y-88350000D01*
X129500000Y-88351451D01*
X130000000Y-88351451D01*
X130058810Y-88345659D01*
X130115360Y-88328504D01*
X130167477Y-88300647D01*
X130213158Y-88263158D01*
X130250647Y-88217477D01*
X130278504Y-88165360D01*
X130295659Y-88108810D01*
X130301451Y-88050000D01*
X130301451Y-87150000D01*
X130295659Y-87091190D01*
X130278504Y-87034640D01*
X130250647Y-86982523D01*
X130213158Y-86936842D01*
X130167477Y-86899353D01*
X130115360Y-86871496D01*
X130058810Y-86854341D01*
X130000000Y-86848549D01*
X129800000Y-86848549D01*
X129800000Y-85760000D01*
X129798079Y-85740491D01*
X129792388Y-85721731D01*
X129774814Y-85679305D01*
X129765572Y-85662016D01*
X129753136Y-85646863D01*
X129737982Y-85634426D01*
X129720695Y-85625186D01*
X129678269Y-85607612D01*
X129659510Y-85601922D01*
X129640000Y-85600000D01*
X128200000Y-85600000D01*
X128200000Y-83775000D01*
X130850000Y-83775000D01*
X130850000Y-86500000D01*
X130850000Y-86500000D01*
G37*
X130850000Y-86500000D02*
X130872836Y-86614804D01*
X130902125Y-86685515D01*
X130967158Y-86782844D01*
X131064485Y-86847875D01*
X131135196Y-86877164D01*
X131250000Y-86900000D01*
X132000000Y-86900000D01*
X132000000Y-88450000D01*
X131760000Y-88450000D01*
X131740491Y-88451921D01*
X131721731Y-88457612D01*
X131679305Y-88475186D01*
X131662016Y-88484428D01*
X131646863Y-88496864D01*
X131634426Y-88512018D01*
X131625186Y-88529305D01*
X131607612Y-88571731D01*
X131601922Y-88590490D01*
X131600000Y-88610000D01*
X131600000Y-91711935D01*
X131545192Y-91722837D01*
X131502766Y-91740411D01*
X131405444Y-91805440D01*
X131340411Y-91902766D01*
X131322837Y-91945192D01*
X131300000Y-92060000D01*
X131300000Y-92350000D01*
X128910000Y-92350000D01*
X128890491Y-92351921D01*
X128871731Y-92357612D01*
X128829305Y-92375186D01*
X128812016Y-92384428D01*
X128796863Y-92396864D01*
X128784426Y-92412018D01*
X128775186Y-92429305D01*
X128757612Y-92471731D01*
X128751922Y-92490490D01*
X128750000Y-92510000D01*
X128750000Y-94550000D01*
X127910000Y-94550000D01*
X127890491Y-94551921D01*
X127871731Y-94557612D01*
X127829305Y-94575186D01*
X127812016Y-94584428D01*
X127796863Y-94596864D01*
X127784426Y-94612018D01*
X127775186Y-94629305D01*
X127757612Y-94671731D01*
X127751922Y-94690490D01*
X127750000Y-94710000D01*
X127750000Y-99800000D01*
X126250000Y-99800000D01*
X126250000Y-93350000D01*
X127590000Y-93350000D01*
X127609509Y-93348079D01*
X127628269Y-93342388D01*
X127670695Y-93324814D01*
X127687984Y-93315572D01*
X127703137Y-93303136D01*
X127715574Y-93287982D01*
X127724814Y-93270695D01*
X127742388Y-93228269D01*
X127748078Y-93209510D01*
X127750000Y-93190000D01*
X127750000Y-92964733D01*
X127751451Y-92950000D01*
X127751451Y-92450000D01*
X127750000Y-92435267D01*
X127750000Y-92210000D01*
X127748079Y-92190491D01*
X127742388Y-92171731D01*
X127724814Y-92129305D01*
X127715572Y-92112016D01*
X127703136Y-92096863D01*
X127687982Y-92084426D01*
X127670695Y-92075186D01*
X127628269Y-92057612D01*
X127609510Y-92051922D01*
X127590000Y-92050000D01*
X126650000Y-92050000D01*
X126650000Y-91450000D01*
X128840000Y-91450000D01*
X128859509Y-91448079D01*
X128878269Y-91442388D01*
X128920695Y-91424814D01*
X128937984Y-91415572D01*
X128953137Y-91403136D01*
X128965574Y-91387982D01*
X128974814Y-91370695D01*
X128992388Y-91328269D01*
X128998078Y-91309510D01*
X129000000Y-91290000D01*
X129000000Y-88350000D01*
X129485267Y-88350000D01*
X129500000Y-88351451D01*
X130000000Y-88351451D01*
X130058810Y-88345659D01*
X130115360Y-88328504D01*
X130167477Y-88300647D01*
X130213158Y-88263158D01*
X130250647Y-88217477D01*
X130278504Y-88165360D01*
X130295659Y-88108810D01*
X130301451Y-88050000D01*
X130301451Y-87150000D01*
X130295659Y-87091190D01*
X130278504Y-87034640D01*
X130250647Y-86982523D01*
X130213158Y-86936842D01*
X130167477Y-86899353D01*
X130115360Y-86871496D01*
X130058810Y-86854341D01*
X130000000Y-86848549D01*
X129800000Y-86848549D01*
X129800000Y-85760000D01*
X129798079Y-85740491D01*
X129792388Y-85721731D01*
X129774814Y-85679305D01*
X129765572Y-85662016D01*
X129753136Y-85646863D01*
X129737982Y-85634426D01*
X129720695Y-85625186D01*
X129678269Y-85607612D01*
X129659510Y-85601922D01*
X129640000Y-85600000D01*
X128200000Y-85600000D01*
X128200000Y-83775000D01*
X130850000Y-83775000D01*
X130850000Y-86500000D01*
G04 #@! TO.N,Net-(Q1-Pad2)*
G36*
X131200000Y-95098549D02*
X130385000Y-95098549D01*
X130370267Y-95100000D01*
X130210000Y-95100000D01*
X130190491Y-95101921D01*
X130171731Y-95107612D01*
X130129305Y-95125186D01*
X130112016Y-95134428D01*
X130096863Y-95146864D01*
X130084426Y-95162018D01*
X130075186Y-95179305D01*
X130057612Y-95221731D01*
X130051922Y-95240490D01*
X130050000Y-95260000D01*
X130050000Y-99800000D01*
X128150000Y-99800000D01*
X128150000Y-99000000D01*
X129840000Y-99000000D01*
X129859509Y-98998079D01*
X129878269Y-98992388D01*
X129920695Y-98974814D01*
X129937984Y-98965572D01*
X129953137Y-98953136D01*
X129965574Y-98937982D01*
X129974814Y-98920695D01*
X129992388Y-98878269D01*
X129998078Y-98859510D01*
X130000000Y-98840000D01*
X130000000Y-95050000D01*
X130740000Y-95050000D01*
X130759509Y-95048079D01*
X130778269Y-95042388D01*
X130820695Y-95024814D01*
X130837984Y-95015572D01*
X130853137Y-95003136D01*
X130865574Y-94987982D01*
X130874814Y-94970695D01*
X130892388Y-94928269D01*
X130898078Y-94909510D01*
X130900000Y-94890000D01*
X130900000Y-93400000D01*
X131200000Y-93400000D01*
X131200000Y-95098549D01*
X131200000Y-95098549D01*
G37*
X131200000Y-95098549D02*
X130385000Y-95098549D01*
X130370267Y-95100000D01*
X130210000Y-95100000D01*
X130190491Y-95101921D01*
X130171731Y-95107612D01*
X130129305Y-95125186D01*
X130112016Y-95134428D01*
X130096863Y-95146864D01*
X130084426Y-95162018D01*
X130075186Y-95179305D01*
X130057612Y-95221731D01*
X130051922Y-95240490D01*
X130050000Y-95260000D01*
X130050000Y-99800000D01*
X128150000Y-99800000D01*
X128150000Y-99000000D01*
X129840000Y-99000000D01*
X129859509Y-98998079D01*
X129878269Y-98992388D01*
X129920695Y-98974814D01*
X129937984Y-98965572D01*
X129953137Y-98953136D01*
X129965574Y-98937982D01*
X129974814Y-98920695D01*
X129992388Y-98878269D01*
X129998078Y-98859510D01*
X130000000Y-98840000D01*
X130000000Y-95050000D01*
X130740000Y-95050000D01*
X130759509Y-95048079D01*
X130778269Y-95042388D01*
X130820695Y-95024814D01*
X130837984Y-95015572D01*
X130853137Y-95003136D01*
X130865574Y-94987982D01*
X130874814Y-94970695D01*
X130892388Y-94928269D01*
X130898078Y-94909510D01*
X130900000Y-94890000D01*
X130900000Y-93400000D01*
X131200000Y-93400000D01*
X131200000Y-95098549D01*
G04 #@! TO.N,Net-(Q1-Pad3)*
G36*
X132800000Y-92350000D02*
X132060000Y-92350000D01*
X132040491Y-92351921D01*
X132021731Y-92357612D01*
X131979305Y-92375186D01*
X131962016Y-92384428D01*
X131946863Y-92396864D01*
X131934426Y-92412018D01*
X131925186Y-92429305D01*
X131907612Y-92471731D01*
X131901922Y-92490490D01*
X131900000Y-92510000D01*
X131900000Y-92950000D01*
X130560000Y-92950000D01*
X130540491Y-92951921D01*
X130521731Y-92957612D01*
X130479305Y-92975186D01*
X130462016Y-92984428D01*
X130446863Y-92996864D01*
X130434426Y-93012018D01*
X130425186Y-93029305D01*
X130407612Y-93071731D01*
X130401922Y-93090490D01*
X130400000Y-93110000D01*
X130400000Y-94650000D01*
X129760000Y-94650000D01*
X129740491Y-94651921D01*
X129721731Y-94657612D01*
X129679305Y-94675186D01*
X129662016Y-94684428D01*
X129646863Y-94696864D01*
X129634426Y-94712018D01*
X129625186Y-94729305D01*
X129607612Y-94771731D01*
X129601922Y-94790490D01*
X129600000Y-94810000D01*
X129600000Y-98600000D01*
X128150000Y-98600000D01*
X128150000Y-94950000D01*
X128990000Y-94950000D01*
X129009509Y-94948079D01*
X129028269Y-94942388D01*
X129070695Y-94924814D01*
X129087984Y-94915572D01*
X129103137Y-94903136D01*
X129115574Y-94887982D01*
X129124814Y-94870695D01*
X129142388Y-94828269D01*
X129148078Y-94809510D01*
X129150000Y-94790000D01*
X129150000Y-92750000D01*
X131540000Y-92750000D01*
X131559509Y-92748079D01*
X131578269Y-92742388D01*
X131620695Y-92724814D01*
X131637984Y-92715572D01*
X131653137Y-92703136D01*
X131665574Y-92687982D01*
X131674814Y-92670695D01*
X131692388Y-92628269D01*
X131698078Y-92609510D01*
X131700000Y-92590000D01*
X131700000Y-92100000D01*
X132800000Y-92100000D01*
X132800000Y-92350000D01*
X132800000Y-92350000D01*
G37*
X132800000Y-92350000D02*
X132060000Y-92350000D01*
X132040491Y-92351921D01*
X132021731Y-92357612D01*
X131979305Y-92375186D01*
X131962016Y-92384428D01*
X131946863Y-92396864D01*
X131934426Y-92412018D01*
X131925186Y-92429305D01*
X131907612Y-92471731D01*
X131901922Y-92490490D01*
X131900000Y-92510000D01*
X131900000Y-92950000D01*
X130560000Y-92950000D01*
X130540491Y-92951921D01*
X130521731Y-92957612D01*
X130479305Y-92975186D01*
X130462016Y-92984428D01*
X130446863Y-92996864D01*
X130434426Y-93012018D01*
X130425186Y-93029305D01*
X130407612Y-93071731D01*
X130401922Y-93090490D01*
X130400000Y-93110000D01*
X130400000Y-94650000D01*
X129760000Y-94650000D01*
X129740491Y-94651921D01*
X129721731Y-94657612D01*
X129679305Y-94675186D01*
X129662016Y-94684428D01*
X129646863Y-94696864D01*
X129634426Y-94712018D01*
X129625186Y-94729305D01*
X129607612Y-94771731D01*
X129601922Y-94790490D01*
X129600000Y-94810000D01*
X129600000Y-98600000D01*
X128150000Y-98600000D01*
X128150000Y-94950000D01*
X128990000Y-94950000D01*
X129009509Y-94948079D01*
X129028269Y-94942388D01*
X129070695Y-94924814D01*
X129087984Y-94915572D01*
X129103137Y-94903136D01*
X129115574Y-94887982D01*
X129124814Y-94870695D01*
X129142388Y-94828269D01*
X129148078Y-94809510D01*
X129150000Y-94790000D01*
X129150000Y-92750000D01*
X131540000Y-92750000D01*
X131559509Y-92748079D01*
X131578269Y-92742388D01*
X131620695Y-92724814D01*
X131637984Y-92715572D01*
X131653137Y-92703136D01*
X131665574Y-92687982D01*
X131674814Y-92670695D01*
X131692388Y-92628269D01*
X131698078Y-92609510D01*
X131700000Y-92590000D01*
X131700000Y-92100000D01*
X132800000Y-92100000D01*
X132800000Y-92350000D01*
D31*
G04 #@! TO.N,Net-(J2-Pad1)*
G36*
X131282443Y-83342557D02*
X131300000Y-83384945D01*
X131300000Y-86300000D01*
X131300961Y-86309755D01*
X131303806Y-86319134D01*
X131333095Y-86389845D01*
X131337715Y-86398489D01*
X131343933Y-86406066D01*
X131351510Y-86412284D01*
X131360155Y-86416905D01*
X131430866Y-86446194D01*
X131440246Y-86449039D01*
X131450000Y-86450000D01*
X132390055Y-86450000D01*
X132432443Y-86467557D01*
X132450000Y-86509945D01*
X132450000Y-88650000D01*
X132450961Y-88659755D01*
X132453806Y-88669134D01*
X132483095Y-88739845D01*
X132487715Y-88748489D01*
X132493933Y-88756066D01*
X132501510Y-88762284D01*
X132510155Y-88766905D01*
X132580866Y-88796194D01*
X132590246Y-88799039D01*
X132600000Y-88800000D01*
X132740055Y-88800000D01*
X132782443Y-88817557D01*
X132800000Y-88859945D01*
X132800000Y-89090055D01*
X132782443Y-89132443D01*
X132740055Y-89150000D01*
X132009945Y-89150000D01*
X131967557Y-89132443D01*
X131950000Y-89090055D01*
X131950000Y-88859945D01*
X131967557Y-88817557D01*
X132009945Y-88800000D01*
X132200000Y-88800000D01*
X132209755Y-88799039D01*
X132219134Y-88796194D01*
X132289845Y-88766905D01*
X132298489Y-88762285D01*
X132306066Y-88756067D01*
X132312284Y-88748490D01*
X132316905Y-88739845D01*
X132346194Y-88669134D01*
X132349039Y-88659754D01*
X132350000Y-88650000D01*
X132350000Y-86700000D01*
X132349039Y-86690245D01*
X132346194Y-86680866D01*
X132316905Y-86610155D01*
X132312285Y-86601511D01*
X132306067Y-86593934D01*
X132298490Y-86587716D01*
X132289845Y-86583095D01*
X132219134Y-86553806D01*
X132209754Y-86550961D01*
X132200000Y-86550000D01*
X131259945Y-86550000D01*
X131217557Y-86532443D01*
X131200000Y-86490055D01*
X131200000Y-83575000D01*
X131199039Y-83565245D01*
X131196194Y-83555866D01*
X131166905Y-83485155D01*
X131162285Y-83476511D01*
X131156067Y-83468934D01*
X131148490Y-83462716D01*
X131139845Y-83458095D01*
X131069134Y-83428806D01*
X131059754Y-83425961D01*
X131050000Y-83425000D01*
X127609945Y-83425000D01*
X127567557Y-83407443D01*
X127554119Y-83375000D01*
X127567557Y-83342557D01*
X127609945Y-83325000D01*
X131240055Y-83325000D01*
X131282443Y-83342557D01*
X131282443Y-83342557D01*
G37*
X131282443Y-83342557D02*
X131300000Y-83384945D01*
X131300000Y-86300000D01*
X131300961Y-86309755D01*
X131303806Y-86319134D01*
X131333095Y-86389845D01*
X131337715Y-86398489D01*
X131343933Y-86406066D01*
X131351510Y-86412284D01*
X131360155Y-86416905D01*
X131430866Y-86446194D01*
X131440246Y-86449039D01*
X131450000Y-86450000D01*
X132390055Y-86450000D01*
X132432443Y-86467557D01*
X132450000Y-86509945D01*
X132450000Y-88650000D01*
X132450961Y-88659755D01*
X132453806Y-88669134D01*
X132483095Y-88739845D01*
X132487715Y-88748489D01*
X132493933Y-88756066D01*
X132501510Y-88762284D01*
X132510155Y-88766905D01*
X132580866Y-88796194D01*
X132590246Y-88799039D01*
X132600000Y-88800000D01*
X132740055Y-88800000D01*
X132782443Y-88817557D01*
X132800000Y-88859945D01*
X132800000Y-89090055D01*
X132782443Y-89132443D01*
X132740055Y-89150000D01*
X132009945Y-89150000D01*
X131967557Y-89132443D01*
X131950000Y-89090055D01*
X131950000Y-88859945D01*
X131967557Y-88817557D01*
X132009945Y-88800000D01*
X132200000Y-88800000D01*
X132209755Y-88799039D01*
X132219134Y-88796194D01*
X132289845Y-88766905D01*
X132298489Y-88762285D01*
X132306066Y-88756067D01*
X132312284Y-88748490D01*
X132316905Y-88739845D01*
X132346194Y-88669134D01*
X132349039Y-88659754D01*
X132350000Y-88650000D01*
X132350000Y-86700000D01*
X132349039Y-86690245D01*
X132346194Y-86680866D01*
X132316905Y-86610155D01*
X132312285Y-86601511D01*
X132306067Y-86593934D01*
X132298490Y-86587716D01*
X132289845Y-86583095D01*
X132219134Y-86553806D01*
X132209754Y-86550961D01*
X132200000Y-86550000D01*
X131259945Y-86550000D01*
X131217557Y-86532443D01*
X131200000Y-86490055D01*
X131200000Y-83575000D01*
X131199039Y-83565245D01*
X131196194Y-83555866D01*
X131166905Y-83485155D01*
X131162285Y-83476511D01*
X131156067Y-83468934D01*
X131148490Y-83462716D01*
X131139845Y-83458095D01*
X131069134Y-83428806D01*
X131059754Y-83425961D01*
X131050000Y-83425000D01*
X127609945Y-83425000D01*
X127567557Y-83407443D01*
X127554119Y-83375000D01*
X127567557Y-83342557D01*
X127609945Y-83325000D01*
X131240055Y-83325000D01*
X131282443Y-83342557D01*
D29*
G04 #@! TO.N,Net-(Q1-Pad1)*
G36*
X135350000Y-99750000D02*
X130500000Y-99750000D01*
X130500000Y-95500000D01*
X133040000Y-95500000D01*
X133059509Y-95498079D01*
X133078269Y-95492388D01*
X133120695Y-95474814D01*
X133137984Y-95465572D01*
X133153137Y-95453136D01*
X133165574Y-95437982D01*
X133174814Y-95420695D01*
X133192388Y-95378269D01*
X133198078Y-95359510D01*
X133200000Y-95340000D01*
X133200000Y-93500000D01*
X135350000Y-93500000D01*
X135350000Y-99750000D01*
X135350000Y-99750000D01*
G37*
X135350000Y-99750000D02*
X130500000Y-99750000D01*
X130500000Y-95500000D01*
X133040000Y-95500000D01*
X133059509Y-95498079D01*
X133078269Y-95492388D01*
X133120695Y-95474814D01*
X133137984Y-95465572D01*
X133153137Y-95453136D01*
X133165574Y-95437982D01*
X133174814Y-95420695D01*
X133192388Y-95378269D01*
X133198078Y-95359510D01*
X133200000Y-95340000D01*
X133200000Y-93500000D01*
X135350000Y-93500000D01*
X135350000Y-99750000D01*
G04 #@! TO.N,Net-(C7-Pad1)*
G36*
X133800000Y-90798549D02*
X133620000Y-90798549D01*
X133561190Y-90804341D01*
X133504640Y-90821496D01*
X133452523Y-90849353D01*
X133406842Y-90886842D01*
X133369353Y-90932523D01*
X133341496Y-90984640D01*
X133324341Y-91041190D01*
X133323473Y-91050000D01*
X132000000Y-91050000D01*
X132000000Y-90786451D01*
X132850000Y-90786451D01*
X132908810Y-90780659D01*
X132965360Y-90763504D01*
X133017477Y-90735647D01*
X133063158Y-90698158D01*
X133100647Y-90652477D01*
X133128504Y-90600360D01*
X133145659Y-90543810D01*
X133151451Y-90485000D01*
X133151451Y-90065000D01*
X133149974Y-90050000D01*
X133800000Y-90050000D01*
X133800000Y-90798549D01*
X133800000Y-90798549D01*
G37*
X133800000Y-90798549D02*
X133620000Y-90798549D01*
X133561190Y-90804341D01*
X133504640Y-90821496D01*
X133452523Y-90849353D01*
X133406842Y-90886842D01*
X133369353Y-90932523D01*
X133341496Y-90984640D01*
X133324341Y-91041190D01*
X133323473Y-91050000D01*
X132000000Y-91050000D01*
X132000000Y-90786451D01*
X132850000Y-90786451D01*
X132908810Y-90780659D01*
X132965360Y-90763504D01*
X133017477Y-90735647D01*
X133063158Y-90698158D01*
X133100647Y-90652477D01*
X133128504Y-90600360D01*
X133145659Y-90543810D01*
X133151451Y-90485000D01*
X133151451Y-90065000D01*
X133149974Y-90050000D01*
X133800000Y-90050000D01*
X133800000Y-90798549D01*
G04 #@! TO.N,Net-(R6-Pad2)*
G36*
X133300000Y-93050000D02*
X132960000Y-93050000D01*
X132940491Y-93051921D01*
X132921731Y-93057612D01*
X132879305Y-93075186D01*
X132862016Y-93084428D01*
X132846863Y-93096864D01*
X132834426Y-93112018D01*
X132825186Y-93129305D01*
X132807612Y-93171731D01*
X132801922Y-93190490D01*
X132800000Y-93210000D01*
X132800000Y-94350000D01*
X132300000Y-94350000D01*
X132300000Y-92750000D01*
X132840000Y-92750000D01*
X132954808Y-92727163D01*
X132997234Y-92709589D01*
X133094556Y-92644560D01*
X133159589Y-92547234D01*
X133177163Y-92504808D01*
X133200000Y-92390000D01*
X133200000Y-92060000D01*
X133177163Y-91945192D01*
X133159589Y-91902766D01*
X133094560Y-91805444D01*
X132997234Y-91740411D01*
X132954808Y-91722837D01*
X132840000Y-91700000D01*
X132000000Y-91700000D01*
X132000000Y-91450000D01*
X133300000Y-91450000D01*
X133300000Y-93050000D01*
X133300000Y-93050000D01*
G37*
X133300000Y-93050000D02*
X132960000Y-93050000D01*
X132940491Y-93051921D01*
X132921731Y-93057612D01*
X132879305Y-93075186D01*
X132862016Y-93084428D01*
X132846863Y-93096864D01*
X132834426Y-93112018D01*
X132825186Y-93129305D01*
X132807612Y-93171731D01*
X132801922Y-93190490D01*
X132800000Y-93210000D01*
X132800000Y-94350000D01*
X132300000Y-94350000D01*
X132300000Y-92750000D01*
X132840000Y-92750000D01*
X132954808Y-92727163D01*
X132997234Y-92709589D01*
X133094556Y-92644560D01*
X133159589Y-92547234D01*
X133177163Y-92504808D01*
X133200000Y-92390000D01*
X133200000Y-92060000D01*
X133177163Y-91945192D01*
X133159589Y-91902766D01*
X133094560Y-91805444D01*
X132997234Y-91740411D01*
X132954808Y-91722837D01*
X132840000Y-91700000D01*
X132000000Y-91700000D01*
X132000000Y-91450000D01*
X133300000Y-91450000D01*
X133300000Y-93050000D01*
G04 #@! TO.N,GNDREF*
G36*
X135425000Y-92600000D02*
X133800000Y-92600000D01*
X133800000Y-92201451D01*
X134720000Y-92201451D01*
X134778810Y-92195659D01*
X134835360Y-92178504D01*
X134887477Y-92150647D01*
X134933158Y-92113158D01*
X134970647Y-92067477D01*
X134998504Y-92015360D01*
X135015659Y-91958810D01*
X135021451Y-91900000D01*
X135021451Y-91100000D01*
X135015659Y-91041190D01*
X134998504Y-90984640D01*
X134970647Y-90932523D01*
X134933158Y-90886842D01*
X134887477Y-90849353D01*
X134835360Y-90821496D01*
X134778810Y-90804341D01*
X134720000Y-90798549D01*
X134600000Y-90798549D01*
X134600000Y-90050000D01*
X135425000Y-90050000D01*
X135425000Y-92600000D01*
X135425000Y-92600000D01*
G37*
X135425000Y-92600000D02*
X133800000Y-92600000D01*
X133800000Y-92201451D01*
X134720000Y-92201451D01*
X134778810Y-92195659D01*
X134835360Y-92178504D01*
X134887477Y-92150647D01*
X134933158Y-92113158D01*
X134970647Y-92067477D01*
X134998504Y-92015360D01*
X135015659Y-91958810D01*
X135021451Y-91900000D01*
X135021451Y-91100000D01*
X135015659Y-91041190D01*
X134998504Y-90984640D01*
X134970647Y-90932523D01*
X134933158Y-90886842D01*
X134887477Y-90849353D01*
X134835360Y-90821496D01*
X134778810Y-90804341D01*
X134720000Y-90798549D01*
X134600000Y-90798549D01*
X134600000Y-90050000D01*
X135425000Y-90050000D01*
X135425000Y-92600000D01*
G04 #@! TO.N,Net-(C1-Pad2)*
G36*
X132598549Y-83050000D02*
X132604341Y-83108810D01*
X132621496Y-83165360D01*
X132649353Y-83217477D01*
X132686842Y-83263158D01*
X132732523Y-83300647D01*
X132784640Y-83328504D01*
X132841190Y-83345659D01*
X132900000Y-83351451D01*
X133900000Y-83351451D01*
X133914733Y-83350000D01*
X134098549Y-83350000D01*
X134098549Y-85600000D01*
X134104341Y-85658810D01*
X134121496Y-85715360D01*
X134149353Y-85767477D01*
X134186842Y-85813158D01*
X134232523Y-85850647D01*
X134284640Y-85878504D01*
X134341190Y-85895659D01*
X134400000Y-85901451D01*
X135400000Y-85901451D01*
X135400000Y-89675000D01*
X135364733Y-89675000D01*
X135350000Y-89673549D01*
X134550000Y-89673549D01*
X134535267Y-89675000D01*
X133864733Y-89675000D01*
X133850000Y-89673549D01*
X133050000Y-89673549D01*
X132991190Y-89679341D01*
X132934640Y-89696496D01*
X132882523Y-89724353D01*
X132836842Y-89761842D01*
X132799353Y-89807523D01*
X132771496Y-89859640D01*
X132754341Y-89916190D01*
X132748549Y-89975000D01*
X132748549Y-90400000D01*
X132000000Y-90400000D01*
X132000000Y-89500000D01*
X132750000Y-89500000D01*
X132818115Y-89486451D01*
X132850000Y-89486451D01*
X132908810Y-89480659D01*
X132965360Y-89463504D01*
X133017477Y-89435647D01*
X133063158Y-89398158D01*
X133100647Y-89352477D01*
X133128504Y-89300360D01*
X133145659Y-89243810D01*
X133151451Y-89185000D01*
X133151451Y-88765000D01*
X133145659Y-88706190D01*
X133128504Y-88649640D01*
X133100647Y-88597523D01*
X133063158Y-88551842D01*
X133017477Y-88514353D01*
X132965360Y-88486496D01*
X132908810Y-88469341D01*
X132850000Y-88463549D01*
X132818114Y-88463549D01*
X132800000Y-88459946D01*
X132800000Y-86500000D01*
X132777164Y-86385196D01*
X132747875Y-86314485D01*
X132682842Y-86217156D01*
X132585515Y-86152125D01*
X132514804Y-86122836D01*
X132400000Y-86100000D01*
X131650000Y-86100000D01*
X131650000Y-83375000D01*
X131627164Y-83260196D01*
X131597875Y-83189485D01*
X131532842Y-83092156D01*
X131435515Y-83027125D01*
X131364804Y-82997836D01*
X131250000Y-82975000D01*
X128200000Y-82975000D01*
X128200000Y-82110000D01*
X128198079Y-82090491D01*
X128192388Y-82071731D01*
X128174814Y-82029305D01*
X128165572Y-82012016D01*
X128153136Y-81996863D01*
X128137982Y-81984426D01*
X128120695Y-81975186D01*
X128078269Y-81957612D01*
X128059510Y-81951922D01*
X128040000Y-81950000D01*
X126250000Y-81950000D01*
X126250000Y-80650000D01*
X132598549Y-80650000D01*
X132598549Y-83050000D01*
X132598549Y-83050000D01*
G37*
X132598549Y-83050000D02*
X132604341Y-83108810D01*
X132621496Y-83165360D01*
X132649353Y-83217477D01*
X132686842Y-83263158D01*
X132732523Y-83300647D01*
X132784640Y-83328504D01*
X132841190Y-83345659D01*
X132900000Y-83351451D01*
X133900000Y-83351451D01*
X133914733Y-83350000D01*
X134098549Y-83350000D01*
X134098549Y-85600000D01*
X134104341Y-85658810D01*
X134121496Y-85715360D01*
X134149353Y-85767477D01*
X134186842Y-85813158D01*
X134232523Y-85850647D01*
X134284640Y-85878504D01*
X134341190Y-85895659D01*
X134400000Y-85901451D01*
X135400000Y-85901451D01*
X135400000Y-89675000D01*
X135364733Y-89675000D01*
X135350000Y-89673549D01*
X134550000Y-89673549D01*
X134535267Y-89675000D01*
X133864733Y-89675000D01*
X133850000Y-89673549D01*
X133050000Y-89673549D01*
X132991190Y-89679341D01*
X132934640Y-89696496D01*
X132882523Y-89724353D01*
X132836842Y-89761842D01*
X132799353Y-89807523D01*
X132771496Y-89859640D01*
X132754341Y-89916190D01*
X132748549Y-89975000D01*
X132748549Y-90400000D01*
X132000000Y-90400000D01*
X132000000Y-89500000D01*
X132750000Y-89500000D01*
X132818115Y-89486451D01*
X132850000Y-89486451D01*
X132908810Y-89480659D01*
X132965360Y-89463504D01*
X133017477Y-89435647D01*
X133063158Y-89398158D01*
X133100647Y-89352477D01*
X133128504Y-89300360D01*
X133145659Y-89243810D01*
X133151451Y-89185000D01*
X133151451Y-88765000D01*
X133145659Y-88706190D01*
X133128504Y-88649640D01*
X133100647Y-88597523D01*
X133063158Y-88551842D01*
X133017477Y-88514353D01*
X132965360Y-88486496D01*
X132908810Y-88469341D01*
X132850000Y-88463549D01*
X132818114Y-88463549D01*
X132800000Y-88459946D01*
X132800000Y-86500000D01*
X132777164Y-86385196D01*
X132747875Y-86314485D01*
X132682842Y-86217156D01*
X132585515Y-86152125D01*
X132514804Y-86122836D01*
X132400000Y-86100000D01*
X131650000Y-86100000D01*
X131650000Y-83375000D01*
X131627164Y-83260196D01*
X131597875Y-83189485D01*
X131532842Y-83092156D01*
X131435515Y-83027125D01*
X131364804Y-82997836D01*
X131250000Y-82975000D01*
X128200000Y-82975000D01*
X128200000Y-82110000D01*
X128198079Y-82090491D01*
X128192388Y-82071731D01*
X128174814Y-82029305D01*
X128165572Y-82012016D01*
X128153136Y-81996863D01*
X128137982Y-81984426D01*
X128120695Y-81975186D01*
X128078269Y-81957612D01*
X128059510Y-81951922D01*
X128040000Y-81950000D01*
X126250000Y-81950000D01*
X126250000Y-80650000D01*
X132598549Y-80650000D01*
X132598549Y-83050000D01*
G04 #@! TD*
M02*
