M48
;DRILL file {KiCad (5.0.0)} date 09/03/18 15:40:10
;FORMAT={-:-/ absolute / inch / decimal}
FMAT,2
INCH,TZ
T1C0.0100
T2C0.0315
%
G90
G05
M72
T1
X5.Y-3.3346
X5.Y-3.4862
X5.1137Y-3.5249
X5.1137Y-3.5529
X5.1137Y-3.581
X5.1137Y-3.609
X5.1339Y-3.3209
X5.1339Y-3.3445
X5.1339Y-3.3681
X5.1462Y-3.5249
X5.1462Y-3.5529
X5.1462Y-3.581
X5.1462Y-3.609
X5.1732Y-3.4311
X5.1732Y-3.4547
X5.2766Y-3.6378
X5.3002Y-3.6378
X5.3238Y-3.5906
X5.3238Y-3.6142
X5.3238Y-3.6378
X5.3504Y-3.2244
X5.3504Y-3.248
X5.3504Y-3.2717
X5.3504Y-3.2953
X5.3504Y-3.3189
X5.374Y-3.2244
X5.374Y-3.248
X5.374Y-3.2717
X5.374Y-3.2953
X5.374Y-3.3189
X5.6063Y-3.3091
X5.6063Y-3.3327
X5.6299Y-3.3091
X5.6299Y-3.3327
X5.6535Y-3.3091
X5.6535Y-3.3327
T2
X4.9961Y-3.2008
X5.7677Y-3.2008
X5.7677Y-3.9035
X4.9961Y-3.9035
X4.9961Y-3.2795
T0
M30
