G04 #@! TF.GenerationSoftware,KiCad,Pcbnew,(5.0.2)-1*
G04 #@! TF.CreationDate,2019-02-23T20:37:34-08:00*
G04 #@! TF.ProjectId,nixie_bottom_board,6e697869-655f-4626-9f74-746f6d5f626f,rev?*
G04 #@! TF.SameCoordinates,Original*
G04 #@! TF.FileFunction,Legend,Top*
G04 #@! TF.FilePolarity,Positive*
%FSLAX46Y46*%
G04 Gerber Fmt 4.6, Leading zero omitted, Abs format (unit mm)*
G04 Created by KiCad (PCBNEW (5.0.2)-1) date 2/23/2019 8:37:34 PM*
%MOMM*%
%LPD*%
G01*
G04 APERTURE LIST*
%ADD10C,0.200000*%
%ADD11C,0.120000*%
%ADD12C,0.150000*%
G04 APERTURE END LIST*
D10*
X151714285Y-109252380D02*
X151714285Y-108252380D01*
X152095238Y-108252380D01*
X152190476Y-108300000D01*
X152238095Y-108347619D01*
X152285714Y-108442857D01*
X152285714Y-108585714D01*
X152238095Y-108680952D01*
X152190476Y-108728571D01*
X152095238Y-108776190D01*
X151714285Y-108776190D01*
X153285714Y-109252380D02*
X152952380Y-108776190D01*
X152714285Y-109252380D02*
X152714285Y-108252380D01*
X153095238Y-108252380D01*
X153190476Y-108300000D01*
X153238095Y-108347619D01*
X153285714Y-108442857D01*
X153285714Y-108585714D01*
X153238095Y-108680952D01*
X153190476Y-108728571D01*
X153095238Y-108776190D01*
X152714285Y-108776190D01*
X153904761Y-108252380D02*
X154095238Y-108252380D01*
X154190476Y-108300000D01*
X154285714Y-108395238D01*
X154333333Y-108585714D01*
X154333333Y-108919047D01*
X154285714Y-109109523D01*
X154190476Y-109204761D01*
X154095238Y-109252380D01*
X153904761Y-109252380D01*
X153809523Y-109204761D01*
X153714285Y-109109523D01*
X153666666Y-108919047D01*
X153666666Y-108585714D01*
X153714285Y-108395238D01*
X153809523Y-108300000D01*
X153904761Y-108252380D01*
X155285714Y-108300000D02*
X155190476Y-108252380D01*
X155047619Y-108252380D01*
X154904761Y-108300000D01*
X154809523Y-108395238D01*
X154761904Y-108490476D01*
X154714285Y-108680952D01*
X154714285Y-108823809D01*
X154761904Y-109014285D01*
X154809523Y-109109523D01*
X154904761Y-109204761D01*
X155047619Y-109252380D01*
X155142857Y-109252380D01*
X155285714Y-109204761D01*
X155333333Y-109157142D01*
X155333333Y-108823809D01*
X155142857Y-108823809D01*
X145047619Y-109252380D02*
X144714285Y-108776190D01*
X144476190Y-109252380D02*
X144476190Y-108252380D01*
X144857142Y-108252380D01*
X144952380Y-108300000D01*
X145000000Y-108347619D01*
X145047619Y-108442857D01*
X145047619Y-108585714D01*
X145000000Y-108680952D01*
X144952380Y-108728571D01*
X144857142Y-108776190D01*
X144476190Y-108776190D01*
X145476190Y-108728571D02*
X145809523Y-108728571D01*
X145952380Y-109252380D02*
X145476190Y-109252380D01*
X145476190Y-108252380D01*
X145952380Y-108252380D01*
X146333333Y-109204761D02*
X146476190Y-109252380D01*
X146714285Y-109252380D01*
X146809523Y-109204761D01*
X146857142Y-109157142D01*
X146904761Y-109061904D01*
X146904761Y-108966666D01*
X146857142Y-108871428D01*
X146809523Y-108823809D01*
X146714285Y-108776190D01*
X146523809Y-108728571D01*
X146428571Y-108680952D01*
X146380952Y-108633333D01*
X146333333Y-108538095D01*
X146333333Y-108442857D01*
X146380952Y-108347619D01*
X146428571Y-108300000D01*
X146523809Y-108252380D01*
X146761904Y-108252380D01*
X146904761Y-108300000D01*
X147333333Y-108728571D02*
X147666666Y-108728571D01*
X147809523Y-109252380D02*
X147333333Y-109252380D01*
X147333333Y-108252380D01*
X147809523Y-108252380D01*
X148095238Y-108252380D02*
X148666666Y-108252380D01*
X148380952Y-109252380D02*
X148380952Y-108252380D01*
D11*
G04 #@! TO.C,J1*
X154600000Y-90010000D02*
X145400000Y-90010000D01*
X154600000Y-89310000D02*
X145400000Y-89310000D01*
X154600000Y-98300000D02*
X153000000Y-98300000D01*
X154600000Y-98300000D02*
X154600000Y-89310000D01*
X145400000Y-98300000D02*
X145400000Y-89310000D01*
X147000000Y-98300000D02*
X145400000Y-98300000D01*
D12*
G04 #@! TO.C,U2*
X132025000Y-96775000D02*
X132550000Y-96775000D01*
X132025000Y-91525000D02*
X132550000Y-91525000D01*
X137275000Y-91525000D02*
X136750000Y-91525000D01*
X137275000Y-96775000D02*
X136750000Y-96775000D01*
X132025000Y-91525000D02*
X132025000Y-92050000D01*
X137275000Y-91525000D02*
X137275000Y-92050000D01*
X132025000Y-96775000D02*
X132025000Y-96250000D01*
D11*
G04 #@! TO.C,SW1*
X144100000Y-106200000D02*
X144100000Y-105800000D01*
X148900000Y-106200000D02*
X148900000Y-105800000D01*
X144100000Y-104200000D02*
X148900000Y-104200000D01*
X148900000Y-107800000D02*
X144100000Y-107800000D01*
X147324621Y-106000000D02*
G75*
G03X147324621Y-106000000I-824621J0D01*
G01*
G04 #@! TO.C,U5*
X127400000Y-97010000D02*
X129200000Y-97010000D01*
X129200000Y-93790000D02*
X126750000Y-93790000D01*
G04 #@! TO.C,C11*
X157320000Y-105100000D02*
X157320000Y-107100000D01*
X160280000Y-107100000D02*
X160280000Y-105100000D01*
G04 #@! TO.C,R20*
X181300000Y-91820000D02*
X182300000Y-91820000D01*
X182300000Y-93180000D02*
X181300000Y-93180000D01*
G04 #@! TO.C,R21*
X178700000Y-91820000D02*
X179700000Y-91820000D01*
X179700000Y-93180000D02*
X178700000Y-93180000D01*
G04 #@! TO.C,L1*
X165100000Y-108700000D02*
X160900000Y-108700000D01*
X165100000Y-104500000D02*
X160900000Y-104500000D01*
G04 #@! TO.C,C17*
X157700000Y-95550000D02*
X157700000Y-96250000D01*
X156500000Y-96250000D02*
X156500000Y-95550000D01*
G04 #@! TO.C,D5*
X151300000Y-103200000D02*
X149200000Y-103200000D01*
X151300000Y-102200000D02*
X149200000Y-102200000D01*
X151300000Y-103200000D02*
X151300000Y-102200000D01*
G04 #@! TO.C,R13*
X146900000Y-101620000D02*
X147900000Y-101620000D01*
X147900000Y-102980000D02*
X146900000Y-102980000D01*
G04 #@! TO.C,C12*
X139250000Y-96300000D02*
X139950000Y-96300000D01*
X139950000Y-97500000D02*
X139250000Y-97500000D01*
G04 #@! TO.C,C13*
X139950000Y-94500000D02*
X139250000Y-94500000D01*
X139250000Y-93300000D02*
X139950000Y-93300000D01*
D12*
G04 #@! TO.C,U4*
X137825000Y-99325000D02*
X137550000Y-99325000D01*
X137825000Y-107075000D02*
X137470000Y-107075000D01*
X127175000Y-107075000D02*
X127530000Y-107075000D01*
X127175000Y-99325000D02*
X127530000Y-99325000D01*
X137825000Y-99325000D02*
X137825000Y-107075000D01*
X127175000Y-99325000D02*
X127175000Y-107075000D01*
X137550000Y-99325000D02*
X137550000Y-97800000D01*
D11*
G04 #@! TO.C,R1*
X150500000Y-101380000D02*
X149500000Y-101380000D01*
X149500000Y-100020000D02*
X150500000Y-100020000D01*
G04 #@! TO.C,J4*
X99900000Y-104450000D02*
X99900000Y-95550000D01*
X105100000Y-104450000D02*
X99900000Y-104450000D01*
X105100000Y-95550000D02*
X105100000Y-104450000D01*
X99900000Y-95550000D02*
X105100000Y-95550000D01*
G04 #@! TO.C,J3*
X194900000Y-104450000D02*
X194900000Y-95550000D01*
X200100000Y-104450000D02*
X194900000Y-104450000D01*
X200100000Y-95550000D02*
X200100000Y-104450000D01*
X194900000Y-95550000D02*
X200100000Y-95550000D01*
G04 #@! TO.C,U1*
X153050000Y-100400000D02*
X153400000Y-100400000D01*
X151700000Y-100400000D02*
X152150000Y-100400000D01*
X151700000Y-100500000D02*
X151700000Y-100400000D01*
X151700000Y-102200000D02*
X151700000Y-102100000D01*
X152150000Y-102200000D02*
X151700000Y-102200000D01*
X153500000Y-102200000D02*
X153050000Y-102200000D01*
X153500000Y-102100000D02*
X153500000Y-102200000D01*
G04 #@! TO.C,U3*
X162200000Y-104050000D02*
X161400000Y-104050000D01*
X161400000Y-101350000D02*
X161400000Y-101650000D01*
X162200000Y-101350000D02*
X161400000Y-101350000D01*
X164600000Y-104050000D02*
X163800000Y-104050000D01*
X164600000Y-103750000D02*
X164600000Y-104050000D01*
X164600000Y-101350000D02*
X163800000Y-101350000D01*
X164600000Y-101650000D02*
X164600000Y-101350000D01*
G04 #@! TO.C,SW2*
X151100000Y-106200000D02*
X151100000Y-105800000D01*
X155900000Y-106200000D02*
X155900000Y-105800000D01*
X151100000Y-104200000D02*
X155900000Y-104200000D01*
X155900000Y-107800000D02*
X151100000Y-107800000D01*
X154324621Y-106000000D02*
G75*
G03X154324621Y-106000000I-824621J0D01*
G01*
G04 #@! TO.C,D2*
X153200000Y-98900000D02*
X153200000Y-99700000D01*
X152000000Y-98900000D02*
X153200000Y-98900000D01*
X152000000Y-99700000D02*
X152000000Y-98900000D01*
X153200000Y-99700000D02*
X152000000Y-99700000D01*
G04 #@! TO.C,D3*
X149400000Y-99700000D02*
X149400000Y-98900000D01*
X150600000Y-99700000D02*
X149400000Y-99700000D01*
X150600000Y-98900000D02*
X150600000Y-99700000D01*
X149400000Y-98900000D02*
X150600000Y-98900000D01*
G04 #@! TO.C,D1*
X148100000Y-98800000D02*
X146700000Y-98800000D01*
X148100000Y-99800000D02*
X148100000Y-98800000D01*
X146700000Y-99800000D02*
X148100000Y-99800000D01*
G04 #@! TO.C,C16*
X128250000Y-92200000D02*
X127550000Y-92200000D01*
X127550000Y-91000000D02*
X128250000Y-91000000D01*
G04 #@! TO.C,R3*
X147900000Y-101380000D02*
X146900000Y-101380000D01*
X146900000Y-100020000D02*
X147900000Y-100020000D01*
G04 #@! TO.C,C3*
X162850000Y-101000000D02*
X162150000Y-101000000D01*
X162150000Y-99800000D02*
X162850000Y-99800000D01*
G04 #@! TO.C,C1*
X161075000Y-90950000D02*
X169475000Y-90950000D01*
X161075000Y-95650000D02*
X169475000Y-95650000D01*
X161075000Y-90950000D02*
X161075000Y-95650000D01*
G04 #@! TO.C,Q1*
X166385000Y-103000000D02*
X166385000Y-103200000D01*
X170685000Y-103000000D02*
X166385000Y-103000000D01*
X170685000Y-103150000D02*
X170685000Y-103000000D01*
X170685000Y-108200000D02*
X170685000Y-108050000D01*
X166385000Y-108200000D02*
X170685000Y-108200000D01*
X166385000Y-108000000D02*
X166385000Y-108200000D01*
G04 #@! TO.C,C15*
X128250000Y-93600000D02*
X127550000Y-93600000D01*
X127550000Y-92400000D02*
X128250000Y-92400000D01*
G04 #@! TO.C,C14*
X155150000Y-103800000D02*
X154450000Y-103800000D01*
X154450000Y-102600000D02*
X155150000Y-102600000D01*
G04 #@! TO.C,C2*
X159100000Y-95750000D02*
X159100000Y-96450000D01*
X157900000Y-96450000D02*
X157900000Y-95750000D01*
G04 #@! TO.C,C6*
X162850000Y-99500000D02*
X162150000Y-99500000D01*
X162150000Y-98300000D02*
X162850000Y-98300000D01*
G04 #@! TO.C,C4*
X170650000Y-94100000D02*
X170650000Y-95100000D01*
X172350000Y-95100000D02*
X172350000Y-94100000D01*
G04 #@! TO.C,C9*
X190570000Y-95000000D02*
X190570000Y-98600000D01*
X194030000Y-98600000D02*
X194030000Y-95000000D01*
G04 #@! TO.C,C8*
X193530000Y-106000000D02*
X193530000Y-101400000D01*
X188070000Y-101400000D02*
X188070000Y-106000000D01*
G04 #@! TO.C,R19*
X139580000Y-100200000D02*
X139580000Y-101200000D01*
X138220000Y-101200000D02*
X138220000Y-100200000D01*
G04 #@! TO.C,R18*
X139100000Y-94720000D02*
X140100000Y-94720000D01*
X140100000Y-96080000D02*
X139100000Y-96080000D01*
G04 #@! TO.C,R17*
X159720000Y-100300000D02*
X159720000Y-99300000D01*
X161080000Y-99300000D02*
X161080000Y-100300000D01*
G04 #@! TO.C,R16*
X159720000Y-102700000D02*
X159720000Y-101700000D01*
X161080000Y-101700000D02*
X161080000Y-102700000D01*
G04 #@! TO.C,C5*
X160500000Y-96850000D02*
X160500000Y-97550000D01*
X159300000Y-97550000D02*
X159300000Y-96850000D01*
G04 #@! TO.C,C7*
X171100000Y-100050000D02*
X171100000Y-99350000D01*
X172300000Y-99350000D02*
X172300000Y-100050000D01*
G04 #@! TO.C,R9*
X162320000Y-97400000D02*
X162320000Y-96400000D01*
X163680000Y-96400000D02*
X163680000Y-97400000D01*
G04 #@! TO.C,R6*
X165280000Y-99200000D02*
X165280000Y-100200000D01*
X163920000Y-100200000D02*
X163920000Y-99200000D01*
G04 #@! TO.C,R7*
X160720000Y-97600000D02*
X160720000Y-96600000D01*
X162080000Y-96600000D02*
X162080000Y-97600000D01*
G04 #@! TO.C,R5*
X138220000Y-106200000D02*
X138220000Y-105200000D01*
X139580000Y-105200000D02*
X139580000Y-106200000D01*
G04 #@! TO.C,R2*
X142280000Y-94100000D02*
X142280000Y-95100000D01*
X140920000Y-95100000D02*
X140920000Y-94100000D01*
G04 #@! TO.C,R8*
X170000000Y-102580000D02*
X169000000Y-102580000D01*
X169000000Y-101220000D02*
X170000000Y-101220000D01*
G04 #@! TO.C,R10*
X165280000Y-96400000D02*
X165280000Y-97400000D01*
X163920000Y-97400000D02*
X163920000Y-96400000D01*
G04 #@! TO.C,C10*
X189930000Y-98600000D02*
X189930000Y-94000000D01*
X184470000Y-94000000D02*
X184470000Y-98600000D01*
G04 #@! TO.C,R4*
X139580000Y-102700000D02*
X139580000Y-103700000D01*
X138220000Y-103700000D02*
X138220000Y-102700000D01*
G04 #@! TO.C,R11*
X166200000Y-101020000D02*
X167400000Y-101020000D01*
X167400000Y-102780000D02*
X166200000Y-102780000D01*
D12*
G04 #@! TO.C,U6*
X166475000Y-96475000D02*
X165550000Y-96475000D01*
X166475000Y-100725000D02*
X169725000Y-100725000D01*
X166475000Y-96475000D02*
X169725000Y-96475000D01*
X166475000Y-100725000D02*
X166475000Y-100660000D01*
X169725000Y-100725000D02*
X169725000Y-100660000D01*
X169725000Y-96475000D02*
X169725000Y-96540000D01*
G04 #@! TO.C,D4*
X187000000Y-105800000D02*
X187000000Y-102200000D01*
X185000000Y-105800000D02*
X185000000Y-102200000D01*
D11*
G04 #@! TO.C,R12*
X142280000Y-91600000D02*
X142280000Y-92600000D01*
X140920000Y-92600000D02*
X140920000Y-91600000D01*
G04 #@! TO.C,R14*
X157800000Y-93580000D02*
X156800000Y-93580000D01*
X156800000Y-92220000D02*
X157800000Y-92220000D01*
G04 #@! TO.C,R15*
X140680000Y-91200000D02*
X140680000Y-92200000D01*
X139320000Y-92200000D02*
X139320000Y-91200000D01*
G04 #@! TO.C,U7*
X158580000Y-94500000D02*
X158580000Y-92500000D01*
X160820000Y-92500000D02*
X160820000Y-93500000D01*
D12*
G04 #@! TO.C,BT1*
X108200001Y-98000000D02*
G75*
G02X124199999Y-98000001I7999999J-2000000D01*
G01*
X124199999Y-102000000D02*
G75*
G02X108200001Y-101999999I-7999999J2000000D01*
G01*
G04 #@! TD*
M02*
