G04 #@! TF.GenerationSoftware,KiCad,Pcbnew,(5.0.2)-1*
G04 #@! TF.CreationDate,2019-02-23T20:37:34-08:00*
G04 #@! TF.ProjectId,nixie_bottom_board,6e697869-655f-4626-9f74-746f6d5f626f,rev?*
G04 #@! TF.SameCoordinates,Original*
G04 #@! TF.FileFunction,Soldermask,Bot*
G04 #@! TF.FilePolarity,Negative*
%FSLAX46Y46*%
G04 Gerber Fmt 4.6, Leading zero omitted, Abs format (unit mm)*
G04 Created by KiCad (PCBNEW (5.0.2)-1) date 2/23/2019 8:37:34 PM*
%MOMM*%
%LPD*%
G01*
G04 APERTURE LIST*
%ADD10C,0.100000*%
G04 APERTURE END LIST*
D10*
G36*
X197366504Y-104978822D02*
X197656303Y-105036466D01*
X198065773Y-105206074D01*
X198147270Y-105260529D01*
X198433622Y-105451863D01*
X198434293Y-105452312D01*
X198747688Y-105765707D01*
X198993926Y-106134227D01*
X199163534Y-106543697D01*
X199210218Y-106778394D01*
X199250000Y-106978394D01*
X199250000Y-107421606D01*
X199232278Y-107510700D01*
X199163534Y-107856303D01*
X198993926Y-108265773D01*
X198854880Y-108473869D01*
X198747689Y-108634292D01*
X198434292Y-108947689D01*
X198365096Y-108993924D01*
X198065773Y-109193926D01*
X197656303Y-109363534D01*
X197366504Y-109421178D01*
X197221606Y-109450000D01*
X196778394Y-109450000D01*
X196633496Y-109421178D01*
X196343697Y-109363534D01*
X195934227Y-109193926D01*
X195634904Y-108993924D01*
X195565708Y-108947689D01*
X195252311Y-108634292D01*
X195145120Y-108473869D01*
X195006074Y-108265773D01*
X194836466Y-107856303D01*
X194767722Y-107510700D01*
X194750000Y-107421606D01*
X194750000Y-106978394D01*
X194789782Y-106778394D01*
X194836466Y-106543697D01*
X195006074Y-106134227D01*
X195252312Y-105765707D01*
X195565707Y-105452312D01*
X195566379Y-105451863D01*
X195852730Y-105260529D01*
X195934227Y-105206074D01*
X196343697Y-105036466D01*
X196633496Y-104978822D01*
X196778394Y-104950000D01*
X197221606Y-104950000D01*
X197366504Y-104978822D01*
X197366504Y-104978822D01*
G37*
G36*
X103366504Y-104778822D02*
X103656303Y-104836466D01*
X104065773Y-105006074D01*
X104147270Y-105060529D01*
X104434292Y-105252311D01*
X104747689Y-105565708D01*
X104752623Y-105573092D01*
X104993926Y-105934227D01*
X105163534Y-106343697D01*
X105169144Y-106371902D01*
X105250000Y-106778394D01*
X105250000Y-107221606D01*
X105232278Y-107310700D01*
X105163534Y-107656303D01*
X104993926Y-108065773D01*
X104872188Y-108247966D01*
X104747689Y-108434292D01*
X104434292Y-108747689D01*
X104322980Y-108822065D01*
X104065773Y-108993926D01*
X103656303Y-109163534D01*
X103366504Y-109221178D01*
X103221606Y-109250000D01*
X102778394Y-109250000D01*
X102633496Y-109221178D01*
X102343697Y-109163534D01*
X101934227Y-108993926D01*
X101677020Y-108822065D01*
X101565708Y-108747689D01*
X101252311Y-108434292D01*
X101127812Y-108247966D01*
X101006074Y-108065773D01*
X100836466Y-107656303D01*
X100767722Y-107310700D01*
X100750000Y-107221606D01*
X100750000Y-106778394D01*
X100830856Y-106371902D01*
X100836466Y-106343697D01*
X101006074Y-105934227D01*
X101247377Y-105573092D01*
X101252311Y-105565708D01*
X101565708Y-105252311D01*
X101852730Y-105060529D01*
X101934227Y-105006074D01*
X102343697Y-104836466D01*
X102633496Y-104778822D01*
X102778394Y-104750000D01*
X103221606Y-104750000D01*
X103366504Y-104778822D01*
X103366504Y-104778822D01*
G37*
G36*
X142518768Y-107678822D02*
X142655256Y-107735357D01*
X142778098Y-107817438D01*
X142882562Y-107921902D01*
X142964643Y-108044744D01*
X143021178Y-108181232D01*
X143050000Y-108326131D01*
X143050000Y-108473869D01*
X143021178Y-108618768D01*
X142964643Y-108755256D01*
X142882562Y-108878098D01*
X142778098Y-108982562D01*
X142655256Y-109064643D01*
X142518768Y-109121178D01*
X142373869Y-109150000D01*
X142226131Y-109150000D01*
X142081232Y-109121178D01*
X141944744Y-109064643D01*
X141821902Y-108982562D01*
X141717438Y-108878098D01*
X141635357Y-108755256D01*
X141578822Y-108618768D01*
X141550000Y-108473869D01*
X141550000Y-108326131D01*
X141578822Y-108181232D01*
X141635357Y-108044744D01*
X141717438Y-107921902D01*
X141821902Y-107817438D01*
X141944744Y-107735357D01*
X142081232Y-107678822D01*
X142226131Y-107650000D01*
X142373869Y-107650000D01*
X142518768Y-107678822D01*
X142518768Y-107678822D01*
G37*
G36*
X159018768Y-107678822D02*
X159155256Y-107735357D01*
X159278098Y-107817438D01*
X159382562Y-107921902D01*
X159464643Y-108044744D01*
X159521178Y-108181232D01*
X159550000Y-108326131D01*
X159550000Y-108473869D01*
X159521178Y-108618768D01*
X159464643Y-108755256D01*
X159382562Y-108878098D01*
X159278098Y-108982562D01*
X159155256Y-109064643D01*
X159018768Y-109121178D01*
X158873869Y-109150000D01*
X158726131Y-109150000D01*
X158581232Y-109121178D01*
X158444744Y-109064643D01*
X158321902Y-108982562D01*
X158217438Y-108878098D01*
X158135357Y-108755256D01*
X158078822Y-108618768D01*
X158050000Y-108473869D01*
X158050000Y-108326131D01*
X158078822Y-108181232D01*
X158135357Y-108044744D01*
X158217438Y-107921902D01*
X158321902Y-107817438D01*
X158444744Y-107735357D01*
X158581232Y-107678822D01*
X158726131Y-107650000D01*
X158873869Y-107650000D01*
X159018768Y-107678822D01*
X159018768Y-107678822D01*
G37*
G36*
X134918768Y-107678822D02*
X135055256Y-107735357D01*
X135178098Y-107817438D01*
X135282562Y-107921902D01*
X135364643Y-108044744D01*
X135421178Y-108181232D01*
X135450000Y-108326131D01*
X135450000Y-108473869D01*
X135421178Y-108618768D01*
X135364643Y-108755256D01*
X135282562Y-108878098D01*
X135178098Y-108982562D01*
X135055256Y-109064643D01*
X134918768Y-109121178D01*
X134773869Y-109150000D01*
X134626131Y-109150000D01*
X134481232Y-109121178D01*
X134344744Y-109064643D01*
X134221902Y-108982562D01*
X134117438Y-108878098D01*
X134035357Y-108755256D01*
X133978822Y-108618768D01*
X133950000Y-108473869D01*
X133950000Y-108326131D01*
X133978822Y-108181232D01*
X134035357Y-108044744D01*
X134117438Y-107921902D01*
X134221902Y-107817438D01*
X134344744Y-107735357D01*
X134481232Y-107678822D01*
X134626131Y-107650000D01*
X134773869Y-107650000D01*
X134918768Y-107678822D01*
X134918768Y-107678822D01*
G37*
G36*
X137168768Y-107678822D02*
X137305256Y-107735357D01*
X137428098Y-107817438D01*
X137532562Y-107921902D01*
X137614643Y-108044744D01*
X137671178Y-108181232D01*
X137700000Y-108326131D01*
X137700000Y-108473869D01*
X137671178Y-108618768D01*
X137614643Y-108755256D01*
X137532562Y-108878098D01*
X137428098Y-108982562D01*
X137305256Y-109064643D01*
X137168768Y-109121178D01*
X137023869Y-109150000D01*
X136876131Y-109150000D01*
X136731232Y-109121178D01*
X136594744Y-109064643D01*
X136471902Y-108982562D01*
X136367438Y-108878098D01*
X136285357Y-108755256D01*
X136228822Y-108618768D01*
X136200000Y-108473869D01*
X136200000Y-108326131D01*
X136228822Y-108181232D01*
X136285357Y-108044744D01*
X136367438Y-107921902D01*
X136471902Y-107817438D01*
X136594744Y-107735357D01*
X136731232Y-107678822D01*
X136876131Y-107650000D01*
X137023869Y-107650000D01*
X137168768Y-107678822D01*
X137168768Y-107678822D01*
G37*
G36*
X156718768Y-107678822D02*
X156855256Y-107735357D01*
X156978098Y-107817438D01*
X157082562Y-107921902D01*
X157164643Y-108044744D01*
X157221178Y-108181232D01*
X157250000Y-108326131D01*
X157250000Y-108473869D01*
X157221178Y-108618768D01*
X157164643Y-108755256D01*
X157082562Y-108878098D01*
X156978098Y-108982562D01*
X156855256Y-109064643D01*
X156718768Y-109121178D01*
X156573869Y-109150000D01*
X156426131Y-109150000D01*
X156281232Y-109121178D01*
X156144744Y-109064643D01*
X156021902Y-108982562D01*
X155917438Y-108878098D01*
X155835357Y-108755256D01*
X155778822Y-108618768D01*
X155750000Y-108473869D01*
X155750000Y-108326131D01*
X155778822Y-108181232D01*
X155835357Y-108044744D01*
X155917438Y-107921902D01*
X156021902Y-107817438D01*
X156144744Y-107735357D01*
X156281232Y-107678822D01*
X156426131Y-107650000D01*
X156573869Y-107650000D01*
X156718768Y-107678822D01*
X156718768Y-107678822D01*
G37*
G36*
X139978768Y-107678822D02*
X140115256Y-107735357D01*
X140238098Y-107817438D01*
X140342562Y-107921902D01*
X140424643Y-108044744D01*
X140481178Y-108181232D01*
X140510000Y-108326131D01*
X140510000Y-108473869D01*
X140481178Y-108618768D01*
X140424643Y-108755256D01*
X140342562Y-108878098D01*
X140238098Y-108982562D01*
X140115256Y-109064643D01*
X139978768Y-109121178D01*
X139833869Y-109150000D01*
X139686131Y-109150000D01*
X139541232Y-109121178D01*
X139404744Y-109064643D01*
X139281902Y-108982562D01*
X139177438Y-108878098D01*
X139095357Y-108755256D01*
X139038822Y-108618768D01*
X139010000Y-108473869D01*
X139010000Y-108326131D01*
X139038822Y-108181232D01*
X139095357Y-108044744D01*
X139177438Y-107921902D01*
X139281902Y-107817438D01*
X139404744Y-107735357D01*
X139541232Y-107678822D01*
X139686131Y-107650000D01*
X139833869Y-107650000D01*
X139978768Y-107678822D01*
X139978768Y-107678822D01*
G37*
G36*
X148918768Y-106128822D02*
X149055256Y-106185357D01*
X149178098Y-106267438D01*
X149282562Y-106371902D01*
X149364643Y-106494744D01*
X149421178Y-106631232D01*
X149450000Y-106776131D01*
X149450000Y-106923869D01*
X149421178Y-107068768D01*
X149364643Y-107205256D01*
X149282562Y-107328098D01*
X149178098Y-107432562D01*
X149055256Y-107514643D01*
X148918768Y-107571178D01*
X148773869Y-107600000D01*
X148626131Y-107600000D01*
X148481232Y-107571178D01*
X148344744Y-107514643D01*
X148221902Y-107432562D01*
X148117438Y-107328098D01*
X148035357Y-107205256D01*
X147978822Y-107068768D01*
X147950000Y-106923869D01*
X147950000Y-106776131D01*
X147978822Y-106631232D01*
X148035357Y-106494744D01*
X148117438Y-106371902D01*
X148221902Y-106267438D01*
X148344744Y-106185357D01*
X148481232Y-106128822D01*
X148626131Y-106100000D01*
X148773869Y-106100000D01*
X148918768Y-106128822D01*
X148918768Y-106128822D01*
G37*
G36*
X135184474Y-103739734D02*
X135274613Y-103777070D01*
X135355736Y-103831275D01*
X135424725Y-103900264D01*
X135478930Y-103981387D01*
X135516266Y-104071526D01*
X135535300Y-104167217D01*
X135535300Y-104264783D01*
X135516266Y-104360474D01*
X135478930Y-104450613D01*
X135424725Y-104531736D01*
X135355736Y-104600725D01*
X135274613Y-104654930D01*
X135184474Y-104692266D01*
X135088783Y-104711300D01*
X134991217Y-104711300D01*
X134895526Y-104692266D01*
X134805387Y-104654930D01*
X134724264Y-104600725D01*
X134655275Y-104531736D01*
X134601070Y-104450613D01*
X134563734Y-104360474D01*
X134544700Y-104264783D01*
X134544700Y-104167217D01*
X134563734Y-104071526D01*
X134601070Y-103981387D01*
X134655275Y-103900264D01*
X134724264Y-103831275D01*
X134805387Y-103777070D01*
X134895526Y-103739734D01*
X134991217Y-103720700D01*
X135088783Y-103720700D01*
X135184474Y-103739734D01*
X135184474Y-103739734D01*
G37*
G36*
X131294130Y-103446343D02*
X131344840Y-103456430D01*
X131416485Y-103486106D01*
X131459475Y-103514831D01*
X131480969Y-103529193D01*
X131535807Y-103584031D01*
X131550169Y-103605525D01*
X131578894Y-103648515D01*
X131608570Y-103720160D01*
X131623700Y-103796225D01*
X131623700Y-103873775D01*
X131608570Y-103949840D01*
X131578894Y-104021485D01*
X131535806Y-104085970D01*
X131480970Y-104140806D01*
X131416485Y-104183894D01*
X131344840Y-104213570D01*
X131294130Y-104223657D01*
X131268776Y-104228700D01*
X131191224Y-104228700D01*
X131165870Y-104223657D01*
X131115160Y-104213570D01*
X131043515Y-104183894D01*
X130979030Y-104140806D01*
X130924194Y-104085970D01*
X130881106Y-104021485D01*
X130851430Y-103949840D01*
X130836300Y-103873775D01*
X130836300Y-103796225D01*
X130851430Y-103720160D01*
X130881106Y-103648515D01*
X130909831Y-103605525D01*
X130924193Y-103584031D01*
X130979031Y-103529193D01*
X131000525Y-103514831D01*
X131043515Y-103486106D01*
X131115160Y-103456430D01*
X131165870Y-103446343D01*
X131191224Y-103441300D01*
X131268776Y-103441300D01*
X131294130Y-103446343D01*
X131294130Y-103446343D01*
G37*
G36*
X132564130Y-103446343D02*
X132614840Y-103456430D01*
X132686485Y-103486106D01*
X132729475Y-103514831D01*
X132750969Y-103529193D01*
X132805807Y-103584031D01*
X132820169Y-103605525D01*
X132848894Y-103648515D01*
X132878570Y-103720160D01*
X132893700Y-103796225D01*
X132893700Y-103873775D01*
X132878570Y-103949840D01*
X132848894Y-104021485D01*
X132805806Y-104085970D01*
X132750970Y-104140806D01*
X132686485Y-104183894D01*
X132614840Y-104213570D01*
X132564130Y-104223657D01*
X132538776Y-104228700D01*
X132461224Y-104228700D01*
X132435870Y-104223657D01*
X132385160Y-104213570D01*
X132313515Y-104183894D01*
X132249030Y-104140806D01*
X132194194Y-104085970D01*
X132151106Y-104021485D01*
X132121430Y-103949840D01*
X132106300Y-103873775D01*
X132106300Y-103796225D01*
X132121430Y-103720160D01*
X132151106Y-103648515D01*
X132179831Y-103605525D01*
X132194193Y-103584031D01*
X132249031Y-103529193D01*
X132270525Y-103514831D01*
X132313515Y-103486106D01*
X132385160Y-103456430D01*
X132435870Y-103446343D01*
X132461224Y-103441300D01*
X132538776Y-103441300D01*
X132564130Y-103446343D01*
X132564130Y-103446343D01*
G37*
G36*
X133834130Y-103446343D02*
X133884840Y-103456430D01*
X133956485Y-103486106D01*
X133999475Y-103514831D01*
X134020969Y-103529193D01*
X134075807Y-103584031D01*
X134090169Y-103605525D01*
X134118894Y-103648515D01*
X134148570Y-103720160D01*
X134163700Y-103796225D01*
X134163700Y-103873775D01*
X134148570Y-103949840D01*
X134118894Y-104021485D01*
X134075806Y-104085970D01*
X134020970Y-104140806D01*
X133956485Y-104183894D01*
X133884840Y-104213570D01*
X133834130Y-104223657D01*
X133808776Y-104228700D01*
X133731224Y-104228700D01*
X133705870Y-104223657D01*
X133655160Y-104213570D01*
X133583515Y-104183894D01*
X133519030Y-104140806D01*
X133464194Y-104085970D01*
X133421106Y-104021485D01*
X133391430Y-103949840D01*
X133376300Y-103873775D01*
X133376300Y-103796225D01*
X133391430Y-103720160D01*
X133421106Y-103648515D01*
X133449831Y-103605525D01*
X133464193Y-103584031D01*
X133519031Y-103529193D01*
X133540525Y-103514831D01*
X133583515Y-103486106D01*
X133655160Y-103456430D01*
X133705870Y-103446343D01*
X133731224Y-103441300D01*
X133808776Y-103441300D01*
X133834130Y-103446343D01*
X133834130Y-103446343D01*
G37*
G36*
X130104474Y-102723734D02*
X130194613Y-102761070D01*
X130275736Y-102815275D01*
X130344725Y-102884264D01*
X130398930Y-102965387D01*
X130436266Y-103055526D01*
X130455300Y-103151217D01*
X130455300Y-103248783D01*
X130436266Y-103344474D01*
X130398930Y-103434613D01*
X130344725Y-103515736D01*
X130275736Y-103584725D01*
X130194613Y-103638930D01*
X130104474Y-103676266D01*
X130008783Y-103695300D01*
X129911217Y-103695300D01*
X129815526Y-103676266D01*
X129725387Y-103638930D01*
X129644264Y-103584725D01*
X129575275Y-103515736D01*
X129521070Y-103434613D01*
X129483734Y-103344474D01*
X129464700Y-103248783D01*
X129464700Y-103151217D01*
X129483734Y-103055526D01*
X129521070Y-102965387D01*
X129575275Y-102884264D01*
X129644264Y-102815275D01*
X129725387Y-102761070D01*
X129815526Y-102723734D01*
X129911217Y-102704700D01*
X130008783Y-102704700D01*
X130104474Y-102723734D01*
X130104474Y-102723734D01*
G37*
G36*
X185150000Y-103085000D02*
X183650000Y-103085000D01*
X183650000Y-101915000D01*
X185150000Y-101915000D01*
X185150000Y-103085000D01*
X185150000Y-103085000D01*
G37*
G36*
X172350000Y-103085000D02*
X170850000Y-103085000D01*
X170850000Y-101915000D01*
X172350000Y-101915000D01*
X172350000Y-103085000D01*
X172350000Y-103085000D01*
G37*
G36*
X132564130Y-102176343D02*
X132614840Y-102186430D01*
X132686485Y-102216106D01*
X132750970Y-102259194D01*
X132805806Y-102314030D01*
X132848894Y-102378515D01*
X132878570Y-102450160D01*
X132893700Y-102526225D01*
X132893700Y-102603775D01*
X132878570Y-102679840D01*
X132848894Y-102751485D01*
X132842489Y-102761070D01*
X132806271Y-102815275D01*
X132805806Y-102815970D01*
X132750970Y-102870806D01*
X132686485Y-102913894D01*
X132614840Y-102943570D01*
X132564130Y-102953657D01*
X132538776Y-102958700D01*
X132461224Y-102958700D01*
X132435870Y-102953657D01*
X132385160Y-102943570D01*
X132313515Y-102913894D01*
X132249030Y-102870806D01*
X132194194Y-102815970D01*
X132193730Y-102815275D01*
X132157511Y-102761070D01*
X132151106Y-102751485D01*
X132121430Y-102679840D01*
X132106300Y-102603775D01*
X132106300Y-102526225D01*
X132121430Y-102450160D01*
X132151106Y-102378515D01*
X132194194Y-102314030D01*
X132249030Y-102259194D01*
X132313515Y-102216106D01*
X132385160Y-102186430D01*
X132435870Y-102176343D01*
X132461224Y-102171300D01*
X132538776Y-102171300D01*
X132564130Y-102176343D01*
X132564130Y-102176343D01*
G37*
G36*
X131294130Y-102176343D02*
X131344840Y-102186430D01*
X131416485Y-102216106D01*
X131480970Y-102259194D01*
X131535806Y-102314030D01*
X131578894Y-102378515D01*
X131608570Y-102450160D01*
X131623700Y-102526225D01*
X131623700Y-102603775D01*
X131608570Y-102679840D01*
X131578894Y-102751485D01*
X131572489Y-102761070D01*
X131536271Y-102815275D01*
X131535806Y-102815970D01*
X131480970Y-102870806D01*
X131416485Y-102913894D01*
X131344840Y-102943570D01*
X131294130Y-102953657D01*
X131268776Y-102958700D01*
X131191224Y-102958700D01*
X131165870Y-102953657D01*
X131115160Y-102943570D01*
X131043515Y-102913894D01*
X130979030Y-102870806D01*
X130924194Y-102815970D01*
X130923730Y-102815275D01*
X130887511Y-102761070D01*
X130881106Y-102751485D01*
X130851430Y-102679840D01*
X130836300Y-102603775D01*
X130836300Y-102526225D01*
X130851430Y-102450160D01*
X130881106Y-102378515D01*
X130924194Y-102314030D01*
X130979030Y-102259194D01*
X131043515Y-102216106D01*
X131115160Y-102186430D01*
X131165870Y-102176343D01*
X131191224Y-102171300D01*
X131268776Y-102171300D01*
X131294130Y-102176343D01*
X131294130Y-102176343D01*
G37*
G36*
X133834130Y-102176343D02*
X133884840Y-102186430D01*
X133956485Y-102216106D01*
X134020970Y-102259194D01*
X134075806Y-102314030D01*
X134118894Y-102378515D01*
X134148570Y-102450160D01*
X134163700Y-102526225D01*
X134163700Y-102603775D01*
X134148570Y-102679840D01*
X134118894Y-102751485D01*
X134112489Y-102761070D01*
X134076271Y-102815275D01*
X134075806Y-102815970D01*
X134020970Y-102870806D01*
X133956485Y-102913894D01*
X133884840Y-102943570D01*
X133834130Y-102953657D01*
X133808776Y-102958700D01*
X133731224Y-102958700D01*
X133705870Y-102953657D01*
X133655160Y-102943570D01*
X133583515Y-102913894D01*
X133519030Y-102870806D01*
X133464194Y-102815970D01*
X133463730Y-102815275D01*
X133427511Y-102761070D01*
X133421106Y-102751485D01*
X133391430Y-102679840D01*
X133376300Y-102603775D01*
X133376300Y-102526225D01*
X133391430Y-102450160D01*
X133421106Y-102378515D01*
X133464194Y-102314030D01*
X133519030Y-102259194D01*
X133583515Y-102216106D01*
X133655160Y-102186430D01*
X133705870Y-102176343D01*
X133731224Y-102171300D01*
X133808776Y-102171300D01*
X133834130Y-102176343D01*
X133834130Y-102176343D01*
G37*
G36*
X135184474Y-101707734D02*
X135274613Y-101745070D01*
X135355736Y-101799275D01*
X135424725Y-101868264D01*
X135478930Y-101949387D01*
X135516266Y-102039526D01*
X135535300Y-102135217D01*
X135535300Y-102232783D01*
X135516266Y-102328474D01*
X135478930Y-102418613D01*
X135424725Y-102499736D01*
X135355736Y-102568725D01*
X135274613Y-102622930D01*
X135184474Y-102660266D01*
X135088783Y-102679300D01*
X134991217Y-102679300D01*
X134895526Y-102660266D01*
X134805387Y-102622930D01*
X134724264Y-102568725D01*
X134655275Y-102499736D01*
X134601070Y-102418613D01*
X134563734Y-102328474D01*
X134544700Y-102232783D01*
X134544700Y-102135217D01*
X134563734Y-102039526D01*
X134601070Y-101949387D01*
X134655275Y-101868264D01*
X134724264Y-101799275D01*
X134805387Y-101745070D01*
X134895526Y-101707734D01*
X134991217Y-101688700D01*
X135088783Y-101688700D01*
X135184474Y-101707734D01*
X135184474Y-101707734D01*
G37*
G36*
X198632323Y-101334767D02*
X198759561Y-101373364D01*
X198876824Y-101436042D01*
X198979606Y-101520394D01*
X199063958Y-101623176D01*
X199126636Y-101740439D01*
X199165233Y-101867677D01*
X199178266Y-102000000D01*
X199165233Y-102132323D01*
X199126636Y-102259561D01*
X199063958Y-102376824D01*
X198979606Y-102479606D01*
X198876824Y-102563958D01*
X198759561Y-102626636D01*
X198632323Y-102665233D01*
X198533159Y-102675000D01*
X198466841Y-102675000D01*
X198367677Y-102665233D01*
X198240439Y-102626636D01*
X198123176Y-102563958D01*
X198020394Y-102479606D01*
X197936042Y-102376824D01*
X197873364Y-102259561D01*
X197834767Y-102132323D01*
X197821734Y-102000000D01*
X197834767Y-101867677D01*
X197873364Y-101740439D01*
X197936042Y-101623176D01*
X198020394Y-101520394D01*
X198123176Y-101436042D01*
X198240439Y-101373364D01*
X198367677Y-101334767D01*
X198466841Y-101325000D01*
X198533159Y-101325000D01*
X198632323Y-101334767D01*
X198632323Y-101334767D01*
G37*
G36*
X196632323Y-101334767D02*
X196759561Y-101373364D01*
X196876824Y-101436042D01*
X196979606Y-101520394D01*
X197063958Y-101623176D01*
X197126636Y-101740439D01*
X197165233Y-101867677D01*
X197178266Y-102000000D01*
X197165233Y-102132323D01*
X197126636Y-102259561D01*
X197063958Y-102376824D01*
X196979606Y-102479606D01*
X196876824Y-102563958D01*
X196759561Y-102626636D01*
X196632323Y-102665233D01*
X196533159Y-102675000D01*
X196466841Y-102675000D01*
X196367677Y-102665233D01*
X196240439Y-102626636D01*
X196123176Y-102563958D01*
X196020394Y-102479606D01*
X195936042Y-102376824D01*
X195873364Y-102259561D01*
X195834767Y-102132323D01*
X195821734Y-102000000D01*
X195834767Y-101867677D01*
X195873364Y-101740439D01*
X195936042Y-101623176D01*
X196020394Y-101520394D01*
X196123176Y-101436042D01*
X196240439Y-101373364D01*
X196367677Y-101334767D01*
X196466841Y-101325000D01*
X196533159Y-101325000D01*
X196632323Y-101334767D01*
X196632323Y-101334767D01*
G37*
G36*
X103632323Y-101334767D02*
X103759561Y-101373364D01*
X103876824Y-101436042D01*
X103979606Y-101520394D01*
X104063958Y-101623176D01*
X104126636Y-101740439D01*
X104165233Y-101867677D01*
X104178266Y-102000000D01*
X104165233Y-102132323D01*
X104126636Y-102259561D01*
X104063958Y-102376824D01*
X103979606Y-102479606D01*
X103876824Y-102563958D01*
X103759561Y-102626636D01*
X103632323Y-102665233D01*
X103533159Y-102675000D01*
X103466841Y-102675000D01*
X103367677Y-102665233D01*
X103240439Y-102626636D01*
X103123176Y-102563958D01*
X103020394Y-102479606D01*
X102936042Y-102376824D01*
X102873364Y-102259561D01*
X102834767Y-102132323D01*
X102821734Y-102000000D01*
X102834767Y-101867677D01*
X102873364Y-101740439D01*
X102936042Y-101623176D01*
X103020394Y-101520394D01*
X103123176Y-101436042D01*
X103240439Y-101373364D01*
X103367677Y-101334767D01*
X103466841Y-101325000D01*
X103533159Y-101325000D01*
X103632323Y-101334767D01*
X103632323Y-101334767D01*
G37*
G36*
X101632323Y-101334767D02*
X101759561Y-101373364D01*
X101876824Y-101436042D01*
X101979606Y-101520394D01*
X102063958Y-101623176D01*
X102126636Y-101740439D01*
X102165233Y-101867677D01*
X102178266Y-102000000D01*
X102165233Y-102132323D01*
X102126636Y-102259561D01*
X102063958Y-102376824D01*
X101979606Y-102479606D01*
X101876824Y-102563958D01*
X101759561Y-102626636D01*
X101632323Y-102665233D01*
X101533159Y-102675000D01*
X101466841Y-102675000D01*
X101367677Y-102665233D01*
X101240439Y-102626636D01*
X101123176Y-102563958D01*
X101020394Y-102479606D01*
X100936042Y-102376824D01*
X100873364Y-102259561D01*
X100834767Y-102132323D01*
X100821734Y-102000000D01*
X100834767Y-101867677D01*
X100873364Y-101740439D01*
X100936042Y-101623176D01*
X101020394Y-101520394D01*
X101123176Y-101436042D01*
X101240439Y-101373364D01*
X101367677Y-101334767D01*
X101466841Y-101325000D01*
X101533159Y-101325000D01*
X101632323Y-101334767D01*
X101632323Y-101334767D01*
G37*
G36*
X157729225Y-97596074D02*
X158184192Y-97784528D01*
X158184194Y-97784529D01*
X158308638Y-97867680D01*
X158593658Y-98058124D01*
X158941876Y-98406342D01*
X159094512Y-98634778D01*
X159198797Y-98790851D01*
X159215472Y-98815808D01*
X159403926Y-99270775D01*
X159500000Y-99753772D01*
X159500000Y-100246228D01*
X159403926Y-100729225D01*
X159241573Y-101121178D01*
X159215471Y-101184194D01*
X159171501Y-101250000D01*
X158941876Y-101593658D01*
X158593658Y-101941876D01*
X158447514Y-102039526D01*
X158184194Y-102215471D01*
X158184193Y-102215472D01*
X158184192Y-102215472D01*
X157729225Y-102403926D01*
X157246228Y-102500000D01*
X156753772Y-102500000D01*
X156270775Y-102403926D01*
X155815808Y-102215472D01*
X155815807Y-102215472D01*
X155815806Y-102215471D01*
X155552486Y-102039526D01*
X155406342Y-101941876D01*
X155058124Y-101593658D01*
X154828499Y-101250000D01*
X154784529Y-101184194D01*
X154758427Y-101121178D01*
X154596074Y-100729225D01*
X154500000Y-100246228D01*
X154500000Y-99753772D01*
X154596074Y-99270775D01*
X154784528Y-98815808D01*
X154801204Y-98790851D01*
X154905488Y-98634778D01*
X155058124Y-98406342D01*
X155406342Y-98058124D01*
X155691362Y-97867680D01*
X155815806Y-97784529D01*
X155815808Y-97784528D01*
X156270775Y-97596074D01*
X156753772Y-97500000D01*
X157246228Y-97500000D01*
X157729225Y-97596074D01*
X157729225Y-97596074D01*
G37*
G36*
X143729225Y-97596074D02*
X144184192Y-97784528D01*
X144184194Y-97784529D01*
X144308638Y-97867680D01*
X144593658Y-98058124D01*
X144941876Y-98406342D01*
X145094512Y-98634778D01*
X145198797Y-98790851D01*
X145215472Y-98815808D01*
X145403926Y-99270775D01*
X145500000Y-99753772D01*
X145500000Y-100246228D01*
X145403926Y-100729225D01*
X145241573Y-101121178D01*
X145215471Y-101184194D01*
X145171501Y-101250000D01*
X144941876Y-101593658D01*
X144593658Y-101941876D01*
X144447514Y-102039526D01*
X144184194Y-102215471D01*
X144184193Y-102215472D01*
X144184192Y-102215472D01*
X143729225Y-102403926D01*
X143246228Y-102500000D01*
X142753772Y-102500000D01*
X142270775Y-102403926D01*
X141815808Y-102215472D01*
X141815807Y-102215472D01*
X141815806Y-102215471D01*
X141552486Y-102039526D01*
X141406342Y-101941876D01*
X141058124Y-101593658D01*
X140828499Y-101250000D01*
X140784529Y-101184194D01*
X140758427Y-101121178D01*
X140596074Y-100729225D01*
X140500000Y-100246228D01*
X140500000Y-99753772D01*
X140596074Y-99270775D01*
X140784528Y-98815808D01*
X140801204Y-98790851D01*
X140905488Y-98634778D01*
X141058124Y-98406342D01*
X141406342Y-98058124D01*
X141691362Y-97867680D01*
X141815806Y-97784529D01*
X141815808Y-97784528D01*
X142270775Y-97596074D01*
X142753772Y-97500000D01*
X143246228Y-97500000D01*
X143729225Y-97596074D01*
X143729225Y-97596074D01*
G37*
G36*
X107164613Y-98798037D02*
X107392095Y-98892263D01*
X107596830Y-99029063D01*
X107770937Y-99203170D01*
X107907737Y-99407905D01*
X108001963Y-99635387D01*
X108050000Y-99876886D01*
X108050000Y-100123114D01*
X108001963Y-100364613D01*
X107907737Y-100592095D01*
X107770937Y-100796830D01*
X107596830Y-100970937D01*
X107392095Y-101107737D01*
X107164613Y-101201963D01*
X106923114Y-101250000D01*
X106676886Y-101250000D01*
X106435387Y-101201963D01*
X106207905Y-101107737D01*
X106003170Y-100970937D01*
X105829063Y-100796830D01*
X105692263Y-100592095D01*
X105598037Y-100364613D01*
X105550000Y-100123114D01*
X105550000Y-99876886D01*
X105598037Y-99635387D01*
X105692263Y-99407905D01*
X105829063Y-99203170D01*
X106003170Y-99029063D01*
X106207905Y-98892263D01*
X106435387Y-98798037D01*
X106676886Y-98750000D01*
X106923114Y-98750000D01*
X107164613Y-98798037D01*
X107164613Y-98798037D01*
G37*
G36*
X125964613Y-98798037D02*
X126192095Y-98892263D01*
X126396830Y-99029063D01*
X126570937Y-99203170D01*
X126707737Y-99407905D01*
X126801963Y-99635387D01*
X126850000Y-99876886D01*
X126850000Y-100123114D01*
X126801963Y-100364613D01*
X126707737Y-100592095D01*
X126570937Y-100796830D01*
X126396830Y-100970937D01*
X126192095Y-101107737D01*
X125964613Y-101201963D01*
X125723114Y-101250000D01*
X125476886Y-101250000D01*
X125235387Y-101201963D01*
X125007905Y-101107737D01*
X124803170Y-100970937D01*
X124629063Y-100796830D01*
X124492263Y-100592095D01*
X124398037Y-100364613D01*
X124350000Y-100123114D01*
X124350000Y-99876886D01*
X124398037Y-99635387D01*
X124492263Y-99407905D01*
X124629063Y-99203170D01*
X124803170Y-99029063D01*
X125007905Y-98892263D01*
X125235387Y-98798037D01*
X125476886Y-98750000D01*
X125723114Y-98750000D01*
X125964613Y-98798037D01*
X125964613Y-98798037D01*
G37*
G36*
X163468768Y-99678822D02*
X163605256Y-99735357D01*
X163728098Y-99817438D01*
X163832562Y-99921902D01*
X163914643Y-100044744D01*
X163971178Y-100181232D01*
X164000000Y-100326131D01*
X164000000Y-100473869D01*
X163971178Y-100618768D01*
X163914643Y-100755256D01*
X163832562Y-100878098D01*
X163728098Y-100982562D01*
X163605256Y-101064643D01*
X163468768Y-101121178D01*
X163323869Y-101150000D01*
X163176131Y-101150000D01*
X163031232Y-101121178D01*
X162894744Y-101064643D01*
X162771902Y-100982562D01*
X162667438Y-100878098D01*
X162585357Y-100755256D01*
X162528822Y-100618768D01*
X162500000Y-100473869D01*
X162500000Y-100326131D01*
X162528822Y-100181232D01*
X162585357Y-100044744D01*
X162667438Y-99921902D01*
X162771902Y-99817438D01*
X162894744Y-99735357D01*
X163031232Y-99678822D01*
X163176131Y-99650000D01*
X163323869Y-99650000D01*
X163468768Y-99678822D01*
X163468768Y-99678822D01*
G37*
G36*
X135218768Y-99378822D02*
X135355256Y-99435357D01*
X135437151Y-99490078D01*
X135478097Y-99517437D01*
X135582563Y-99621903D01*
X135601337Y-99650000D01*
X135664643Y-99744744D01*
X135721178Y-99881232D01*
X135750000Y-100026131D01*
X135750000Y-100173869D01*
X135721178Y-100318768D01*
X135664643Y-100455256D01*
X135609922Y-100537151D01*
X135591553Y-100564643D01*
X135582562Y-100578098D01*
X135478098Y-100682562D01*
X135355256Y-100764643D01*
X135218768Y-100821178D01*
X135073869Y-100850000D01*
X134926131Y-100850000D01*
X134781232Y-100821178D01*
X134644744Y-100764643D01*
X134521902Y-100682562D01*
X134417438Y-100578098D01*
X134408448Y-100564643D01*
X134390078Y-100537151D01*
X134335357Y-100455256D01*
X134278822Y-100318768D01*
X134250000Y-100173869D01*
X134250000Y-100026131D01*
X134278822Y-99881232D01*
X134335357Y-99744744D01*
X134398663Y-99650000D01*
X134417437Y-99621903D01*
X134521903Y-99517437D01*
X134562849Y-99490078D01*
X134644744Y-99435357D01*
X134781232Y-99378822D01*
X134926131Y-99350000D01*
X135073869Y-99350000D01*
X135218768Y-99378822D01*
X135218768Y-99378822D01*
G37*
G36*
X103632323Y-99334767D02*
X103759561Y-99373364D01*
X103876824Y-99436042D01*
X103979606Y-99520394D01*
X104063958Y-99623176D01*
X104126636Y-99740439D01*
X104165233Y-99867677D01*
X104178266Y-100000000D01*
X104165233Y-100132323D01*
X104126636Y-100259561D01*
X104063958Y-100376824D01*
X103979606Y-100479606D01*
X103876824Y-100563958D01*
X103759561Y-100626636D01*
X103632323Y-100665233D01*
X103533159Y-100675000D01*
X103466841Y-100675000D01*
X103367677Y-100665233D01*
X103240439Y-100626636D01*
X103123176Y-100563958D01*
X103020394Y-100479606D01*
X102936042Y-100376824D01*
X102873364Y-100259561D01*
X102834767Y-100132323D01*
X102821734Y-100000000D01*
X102834767Y-99867677D01*
X102873364Y-99740439D01*
X102936042Y-99623176D01*
X103020394Y-99520394D01*
X103123176Y-99436042D01*
X103240439Y-99373364D01*
X103367677Y-99334767D01*
X103466841Y-99325000D01*
X103533159Y-99325000D01*
X103632323Y-99334767D01*
X103632323Y-99334767D01*
G37*
G36*
X101632323Y-99334767D02*
X101759561Y-99373364D01*
X101876824Y-99436042D01*
X101979606Y-99520394D01*
X102063958Y-99623176D01*
X102126636Y-99740439D01*
X102165233Y-99867677D01*
X102178266Y-100000000D01*
X102165233Y-100132323D01*
X102126636Y-100259561D01*
X102063958Y-100376824D01*
X101979606Y-100479606D01*
X101876824Y-100563958D01*
X101759561Y-100626636D01*
X101632323Y-100665233D01*
X101533159Y-100675000D01*
X101466841Y-100675000D01*
X101367677Y-100665233D01*
X101240439Y-100626636D01*
X101123176Y-100563958D01*
X101020394Y-100479606D01*
X100936042Y-100376824D01*
X100873364Y-100259561D01*
X100834767Y-100132323D01*
X100821734Y-100000000D01*
X100834767Y-99867677D01*
X100873364Y-99740439D01*
X100936042Y-99623176D01*
X101020394Y-99520394D01*
X101123176Y-99436042D01*
X101240439Y-99373364D01*
X101367677Y-99334767D01*
X101466841Y-99325000D01*
X101533159Y-99325000D01*
X101632323Y-99334767D01*
X101632323Y-99334767D01*
G37*
G36*
X196632323Y-99334767D02*
X196759561Y-99373364D01*
X196876824Y-99436042D01*
X196979606Y-99520394D01*
X197063958Y-99623176D01*
X197126636Y-99740439D01*
X197165233Y-99867677D01*
X197178266Y-100000000D01*
X197165233Y-100132323D01*
X197126636Y-100259561D01*
X197063958Y-100376824D01*
X196979606Y-100479606D01*
X196876824Y-100563958D01*
X196759561Y-100626636D01*
X196632323Y-100665233D01*
X196533159Y-100675000D01*
X196466841Y-100675000D01*
X196367677Y-100665233D01*
X196240439Y-100626636D01*
X196123176Y-100563958D01*
X196020394Y-100479606D01*
X195936042Y-100376824D01*
X195873364Y-100259561D01*
X195834767Y-100132323D01*
X195821734Y-100000000D01*
X195834767Y-99867677D01*
X195873364Y-99740439D01*
X195936042Y-99623176D01*
X196020394Y-99520394D01*
X196123176Y-99436042D01*
X196240439Y-99373364D01*
X196367677Y-99334767D01*
X196466841Y-99325000D01*
X196533159Y-99325000D01*
X196632323Y-99334767D01*
X196632323Y-99334767D01*
G37*
G36*
X198632323Y-99334767D02*
X198759561Y-99373364D01*
X198876824Y-99436042D01*
X198979606Y-99520394D01*
X199063958Y-99623176D01*
X199126636Y-99740439D01*
X199165233Y-99867677D01*
X199178266Y-100000000D01*
X199165233Y-100132323D01*
X199126636Y-100259561D01*
X199063958Y-100376824D01*
X198979606Y-100479606D01*
X198876824Y-100563958D01*
X198759561Y-100626636D01*
X198632323Y-100665233D01*
X198533159Y-100675000D01*
X198466841Y-100675000D01*
X198367677Y-100665233D01*
X198240439Y-100626636D01*
X198123176Y-100563958D01*
X198020394Y-100479606D01*
X197936042Y-100376824D01*
X197873364Y-100259561D01*
X197834767Y-100132323D01*
X197821734Y-100000000D01*
X197834767Y-99867677D01*
X197873364Y-99740439D01*
X197936042Y-99623176D01*
X198020394Y-99520394D01*
X198123176Y-99436042D01*
X198240439Y-99373364D01*
X198367677Y-99334767D01*
X198466841Y-99325000D01*
X198533159Y-99325000D01*
X198632323Y-99334767D01*
X198632323Y-99334767D01*
G37*
G36*
X190468768Y-99178822D02*
X190605256Y-99235357D01*
X190658262Y-99270775D01*
X190728097Y-99317437D01*
X190832563Y-99421903D01*
X190859922Y-99462849D01*
X190914643Y-99544744D01*
X190971178Y-99681232D01*
X191000000Y-99826131D01*
X191000000Y-99973869D01*
X190971178Y-100118768D01*
X190914643Y-100255256D01*
X190911767Y-100259560D01*
X190833414Y-100376824D01*
X190832562Y-100378098D01*
X190728098Y-100482562D01*
X190605256Y-100564643D01*
X190468768Y-100621178D01*
X190323869Y-100650000D01*
X190176131Y-100650000D01*
X190031232Y-100621178D01*
X189894744Y-100564643D01*
X189771902Y-100482562D01*
X189667438Y-100378098D01*
X189666587Y-100376824D01*
X189588233Y-100259560D01*
X189585357Y-100255256D01*
X189528822Y-100118768D01*
X189500000Y-99973869D01*
X189500000Y-99826131D01*
X189528822Y-99681232D01*
X189585357Y-99544744D01*
X189640078Y-99462849D01*
X189667437Y-99421903D01*
X189771903Y-99317437D01*
X189841738Y-99270775D01*
X189894744Y-99235357D01*
X190031232Y-99178822D01*
X190176131Y-99150000D01*
X190323869Y-99150000D01*
X190468768Y-99178822D01*
X190468768Y-99178822D01*
G37*
G36*
X185150000Y-100585000D02*
X183650000Y-100585000D01*
X183650000Y-99415000D01*
X185150000Y-99415000D01*
X185150000Y-100585000D01*
X185150000Y-100585000D01*
G37*
G36*
X172350000Y-100585000D02*
X170850000Y-100585000D01*
X170850000Y-99415000D01*
X172350000Y-99415000D01*
X172350000Y-100585000D01*
X172350000Y-100585000D01*
G37*
G36*
X153962054Y-97721529D02*
X154020015Y-97733058D01*
X154129204Y-97778285D01*
X154129207Y-97778287D01*
X154227478Y-97843950D01*
X154311050Y-97927522D01*
X154376713Y-98025793D01*
X154376715Y-98025796D01*
X154420838Y-98132320D01*
X154421942Y-98134986D01*
X154445000Y-98250905D01*
X154445000Y-98369095D01*
X154443462Y-98376825D01*
X154421942Y-98485015D01*
X154376715Y-98594204D01*
X154376713Y-98594207D01*
X154311050Y-98692478D01*
X154227478Y-98776050D01*
X154194572Y-98798037D01*
X154129204Y-98841715D01*
X154020015Y-98886942D01*
X153993264Y-98892263D01*
X153904095Y-98910000D01*
X153785905Y-98910000D01*
X153696736Y-98892263D01*
X153669985Y-98886942D01*
X153560796Y-98841715D01*
X153495428Y-98798037D01*
X153462522Y-98776050D01*
X153378950Y-98692478D01*
X153313287Y-98594207D01*
X153313285Y-98594204D01*
X153268058Y-98485015D01*
X153246538Y-98376825D01*
X153245000Y-98369095D01*
X153245000Y-98250905D01*
X153268058Y-98134986D01*
X153269162Y-98132320D01*
X153313285Y-98025796D01*
X153313287Y-98025793D01*
X153378950Y-97927522D01*
X153462522Y-97843950D01*
X153560793Y-97778287D01*
X153560796Y-97778285D01*
X153669985Y-97733058D01*
X153727946Y-97721529D01*
X153785905Y-97710000D01*
X153904095Y-97710000D01*
X153962054Y-97721529D01*
X153962054Y-97721529D01*
G37*
G36*
X146272054Y-97721529D02*
X146330015Y-97733058D01*
X146439204Y-97778285D01*
X146439207Y-97778287D01*
X146537478Y-97843950D01*
X146621050Y-97927522D01*
X146686713Y-98025793D01*
X146686715Y-98025796D01*
X146730838Y-98132320D01*
X146731942Y-98134986D01*
X146755000Y-98250905D01*
X146755000Y-98369095D01*
X146753462Y-98376825D01*
X146731942Y-98485015D01*
X146686715Y-98594204D01*
X146686713Y-98594207D01*
X146621050Y-98692478D01*
X146537478Y-98776050D01*
X146504572Y-98798037D01*
X146439204Y-98841715D01*
X146330015Y-98886942D01*
X146303264Y-98892263D01*
X146214095Y-98910000D01*
X146095905Y-98910000D01*
X146006736Y-98892263D01*
X145979985Y-98886942D01*
X145870796Y-98841715D01*
X145805428Y-98798037D01*
X145772522Y-98776050D01*
X145688950Y-98692478D01*
X145623287Y-98594207D01*
X145623285Y-98594204D01*
X145578058Y-98485015D01*
X145556538Y-98376825D01*
X145555000Y-98369095D01*
X145555000Y-98250905D01*
X145578058Y-98134986D01*
X145579162Y-98132320D01*
X145623285Y-98025796D01*
X145623287Y-98025793D01*
X145688950Y-97927522D01*
X145772522Y-97843950D01*
X145870793Y-97778287D01*
X145870796Y-97778285D01*
X145979985Y-97733058D01*
X146037946Y-97721529D01*
X146095905Y-97710000D01*
X146214095Y-97710000D01*
X146272054Y-97721529D01*
X146272054Y-97721529D01*
G37*
G36*
X196609951Y-97333647D02*
X196696892Y-97350940D01*
X196819730Y-97401821D01*
X196930289Y-97475694D01*
X197024306Y-97569711D01*
X197098179Y-97680270D01*
X197149060Y-97803108D01*
X197149060Y-97803110D01*
X197175000Y-97933518D01*
X197175000Y-98066482D01*
X197166353Y-98109951D01*
X197149060Y-98196892D01*
X197098179Y-98319730D01*
X197024306Y-98430289D01*
X196930289Y-98524306D01*
X196819730Y-98598179D01*
X196696892Y-98649060D01*
X196615584Y-98665233D01*
X196566482Y-98675000D01*
X196433518Y-98675000D01*
X196384416Y-98665233D01*
X196303108Y-98649060D01*
X196180270Y-98598179D01*
X196069711Y-98524306D01*
X195975694Y-98430289D01*
X195901821Y-98319730D01*
X195850940Y-98196892D01*
X195833647Y-98109951D01*
X195825000Y-98066482D01*
X195825000Y-97933518D01*
X195850940Y-97803110D01*
X195850940Y-97803108D01*
X195901821Y-97680270D01*
X195975694Y-97569711D01*
X196069711Y-97475694D01*
X196180270Y-97401821D01*
X196303108Y-97350940D01*
X196390049Y-97333647D01*
X196433518Y-97325000D01*
X196566482Y-97325000D01*
X196609951Y-97333647D01*
X196609951Y-97333647D01*
G37*
G36*
X103632323Y-97334767D02*
X103759561Y-97373364D01*
X103876824Y-97436042D01*
X103979606Y-97520394D01*
X104063958Y-97623176D01*
X104126636Y-97740439D01*
X104165233Y-97867677D01*
X104178266Y-98000000D01*
X104165233Y-98132323D01*
X104126636Y-98259561D01*
X104063958Y-98376824D01*
X103979606Y-98479606D01*
X103876824Y-98563958D01*
X103759561Y-98626636D01*
X103632323Y-98665233D01*
X103533159Y-98675000D01*
X103466841Y-98675000D01*
X103367677Y-98665233D01*
X103240439Y-98626636D01*
X103123176Y-98563958D01*
X103020394Y-98479606D01*
X102936042Y-98376824D01*
X102873364Y-98259561D01*
X102834767Y-98132323D01*
X102821734Y-98000000D01*
X102834767Y-97867677D01*
X102873364Y-97740439D01*
X102936042Y-97623176D01*
X103020394Y-97520394D01*
X103123176Y-97436042D01*
X103240439Y-97373364D01*
X103367677Y-97334767D01*
X103466841Y-97325000D01*
X103533159Y-97325000D01*
X103632323Y-97334767D01*
X103632323Y-97334767D01*
G37*
G36*
X198632323Y-97334767D02*
X198759561Y-97373364D01*
X198876824Y-97436042D01*
X198979606Y-97520394D01*
X199063958Y-97623176D01*
X199126636Y-97740439D01*
X199165233Y-97867677D01*
X199178266Y-98000000D01*
X199165233Y-98132323D01*
X199126636Y-98259561D01*
X199063958Y-98376824D01*
X198979606Y-98479606D01*
X198876824Y-98563958D01*
X198759561Y-98626636D01*
X198632323Y-98665233D01*
X198533159Y-98675000D01*
X198466841Y-98675000D01*
X198367677Y-98665233D01*
X198240439Y-98626636D01*
X198123176Y-98563958D01*
X198020394Y-98479606D01*
X197936042Y-98376824D01*
X197873364Y-98259561D01*
X197834767Y-98132323D01*
X197821734Y-98000000D01*
X197834767Y-97867677D01*
X197873364Y-97740439D01*
X197936042Y-97623176D01*
X198020394Y-97520394D01*
X198123176Y-97436042D01*
X198240439Y-97373364D01*
X198367677Y-97334767D01*
X198466841Y-97325000D01*
X198533159Y-97325000D01*
X198632323Y-97334767D01*
X198632323Y-97334767D01*
G37*
G36*
X101609951Y-97333647D02*
X101696892Y-97350940D01*
X101819730Y-97401821D01*
X101930289Y-97475694D01*
X102024306Y-97569711D01*
X102098179Y-97680270D01*
X102149060Y-97803108D01*
X102149060Y-97803110D01*
X102175000Y-97933518D01*
X102175000Y-98066482D01*
X102166353Y-98109951D01*
X102149060Y-98196892D01*
X102098179Y-98319730D01*
X102024306Y-98430289D01*
X101930289Y-98524306D01*
X101819730Y-98598179D01*
X101696892Y-98649060D01*
X101615584Y-98665233D01*
X101566482Y-98675000D01*
X101433518Y-98675000D01*
X101384416Y-98665233D01*
X101303108Y-98649060D01*
X101180270Y-98598179D01*
X101069711Y-98524306D01*
X100975694Y-98430289D01*
X100901821Y-98319730D01*
X100850940Y-98196892D01*
X100833647Y-98109951D01*
X100825000Y-98066482D01*
X100825000Y-97933518D01*
X100850940Y-97803110D01*
X100850940Y-97803108D01*
X100901821Y-97680270D01*
X100975694Y-97569711D01*
X101069711Y-97475694D01*
X101180270Y-97401821D01*
X101303108Y-97350940D01*
X101390049Y-97333647D01*
X101433518Y-97325000D01*
X101566482Y-97325000D01*
X101609951Y-97333647D01*
X101609951Y-97333647D01*
G37*
G36*
X185150000Y-98085000D02*
X183650000Y-98085000D01*
X183650000Y-96915000D01*
X185150000Y-96915000D01*
X185150000Y-98085000D01*
X185150000Y-98085000D01*
G37*
G36*
X172350000Y-98085000D02*
X170850000Y-98085000D01*
X170850000Y-96915000D01*
X172350000Y-96915000D01*
X172350000Y-98085000D01*
X172350000Y-98085000D01*
G37*
G36*
X125018768Y-96378822D02*
X125155256Y-96435357D01*
X125278098Y-96517438D01*
X125382562Y-96621902D01*
X125464643Y-96744744D01*
X125521178Y-96881232D01*
X125550000Y-97026131D01*
X125550000Y-97173869D01*
X125521178Y-97318768D01*
X125464643Y-97455256D01*
X125382562Y-97578098D01*
X125278098Y-97682562D01*
X125155256Y-97764643D01*
X125018768Y-97821178D01*
X124873869Y-97850000D01*
X124726131Y-97850000D01*
X124581232Y-97821178D01*
X124444744Y-97764643D01*
X124321902Y-97682562D01*
X124217438Y-97578098D01*
X124135357Y-97455256D01*
X124078822Y-97318768D01*
X124050000Y-97173869D01*
X124050000Y-97026131D01*
X124078822Y-96881232D01*
X124135357Y-96744744D01*
X124217438Y-96621902D01*
X124321902Y-96517438D01*
X124444744Y-96435357D01*
X124581232Y-96378822D01*
X124726131Y-96350000D01*
X124873869Y-96350000D01*
X125018768Y-96378822D01*
X125018768Y-96378822D01*
G37*
G36*
X153694799Y-96447489D02*
X153753945Y-96471988D01*
X153807176Y-96507556D01*
X153852444Y-96552824D01*
X153888012Y-96606055D01*
X153912511Y-96665201D01*
X153925000Y-96727990D01*
X153925000Y-96792010D01*
X153912511Y-96854799D01*
X153888012Y-96913945D01*
X153852444Y-96967176D01*
X153807176Y-97012444D01*
X153753945Y-97048012D01*
X153694799Y-97072511D01*
X153632010Y-97085000D01*
X153567990Y-97085000D01*
X153505201Y-97072511D01*
X153446055Y-97048012D01*
X153392824Y-97012444D01*
X153347556Y-96967176D01*
X153311988Y-96913945D01*
X153287489Y-96854799D01*
X153275000Y-96792010D01*
X153275000Y-96727990D01*
X153287489Y-96665201D01*
X153311988Y-96606055D01*
X153347556Y-96552824D01*
X153392824Y-96507556D01*
X153446055Y-96471988D01*
X153505201Y-96447489D01*
X153567990Y-96435000D01*
X153632010Y-96435000D01*
X153694799Y-96447489D01*
X153694799Y-96447489D01*
G37*
G36*
X146494799Y-96447489D02*
X146553945Y-96471988D01*
X146607176Y-96507556D01*
X146652444Y-96552824D01*
X146688012Y-96606055D01*
X146712511Y-96665201D01*
X146725000Y-96727990D01*
X146725000Y-96792010D01*
X146712511Y-96854799D01*
X146688012Y-96913945D01*
X146652444Y-96967176D01*
X146607176Y-97012444D01*
X146553945Y-97048012D01*
X146494799Y-97072511D01*
X146432010Y-97085000D01*
X146367990Y-97085000D01*
X146305201Y-97072511D01*
X146246055Y-97048012D01*
X146192824Y-97012444D01*
X146147556Y-96967176D01*
X146111988Y-96913945D01*
X146087489Y-96854799D01*
X146075000Y-96792010D01*
X146075000Y-96727990D01*
X146087489Y-96665201D01*
X146111988Y-96606055D01*
X146147556Y-96552824D01*
X146192824Y-96507556D01*
X146246055Y-96471988D01*
X146305201Y-96447489D01*
X146367990Y-96435000D01*
X146432010Y-96435000D01*
X146494799Y-96447489D01*
X146494799Y-96447489D01*
G37*
G36*
X151294799Y-95797489D02*
X151353945Y-95821988D01*
X151407176Y-95857556D01*
X151452444Y-95902824D01*
X151488012Y-95956055D01*
X151512511Y-96015201D01*
X151525000Y-96077990D01*
X151525000Y-96142010D01*
X151512511Y-96204799D01*
X151488012Y-96263945D01*
X151452444Y-96317176D01*
X151407176Y-96362444D01*
X151353945Y-96398012D01*
X151294799Y-96422511D01*
X151232010Y-96435000D01*
X151167990Y-96435000D01*
X151105201Y-96422511D01*
X151046055Y-96398012D01*
X150992824Y-96362444D01*
X150947556Y-96317176D01*
X150911988Y-96263945D01*
X150887489Y-96204799D01*
X150875000Y-96142010D01*
X150875000Y-96077990D01*
X150887489Y-96015201D01*
X150911988Y-95956055D01*
X150947556Y-95902824D01*
X150992824Y-95857556D01*
X151046055Y-95821988D01*
X151105201Y-95797489D01*
X151167990Y-95785000D01*
X151232010Y-95785000D01*
X151294799Y-95797489D01*
X151294799Y-95797489D01*
G37*
G36*
X150494799Y-95797489D02*
X150553945Y-95821988D01*
X150607176Y-95857556D01*
X150652444Y-95902824D01*
X150688012Y-95956055D01*
X150712511Y-96015201D01*
X150725000Y-96077990D01*
X150725000Y-96142010D01*
X150712511Y-96204799D01*
X150688012Y-96263945D01*
X150652444Y-96317176D01*
X150607176Y-96362444D01*
X150553945Y-96398012D01*
X150494799Y-96422511D01*
X150432010Y-96435000D01*
X150367990Y-96435000D01*
X150305201Y-96422511D01*
X150246055Y-96398012D01*
X150192824Y-96362444D01*
X150147556Y-96317176D01*
X150111988Y-96263945D01*
X150087489Y-96204799D01*
X150075000Y-96142010D01*
X150075000Y-96077990D01*
X150087489Y-96015201D01*
X150111988Y-95956055D01*
X150147556Y-95902824D01*
X150192824Y-95857556D01*
X150246055Y-95821988D01*
X150305201Y-95797489D01*
X150367990Y-95785000D01*
X150432010Y-95785000D01*
X150494799Y-95797489D01*
X150494799Y-95797489D01*
G37*
G36*
X152894799Y-95797489D02*
X152953945Y-95821988D01*
X153007176Y-95857556D01*
X153052444Y-95902824D01*
X153088012Y-95956055D01*
X153112511Y-96015201D01*
X153125000Y-96077990D01*
X153125000Y-96142010D01*
X153112511Y-96204799D01*
X153088012Y-96263945D01*
X153052444Y-96317176D01*
X153007176Y-96362444D01*
X152953945Y-96398012D01*
X152894799Y-96422511D01*
X152832010Y-96435000D01*
X152767990Y-96435000D01*
X152705201Y-96422511D01*
X152646055Y-96398012D01*
X152592824Y-96362444D01*
X152547556Y-96317176D01*
X152511988Y-96263945D01*
X152487489Y-96204799D01*
X152475000Y-96142010D01*
X152475000Y-96077990D01*
X152487489Y-96015201D01*
X152511988Y-95956055D01*
X152547556Y-95902824D01*
X152592824Y-95857556D01*
X152646055Y-95821988D01*
X152705201Y-95797489D01*
X152767990Y-95785000D01*
X152832010Y-95785000D01*
X152894799Y-95797489D01*
X152894799Y-95797489D01*
G37*
G36*
X149694799Y-95797489D02*
X149753945Y-95821988D01*
X149807176Y-95857556D01*
X149852444Y-95902824D01*
X149888012Y-95956055D01*
X149912511Y-96015201D01*
X149925000Y-96077990D01*
X149925000Y-96142010D01*
X149912511Y-96204799D01*
X149888012Y-96263945D01*
X149852444Y-96317176D01*
X149807176Y-96362444D01*
X149753945Y-96398012D01*
X149694799Y-96422511D01*
X149632010Y-96435000D01*
X149567990Y-96435000D01*
X149505201Y-96422511D01*
X149446055Y-96398012D01*
X149392824Y-96362444D01*
X149347556Y-96317176D01*
X149311988Y-96263945D01*
X149287489Y-96204799D01*
X149275000Y-96142010D01*
X149275000Y-96077990D01*
X149287489Y-96015201D01*
X149311988Y-95956055D01*
X149347556Y-95902824D01*
X149392824Y-95857556D01*
X149446055Y-95821988D01*
X149505201Y-95797489D01*
X149567990Y-95785000D01*
X149632010Y-95785000D01*
X149694799Y-95797489D01*
X149694799Y-95797489D01*
G37*
G36*
X148894799Y-95797489D02*
X148953945Y-95821988D01*
X149007176Y-95857556D01*
X149052444Y-95902824D01*
X149088012Y-95956055D01*
X149112511Y-96015201D01*
X149125000Y-96077990D01*
X149125000Y-96142010D01*
X149112511Y-96204799D01*
X149088012Y-96263945D01*
X149052444Y-96317176D01*
X149007176Y-96362444D01*
X148953945Y-96398012D01*
X148894799Y-96422511D01*
X148832010Y-96435000D01*
X148767990Y-96435000D01*
X148705201Y-96422511D01*
X148646055Y-96398012D01*
X148592824Y-96362444D01*
X148547556Y-96317176D01*
X148511988Y-96263945D01*
X148487489Y-96204799D01*
X148475000Y-96142010D01*
X148475000Y-96077990D01*
X148487489Y-96015201D01*
X148511988Y-95956055D01*
X148547556Y-95902824D01*
X148592824Y-95857556D01*
X148646055Y-95821988D01*
X148705201Y-95797489D01*
X148767990Y-95785000D01*
X148832010Y-95785000D01*
X148894799Y-95797489D01*
X148894799Y-95797489D01*
G37*
G36*
X147294799Y-95797489D02*
X147353945Y-95821988D01*
X147407176Y-95857556D01*
X147452444Y-95902824D01*
X147488012Y-95956055D01*
X147512511Y-96015201D01*
X147525000Y-96077990D01*
X147525000Y-96142010D01*
X147512511Y-96204799D01*
X147488012Y-96263945D01*
X147452444Y-96317176D01*
X147407176Y-96362444D01*
X147353945Y-96398012D01*
X147294799Y-96422511D01*
X147232010Y-96435000D01*
X147167990Y-96435000D01*
X147105201Y-96422511D01*
X147046055Y-96398012D01*
X146992824Y-96362444D01*
X146947556Y-96317176D01*
X146911988Y-96263945D01*
X146887489Y-96204799D01*
X146875000Y-96142010D01*
X146875000Y-96077990D01*
X146887489Y-96015201D01*
X146911988Y-95956055D01*
X146947556Y-95902824D01*
X146992824Y-95857556D01*
X147046055Y-95821988D01*
X147105201Y-95797489D01*
X147167990Y-95785000D01*
X147232010Y-95785000D01*
X147294799Y-95797489D01*
X147294799Y-95797489D01*
G37*
G36*
X154211825Y-94710603D02*
X154363351Y-94740743D01*
X154508942Y-94801049D01*
X154639972Y-94888600D01*
X154751400Y-95000028D01*
X154808176Y-95085000D01*
X154838951Y-95131058D01*
X154899257Y-95276649D01*
X154930000Y-95431207D01*
X154930000Y-95588793D01*
X154899257Y-95743351D01*
X154851951Y-95857557D01*
X154838951Y-95888942D01*
X154751400Y-96019972D01*
X154639972Y-96131400D01*
X154612135Y-96150000D01*
X154508942Y-96218951D01*
X154363351Y-96279257D01*
X154286072Y-96294629D01*
X154208794Y-96310000D01*
X154051206Y-96310000D01*
X153973928Y-96294629D01*
X153896649Y-96279257D01*
X153751058Y-96218951D01*
X153647865Y-96150000D01*
X153620028Y-96131400D01*
X153508600Y-96019972D01*
X153421049Y-95888942D01*
X153408049Y-95857557D01*
X153360743Y-95743351D01*
X153330000Y-95588793D01*
X153330000Y-95431207D01*
X153360743Y-95276649D01*
X153421049Y-95131058D01*
X153451824Y-95085000D01*
X153508600Y-95000028D01*
X153620028Y-94888600D01*
X153751058Y-94801049D01*
X153896649Y-94740743D01*
X154048175Y-94710603D01*
X154051206Y-94710000D01*
X154208794Y-94710000D01*
X154211825Y-94710603D01*
X154211825Y-94710603D01*
G37*
G36*
X145951825Y-94710603D02*
X146103351Y-94740743D01*
X146248942Y-94801049D01*
X146379972Y-94888600D01*
X146491400Y-95000028D01*
X146548176Y-95085000D01*
X146578951Y-95131058D01*
X146639257Y-95276649D01*
X146670000Y-95431207D01*
X146670000Y-95588793D01*
X146639257Y-95743351D01*
X146591951Y-95857557D01*
X146578951Y-95888942D01*
X146491400Y-96019972D01*
X146379972Y-96131400D01*
X146352135Y-96150000D01*
X146248942Y-96218951D01*
X146103351Y-96279257D01*
X146026072Y-96294629D01*
X145948794Y-96310000D01*
X145791206Y-96310000D01*
X145713928Y-96294629D01*
X145636649Y-96279257D01*
X145491058Y-96218951D01*
X145387865Y-96150000D01*
X145360028Y-96131400D01*
X145248600Y-96019972D01*
X145161049Y-95888942D01*
X145148049Y-95857557D01*
X145100743Y-95743351D01*
X145070000Y-95588793D01*
X145070000Y-95431207D01*
X145100743Y-95276649D01*
X145161049Y-95131058D01*
X145191824Y-95085000D01*
X145248600Y-95000028D01*
X145360028Y-94888600D01*
X145491058Y-94801049D01*
X145636649Y-94740743D01*
X145788175Y-94710603D01*
X145791206Y-94710000D01*
X145948794Y-94710000D01*
X145951825Y-94710603D01*
X145951825Y-94710603D01*
G37*
G36*
X139818768Y-94678822D02*
X139955256Y-94735357D01*
X140036132Y-94789397D01*
X140078097Y-94817437D01*
X140182563Y-94921903D01*
X140209922Y-94962849D01*
X140264643Y-95044744D01*
X140321178Y-95181232D01*
X140350000Y-95326131D01*
X140350000Y-95473869D01*
X140321178Y-95618768D01*
X140264643Y-95755256D01*
X140182562Y-95878098D01*
X140078098Y-95982562D01*
X139955256Y-96064643D01*
X139818768Y-96121178D01*
X139673869Y-96150000D01*
X139526131Y-96150000D01*
X139381232Y-96121178D01*
X139244744Y-96064643D01*
X139121902Y-95982562D01*
X139017438Y-95878098D01*
X138935357Y-95755256D01*
X138878822Y-95618768D01*
X138850000Y-95473869D01*
X138850000Y-95326131D01*
X138878822Y-95181232D01*
X138935357Y-95044744D01*
X138990078Y-94962849D01*
X139017437Y-94921903D01*
X139121903Y-94817437D01*
X139163868Y-94789397D01*
X139244744Y-94735357D01*
X139381232Y-94678822D01*
X139526131Y-94650000D01*
X139673869Y-94650000D01*
X139818768Y-94678822D01*
X139818768Y-94678822D01*
G37*
G36*
X148494799Y-95097489D02*
X148553945Y-95121988D01*
X148607176Y-95157556D01*
X148652444Y-95202824D01*
X148688012Y-95256055D01*
X148712511Y-95315201D01*
X148725000Y-95377990D01*
X148725000Y-95442010D01*
X148712511Y-95504799D01*
X148688012Y-95563945D01*
X148652444Y-95617176D01*
X148607176Y-95662444D01*
X148553945Y-95698012D01*
X148494799Y-95722511D01*
X148432010Y-95735000D01*
X148367990Y-95735000D01*
X148305201Y-95722511D01*
X148246055Y-95698012D01*
X148192824Y-95662444D01*
X148147556Y-95617176D01*
X148111988Y-95563945D01*
X148087489Y-95504799D01*
X148075000Y-95442010D01*
X148075000Y-95377990D01*
X148087489Y-95315201D01*
X148111988Y-95256055D01*
X148147556Y-95202824D01*
X148192824Y-95157556D01*
X148246055Y-95121988D01*
X148305201Y-95097489D01*
X148367990Y-95085000D01*
X148432010Y-95085000D01*
X148494799Y-95097489D01*
X148494799Y-95097489D01*
G37*
G36*
X147694799Y-95097489D02*
X147753945Y-95121988D01*
X147807176Y-95157556D01*
X147852444Y-95202824D01*
X147888012Y-95256055D01*
X147912511Y-95315201D01*
X147925000Y-95377990D01*
X147925000Y-95442010D01*
X147912511Y-95504799D01*
X147888012Y-95563945D01*
X147852444Y-95617176D01*
X147807176Y-95662444D01*
X147753945Y-95698012D01*
X147694799Y-95722511D01*
X147632010Y-95735000D01*
X147567990Y-95735000D01*
X147505201Y-95722511D01*
X147446055Y-95698012D01*
X147392824Y-95662444D01*
X147347556Y-95617176D01*
X147311988Y-95563945D01*
X147287489Y-95504799D01*
X147275000Y-95442010D01*
X147275000Y-95377990D01*
X147287489Y-95315201D01*
X147311988Y-95256055D01*
X147347556Y-95202824D01*
X147392824Y-95157556D01*
X147446055Y-95121988D01*
X147505201Y-95097489D01*
X147567990Y-95085000D01*
X147632010Y-95085000D01*
X147694799Y-95097489D01*
X147694799Y-95097489D01*
G37*
G36*
X150894799Y-95097489D02*
X150953945Y-95121988D01*
X151007176Y-95157556D01*
X151052444Y-95202824D01*
X151088012Y-95256055D01*
X151112511Y-95315201D01*
X151125000Y-95377990D01*
X151125000Y-95442010D01*
X151112511Y-95504799D01*
X151088012Y-95563945D01*
X151052444Y-95617176D01*
X151007176Y-95662444D01*
X150953945Y-95698012D01*
X150894799Y-95722511D01*
X150832010Y-95735000D01*
X150767990Y-95735000D01*
X150705201Y-95722511D01*
X150646055Y-95698012D01*
X150592824Y-95662444D01*
X150547556Y-95617176D01*
X150511988Y-95563945D01*
X150487489Y-95504799D01*
X150475000Y-95442010D01*
X150475000Y-95377990D01*
X150487489Y-95315201D01*
X150511988Y-95256055D01*
X150547556Y-95202824D01*
X150592824Y-95157556D01*
X150646055Y-95121988D01*
X150705201Y-95097489D01*
X150767990Y-95085000D01*
X150832010Y-95085000D01*
X150894799Y-95097489D01*
X150894799Y-95097489D01*
G37*
G36*
X151694799Y-95097489D02*
X151753945Y-95121988D01*
X151807176Y-95157556D01*
X151852444Y-95202824D01*
X151888012Y-95256055D01*
X151912511Y-95315201D01*
X151925000Y-95377990D01*
X151925000Y-95442010D01*
X151912511Y-95504799D01*
X151888012Y-95563945D01*
X151852444Y-95617176D01*
X151807176Y-95662444D01*
X151753945Y-95698012D01*
X151694799Y-95722511D01*
X151632010Y-95735000D01*
X151567990Y-95735000D01*
X151505201Y-95722511D01*
X151446055Y-95698012D01*
X151392824Y-95662444D01*
X151347556Y-95617176D01*
X151311988Y-95563945D01*
X151287489Y-95504799D01*
X151275000Y-95442010D01*
X151275000Y-95377990D01*
X151287489Y-95315201D01*
X151311988Y-95256055D01*
X151347556Y-95202824D01*
X151392824Y-95157556D01*
X151446055Y-95121988D01*
X151505201Y-95097489D01*
X151567990Y-95085000D01*
X151632010Y-95085000D01*
X151694799Y-95097489D01*
X151694799Y-95097489D01*
G37*
G36*
X152494799Y-95097489D02*
X152553945Y-95121988D01*
X152607176Y-95157556D01*
X152652444Y-95202824D01*
X152688012Y-95256055D01*
X152712511Y-95315201D01*
X152725000Y-95377990D01*
X152725000Y-95442010D01*
X152712511Y-95504799D01*
X152688012Y-95563945D01*
X152652444Y-95617176D01*
X152607176Y-95662444D01*
X152553945Y-95698012D01*
X152494799Y-95722511D01*
X152432010Y-95735000D01*
X152367990Y-95735000D01*
X152305201Y-95722511D01*
X152246055Y-95698012D01*
X152192824Y-95662444D01*
X152147556Y-95617176D01*
X152111988Y-95563945D01*
X152087489Y-95504799D01*
X152075000Y-95442010D01*
X152075000Y-95377990D01*
X152087489Y-95315201D01*
X152111988Y-95256055D01*
X152147556Y-95202824D01*
X152192824Y-95157556D01*
X152246055Y-95121988D01*
X152305201Y-95097489D01*
X152367990Y-95085000D01*
X152432010Y-95085000D01*
X152494799Y-95097489D01*
X152494799Y-95097489D01*
G37*
G36*
X149294799Y-95097489D02*
X149353945Y-95121988D01*
X149407176Y-95157556D01*
X149452444Y-95202824D01*
X149488012Y-95256055D01*
X149512511Y-95315201D01*
X149525000Y-95377990D01*
X149525000Y-95442010D01*
X149512511Y-95504799D01*
X149488012Y-95563945D01*
X149452444Y-95617176D01*
X149407176Y-95662444D01*
X149353945Y-95698012D01*
X149294799Y-95722511D01*
X149232010Y-95735000D01*
X149167990Y-95735000D01*
X149105201Y-95722511D01*
X149046055Y-95698012D01*
X148992824Y-95662444D01*
X148947556Y-95617176D01*
X148911988Y-95563945D01*
X148887489Y-95504799D01*
X148875000Y-95442010D01*
X148875000Y-95377990D01*
X148887489Y-95315201D01*
X148911988Y-95256055D01*
X148947556Y-95202824D01*
X148992824Y-95157556D01*
X149046055Y-95121988D01*
X149105201Y-95097489D01*
X149167990Y-95085000D01*
X149232010Y-95085000D01*
X149294799Y-95097489D01*
X149294799Y-95097489D01*
G37*
G36*
X103298886Y-90865372D02*
X103656303Y-90936466D01*
X104065773Y-91106074D01*
X104284631Y-91252311D01*
X104371872Y-91310603D01*
X104434293Y-91352312D01*
X104747688Y-91665707D01*
X104993926Y-92034227D01*
X105163534Y-92443697D01*
X105163534Y-92443699D01*
X105250000Y-92878394D01*
X105250000Y-93321606D01*
X105232278Y-93410700D01*
X105163534Y-93756303D01*
X104993926Y-94165773D01*
X104870829Y-94350000D01*
X104747689Y-94534292D01*
X104434292Y-94847689D01*
X104323224Y-94921902D01*
X104065773Y-95093926D01*
X103656303Y-95263534D01*
X103396553Y-95315201D01*
X103221606Y-95350000D01*
X102778394Y-95350000D01*
X102603447Y-95315201D01*
X102343697Y-95263534D01*
X101934227Y-95093926D01*
X101676776Y-94921902D01*
X101565708Y-94847689D01*
X101252311Y-94534292D01*
X101129171Y-94350000D01*
X101006074Y-94165773D01*
X100836466Y-93756303D01*
X100767722Y-93410700D01*
X100750000Y-93321606D01*
X100750000Y-92878394D01*
X100836466Y-92443699D01*
X100836466Y-92443697D01*
X101006074Y-92034227D01*
X101252312Y-91665707D01*
X101565707Y-91352312D01*
X101628129Y-91310603D01*
X101715369Y-91252311D01*
X101934227Y-91106074D01*
X102343697Y-90936466D01*
X102701114Y-90865372D01*
X102778394Y-90850000D01*
X103221606Y-90850000D01*
X103298886Y-90865372D01*
X103298886Y-90865372D01*
G37*
G36*
X197366504Y-90778822D02*
X197656303Y-90836466D01*
X198065773Y-91006074D01*
X198256215Y-91133324D01*
X198434292Y-91252311D01*
X198747689Y-91565708D01*
X198793740Y-91634628D01*
X198993926Y-91934227D01*
X199163534Y-92343697D01*
X199166287Y-92357537D01*
X199250000Y-92778394D01*
X199250000Y-93221606D01*
X199243306Y-93255258D01*
X199163534Y-93656303D01*
X198993926Y-94065773D01*
X198890366Y-94220761D01*
X198747689Y-94434292D01*
X198434292Y-94747689D01*
X198354433Y-94801049D01*
X198065773Y-94993926D01*
X197656303Y-95163534D01*
X197366504Y-95221178D01*
X197221606Y-95250000D01*
X196778394Y-95250000D01*
X196633496Y-95221178D01*
X196343697Y-95163534D01*
X195934227Y-94993926D01*
X195645567Y-94801049D01*
X195565708Y-94747689D01*
X195252311Y-94434292D01*
X195109634Y-94220761D01*
X195006074Y-94065773D01*
X194836466Y-93656303D01*
X194756694Y-93255258D01*
X194750000Y-93221606D01*
X194750000Y-92778394D01*
X194833713Y-92357537D01*
X194836466Y-92343697D01*
X195006074Y-91934227D01*
X195206260Y-91634628D01*
X195252311Y-91565708D01*
X195565708Y-91252311D01*
X195743785Y-91133324D01*
X195934227Y-91006074D01*
X196343697Y-90836466D01*
X196633496Y-90778822D01*
X196778394Y-90750000D01*
X197221606Y-90750000D01*
X197366504Y-90778822D01*
X197366504Y-90778822D01*
G37*
G36*
X125018768Y-93728822D02*
X125155256Y-93785357D01*
X125233199Y-93837437D01*
X125278097Y-93867437D01*
X125382563Y-93971903D01*
X125389952Y-93982962D01*
X125464643Y-94094744D01*
X125521178Y-94231232D01*
X125550000Y-94376131D01*
X125550000Y-94523869D01*
X125521178Y-94668768D01*
X125464643Y-94805256D01*
X125436290Y-94847689D01*
X125382563Y-94928097D01*
X125278097Y-95032563D01*
X125237151Y-95059922D01*
X125155256Y-95114643D01*
X125018768Y-95171178D01*
X124873869Y-95200000D01*
X124726131Y-95200000D01*
X124581232Y-95171178D01*
X124444744Y-95114643D01*
X124362849Y-95059922D01*
X124321903Y-95032563D01*
X124217437Y-94928097D01*
X124163710Y-94847689D01*
X124135357Y-94805256D01*
X124078822Y-94668768D01*
X124050000Y-94523869D01*
X124050000Y-94376131D01*
X124078822Y-94231232D01*
X124135357Y-94094744D01*
X124210048Y-93982962D01*
X124217437Y-93971903D01*
X124321903Y-93867437D01*
X124366801Y-93837437D01*
X124444744Y-93785357D01*
X124581232Y-93728822D01*
X124726131Y-93700000D01*
X124873869Y-93700000D01*
X125018768Y-93728822D01*
X125018768Y-93728822D01*
G37*
G36*
X146071689Y-92033429D02*
X146253678Y-92108811D01*
X146417463Y-92218249D01*
X146556751Y-92357537D01*
X146666189Y-92521322D01*
X146741571Y-92703311D01*
X146780000Y-92896509D01*
X146780000Y-93093491D01*
X146741571Y-93286689D01*
X146666189Y-93468678D01*
X146556751Y-93632463D01*
X146417463Y-93771751D01*
X146253678Y-93881189D01*
X146071689Y-93956571D01*
X145878491Y-93995000D01*
X145681509Y-93995000D01*
X145488311Y-93956571D01*
X145306322Y-93881189D01*
X145142537Y-93771751D01*
X145003249Y-93632463D01*
X144893811Y-93468678D01*
X144818429Y-93286689D01*
X144780000Y-93093491D01*
X144780000Y-92896509D01*
X144818429Y-92703311D01*
X144893811Y-92521322D01*
X145003249Y-92357537D01*
X145142537Y-92218249D01*
X145306322Y-92108811D01*
X145488311Y-92033429D01*
X145681509Y-91995000D01*
X145878491Y-91995000D01*
X146071689Y-92033429D01*
X146071689Y-92033429D01*
G37*
G36*
X154511689Y-92033429D02*
X154693678Y-92108811D01*
X154857463Y-92218249D01*
X154996751Y-92357537D01*
X155106189Y-92521322D01*
X155181571Y-92703311D01*
X155220000Y-92896509D01*
X155220000Y-93093491D01*
X155181571Y-93286689D01*
X155106189Y-93468678D01*
X154996751Y-93632463D01*
X154857463Y-93771751D01*
X154693678Y-93881189D01*
X154511689Y-93956571D01*
X154318491Y-93995000D01*
X154121509Y-93995000D01*
X153928311Y-93956571D01*
X153746322Y-93881189D01*
X153582537Y-93771751D01*
X153443249Y-93632463D01*
X153333811Y-93468678D01*
X153258429Y-93286689D01*
X153220000Y-93093491D01*
X153220000Y-92896509D01*
X153258429Y-92703311D01*
X153333811Y-92521322D01*
X153443249Y-92357537D01*
X153582537Y-92218249D01*
X153746322Y-92108811D01*
X153928311Y-92033429D01*
X154121509Y-91995000D01*
X154318491Y-91995000D01*
X154511689Y-92033429D01*
X154511689Y-92033429D01*
G37*
G36*
X143018768Y-92178822D02*
X143155256Y-92235357D01*
X143195972Y-92262563D01*
X143278097Y-92317437D01*
X143382563Y-92421903D01*
X143409922Y-92462849D01*
X143464643Y-92544744D01*
X143521178Y-92681232D01*
X143550000Y-92826131D01*
X143550000Y-92973869D01*
X143521178Y-93118768D01*
X143464643Y-93255256D01*
X143441781Y-93289471D01*
X143382563Y-93378097D01*
X143278097Y-93482563D01*
X143237151Y-93509922D01*
X143155256Y-93564643D01*
X143018768Y-93621178D01*
X142873869Y-93650000D01*
X142726131Y-93650000D01*
X142581232Y-93621178D01*
X142444744Y-93564643D01*
X142362849Y-93509922D01*
X142321903Y-93482563D01*
X142217437Y-93378097D01*
X142158219Y-93289471D01*
X142135357Y-93255256D01*
X142078822Y-93118768D01*
X142050000Y-92973869D01*
X142050000Y-92826131D01*
X142078822Y-92681232D01*
X142135357Y-92544744D01*
X142190078Y-92462849D01*
X142217437Y-92421903D01*
X142321903Y-92317437D01*
X142404028Y-92262563D01*
X142444744Y-92235357D01*
X142581232Y-92178822D01*
X142726131Y-92150000D01*
X142873869Y-92150000D01*
X143018768Y-92178822D01*
X143018768Y-92178822D01*
G37*
G36*
X134718768Y-91878822D02*
X134855256Y-91935357D01*
X134978098Y-92017438D01*
X135082562Y-92121902D01*
X135164643Y-92244744D01*
X135221178Y-92381232D01*
X135250000Y-92526131D01*
X135250000Y-92673869D01*
X135221178Y-92818768D01*
X135164643Y-92955256D01*
X135082562Y-93078098D01*
X134978098Y-93182562D01*
X134855256Y-93264643D01*
X134718768Y-93321178D01*
X134573869Y-93350000D01*
X134426131Y-93350000D01*
X134281232Y-93321178D01*
X134144744Y-93264643D01*
X134021902Y-93182562D01*
X133917438Y-93078098D01*
X133835357Y-92955256D01*
X133778822Y-92818768D01*
X133750000Y-92673869D01*
X133750000Y-92526131D01*
X133778822Y-92381232D01*
X133835357Y-92244744D01*
X133917438Y-92121902D01*
X134021902Y-92017438D01*
X134144744Y-91935357D01*
X134281232Y-91878822D01*
X134426131Y-91850000D01*
X134573869Y-91850000D01*
X134718768Y-91878822D01*
X134718768Y-91878822D01*
G37*
G36*
X168918768Y-91878822D02*
X169055256Y-91935357D01*
X169178098Y-92017438D01*
X169282562Y-92121902D01*
X169364643Y-92244744D01*
X169421178Y-92381232D01*
X169450000Y-92526131D01*
X169450000Y-92673869D01*
X169421178Y-92818768D01*
X169364643Y-92955256D01*
X169282562Y-93078098D01*
X169178098Y-93182562D01*
X169055256Y-93264643D01*
X168918768Y-93321178D01*
X168773869Y-93350000D01*
X168626131Y-93350000D01*
X168481232Y-93321178D01*
X168344744Y-93264643D01*
X168221902Y-93182562D01*
X168117438Y-93078098D01*
X168035357Y-92955256D01*
X167978822Y-92818768D01*
X167950000Y-92673869D01*
X167950000Y-92526131D01*
X167978822Y-92381232D01*
X168035357Y-92244744D01*
X168117438Y-92121902D01*
X168221902Y-92017438D01*
X168344744Y-91935357D01*
X168481232Y-91878822D01*
X168626131Y-91850000D01*
X168773869Y-91850000D01*
X168918768Y-91878822D01*
X168918768Y-91878822D01*
G37*
G36*
X131718768Y-90878822D02*
X131855256Y-90935357D01*
X131978098Y-91017438D01*
X132082562Y-91121902D01*
X132164643Y-91244744D01*
X132221178Y-91381232D01*
X132250000Y-91526131D01*
X132250000Y-91673869D01*
X132221178Y-91818768D01*
X132164643Y-91955256D01*
X132082562Y-92078098D01*
X131978098Y-92182562D01*
X131855256Y-92264643D01*
X131718768Y-92321178D01*
X131573869Y-92350000D01*
X131426131Y-92350000D01*
X131281232Y-92321178D01*
X131144744Y-92264643D01*
X131021902Y-92182562D01*
X130917438Y-92078098D01*
X130835357Y-91955256D01*
X130778822Y-91818768D01*
X130750000Y-91673869D01*
X130750000Y-91526131D01*
X130778822Y-91381232D01*
X130835357Y-91244744D01*
X130917438Y-91121902D01*
X131021902Y-91017438D01*
X131144744Y-90935357D01*
X131281232Y-90878822D01*
X131426131Y-90850000D01*
X131573869Y-90850000D01*
X131718768Y-90878822D01*
X131718768Y-90878822D01*
G37*
M02*
