M48
;DRILL file {KiCad (5.0.2)-1} date 2/23/2019 8:37:36 PM
;FORMAT={-:-/ absolute / inch / decimal}
FMAT,2
INCH,TZ
T1C0.0100
T2C0.0157
T3C0.0197
T4C0.0276
T5C0.0295
T6C0.0315
T7C0.0472
T8C0.0591
T9C0.0701
T10C0.0984
%
G90
G05
T1
X4.8898Y-3.7185
X4.9134Y-3.7185
X4.937Y-3.7185
X5.0059Y-3.6339
X5.0079Y-3.8228
X5.065Y-3.6339
X5.0984Y-3.685
X5.1181Y-3.6654
X5.1299Y-3.7559
X5.1417Y-3.6378
X5.1535Y-3.7136
X5.1535Y-3.7392
X5.1535Y-3.7756
X5.1665Y-4.088
X5.1772Y-3.6575
X5.1772Y-3.7559
X5.1772Y-3.7953
X5.2165Y-4.088
X5.2415Y-3.9384
X5.2421Y-3.9803
X5.248Y-3.6929
X5.248Y-3.7598
X5.252Y-3.5827
X5.2665Y-4.088
X5.2717Y-3.6929
X5.2717Y-3.7598
X5.2717Y-3.8307
X5.2913Y-3.5827
X5.2953Y-3.6929
X5.2953Y-3.7598
X5.311Y-3.8307
X5.3307Y-3.5827
X5.3386Y-3.8307
X5.3415Y-4.1969
X5.3917Y-4.185
X5.3937Y-3.7992
X5.4252Y-3.6575
X5.4252Y-3.7165
X5.4252Y-3.8799
X5.4331Y-4.0335
X5.4409Y-3.7362
X5.4665Y-3.6969
X5.4665Y-3.815
X5.4685Y-3.9094
X5.4961Y-3.7559
X5.4961Y-3.8504
X5.5039Y-4.1909
X5.5512Y-3.7835
X5.622Y-3.6575
X5.7461Y-3.9646
X5.7677Y-4.2067
X5.7736Y-4.063
X5.8031Y-4.063
X5.8268Y-3.7835
X5.8425Y-3.8661
X5.8425Y-3.8898
X5.8898Y-3.878
X5.9055Y-3.9646
X5.9213Y-3.878
X5.9449Y-4.2067
X5.9685Y-3.8661
X5.9685Y-3.8898
X5.9724Y-4.0374
X5.9843Y-3.7835
X5.9921Y-4.1142
X6.0433Y-4.1398
X6.1417Y-4.2071
X6.2126Y-4.0591
X6.2126Y-4.0827
X6.2165Y-3.6102
X6.2165Y-3.7205
X6.2165Y-4.1772
X6.2165Y-4.2008
X6.2362Y-4.0591
X6.2362Y-4.0827
X6.2402Y-4.1772
X6.2402Y-4.2008
X6.2598Y-4.0591
X6.2598Y-4.0827
X6.2638Y-4.1772
X6.2638Y-4.2008
X6.2717Y-3.7559
X6.2835Y-4.0591
X6.2835Y-4.0827
X6.2874Y-4.1772
X6.2874Y-4.2008
X6.2953Y-3.7559
X6.3071Y-3.7362
X6.3189Y-3.7559
X6.3307Y-3.7362
X6.3425Y-3.7559
X6.3819Y-3.748
X6.4055Y-3.748
X6.4173Y-4.1339
X6.4173Y-4.1575
X6.4173Y-4.1811
X6.4173Y-4.2047
X6.4173Y-4.2283
X6.4272Y-3.9528
X6.4291Y-3.748
X6.4724Y-3.9921
X6.4764Y-3.6535
X6.4764Y-3.6772
X6.4803Y-3.7559
X6.4803Y-3.9272
X6.4961Y-3.9921
X6.4961Y-4.0157
X6.4961Y-4.0394
X6.4961Y-4.063
X6.4961Y-4.0866
X6.5Y-3.6535
X6.5Y-3.6772
X6.5256Y-3.9685
X6.5295Y-3.7618
X6.5295Y-3.7854
X6.5492Y-3.9685
X6.5531Y-3.7618
X6.5531Y-3.7854
X6.6019Y-3.8398
X6.6019Y-3.8679
X6.6019Y-3.8959
X6.6019Y-3.924
X6.6344Y-3.8398
X6.6344Y-3.8679
X6.6344Y-3.8959
X6.6344Y-3.924
X6.6732Y-3.7992
X6.7402Y-3.7323
X6.7402Y-3.7559
X6.7402Y-3.7795
X6.7402Y-3.8031
X6.7402Y-3.8268
X6.7402Y-3.8504
X6.7402Y-4.0236
X6.7402Y-4.0472
X6.7402Y-4.0709
X6.7402Y-4.0945
X6.7402Y-4.1181
X6.7402Y-4.1417
X6.7441Y-3.9882
X6.7638Y-3.7323
X6.7638Y-3.7559
X6.7638Y-3.7795
X6.7638Y-3.8031
X6.7638Y-3.8268
X6.7638Y-3.8504
X6.7638Y-4.0236
X6.7638Y-4.0472
X6.7638Y-4.0709
X6.7638Y-4.0945
X6.7638Y-4.1181
X6.7638Y-4.1417
X6.7677Y-3.9882
X6.7953Y-3.6811
X6.8189Y-3.6811
X6.8425Y-3.6811
X6.8661Y-3.6811
X7.1063Y-3.5827
X7.2126Y-3.6417
X7.2441Y-4.0236
X7.2441Y-4.0472
X7.2677Y-4.0236
X7.2677Y-4.0472
X7.2913Y-4.0236
X7.2913Y-4.0472
X7.315Y-4.0236
X7.315Y-4.0472
X7.3386Y-4.0236
X7.3386Y-4.0472
X7.4902Y-3.9331
T2
X5.7953Y-3.7839
X5.811Y-3.7563
X5.8425Y-3.7563
X5.8583Y-3.7839
X5.874Y-3.7563
X5.8898Y-3.7839
X5.9213Y-3.7839
X5.937Y-3.7563
X5.9528Y-3.7839
X5.9685Y-3.7563
X6.Y-3.7563
X6.0157Y-3.7839
T3
X7.687Y-4.2205
X7.7072Y-4.1718
X7.7072Y-4.2692
X7.7559Y-4.1516
X7.7559Y-4.2894
X7.8046Y-4.1718
X7.8046Y-4.2692
X7.8248Y-4.2205
X7.687Y-3.6614
X7.7072Y-3.6127
X7.7072Y-3.7101
X7.7559Y-3.5925
X7.7559Y-3.7303
X7.8046Y-3.6127
X7.8046Y-3.7101
X7.8248Y-3.6614
X3.9862Y-3.6654
X4.0064Y-3.6166
X4.0064Y-3.7141
X4.0551Y-3.5965
X4.0551Y-3.7343
X4.1038Y-3.6166
X4.1038Y-3.7141
X4.124Y-3.6654
X6.1073Y-3.937
X6.1289Y-3.8848
X6.1289Y-3.9892
X6.1811Y-3.8632
X6.1811Y-4.0108
X6.2333Y-3.8848
X6.2333Y-3.9892
X6.2549Y-3.937
X3.9862Y-4.2126
X4.0064Y-4.1639
X4.0064Y-4.2613
X4.0551Y-4.1437
X4.0551Y-4.2815
X4.1038Y-4.1639
X4.1038Y-4.2613
X4.124Y-4.2126
X5.5561Y-3.937
X5.5777Y-3.8848
X5.5777Y-3.9892
X5.6299Y-3.8632
X5.6299Y-4.0108
X5.6821Y-3.8848
X5.6821Y-3.9892
X5.7037Y-3.937
T4
X5.5024Y-4.2677
X5.6024Y-4.2677
T5
X5.7541Y-3.8705
X6.0569Y-3.8705
T6
X3.9961Y-3.8583
X3.9961Y-3.937
X3.9961Y-4.0157
X4.0748Y-3.8583
X4.0748Y-3.937
X4.0748Y-4.0157
X7.7362Y-3.8583
X7.7362Y-3.937
X7.7362Y-4.0157
X7.815Y-3.8583
X7.815Y-3.937
X7.815Y-4.0157
T7
X5.7429Y-3.7602
X6.0681Y-3.7602
T8
X5.7394Y-3.6612
X6.0717Y-3.6612
T9
X4.2047Y-3.937
X4.9449Y-3.937
T10
X7.7559Y-3.6614
X4.0551Y-3.6654
X4.0551Y-4.2126
X7.7559Y-4.2205
X6.1811Y-3.937
X5.6299Y-3.937
T0
M30
