M48
;DRILL file {KiCad 4.0.7} date 02/04/18 23:22:39
;FORMAT={-:-/ absolute / inch / decimal}
FMAT,2
INCH,TZ
T1C0.010
T2C0.031
T3C0.059
T4C0.098
%
G90
G05
M72
T1
X3.9902Y-4.315
X4.1201Y-3.7165
X4.1476Y-4.315
X4.189Y-4.002
X4.2776Y-3.7165
X4.2776Y-4.0906
X4.3051Y-4.315
X4.315Y-3.9508
X4.435Y-3.7165
X4.4626Y-4.315
X4.5098Y-3.939
X4.5098Y-3.9902
X4.5098Y-4.0413
X4.5335Y-3.9646
X4.5335Y-4.0157
X4.5591Y-4.1181
X4.6083Y-3.8406
X4.6223Y-3.953
X4.6223Y-3.9948
X4.6223Y-4.0367
X4.6223Y-4.0785
X4.6339Y-3.8642
X4.6339Y-4.1988
X4.6594Y-3.8406
X4.6594Y-4.1752
X4.6641Y-3.953
X4.6641Y-3.9948
X4.6641Y-4.0367
X4.6641Y-4.0785
X4.706Y-3.953
X4.706Y-3.9948
X4.706Y-4.0367
X4.706Y-4.0785
X4.7106Y-3.8406
X4.7362Y-3.8642
X4.7478Y-3.953
X4.7478Y-3.9948
X4.7478Y-4.0367
X4.7478Y-4.0785
X4.7618Y-3.8406
X4.7638Y-4.2402
X4.8366Y-3.9646
X4.8366Y-4.0157
X4.8563Y-4.315
X4.8602Y-3.939
X4.8602Y-3.9902
X4.8602Y-4.0413
X4.9862Y-3.7165
X5.0138Y-4.315
X5.0551Y-4.002
X5.1437Y-3.7165
X5.1437Y-4.0906
X5.1713Y-4.315
X5.1811Y-3.9508
X5.3012Y-3.7165
X5.3287Y-4.315
X5.6122Y-4.2382
X5.6122Y-4.2894
X5.6358Y-4.2126
X5.6358Y-4.2638
X5.7087Y-3.9764
X5.7247Y-4.1499
X5.7247Y-4.1917
X5.7247Y-4.2335
X5.7247Y-4.2753
X5.7665Y-4.1499
X5.7665Y-4.1917
X5.7665Y-4.2335
X5.7665Y-4.2753
X5.8083Y-4.1499
X5.8083Y-4.1917
X5.8083Y-4.2335
X5.8083Y-4.2753
X5.813Y-4.0531
X5.8386Y-4.0295
X5.8501Y-4.1499
X5.8501Y-4.1917
X5.8501Y-4.2335
X5.8501Y-4.2753
X5.939Y-4.1614
X5.939Y-4.2126
X5.939Y-4.2638
X5.9626Y-4.2382
X5.9626Y-4.2894
X6.1949Y-4.315
X6.3248Y-3.7165
X6.3524Y-4.315
X6.3937Y-4.002
X6.4823Y-3.7165
X6.4823Y-4.0906
X6.5098Y-4.315
X6.5197Y-3.9508
X6.6398Y-3.7165
X6.6673Y-4.315
X6.7146Y-3.939
X6.7146Y-3.9902
X6.7146Y-4.0413
X6.7382Y-3.9646
X6.7382Y-4.0157
X6.7638Y-4.1181
X6.813Y-3.8406
X6.827Y-3.953
X6.827Y-3.9948
X6.827Y-4.0367
X6.827Y-4.0785
X6.8386Y-3.8642
X6.8386Y-4.1988
X6.8642Y-3.8406
X6.8642Y-4.1752
X6.8688Y-3.953
X6.8688Y-3.9948
X6.8688Y-4.0367
X6.8688Y-4.0785
X6.9107Y-3.953
X6.9107Y-3.9948
X6.9107Y-4.0367
X6.9107Y-4.0785
X6.9154Y-3.8406
X6.9409Y-3.8642
X6.9525Y-3.953
X6.9525Y-3.9948
X6.9525Y-4.0367
X6.9525Y-4.0785
X6.9665Y-3.8406
X6.9685Y-4.2402
X7.0413Y-3.9646
X7.0413Y-4.0157
X7.061Y-4.315
X7.065Y-3.939
X7.065Y-3.9902
X7.065Y-4.0413
X7.1909Y-3.7165
X7.2185Y-4.315
X7.2598Y-4.002
X7.3484Y-3.7165
X7.3484Y-4.0906
X7.376Y-4.315
X7.3858Y-3.9508
X7.5059Y-3.7165
X7.5335Y-4.315
T2
X3.878Y-3.937
X3.878Y-4.0157
X3.878Y-4.0945
X3.9567Y-3.937
X3.9567Y-4.0157
X3.9567Y-4.0945
X5.7717Y-3.8445
X5.7717Y-3.9665
X5.8701Y-3.8445
X5.8701Y-3.9665
X7.6181Y-3.937
X7.6181Y-4.0157
X7.6181Y-4.0945
X7.6969Y-3.937
X7.6969Y-4.0157
X7.6969Y-4.0945
T3
X4.065Y-4.0157
X4.09Y-3.9222
X4.09Y-4.1093
X4.1585Y-3.8538
X4.1585Y-4.1777
X4.252Y-4.2028
X4.3455Y-3.8538
X4.3455Y-4.1777
X4.4139Y-3.9222
X4.4139Y-4.1093
X4.439Y-4.0157
X4.9311Y-4.0157
X4.9561Y-3.9222
X4.9561Y-4.1093
X5.0246Y-3.8538
X5.0246Y-4.1777
X5.1181Y-4.2028
X5.2116Y-3.8538
X5.2116Y-4.1777
X5.2801Y-3.9222
X5.2801Y-4.1093
X5.3051Y-4.0157
X6.2697Y-4.0157
X6.2947Y-3.9222
X6.2947Y-4.1093
X6.3632Y-3.8538
X6.3632Y-4.1777
X6.4567Y-4.2028
X6.5502Y-3.8538
X6.5502Y-4.1777
X6.6187Y-3.9222
X6.6187Y-4.1093
X6.6437Y-4.0157
X7.1358Y-4.0157
X7.1609Y-3.9222
X7.1609Y-4.1093
X7.2293Y-3.8538
X7.2293Y-4.1777
X7.3228Y-4.2028
X7.4163Y-3.8538
X7.4163Y-4.1777
X7.4848Y-3.9222
X7.4848Y-4.1093
X7.5098Y-4.0157
T4
X5.5118Y-4.0157
X6.063Y-4.0157
T0
M30
