G04 #@! TF.FileFunction,Legend,Bot*
%FSLAX46Y46*%
G04 Gerber Fmt 4.6, Leading zero omitted, Abs format (unit mm)*
G04 Created by KiCad (PCBNEW 4.0.7) date 02/04/18 23:22:38*
%MOMM*%
%LPD*%
G01*
G04 APERTURE LIST*
%ADD10C,0.100000*%
%ADD11C,0.300000*%
%ADD12C,0.150000*%
G04 APERTURE END LIST*
D10*
D11*
X193857143Y-97250000D02*
X193142857Y-97250000D01*
X194000000Y-97678571D02*
X193500000Y-96178571D01*
X193000000Y-97678571D01*
X195107143Y-96250000D02*
X195250000Y-96178571D01*
X195464286Y-96178571D01*
X195678571Y-96250000D01*
X195821429Y-96392857D01*
X195892857Y-96535714D01*
X195964286Y-96821429D01*
X195964286Y-97035714D01*
X195892857Y-97321429D01*
X195821429Y-97464286D01*
X195678571Y-97607143D01*
X195464286Y-97678571D01*
X195321429Y-97678571D01*
X195107143Y-97607143D01*
X195035714Y-97535714D01*
X195035714Y-97035714D01*
X195321429Y-97035714D01*
X98821428Y-106892857D02*
X98321428Y-106892857D01*
X98107142Y-107678571D02*
X98821428Y-107678571D01*
X98821428Y-106178571D01*
X98107142Y-106178571D01*
X100035714Y-107535714D02*
X100107143Y-107607143D01*
X100321429Y-107678571D01*
X100464286Y-107678571D01*
X100678571Y-107607143D01*
X100821429Y-107464286D01*
X100892857Y-107321429D01*
X100964286Y-107035714D01*
X100964286Y-106821429D01*
X100892857Y-106535714D01*
X100821429Y-106392857D01*
X100678571Y-106250000D01*
X100464286Y-106178571D01*
X100321429Y-106178571D01*
X100107143Y-106250000D01*
X100035714Y-106321429D01*
X100892857Y-110178571D02*
X100892857Y-108678571D01*
X100535714Y-108678571D01*
X100321429Y-108750000D01*
X100178571Y-108892857D01*
X100107143Y-109035714D01*
X100035714Y-109321429D01*
X100035714Y-109535714D01*
X100107143Y-109821429D01*
X100178571Y-109964286D01*
X100321429Y-110107143D01*
X100535714Y-110178571D01*
X100892857Y-110178571D01*
X99000000Y-96178571D02*
X98500000Y-97678571D01*
X98000000Y-96178571D01*
X100107143Y-96250000D02*
X100250000Y-96178571D01*
X100464286Y-96178571D01*
X100678571Y-96250000D01*
X100821429Y-96392857D01*
X100892857Y-96535714D01*
X100964286Y-96821429D01*
X100964286Y-97035714D01*
X100892857Y-97321429D01*
X100821429Y-97464286D01*
X100678571Y-97607143D01*
X100464286Y-97678571D01*
X100321429Y-97678571D01*
X100107143Y-97607143D01*
X100035714Y-97535714D01*
X100035714Y-97035714D01*
X100321429Y-97035714D01*
X193857143Y-108678571D02*
X193714286Y-108678571D01*
X193571429Y-108750000D01*
X193500000Y-108821429D01*
X193428571Y-108964286D01*
X193357143Y-109250000D01*
X193357143Y-109607143D01*
X193428571Y-109892857D01*
X193500000Y-110035714D01*
X193571429Y-110107143D01*
X193714286Y-110178571D01*
X193857143Y-110178571D01*
X194000000Y-110107143D01*
X194071429Y-110035714D01*
X194142857Y-109892857D01*
X194214286Y-109607143D01*
X194214286Y-109250000D01*
X194142857Y-108964286D01*
X194071429Y-108821429D01*
X194000000Y-108750000D01*
X193857143Y-108678571D01*
X192857143Y-110178571D02*
X192071429Y-109178571D01*
X192857143Y-109178571D02*
X192071429Y-110178571D01*
X191642857Y-108678571D02*
X190642857Y-108678571D01*
X191285714Y-110178571D01*
X190071429Y-110178571D02*
X190071429Y-108678571D01*
X189714286Y-108678571D01*
X189500001Y-108750000D01*
X189357143Y-108892857D01*
X189285715Y-109035714D01*
X189214286Y-109321429D01*
X189214286Y-109535714D01*
X189285715Y-109821429D01*
X189357143Y-109964286D01*
X189500001Y-110107143D01*
X189714286Y-110178571D01*
X190071429Y-110178571D01*
X188571429Y-110035714D02*
X188500001Y-110107143D01*
X188571429Y-110178571D01*
X188642858Y-110107143D01*
X188571429Y-110035714D01*
X188571429Y-110178571D01*
X187214286Y-110107143D02*
X187357143Y-110178571D01*
X187642857Y-110178571D01*
X187785715Y-110107143D01*
X187857143Y-110035714D01*
X187928572Y-109892857D01*
X187928572Y-109464286D01*
X187857143Y-109321429D01*
X187785715Y-109250000D01*
X187642857Y-109178571D01*
X187357143Y-109178571D01*
X187214286Y-109250000D01*
X186357143Y-110178571D02*
X186500001Y-110107143D01*
X186571429Y-110035714D01*
X186642858Y-109892857D01*
X186642858Y-109464286D01*
X186571429Y-109321429D01*
X186500001Y-109250000D01*
X186357143Y-109178571D01*
X186142858Y-109178571D01*
X186000001Y-109250000D01*
X185928572Y-109321429D01*
X185857143Y-109464286D01*
X185857143Y-109892857D01*
X185928572Y-110035714D01*
X186000001Y-110107143D01*
X186142858Y-110178571D01*
X186357143Y-110178571D01*
X185214286Y-110178571D02*
X185214286Y-109178571D01*
X185214286Y-109321429D02*
X185142858Y-109250000D01*
X185000000Y-109178571D01*
X184785715Y-109178571D01*
X184642858Y-109250000D01*
X184571429Y-109392857D01*
X184571429Y-110178571D01*
X184571429Y-109392857D02*
X184500000Y-109250000D01*
X184357143Y-109178571D01*
X184142858Y-109178571D01*
X184000000Y-109250000D01*
X183928572Y-109392857D01*
X183928572Y-110178571D01*
D12*
X102000000Y-98500000D02*
X97000000Y-98500000D01*
X97000000Y-98500000D02*
X97000000Y-105500000D01*
X97000000Y-105500000D02*
X102000000Y-105500000D01*
X102000000Y-105500000D02*
X102000000Y-98500000D01*
X197000000Y-98500000D02*
X192000000Y-98500000D01*
X192000000Y-98500000D02*
X192000000Y-105500000D01*
X192000000Y-105500000D02*
X197000000Y-105500000D01*
X197000000Y-105500000D02*
X197000000Y-98500000D01*
M02*
